# Blender v2.93.5 OBJ File: ''
# www.blender.org
mtllib listik.mtl
o Plane_Plane.001
v -0.313902 -0.018083 0.335385
v 0.344662 -0.018083 0.292410
v 0.005120 -0.153400 0.745189
v -0.177995 0.082556 -0.585356
v 0.005120 -0.167688 0.856502
v 0.188234 0.082556 -0.585356
v 0.155438 -0.110470 0.674825
v 0.005120 0.033840 -0.826164
v -0.268523 0.031481 -0.289297
v 0.298197 -0.027170 0.523143
v -0.328745 -0.012913 0.210807
v -0.287957 -0.027170 0.523143
v 0.289771 0.031481 -0.248522
v -0.145198 -0.110470 0.674825
v -0.282135 -0.024001 0.453499
v 0.005120 0.018189 -0.289297
v -0.136168 0.084362 -0.705377
v 0.146407 0.084362 -0.705377
v 0.188345 0.047472 -0.289297
v -0.178105 0.047472 -0.289297
v 0.292375 -0.024001 0.453499
v 0.337520 -0.012940 0.210807
v -0.330480 0.014833 -0.008024
v 0.150020 -0.012614 0.168520
v 0.152229 -0.048250 0.371042
v -0.146268 -0.112040 0.776086
v 0.227782 0.069812 -0.457241
v 0.310512 -0.004932 0.047601
v -0.299080 -0.004828 0.051654
v 0.005120 0.041212 -0.457241
v -0.155454 0.088718 -0.663905
v 0.093427 0.055224 -0.762246
v -0.217543 0.069812 -0.457241
v 0.156507 -0.112040 0.776086
v 0.326745 -0.008335 0.129204
v -0.139780 -0.012614 0.168520
v 0.327812 0.014833 -0.115348
v -0.253520 -0.007314 0.105284
v -0.324950 -0.008200 0.129204
v 0.005120 -0.024920 -0.034002
v -0.083188 0.055224 -0.762246
v 0.165693 0.088718 -0.663905
v 0.156992 0.061845 -0.457241
v 0.232727 0.007209 -0.034002
v 0.117906 0.040379 -0.289297
v 0.230900 0.034439 -0.289297
v -0.146752 0.061845 -0.457241
v -0.222531 0.007192 -0.034002
v -0.220660 0.034439 -0.289297
v -0.107666 0.040379 -0.289297
v 0.258974 -0.007360 0.105284
v -0.141989 -0.048250 0.371042
v 0.005120 -0.046951 0.188624
v -0.264669 -0.015645 0.244570
v 0.154368 -0.088750 0.573564
v 0.274909 -0.015645 0.244570
v 0.005120 -0.071280 0.411250
v 0.005120 -0.115023 0.633876
v 0.286553 -0.019533 0.383856
v -0.129085 -0.002247 -0.034002
v -0.281712 0.005902 -0.034002
v -0.179253 0.067291 -0.457241
v 0.290912 0.005892 -0.034002
v 0.139325 -0.002247 -0.034002
v 0.102882 0.056257 -0.457241
v 0.189493 0.067291 -0.457241
v -0.092643 0.056257 -0.457241
v -0.276313 -0.019533 0.383856
v -0.144129 -0.088750 0.573564
v 0.264519 0.031481 -0.344709
v -0.335385 0.014833 0.046926
v 0.359528 -0.011497 0.220951
v -0.305424 -0.015857 0.287777
v -0.340531 -0.004047 0.297136
vt 0.481402 1.000000
vt 0.273659 0.949940
vt 0.277816 0.890087
vt 0.484866 0.933818
vt 0.661704 0.217801
vt 0.524019 0.217689
vt 0.533136 0.000000
vt 0.656207 0.037619
vt 0.266707 0.215832
vt 0.213145 0.215534
vt 0.272407 0.139703
vt 0.306277 0.093251
vt 0.387634 0.216668
vt 0.312029 0.216185
vt 0.334184 0.068998
vt 0.408642 0.036596
vt 0.323202 0.468222
vt 0.192687 0.467395
vt 0.263165 0.315638
vt 0.361595 0.316261
vt 0.111071 0.467097
vt 0.061815 0.418564
vt 0.119261 0.339619
vt 0.202953 0.315786
vt 0.783584 0.217969
vt 0.737791 0.217945
vt 0.730273 0.070636
vt 0.756434 0.095113
vt 0.913726 0.470415
vt 0.830828 0.470033
vt 0.776824 0.317762
vt 0.835911 0.318403
vt 0.699436 0.469777
vt 0.510340 0.469686
vt 0.518730 0.317586
vt 0.677782 0.317568
vt 0.085184 0.797145
vt 0.095263 0.755946
vt 0.906804 0.800542
vt 0.698063 0.951694
vt 0.699222 0.891829
vt 0.900561 0.759276
vt 0.282843 0.829623
vt 0.489370 0.866908
vt 0.105398 0.714709
vt 0.894375 0.717971
vt 0.701250 0.831353
vt 0.705179 0.710492
vt 0.881783 0.635513
vt 0.496952 0.734086
vt 0.026346 0.660313
vt 0.038666 0.611998
vt 0.972580 0.615859
vt 0.937796 0.661277
vt 0.969552 0.567494
vt 0.708800 0.589777
vt 0.870077 0.552924
vt 0.503696 0.601851
vt 0.056055 0.563721
vt 0.125449 0.632386
vt 0.935418 0.521435
vt 0.292769 0.708787
vt 0.081044 0.515512
vt 0.151705 0.549956
vt 0.302584 0.588097
vt 0.981806 0.485773
vt 0.902873 0.318770
vt 0.837363 0.218114
vt 0.785755 0.141826
vt 0.987277 0.666651
vt 0.157118 0.282950
vt 0.987277 0.518258
vt 0.007620 0.617819
vt 0.948365 0.689514
vn 0.0000 0.9971 0.0758
vn -0.3205 0.9449 0.0666
vn -0.3052 0.9426 0.1353
vn 0.0000 0.9892 0.1465
vn 0.2011 0.9773 0.0665
vn 0.0000 0.9984 0.0571
vn 0.0000 0.9999 -0.0098
vn 0.2268 0.9739 0.0057
vn -0.0267 0.9903 0.1365
vn 0.0568 0.9840 0.1686
vn -0.0941 0.9884 0.1187
vn -0.2615 0.9585 0.1133
vn -0.2011 0.9773 0.0665
vn -0.1579 0.9827 0.0967
vn -0.3220 0.9449 0.0587
vn -0.2268 0.9739 0.0057
vn -0.1300 0.9836 0.1253
vn 0.0132 0.9935 0.1128
vn 0.0091 0.9918 0.1271
vn -0.1372 0.9804 0.1413
vn -0.0096 0.9945 0.1040
vn -0.0325 0.9928 0.1150
vn -0.0118 0.9929 0.1185
vn 0.1089 0.9859 0.1271
vn 0.0603 0.9887 0.1371
vn 0.1579 0.9827 0.0967
vn 0.3220 0.9449 0.0587
vn 0.2615 0.9585 0.1133
vn 0.0402 0.9933 0.1082
vn -0.0118 0.9936 0.1123
vn -0.0088 0.9918 0.1271
vn -0.0436 0.9896 0.1370
vn 0.1297 0.9836 0.1254
vn 0.0000 0.9919 0.1265
vn 0.0000 0.9889 0.1483
vn 0.1372 0.9804 0.1413
vn -0.4216 0.9056 0.0449
vn -0.1484 0.9843 0.0949
vn 0.4337 0.8999 0.0444
vn 0.3205 0.9449 0.0666
vn 0.3052 0.9426 0.1353
vn 0.1668 0.9815 0.0933
vn -0.1949 0.9625 0.1885
vn 0.0000 0.9698 0.2439
vn -0.0987 0.9904 0.0966
vn 0.1152 0.9887 0.0953
vn 0.1949 0.9625 0.1885
vn 0.1578 0.9763 0.1476
vn 0.0595 0.9944 0.0873
vn 0.0000 0.9850 0.1727
vn 0.0519 0.9972 0.0533
vn -0.0602 0.9961 0.0650
vn 0.3611 0.9288 0.0832
vn 0.1033 0.9945 0.0128
vn 0.3503 0.9313 0.0998
vn 0.1152 0.9873 0.1093
vn 0.0201 0.9964 0.0824
vn 0.0000 0.9935 0.1138
vn -0.0687 0.9948 0.0747
vn -0.0594 0.9944 0.0869
vn 0.3181 0.9406 0.1183
vn -0.1579 0.9763 0.1476
vn -0.0491 0.9944 0.0941
vn -0.0199 0.9964 0.0826
vn -0.1155 0.9872 0.1096
vn 0.0891 0.9906 0.1038
vn 0.0502 0.9879 0.1466
vn 0.0357 0.9847 0.1706
vn 0.0941 0.9884 0.1187
vn 0.3622 0.9317 -0.0270
vn 0.1604 0.9664 0.2006
vn 0.6485 0.7491 0.1351
vn -0.1295 0.9867 0.0980
vn -0.0145 0.9986 0.0508
usemtl Material.009
s 1
f 5/1/1 34/2/2 7/3/3 3/4/4
f 67/5/5 30/6/6 8/7/7 41/8/8
f 66/9/9 27/10/10 6/11/11 42/12/12
f 65/13/13 43/14/14 18/15/15 32/16/16
f 64/17/17 44/18/18 19/19/19 45/20/20
f 63/21/21 37/22/22 13/23/23 46/24/24
f 62/25/25 47/26/26 17/27/27 31/28/28
f 61/29/29 48/30/30 20/31/31 49/32/32
f 60/33/33 40/34/34 16/35/35 50/36/36
f 34/2/2 10/37/37 21/38/38 7/3/3
f 12/39/39 26/40/40 14/41/41 15/42/42
f 26/40/40 5/1/1 3/4/4 14/41/41
f 3/4/4 7/3/3 55/43/43 58/44/44
f 7/3/3 21/38/38 59/45/45 55/43/43
f 68/46/46 69/47/47 52/48/48 54/49/49
f 69/47/47 58/44/44 57/50/50 52/48/48
f 10/37/37 2/51/51 22/52/52 59/45/45 21/38/38
f 11/53/53 73/54/54 68/46/46 54/49/49 39/55/55
f 54/49/49 52/48/48 36/56/56 38/57/57
f 52/48/48 57/50/50 53/58/58 36/56/56
f 59/45/45 22/52/52 35/59/59 56/60/60
f 39/55/55 54/49/49 38/57/57 29/61/61
f 58/44/44 55/43/43 25/62/62 57/50/50
f 55/43/43 59/45/45 56/60/60 25/62/62
f 56/60/60 35/59/59 28/63/63 51/64/64
f 57/50/50 25/62/62 24/65/65 53/58/58
f 48/30/30 60/33/33 50/36/36 20/31/31
f 38/57/57 36/56/56 60/33/33 48/30/30
f 36/56/56 53/58/58 40/34/34 60/33/33
f 23/66/66 61/29/29 49/32/32 9/67/67
f 29/61/61 38/57/57 48/30/30 61/29/29
f 33/68/68 62/25/25 31/28/28 4/69/69
f 9/67/67 49/32/32 62/25/25 33/68/68
f 49/32/32 20/31/31 47/26/26 62/25/25
f 44/18/18 63/21/21 46/24/24 19/19/19
f 51/64/64 28/63/63 63/21/21 44/18/18
f 74/70/70 73/54/54 11/53/53
f 40/34/34 64/17/17 45/20/20 16/35/35
f 53/58/58 24/65/65 64/17/17 40/34/34
f 24/65/65 51/64/64 44/18/18 64/17/17
f 30/6/6 65/13/13 32/16/16 8/7/7
f 16/35/35 45/20/20 65/13/13 30/6/6
f 45/20/20 19/19/19 43/14/14 65/13/13
f 43/14/14 66/9/9 42/12/12 18/15/15
f 19/19/19 46/24/24 66/9/9 43/14/14
f 46/24/24 70/71/71 27/10/10 66/9/9
f 47/26/26 67/5/5 41/8/8 17/27/27
f 20/31/31 50/36/36 67/5/5 47/26/26
f 50/36/36 16/35/35 30/6/6 67/5/5
f 25/62/62 56/60/60 51/64/64 24/65/65
f 15/42/42 14/41/41 69/47/47 68/46/46
f 14/41/41 3/4/4 58/44/44 69/47/47
f 74/70/70 11/53/53 39/55/55 29/61/61 61/29/29 71/72/72
f 22/52/52 72/73/73 37/22/22 63/21/21 28/63/63 35/59/59
f 73/54/54 1/74/74 12/39/39 15/42/42 68/46/46
