# Blender v2.93.5 OBJ File: 'FlowerS.blend'
# www.blender.org
mtllib FlowersYellow.mtl
o Plane.003_Plane.004
v 1.903541 1.284893 0.854054
v 1.898097 -0.796008 0.853080
v 1.928863 1.284893 0.490386
v 1.914753 -0.796008 0.487862
v 1.874635 0.203992 0.873499
v 1.937705 0.203992 0.520947
v 2.083805 1.284893 0.733357
v 2.055841 -0.784792 0.725557
v 1.739581 1.284893 0.599348
v 1.732426 -0.796008 0.639343
v 2.108826 0.203992 0.706680
v 1.737220 0.203992 0.654542
v 3.045884 1.542968 2.552466
v 3.556046 1.542968 -0.299240
v 0.194178 1.542968 2.042303
v 0.704340 1.542968 -0.809403
v 1.672993 1.104897 2.001336
v 2.077231 1.104897 -0.258272
v 3.004916 1.104897 1.073650
v 0.745308 1.104897 0.669413
v 1.875112 1.385144 0.871532
v -1.032716 1.711476 0.786236
v -1.032716 -0.369425 0.780705
v -0.670273 1.711476 0.747119
v -0.670273 -0.369425 0.732785
v -1.056948 0.630575 0.761205
v -0.698798 0.630575 0.761205
v -0.882161 1.711476 0.942427
v -0.879407 -0.358209 0.913528
v -0.810864 1.711476 0.579984
v -0.851495 -0.369425 0.579984
v -0.851495 0.630575 0.962360
v -0.865612 0.630575 0.587380
v -2.503417 1.969551 2.209819
v 0.393563 1.969550 2.209819
v -2.503417 1.969550 -0.687161
v 0.393563 1.969550 -0.687161
v -2.202668 1.531480 0.761329
v 0.092813 1.531480 0.761329
v -1.054927 1.531480 1.909070
v -1.054927 1.531480 -0.386412
v -1.054927 1.811726 0.761329
v -1.355156 1.481542 -2.425975
v -1.349988 -0.599359 -2.424005
v -1.447744 1.481542 -2.073380
v -1.434350 -0.599359 -2.068273
v -1.323134 0.400641 -2.439698
v -1.450742 0.400641 -2.105053
v -1.554739 1.481542 -2.340951
v -1.528717 -0.588143 -2.328081
v -1.241484 1.481542 -2.145195
v -1.227008 -0.599359 -2.183159
v -1.584290 0.400641 -2.319399
v -1.228889 0.400641 -2.198985
v -2.161307 1.739616 -4.307376
v -3.193491 1.739616 -1.600516
v 0.545552 1.739617 -3.275191
v -0.486633 1.739616 -0.568331
v -0.915033 1.301546 -3.510272
v -1.732906 1.301546 -1.365436
v -2.396388 1.301545 -2.846790
v -0.251552 1.301546 -2.028917
v -1.323970 1.581792 -2.437854
vt 0.987760 0.153807
vt 0.987760 0.327899
vt 0.763695 0.327899
vt 0.763695 0.153807
vt 0.988286 0.201236
vt 0.988286 0.410111
vt 0.762094 0.410111
vt 0.762094 0.201236
vt 0.987760 0.153807
vt 0.987760 0.327899
vt 0.763695 0.327899
vt 0.763695 0.153807
vt 0.988286 0.201236
vt 0.988286 0.410111
vt 0.762094 0.410111
vt 0.762094 0.201236
vt 0.195589 0.147924
vt 0.381964 0.147924
vt 0.381964 0.296240
vt 0.195589 0.296240
vt 0.195589 -0.000393
vt 0.381964 -0.000393
vt 0.009214 -0.000393
vt 0.009214 0.147924
vt 0.009214 0.296240
vt 0.987760 0.153807
vt 0.987760 0.327899
vt 0.763695 0.327899
vt 0.763695 0.153807
vt 0.988286 0.201236
vt 0.988286 0.410111
vt 0.762094 0.410111
vt 0.762094 0.201236
vt 0.987760 0.153807
vt 0.987760 0.327899
vt 0.763695 0.327899
vt 0.763695 0.153807
vt 0.988286 0.201236
vt 0.988286 0.410111
vt 0.762094 0.410111
vt 0.762094 0.201236
vt 0.195589 0.147924
vt 0.381964 0.147924
vt 0.381964 0.296240
vt 0.195589 0.296240
vt 0.195589 -0.000393
vt 0.381964 -0.000393
vt 0.009214 -0.000393
vt 0.009214 0.147924
vt 0.009214 0.296240
vt 0.987760 0.153807
vt 0.987760 0.327899
vt 0.763695 0.327899
vt 0.763695 0.153807
vt 0.988286 0.201236
vt 0.988286 0.410111
vt 0.762094 0.410111
vt 0.762094 0.201236
vt 0.987760 0.153807
vt 0.987760 0.327899
vt 0.763695 0.327899
vt 0.763695 0.153807
vt 0.988286 0.201236
vt 0.988286 0.410111
vt 0.762094 0.410111
vt 0.762094 0.201236
vt 0.195589 0.147924
vt 0.381964 0.147924
vt 0.381964 0.296240
vt 0.195589 0.296240
vt 0.195589 -0.000393
vt 0.381964 -0.000393
vt 0.009214 -0.000393
vt 0.009214 0.147924
vt 0.009214 0.296240
vn 0.9939 -0.0027 0.1104
vn 0.9925 -0.0064 0.1225
vn 0.1953 -0.0075 -0.9807
vn 0.2517 -0.0101 -0.9678
vn 0.0439 0.9970 0.0630
vn -0.0630 0.9970 0.0439
vn -0.0439 0.9970 -0.0630
vn 0.0630 0.9970 -0.0439
vn 0.0664 -0.0027 0.9978
vn 0.0542 -0.0064 0.9985
vn 0.9998 -0.0075 0.0196
vn 0.9970 -0.0101 0.0773
vn -0.0543 0.9970 0.0543
vn -0.0543 0.9970 -0.0543
vn 0.0543 0.9970 -0.0543
vn 0.0543 0.9970 0.0543
vn -0.9560 -0.0027 -0.2935
vn -0.9523 -0.0064 -0.3051
vn -0.3745 -0.0075 0.9272
vn -0.4274 -0.0101 0.9040
vn -0.0314 0.9970 -0.0701
vn 0.0701 0.9970 -0.0314
vn 0.0314 0.9970 0.0701
vn -0.0701 0.9970 0.0314
usemtl None
s off
f 5/1/1 2/2/1 4/3/1 6/4/1
f 1/5/2 5/6/2 6/7/2 3/8/2
f 11/9/3 8/10/3 10/11/3 12/12/3
f 7/13/4 11/14/4 12/15/4 9/16/4
f 21/17/5 18/18/5 16/19/5 20/20/5
f 19/21/6 14/22/6 18/18/6 21/17/6
f 13/23/7 19/21/7 21/17/7 17/24/7
f 17/24/8 21/17/8 20/20/8 15/25/8
f 26/26/9 23/27/9 25/28/9 27/29/9
f 22/30/10 26/31/10 27/32/10 24/33/10
f 32/34/11 29/35/11 31/36/11 33/37/11
f 28/38/12 32/39/12 33/40/12 30/41/12
f 42/42/13 39/43/13 37/44/13 41/45/13
f 40/46/14 35/47/14 39/43/14 42/42/14
f 34/48/15 40/46/15 42/42/15 38/49/15
f 38/49/16 42/42/16 41/45/16 36/50/16
f 47/51/17 44/52/17 46/53/17 48/54/17
f 43/55/18 47/56/18 48/57/18 45/58/18
f 53/59/19 50/60/19 52/61/19 54/62/19
f 49/63/20 53/64/20 54/65/20 51/66/20
f 63/67/21 60/68/21 58/69/21 62/70/21
f 61/71/22 56/72/22 60/68/22 63/67/22
f 55/73/23 61/71/23 63/67/23 59/74/23
f 59/74/24 63/67/24 62/70/24 57/75/24
