# Blender v2.93.5 OBJ File: 'Corridors.blend'
# www.blender.org
mtllib BorderUpLong.mtl
o Cube.017_Cube.013
v 4.603078 2.326396 0.753747
v 4.603078 2.326396 0.517058
v 4.776709 2.326396 0.517058
v 4.776709 2.326396 0.753747
v 4.603078 4.507363 0.753747
v 4.603078 4.507363 0.517058
v 4.776709 4.507363 0.517058
v 4.776709 4.507363 0.753747
v 4.603078 6.601542 0.753747
v 4.603078 6.601542 0.517058
v 4.776709 6.601542 0.517058
v 4.776709 6.601542 0.753747
vt 0.020642 0.000544
vt 0.039652 0.000544
vt 0.039652 0.510139
vt 0.020642 0.510139
vt 0.055774 0.510139
vt 0.069719 0.510139
vt 0.069719 0.999455
vt 0.055774 0.999455
vt 0.000544 0.000544
vt 0.019554 0.000544
vt 0.019554 0.510139
vt 0.000544 0.510139
vt 0.055774 0.000544
vt 0.069719 0.000544
vt 0.040740 0.000544
vt 0.054685 0.000544
vt 0.054685 0.510139
vt 0.040740 0.510139
vt 0.070807 0.039652
vt 0.070807 0.020642
vt 0.084752 0.020642
vt 0.084752 0.039652
vt 0.070807 0.000544
vt 0.084752 0.000544
vt 0.084752 0.019554
vt 0.070807 0.019554
vt 0.054685 0.999455
vt 0.040740 0.999455
vt 0.039652 0.999455
vt 0.020642 0.999455
vt 0.019554 0.999455
vt 0.000544 0.999455
vn 1.0000 0.0000 0.0000
vn 0.0000 0.0000 1.0000
vn -1.0000 0.0000 0.0000
vn 0.0000 0.0000 -1.0000
vn 0.0000 -1.0000 0.0000
vn 0.0000 1.0000 0.0000
usemtl None
s off
f 4/1/1 3/2/1 7/3/1 8/4/1
f 5/5/2 8/6/2 12/7/2 9/8/2
f 2/9/3 1/10/3 5/11/3 6/12/3
f 1/13/2 4/14/2 8/6/2 5/5/2
f 3/15/4 2/16/4 6/17/4 7/18/4
f 1/19/5 2/20/5 3/21/5 4/22/5
f 11/23/6 10/24/6 9/25/6 12/26/6
f 7/18/4 6/17/4 10/27/4 11/28/4
f 8/4/1 7/3/1 11/29/1 12/30/1
f 6/12/3 5/11/3 9/31/3 10/32/3
