# Blender v2.93.5 OBJ File: 'Corridors.blend'
# www.blender.org
mtllib PostWall.mtl
o Cube.004_Cube.006
v 0.999288 -0.461328 -1.176763
v 0.999288 0.340013 -1.183326
v 0.999288 -0.461328 -1.625782
v 0.999288 0.340013 -1.625782
v 1.186317 -0.461328 -0.999662
v 1.186317 0.340013 -0.999662
v 1.628843 -0.461328 -0.999662
v 1.628843 0.340013 -0.999662
v 0.999288 0.890389 -1.436440
v 0.999288 0.890389 -1.625782
v 1.628843 0.890389 -0.999662
v 1.439431 0.890389 -0.999662
v 0.999288 1.761221 -1.436440
v 0.999288 1.761221 -1.625782
v 1.628843 1.761221 -0.999662
v 1.439431 1.761221 -0.999662
v 0.999823 -0.145306 -1.183326
v 0.999288 -0.080521 -1.625782
v 1.628843 -0.080521 -0.999662
v 1.186317 -0.145306 -1.000054
v 1.002428 -0.145306 -1.000054
v 1.002428 -0.461328 -0.999662
v 0.999288 -0.461328 -1.000145
v 0.999823 -0.145306 -1.000145
vt 0.058149 0.477058
vt 0.058149 0.356896
vt 0.084404 0.355895
vt 0.084404 0.460017
vt 0.160773 0.098360
vt 0.160773 0.202554
vt 0.085430 0.202554
vt 0.085430 0.098360
vt 0.009064 0.460040
vt 0.009064 0.355918
vt 0.036098 0.356889
vt 0.036098 0.477053
vt 0.215414 0.057911
vt 0.161799 0.004978
vt 0.199486 0.004978
vt 0.215414 0.019670
vt 0.160772 0.338918
vt 0.085430 0.338918
vt 0.020635 0.220063
vt 0.009064 0.219647
vt 0.009064 0.004032
vt 0.020635 0.004448
vt 0.073169 0.220052
vt 0.084404 0.219624
vt 0.173274 0.058937
vt 0.173274 0.134279
vt 0.161798 0.122950
vt 0.161941 0.070416
vt 0.073169 0.004438
vt 0.084404 0.004010
vt 0.160772 0.554681
vt 0.085430 0.554681
vt 0.057760 0.555319
vt 0.046848 0.555734
vt 0.046848 0.477489
vt 0.009064 0.554326
vt 0.036098 0.555298
vt 0.160773 0.004010
vt 0.085430 0.004010
vt 0.084404 0.554303
vt 0.216930 0.004010
vt 0.216930 0.082309
vt 0.216440 0.082309
vt 0.216440 0.004010
vt 0.047331 0.477456
vt 0.047331 0.555702
vt 0.215147 0.004978
vt 0.215414 0.004010
vt 0.790209 0.303741
vt 0.812313 0.282576
vt 0.812313 0.305085
vt 0.811942 0.303741
vn -1.0000 -0.0006 0.0006
vn 0.7052 0.0000 -0.7090
vn -0.0004 -0.0004 1.0000
vn -0.7008 -0.0007 0.7134
vn 0.0000 -1.0000 0.0000
vn 0.0000 0.0000 1.0000
vn -1.0000 0.0000 0.0000
vn -0.6688 0.3092 0.6761
vn 0.0000 1.0000 0.0000
vn -0.7044 0.0000 0.7098
vn -1.0000 0.0017 0.0000
vn -0.0005 0.0006 1.0000
vn -1.0000 0.0008 0.0007
vn -0.0996 0.0007 0.9950
vn 0.0000 0.0012 1.0000
usemtl None
s off
f 17/1/1 2/2/1 4/3/1 18/4/1
f 18/5/2 4/6/2 8/7/2 19/8/2
f 19/9/3 8/10/3 6/11/3 20/12/3
f 20/12/4 6/11/4 2/2/4 17/1/4
f 3/13/5 7/14/5 5/15/5 1/16/5
f 8/7/2 4/6/2 10/17/2 11/18/2
f 12/19/6 11/20/6 15/21/6 16/22/6
f 6/11/6 8/10/6 11/20/6 12/19/6
f 4/3/7 2/2/7 9/23/7 10/24/7
f 2/2/8 6/11/8 12/19/8 9/23/8
f 15/25/9 14/26/9 13/27/9 16/28/9
f 10/24/7 9/23/7 13/29/7 14/30/7
f 9/23/10 12/19/10 16/22/10 13/29/10
f 11/18/2 10/17/2 14/31/2 15/32/2
f 17/1/11 1/33/11 23/34/11 24/35/11
f 7/36/12 19/9/12 20/12/12 5/37/12
f 3/38/2 18/5/2 19/8/2 7/39/2
f 1/33/13 17/1/13 18/4/13 3/40/13
f 22/41/14 21/42/14 24/43/14 23/44/14
f 5/37/15 20/12/15 21/45/15 22/46/15
f 1/16/5 5/15/5 22/47/5 23/48/5
f 20/49/9 17/50/9 24/51/9 21/52/9
