# Blender v2.93.5 OBJ File: 'Corridors.blend'
# www.blender.org
mtllib AfterPostWall2Floor.mtl
o Cube.013_Cube.020
v -1.435920 0.340013 -1.625306
v -0.999387 0.340013 -1.183818
v -0.999387 -0.461328 -1.625721
v -0.999387 0.340013 -1.626344
v -1.182806 0.890389 -1.625306
v -0.999387 0.890389 -1.626344
v -0.999387 0.890389 -1.436932
v -1.182806 1.761222 -1.625306
v -0.999387 1.761222 -1.626344
v -0.999387 1.761222 -1.436932
v -1.435920 -0.145306 -1.625721
v -0.999387 -0.080521 -1.625721
v -0.999387 -0.145306 -1.183818
v -0.999387 -0.145306 -0.999928
v -0.999387 -0.461328 -1.000987
v -1.617453 -0.461328 -1.625721
v -1.619810 -0.145306 -1.625721
v -1.217653 0.340013 -1.404562
v -1.091096 0.890389 -1.531119
v -1.091096 1.761222 -1.531119
v -1.217653 -0.145306 -1.404562
v -1.617453 -0.461328 -1.000987
v -1.617453 -0.096542 -0.999187
v -1.617453 -0.096542 -1.623506
v -1.341981 -0.145306 -1.278647
v -0.999387 -0.096542 -0.999187
v -1.341981 -0.096542 -1.276847
vt 0.087545 0.156612
vt 0.087545 0.313249
vt 0.030889 0.313249
vt 0.030889 0.132481
vt 0.200303 0.724901
vt 0.200303 0.544133
vt 0.228775 0.544133
vt 0.228775 0.724901
vt 0.089972 0.518249
vt 0.113455 0.518249
vt 0.113455 0.842611
vt 0.089972 0.842611
vt 0.063295 0.518249
vt 0.087545 0.518249
vt 0.087545 0.842610
vt 0.063295 0.842610
vt 0.171831 0.544133
vt 0.204236 0.339133
vt 0.216383 0.339133
vt 0.336543 0.362660
vt 0.313060 0.362527
vt 0.324802 0.350468
vt 0.336543 0.338409
vt 0.145861 0.313249
vt 0.089972 0.313249
vt 0.089972 0.156612
vt 0.145861 0.132481
vt 0.204236 0.014772
vt 0.216383 0.014772
vt 0.007346 0.132481
vt 0.007346 0.014771
vt 0.087545 0.014771
vt 0.310030 0.270780
vt 0.310030 0.288944
vt 0.231201 0.288943
vt 0.231201 0.153070
vt 0.310030 0.153071
vt 0.231201 0.371570
vt 0.231335 0.291370
vt 0.310164 0.291773
vt 0.310634 0.371570
vt 0.089972 0.014771
vt 0.169404 0.014771
vt 0.169404 0.132481
vt 0.313060 0.335753
vt 0.313060 0.291370
vt 0.331223 0.291600
vt 0.331223 0.335983
vt 0.228530 0.339133
vt 0.228530 0.014771
vt 0.171831 0.724902
vt 0.812453 0.316342
vt 0.812453 0.353831
vt 0.791085 0.353575
vt 0.796839 0.300551
vt 0.812453 0.391321
vt 0.796661 0.406935
vt 0.362221 0.209295
vt 0.368227 0.265854
vt 0.312457 0.208781
vt 0.368227 0.153070
vt 0.333650 0.335115
vt 0.333650 0.291370
vt 0.351813 0.291371
vt 0.351813 0.335116
vt 0.310999 0.014771
vt 0.311229 0.150644
vt 0.231431 0.150644
vt 0.231201 0.132481
vt 0.231201 0.014771
vn 1.0000 0.0000 0.0000
vn -0.7114 -0.0003 0.7028
vn -0.0057 0.0000 -1.0000
vn -0.6780 0.3081 0.6673
vn 0.0000 1.0000 0.0000
vn -0.0012 -0.0002 -1.0000
vn -0.7165 0.0000 0.6976
vn -0.0033 0.0008 -1.0000
vn 0.0004 -0.0049 1.0000
vn 0.0000 -1.0000 0.0000
vn 0.0000 0.0000 -1.0000
vn 0.7818 0.0068 -0.6235
vn -0.6775 0.3104 0.6668
vn -0.7111 0.0000 0.7031
vn 0.6302 0.0202 -0.7761
vn -1.0000 -0.0000 0.0019
usemtl None
s off
f 12/1/1 4/2/1 2/3/1 13/4/1
f 21/5/2 18/6/2 1/7/2 11/8/2
f 6/9/3 5/10/3 8/11/3 9/12/3
f 7/13/1 6/14/1 9/15/1 10/16/1
f 2/3/1 4/2/1 6/14/1 7/13/1
f 18/6/4 2/17/4 7/18/4 19/19/4
f 9/20/5 8/21/5 20/22/5 10/23/5
f 1/24/6 4/25/6 12/26/6 11/27/6
f 19/19/7 7/18/7 10/28/7 20/29/7
f 13/4/1 14/30/1 15/31/1 3/32/1 12/1/1
f 1/24/8 5/10/8 6/9/8 4/25/8
f 14/33/9 26/34/9 23/35/9 22/36/9 15/37/9
f 3/38/10 15/39/10 22/40/10 16/41/10
f 3/42/11 16/43/11 17/44/11 11/27/11 12/26/11
f 25/45/12 17/46/12 24/47/12 27/48/12
f 5/49/7 19/19/7 20/29/7 8/50/7
f 1/7/13 18/6/13 19/19/13 5/49/13
f 13/51/14 2/17/14 18/6/14 21/5/14
f 13/52/5 21/53/5 25/54/5 14/55/5
f 21/53/5 11/56/5 17/57/5 25/54/5
f 27/58/5 24/59/5 23/60/5
f 26/61/5 27/58/5 23/60/5
f 14/62/15 25/63/15 27/64/15 26/65/15
f 22/66/16 23/67/16 24/68/16 17/69/16 16/70/16
