# Blender v2.93.5 OBJ File: 'Corridors.blend'
# www.blender.org
mtllib UpWallBorder.mtl
o Cube.008_Cube.012
v -1.176641 1.764497 -1.389656
v -1.176641 1.764497 -1.626344
v -1.003010 1.764497 -1.626344
v -1.003010 1.764497 -1.389656
v -1.176641 2.635329 -1.389656
v -1.176641 2.635329 -1.626344
v -1.003010 2.635329 -1.626344
v -1.003010 2.635329 -1.389656
vt 0.055044 0.005627
vt 0.096149 0.005627
vt 0.096149 0.445604
vt 0.055044 0.445604
vt 0.159874 0.047871
vt 0.190028 0.047871
vt 0.190028 0.088975
vt 0.159874 0.088975
vt 0.012800 0.005627
vt 0.053905 0.005627
vt 0.053905 0.445604
vt 0.012800 0.445604
vt 0.097288 0.005627
vt 0.127442 0.005627
vt 0.127442 0.445604
vt 0.097288 0.445604
vt 0.128581 0.005627
vt 0.158735 0.005627
vt 0.158735 0.445604
vt 0.128581 0.445604
vt 0.159874 0.046731
vt 0.159874 0.005627
vt 0.190028 0.005627
vt 0.190028 0.046731
vn 1.0000 0.0000 0.0000
vn 0.0000 1.0000 0.0000
vn -1.0000 0.0000 0.0000
vn 0.0000 0.0000 1.0000
vn 0.0000 0.0000 -1.0000
vn 0.0000 -1.0000 0.0000
usemtl None
s off
f 4/1/1 3/2/1 7/3/1 8/4/1
f 7/5/2 6/6/2 5/7/2 8/8/2
f 2/9/3 1/10/3 5/11/3 6/12/3
f 1/13/4 4/14/4 8/15/4 5/16/4
f 3/17/5 2/18/5 6/19/5 7/20/5
f 1/21/6 2/22/6 3/23/6 4/24/6
