# Blender v2.93.5 OBJ File: 'Corridors.blend'
# www.blender.org
mtllib WallUpLong.mtl
o Cube.014_Cube.001
v -1.000000 2.635993 -1.436932
v -1.000000 2.635993 -1.626344
v 1.000000 2.635993 -1.626344
v 1.000000 2.635993 -1.436932
v -1.000000 4.727988 -1.436932
v -1.000000 4.727988 -1.626344
v 1.000000 4.727988 -1.626344
v 1.000000 4.727988 -1.436932
v -1.000000 6.768528 -1.436932
v -1.000000 6.768528 -1.626344
v 1.000000 6.768528 -1.626344
v 1.000000 6.768528 -1.436932
vt 0.348460 0.000000
vt 0.364215 0.000000
vt 0.364215 0.506226
vt 0.348460 0.506226
vt 0.364215 1.000000
vt 0.348460 1.000000
vt 0.332705 0.000000
vt 0.348460 0.000000
vt 0.348460 0.506226
vt 0.332705 0.506226
vt 0.125566 0.068209
vt 0.291919 0.068209
vt 0.291919 0.574434
vt 0.125566 0.574434
vt 0.324473 0.043405
vt 0.490825 0.043405
vt 0.490825 0.549631
vt 0.324473 0.549631
vt 0.364215 0.166353
vt 0.379969 0.166353
vt 0.379969 0.332705
vt 0.364215 0.332705
vt 0.379969 0.000000
vt 0.379969 0.166353
vt 0.364215 0.166353
vt 0.364215 0.000000
vt 0.348460 1.000000
vt 0.332705 1.000000
vt 0.058907 0.083022
vt 0.225260 0.083022
vt 0.225260 0.576796
vt 0.058907 0.576796
vt 0.318272 0.216339
vt 0.484624 0.216339
vt 0.484624 0.710113
vt 0.318272 0.710113
vn 1.0000 0.0000 0.0000
vn -1.0000 0.0000 0.0000
vn 0.0000 0.0000 1.0000
vn 0.0000 0.0000 -1.0000
vn 0.0000 -1.0000 0.0000
vn 0.0000 1.0000 0.0000
usemtl None
s off
f 4/1/1 3/2/1 7/3/1 8/4/1
f 8/4/1 7/3/1 11/5/1 12/6/1
f 2/7/2 1/8/2 5/9/2 6/10/2
f 1/11/3 4/12/3 8/13/3 5/14/3
f 3/15/4 2/16/4 6/17/4 7/18/4
f 1/19/5 2/20/5 3/21/5 4/22/5
f 11/23/6 10/24/6 9/25/6 12/26/6
f 6/10/2 5/9/2 9/27/2 10/28/2
f 5/29/3 8/30/3 12/31/3 9/32/3
f 7/33/4 6/34/4 10/35/4 11/36/4
