# Blender v2.93.5 OBJ File: 'Corridors.blend'
# www.blender.org
mtllib Wall1.mtl
o Cube.001_Cube.003
v -1.000000 -0.461328 -1.183818
v -1.000000 0.340013 -1.183818
v -1.000000 -0.461328 -1.626344
v -1.000000 0.340013 -1.626344
v 1.000000 -0.461328 -1.183818
v 1.000000 0.340013 -1.183818
v 1.000000 -0.461328 -1.626344
v 1.000000 0.340013 -1.626344
v -1.000000 0.890389 -1.436932
v -1.000000 0.890389 -1.626344
v 1.000000 0.890389 -1.626344
v 1.000000 0.890389 -1.436932
v -1.000000 1.761221 -1.436932
v -1.000000 1.761221 -1.626344
v 1.000000 1.761221 -1.626344
v 1.000000 1.761221 -1.436932
v -1.000000 -0.145306 -1.183818
v -1.000000 -0.080521 -1.626344
v 1.000000 -0.080521 -1.626344
v 1.000000 -0.145306 -1.183818
v 1.000000 -0.145306 -0.999928
v 1.000000 -0.461328 -0.999928
v -1.000000 -0.461328 -0.999928
v -1.000000 -0.145306 -0.999928
vt 0.519611 0.585388
vt 0.519611 0.439116
vt 0.565456 0.439116
vt 0.565456 0.565862
vt 0.219363 0.125544
vt 0.219363 0.252291
vt 0.012167 0.252291
vt 0.012167 0.125544
vt 0.497525 0.125544
vt 0.497525 0.252291
vt 0.451680 0.252291
vt 0.451680 0.106018
vt 0.429594 0.010771
vt 0.429594 0.156932
vt 0.222398 0.156932
vt 0.222398 0.010771
vt 0.633387 0.221003
vt 0.633387 0.428199
vt 0.587542 0.428199
vt 0.587542 0.221003
vt 0.219363 0.418171
vt 0.012167 0.418171
vt 0.477903 0.418171
vt 0.497525 0.418171
vt 0.497525 0.680635
vt 0.477903 0.680635
vt 0.545834 0.273235
vt 0.565456 0.273235
vt 0.429594 0.323711
vt 0.222398 0.323711
vt 0.588115 0.431234
vt 0.588115 0.638430
vt 0.568492 0.638430
vt 0.568492 0.431234
vt 0.545834 0.010771
vt 0.565456 0.010771
vt 0.429594 0.585974
vt 0.222398 0.585974
vt 0.219363 0.680635
vt 0.012167 0.680635
vt 0.519611 0.680635
vt 0.500561 0.680635
vt 0.500561 0.585388
vt 0.497525 0.010771
vt 0.451681 0.010771
vt 0.219363 0.010771
vt 0.012167 0.010771
vt 0.565456 0.680635
vt 0.663666 0.217967
vt 0.568492 0.217967
vt 0.568492 0.010771
vt 0.663666 0.010771
vt 0.432630 0.106018
vt 0.432630 0.010771
vt 0.568492 0.428199
vt 0.568492 0.221003
vt 0.723365 0.413407
vt 0.723365 0.620603
vt 0.704314 0.620603
vt 0.704314 0.413407
vn -1.0000 0.0000 0.0000
vn 0.0000 0.0000 -1.0000
vn 1.0000 0.0000 0.0000
vn 0.0000 0.0000 1.0000
vn 0.0000 -1.0000 0.0000
vn 0.0000 0.4178 0.9085
vn 0.0000 1.0000 0.0000
usemtl None
s off
f 17/1/1 2/2/1 4/3/1 18/4/1
f 18/5/2 4/6/2 8/7/2 19/8/2
f 19/9/3 8/10/3 6/11/3 20/12/3
f 20/13/4 6/14/4 2/15/4 17/16/4
f 3/17/5 7/18/5 5/19/5 1/20/5
f 8/7/2 4/6/2 10/21/2 11/22/2
f 12/23/3 11/24/3 15/25/3 16/26/3
f 6/11/3 8/10/3 11/24/3 12/23/3
f 4/3/1 2/2/1 9/27/1 10/28/1
f 2/15/6 6/14/6 12/29/6 9/30/6
f 15/31/7 14/32/7 13/33/7 16/34/7
f 10/28/1 9/27/1 13/35/1 14/36/1
f 9/30/4 12/29/4 16/37/4 13/38/4
f 11/22/2 10/21/2 14/39/2 15/40/2
f 17/1/1 1/41/1 23/42/1 24/43/1
f 7/44/3 19/9/3 20/12/3 5/45/3
f 3/46/2 18/5/2 19/8/2 7/47/2
f 1/41/1 17/1/1 18/4/1 3/48/1
f 22/49/4 21/50/4 24/51/4 23/52/4
f 5/45/3 20/12/3 21/53/3 22/54/3
f 1/20/5 5/19/5 22/55/5 23/56/5
f 20/57/7 17/58/7 24/59/7 21/60/7
