# Blender v2.93.5 OBJ File: 'FlowerS.blend'
# www.blender.org
mtllib FlowersRed.mtl
o Plane.003_Plane.004
v -2.199630 1.493875 -1.244031
v -2.194625 -0.587026 -1.246384
v -2.010039 1.493875 -0.932662
v -1.997066 -0.587026 -0.938760
v -2.187286 0.412974 -1.276609
v -2.034922 0.412974 -0.952485
v -2.276933 1.493875 -1.041332
v -2.249608 -0.575810 -1.051135
v -1.918592 1.493875 -1.131000
v -1.935877 -0.587026 -1.167770
v -2.281926 0.412974 -1.005100
v -1.948576 0.412974 -1.177400
v -3.426544 1.707906 -1.573002
v -2.575704 1.707906 0.236990
v -1.616552 1.707907 -2.423842
v -0.765712 1.707907 -0.613850
v -2.433218 1.405474 -1.810518
v -1.759038 1.405474 -0.376334
v -2.813220 1.405474 -0.756336
v -1.379036 1.405474 -1.430516
v -2.096128 1.598949 -1.093426
v -0.076851 1.806098 1.212547
v -0.076851 -0.274803 1.207016
v 0.285592 1.806098 1.173430
v 0.285593 -0.274803 1.159096
v -0.101082 0.725197 1.187516
v 0.257067 0.725197 1.187516
v 0.073704 1.806098 1.368738
v 0.076458 -0.263587 1.339839
v 0.145001 1.806098 1.006294
v 0.104371 -0.274803 1.006295
v 0.104371 0.725197 1.388670
v 0.090254 0.725197 1.013691
v -0.896522 2.020129 2.182949
v 1.103478 2.020129 2.182949
v -0.896522 2.020129 0.182949
v 1.103478 2.020129 0.182949
v -0.688893 1.717696 1.182949
v 0.895848 1.717696 1.182948
v 0.103478 1.717696 1.975319
v 0.103478 1.717696 0.390578
v 0.103478 1.911171 1.182949
v 0.611609 1.787618 -1.254354
v 0.606728 -0.293283 -1.256952
v 0.747405 1.787618 -1.592665
v 0.734752 -0.293283 -1.599401
v 0.578128 0.706717 -1.244727
v 0.746434 0.706717 -1.560866
v 0.820230 1.787618 -1.313849
v 0.796015 -0.282067 -1.329861
v 0.533805 1.787618 -1.547108
v 0.514712 -0.293283 -1.511243
v 0.852236 0.706717 -1.331552
v 0.514606 0.706717 -1.495306
v 1.082994 2.001650 -0.074804
v 2.022860 2.001650 -1.840208
v -0.682410 2.001650 -1.014671
v 0.257457 2.001650 -2.780075
v 0.297864 1.699217 -0.728012
v 1.042586 1.699217 -2.126866
v 1.369652 1.699217 -1.055078
v -0.029202 1.699217 -1.799801
v 0.670225 1.892692 -1.427439
vt 0.987760 0.153807
vt 0.987760 0.327899
vt 0.763695 0.327899
vt 0.763695 0.153807
vt 0.988286 0.201236
vt 0.988286 0.410111
vt 0.762094 0.410111
vt 0.762094 0.201236
vt 0.987760 0.153807
vt 0.987760 0.327899
vt 0.763695 0.327899
vt 0.763695 0.153807
vt 0.988286 0.201236
vt 0.988286 0.410111
vt 0.762094 0.410111
vt 0.762094 0.201236
vt 0.554317 0.474231
vt 0.720407 0.474231
vt 0.720407 0.640523
vt 0.554317 0.640523
vt 0.554317 0.307939
vt 0.720407 0.307939
vt 0.388227 0.307939
vt 0.388227 0.474231
vt 0.388227 0.640523
vt 0.987760 0.153807
vt 0.987760 0.327899
vt 0.763695 0.327899
vt 0.763695 0.153807
vt 0.988286 0.201236
vt 0.988286 0.410111
vt 0.762094 0.410111
vt 0.762094 0.201236
vt 0.987760 0.153807
vt 0.987760 0.327899
vt 0.763695 0.327899
vt 0.763695 0.153807
vt 0.988286 0.201236
vt 0.988286 0.410111
vt 0.762094 0.410111
vt 0.762094 0.201236
vt 0.554317 0.474231
vt 0.720407 0.474231
vt 0.720407 0.640523
vt 0.554317 0.640523
vt 0.554317 0.307939
vt 0.720407 0.307939
vt 0.388227 0.307939
vt 0.388227 0.474231
vt 0.388227 0.640523
vt 0.987760 0.153807
vt 0.987760 0.327899
vt 0.763695 0.327899
vt 0.763695 0.153807
vt 0.988286 0.201236
vt 0.988286 0.410111
vt 0.762094 0.410111
vt 0.762094 0.201236
vt 0.987760 0.153807
vt 0.987760 0.327899
vt 0.763695 0.327899
vt 0.763695 0.153807
vt 0.988286 0.201236
vt 0.988286 0.410111
vt 0.762094 0.410111
vt 0.762094 0.201236
vt 0.554317 0.474231
vt 0.720407 0.474231
vt 0.720407 0.640523
vt 0.554317 0.640523
vt 0.554317 0.307939
vt 0.720407 0.307939
vt 0.388227 0.307939
vt 0.388227 0.474231
vt 0.388227 0.640523
vn -0.8748 -0.0027 0.4845
vn -0.8806 -0.0064 0.4738
vn 0.4076 -0.0075 0.9131
vn 0.3542 -0.0101 0.9351
vn -0.0723 0.9970 -0.0260
vn 0.0260 0.9970 -0.0723
vn 0.0723 0.9970 0.0260
vn -0.0260 0.9970 0.0723
vn 0.0664 -0.0027 0.9978
vn 0.0542 -0.0064 0.9985
vn 0.9998 -0.0075 0.0196
vn 0.9970 -0.0101 0.0773
vn -0.0543 0.9970 0.0543
vn -0.0543 0.9970 -0.0543
vn 0.0543 0.9970 -0.0543
vn 0.0543 0.9970 0.0543
vn 0.9119 -0.0027 0.4103
vn 0.9069 -0.0064 0.4214
vn 0.4871 -0.0075 -0.8733
vn 0.5367 -0.0101 -0.8437
vn 0.0224 0.9970 0.0735
vn -0.0735 0.9970 0.0224
vn -0.0224 0.9970 -0.0735
vn 0.0735 0.9970 -0.0224
usemtl None
s off
f 5/1/1 2/2/1 4/3/1 6/4/1
f 1/5/2 5/6/2 6/7/2 3/8/2
f 11/9/3 8/10/3 10/11/3 12/12/3
f 7/13/4 11/14/4 12/15/4 9/16/4
f 21/17/5 18/18/5 16/19/5 20/20/5
f 19/21/6 14/22/6 18/18/6 21/17/6
f 13/23/7 19/21/7 21/17/7 17/24/7
f 17/24/8 21/17/8 20/20/8 15/25/8
f 26/26/9 23/27/9 25/28/9 27/29/9
f 22/30/10 26/31/10 27/32/10 24/33/10
f 32/34/11 29/35/11 31/36/11 33/37/11
f 28/38/12 32/39/12 33/40/12 30/41/12
f 42/42/13 39/43/13 37/44/13 41/45/13
f 40/46/14 35/47/14 39/43/14 42/42/14
f 34/48/15 40/46/15 42/42/15 38/49/15
f 38/49/16 42/42/16 41/45/16 36/50/16
f 47/51/17 44/52/17 46/53/17 48/54/17
f 43/55/18 47/56/18 48/57/18 45/58/18
f 53/59/19 50/60/19 52/61/19 54/62/19
f 49/63/20 53/64/20 54/65/20 51/66/20
f 63/67/21 60/68/21 58/69/21 62/70/21
f 61/71/22 56/72/22 60/68/22 63/67/22
f 55/73/23 61/71/23 63/67/23 59/74/23
f 59/74/24 63/67/24 62/70/24 57/75/24
