# MagicaVoxel @ Ephtracy

# group
o 

# material
mtllib HeavyPlasmaTankLOD1.mtl
usemtl palette

# normals
vn 1 0 0
vn -1 0 0
vn 0 0 -1
vn 0 0 1
vn 0 -1 0
vn 0 1 0

# texcoords
vt 0.970703 0.5
vt 0.974609 0.5
vt 0.978516 0.5

# verts
v 0.7 -0.4 -0.7
v 0.7 -0.4 -0.5
v 0.7 -0.4 -0.4
v 0.7 -0.4 -0.3
v 0.7 -0.4 0.3
v 0.7 -0.4 0.4
v 0.7 -0.4 0.5
v 0.7 -0.4 0.7
v 0.7 -0.2 -0.3
v 0.7 -0.2 -0.1
v 0.7 -0.2 0.1
v 0.7 -0.2 0.3
v 0.7 -0.1 -0.5
v 0.7 -0.1 -0.4
v 0.7 -0.1 0.4
v 0.7 -0.1 0.5
v 0.7 1.6 -0.7
v 0.7 1.6 -0.1
v 0.7 1.6 0.1
v 0.7 1.6 0.7
v -0.7 -0.4 -0.7
v -0.7 -0.4 -0.5
v -0.7 -0.4 -0.4
v -0.7 -0.4 -0.3
v -0.7 -0.4 0.3
v -0.7 -0.4 0.4
v -0.7 -0.4 0.5
v -0.7 -0.4 0.7
v -0.7 -0.2 -0.3
v -0.7 -0.2 -0.1
v -0.7 -0.2 0.1
v -0.7 -0.2 0.3
v -0.7 -0.1 -0.5
v -0.7 -0.1 -0.4
v -0.7 -0.1 0.4
v -0.7 -0.1 0.5
v -0.7 1.6 -0.7
v -0.7 1.6 -0.1
v -0.7 1.6 0.1
v -0.7 1.6 0.7
v 0.7 -0.4 -0.7
v 0.7 1.6 -0.7
v 0.5 -0.4 -0.7
v 0.5 -0.1 -0.7
v 0.5 1.1 -0.7
v 0.5 1.4 -0.7
v 0.4 -0.4 -0.7
v 0.4 -0.1 -0.7
v 0.4 1.1 -0.7
v 0.4 1.4 -0.7
v 0.3 -0.4 -0.7
v 0.3 -0.2 -0.7
v 0.2 -0.1 -0.7
v 0.2 1.2 -0.7
v 0.1 -0.2 -0.7
v 0.1 -0.1 -0.7
v 0.1 0.1 -0.7
v 0.1 0.5 -0.7
v 0.1 1.2 -0.7
v 0.1 1.4 -0.7
v -0.1 -0.2 -0.7
v -0.1 -0.1 -0.7
v -0.1 0.1 -0.7
v -0.1 0.5 -0.7
v -0.1 1.2 -0.7
v -0.1 1.4 -0.7
v -0.2 -0.1 -0.7
v -0.2 1.2 -0.7
v -0.3 -0.4 -0.7
v -0.3 -0.2 -0.7
v -0.4 -0.4 -0.7
v -0.4 -0.1 -0.7
v -0.4 1.1 -0.7
v -0.4 1.4 -0.7
v -0.5 -0.4 -0.7
v -0.5 -0.1 -0.7
v -0.5 1.1 -0.7
v -0.5 1.4 -0.7
v -0.7 -0.4 -0.7
v -0.7 1.6 -0.7
v 0.7 -0.4 0.7
v 0.7 1.6 0.7
v 0.5 -0.4 0.7
v 0.5 -0.1 0.7
v 0.5 1.1 0.7
v 0.5 1.4 0.7
v 0.4 -0.4 0.7
v 0.4 -0.1 0.7
v 0.4 1.1 0.7
v 0.4 1.4 0.7
v 0.3 -0.4 0.7
v 0.3 -0.2 0.7
v 0.2 -0.1 0.7
v 0.2 1.2 0.7
v 0.1 -0.2 0.7
v 0.1 -0.1 0.7
v 0.1 0.1 0.7
v 0.1 0.5 0.7
v 0.1 1.2 0.7
v 0.1 1.4 0.7
v -0.1 -0.2 0.7
v -0.1 -0.1 0.7
v -0.1 0.1 0.7
v -0.1 0.5 0.7
v -0.1 1.2 0.7
v -0.1 1.4 0.7
v -0.2 -0.1 0.7
v -0.2 1.2 0.7
v -0.3 -0.4 0.7
v -0.3 -0.2 0.7
v -0.4 -0.4 0.7
v -0.4 -0.1 0.7
v -0.4 1.1 0.7
v -0.4 1.4 0.7
v -0.5 -0.4 0.7
v -0.5 -0.1 0.7
v -0.5 1.1 0.7
v -0.5 1.4 0.7
v -0.7 -0.4 0.7
v -0.7 1.6 0.7
v 0.7 -0.4 -0.7
v 0.5 -0.4 -0.7
v 0.4 -0.4 -0.7
v 0.3 -0.4 -0.7
v -0.3 -0.4 -0.7
v -0.4 -0.4 -0.7
v -0.5 -0.4 -0.7
v -0.7 -0.4 -0.7
v 0.7 -0.4 -0.5
v 0.5 -0.4 -0.5
v 0.3 -0.4 -0.5
v 0.2 -0.4 -0.5
v 0.1 -0.4 -0.5
v -0.1 -0.4 -0.5
v -0.2 -0.4 -0.5
v -0.3 -0.4 -0.5
v -0.5 -0.4 -0.5
v -0.7 -0.4 -0.5
v 0.7 -0.4 -0.4
v 0.4 -0.4 -0.4
v -0.4 -0.4 -0.4
v -0.7 -0.4 -0.4
v 0.7 -0.4 -0.3
v 0.5 -0.4 -0.3
v 0.2 -0.4 -0.3
v 0.1 -0.4 -0.3
v -0.1 -0.4 -0.3
v -0.2 -0.4 -0.3
v -0.5 -0.4 -0.3
v -0.7 -0.4 -0.3
v 0.5 -0.4 -0.2
v 0.3 -0.4 -0.2
v -0.3 -0.4 -0.2
v -0.5 -0.4 -0.2
v 0.5 -0.4 -0.1
v 0.3 -0.4 -0.1
v -0.3 -0.4 -0.1
v -0.5 -0.4 -0.1
v 0.5 -0.4 0.1
v 0.3 -0.4 0.1
v -0.3 -0.4 0.1
v -0.5 -0.4 0.1
v 0.5 -0.4 0.2
v 0.3 -0.4 0.2
v -0.3 -0.4 0.2
v -0.5 -0.4 0.2
v 0.7 -0.4 0.3
v 0.5 -0.4 0.3
v 0.2 -0.4 0.3
v 0.1 -0.4 0.3
v -0.1 -0.4 0.3
v -0.2 -0.4 0.3
v -0.5 -0.4 0.3
v -0.7 -0.4 0.3
v 0.7 -0.4 0.4
v 0.4 -0.4 0.4
v -0.4 -0.4 0.4
v -0.7 -0.4 0.4
v 0.7 -0.4 0.5
v 0.5 -0.4 0.5
v 0.3 -0.4 0.5
v 0.2 -0.4 0.5
v 0.1 -0.4 0.5
v -0.1 -0.4 0.5
v -0.2 -0.4 0.5
v -0.3 -0.4 0.5
v -0.5 -0.4 0.5
v -0.7 -0.4 0.5
v 0.7 -0.4 0.7
v 0.5 -0.4 0.7
v 0.4 -0.4 0.7
v 0.3 -0.4 0.7
v -0.3 -0.4 0.7
v -0.4 -0.4 0.7
v -0.5 -0.4 0.7
v -0.7 -0.4 0.7
v 0.7 1.6 -0.7
v -0.7 1.6 -0.7
v 0.7 1.6 -0.1
v 0.2 1.6 -0.1
v -0.2 1.6 -0.1
v -0.7 1.6 -0.1
v 0.7 1.6 0.1
v 0.2 1.6 0.1
v -0.2 1.6 0.1
v -0.7 1.6 0.1
v 0.7 1.6 0.7
v -0.7 1.6 0.7

# faces
f 9/3/1 4/3/1 3/3/1
f 9/2/1 5/2/1 4/2/1
f 10/2/1 5/2/1 9/2/1
f 11/2/1 5/2/1 10/2/1
f 12/3/1 6/3/1 5/3/1
f 12/2/1 5/2/1 11/2/1
f 13/3/1 2/3/1 1/3/1
f 13/2/1 3/2/1 2/2/1
f 14/3/1 9/3/1 3/3/1
f 14/2/1 3/2/1 13/2/1
f 14/3/1 10/3/1 9/3/1
f 15/3/1 6/3/1 12/3/1
f 15/3/1 12/3/1 11/3/1
f 15/2/1 7/2/1 6/2/1
f 16/3/1 8/3/1 7/3/1
f 16/2/1 7/2/1 15/2/1
f 17/3/1 14/3/1 13/3/1
f 17/3/1 13/3/1 1/3/1
f 18/3/1 10/3/1 14/3/1
f 18/3/1 14/3/1 17/3/1
f 18/2/1 11/2/1 10/2/1
f 19/3/1 15/3/1 11/3/1
f 19/2/1 11/2/1 18/2/1
f 19/3/1 16/3/1 15/3/1
f 20/3/1 8/3/1 16/3/1
f 20/3/1 16/3/1 19/3/1
f 23/3/2 24/3/2 29/3/2
f 24/2/2 25/2/2 29/2/2
f 29/2/2 25/2/2 30/2/2
f 30/2/2 25/2/2 31/2/2
f 25/3/2 26/3/2 32/3/2
f 31/2/2 25/2/2 32/2/2
f 21/3/2 22/3/2 33/3/2
f 22/2/2 23/2/2 33/2/2
f 23/3/2 29/3/2 34/3/2
f 33/2/2 23/2/2 34/2/2
f 29/3/2 30/3/2 34/3/2
f 32/3/2 26/3/2 35/3/2
f 31/3/2 32/3/2 35/3/2
f 26/2/2 27/2/2 35/2/2
f 27/3/2 28/3/2 36/3/2
f 35/2/2 27/2/2 36/2/2
f 33/3/2 34/3/2 37/3/2
f 21/3/2 33/3/2 37/3/2
f 34/3/2 30/3/2 38/3/2
f 37/3/2 34/3/2 38/3/2
f 30/2/2 31/2/2 38/2/2
f 31/3/2 35/3/2 39/3/2
f 38/2/2 31/2/2 39/2/2
f 35/3/2 36/3/2 39/3/2
f 36/3/2 28/3/2 40/3/2
f 39/3/2 36/3/2 40/3/2
f 43/3/3 42/3/3 41/3/3
f 44/3/3 42/3/3 43/3/3
f 45/3/3 42/3/3 44/3/3
f 46/3/3 42/3/3 45/3/3
f 47/2/3 44/2/3 43/2/3
f 48/3/3 45/3/3 44/3/3
f 48/2/3 44/2/3 47/2/3
f 49/2/3 46/2/3 45/2/3
f 49/3/3 45/3/3 48/3/3
f 50/3/3 42/3/3 46/3/3
f 50/2/3 46/2/3 49/2/3
f 51/3/3 49/3/3 48/3/3
f 51/3/3 48/3/3 47/3/3
f 51/3/3 50/3/3 49/3/3
f 52/3/3 50/3/3 51/3/3
f 53/3/3 50/3/3 52/3/3
f 54/3/3 50/3/3 53/3/3
f 55/2/3 52/2/3 51/2/3
f 55/3/3 53/3/3 52/3/3
f 56/2/3 54/2/3 53/2/3
f 56/3/3 53/3/3 55/3/3
f 57/2/3 54/2/3 56/2/3
f 58/2/3 54/2/3 57/2/3
f 59/3/3 50/3/3 54/3/3
f 59/2/3 54/2/3 58/2/3
f 60/3/3 42/3/3 50/3/3
f 60/3/3 50/3/3 59/3/3
f 61/2/3 55/2/3 51/2/3
f 61/2/3 56/2/3 55/2/3
f 62/3/3 57/3/3 56/3/3
f 62/2/3 56/2/3 61/2/3
f 63/2/3 58/2/3 57/2/3
f 63/3/3 57/3/3 62/3/3
f 64/3/3 59/3/3 58/3/3
f 64/2/3 58/2/3 63/2/3
f 65/2/3 60/2/3 59/2/3
f 65/3/3 59/3/3 64/3/3
f 66/3/3 42/3/3 60/3/3
f 66/2/3 60/2/3 65/2/3
f 67/2/3 63/2/3 62/2/3
f 67/3/3 62/3/3 61/3/3
f 67/2/3 65/2/3 64/2/3
f 67/2/3 64/2/3 63/2/3
f 68/3/3 66/3/3 65/3/3
f 68/2/3 65/2/3 67/2/3
f 69/2/3 61/2/3 51/2/3
f 70/3/3 67/3/3 61/3/3
f 70/2/3 61/2/3 69/2/3
f 70/3/3 68/3/3 67/3/3
f 71/3/3 70/3/3 69/3/3
f 72/3/3 68/3/3 70/3/3
f 72/3/3 70/3/3 71/3/3
f 73/3/3 68/3/3 72/3/3
f 74/3/3 42/3/3 66/3/3
f 74/3/3 68/3/3 73/3/3
f 74/3/3 66/3/3 68/3/3
f 75/2/3 72/2/3 71/2/3
f 76/3/3 73/3/3 72/3/3
f 76/2/3 72/2/3 75/2/3
f 77/2/3 74/2/3 73/2/3
f 77/3/3 73/3/3 76/3/3
f 78/3/3 42/3/3 74/3/3
f 78/2/3 74/2/3 77/2/3
f 79/3/3 77/3/3 76/3/3
f 79/3/3 76/3/3 75/3/3
f 79/3/3 78/3/3 77/3/3
f 80/3/3 42/3/3 78/3/3
f 80/3/3 78/3/3 79/3/3
f 81/3/4 82/3/4 83/3/4
f 83/3/4 82/3/4 84/3/4
f 84/3/4 82/3/4 85/3/4
f 85/3/4 82/3/4 86/3/4
f 83/2/4 84/2/4 87/2/4
f 84/3/4 85/3/4 88/3/4
f 87/2/4 84/2/4 88/2/4
f 85/2/4 86/2/4 89/2/4
f 88/3/4 85/3/4 89/3/4
f 86/3/4 82/3/4 90/3/4
f 89/2/4 86/2/4 90/2/4
f 88/3/4 89/3/4 91/3/4
f 87/3/4 88/3/4 91/3/4
f 89/3/4 90/3/4 91/3/4
f 91/3/4 90/3/4 92/3/4
f 92/3/4 90/3/4 93/3/4
f 93/3/4 90/3/4 94/3/4
f 91/2/4 92/2/4 95/2/4
f 92/3/4 93/3/4 95/3/4
f 93/2/4 94/2/4 96/2/4
f 95/3/4 93/3/4 96/3/4
f 96/2/4 94/2/4 97/2/4
f 97/2/4 94/2/4 98/2/4
f 94/3/4 90/3/4 99/3/4
f 98/2/4 94/2/4 99/2/4
f 90/3/4 82/3/4 100/3/4
f 99/3/4 90/3/4 100/3/4
f 91/2/4 95/2/4 101/2/4
f 95/2/4 96/2/4 101/2/4
f 96/3/4 97/3/4 102/3/4
f 101/2/4 96/2/4 102/2/4
f 97/2/4 98/2/4 103/2/4
f 102/3/4 97/3/4 103/3/4
f 98/3/4 99/3/4 104/3/4
f 103/2/4 98/2/4 104/2/4
f 99/2/4 100/2/4 105/2/4
f 104/3/4 99/3/4 105/3/4
f 100/3/4 82/3/4 106/3/4
f 105/2/4 100/2/4 106/2/4
f 102/2/4 103/2/4 107/2/4
f 101/3/4 102/3/4 107/3/4
f 104/2/4 105/2/4 107/2/4
f 103/2/4 104/2/4 107/2/4
f 105/3/4 106/3/4 108/3/4
f 107/2/4 105/2/4 108/2/4
f 91/2/4 101/2/4 109/2/4
f 101/3/4 107/3/4 110/3/4
f 109/2/4 101/2/4 110/2/4
f 107/3/4 108/3/4 110/3/4
f 109/3/4 110/3/4 111/3/4
f 110/3/4 108/3/4 112/3/4
f 111/3/4 110/3/4 112/3/4
f 112/3/4 108/3/4 113/3/4
f 106/3/4 82/3/4 114/3/4
f 113/3/4 108/3/4 114/3/4
f 108/3/4 106/3/4 114/3/4
f 111/2/4 112/2/4 115/2/4
f 112/3/4 113/3/4 116/3/4
f 115/2/4 112/2/4 116/2/4
f 113/2/4 114/2/4 117/2/4
f 116/3/4 113/3/4 117/3/4
f 114/3/4 82/3/4 118/3/4
f 117/2/4 114/2/4 118/2/4
f 116/3/4 117/3/4 119/3/4
f 115/3/4 116/3/4 119/3/4
f 117/3/4 118/3/4 119/3/4
f 118/3/4 82/3/4 120/3/4
f 119/3/4 118/3/4 120/3/4
f 129/3/5 122/3/5 121/3/5
f 130/2/5 123/2/5 122/2/5
f 130/3/5 122/3/5 129/3/5
f 131/3/5 124/3/5 123/3/5
f 131/2/5 125/2/5 124/2/5
f 132/2/5 125/2/5 131/2/5
f 133/2/5 125/2/5 132/2/5
f 134/2/5 125/2/5 133/2/5
f 135/2/5 125/2/5 134/2/5
f 136/3/5 126/3/5 125/3/5
f 136/2/5 125/2/5 135/2/5
f 137/3/5 128/3/5 127/3/5
f 137/2/5 127/2/5 126/2/5
f 138/3/5 128/3/5 137/3/5
f 139/2/5 130/2/5 129/2/5
f 140/2/5 123/2/5 130/2/5
f 140/2/5 130/2/5 139/2/5
f 140/3/5 131/3/5 123/3/5
f 140/3/5 132/3/5 131/3/5
f 141/3/5 126/3/5 136/3/5
f 141/3/5 136/3/5 135/3/5
f 141/2/5 138/2/5 137/2/5
f 141/2/5 137/2/5 126/2/5
f 142/2/5 138/2/5 141/2/5
f 143/3/5 140/3/5 139/3/5
f 144/3/5 140/3/5 143/3/5
f 145/3/5 132/3/5 140/3/5
f 145/3/5 140/3/5 144/3/5
f 145/2/5 133/2/5 132/2/5
f 146/3/5 134/3/5 133/3/5
f 146/2/5 133/2/5 145/2/5
f 147/2/5 135/2/5 134/2/5
f 147/3/5 134/3/5 146/3/5
f 148/3/5 141/3/5 135/3/5
f 148/2/5 135/2/5 147/2/5
f 148/3/5 142/3/5 141/3/5
f 149/3/5 142/3/5 148/3/5
f 150/3/5 142/3/5 149/3/5
f 151/2/5 144/2/5 143/2/5
f 151/3/5 146/3/5 145/3/5
f 151/3/5 145/3/5 144/3/5
f 151/3/5 149/3/5 148/3/5
f 151/3/5 148/3/5 147/3/5
f 151/3/5 147/3/5 146/3/5
f 152/3/5 149/3/5 151/3/5
f 153/3/5 149/3/5 152/3/5
f 154/2/5 150/2/5 149/2/5
f 154/3/5 149/3/5 153/3/5
f 155/2/5 151/2/5 143/2/5
f 155/2/5 152/2/5 151/2/5
f 156/3/5 153/3/5 152/3/5
f 156/2/5 152/2/5 155/2/5
f 157/2/5 154/2/5 153/2/5
f 157/3/5 153/3/5 156/3/5
f 158/2/5 150/2/5 154/2/5
f 158/2/5 154/2/5 157/2/5
f 159/2/5 155/2/5 143/2/5
f 159/3/5 157/3/5 156/3/5
f 159/3/5 158/3/5 157/3/5
f 159/3/5 156/3/5 155/3/5
f 160/3/5 158/3/5 159/3/5
f 161/3/5 158/3/5 160/3/5
f 162/2/5 150/2/5 158/2/5
f 162/3/5 158/3/5 161/3/5
f 163/2/5 159/2/5 143/2/5
f 163/2/5 160/2/5 159/2/5
f 164/3/5 161/3/5 160/3/5
f 164/2/5 160/2/5 163/2/5
f 165/2/5 162/2/5 161/2/5
f 165/3/5 161/3/5 164/3/5
f 166/2/5 150/2/5 162/2/5
f 166/2/5 162/2/5 165/2/5
f 167/2/5 163/2/5 143/2/5
f 168/3/5 165/3/5 164/3/5
f 168/2/5 163/2/5 167/2/5
f 168/3/5 164/3/5 163/3/5
f 168/3/5 166/3/5 165/3/5
f 169/3/5 166/3/5 168/3/5
f 170/3/5 166/3/5 169/3/5
f 171/3/5 166/3/5 170/3/5
f 172/3/5 166/3/5 171/3/5
f 173/2/5 150/2/5 166/2/5
f 173/3/5 166/3/5 172/3/5
f 174/2/5 150/2/5 173/2/5
f 175/3/5 168/3/5 167/3/5
f 175/3/5 169/3/5 168/3/5
f 176/3/5 169/3/5 175/3/5
f 177/3/5 174/3/5 173/3/5
f 177/3/5 173/3/5 172/3/5
f 178/3/5 174/3/5 177/3/5
f 179/2/5 176/2/5 175/2/5
f 180/2/5 176/2/5 179/2/5
f 181/3/5 169/3/5 176/3/5
f 182/2/5 170/2/5 169/2/5
f 182/3/5 169/3/5 181/3/5
f 183/3/5 171/3/5 170/3/5
f 183/2/5 170/2/5 182/2/5
f 184/2/5 172/2/5 171/2/5
f 184/3/5 171/3/5 183/3/5
f 185/3/5 177/3/5 172/3/5
f 185/2/5 172/2/5 184/2/5
f 186/3/5 177/3/5 185/3/5
f 187/2/5 178/2/5 177/2/5
f 188/2/5 178/2/5 187/2/5
f 189/3/5 180/3/5 179/3/5
f 190/2/5 176/2/5 180/2/5
f 190/3/5 180/3/5 189/3/5
f 191/3/5 181/3/5 176/3/5
f 191/2/5 176/2/5 190/2/5
f 192/2/5 183/2/5 182/2/5
f 192/3/5 181/3/5 191/3/5
f 192/2/5 182/2/5 181/2/5
f 192/2/5 184/2/5 183/2/5
f 192/2/5 185/2/5 184/2/5
f 192/2/5 186/2/5 185/2/5
f 193/3/5 177/3/5 186/3/5
f 193/2/5 186/2/5 192/2/5
f 194/2/5 187/2/5 177/2/5
f 194/3/5 177/3/5 193/3/5
f 195/3/5 188/3/5 187/3/5
f 195/2/5 187/2/5 194/2/5
f 196/3/5 188/3/5 195/3/5
f 197/3/6 198/3/6 199/3/6
f 199/3/6 198/3/6 200/3/6
f 200/3/6 198/3/6 201/3/6
f 201/3/6 198/3/6 202/3/6
f 199/2/6 200/2/6 203/2/6
f 200/3/6 201/3/6 204/3/6
f 203/2/6 200/2/6 204/2/6
f 201/2/6 202/2/6 205/2/6
f 204/3/6 201/3/6 205/3/6
f 205/2/6 202/2/6 206/2/6
f 203/3/6 204/3/6 207/3/6
f 204/3/6 205/3/6 207/3/6
f 205/3/6 206/3/6 207/3/6
f 207/3/6 206/3/6 208/3/6
