# MagicaVoxel @ Ephtracy

# group
o 

# material
mtllib SmallFlower2_LOD0.mtl
usemtl palette

# normals
vn -1 0 0
vn 1 0 0
vn 0 0 1
vn 0 0 -1
vn 0 -1 0
vn 0 1 0

# texcoords
vt 0.970703 0.5
vt 0.974609 0.5
vt 0.978516 0.5
vt 0.986328 0.5
vt 0.994141 0.5

# verts
v -0.2 0.4 0.1
v -0.2 0.4 0
v -0.2 0.5 0.1
v -0.2 0.5 0
v -0.2 0.7 0.1
v -0.2 0.7 0
v -0.1 0 0.1
v -0.1 0 0
v -0.1 0.2 0.1
v -0.1 0.2 0
v -0.1 0.4 0.2
v -0.1 0.4 0.1
v -0.1 0.4 0
v -0.1 0.5 0.2
v -0.1 0.5 0.1
v -0.1 0.5 0
v -0.1 0.5 -0.1
v -0.1 0.7 0.1
v -0.1 0.7 0
v -0.1 0.8 0.2
v -0.1 0.8 0.1
v -0.1 0.8 0
v -0.1 0.8 -0.1
v 0 0 0.1
v 0 0 0
v 0 0.2 0.1
v 0 0.2 0
v 0 0.3 0.1
v 0 0.3 0
v 0 0.4 0.2
v 0 0.4 0.1
v 0 0.4 0
v 0 0.5 0.2
v 0 0.5 0.1
v 0 0.5 0
v 0 0.5 -0.1
v 0 0.7 0.1
v 0 0.7 0
v 0 0.8 0.2
v 0 0.8 0.1
v 0 0.8 0
v 0 0.8 -0.1
v 0.1 0.3 0.1
v 0.1 0.3 0
v 0.1 0.4 0.1
v 0.1 0.4 0
v 0.1 0.5 0.1
v 0.1 0.5 0
v 0.1 0.7 0.1
v 0.1 0.7 0
v -0.1 0.4 0.2
v -0.1 0.5 0.2
v -0.1 0.8 0.2
v 0 0.4 0.2
v 0 0.5 0.2
v 0 0.8 0.2
v -0.2 0.4 0.1
v -0.2 0.5 0.1
v -0.2 0.7 0.1
v -0.1 0 0.1
v -0.1 0.2 0.1
v -0.1 0.4 0.1
v -0.1 0.5 0.1
v -0.1 0.7 0.1
v 0 0 0.1
v 0 0.2 0.1
v 0 0.3 0.1
v 0 0.4 0.1
v 0 0.5 0.1
v 0 0.7 0.1
v 0.1 0.3 0.1
v 0.1 0.4 0.1
v 0.1 0.5 0.1
v 0.1 0.7 0.1
v -0.1 0.7 0
v -0.1 0.8 0
v 0 0.7 0
v 0 0.8 0
v -0.1 0.7 0.1
v -0.1 0.8 0.1
v 0 0.7 0.1
v 0 0.8 0.1
v -0.2 0.4 0
v -0.2 0.5 0
v -0.2 0.7 0
v -0.1 0 0
v -0.1 0.2 0
v -0.1 0.4 0
v -0.1 0.5 0
v -0.1 0.7 0
v 0 0 0
v 0 0.2 0
v 0 0.3 0
v 0 0.4 0
v 0 0.5 0
v 0 0.7 0
v 0.1 0.3 0
v 0.1 0.4 0
v 0.1 0.5 0
v 0.1 0.7 0
v -0.1 0.5 -0.1
v -0.1 0.8 -0.1
v 0 0.5 -0.1
v 0 0.8 -0.1
v -0.1 0 0.1
v 0 0 0.1
v -0.1 0 0
v 0 0 0
v 0 0.3 0.1
v 0.1 0.3 0.1
v 0 0.3 0
v 0.1 0.3 0
v -0.1 0.4 0.2
v 0 0.4 0.2
v -0.2 0.4 0.1
v -0.1 0.4 0.1
v 0 0.4 0.1
v -0.2 0.4 0
v -0.1 0.4 0
v 0 0.5 0.1
v 0.1 0.5 0.1
v -0.1 0.5 0
v 0 0.5 0
v 0.1 0.5 0
v -0.1 0.5 -0.1
v 0 0.5 -0.1
v 0 0.4 0.1
v 0.1 0.4 0.1
v 0 0.4 0
v 0.1 0.4 0
v -0.2 0.7 0.1
v -0.1 0.7 0.1
v 0 0.7 0.1
v 0.1 0.7 0.1
v -0.2 0.7 0
v -0.1 0.7 0
v 0 0.7 0
v 0.1 0.7 0
v -0.1 0.8 0.2
v 0 0.8 0.2
v -0.1 0.8 0.1
v 0 0.8 0.1
v -0.1 0.8 0
v 0 0.8 0
v -0.1 0.8 -0.1
v 0 0.8 -0.1

# faces
f 3/3/1 2/3/1 1/3/1
f 4/3/1 2/3/1 3/3/1
f 5/5/1 4/5/1 3/5/1
f 6/5/1 4/5/1 5/5/1
f 9/3/1 8/3/1 7/3/1
f 10/3/1 8/3/1 9/3/1
f 12/2/1 10/2/1 9/2/1
f 13/2/1 10/2/1 12/2/1
f 14/2/1 12/2/1 11/2/1
f 15/2/1 12/2/1 14/2/1
f 18/5/1 15/5/1 14/5/1
f 19/5/1 17/5/1 16/5/1
f 20/5/1 18/5/1 14/5/1
f 21/5/1 18/5/1 20/5/1
f 22/5/1 17/5/1 19/5/1
f 23/5/1 17/5/1 22/5/1
f 24/3/2 25/3/2 26/3/2
f 26/3/2 25/3/2 27/3/2
f 26/2/2 27/2/2 28/2/2
f 28/2/2 27/2/2 29/2/2
f 30/2/2 31/2/2 33/2/2
f 31/1/2 32/1/2 34/1/2
f 33/2/2 31/2/2 34/2/2
f 34/1/2 32/1/2 35/1/2
f 33/5/2 34/5/2 37/5/2
f 35/5/2 36/5/2 38/5/2
f 33/5/2 37/5/2 39/5/2
f 39/5/2 37/5/2 40/5/2
f 38/5/2 36/5/2 41/5/2
f 41/5/2 36/5/2 42/5/2
f 43/3/2 44/3/2 45/3/2
f 45/3/2 44/3/2 46/3/2
f 47/5/2 48/5/2 49/5/2
f 49/5/2 48/5/2 50/5/2
f 54/2/3 52/2/3 51/2/3
f 55/5/3 53/5/3 52/5/3
f 55/2/3 52/2/3 54/2/3
f 56/5/3 53/5/3 55/5/3
f 62/3/3 58/3/3 57/3/3
f 63/5/3 59/5/3 58/5/3
f 63/3/3 58/3/3 62/3/3
f 64/5/3 59/5/3 63/5/3
f 65/3/3 61/3/3 60/3/3
f 66/2/3 62/2/3 61/2/3
f 66/3/3 61/3/3 65/3/3
f 67/2/3 62/2/3 66/2/3
f 68/2/3 62/2/3 67/2/3
f 71/3/3 68/3/3 67/3/3
f 72/3/3 68/3/3 71/3/3
f 73/5/3 70/5/3 69/5/3
f 74/5/3 70/5/3 73/5/3
f 77/5/3 76/5/3 75/5/3
f 78/5/3 76/5/3 77/5/3
f 79/5/4 80/5/4 81/5/4
f 81/5/4 80/5/4 82/5/4
f 83/3/4 84/3/4 88/3/4
f 84/5/4 85/5/4 89/5/4
f 88/3/4 84/3/4 89/3/4
f 89/5/4 85/5/4 90/5/4
f 86/3/4 87/3/4 91/3/4
f 87/2/4 88/2/4 92/2/4
f 91/3/4 87/3/4 92/3/4
f 92/2/4 88/2/4 93/2/4
f 88/1/4 89/1/4 94/1/4
f 93/2/4 88/2/4 94/2/4
f 94/1/4 89/1/4 95/1/4
f 93/3/4 94/3/4 97/3/4
f 97/3/4 94/3/4 98/3/4
f 95/5/4 96/5/4 99/5/4
f 99/5/4 96/5/4 100/5/4
f 101/5/4 102/5/4 103/5/4
f 103/5/4 102/5/4 104/5/4
f 107/3/5 106/3/5 105/3/5
f 108/3/5 106/3/5 107/3/5
f 111/3/5 110/3/5 109/3/5
f 112/3/5 110/3/5 111/3/5
f 116/2/5 114/2/5 113/2/5
f 117/2/5 114/2/5 116/2/5
f 118/3/5 116/3/5 115/3/5
f 119/3/5 116/3/5 118/3/5
f 123/5/5 121/5/5 120/5/5
f 124/5/5 121/5/5 123/5/5
f 125/5/5 123/5/5 122/5/5
f 126/5/5 123/5/5 125/5/5
f 127/3/6 128/3/6 129/3/6
f 129/3/6 128/3/6 130/3/6
f 131/5/6 132/5/6 135/5/6
f 132/4/6 133/4/6 136/4/6
f 135/5/6 132/5/6 136/5/6
f 133/5/6 134/5/6 137/5/6
f 136/4/6 133/4/6 137/4/6
f 137/5/6 134/5/6 138/5/6
f 139/5/6 140/5/6 141/5/6
f 141/5/6 140/5/6 142/5/6
f 143/5/6 144/5/6 145/5/6
f 145/5/6 144/5/6 146/5/6
