# Blender v2.93.5 OBJ File: ''
# www.blender.org
mtllib untitled.mtl
o Сфера
v 0.000000 0.980785 -0.195090
v 0.587938 0.555570 -0.587938
v 0.392848 -0.831470 -0.392847
v 0.195090 0.980785 0.000000
v 0.980785 -0.195090 0.000000
v 0.587938 0.555570 0.587938
v 0.392847 -0.831470 0.392847
v 0.000000 0.980785 0.195090
v -0.000000 -0.195090 0.980785
v -0.587937 0.555570 0.587938
v -0.392847 -0.831470 0.392847
v -0.000000 1.000000 0.000000
v -0.195090 0.980785 0.000000
v -0.980785 -0.195090 -0.000000
v -0.587937 0.555570 -0.587937
v -0.392847 -0.831470 -0.392847
v 0.000000 -0.195090 -0.980785
v 0.000000 -1.000000 0.000000
vt 1.000000 0.000000
vt 1.000000 1.000000
vt 0.000000 0.000000
vt 0.000000 0.000000
vt 1.000000 1.000000
vt 0.000000 1.000000
vt 0.000000 0.000000
vt 1.000000 0.000000
vt 0.000000 0.000000
vt 0.000000 0.000000
vt 1.000000 1.000000
vt 0.000000 1.000000
vt 0.000000 0.000000
vt 1.000000 1.000000
vt 0.000000 1.000000
vt 1.000000 1.000000
vt 0.000000 0.000000
vt 0.000000 0.000000
vt 1.000000 0.000000
vt 1.000000 0.000000
vt 1.000000 1.000000
vt 0.000000 1.000000
vt 0.000000 0.000000
vt 0.000000 0.000000
vt 1.000000 0.000000
vt 1.000000 0.000000
vt 0.000000 0.000000
vt 1.000000 1.000000
vt 0.000000 1.000000
vt 1.000000 1.000000
vt 0.000000 0.000000
vt 0.000000 0.000000
vt 1.000000 0.000000
vt 1.000000 0.000000
vt 1.000000 0.000000
vt 1.000000 0.000000
vt 1.000000 1.000000
vt 0.000000 1.000000
vt 0.000000 0.000000
vt 1.000000 0.000000
vt 0.000000 0.000000
vt 1.000000 1.000000
vt 0.000000 1.000000
vt 1.000000 1.000000
vt 0.000000 1.000000
vt 0.000000 0.000000
vt 1.000000 0.000000
vt 1.000000 1.000000
vt 0.000000 0.000000
vt 1.000000 0.000000
vn -0.0000 0.5556 -0.8315
vn 0.6935 -0.1951 0.6935
vn -0.0000 -0.7730 -0.6344
vn 0.6344 -0.7730 0.0000
vn -0.0000 0.5556 0.8315
vn -0.6935 -0.1951 -0.6935
vn 0.3333 0.8819 0.3333
vn -0.6344 -0.7730 -0.0000
vn -0.8315 0.5556 0.0000
vn -0.3333 0.8819 0.3333
vn -0.3333 0.8819 -0.3333
vn 0.3333 0.8819 -0.3333
vn 0.6935 -0.1951 -0.6935
vn -0.0000 -0.7730 0.6344
vn -0.6935 -0.1951 0.6935
vn 0.8315 0.5556 0.0000
usemtl None
s off
f 17/1/1 15/2/1 1/3/1 2/4/1
f 5/5/2 6/6/2 9/7/2 7/8/2
f 3/9/3 18/10/3 16/11/3 17/12/3
f 7/13/4 18/10/4 3/14/4 5/15/4
f 6/16/5 8/17/5 10/18/5 9/19/5
f 16/20/6 14/21/6 15/22/6 17/23/6
f 4/24/7 12/25/7 8/17/7 6/26/7
f 16/27/8 18/10/8 11/28/8 14/29/8
f 10/30/9 13/31/9 15/32/9 14/33/9
f 8/17/10 12/25/10 13/31/10 10/34/10
f 15/35/11 13/31/11 12/25/11 1/3/11
f 1/3/12 12/25/12 4/24/12 2/36/12
f 17/37/13 2/38/13 5/39/13 3/40/13
f 11/41/14 18/10/14 7/42/14 9/43/14
f 9/44/15 10/45/15 14/46/15 11/47/15
f 2/48/16 4/24/16 6/49/16 5/50/16
