# MagicaVoxel @ Ephtracy

# group
o HeavyBotLOD1

# material
mtllib HeavyBotLOD1-4-HeavyBotLOD1.mtl
usemtl palette

# normals
vn -1 0 0
vn 1 0 0
vn 0 0 1
vn 0 0 -1
vn 0 -1 0
vn 0 1 0

# texcoords
vt 0.970703 0.5
vt 0.974609 0.5
vt 0.978516 0.5
vt 0.982422 0.5

# verts
v -0.4 3.6 -0.2
v -0.4 3.6 -0.8
v -0.4 3.9 -0.1
v -0.4 3.9 -0.2
v -0.4 4 -0.7
v -0.4 4 -0.8
v -0.4 4.1 -0.1
v -0.4 4.1 -0.7
v -0.3 3.4 -0.4
v -0.3 3.4 -0.8
v -0.3 3.6 -0.4
v -0.3 3.6 -0.8
v -0.3 3.8 -0.1
v -0.3 3.8 -0.2
v -0.3 3.9 -0.1
v -0.3 3.9 -0.2
v -0.3 4 -0.7
v -0.3 4 -0.8
v -0.3 4.1 -0.2
v -0.3 4.1 -0.7
v -0.3 4.1 -0.8
v -0.3 4.2 -0.2
v -0.3 4.2 -0.7
v -0.2 3.1 -0.4
v -0.2 3.1 -0.5
v -0.2 3.2 -0.5
v -0.2 3.2 -0.6
v -0.2 3.3 -0.6
v -0.2 3.3 -0.7
v -0.2 3.4 -0.4
v -0.2 3.4 -0.7
v -0.2 3.5 -0.3
v -0.2 3.5 -0.4
v -0.2 3.6 -0.3
v -0.2 3.6 -0.4
v -0.2 3.7 -0.7
v -0.2 3.7 -0.8
v -0.2 3.8 -0.7
v -0.2 3.8 -0.8
v -0.2 3.9 0
v -0.2 3.9 -0.1
v -0.2 4.1 0
v -0.2 4.1 -0.1
v -0.2 4.1 -0.2
v -0.2 4.1 -0.7
v -0.2 4.1 -0.8
v -0.2 4.2 -0.2
v -0.2 4.2 -0.7
v -0.2 4.2 -0.8
v -0.2 4.3 -0.1
v -0.2 4.3 -0.7
v -0.1 3.1 -0.5
v -0.1 3.1 -0.6
v -0.1 3.2 -0.5
v -0.1 3.2 -0.6
v -0.1 3.2 -0.7
v -0.1 3.3 -0.3
v -0.1 3.3 -0.4
v -0.1 3.3 -0.6
v -0.1 3.3 -0.7
v -0.1 3.3 -0.8
v -0.1 3.4 -0.7
v -0.1 3.4 -0.8
v -0.1 3.5 -0.3
v -0.1 3.5 -0.4
v -0.1 3.5 -0.7
v -0.1 3.5 -0.8
v -0.1 3.6 -0.2
v -0.1 3.6 -0.3
v -0.1 3.6 -0.7
v -0.1 3.6 -0.8
v -0.1 3.7 -0.2
v -0.1 3.7 -0.3
v -0.1 3.9 -0.7
v -0.1 3.9 -0.8
v -0.1 4 -0.7
v -0.1 4 -0.8
v -0.1 4.2 -0.7
v -0.1 4.2 -0.8
v -0.1 4.3 -0.7
v -0.1 4.3 -0.8
v 0.1 3.7 -0.7
v 0.1 3.7 -0.8
v 0.1 3.8 -0.7
v 0.1 3.8 -0.8
v 0.2 3.5 -0.7
v 0.2 3.5 -0.8
v 0.2 3.6 -0.7
v 0.2 3.6 -0.8
v 0.2 3.9 -0.7
v 0.2 3.9 -0.8
v 0.2 4 -0.7
v 0.2 4 -0.8
v 0.3 3.6 -0.2
v 0.3 3.6 -0.3
v 0.3 3.7 -0.2
v 0.3 3.7 -0.3
v 0.3 3.7 -0.7
v 0.3 3.7 -0.8
v 0.3 3.8 -0.7
v 0.3 3.8 -0.8
v -0.3 3.6 -0.2
v -0.3 3.6 -0.3
v -0.3 3.7 -0.2
v -0.3 3.7 -0.3
v -0.3 3.7 -0.7
v -0.3 3.7 -0.8
v -0.3 3.8 -0.7
v -0.3 3.8 -0.8
v -0.2 3.5 -0.7
v -0.2 3.5 -0.8
v -0.2 3.6 -0.7
v -0.2 3.6 -0.8
v -0.2 3.9 -0.7
v -0.2 3.9 -0.8
v -0.2 4 -0.7
v -0.2 4 -0.8
v -0.1 3.7 -0.7
v -0.1 3.7 -0.8
v -0.1 3.8 -0.7
v -0.1 3.8 -0.8
v 0.1 3.1 -0.5
v 0.1 3.1 -0.6
v 0.1 3.2 -0.5
v 0.1 3.2 -0.6
v 0.1 3.2 -0.7
v 0.1 3.3 -0.3
v 0.1 3.3 -0.4
v 0.1 3.3 -0.6
v 0.1 3.3 -0.7
v 0.1 3.3 -0.8
v 0.1 3.4 -0.7
v 0.1 3.4 -0.8
v 0.1 3.5 -0.3
v 0.1 3.5 -0.4
v 0.1 3.5 -0.7
v 0.1 3.5 -0.8
v 0.1 3.6 -0.2
v 0.1 3.6 -0.3
v 0.1 3.6 -0.7
v 0.1 3.6 -0.8
v 0.1 3.7 -0.2
v 0.1 3.7 -0.3
v 0.1 3.9 -0.7
v 0.1 3.9 -0.8
v 0.1 4 -0.7
v 0.1 4 -0.8
v 0.1 4.2 -0.7
v 0.1 4.2 -0.8
v 0.1 4.3 -0.7
v 0.1 4.3 -0.8
v 0.2 3.1 -0.4
v 0.2 3.1 -0.5
v 0.2 3.2 -0.5
v 0.2 3.2 -0.6
v 0.2 3.3 -0.6
v 0.2 3.3 -0.7
v 0.2 3.4 -0.4
v 0.2 3.4 -0.7
v 0.2 3.5 -0.3
v 0.2 3.5 -0.4
v 0.2 3.6 -0.3
v 0.2 3.6 -0.4
v 0.2 3.7 -0.7
v 0.2 3.7 -0.8
v 0.2 3.8 -0.7
v 0.2 3.8 -0.8
v 0.2 3.9 0
v 0.2 3.9 -0.1
v 0.2 4.1 0
v 0.2 4.1 -0.1
v 0.2 4.1 -0.2
v 0.2 4.1 -0.7
v 0.2 4.1 -0.8
v 0.2 4.2 -0.2
v 0.2 4.2 -0.7
v 0.2 4.2 -0.8
v 0.2 4.3 -0.1
v 0.2 4.3 -0.7
v 0.3 3.4 -0.4
v 0.3 3.4 -0.8
v 0.3 3.6 -0.4
v 0.3 3.6 -0.8
v 0.3 3.8 -0.1
v 0.3 3.8 -0.2
v 0.3 3.9 -0.1
v 0.3 3.9 -0.2
v 0.3 4 -0.7
v 0.3 4 -0.8
v 0.3 4.1 -0.2
v 0.3 4.1 -0.7
v 0.3 4.1 -0.8
v 0.3 4.2 -0.2
v 0.3 4.2 -0.7
v 0.4 3.6 -0.2
v 0.4 3.6 -0.8
v 0.4 3.9 -0.1
v 0.4 3.9 -0.2
v 0.4 4 -0.7
v 0.4 4 -0.8
v 0.4 4.1 -0.1
v 0.4 4.1 -0.7
v -0.2 3.9 0
v -0.2 4.1 0
v 0.2 3.9 0
v 0.2 4.1 0
v -0.4 3.9 -0.1
v -0.4 4.1 -0.1
v -0.3 3.8 -0.1
v -0.3 3.9 -0.1
v -0.2 3.8 -0.1
v -0.2 3.9 -0.1
v -0.2 4.1 -0.1
v -0.2 4.3 -0.1
v 0.2 3.8 -0.1
v 0.2 3.9 -0.1
v 0.2 4.1 -0.1
v 0.2 4.3 -0.1
v 0.3 3.8 -0.1
v 0.3 3.9 -0.1
v 0.4 3.9 -0.1
v 0.4 4.1 -0.1
v -0.4 3.6 -0.2
v -0.4 3.9 -0.2
v -0.3 3.6 -0.2
v -0.3 3.7 -0.2
v -0.3 3.8 -0.2
v -0.3 3.9 -0.2
v -0.3 4.1 -0.2
v -0.3 4.2 -0.2
v -0.2 3.7 -0.2
v -0.2 3.8 -0.2
v -0.2 4.1 -0.2
v -0.2 4.2 -0.2
v -0.1 3.6 -0.2
v -0.1 3.7 -0.2
v 0.1 3.6 -0.2
v 0.1 3.7 -0.2
v 0.2 3.7 -0.2
v 0.2 3.8 -0.2
v 0.2 4.1 -0.2
v 0.2 4.2 -0.2
v 0.3 3.6 -0.2
v 0.3 3.7 -0.2
v 0.3 3.8 -0.2
v 0.3 3.9 -0.2
v 0.3 4.1 -0.2
v 0.3 4.2 -0.2
v 0.4 3.6 -0.2
v 0.4 3.9 -0.2
v -0.3 3.6 -0.3
v -0.3 3.7 -0.3
v -0.2 3.5 -0.3
v -0.2 3.6 -0.3
v -0.2 3.7 -0.3
v -0.1 3.3 -0.3
v -0.1 3.5 -0.3
v -0.1 3.6 -0.3
v -0.1 3.7 -0.3
v 0.1 3.3 -0.3
v 0.1 3.5 -0.3
v 0.1 3.6 -0.3
v 0.1 3.7 -0.3
v 0.2 3.5 -0.3
v 0.2 3.6 -0.3
v 0.2 3.7 -0.3
v 0.3 3.6 -0.3
v 0.3 3.7 -0.3
v -0.3 3.4 -0.4
v -0.3 3.6 -0.4
v -0.2 3.1 -0.4
v -0.2 3.4 -0.4
v -0.2 3.5 -0.4
v -0.2 3.6 -0.4
v -0.1 3.1 -0.4
v -0.1 3.3 -0.4
v -0.1 3.5 -0.4
v 0.1 3.1 -0.4
v 0.1 3.3 -0.4
v 0.1 3.5 -0.4
v 0.2 3.1 -0.4
v 0.2 3.4 -0.4
v 0.2 3.5 -0.4
v 0.2 3.6 -0.4
v 0.3 3.4 -0.4
v 0.3 3.6 -0.4
v -0.2 3.1 -0.5
v -0.2 3.2 -0.5
v -0.1 3.1 -0.5
v -0.1 3.2 -0.5
v 0.1 3.1 -0.5
v 0.1 3.2 -0.5
v 0.2 3.1 -0.5
v 0.2 3.2 -0.5
v -0.2 3.2 -0.6
v -0.2 3.3 -0.6
v -0.1 3.1 -0.6
v -0.1 3.2 -0.6
v -0.1 3.3 -0.6
v 0.1 3.1 -0.6
v 0.1 3.2 -0.6
v 0.1 3.3 -0.6
v 0.2 3.2 -0.6
v 0.2 3.3 -0.6
v -0.4 4 -0.7
v -0.4 4.1 -0.7
v -0.3 3.7 -0.7
v -0.3 3.8 -0.7
v -0.3 4 -0.7
v -0.3 4.1 -0.7
v -0.3 4.2 -0.7
v -0.2 3.3 -0.7
v -0.2 3.4 -0.7
v -0.2 3.5 -0.7
v -0.2 3.6 -0.7
v -0.2 3.7 -0.7
v -0.2 3.8 -0.7
v -0.2 3.9 -0.7
v -0.2 4 -0.7
v -0.2 4.1 -0.7
v -0.2 4.2 -0.7
v -0.2 4.3 -0.7
v -0.1 3.2 -0.7
v -0.1 3.3 -0.7
v -0.1 3.4 -0.7
v -0.1 3.5 -0.7
v -0.1 3.6 -0.7
v -0.1 3.7 -0.7
v -0.1 3.8 -0.7
v -0.1 3.9 -0.7
v -0.1 4 -0.7
v -0.1 4.2 -0.7
v -0.1 4.3 -0.7
v 0.1 3.2 -0.7
v 0.1 3.3 -0.7
v 0.1 3.4 -0.7
v 0.1 3.5 -0.7
v 0.1 3.6 -0.7
v 0.1 3.7 -0.7
v 0.1 3.8 -0.7
v 0.1 3.9 -0.7
v 0.1 4 -0.7
v 0.1 4.2 -0.7
v 0.1 4.3 -0.7
v 0.2 3.3 -0.7
v 0.2 3.4 -0.7
v 0.2 3.5 -0.7
v 0.2 3.6 -0.7
v 0.2 3.7 -0.7
v 0.2 3.8 -0.7
v 0.2 3.9 -0.7
v 0.2 4 -0.7
v 0.2 4.1 -0.7
v 0.2 4.2 -0.7
v 0.2 4.3 -0.7
v 0.3 3.7 -0.7
v 0.3 3.8 -0.7
v 0.3 4 -0.7
v 0.3 4.1 -0.7
v 0.3 4.2 -0.7
v 0.4 4 -0.7
v 0.4 4.1 -0.7
v -0.4 3.6 -0.8
v -0.4 4 -0.8
v -0.3 3.4 -0.8
v -0.3 3.6 -0.8
v -0.3 3.7 -0.8
v -0.3 3.8 -0.8
v -0.3 4 -0.8
v -0.3 4.1 -0.8
v -0.2 3.5 -0.8
v -0.2 3.6 -0.8
v -0.2 3.7 -0.8
v -0.2 3.8 -0.8
v -0.2 3.9 -0.8
v -0.2 4 -0.8
v -0.2 4.1 -0.8
v -0.2 4.2 -0.8
v -0.1 3.3 -0.8
v -0.1 3.4 -0.8
v -0.1 3.5 -0.8
v -0.1 3.6 -0.8
v -0.1 3.7 -0.8
v -0.1 3.8 -0.8
v -0.1 3.9 -0.8
v -0.1 4 -0.8
v -0.1 4.2 -0.8
v -0.1 4.3 -0.8
v 0.1 3.3 -0.8
v 0.1 3.4 -0.8
v 0.1 3.5 -0.8
v 0.1 3.6 -0.8
v 0.1 3.7 -0.8
v 0.1 3.8 -0.8
v 0.1 3.9 -0.8
v 0.1 4 -0.8
v 0.1 4.2 -0.8
v 0.1 4.3 -0.8
v 0.2 3.5 -0.8
v 0.2 3.6 -0.8
v 0.2 3.7 -0.8
v 0.2 3.8 -0.8
v 0.2 3.9 -0.8
v 0.2 4 -0.8
v 0.2 4.1 -0.8
v 0.2 4.2 -0.8
v 0.3 3.4 -0.8
v 0.3 3.6 -0.8
v 0.3 3.7 -0.8
v 0.3 3.8 -0.8
v 0.3 4 -0.8
v 0.3 4.1 -0.8
v 0.4 3.6 -0.8
v 0.4 4 -0.8
v -0.2 3.1 -0.4
v -0.1 3.1 -0.4
v 0.1 3.1 -0.4
v 0.2 3.1 -0.4
v -0.2 3.1 -0.5
v -0.1 3.1 -0.5
v 0.1 3.1 -0.5
v 0.2 3.1 -0.5
v -0.1 3.1 -0.6
v 0.1 3.1 -0.6
v -0.2 3.2 -0.5
v -0.1 3.2 -0.5
v 0.1 3.2 -0.5
v 0.2 3.2 -0.5
v -0.2 3.2 -0.6
v -0.1 3.2 -0.6
v 0.1 3.2 -0.6
v 0.2 3.2 -0.6
v -0.1 3.2 -0.7
v 0.1 3.2 -0.7
v -0.1 3.3 -0.3
v 0.1 3.3 -0.3
v -0.1 3.3 -0.4
v 0.1 3.3 -0.4
v -0.2 3.3 -0.6
v -0.1 3.3 -0.6
v 0.1 3.3 -0.6
v 0.2 3.3 -0.6
v -0.2 3.3 -0.7
v -0.1 3.3 -0.7
v 0.1 3.3 -0.7
v 0.2 3.3 -0.7
v -0.1 3.3 -0.8
v 0.1 3.3 -0.8
v -0.3 3.4 -0.4
v -0.2 3.4 -0.4
v 0.2 3.4 -0.4
v 0.3 3.4 -0.4
v -0.2 3.4 -0.7
v -0.1 3.4 -0.7
v 0.1 3.4 -0.7
v 0.2 3.4 -0.7
v -0.3 3.4 -0.8
v -0.1 3.4 -0.8
v 0.1 3.4 -0.8
v 0.3 3.4 -0.8
v -0.2 3.5 -0.3
v -0.1 3.5 -0.3
v 0.1 3.5 -0.3
v 0.2 3.5 -0.3
v -0.2 3.5 -0.4
v -0.1 3.5 -0.4
v 0.1 3.5 -0.4
v 0.2 3.5 -0.4
v -0.4 3.6 -0.2
v -0.3 3.6 -0.2
v -0.1 3.6 -0.2
v 0.1 3.6 -0.2
v 0.3 3.6 -0.2
v 0.4 3.6 -0.2
v -0.3 3.6 -0.3
v -0.2 3.6 -0.3
v -0.1 3.6 -0.3
v 0.1 3.6 -0.3
v 0.2 3.6 -0.3
v 0.3 3.6 -0.3
v -0.3 3.6 -0.4
v -0.2 3.6 -0.4
v 0.2 3.6 -0.4
v 0.3 3.6 -0.4
v -0.2 3.6 -0.7
v -0.1 3.6 -0.7
v 0.1 3.6 -0.7
v 0.2 3.6 -0.7
v -0.4 3.6 -0.8
v -0.3 3.6 -0.8
v -0.2 3.6 -0.8
v -0.1 3.6 -0.8
v 0.1 3.6 -0.8
v 0.2 3.6 -0.8
v 0.3 3.6 -0.8
v 0.4 3.6 -0.8
v -0.3 3.7 -0.2
v -0.2 3.7 -0.2
v -0.1 3.7 -0.2
v 0.1 3.7 -0.2
v 0.2 3.7 -0.2
v 0.3 3.7 -0.2
v -0.3 3.7 -0.3
v -0.2 3.7 -0.3
v -0.1 3.7 -0.3
v 0.1 3.7 -0.3
v 0.2 3.7 -0.3
v 0.3 3.7 -0.3
v -0.3 3.8 -0.1
v -0.2 3.8 -0.1
v 0.2 3.8 -0.1
v 0.3 3.8 -0.1
v -0.3 3.8 -0.2
v -0.2 3.8 -0.2
v 0.2 3.8 -0.2
v 0.3 3.8 -0.2
v -0.3 3.8 -0.7
v -0.2 3.8 -0.7
v -0.1 3.8 -0.7
v 0.1 3.8 -0.7
v 0.2 3.8 -0.7
v 0.3 3.8 -0.7
v -0.3 3.8 -0.8
v -0.2 3.8 -0.8
v -0.1 3.8 -0.8
v 0.1 3.8 -0.8
v 0.2 3.8 -0.8
v 0.3 3.8 -0.8
v -0.2 3.9 0
v 0.2 3.9 0
v -0.4 3.9 -0.1
v -0.3 3.9 -0.1
v -0.2 3.9 -0.1
v 0.2 3.9 -0.1
v 0.3 3.9 -0.1
v 0.4 3.9 -0.1
v -0.4 3.9 -0.2
v -0.3 3.9 -0.2
v 0.3 3.9 -0.2
v 0.4 3.9 -0.2
v -0.2 4 -0.7
v -0.1 4 -0.7
v 0.1 4 -0.7
v 0.2 4 -0.7
v -0.2 4 -0.8
v -0.1 4 -0.8
v 0.1 4 -0.8
v 0.2 4 -0.8
v -0.2 3.5 -0.7
v -0.1 3.5 -0.7
v 0.1 3.5 -0.7
v 0.2 3.5 -0.7
v -0.2 3.5 -0.8
v -0.1 3.5 -0.8
v 0.1 3.5 -0.8
v 0.2 3.5 -0.8
v -0.3 3.7 -0.7
v -0.2 3.7 -0.7
v -0.1 3.7 -0.7
v 0.1 3.7 -0.7
v 0.2 3.7 -0.7
v 0.3 3.7 -0.7
v -0.3 3.7 -0.8
v -0.2 3.7 -0.8
v -0.1 3.7 -0.8
v 0.1 3.7 -0.8
v 0.2 3.7 -0.8
v 0.3 3.7 -0.8
v -0.2 3.9 -0.7
v -0.1 3.9 -0.7
v 0.1 3.9 -0.7
v 0.2 3.9 -0.7
v -0.2 3.9 -0.8
v -0.1 3.9 -0.8
v 0.1 3.9 -0.8
v 0.2 3.9 -0.8
v -0.4 4 -0.7
v -0.3 4 -0.7
v 0.3 4 -0.7
v 0.4 4 -0.7
v -0.4 4 -0.8
v -0.3 4 -0.8
v 0.3 4 -0.8
v 0.4 4 -0.8
v -0.2 4.1 0
v 0.2 4.1 0
v -0.4 4.1 -0.1
v -0.2 4.1 -0.1
v 0.2 4.1 -0.1
v 0.4 4.1 -0.1
v -0.3 4.1 -0.2
v -0.2 4.1 -0.2
v 0.2 4.1 -0.2
v 0.3 4.1 -0.2
v -0.4 4.1 -0.7
v -0.3 4.1 -0.7
v -0.2 4.1 -0.7
v 0.2 4.1 -0.7
v 0.3 4.1 -0.7
v 0.4 4.1 -0.7
v -0.3 4.1 -0.8
v -0.2 4.1 -0.8
v 0.2 4.1 -0.8
v 0.3 4.1 -0.8
v -0.3 4.2 -0.2
v -0.2 4.2 -0.2
v 0.2 4.2 -0.2
v 0.3 4.2 -0.2
v -0.3 4.2 -0.7
v -0.2 4.2 -0.7
v -0.1 4.2 -0.7
v 0.1 4.2 -0.7
v 0.2 4.2 -0.7
v 0.3 4.2 -0.7
v -0.2 4.2 -0.8
v -0.1 4.2 -0.8
v 0.1 4.2 -0.8
v 0.2 4.2 -0.8
v -0.2 4.3 -0.1
v 0.2 4.3 -0.1
v -0.2 4.3 -0.7
v -0.1 4.3 -0.7
v 0.1 4.3 -0.7
v 0.2 4.3 -0.7
v -0.1 4.3 -0.8
v 0.1 4.3 -0.8

# faces
f 4/4/1 2/4/1 1/4/1
f 5/4/1 2/4/1 4/4/1
f 5/4/1 4/4/1 3/4/1
f 6/4/1 2/4/1 5/4/1
f 7/4/1 5/4/1 3/4/1
f 8/4/1 5/4/1 7/4/1
f 11/4/1 10/4/1 9/4/1
f 12/4/1 10/4/1 11/4/1
f 15/4/1 14/4/1 13/4/1
f 16/4/1 14/4/1 15/4/1
f 20/4/1 18/4/1 17/4/1
f 21/4/1 18/4/1 20/4/1
f 22/4/1 20/4/1 19/4/1
f 23/4/1 20/4/1 22/4/1
f 26/4/1 25/4/1 24/4/1
f 28/4/1 27/4/1 26/4/1
f 30/4/1 26/4/1 24/4/1
f 30/4/1 29/4/1 28/4/1
f 30/4/1 28/4/1 26/4/1
f 31/4/1 29/4/1 30/4/1
f 34/2/1 33/2/1 32/2/1
f 35/2/1 33/2/1 34/2/1
f 38/4/1 37/4/1 36/4/1
f 39/4/1 37/4/1 38/4/1
f 42/4/1 41/4/1 40/4/1
f 43/4/1 41/4/1 42/4/1
f 47/4/1 44/4/1 43/4/1
f 48/4/1 46/4/1 45/4/1
f 49/4/1 46/4/1 48/4/1
f 50/4/1 47/4/1 43/4/1
f 50/4/1 48/4/1 47/4/1
f 51/4/1 48/4/1 50/4/1
f 54/4/1 53/4/1 52/4/1
f 55/4/1 53/4/1 54/4/1
f 59/4/1 56/4/1 55/4/1
f 60/4/1 56/4/1 59/4/1
f 62/4/1 61/4/1 60/4/1
f 63/4/1 61/4/1 62/4/1
f 64/3/1 58/3/1 57/3/1
f 65/3/1 58/3/1 64/3/1
f 70/4/1 67/4/1 66/4/1
f 71/4/1 67/4/1 70/4/1
f 72/2/1 69/2/1 68/2/1
f 73/2/1 69/2/1 72/2/1
f 76/4/1 75/4/1 74/4/1
f 77/4/1 75/4/1 76/4/1
f 80/4/1 79/4/1 78/4/1
f 81/4/1 79/4/1 80/4/1
f 84/4/1 83/4/1 82/4/1
f 85/4/1 83/4/1 84/4/1
f 88/4/1 87/4/1 86/4/1
f 89/4/1 87/4/1 88/4/1
f 92/4/1 91/4/1 90/4/1
f 93/4/1 91/4/1 92/4/1
f 96/4/1 95/4/1 94/4/1
f 97/4/1 95/4/1 96/4/1
f 100/4/1 99/4/1 98/4/1
f 101/4/1 99/4/1 100/4/1
f 102/4/2 103/4/2 104/4/2
f 104/4/2 103/4/2 105/4/2
f 106/4/2 107/4/2 108/4/2
f 108/4/2 107/4/2 109/4/2
f 110/4/2 111/4/2 112/4/2
f 112/4/2 111/4/2 113/4/2
f 114/4/2 115/4/2 116/4/2
f 116/4/2 115/4/2 117/4/2
f 118/4/2 119/4/2 120/4/2
f 120/4/2 119/4/2 121/4/2
f 122/4/2 123/4/2 124/4/2
f 124/4/2 123/4/2 125/4/2
f 125/4/2 126/4/2 129/4/2
f 129/4/2 126/4/2 130/4/2
f 130/4/2 131/4/2 132/4/2
f 132/4/2 131/4/2 133/4/2
f 127/3/2 128/3/2 134/3/2
f 134/3/2 128/3/2 135/3/2
f 136/4/2 137/4/2 140/4/2
f 140/4/2 137/4/2 141/4/2
f 138/2/2 139/2/2 142/2/2
f 142/2/2 139/2/2 143/2/2
f 144/4/2 145/4/2 146/4/2
f 146/4/2 145/4/2 147/4/2
f 148/4/2 149/4/2 150/4/2
f 150/4/2 149/4/2 151/4/2
f 152/4/2 153/4/2 154/4/2
f 154/4/2 155/4/2 156/4/2
f 152/4/2 154/4/2 158/4/2
f 156/4/2 157/4/2 158/4/2
f 154/4/2 156/4/2 158/4/2
f 158/4/2 157/4/2 159/4/2
f 160/2/2 161/2/2 162/2/2
f 162/2/2 161/2/2 163/2/2
f 164/4/2 165/4/2 166/4/2
f 166/4/2 165/4/2 167/4/2
f 168/4/2 169/4/2 170/4/2
f 170/4/2 169/4/2 171/4/2
f 171/4/2 172/4/2 175/4/2
f 173/4/2 174/4/2 176/4/2
f 176/4/2 174/4/2 177/4/2
f 171/4/2 175/4/2 178/4/2
f 175/4/2 176/4/2 178/4/2
f 178/4/2 176/4/2 179/4/2
f 180/4/2 181/4/2 182/4/2
f 182/4/2 181/4/2 183/4/2
f 184/4/2 185/4/2 186/4/2
f 186/4/2 185/4/2 187/4/2
f 188/4/2 189/4/2 191/4/2
f 191/4/2 189/4/2 192/4/2
f 190/4/2 191/4/2 193/4/2
f 193/4/2 191/4/2 194/4/2
f 195/4/2 196/4/2 198/4/2
f 198/4/2 196/4/2 199/4/2
f 197/4/2 198/4/2 199/4/2
f 199/4/2 196/4/2 200/4/2
f 197/4/2 199/4/2 201/4/2
f 201/4/2 199/4/2 202/4/2
f 205/4/3 204/4/3 203/4/3
f 206/4/3 204/4/3 205/4/3
f 210/4/3 208/4/3 207/4/3
f 211/4/3 210/4/3 209/4/3
f 212/4/3 208/4/3 210/4/3
f 212/4/3 210/4/3 211/4/3
f 213/4/3 208/4/3 212/4/3
f 215/2/3 212/2/3 211/2/3
f 216/2/3 212/2/3 215/2/3
f 217/4/3 214/4/3 213/4/3
f 218/4/3 214/4/3 217/4/3
f 219/4/3 216/4/3 215/4/3
f 219/4/3 217/4/3 216/4/3
f 220/4/3 217/4/3 219/4/3
f 221/4/3 217/4/3 220/4/3
f 222/4/3 217/4/3 221/4/3
f 225/4/3 224/4/3 223/4/3
f 226/4/3 224/4/3 225/4/3
f 227/4/3 224/4/3 226/4/3
f 228/4/3 224/4/3 227/4/3
f 231/4/3 227/4/3 226/4/3
f 232/4/3 227/4/3 231/4/3
f 233/4/3 230/4/3 229/4/3
f 234/4/3 230/4/3 233/4/3
f 236/2/3 232/2/3 231/2/3
f 237/2/3 236/2/3 235/2/3
f 238/2/3 232/2/3 236/2/3
f 238/2/3 236/2/3 237/2/3
f 239/2/3 232/2/3 238/2/3
f 240/2/3 232/2/3 239/2/3
f 244/4/3 240/4/3 239/4/3
f 245/4/3 240/4/3 244/4/3
f 247/4/3 242/4/3 241/4/3
f 248/4/3 242/4/3 247/4/3
f 249/4/3 246/4/3 245/4/3
f 249/4/3 244/4/3 243/4/3
f 249/4/3 245/4/3 244/4/3
f 250/4/3 246/4/3 249/4/3
f 254/4/3 252/4/3 251/4/3
f 255/4/3 252/4/3 254/4/3
f 257/2/3 254/2/3 253/2/3
f 257/2/3 255/2/3 254/2/3
f 258/2/3 255/2/3 257/2/3
f 259/2/3 255/2/3 258/2/3
f 260/3/3 257/3/3 256/3/3
f 261/2/3 258/2/3 257/2/3
f 261/3/3 257/3/3 260/3/3
f 262/2/3 258/2/3 261/2/3
f 264/2/3 263/2/3 262/2/3
f 264/2/3 262/2/3 261/2/3
f 265/2/3 263/2/3 264/2/3
f 266/2/3 263/2/3 265/2/3
f 267/4/3 266/4/3 265/4/3
f 268/4/3 266/4/3 267/4/3
f 272/4/3 270/4/3 269/4/3
f 273/4/3 270/4/3 272/4/3
f 274/4/3 270/4/3 273/4/3
f 275/4/3 272/4/3 271/4/3
f 275/4/3 273/4/3 272/4/3
f 276/4/3 273/4/3 275/4/3
f 277/4/3 273/4/3 276/4/3
f 278/3/3 276/3/3 275/3/3
f 279/3/3 276/3/3 278/3/3
f 281/4/3 279/4/3 278/4/3
f 281/4/3 280/4/3 279/4/3
f 282/4/3 280/4/3 281/4/3
f 283/4/3 280/4/3 282/4/3
f 285/4/3 283/4/3 282/4/3
f 285/4/3 284/4/3 283/4/3
f 286/4/3 284/4/3 285/4/3
f 287/4/4 288/4/4 289/4/4
f 289/4/4 288/4/4 290/4/4
f 291/4/4 292/4/4 293/4/4
f 293/4/4 292/4/4 294/4/4
f 295/4/4 296/4/4 298/4/4
f 298/4/4 296/4/4 299/4/4
f 297/4/4 298/4/4 300/4/4
f 300/4/4 298/4/4 301/4/4
f 301/4/4 302/4/4 303/4/4
f 303/4/4 302/4/4 304/4/4
f 305/4/4 306/4/4 309/4/4
f 309/4/4 306/4/4 310/4/4
f 307/3/4 308/3/4 316/3/4
f 316/3/4 308/3/4 317/3/4
f 310/4/4 311/4/4 320/4/4
f 320/4/4 311/4/4 321/4/4
f 312/4/4 313/4/4 324/4/4
f 324/4/4 313/4/4 325/4/4
f 314/3/4 315/3/4 326/3/4
f 326/3/4 315/3/4 327/3/4
f 318/3/4 319/3/4 330/3/4
f 330/3/4 319/3/4 331/3/4
f 321/4/4 322/4/4 332/4/4
f 332/4/4 322/4/4 333/4/4
f 323/4/4 324/4/4 334/4/4
f 334/4/4 324/4/4 335/4/4
f 328/3/4 329/3/4 339/3/4
f 339/3/4 329/3/4 340/3/4
f 335/4/4 336/4/4 345/4/4
f 345/4/4 336/4/4 346/4/4
f 337/3/4 338/3/4 347/3/4
f 347/3/4 338/3/4 348/3/4
f 341/3/4 342/3/4 351/3/4
f 351/3/4 342/3/4 352/3/4
f 343/4/4 344/4/4 354/4/4
f 354/4/4 344/4/4 355/4/4
f 349/3/4 350/3/4 356/3/4
f 356/3/4 350/3/4 357/3/4
f 353/4/4 354/4/4 359/4/4
f 359/4/4 354/4/4 360/4/4
f 358/4/4 359/4/4 361/4/4
f 361/4/4 359/4/4 362/4/4
f 363/4/4 364/4/4 366/4/4
f 366/4/4 364/4/4 367/4/4
f 367/4/4 364/4/4 368/4/4
f 368/4/4 364/4/4 369/4/4
f 365/4/4 366/4/4 371/4/4
f 366/4/4 367/4/4 371/4/4
f 371/4/4 367/4/4 372/4/4
f 372/4/4 367/4/4 373/4/4
f 369/4/4 370/4/4 374/4/4
f 368/4/4 369/4/4 374/4/4
f 374/4/4 370/4/4 375/4/4
f 375/4/4 370/4/4 376/4/4
f 376/4/4 370/4/4 377/4/4
f 365/4/4 371/4/4 380/4/4
f 380/4/4 371/4/4 381/4/4
f 372/4/4 373/4/4 382/4/4
f 373/4/4 374/4/4 382/4/4
f 374/4/4 375/4/4 382/4/4
f 382/4/4 375/4/4 383/4/4
f 383/4/4 375/4/4 384/4/4
f 384/4/4 375/4/4 385/4/4
f 377/4/4 378/4/4 386/4/4
f 376/4/4 377/4/4 386/4/4
f 386/4/4 378/4/4 387/4/4
f 380/4/4 381/4/4 389/4/4
f 379/4/4 380/4/4 389/4/4
f 381/4/4 382/4/4 389/4/4
f 382/4/4 383/4/4 389/4/4
f 389/4/4 383/4/4 390/4/4
f 390/4/4 383/4/4 391/4/4
f 391/4/4 383/4/4 392/4/4
f 392/4/4 383/4/4 393/4/4
f 387/4/4 388/4/4 394/4/4
f 384/4/4 385/4/4 394/4/4
f 386/4/4 387/4/4 394/4/4
f 385/4/4 386/4/4 394/4/4
f 394/4/4 388/4/4 395/4/4
f 395/4/4 388/4/4 396/4/4
f 396/4/4 388/4/4 397/4/4
f 397/4/4 388/4/4 398/4/4
f 390/4/4 391/4/4 399/4/4
f 392/4/4 393/4/4 400/4/4
f 394/4/4 395/4/4 400/4/4
f 393/4/4 394/4/4 400/4/4
f 400/4/4 395/4/4 401/4/4
f 401/4/4 395/4/4 402/4/4
f 402/4/4 395/4/4 403/4/4
f 396/4/4 397/4/4 404/4/4
f 404/4/4 397/4/4 405/4/4
f 405/4/4 397/4/4 406/4/4
f 390/4/4 399/4/4 407/4/4
f 399/4/4 400/4/4 407/4/4
f 400/4/4 401/4/4 407/4/4
f 407/4/4 401/4/4 408/4/4
f 408/4/4 401/4/4 409/4/4
f 402/4/4 403/4/4 410/4/4
f 404/4/4 405/4/4 410/4/4
f 403/4/4 404/4/4 410/4/4
f 410/4/4 405/4/4 411/4/4
f 411/4/4 405/4/4 412/4/4
f 408/4/4 409/4/4 413/4/4
f 410/4/4 411/4/4 413/4/4
f 409/4/4 410/4/4 413/4/4
f 413/4/4 411/4/4 414/4/4
f 419/4/5 416/4/5 415/4/5
f 420/3/5 417/3/5 416/3/5
f 420/4/5 416/4/5 419/4/5
f 421/4/5 418/4/5 417/4/5
f 421/3/5 417/3/5 420/3/5
f 422/4/5 418/4/5 421/4/5
f 423/4/5 421/4/5 420/4/5
f 424/4/5 421/4/5 423/4/5
f 429/4/5 426/4/5 425/4/5
f 430/4/5 426/4/5 429/4/5
f 431/4/5 428/4/5 427/4/5
f 432/4/5 428/4/5 431/4/5
f 433/4/5 431/4/5 430/4/5
f 434/4/5 431/4/5 433/4/5
f 437/3/5 436/3/5 435/3/5
f 438/3/5 436/3/5 437/3/5
f 443/4/5 440/4/5 439/4/5
f 444/4/5 440/4/5 443/4/5
f 445/4/5 442/4/5 441/4/5
f 446/4/5 442/4/5 445/4/5
f 447/4/5 445/4/5 444/4/5
f 448/4/5 445/4/5 447/4/5
f 453/4/5 450/4/5 449/4/5
f 456/4/5 452/4/5 451/4/5
f 457/4/5 454/4/5 453/4/5
f 457/4/5 453/4/5 449/4/5
f 458/4/5 454/4/5 457/4/5
f 459/4/5 456/4/5 455/4/5
f 460/4/5 452/4/5 456/4/5
f 460/4/5 456/4/5 459/4/5
f 465/2/5 462/2/5 461/2/5
f 466/2/5 462/2/5 465/2/5
f 467/2/5 464/2/5 463/2/5
f 468/2/5 464/2/5 467/2/5
f 475/4/5 470/4/5 469/4/5
f 477/2/5 472/2/5 471/2/5
f 478/2/5 472/2/5 477/2/5
f 480/4/5 474/4/5 473/4/5
f 481/4/5 476/4/5 475/4/5
f 481/4/5 475/4/5 469/4/5
f 482/4/5 476/4/5 481/4/5
f 483/4/5 480/4/5 479/4/5
f 484/4/5 474/4/5 480/4/5
f 484/4/5 480/4/5 483/4/5
f 489/4/5 481/4/5 469/4/5
f 490/4/5 481/4/5 489/4/5
f 491/4/5 486/4/5 485/4/5
f 492/4/5 486/4/5 491/4/5
f 493/4/5 488/4/5 487/4/5
f 494/4/5 488/4/5 493/4/5
f 495/4/5 474/4/5 484/4/5
f 496/4/5 474/4/5 495/4/5
f 503/4/5 498/4/5 497/4/5
f 504/2/5 499/2/5 498/2/5
f 504/4/5 498/4/5 503/4/5
f 505/2/5 499/2/5 504/2/5
f 506/2/5 501/2/5 500/2/5
f 507/4/5 502/4/5 501/4/5
f 507/2/5 501/2/5 506/2/5
f 508/4/5 502/4/5 507/4/5
f 513/4/5 510/4/5 509/4/5
f 514/2/5 511/2/5 510/2/5
f 514/4/5 510/4/5 513/4/5
f 515/4/5 512/4/5 511/4/5
f 515/2/5 511/2/5 514/2/5
f 516/4/5 512/4/5 515/4/5
f 523/4/5 518/4/5 517/4/5
f 524/4/5 518/4/5 523/4/5
f 525/4/5 520/4/5 519/4/5
f 526/4/5 520/4/5 525/4/5
f 527/4/5 522/4/5 521/4/5
f 528/4/5 522/4/5 527/4/5
f 533/4/5 530/4/5 529/4/5
f 534/4/5 530/4/5 533/4/5
f 537/4/5 532/4/5 531/4/5
f 538/4/5 532/4/5 537/4/5
f 539/4/5 536/4/5 535/4/5
f 540/4/5 536/4/5 539/4/5
f 545/4/5 542/4/5 541/4/5
f 546/4/5 542/4/5 545/4/5
f 547/4/5 544/4/5 543/4/5
f 548/4/5 544/4/5 547/4/5
f 549/4/6 550/4/6 553/4/6
f 553/4/6 550/4/6 554/4/6
f 551/4/6 552/4/6 555/4/6
f 555/4/6 552/4/6 556/4/6
f 557/4/6 558/4/6 563/4/6
f 563/4/6 558/4/6 564/4/6
f 559/4/6 560/4/6 565/4/6
f 565/4/6 560/4/6 566/4/6
f 561/4/6 562/4/6 567/4/6
f 567/4/6 562/4/6 568/4/6
f 569/4/6 570/4/6 573/4/6
f 573/4/6 570/4/6 574/4/6
f 571/4/6 572/4/6 575/4/6
f 575/4/6 572/4/6 576/4/6
f 577/4/6 578/4/6 581/4/6
f 581/4/6 578/4/6 582/4/6
f 579/4/6 580/4/6 583/4/6
f 583/4/6 580/4/6 584/4/6
f 585/4/6 586/4/6 588/4/6
f 588/4/6 586/4/6 589/4/6
f 587/4/6 588/4/6 591/4/6
f 591/4/6 588/4/6 592/4/6
f 589/4/6 590/4/6 593/4/6
f 593/4/6 590/4/6 594/4/6
f 587/4/6 591/4/6 595/4/6
f 595/4/6 591/4/6 596/4/6
f 594/4/6 590/4/6 599/4/6
f 599/4/6 590/4/6 600/4/6
f 596/4/6 597/4/6 601/4/6
f 601/4/6 597/4/6 602/4/6
f 598/4/6 599/4/6 603/4/6
f 603/4/6 599/4/6 604/4/6
f 605/4/6 606/4/6 609/4/6
f 609/4/6 606/4/6 610/4/6
f 607/4/6 608/4/6 613/4/6
f 613/4/6 608/4/6 614/4/6
f 610/4/6 611/4/6 615/4/6
f 615/4/6 611/4/6 616/4/6
f 612/4/6 613/4/6 617/4/6
f 617/4/6 613/4/6 618/4/6
f 619/4/6 620/4/6 621/4/6
f 621/4/6 620/4/6 622/4/6
f 622/4/6 620/4/6 623/4/6
f 623/4/6 620/4/6 624/4/6
f 622/4/6 623/4/6 625/4/6
f 625/4/6 623/4/6 626/4/6
