# MagicaVoxel @ Ephtracy

# group
o 

# material
mtllib Bot_Runner_LOD1-1.mtl
usemtl palette

# normals
vn -1 0 0
vn 1 0 0
vn 0 0 1
vn 0 0 -1
vn 0 -1 0
vn 0 1 0

# texcoords
vt 0.970703 0.5
vt 0.974609 0.5
vt 0.978516 0.5

# verts
v 0.8 1.1 0.4
v 0.8 1.1 -0.2
v 0.8 1.3 0.4
v 0.8 1.3 0.3
v 0.8 1.3 0.2
v 0.8 1.3 0
v 0.8 1.3 -0.1
v 0.8 1.3 -0.2
v 0.8 1.4 0.4
v 0.8 1.4 0.3
v 0.8 1.4 -0.1
v 0.8 1.4 -0.2
v 0.8 1.6 0.4
v 0.8 1.6 0.2
v 0.8 1.6 0
v 0.8 1.6 -0.2
v 0.8 2 0.4
v 0.8 2 0.2
v 0.8 2 0
v 0.8 2 -0.2
v 0.8 2.2 0.4
v 0.8 2.2 0.3
v 0.8 2.2 -0.1
v 0.8 2.2 -0.2
v 0.8 2.3 0.3
v 0.8 2.3 0.2
v 0.8 2.3 0
v 0.8 2.3 -0.1
v 0.8 2.4 0.4
v 0.8 2.4 -0.2
v 0.9 1.3 0.2
v 0.9 1.3 0
v 0.9 1.6 0.3
v 0.9 1.6 0.2
v 0.9 1.6 0
v 0.9 1.6 -0.1
v 0.9 1.8 0.3
v 0.9 1.8 0.2
v 0.9 1.8 0
v 0.9 1.8 -0.1
v 0.9 2 0.3
v 0.9 2 0.2
v 0.9 2 0
v 0.9 2 -0.1
v 1.2 1.3 0.4
v 1.2 1.3 0.3
v 1.2 1.3 -0.1
v 1.2 1.3 -0.2
v 1.2 1.6 0.4
v 1.2 1.6 0.3
v 1.2 1.6 -0.1
v 1.2 1.6 -0.2
v 1 1.3 0.4
v 1 1.3 0.3
v 1 1.3 -0.1
v 1 1.3 -0.2
v 1 1.6 0.4
v 1 1.6 0.3
v 1 1.6 -0.1
v 1 1.6 -0.2
v 1.3 1.3 0.2
v 1.3 1.3 0
v 1.3 1.6 0.3
v 1.3 1.6 0.2
v 1.3 1.6 0
v 1.3 1.6 -0.1
v 1.3 1.8 0.3
v 1.3 1.8 0.2
v 1.3 1.8 0
v 1.3 1.8 -0.1
v 1.3 2 0.3
v 1.3 2 -0.1
v 1.4 1.1 0.4
v 1.4 1.1 -0.2
v 1.4 1.3 0.4
v 1.4 1.3 0.3
v 1.4 1.3 0.2
v 1.4 1.3 0
v 1.4 1.3 -0.1
v 1.4 1.3 -0.2
v 1.4 1.4 0.4
v 1.4 1.4 0.3
v 1.4 1.4 -0.1
v 1.4 1.4 -0.2
v 1.4 1.6 0.4
v 1.4 1.6 0.2
v 1.4 1.6 0
v 1.4 1.6 -0.2
v 1.4 2 0.4
v 1.4 2 -0.2
v 1.4 2.2 0.4
v 1.4 2.2 0.3
v 1.4 2.2 -0.1
v 1.4 2.2 -0.2
v 1.4 2.4 0.4
v 1.4 2.4 0.3
v 1.4 2.4 -0.1
v 1.4 2.4 -0.2
v 0.8 1.1 0.4
v 0.8 1.3 0.4
v 0.8 1.4 0.4
v 0.8 1.6 0.4
v 0.8 2 0.4
v 0.8 2.2 0.4
v 0.8 2.4 0.4
v 0.9 1.3 0.4
v 0.9 1.4 0.4
v 0.9 2.2 0.4
v 0.9 2.4 0.4
v 1 1.3 0.4
v 1 1.6 0.4
v 1.2 1.3 0.4
v 1.2 1.6 0.4
v 1.3 1.3 0.4
v 1.3 1.4 0.4
v 1.3 2.2 0.4
v 1.3 2.4 0.4
v 1.4 1.1 0.4
v 1.4 1.3 0.4
v 1.4 1.4 0.4
v 1.4 1.6 0.4
v 1.4 2 0.4
v 1.4 2.2 0.4
v 1.4 2.4 0.4
v 0.9 1.6 0.3
v 0.9 1.8 0.3
v 0.9 2 0.3
v 1 1.3 0.3
v 1 1.6 0.3
v 1 1.8 0.3
v 1.2 1.3 0.3
v 1.2 1.6 0.3
v 1.2 1.8 0.3
v 1.3 1.6 0.3
v 1.3 1.8 0.3
v 1.3 2 0.3
v 0.8 1.3 0
v 0.8 1.6 0
v 0.9 1.3 0
v 0.9 1.6 0
v 1.3 1.3 0
v 1.3 1.6 0
v 1.4 1.3 0
v 1.4 1.6 0
v 0.8 1.3 0.2
v 0.8 1.6 0.2
v 0.9 1.3 0.2
v 0.9 1.6 0.2
v 1.3 1.3 0.2
v 1.3 1.6 0.2
v 1.4 1.3 0.2
v 1.4 1.6 0.2
v 0.9 1.6 -0.1
v 0.9 1.8 -0.1
v 0.9 2 -0.1
v 1 1.3 -0.1
v 1 1.6 -0.1
v 1 1.8 -0.1
v 1.2 1.3 -0.1
v 1.2 1.6 -0.1
v 1.2 1.8 -0.1
v 1.3 1.6 -0.1
v 1.3 1.8 -0.1
v 1.3 2 -0.1
v 0.8 1.1 -0.2
v 0.8 1.3 -0.2
v 0.8 1.4 -0.2
v 0.8 1.6 -0.2
v 0.8 2 -0.2
v 0.8 2.2 -0.2
v 0.8 2.4 -0.2
v 0.9 1.3 -0.2
v 0.9 1.4 -0.2
v 0.9 2.2 -0.2
v 0.9 2.4 -0.2
v 1 1.3 -0.2
v 1 1.6 -0.2
v 1.2 1.3 -0.2
v 1.2 1.6 -0.2
v 1.3 1.3 -0.2
v 1.3 1.4 -0.2
v 1.3 2.2 -0.2
v 1.3 2.4 -0.2
v 1.4 1.1 -0.2
v 1.4 1.3 -0.2
v 1.4 1.4 -0.2
v 1.4 1.6 -0.2
v 1.4 2 -0.2
v 1.4 2.2 -0.2
v 1.4 2.4 -0.2
v 0.8 1.1 0.4
v 1.4 1.1 0.4
v 0.8 1.1 -0.2
v 1.4 1.1 -0.2
v 0.8 2 0.4
v 1.4 2 0.4
v 0.9 2 0.3
v 1.3 2 0.3
v 0.8 2 0.2
v 0.9 2 0.2
v 0.8 2 0
v 0.9 2 0
v 0.9 2 -0.1
v 1.3 2 -0.1
v 0.8 2 -0.2
v 1.4 2 -0.2
v 1 1.3 0.4
v 1.2 1.3 0.4
v 1 1.3 0.3
v 1.2 1.3 0.3
v 0.8 1.3 0.2
v 0.9 1.3 0.2
v 1.3 1.3 0.2
v 1.4 1.3 0.2
v 0.8 1.3 0
v 0.9 1.3 0
v 1.3 1.3 0
v 1.4 1.3 0
v 1 1.3 -0.1
v 1.2 1.3 -0.1
v 1 1.3 -0.2
v 1.2 1.3 -0.2
v 0.8 1.6 0.4
v 1 1.6 0.4
v 1.2 1.6 0.4
v 1.4 1.6 0.4
v 0.9 1.6 0.3
v 1 1.6 0.3
v 1.2 1.6 0.3
v 1.3 1.6 0.3
v 0.8 1.6 0.2
v 0.9 1.6 0.2
v 1.3 1.6 0.2
v 1.4 1.6 0.2
v 0.8 1.6 0
v 0.9 1.6 0
v 1.3 1.6 0
v 1.4 1.6 0
v 0.9 1.6 -0.1
v 1 1.6 -0.1
v 1.2 1.6 -0.1
v 1.3 1.6 -0.1
v 0.8 1.6 -0.2
v 1 1.6 -0.2
v 1.2 1.6 -0.2
v 1.4 1.6 -0.2
v 0.8 2.4 0.4
v 0.9 2.4 0.4
v 1.3 2.4 0.4
v 1.4 2.4 0.4
v 1.3 2.4 0.3
v 1.4 2.4 0.3
v 1.3 2.4 -0.1
v 1.4 2.4 -0.1
v 0.8 2.4 -0.2
v 0.9 2.4 -0.2
v 1.3 2.4 -0.2
v 1.4 2.4 -0.2

# faces
f 3/3/1 2/3/1 1/3/1
f 4/3/1 2/3/1 3/3/1
f 5/3/1 2/3/1 4/3/1
f 6/3/1 2/3/1 5/3/1
f 7/3/1 2/3/1 6/3/1
f 8/3/1 2/3/1 7/3/1
f 9/2/1 4/2/1 3/2/1
f 10/3/1 5/3/1 4/3/1
f 10/2/1 4/2/1 9/2/1
f 11/2/1 8/2/1 7/2/1
f 11/3/1 7/3/1 6/3/1
f 12/2/1 8/2/1 11/2/1
f 13/3/1 10/3/1 9/3/1
f 14/3/1 5/3/1 10/3/1
f 14/3/1 10/3/1 13/3/1
f 15/3/1 11/3/1 6/3/1
f 15/3/1 12/3/1 11/3/1
f 16/3/1 12/3/1 15/3/1
f 21/3/1 18/3/1 17/3/1
f 22/3/1 18/3/1 21/3/1
f 23/3/1 20/3/1 19/3/1
f 24/3/1 20/3/1 23/3/1
f 25/3/1 18/3/1 22/3/1
f 25/2/1 22/2/1 21/2/1
f 26/2/1 19/2/1 18/2/1
f 26/3/1 18/3/1 25/3/1
f 27/3/1 23/3/1 19/3/1
f 27/2/1 19/2/1 26/2/1
f 28/2/1 24/2/1 23/2/1
f 28/3/1 23/3/1 27/3/1
f 29/2/1 25/2/1 21/2/1
f 29/2/1 27/2/1 26/2/1
f 29/2/1 28/2/1 27/2/1
f 29/2/1 26/2/1 25/2/1
f 30/2/1 24/2/1 28/2/1
f 30/2/1 28/2/1 29/2/1
f 34/3/1 32/3/1 31/3/1
f 35/3/1 32/3/1 34/3/1
f 37/2/1 34/2/1 33/2/1
f 38/3/1 35/3/1 34/3/1
f 38/2/1 34/2/1 37/2/1
f 39/2/1 36/2/1 35/2/1
f 39/3/1 35/3/1 38/3/1
f 40/2/1 36/2/1 39/2/1
f 41/3/1 38/3/1 37/3/1
f 41/3/1 39/3/1 38/3/1
f 41/3/1 40/3/1 39/3/1
f 42/3/1 40/3/1 41/3/1
f 43/3/1 40/3/1 42/3/1
f 44/3/1 40/3/1 43/3/1
f 49/3/1 46/3/1 45/3/1
f 50/3/1 46/3/1 49/3/1
f 51/3/1 48/3/1 47/3/1
f 52/3/1 48/3/1 51/3/1
f 53/3/2 54/3/2 57/3/2
f 57/3/2 54/3/2 58/3/2
f 55/3/2 56/3/2 59/3/2
f 59/3/2 56/3/2 60/3/2
f 61/3/2 62/3/2 64/3/2
f 64/3/2 62/3/2 65/3/2
f 63/2/2 64/2/2 67/2/2
f 64/3/2 65/3/2 68/3/2
f 67/2/2 64/2/2 68/2/2
f 65/2/2 66/2/2 69/2/2
f 68/3/2 65/3/2 69/3/2
f 69/2/2 66/2/2 70/2/2
f 67/3/2 68/3/2 71/3/2
f 68/3/2 69/3/2 71/3/2
f 69/3/2 70/3/2 71/3/2
f 71/3/2 70/3/2 72/3/2
f 73/3/2 74/3/2 75/3/2
f 75/3/2 74/3/2 76/3/2
f 76/3/2 74/3/2 77/3/2
f 77/3/2 74/3/2 78/3/2
f 78/3/2 74/3/2 79/3/2
f 79/3/2 74/3/2 80/3/2
f 75/2/2 76/2/2 81/2/2
f 76/3/2 77/3/2 82/3/2
f 81/2/2 76/2/2 82/2/2
f 79/2/2 80/2/2 83/2/2
f 78/3/2 79/3/2 83/3/2
f 83/2/2 80/2/2 84/2/2
f 81/3/2 82/3/2 85/3/2
f 82/3/2 77/3/2 86/3/2
f 85/3/2 82/3/2 86/3/2
f 78/3/2 83/3/2 87/3/2
f 83/3/2 84/3/2 87/3/2
f 87/3/2 84/3/2 88/3/2
f 89/3/2 90/3/2 91/3/2
f 91/3/2 90/3/2 92/3/2
f 92/3/2 90/3/2 93/3/2
f 93/3/2 90/3/2 94/3/2
f 91/2/2 92/2/2 95/2/2
f 92/3/2 93/3/2 96/3/2
f 95/2/2 92/2/2 96/2/2
f 93/2/2 94/2/2 97/2/2
f 96/3/2 93/3/2 97/3/2
f 97/2/2 94/2/2 98/2/2
f 106/3/3 100/3/3 99/3/3
f 106/2/3 101/2/3 100/2/3
f 107/3/3 102/3/3 101/3/3
f 107/2/3 101/2/3 106/2/3
f 108/2/3 105/2/3 104/2/3
f 108/3/3 104/3/3 103/3/3
f 109/2/3 105/2/3 108/2/3
f 110/3/3 107/3/3 106/3/3
f 110/3/3 106/3/3 99/3/3
f 111/3/3 102/3/3 107/3/3
f 111/3/3 107/3/3 110/3/3
f 112/3/3 110/3/3 99/3/3
f 114/3/3 112/3/3 99/3/3
f 114/3/3 113/3/3 112/3/3
f 115/3/3 113/3/3 114/3/3
f 116/3/3 109/3/3 108/3/3
f 116/3/3 108/3/3 103/3/3
f 117/3/3 109/3/3 116/3/3
f 118/3/3 114/3/3 99/3/3
f 119/2/3 115/2/3 114/2/3
f 119/3/3 114/3/3 118/3/3
f 120/3/3 113/3/3 115/3/3
f 120/2/3 115/2/3 119/2/3
f 121/3/3 113/3/3 120/3/3
f 122/3/3 116/3/3 103/3/3
f 123/2/3 117/2/3 116/2/3
f 123/3/3 116/3/3 122/3/3
f 124/2/3 117/2/3 123/2/3
f 129/2/3 126/2/3 125/2/3
f 130/3/3 127/3/3 126/3/3
f 130/2/3 126/2/3 129/2/3
f 131/3/3 129/3/3 128/3/3
f 131/3/3 130/3/3 129/3/3
f 132/3/3 130/3/3 131/3/3
f 133/3/3 127/3/3 130/3/3
f 133/3/3 130/3/3 132/3/3
f 134/2/3 133/2/3 132/2/3
f 135/3/3 127/3/3 133/3/3
f 135/2/3 133/2/3 134/2/3
f 136/3/3 127/3/3 135/3/3
f 139/3/3 138/3/3 137/3/3
f 140/3/3 138/3/3 139/3/3
f 143/3/3 142/3/3 141/3/3
f 144/3/3 142/3/3 143/3/3
f 145/3/4 146/3/4 147/3/4
f 147/3/4 146/3/4 148/3/4
f 149/3/4 150/3/4 151/3/4
f 151/3/4 150/3/4 152/3/4
f 153/2/4 154/2/4 157/2/4
f 154/3/4 155/3/4 158/3/4
f 157/2/4 154/2/4 158/2/4
f 156/3/4 157/3/4 159/3/4
f 157/3/4 158/3/4 159/3/4
f 159/3/4 158/3/4 160/3/4
f 158/3/4 155/3/4 161/3/4
f 160/3/4 158/3/4 161/3/4
f 160/2/4 161/2/4 162/2/4
f 161/3/4 155/3/4 163/3/4
f 162/2/4 161/2/4 163/2/4
f 163/3/4 155/3/4 164/3/4
f 165/3/4 166/3/4 172/3/4
f 166/2/4 167/2/4 172/2/4
f 167/3/4 168/3/4 173/3/4
f 172/2/4 167/2/4 173/2/4
f 170/2/4 171/2/4 174/2/4
f 169/3/4 170/3/4 174/3/4
f 174/2/4 171/2/4 175/2/4
f 172/3/4 173/3/4 176/3/4
f 165/3/4 172/3/4 176/3/4
f 173/3/4 168/3/4 177/3/4
f 176/3/4 173/3/4 177/3/4
f 165/3/4 176/3/4 178/3/4
f 165/3/4 178/3/4 180/3/4
f 178/3/4 179/3/4 180/3/4
f 180/3/4 179/3/4 181/3/4
f 174/3/4 175/3/4 182/3/4
f 169/3/4 174/3/4 182/3/4
f 182/3/4 175/3/4 183/3/4
f 165/3/4 180/3/4 184/3/4
f 180/2/4 181/2/4 185/2/4
f 184/3/4 180/3/4 185/3/4
f 181/3/4 179/3/4 186/3/4
f 185/2/4 181/2/4 186/2/4
f 186/3/4 179/3/4 187/3/4
f 169/3/4 182/3/4 188/3/4
f 182/2/4 183/2/4 189/2/4
f 188/3/4 182/3/4 189/3/4
f 189/2/4 183/2/4 190/2/4
f 193/3/5 192/3/5 191/3/5
f 194/3/5 192/3/5 193/3/5
f 197/3/5 196/3/5 195/3/5
f 198/3/5 196/3/5 197/3/5
f 199/3/5 197/3/5 195/3/5
f 200/3/5 197/3/5 199/3/5
f 201/2/5 200/2/5 199/2/5
f 202/2/5 200/2/5 201/2/5
f 203/3/5 202/3/5 201/3/5
f 204/3/5 196/3/5 198/3/5
f 205/3/5 203/3/5 201/3/5
f 205/3/5 204/3/5 203/3/5
f 206/3/5 196/3/5 204/3/5
f 206/3/5 204/3/5 205/3/5
f 207/3/6 208/3/6 209/3/6
f 209/3/6 208/3/6 210/3/6
f 211/3/6 212/3/6 215/3/6
f 215/3/6 212/3/6 216/3/6
f 213/3/6 214/3/6 217/3/6
f 217/3/6 214/3/6 218/3/6
f 219/3/6 220/3/6 221/3/6
f 221/3/6 220/3/6 222/3/6
f 223/3/6 224/3/6 227/3/6
f 227/3/6 224/3/6 228/3/6
f 225/3/6 226/3/6 229/3/6
f 229/3/6 226/3/6 230/3/6
f 223/3/6 227/3/6 231/3/6
f 231/3/6 227/3/6 232/3/6
f 230/3/6 226/3/6 233/3/6
f 233/3/6 226/3/6 234/3/6
f 235/3/6 236/3/6 239/3/6
f 237/3/6 238/3/6 242/3/6
f 239/3/6 240/3/6 243/3/6
f 235/3/6 239/3/6 243/3/6
f 243/3/6 240/3/6 244/3/6
f 241/3/6 242/3/6 245/3/6
f 242/3/6 238/3/6 246/3/6
f 245/3/6 242/3/6 246/3/6
f 248/3/6 249/3/6 251/3/6
f 249/2/6 250/2/6 251/2/6
f 251/2/6 250/2/6 252/2/6
f 248/3/6 251/3/6 253/3/6
f 251/3/6 252/3/6 253/3/6
f 253/3/6 252/3/6 254/3/6
f 247/2/6 248/2/6 255/2/6
f 248/3/6 253/3/6 256/3/6
f 255/2/6 248/2/6 256/2/6
f 253/2/6 254/2/6 257/2/6
f 256/3/6 253/3/6 257/3/6
f 257/2/6 254/2/6 258/2/6
