# Blender v2.93.5 OBJ File: ''
# www.blender.org
mtllib SmallRock1.mtl
o Cube
v 0.553464 1.489648 -0.791607
v 1.457798 0.184022 -1.327943
v 0.204639 1.101224 0.115073
v 0.127427 0.131158 0.927842
v -0.721599 1.381877 -0.814464
v -1.053908 0.330997 -1.204351
v -0.821552 1.282408 0.430186
v -1.030384 -0.023883 1.029967
v 0.955340 0.057164 -1.587878
v -0.324391 1.255104 0.349746
v -0.298088 -0.083822 1.081572
v -0.033760 1.985204 -0.911821
v -1.007622 -0.399791 -0.065804
v 0.496843 1.259095 -0.054343
v -0.809429 1.409180 0.037696
v 1.558025 -0.077040 0.047572
v -0.022331 -0.398479 -0.197943
v 0.016325 1.634988 -0.529135
v 1.006449 0.848259 -0.968447
v -0.972342 0.906920 0.822215
v 0.622650 0.616054 0.613847
v -1.023438 0.989284 -1.082750
v -0.236924 0.841731 -1.514777
v -0.318820 0.669496 1.018290
v 1.355207 0.829363 -0.141681
v -1.186407 0.872098 -0.088448
vt 0.089631 0.318565
vt 0.125180 0.137968
vt 0.188325 0.103315
vt 0.217084 0.189026
vt 0.362154 0.128196
vt 0.265092 0.042371
vt 0.110984 0.662654
vt 0.020753 0.632426
vt 0.108225 0.507151
vt 0.191061 0.502496
vt 0.641929 0.190343
vt 0.596891 0.473930
vt 0.480422 0.211483
vt 0.447898 0.131210
vt 0.317322 0.490314
vt 0.224042 0.352581
vt 0.240008 0.289839
vt 0.383482 0.310162
vt 0.525250 0.604614
vt 0.753714 0.559476
vt 0.730711 0.695064
vt 0.649289 0.814251
vt 0.550697 0.477288
vt 0.647749 0.500110
vt 0.633414 0.012905
vt 0.470446 0.001679
vt 0.108661 0.422991
vt 0.001679 0.346095
vt 0.869145 0.025718
vt 0.889659 0.385414
vt 0.180517 0.499138
vt 0.846036 0.473930
vt 0.019046 0.798202
vt 0.001679 0.703814
vt 0.021745 0.218166
vt 0.138678 0.919198
vt 0.301802 0.790440
vt 0.545086 0.930919
vt 0.753714 0.889725
vt 0.663199 0.998321
vt 0.435006 0.198192
vt 0.444540 0.114327
vt 0.447898 0.522075
vt 0.474118 0.855208
vt 0.444540 0.493374
vt 0.301802 0.547635
vt 0.377816 0.001679
vn 0.0480 0.9232 0.3812
vn 0.1001 0.7304 0.6756
vn -0.7892 0.6092 -0.0775
vn 0.2210 -0.8935 0.3909
vn 0.3089 0.7137 0.6287
vn 0.4070 0.4129 -0.8148
vn -0.4276 0.5482 -0.7188
vn -0.0198 -0.9607 0.2768
vn 0.3497 0.7502 0.5612
vn 0.2741 0.7784 0.5648
vn 0.4223 0.8037 0.4192
vn -0.1596 -0.8698 -0.4669
vn 0.6332 0.7740 0.0052
vn 0.2464 -0.9543 -0.1691
vn -0.8318 0.5295 0.1663
vn -0.3919 0.8929 0.2215
vn -0.9937 -0.0436 0.1037
vn 0.9093 0.3934 -0.1354
vn 0.3596 0.1432 0.9221
vn -0.2934 -0.1080 -0.9499
vn 0.3066 0.5744 -0.7589
vn 0.5952 0.1598 0.7876
vn -0.9939 -0.0721 -0.0830
vn -0.1402 0.1603 0.9771
usemtl Material
s off
f 18/1/1 15/2/1 7/3/1 10/4/1
f 24/5/2 10/4/2 7/3/2 20/6/2
f 26/7/3 15/8/3 5/9/3 22/10/3
f 17/11/4 16/12/4 4/13/4 11/14/4
f 25/15/5 14/16/5 3/17/5 21/18/5
f 23/19/6 12/20/6 1/21/6 19/22/6
f 22/23/7 5/24/7 12/20/7 23/19/7
f 13/25/8 17/11/8 11/14/8 8/26/8
f 21/18/9 3/17/9 10/4/9 24/5/9
f 14/16/10 18/1/10 10/4/10 3/17/10
f 1/27/11 12/28/11 18/1/11 14/16/11
f 6/29/12 9/30/12 17/11/12 13/25/12
f 19/31/13 1/27/13 14/16/13 25/15/13
f 9/30/14 2/32/14 16/12/14 17/11/14
f 20/33/15 7/34/15 15/8/15 26/7/15
f 12/28/16 5/35/16 15/2/16 18/1/16
f 8/36/17 20/33/17 26/7/17 13/37/17
f 2/38/18 19/22/18 25/39/18 16/40/18
f 4/41/19 21/18/19 24/5/19 11/42/19
f 6/43/20 22/23/20 23/19/20 9/44/20
f 9/44/21 23/19/21 19/22/21 2/38/21
f 16/45/22 25/15/22 21/18/22 4/41/22
f 13/37/23 26/7/23 22/10/23 6/46/23
f 11/42/24 24/5/24 20/6/24 8/47/24
