# Blender v2.93.5 OBJ File: 'UfoDec1.blend'
# www.blender.org
mtllib UfoDec1.mtl
o Cube
v 0.203115 2.808466 -0.203115
v 0.709281 -0.016893 -0.709281
v 0.203115 2.808466 0.203115
v 0.709281 -0.016893 0.709281
v -0.203115 2.808466 -0.203115
v -0.709281 -0.016893 -0.709281
v -0.203115 2.808466 0.203115
v -0.709281 -0.016893 0.709281
v 0.430670 1.624042 -0.430670
v -0.430670 1.624042 0.430670
v 0.430670 1.624042 0.430670
v -0.430670 1.624042 -0.430670
v -0.412251 1.765043 0.412251
v 0.456956 1.768588 -0.456956
v 0.456956 1.768588 0.456956
v -0.456956 1.768588 -0.456956
v -0.477884 1.620497 -0.477884
v 0.477884 1.620497 -0.477884
v 0.477884 1.620497 0.477884
v -0.477884 1.620497 0.477884
v -0.412251 1.765043 -0.412251
v 0.412251 1.765043 -0.412251
v 0.412251 1.765043 0.412251
v -0.456956 1.768588 0.456956
v 0.317039 2.758656 0.317039
v -0.317039 2.758656 0.317039
v 0.317039 2.758656 -0.317039
v -0.317039 2.758656 -0.317039
v 0.262212 2.808466 0.262212
v -0.262212 2.808466 0.262212
v 0.262212 2.808466 -0.262212
v -0.262212 2.808466 -0.262212
v 0.107822 3.287107 0.107822
v 0.054351 3.330981 0.054351
v -0.054351 3.330981 0.054351
v -0.107822 3.287107 0.107822
v 0.107822 3.287107 -0.107822
v 0.054351 3.330981 -0.054351
v -0.054351 3.330981 -0.054351
v -0.107822 3.287107 -0.107822
vt 0.843458 0.656160
vt 0.934803 0.656160
vt 0.913376 0.765790
vt 0.864886 0.765790
vt 0.843458 0.556738
vt 0.811997 0.781562
vt 0.669418 0.781562
vt 0.637956 0.556738
vt 0.843458 0.318978
vt 0.811997 0.543802
vt 0.669418 0.543802
vt 0.637956 0.318978
vt 0.637956 0.000000
vt 0.956934 0.000000
vt 0.956934 0.318978
vt 0.637956 0.318978
vt 0.205502 0.743636
vt 0.174041 0.968460
vt 0.031462 0.968460
vt 0.000000 0.743636
vt 0.411005 0.743636
vt 0.379543 0.968460
vt 0.236964 0.968460
vt 0.318978 0.371818
vt 0.266946 0.743636
vt 0.052032 0.743636
vt 0.000000 0.371818
vt 0.637956 0.000000
vt 0.585924 0.371818
vt 0.371010 0.371818
vt 0.318978 0.000000
vt 0.318978 0.000000
vt 0.266946 0.371818
vt 0.052032 0.371818
vt 0.000000 0.000000
vt 0.637956 0.371818
vt 0.585924 0.743636
vt 0.371010 0.743636
vt 0.318978 0.371818
vt 0.934803 0.630581
vt 0.966770 0.634723
vt 0.966770 0.820121
vt 0.934803 0.824262
vt 0.956934 0.000000
vt 0.988901 0.004142
vt 0.988901 0.189539
vt 0.956934 0.193681
vt 0.934803 0.436900
vt 0.966770 0.441042
vt 0.966770 0.626439
vt 0.961380 0.243219
vt 0.993348 0.247361
vt 0.993348 0.432758
vt 0.961380 0.436900
vt 0.615302 0.754252
vt 0.421621 0.754252
vt 0.411005 0.743635
vt 0.625919 0.743635
vt 0.421621 0.947933
vt 0.411005 0.958550
vt 0.615302 0.947933
vt 0.625919 0.958550
vt 0.833406 0.804550
vt 0.648008 0.804550
vt 0.637956 0.794498
vt 0.843458 0.794498
vt 0.833406 0.989948
vt 0.843458 1.000000
vt 0.648008 0.989948
vt 0.637956 1.000000
vt 0.799668 0.794498
vt 0.681746 0.794498
vt 0.161712 0.981395
vt 0.043790 0.981395
vt 0.799668 0.556738
vt 0.681746 0.556738
vt 0.367214 0.981395
vt 0.249292 0.981395
vt 0.856747 0.423611
vt 0.948092 0.423611
vt 0.961380 0.436900
vt 0.843458 0.436900
vt 0.856747 0.332267
vt 0.843458 0.318978
vt 0.948092 0.332267
vt 0.961380 0.318978
vt 0.843458 0.436900
vt 0.934803 0.436900
vt 0.913376 0.546530
vt 0.864886 0.546530
vt 0.855482 0.887442
vt 0.879925 0.887442
vt 0.879925 0.911885
vt 0.855482 0.911885
vt 0.843458 0.765789
vt 0.934803 0.765789
vt 0.913376 0.875419
vt 0.864886 0.875419
vt 0.891948 0.923909
vt 0.843458 0.923909
vt 0.843458 0.875419
vt 0.891948 0.875419
vt 0.843458 0.546530
vt 0.934803 0.546530
vt 0.913376 0.656160
vt 0.864886 0.656160
vn 0.0000 0.1953 -0.9808
vn 0.0000 0.1399 0.9902
vn -0.9902 0.1399 0.0000
vn 0.0000 -1.0000 0.0000
vn 0.9902 0.1399 0.0000
vn 0.0000 0.1399 -0.9902
vn 0.0000 0.1295 -0.9916
vn 0.9916 0.1295 0.0000
vn -0.9916 0.1295 0.0000
vn 0.0000 0.1295 0.9916
vn 0.0000 0.9972 -0.0749
vn 0.0749 0.9972 0.0000
vn -0.0749 0.9972 0.0000
vn 0.0000 0.9972 0.0749
vn 0.0000 -0.9969 -0.0791
vn 0.0791 -0.9969 0.0000
vn -0.0791 -0.9969 0.0000
vn 0.0000 -0.9969 0.0791
vn 0.0000 0.7402 0.6724
vn 0.6724 0.7402 0.0000
vn -0.6724 0.7402 0.0000
vn 0.0000 0.7402 -0.6724
vn 0.0000 1.0000 -0.0000
vn 0.9808 0.1953 0.0000
vn -0.9808 0.1953 0.0000
vn 0.0000 0.7731 0.6343
vn 0.6343 0.7731 0.0000
vn -0.6343 0.7731 0.0000
vn 0.0000 0.7731 -0.6343
vn 0.0000 0.1953 0.9808
usemtl Material
s off
f 1/1/1 5/2/1 40/3/1 37/4/1
f 15/5/2 25/6/2 26/7/2 24/8/2
f 24/9/3 26/10/3 28/11/3 16/12/3
f 6/13/4 2/14/4 4/15/4 8/16/4
f 14/17/5 27/18/5 25/19/5 15/20/5
f 16/21/6 28/22/6 27/23/6 14/17/6
f 6/24/6 17/25/6 18/26/6 2/27/6
f 2/28/5 18/29/5 19/30/5 4/31/5
f 8/32/3 20/33/3 17/34/3 6/35/3
f 4/36/2 19/37/2 20/38/2 8/39/2
f 12/40/7 21/41/7 22/42/7 9/43/7
f 9/44/8 22/45/8 23/46/8 11/47/8
f 10/48/9 13/49/9 21/50/9 12/40/9
f 11/51/10 23/52/10 13/53/10 10/54/10
f 12/55/11 9/56/11 18/57/11 17/58/11
f 9/56/12 11/59/12 19/60/12 18/57/12
f 10/61/13 12/55/13 17/58/13 20/62/13
f 11/59/14 10/61/14 20/62/14 19/60/14
f 22/63/15 21/64/15 16/65/15 14/66/15
f 23/67/16 22/63/16 14/66/16 15/68/16
f 21/64/17 13/69/17 24/70/17 16/65/17
f 13/69/18 23/67/18 15/68/18 24/70/18
f 29/71/19 30/72/19 26/7/19 25/6/19
f 31/73/20 29/74/20 25/19/20 27/18/20
f 30/75/21 32/76/21 28/11/21 26/10/21
f 32/77/22 31/78/22 27/23/22 28/22/22
f 3/79/23 7/80/23 30/81/23 29/82/23
f 1/83/23 3/79/23 29/82/23 31/84/23
f 7/80/23 5/85/23 32/86/23 30/81/23
f 5/85/23 1/83/23 31/84/23 32/86/23
f 3/87/24 1/88/24 37/89/24 33/90/24
f 38/91/23 39/92/23 35/93/23 34/94/23
f 5/95/25 7/96/25 36/97/25 40/98/25
f 34/94/26 35/93/26 36/99/26 33/100/26
f 38/91/27 34/94/27 33/100/27 37/101/27
f 35/93/28 39/92/28 40/102/28 36/99/28
f 39/92/29 38/91/29 37/101/29 40/102/29
f 7/103/30 3/104/30 33/105/30 36/106/30
