# Blender v2.93.5 OBJ File: 'UfoBeacon.blend'
# www.blender.org
mtllib UfoBeacon.mtl
o Cube_Cube.001
v -0.207164 1.877438 0.207164
v -0.207164 1.877438 -0.207164
v 0.207164 1.877438 0.207164
v 0.207164 1.877438 -0.207164
v -0.241469 1.804427 0.241469
v -0.241469 1.804427 -0.241469
v 0.241469 1.804427 -0.241469
v 0.241469 1.804427 0.241469
v -0.309423 0.893623 0.309423
v -0.309423 0.893623 -0.309423
v 0.309423 0.893623 -0.309423
v 0.309423 0.893623 0.309423
v -0.399052 0.955921 0.399052
v -0.399052 0.955921 -0.399052
v 0.399052 0.955921 -0.399052
v 0.399052 0.955921 0.399052
v -0.279016 1.111285 0.279016
v -0.279016 1.111285 -0.279016
v 0.279016 1.111285 -0.279016
v 0.279016 1.111285 0.279016
v -0.357047 1.182099 0.357047
v -0.357047 1.182099 -0.357047
v 0.357047 1.182099 -0.357047
v 0.357047 1.182099 0.357047
v -0.246286 1.345569 0.246286
v -0.246286 1.345569 -0.246286
v 0.246286 1.345569 -0.246286
v 0.246286 1.345569 0.246286
v -0.236654 1.406636 0.236654
v -0.313881 1.414523 -0.313881
v 0.313881 1.414523 -0.313881
v 0.313881 1.414523 0.313881
v 0.412087 0.885735 0.412087
v -0.412087 0.885735 0.412087
v 0.412087 0.885735 -0.412087
v -0.412087 0.885735 -0.412087
v 0.300720 0.948033 0.300720
v -0.300720 0.948033 0.300720
v 0.300720 0.948033 -0.300720
v -0.300720 0.948033 -0.300720
v 0.371663 1.103397 0.371663
v -0.371663 1.103397 0.371663
v 0.371663 1.103397 -0.371663
v -0.371663 1.103397 -0.371663
v 0.269123 1.174211 0.269123
v -0.269123 1.174211 0.269123
v 0.269123 1.174211 -0.269123
v -0.269123 1.174211 -0.269123
v 0.328152 1.337681 0.328152
v -0.328152 1.337681 0.328152
v 0.328152 1.337681 -0.328152
v -0.328152 1.337681 -0.328152
v 0.236654 1.406636 0.236654
v -0.313881 1.414523 0.313881
v 0.236654 1.406636 -0.236654
v -0.236654 1.406636 -0.236654
v -0.487824 -0.032957 0.487824
v -0.565381 0.060329 0.565381
v -0.487824 -0.032957 -0.487824
v -0.565381 0.060329 -0.565381
v 0.487824 -0.032957 0.487824
v 0.565381 0.060329 0.565381
v 0.487824 -0.032957 -0.487824
v 0.565381 0.060329 -0.565381
vt 0.744797 0.957901
vt 0.641142 0.938969
vt 0.641142 0.812710
vt 0.744797 0.793779
vt 0.925222 0.950439
vt 0.821567 0.931507
vt 0.821567 0.805248
vt 0.925222 0.786317
vt 0.925222 0.777476
vt 0.821567 0.758544
vt 0.821567 0.632285
vt 0.925222 0.613354
vt 0.885643 0.168542
vt 0.781988 0.149611
vt 0.781988 0.023352
vt 0.885643 0.004420
vt 0.460966 0.308887
vt 0.680399 0.348964
vt 0.680399 0.564436
vt 0.460966 0.604513
vt 0.689239 0.481850
vt 0.797561 0.481850
vt 0.797561 0.590172
vt 0.689239 0.590172
vt 0.620627 0.930001
vt 0.620627 0.821679
vt 0.801051 0.922539
vt 0.801051 0.814217
vt 0.801051 0.749576
vt 0.801051 0.641254
vt 0.761473 0.140642
vt 0.761473 0.032320
vt 0.232693 0.308887
vt 0.452126 0.348964
vt 0.452126 0.564436
vt 0.232693 0.604513
vt 0.004420 0.308887
vt 0.223853 0.348964
vt 0.223853 0.564436
vt 0.004420 0.604513
vt 0.024697 0.024697
vt 0.279770 0.024697
vt 0.279770 0.279770
vt 0.024697 0.279770
vt 0.590089 0.970678
vt 0.575699 0.968403
vt 0.575699 0.811162
vt 0.590089 0.808887
vt 0.791259 0.955570
vt 0.776869 0.953294
vt 0.776869 0.796054
vt 0.791259 0.793779
vt 0.972686 0.470678
vt 0.958296 0.468403
vt 0.958296 0.311162
vt 0.972686 0.308887
vt 0.768028 0.955570
vt 0.753638 0.953294
vt 0.753638 0.796054
vt 0.768028 0.793779
vt 0.862202 0.308887
vt 0.901409 0.316048
vt 0.901409 0.510383
vt 0.862202 0.517543
vt 0.894484 0.004420
vt 0.933690 0.011581
vt 0.933690 0.205916
vt 0.894484 0.213077
vt 0.934063 0.613354
vt 0.973269 0.620514
vt 0.973269 0.814850
vt 0.934063 0.822010
vt 0.910249 0.308887
vt 0.949455 0.316048
vt 0.949455 0.510383
vt 0.910249 0.517543
vt 0.221918 0.816530
vt 0.238551 0.819116
vt 0.238551 0.959835
vt 0.221918 0.962421
vt 0.272865 0.816530
vt 0.289499 0.819116
vt 0.289499 0.959835
vt 0.272865 0.962421
vt 0.247391 0.816530
vt 0.264025 0.819116
vt 0.264025 0.959835
vt 0.247391 0.962421
vt 0.298339 0.816530
vt 0.314973 0.819116
vt 0.314973 0.959835
vt 0.298339 0.962421
vt 0.466454 0.995580
vt 0.425093 0.988025
vt 0.425093 0.816441
vt 0.466454 0.808887
vt 0.516656 0.995580
vt 0.475295 0.988025
vt 0.475295 0.816441
vt 0.516656 0.808887
vt 0.566858 0.995580
vt 0.525497 0.988025
vt 0.525497 0.816441
vt 0.566858 0.808887
vt 0.983892 0.191113
vt 0.942531 0.183559
vt 0.942531 0.011975
vt 0.983892 0.004420
vt 0.373782 0.816530
vt 0.389925 0.819048
vt 0.389925 0.942789
vt 0.373782 0.945308
vt 0.348797 0.816530
vt 0.364941 0.819048
vt 0.364941 0.942789
vt 0.348797 0.945308
vt 0.323813 0.816530
vt 0.339957 0.819048
vt 0.339957 0.942789
vt 0.323813 0.945308
vt 0.398766 0.816530
vt 0.414909 0.819048
vt 0.414909 0.942789
vt 0.398766 0.945308
vt 0.564001 0.193052
vt 0.725792 0.193052
vt 0.752632 0.219892
vt 0.537160 0.219892
vt 0.564001 0.031261
vt 0.537160 0.004420
vt 0.725792 0.031261
vt 0.752632 0.004420
vt 0.030128 0.796302
vt 0.187369 0.796302
vt 0.213077 0.822010
vt 0.004420 0.822010
vt 0.187369 0.639062
vt 0.213077 0.613354
vt 0.030128 0.639062
vt 0.004420 0.613354
vt 0.246139 0.783467
vt 0.392031 0.783467
vt 0.416253 0.807689
vt 0.221917 0.807689
vt 0.246139 0.637576
vt 0.221917 0.613354
vt 0.392031 0.637576
vt 0.416253 0.613354
vt 0.448080 0.777060
vt 0.588799 0.777060
vt 0.611786 0.800046
vt 0.425093 0.800046
vt 0.588799 0.636341
vt 0.611786 0.613354
vt 0.448080 0.636341
vt 0.425093 0.613354
vt 0.642029 0.763535
vt 0.770808 0.763535
vt 0.792211 0.784938
vt 0.620626 0.784938
vt 0.642030 0.634757
vt 0.620626 0.613354
vt 0.770808 0.634757
vt 0.792211 0.613354
vt 0.709430 0.452819
vt 0.833171 0.452819
vt 0.853362 0.473009
vt 0.689240 0.473009
vt 0.833171 0.329077
vt 0.853362 0.308887
vt 0.709430 0.329077
vt 0.689240 0.308887
vt 0.004420 0.300046
vt 0.004420 0.004420
vt 0.300046 0.004420
vt 0.300046 0.300046
vt 0.308887 0.004420
vt 0.528319 0.044497
vt 0.528319 0.259969
vt 0.308887 0.300046
vn -0.9832 0.1826 0.0000
vn 0.0000 0.1826 -0.9832
vn 0.9832 0.1826 0.0000
vn 0.0000 0.1826 0.9832
vn 0.0000 1.0000 0.0000
vn -0.9051 0.4253 0.0000
vn 0.0000 0.4253 -0.9051
vn 0.9051 0.4253 0.0000
vn 0.0000 0.4253 0.9051
vn 0.0000 -1.0000 0.0000
vn 0.0000 0.1579 0.9874
vn 0.9874 0.1579 0.0000
vn 0.0000 0.1579 -0.9874
vn -0.9874 0.1579 0.0000
vn 0.0000 0.1553 0.9879
vn 0.9879 0.1553 0.0000
vn 0.0000 0.1553 -0.9879
vn -0.9879 0.1553 0.0000
vn 0.0000 0.1558 0.9878
vn 0.9878 0.1558 0.0000
vn 0.0000 0.1558 -0.9878
vn -0.9878 0.1558 0.0000
vn 0.0000 0.9971 0.0766
vn 0.0766 0.9971 0.0000
vn 0.0000 0.9971 -0.0766
vn -0.0766 0.9971 0.0000
vn 0.0000 -0.9968 0.0800
vn 0.0800 -0.9968 0.0000
vn 0.0000 -0.9968 -0.0800
vn -0.0800 -0.9968 0.0000
vn 0.0000 0.9964 0.0848
vn 0.0848 0.9964 0.0000
vn 0.0000 0.9964 -0.0848
vn -0.0848 0.9964 0.0000
vn 0.0000 -0.9960 0.0894
vn 0.0894 -0.9960 0.0000
vn 0.0000 -0.9960 -0.0894
vn -0.0894 -0.9960 0.0000
vn 0.0000 0.9954 0.0959
vn 0.0959 0.9954 0.0000
vn 0.0000 0.9954 -0.0959
vn -0.0959 0.9954 0.0000
vn 0.0000 -0.9948 0.1016
vn 0.1016 -0.9948 0.0000
vn 0.0000 -0.9948 -0.1016
vn -0.1016 -0.9948 0.0000
vn -0.7690 -0.6393 0.0000
vn 0.0000 -0.6393 -0.7690
vn 0.7690 -0.6393 0.0000
vn 0.0000 -0.6393 0.7690
usemtl None
s off
f 54/1/1 5/2/1 6/3/1 30/4/1
f 30/5/2 6/6/2 7/7/2 31/8/2
f 31/9/3 7/10/3 8/11/3 32/12/3
f 32/13/4 8/14/4 5/15/4 54/16/4
f 62/17/4 33/18/4 34/19/4 58/20/4
f 4/21/5 2/22/5 1/23/5 3/24/5
f 1/25/6 2/26/6 6/3/6 5/2/6
f 2/27/7 4/28/7 7/7/7 6/6/7
f 4/29/8 3/30/8 8/11/8 7/10/8
f 3/31/9 1/32/9 5/15/9 8/14/9
f 60/33/2 36/34/2 35/35/2 64/36/2
f 64/37/3 35/38/3 33/39/3 62/40/3
f 59/41/10 63/42/10 61/43/10 57/44/10
f 12/45/11 37/46/11 38/47/11 9/48/11
f 11/49/12 39/50/12 37/51/12 12/52/12
f 10/53/13 40/54/13 39/55/13 11/56/13
f 9/57/14 38/58/14 40/59/14 10/60/14
f 16/61/4 41/62/4 42/63/4 13/64/4
f 15/65/3 43/66/3 41/67/3 16/68/3
f 14/69/2 44/70/2 43/71/2 15/72/2
f 13/73/1 42/74/1 44/75/1 14/76/1
f 20/77/15 45/78/15 46/79/15 17/80/15
f 19/81/16 47/82/16 45/83/16 20/84/16
f 18/85/17 48/86/17 47/87/17 19/88/17
f 17/89/18 46/90/18 48/91/18 18/92/18
f 24/93/4 49/94/4 50/95/4 21/96/4
f 23/97/3 51/98/3 49/99/3 24/100/3
f 22/101/2 52/102/2 51/103/2 23/104/2
f 21/105/1 50/106/1 52/107/1 22/108/1
f 28/109/19 53/110/19 29/111/19 25/112/19
f 27/113/20 55/114/20 53/115/20 28/116/20
f 26/117/21 56/118/21 55/119/21 27/120/21
f 25/121/22 29/122/22 56/123/22 26/124/22
f 12/125/23 9/126/23 34/127/23 33/128/23
f 11/129/24 12/125/24 33/128/24 35/130/24
f 10/131/25 11/129/25 35/130/25 36/132/25
f 9/126/26 10/131/26 36/132/26 34/127/26
f 38/133/27 37/134/27 16/135/27 13/136/27
f 37/134/28 39/137/28 15/138/28 16/135/28
f 39/137/29 40/139/29 14/140/29 15/138/29
f 40/139/30 38/133/30 13/136/30 14/140/30
f 20/141/31 17/142/31 42/143/31 41/144/31
f 19/145/32 20/141/32 41/144/32 43/146/32
f 18/147/33 19/145/33 43/146/33 44/148/33
f 17/142/34 18/147/34 44/148/34 42/143/34
f 46/149/35 45/150/35 24/151/35 21/152/35
f 45/150/36 47/153/36 23/154/36 24/151/36
f 47/153/37 48/155/37 22/156/37 23/154/37
f 48/155/38 46/149/38 21/152/38 22/156/38
f 28/157/39 25/158/39 50/159/39 49/160/39
f 27/161/40 28/157/40 49/160/40 51/162/40
f 26/163/41 27/161/41 51/162/41 52/164/41
f 25/158/42 26/163/42 52/164/42 50/159/42
f 29/165/43 53/166/43 32/167/43 54/168/43
f 53/166/44 55/169/44 31/170/44 32/167/44
f 55/169/45 56/171/45 30/172/45 31/170/45
f 56/171/46 29/165/46 54/168/46 30/172/46
f 59/41/47 57/44/47 58/173/47 60/174/47
f 63/42/48 59/41/48 60/174/48 64/175/48
f 61/43/49 63/42/49 64/175/49 62/176/49
f 57/44/50 61/43/50 62/176/50 58/173/50
f 58/177/1 34/178/1 36/179/1 60/180/1
