# MagicaVoxel @ Ephtracy

# group
o 

# material
mtllib Mini-Bot_Shooter_LOD1-0.mtl
usemtl palette

# normals
vn 1 0 0
vn -1 0 0
vn 0 0 -1
vn 0 0 1
vn 0 -1 0
vn 0 1 0

# texcoords
vt 0.970703 0.5
vt 0.974609 0.5
vt 0.978516 0.5

# verts
v -0.5 1.6 -0.1
v -0.5 1.6 0.2
v -0.5 1.7 -0.2
v -0.5 1.7 -0.1
v -0.5 1.7 0.1
v -0.5 1.7 0.2
v -0.5 1.8 -0.2
v -0.5 1.8 0.1
v -0.6 1.6 -0.3
v -0.6 1.6 -0.2
v -0.6 1.6 -0.1
v -0.6 1.6 0.2
v -0.6 1.6 0.3
v -0.6 1.7 -0.2
v -0.6 1.7 -0.1
v -0.6 1.7 0.1
v -0.6 1.7 0.2
v -0.6 1.8 -0.2
v -0.6 1.8 0
v -0.6 1.8 0.1
v -0.6 1.8 0.3
v -0.6 1.9 -0.3
v -0.6 1.9 -0.2
v -0.6 1.9 0
v -0.7 1.7 0.3
v -0.7 1.7 0.5
v -0.7 1.8 0
v -0.7 1.8 0.1
v -0.7 1.8 0.3
v -0.7 1.8 0.5
v -0.7 1.9 0
v -0.7 1.9 0.1
v -0.8 1.7 0.3
v -0.8 1.7 0.5
v -0.8 1.8 0
v -0.8 1.8 0.1
v -0.8 1.8 0.3
v -0.8 1.8 0.5
v -0.8 1.9 0
v -0.8 1.9 0.1
v -0.9 1.6 -0.3
v -0.9 1.6 -0.2
v -0.9 1.6 0.3
v -0.9 1.8 0
v -0.9 1.8 0.3
v -0.9 1.9 -0.3
v -0.9 1.9 -0.2
v -0.9 1.9 0
v -0.6 1.6 -0.3
v -0.6 1.9 -0.3
v -0.9 1.6 -0.3
v -0.9 1.9 -0.3
v -0.5 1.7 -0.2
v -0.5 1.8 -0.2
v -0.6 1.7 -0.2
v -0.6 1.8 -0.2
v -0.5 1.6 -0.1
v -0.5 1.7 -0.1
v -0.6 1.6 -0.1
v -0.6 1.7 -0.1
v -0.6 1.8 0
v -0.6 1.9 0
v -0.7 1.8 0
v -0.7 1.9 0
v -0.8 1.8 0
v -0.8 1.9 0
v -0.9 1.8 0
v -0.9 1.9 0
v -0.5 1.7 0.1
v -0.5 1.8 0.1
v -0.6 1.7 0.1
v -0.6 1.8 0.1
v -0.7 1.8 0.1
v -0.7 1.9 0.1
v -0.8 1.8 0.1
v -0.8 1.9 0.1
v -0.5 1.6 0.2
v -0.5 1.7 0.2
v -0.6 1.6 0.2
v -0.6 1.7 0.2
v -0.6 1.6 0.3
v -0.6 1.8 0.3
v -0.7 1.7 0.3
v -0.7 1.8 0.3
v -0.8 1.7 0.3
v -0.8 1.8 0.3
v -0.9 1.6 0.3
v -0.9 1.8 0.3
v -0.7 1.7 0.5
v -0.7 1.8 0.5
v -0.8 1.7 0.5
v -0.8 1.8 0.5
v -0.6 1.6 -0.3
v -0.9 1.6 -0.3
v -0.6 1.6 -0.2
v -0.9 1.6 -0.2
v -0.5 1.6 -0.1
v -0.6 1.6 -0.1
v -0.5 1.6 0.2
v -0.6 1.6 0.2
v -0.6 1.6 0.3
v -0.9 1.6 0.3
v -0.5 1.7 -0.2
v -0.6 1.7 -0.2
v -0.5 1.7 -0.1
v -0.6 1.7 -0.1
v -0.7 1.7 0.3
v -0.8 1.7 0.3
v -0.7 1.7 0.5
v -0.8 1.7 0.5
v -0.5 1.7 0.1
v -0.6 1.7 0.1
v -0.5 1.7 0.2
v -0.6 1.7 0.2
v -0.5 1.8 -0.2
v -0.6 1.8 -0.2
v -0.6 1.8 0
v -0.7 1.8 0
v -0.8 1.8 0
v -0.9 1.8 0
v -0.5 1.8 0.1
v -0.6 1.8 0.1
v -0.7 1.8 0.1
v -0.8 1.8 0.1
v -0.6 1.8 0.3
v -0.7 1.8 0.3
v -0.8 1.8 0.3
v -0.9 1.8 0.3
v -0.7 1.8 0.5
v -0.8 1.8 0.5
v -0.6 1.9 -0.3
v -0.9 1.9 -0.3
v -0.6 1.9 -0.2
v -0.7 1.9 -0.2
v -0.8 1.9 -0.2
v -0.9 1.9 -0.2
v -0.6 1.9 0
v -0.7 1.9 0
v -0.8 1.9 0
v -0.9 1.9 0
v -0.7 1.9 0.1
v -0.8 1.9 0.1

# faces
f 4/2/1 2/2/1 1/2/1
f 5/2/1 2/2/1 4/2/1
f 6/2/1 2/2/1 5/2/1
f 7/2/1 4/2/1 3/2/1
f 7/2/1 5/2/1 4/2/1
f 8/2/1 5/2/1 7/2/1
f 14/2/1 10/2/1 9/2/1
f 14/1/1 11/1/1 10/1/1
f 15/1/1 11/1/1 14/1/1
f 17/1/1 13/1/1 12/1/1
f 18/2/1 14/2/1 9/2/1
f 20/1/1 17/1/1 16/1/1
f 21/1/1 13/1/1 17/1/1
f 21/1/1 17/1/1 20/1/1
f 22/2/1 18/2/1 9/2/1
f 23/1/1 19/1/1 18/1/1
f 23/2/1 18/2/1 22/2/1
f 24/1/1 19/1/1 23/1/1
f 29/2/1 26/2/1 25/2/1
f 30/2/1 26/2/1 29/2/1
f 31/2/1 28/2/1 27/2/1
f 32/2/1 28/2/1 31/2/1
f 33/2/2 34/2/2 37/2/2
f 37/2/2 34/2/2 38/2/2
f 35/2/2 36/2/2 39/2/2
f 39/2/2 36/2/2 40/2/2
f 42/1/2 43/1/2 44/1/2
f 44/1/2 43/1/2 45/1/2
f 41/2/2 42/2/2 46/2/2
f 42/1/2 44/1/2 47/1/2
f 46/2/2 42/2/2 47/2/2
f 47/1/2 44/1/2 48/1/2
f 51/2/3 50/2/3 49/2/3
f 52/2/3 50/2/3 51/2/3
f 55/2/3 54/2/3 53/2/3
f 56/2/3 54/2/3 55/2/3
f 59/2/3 58/2/3 57/2/3
f 60/2/3 58/2/3 59/2/3
f 61/1/4 62/1/4 63/1/4
f 63/1/4 62/1/4 64/1/4
f 65/1/4 66/1/4 67/1/4
f 67/1/4 66/1/4 68/1/4
f 69/2/4 70/2/4 71/2/4
f 71/2/4 70/2/4 72/2/4
f 73/2/4 74/2/4 75/2/4
f 75/2/4 74/2/4 76/2/4
f 77/2/4 78/2/4 79/2/4
f 79/2/4 78/2/4 80/2/4
f 81/1/4 82/1/4 83/1/4
f 83/1/4 82/1/4 84/1/4
f 81/1/4 83/1/4 85/1/4
f 81/1/4 85/1/4 87/1/4
f 85/1/4 86/1/4 87/1/4
f 87/1/4 86/1/4 88/1/4
f 89/2/4 90/2/4 91/2/4
f 91/2/4 90/2/4 92/2/4
f 95/2/5 94/2/5 93/2/5
f 96/2/5 94/2/5 95/2/5
f 98/1/5 96/1/5 95/1/5
f 99/2/5 98/2/5 97/2/5
f 100/1/5 96/1/5 98/1/5
f 100/2/5 98/2/5 99/2/5
f 101/1/5 96/1/5 100/1/5
f 102/1/5 96/1/5 101/1/5
f 105/2/5 104/2/5 103/2/5
f 106/2/5 104/2/5 105/2/5
f 109/2/5 108/2/5 107/2/5
f 110/2/5 108/2/5 109/2/5
f 111/2/6 112/2/6 113/2/6
f 113/2/6 112/2/6 114/2/6
f 115/2/6 116/2/6 117/2/6
f 115/2/6 117/2/6 121/2/6
f 117/1/6 118/1/6 122/1/6
f 121/2/6 117/2/6 122/2/6
f 122/1/6 118/1/6 123/1/6
f 119/1/6 120/1/6 124/1/6
f 122/1/6 123/1/6 125/1/6
f 123/2/6 124/2/6 126/2/6
f 125/1/6 123/1/6 126/1/6
f 124/1/6 120/1/6 127/1/6
f 126/2/6 124/2/6 127/2/6
f 127/1/6 120/1/6 128/1/6
f 126/2/6 127/2/6 129/2/6
f 129/2/6 127/2/6 130/2/6
f 131/2/6 132/2/6 133/2/6
f 133/2/6 132/2/6 134/2/6
f 134/2/6 132/2/6 135/2/6
f 135/2/6 132/2/6 136/2/6
f 133/1/6 134/1/6 137/1/6
f 134/2/6 135/2/6 138/2/6
f 137/1/6 134/1/6 138/1/6
f 135/1/6 136/1/6 139/1/6
f 138/2/6 135/2/6 139/2/6
f 139/1/6 136/1/6 140/1/6
f 138/2/6 139/2/6 141/2/6
f 141/2/6 139/2/6 142/2/6
