# MagicaVoxel @ Ephtracy

# group
o 

# material
mtllib granade-launcher-0.mtl
usemtl palette

# normals
vn -1 0 0
vn 1 0 0
vn 0 0 1
vn 0 0 -1
vn 0 -1 0
vn 0 1 0

# texcoords
vt 0.978516 0.5
vt 0.982422 0.5
vt 0.986328 0.5
vt 0.990234 0.5
vt 0.994141 0.5

# verts
v -0.4 0.4 -0.6
v -0.4 0.4 -0.7
v -0.4 0.6 -0.6
v -0.4 0.6 -0.7
v -0.3 0.3 -0.6
v -0.3 0.3 -0.7
v -0.3 0.4 0.1
v -0.3 0.4 0
v -0.3 0.4 -0.6
v -0.3 0.4 -0.7
v -0.3 0.4 -0.8
v -0.3 0.5 0
v -0.3 0.5 -0.1
v -0.3 0.5 -0.2
v -0.3 0.5 -0.3
v -0.3 0.5 -0.4
v -0.3 0.5 -0.5
v -0.3 0.5 -0.6
v -0.3 0.6 0.1
v -0.3 0.6 0
v -0.3 0.6 -0.1
v -0.3 0.6 -0.2
v -0.3 0.6 -0.3
v -0.3 0.6 -0.4
v -0.3 0.6 -0.5
v -0.3 0.6 -0.6
v -0.3 0.6 -0.7
v -0.3 0.6 -0.8
v -0.3 0.7 -0.6
v -0.3 0.7 -0.7
v -0.1 0.3 -0.6
v -0.1 0.3 -0.7
v -0.1 0.4 0.1
v -0.1 0.4 0
v -0.1 0.4 -0.6
v -0.1 0.4 -0.7
v -0.1 0.4 -0.8
v -0.1 0.5 0.1
v -0.1 0.5 0
v -0.1 0.5 -0.1
v -0.1 0.5 -0.2
v -0.1 0.5 -0.3
v -0.1 0.5 -0.4
v -0.1 0.5 -0.5
v -0.1 0.5 -0.6
v -0.1 0.6 0.1
v -0.1 0.6 0
v -0.1 0.6 -0.1
v -0.1 0.6 -0.2
v -0.1 0.6 -0.3
v -0.1 0.6 -0.4
v -0.1 0.6 -0.5
v -0.1 0.6 -0.6
v -0.1 0.6 -0.7
v -0.1 0.6 -0.8
v -0.1 0.7 -0.6
v -0.1 0.7 -0.7
v 0 0.4 -0.6
v 0 0.4 -0.7
v 0 0.6 -0.6
v 0 0.6 -0.7
v -0.3 0.4 0.1
v -0.3 0.6 0.1
v -0.2 0.5 0.1
v -0.2 0.6 0.1
v -0.1 0.4 0.1
v -0.1 0.5 0.1
v -0.1 0.6 0.1
v -0.4 0.4 -0.6
v -0.4 0.6 -0.6
v -0.3 0.3 -0.6
v -0.3 0.4 -0.6
v -0.3 0.5 -0.6
v -0.3 0.6 -0.6
v -0.3 0.7 -0.6
v -0.2 0.6 -0.6
v -0.1 0.3 -0.6
v -0.1 0.4 -0.6
v -0.1 0.5 -0.6
v -0.1 0.6 -0.6
v -0.1 0.7 -0.6
v 0 0.4 -0.6
v 0 0.6 -0.6
v -0.4 0.4 -0.7
v -0.4 0.6 -0.7
v -0.3 0.3 -0.7
v -0.3 0.4 -0.7
v -0.3 0.6 -0.7
v -0.3 0.7 -0.7
v -0.1 0.3 -0.7
v -0.1 0.4 -0.7
v -0.1 0.6 -0.7
v -0.1 0.7 -0.7
v 0 0.4 -0.7
v 0 0.6 -0.7
v -0.3 0.4 -0.8
v -0.3 0.6 -0.8
v -0.1 0.4 -0.8
v -0.1 0.6 -0.8
v -0.3 0.3 -0.6
v -0.1 0.3 -0.6
v -0.3 0.3 -0.7
v -0.1 0.3 -0.7
v -0.3 0.4 0.1
v -0.1 0.4 0.1
v -0.3 0.4 0
v -0.1 0.4 0
v -0.4 0.4 -0.6
v -0.3 0.4 -0.6
v -0.1 0.4 -0.6
v 0 0.4 -0.6
v -0.4 0.4 -0.7
v -0.3 0.4 -0.7
v -0.1 0.4 -0.7
v 0 0.4 -0.7
v -0.3 0.4 -0.8
v -0.1 0.4 -0.8
v -0.3 0.6 0.1
v -0.2 0.6 0.1
v -0.1 0.6 0.1
v -0.3 0.6 0
v -0.2 0.6 0
v -0.1 0.6 0
v -0.3 0.6 -0.1
v -0.2 0.6 -0.1
v -0.1 0.6 -0.1
v -0.3 0.6 -0.2
v -0.2 0.6 -0.2
v -0.1 0.6 -0.2
v -0.3 0.6 -0.3
v -0.2 0.6 -0.3
v -0.1 0.6 -0.3
v -0.3 0.6 -0.4
v -0.2 0.6 -0.4
v -0.1 0.6 -0.4
v -0.3 0.6 -0.5
v -0.2 0.6 -0.5
v -0.1 0.6 -0.5
v -0.4 0.6 -0.6
v -0.3 0.6 -0.6
v -0.2 0.6 -0.6
v -0.1 0.6 -0.6
v 0 0.6 -0.6
v -0.4 0.6 -0.7
v -0.3 0.6 -0.7
v -0.1 0.6 -0.7
v 0 0.6 -0.7
v -0.3 0.6 -0.8
v -0.1 0.6 -0.8
v -0.3 0.7 -0.6
v -0.1 0.7 -0.6
v -0.3 0.7 -0.7
v -0.1 0.7 -0.7

# faces
f 3/4/1 2/4/1 1/4/1
f 4/4/1 2/4/1 3/4/1
f 9/2/1 6/2/1 5/2/1
f 10/2/1 6/2/1 9/2/1
f 12/4/1 8/4/1 7/4/1
f 12/2/1 9/2/1 8/2/1
f 13/2/1 9/2/1 12/2/1
f 14/2/1 9/2/1 13/2/1
f 15/2/1 9/2/1 14/2/1
f 16/2/1 9/2/1 15/2/1
f 17/2/1 9/2/1 16/2/1
f 18/2/1 9/2/1 17/2/1
f 19/4/1 12/4/1 7/4/1
f 20/5/1 13/5/1 12/5/1
f 20/4/1 12/4/1 19/4/1
f 21/4/1 14/4/1 13/4/1
f 21/5/1 13/5/1 20/5/1
f 22/5/1 15/5/1 14/5/1
f 22/4/1 14/4/1 21/4/1
f 23/4/1 16/4/1 15/4/1
f 23/5/1 15/5/1 22/5/1
f 24/5/1 17/5/1 16/5/1
f 24/4/1 16/4/1 23/4/1
f 25/4/1 18/4/1 17/4/1
f 25/5/1 17/5/1 24/5/1
f 26/4/1 18/4/1 25/4/1
f 27/3/1 11/3/1 10/3/1
f 28/3/1 11/3/1 27/3/1
f 29/4/1 27/4/1 26/4/1
f 30/4/1 27/4/1 29/4/1
f 31/2/2 32/2/2 35/2/2
f 35/2/2 32/2/2 36/2/2
f 33/4/2 34/4/2 38/4/2
f 34/2/2 35/2/2 39/2/2
f 38/4/2 34/4/2 39/4/2
f 39/2/2 35/2/2 40/2/2
f 40/2/2 35/2/2 41/2/2
f 41/2/2 35/2/2 42/2/2
f 42/2/2 35/2/2 43/2/2
f 43/2/2 35/2/2 44/2/2
f 44/2/2 35/2/2 45/2/2
f 38/1/2 39/1/2 46/1/2
f 39/4/2 40/4/2 47/4/2
f 46/1/2 39/1/2 47/1/2
f 40/5/2 41/5/2 48/5/2
f 47/4/2 40/4/2 48/4/2
f 41/4/2 42/4/2 49/4/2
f 48/5/2 41/5/2 49/5/2
f 42/5/2 43/5/2 50/5/2
f 49/4/2 42/4/2 50/4/2
f 43/4/2 44/4/2 51/4/2
f 50/5/2 43/5/2 51/5/2
f 44/5/2 45/5/2 52/5/2
f 51/4/2 44/4/2 52/4/2
f 52/5/2 45/5/2 53/5/2
f 36/3/2 37/3/2 54/3/2
f 54/3/2 37/3/2 55/3/2
f 53/4/2 54/4/2 56/4/2
f 56/4/2 54/4/2 57/4/2
f 58/4/2 59/4/2 60/4/2
f 60/4/2 59/4/2 61/4/2
f 64/4/3 63/4/3 62/4/3
f 65/4/3 63/4/3 64/4/3
f 66/4/3 64/4/3 62/4/3
f 67/1/3 65/1/3 64/1/3
f 67/4/3 64/4/3 66/4/3
f 68/1/3 65/1/3 67/1/3
f 72/4/3 70/4/3 69/4/3
f 73/4/3 70/4/3 72/4/3
f 74/4/3 70/4/3 73/4/3
f 76/4/3 75/4/3 74/4/3
f 77/2/3 72/2/3 71/2/3
f 78/2/3 72/2/3 77/2/3
f 80/4/3 75/4/3 76/4/3
f 81/4/3 75/4/3 80/4/3
f 82/4/3 79/4/3 78/4/3
f 82/4/3 80/4/3 79/4/3
f 83/4/3 80/4/3 82/4/3
f 84/4/4 85/4/4 87/4/4
f 87/4/4 85/4/4 88/4/4
f 86/2/4 87/2/4 90/2/4
f 90/2/4 87/2/4 91/2/4
f 88/4/4 89/4/4 92/4/4
f 92/4/4 89/4/4 93/4/4
f 91/4/4 92/4/4 94/4/4
f 94/4/4 92/4/4 95/4/4
f 96/3/4 97/3/4 98/3/4
f 98/3/4 97/3/4 99/3/4
f 102/2/5 101/2/5 100/2/5
f 103/2/5 101/2/5 102/2/5
f 106/4/5 105/4/5 104/4/5
f 107/4/5 105/4/5 106/4/5
f 109/2/5 107/2/5 106/2/5
f 110/2/5 107/2/5 109/2/5
f 112/4/5 109/4/5 108/4/5
f 113/4/5 109/4/5 112/4/5
f 114/4/5 111/4/5 110/4/5
f 115/4/5 111/4/5 114/4/5
f 116/3/5 114/3/5 113/3/5
f 117/3/5 114/3/5 116/3/5
f 118/4/6 119/4/6 121/4/6
f 119/1/6 120/1/6 122/1/6
f 121/4/6 119/4/6 122/4/6
f 122/1/6 120/1/6 123/1/6
f 121/5/6 122/5/6 124/5/6
f 122/4/6 123/4/6 125/4/6
f 124/5/6 122/5/6 125/5/6
f 125/4/6 123/4/6 126/4/6
f 124/4/6 125/4/6 127/4/6
f 125/5/6 126/5/6 128/5/6
f 127/4/6 125/4/6 128/4/6
f 128/5/6 126/5/6 129/5/6
f 127/5/6 128/5/6 130/5/6
f 128/4/6 129/4/6 131/4/6
f 130/5/6 128/5/6 131/5/6
f 131/4/6 129/4/6 132/4/6
f 130/4/6 131/4/6 133/4/6
f 131/5/6 132/5/6 134/5/6
f 133/4/6 131/4/6 134/4/6
f 134/5/6 132/5/6 135/5/6
f 133/5/6 134/5/6 136/5/6
f 134/4/6 135/4/6 137/4/6
f 136/5/6 134/5/6 137/5/6
f 137/4/6 135/4/6 138/4/6
f 136/4/6 137/4/6 140/4/6
f 137/5/6 138/5/6 141/5/6
f 140/4/6 137/4/6 141/4/6
f 141/5/6 138/5/6 142/5/6
f 139/4/6 140/4/6 144/4/6
f 144/4/6 140/4/6 145/4/6
f 142/4/6 143/4/6 146/4/6
f 146/4/6 143/4/6 147/4/6
f 145/3/6 146/3/6 148/3/6
f 148/3/6 146/3/6 149/3/6
f 150/4/6 151/4/6 152/4/6
f 152/4/6 151/4/6 153/4/6
