# Blender v2.93.5 OBJ File: 'Shotgun.blend'
# www.blender.org
mtllib drobovik-0.mtl
o Cube.001_Cube.002
v -0.499451 0.301584 0.370131
v -0.390574 0.407970 0.370131
v -0.499451 0.301584 0.255638
v -0.499451 0.407970 0.255638
v 0.342278 0.301584 0.370131
v 0.268406 0.498832 0.370131
v 0.281583 0.301584 0.200757
v 0.268406 0.498832 0.200757
v -0.156555 0.301584 0.255638
v -0.156555 0.407970 0.255638
v -0.156555 0.301584 0.370131
v -0.156555 0.407970 0.370131
v -0.499451 0.301584 0.278859
v -0.499451 0.383019 0.278859
v 0.342278 0.301584 0.298437
v 0.268406 0.521441 0.298437
v -0.156555 0.383225 0.298437
v -0.156555 0.301584 0.298437
v -0.390574 0.377065 0.381912
v -0.499451 0.377065 0.255638
v 0.342278 0.400208 0.245368
v 0.268406 0.400208 0.381912
v -0.156555 0.377065 0.381912
v -0.156555 0.377065 0.236782
v 0.342278 0.400208 0.298437
v -0.405971 0.301584 0.255638
v -0.297094 0.407970 0.370131
v -0.405971 0.407970 0.255638
v -0.405971 0.301584 0.370131
v -0.405971 0.301584 0.298437
v -0.405971 0.383225 0.298437
v -0.405971 0.377065 0.236782
v -0.297094 0.377065 0.381912
v 0.092862 0.498832 0.255638
v 0.092862 0.301584 0.370131
v 0.092862 0.301584 0.200757
v 0.092862 0.498832 0.370131
v 0.092862 0.521441 0.298437
v 0.092862 0.301584 0.298437
v 0.092862 0.400208 0.381912
v 0.092862 0.400208 0.251318
v 0.217570 0.498832 0.200757
v 0.217570 0.301584 0.370131
v 0.217570 0.521441 0.298437
v 0.217570 0.400208 0.248343
v 0.217570 0.301584 0.200757
v 0.217570 0.498832 0.370131
v 0.217570 0.301584 0.298437
v 0.217570 0.400208 0.381912
vt 0.974580 0.494464
vt 0.974580 0.493963
vt 0.974580 0.493963
vt 0.978458 0.515492
vt 0.978458 0.515456
vt 0.978458 0.513999
vt 0.978458 0.514033
vt 0.978455 0.522165
vt 0.978456 0.522165
vt 0.978456 0.523308
vt 0.978455 0.523870
vt 0.970754 0.522777
vt 0.970754 0.522760
vt 0.970754 0.523853
vt 0.970754 0.523870
vt 0.978459 0.515480
vt 0.978459 0.514020
vt 0.978459 0.514020
vt 0.978459 0.515480
vt 0.978457 0.522784
vt 0.978457 0.523870
vt 0.978457 0.523846
vt 0.978457 0.522759
vt 0.978457 0.516797
vt 0.978457 0.519885
vt 0.978457 0.519861
vt 0.978457 0.516838
vt 0.978459 0.522776
vt 0.978459 0.519858
vt 0.978459 0.519858
vt 0.978459 0.522776
vt 0.978456 0.516934
vt 0.978457 0.516881
vt 0.978456 0.519844
vt 0.978456 0.519862
vt 0.974534 0.473158
vt 0.974534 0.473172
vt 0.974534 0.470260
vt 0.974534 0.470245
vt 0.978459 0.522776
vt 0.978459 0.519858
vt 0.978457 0.516824
vt 0.978457 0.519847
vt 0.974581 0.492821
vt 0.974581 0.493914
vt 0.974580 0.493909
vt 0.974580 0.492816
vt 0.978458 0.515480
vt 0.978458 0.514020
vt 0.978455 0.521544
vt 0.978456 0.521022
vt 0.978456 0.520973
vt 0.978456 0.520410
vt 0.978456 0.519267
vt 0.978456 0.520410
vt 0.978456 0.519267
vt 0.978455 0.521022
vt 0.978455 0.522165
vt 0.978458 0.522764
vt 0.978458 0.519852
vt 0.978459 0.516939
vt 0.978460 0.522776
vt 0.978460 0.523870
vt 0.978459 0.523870
vt 0.978455 0.523308
vt 0.974581 0.494464
vt 0.974581 0.493963
vt 0.978458 0.523870
vt 0.978458 0.523870
vt 0.974581 0.489903
vt 0.974580 0.489898
vt 0.978459 0.523870
vt 0.974534 0.474264
vt 0.974534 0.474264
vt 0.970753 0.519862
vt 0.970754 0.519844
vt 0.978458 0.516950
vt 0.978458 0.516912
vt 0.978460 0.515480
vt 0.978459 0.516939
vt 0.978457 0.515369
vt 0.978457 0.515348
vt 0.978456 0.515423
vt 0.978457 0.516954
vt 0.978457 0.513899
vt 0.978457 0.513939
vt 0.978458 0.519866
vt 0.978456 0.514018
vt 0.978456 0.513965
vt 0.978457 0.513920
vn -1.0000 0.0000 0.0000
vn -0.0153 -0.4281 -0.9036
vn 0.8413 0.3065 0.4452
vn 0.0000 0.3562 0.9344
vn 0.0000 -1.0000 0.0000
vn 0.0338 0.9425 -0.3325
vn -0.4173 0.9087 -0.0135
vn -0.0409 0.1788 0.9830
vn 0.0000 0.5208 -0.8537
vn -0.4172 0.9085 0.0227
vn -0.0637 0.7973 0.6002
vn 0.8348 0.5444 -0.0817
vn -0.6542 0.2694 0.7067
vn -0.7539 0.4902 0.4374
vn 0.9095 -0.1970 -0.3662
vn 0.0000 -0.2424 -0.9702
vn 0.0062 -0.1341 0.9909
vn 0.0000 -0.1542 0.9880
vn 0.8618 0.2983 0.4103
vn -0.0143 0.4270 -0.9041
vn -0.0996 -0.1233 -0.9874
vn 0.0000 0.8657 0.5005
vn -0.0960 0.2904 -0.9521
vn 0.0000 0.9453 -0.3263
vn -0.0875 0.1785 -0.9800
vn 0.0000 -0.1186 0.9929
vn -0.0673 0.9497 -0.3057
vn 0.0000 0.1186 0.9929
vn 0.0000 0.9537 0.3007
vn 0.0541 0.0437 -0.9976
vn -0.1864 0.5117 -0.8387
vn 0.0000 0.9742 -0.2255
vn -0.0107 0.4455 -0.8952
vn -0.2210 -0.2090 -0.9526
usemtl None
s off
f 14/1/1 4/2/1 20/3/1
f 45/4/2 42/5/2 8/6/2 21/7/2
f 25/8/3 16/9/3 6/10/3 22/11/3
f 33/12/4 27/13/4 2/14/4 19/15/4
f 48/16/5 15/17/5 5/18/5 43/19/5
f 31/20/6 14/21/6 2/22/6 27/23/6
f 38/24/7 17/25/7 12/26/7 37/27/7
f 30/28/5 18/29/5 11/30/5 29/31/5
f 40/32/8 37/33/8 12/34/8 23/35/8
f 32/36/9 28/37/9 10/38/9 24/39/9
f 26/40/5 9/41/5 18/29/5 30/28/5
f 34/42/10 10/43/10 17/25/10 38/24/10
f 28/44/11 4/45/11 14/46/11 31/47/11
f 46/48/5 7/49/5 15/17/5 48/16/5
f 21/50/12 8/51/12 16/9/12 25/8/12
f 19/52/13 2/53/13 14/54/13
f 1/55/14 19/52/14 14/54/14 13/56/14
f 7/57/15 21/50/15 25/8/15 15/58/15
f 26/40/16 32/59/16 24/60/16 9/41/16
f 35/61/17 40/32/17 23/35/17 11/30/17
f 29/31/18 33/62/18 19/63/18 1/64/18
f 15/58/19 25/8/19 22/11/19 5/65/19
f 46/48/20 45/4/20 21/7/20 7/49/20
f 13/66/1 14/1/1 20/3/1 3/67/1
f 11/30/18 23/35/18 33/62/18 29/31/18
f 3/68/21 20/69/21 32/59/21 26/40/21
f 10/70/22 28/44/22 31/47/22 17/71/22
f 3/68/5 26/40/5 30/28/5 13/72/5
f 20/73/23 4/74/23 28/37/23 32/36/23
f 13/72/5 30/28/5 29/31/5 1/64/5
f 17/25/24 31/20/24 27/23/24 12/26/24
f 23/75/4 12/76/4 27/13/4 33/12/4
f 9/41/25 24/60/25 41/77/25 36/78/25
f 43/19/26 49/79/26 40/32/26 35/61/26
f 9/41/5 36/78/5 39/80/5 18/29/5
f 42/81/27 34/42/27 38/24/27 44/82/27
f 49/79/28 47/83/28 37/33/28 40/32/28
f 44/82/29 38/24/29 37/27/29 47/83/29
f 18/29/5 39/80/5 35/61/5 11/30/5
f 24/60/30 34/84/30 41/77/30
f 16/85/29 44/82/29 47/83/29 6/86/29
f 34/84/31 24/60/31 10/87/31
f 22/88/28 6/89/28 47/83/28 49/79/28
f 8/90/32 42/81/32 44/82/32 16/85/32
f 5/18/26 22/88/26 49/79/26 43/19/26
f 36/78/33 41/77/33 45/4/33 46/48/33
f 36/78/5 46/48/5 48/16/5 39/80/5
f 39/80/5 48/16/5 43/19/5 35/61/5
f 41/77/34 34/84/34 42/5/34 45/4/34
