# Blender v2.93.5 OBJ File: 'Shotgun.blend'
# www.blender.org
mtllib drobovik-1.mtl
o Cube.002_Cube.004
v -0.499451 0.301584 -0.370131
v -0.390574 0.407970 -0.370131
v -0.499451 0.301584 -0.255638
v -0.499451 0.407970 -0.255638
v 0.342278 0.301584 -0.370131
v 0.268406 0.498832 -0.370131
v 0.281583 0.301584 -0.200757
v 0.268406 0.498832 -0.200757
v -0.156555 0.301584 -0.255638
v -0.156555 0.407970 -0.255638
v -0.156555 0.301584 -0.370131
v -0.156555 0.407970 -0.370131
v -0.499451 0.301584 -0.278859
v -0.499451 0.383019 -0.278859
v 0.342278 0.301584 -0.298437
v 0.268406 0.521441 -0.298437
v -0.156555 0.383225 -0.298437
v -0.156555 0.301584 -0.298437
v -0.390574 0.377065 -0.381912
v -0.499451 0.377065 -0.255638
v 0.342278 0.400208 -0.245368
v 0.268406 0.400208 -0.381912
v -0.156555 0.377065 -0.381912
v -0.156555 0.377065 -0.236782
v 0.342278 0.400208 -0.298437
v -0.405971 0.301584 -0.255638
v -0.297094 0.407970 -0.370131
v -0.405971 0.407970 -0.255638
v -0.405971 0.301584 -0.370131
v -0.405971 0.301584 -0.298437
v -0.405971 0.383225 -0.298437
v -0.405971 0.377065 -0.236782
v -0.297094 0.377065 -0.381912
v 0.092862 0.498832 -0.255638
v 0.092862 0.301584 -0.370131
v 0.092862 0.301584 -0.200757
v 0.092862 0.498832 -0.370131
v 0.092862 0.521441 -0.298437
v 0.092862 0.301584 -0.298437
v 0.092862 0.400208 -0.381912
v 0.092862 0.400208 -0.251318
v 0.217570 0.498832 -0.200757
v 0.217570 0.301584 -0.370131
v 0.217570 0.521441 -0.298437
v 0.217570 0.400208 -0.248343
v 0.217570 0.301584 -0.200757
v 0.217570 0.498832 -0.370131
v 0.217570 0.301584 -0.298437
v 0.217570 0.400208 -0.381912
vt 0.974607 0.464174
vt 0.974606 0.463826
vt 0.974611 0.463826
vt 0.978555 0.503543
vt 0.978555 0.504558
vt 0.978540 0.504582
vt 0.978540 0.503569
vt 0.978467 0.503786
vt 0.978467 0.502600
vt 0.978483 0.502991
vt 0.978487 0.503786
vt 0.970738 0.510851
vt 0.970738 0.510091
vt 0.970747 0.510103
vt 0.970747 0.510863
vt 0.978597 0.498743
vt 0.978581 0.498743
vt 0.978581 0.497728
vt 0.978597 0.497728
vt 0.978524 0.498399
vt 0.978508 0.498416
vt 0.978508 0.497660
vt 0.978524 0.497643
vt 0.978522 0.502565
vt 0.978507 0.502536
vt 0.978508 0.500433
vt 0.978524 0.500416
vt 0.978597 0.503821
vt 0.978581 0.503821
vt 0.978581 0.501790
vt 0.978597 0.501790
vt 0.978489 0.502516
vt 0.978487 0.500479
vt 0.978496 0.500491
vt 0.978506 0.502553
vt 0.974685 0.461278
vt 0.974684 0.463305
vt 0.974679 0.463295
vt 0.974679 0.461268
vt 0.978604 0.503821
vt 0.978604 0.501790
vt 0.978530 0.502546
vt 0.978531 0.500443
vt 0.974611 0.461758
vt 0.974604 0.461761
vt 0.974603 0.461000
vt 0.974611 0.460997
vt 0.978613 0.498743
vt 0.978613 0.497728
vt 0.978467 0.504219
vt 0.978482 0.502566
vt 0.978483 0.501379
vt 0.978487 0.502174
vt 0.978469 0.502174
vt 0.978469 0.501379
vt 0.978451 0.504582
vt 0.978451 0.503786
vt 0.978572 0.498473
vt 0.978571 0.500499
vt 0.978560 0.500509
vt 0.978560 0.498483
vt 0.978581 0.499759
vt 0.978573 0.501790
vt 0.978573 0.499759
vt 0.978581 0.504582
vt 0.978573 0.504582
vt 0.978573 0.503821
vt 0.978451 0.502991
vt 0.978572 0.503569
vt 0.978572 0.504582
vt 0.974594 0.464174
vt 0.974594 0.463826
vt 0.978572 0.497713
vt 0.978560 0.497713
vt 0.974611 0.463788
vt 0.974603 0.463792
vt 0.978604 0.504582
vt 0.978597 0.504582
vt 0.974684 0.460508
vt 0.974679 0.460508
vt 0.970736 0.512880
vt 0.970745 0.512892
vt 0.978572 0.502555
vt 0.978555 0.502528
vt 0.978573 0.498743
vt 0.978597 0.499759
vt 0.978613 0.499759
vt 0.978522 0.503573
vt 0.978488 0.503531
vt 0.978505 0.503567
vt 0.978507 0.503545
vt 0.978522 0.504582
vt 0.978507 0.504554
vt 0.978554 0.500499
vt 0.978487 0.504545
vt 0.978573 0.497728
vn -1.0000 0.0000 0.0000
vn -0.0153 -0.4281 0.9036
vn 0.8413 0.3065 -0.4452
vn 0.0000 0.3562 -0.9344
vn 0.0000 -1.0000 0.0000
vn 0.0338 0.9425 0.3325
vn -0.4173 0.9087 0.0135
vn -0.0409 0.1788 -0.9830
vn 0.0000 0.5208 0.8537
vn -0.4172 0.9085 -0.0227
vn -0.0637 0.7973 -0.6002
vn 0.8348 0.5444 0.0817
vn -0.6542 0.2694 -0.7067
vn -0.7539 0.4902 -0.4374
vn 0.9095 -0.1970 0.3662
vn 0.0000 -0.2424 0.9702
vn 0.0062 -0.1341 -0.9909
vn 0.0000 -0.1542 -0.9880
vn 0.8618 0.2983 -0.4103
vn -0.0143 0.4270 0.9041
vn -0.0996 -0.1233 0.9874
vn 0.0000 0.8657 -0.5005
vn -0.0960 0.2904 0.9521
vn 0.0000 0.9453 0.3263
vn -0.0875 0.1785 0.9800
vn 0.0000 -0.1186 -0.9929
vn -0.0673 0.9497 0.3057
vn 0.0000 0.1186 -0.9929
vn 0.0000 0.9537 -0.3007
vn 0.0541 0.0437 0.9976
vn -0.1864 0.5117 0.8387
vn 0.0000 0.9742 0.2255
vn -0.0107 0.4455 0.8952
vn -0.2210 -0.2090 0.9526
usemtl None
s off
f 14/1/1 20/2/1 4/3/1
f 45/4/2 21/5/2 8/6/2 42/7/2
f 25/8/3 22/9/3 6/10/3 16/11/3
f 33/12/4 19/13/4 2/14/4 27/15/4
f 48/16/5 43/17/5 5/18/5 15/19/5
f 31/20/6 27/21/6 2/22/6 14/23/6
f 38/24/7 37/25/7 12/26/7 17/27/7
f 30/28/5 29/29/5 11/30/5 18/31/5
f 40/32/8 23/33/8 12/34/8 37/35/8
f 32/36/9 24/37/9 10/38/9 28/39/9
f 26/40/5 30/28/5 18/31/5 9/41/5
f 34/42/10 38/24/10 17/27/10 10/43/10
f 28/44/11 31/45/11 14/46/11 4/47/11
f 46/48/5 48/16/5 15/19/5 7/49/5
f 21/50/12 25/8/12 16/11/12 8/6/12
f 19/51/13 14/52/13 2/53/13
f 1/54/14 13/55/14 14/52/14 19/51/14
f 7/56/15 15/57/15 25/8/15 21/50/15
f 26/58/16 9/59/16 24/60/16 32/61/16
f 35/62/17 11/30/17 23/63/17 40/64/17
f 29/29/18 1/65/18 19/66/18 33/67/18
f 15/57/19 5/68/19 22/9/19 25/8/19
f 46/69/20 7/70/20 21/5/20 45/4/20
f 13/71/1 3/72/1 20/2/1 14/1/1
f 11/30/18 29/29/18 33/67/18 23/63/18
f 3/73/21 26/58/21 32/61/21 20/74/21
f 10/75/22 17/76/22 31/45/22 28/44/22
f 3/77/5 13/78/5 30/28/5 26/40/5
f 20/79/23 32/36/23 28/39/23 4/80/23
f 13/78/5 1/65/5 29/29/5 30/28/5
f 17/27/24 12/26/24 27/21/24 31/20/24
f 23/81/4 33/12/4 27/15/4 12/82/4
f 9/59/25 36/83/25 41/84/25 24/60/25
f 43/17/26 35/62/26 40/64/26 49/85/26
f 9/41/5 18/31/5 39/86/5 36/87/5
f 42/7/27 44/88/27 38/24/27 34/42/27
f 49/89/28 40/32/28 37/35/28 47/90/28
f 44/88/29 47/91/29 37/25/29 38/24/29
f 18/31/5 11/30/5 35/62/5 39/86/5
f 24/60/30 41/84/30 34/42/30
f 16/92/29 6/93/29 47/91/29 44/88/29
f 34/42/31 10/94/31 24/60/31
f 22/95/28 49/89/28 47/90/28 6/93/28
f 8/6/32 16/92/32 44/88/32 42/7/32
f 5/18/26 43/17/26 49/85/26 22/96/26
f 36/83/33 46/69/33 45/4/33 41/84/33
f 36/87/5 39/86/5 48/16/5 46/48/5
f 39/86/5 35/62/5 43/17/5 48/16/5
f 41/84/34 45/4/34 42/7/34 34/42/34
