# Blender v2.93.5 OBJ File: 'Shotgun.blend'
# www.blender.org
mtllib drobovik-1.mtl
o Cube.001_Cube.002
v -0.499451 0.301584 0.370131
v 0.342278 0.301584 0.370131
v 0.268406 0.498832 0.370131
v 0.281583 0.301584 0.200757
v 0.268406 0.498832 0.200757
v -0.156555 0.301584 0.370131
v -0.499451 0.301584 0.267248
v -0.499451 0.389351 0.263378
v 0.342278 0.301584 0.298437
v 0.268406 0.521441 0.298437
v -0.156555 0.395597 0.277037
v -0.156555 0.301584 0.277037
v -0.390574 0.392517 0.376021
v 0.342278 0.400208 0.245368
v 0.268406 0.400208 0.381912
v -0.156555 0.392517 0.376021
v -0.156555 0.377065 0.236782
v 0.342278 0.400208 0.298437
v -0.405971 0.301584 0.370131
v -0.405971 0.301584 0.277037
v -0.405971 0.395597 0.277037
v -0.405971 0.377065 0.236782
v -0.297094 0.392517 0.376021
v 0.092862 0.301584 0.370131
v 0.092862 0.301584 0.200757
v 0.092862 0.498832 0.370131
v 0.092862 0.510137 0.277037
v 0.092862 0.301584 0.298437
v 0.092862 0.400208 0.381912
v 0.092862 0.400208 0.251318
v 0.217570 0.498832 0.200757
v 0.217570 0.301584 0.370131
v 0.217570 0.521441 0.298437
v 0.217570 0.400208 0.248343
v 0.217570 0.301584 0.200757
v 0.217570 0.498832 0.370131
v 0.217570 0.301584 0.298437
v 0.217570 0.400208 0.381912
vt 0.978458 0.515492
vt 0.978458 0.513999
vt 0.978458 0.514033
vt 0.978455 0.522165
vt 0.978456 0.523308
vt 0.978455 0.523870
vt 0.978459 0.514020
vt 0.978459 0.515480
vt 0.978459 0.515480
vt 0.978457 0.522784
vt 0.978457 0.523846
vt 0.978457 0.522759
vt 0.978457 0.519885
vt 0.978457 0.516838
vt 0.978457 0.516797
vt 0.978459 0.519858
vt 0.978459 0.522776
vt 0.978459 0.522776
vt 0.978456 0.516934
vt 0.978457 0.516881
vt 0.978456 0.519853
vt 0.974534 0.473172
vt 0.974534 0.470245
vt 0.974534 0.473158
vt 0.978458 0.514020
vt 0.978458 0.515480
vt 0.978455 0.521544
vt 0.978456 0.522165
vt 0.978456 0.520410
vt 0.978456 0.519267
vt 0.978456 0.519267
vt 0.978455 0.522165
vt 0.978455 0.521022
vt 0.978458 0.522764
vt 0.978459 0.516939
vt 0.978459 0.519858
vt 0.978460 0.523870
vt 0.978459 0.523870
vt 0.978455 0.523308
vt 0.978458 0.523870
vt 0.974534 0.474264
vt 0.978458 0.519852
vt 0.978458 0.516912
vt 0.978460 0.515480
vt 0.978459 0.516939
vt 0.978457 0.515369
vt 0.978457 0.515348
vt 0.978456 0.515423
vt 0.978457 0.516954
vt 0.978458 0.516950
vt 0.978457 0.513899
vt 0.978457 0.513939
vt 0.978456 0.513965
vt 0.978456 0.514018
vt 0.978457 0.513920
vt 0.978459 0.514020
vt 0.978458 0.515456
vt 0.978457 0.523870
vt 0.974534 0.470260
vt 0.978456 0.521022
vt 0.978456 0.520973
vn -0.0216 -0.4254 -0.9047
vn 0.7465 0.0789 0.6607
vn 0.0000 -1.0000 -0.0000
vn 0.0000 0.9995 0.0311
vn -0.4148 0.9033 0.1097
vn -0.0271 0.1186 0.9926
vn 0.0000 0.9084 -0.4182
vn 0.8540 0.5203 0.0000
vn -1.0000 -0.0000 0.0000
vn 0.8171 -0.2732 -0.5077
vn 0.0000 -0.4706 -0.8824
vn 0.0000 -0.0646 0.9979
vn 1.0000 0.0000 -0.0000
vn 0.0000 0.4346 -0.9006
vn 0.0920 -0.4686 -0.8786
vn 0.0004 0.9084 -0.4182
vn -0.2605 -0.4543 -0.8519
vn 0.0000 -0.1186 0.9929
vn -0.0496 0.9730 -0.2252
vn 0.0000 0.1186 0.9929
vn 0.0000 0.9537 0.3007
vn 0.0356 0.2277 -0.9731
vn -0.3850 0.8383 -0.3859
vn 0.0000 0.9742 -0.2255
vn -0.0215 -0.4345 -0.9004
vn 0.0000 -0.4346 -0.9006
vn 0.8427 0.5135 0.1619
vn -0.0728 0.9965 0.0423
vn -0.3914 0.9198 0.0286
vn 0.8208 0.5565 -0.1288
vn -0.5620 0.6389 0.5253
vn -0.0198 -0.1186 0.9927
vn 0.6747 0.4340 0.5970
vn -0.0216 0.4230 -0.9059
vn -0.2786 -0.0423 -0.9595
vn 0.0095 0.4562 -0.8898
vn -0.1100 0.9867 0.1198
vn -0.0212 0.4561 -0.8897
vn -0.4984 0.1975 -0.8441
usemtl None
s off
f 34/1/1 5/2/1 14/3/1
f 18/4/2 3/5/2 15/6/2
f 9/7/3 32/8/3 37/9/3
f 21/10/4 13/11/4 23/12/4
f 11/13/5 26/14/5 27/15/5
f 12/16/3 19/17/3 20/18/3
f 29/19/6 26/20/6 16/21/6
f 21/22/7 17/23/7 22/24/7
f 4/25/3 37/9/3 35/26/3
f 14/27/8 10/28/8 18/4/8
f 1/29/9 8/30/9 7/31/9
f 14/27/10 9/32/10 4/33/10
f 22/34/11 12/16/11 20/18/11
f 24/35/12 16/21/12 6/36/12
f 19/17/12 13/37/12 1/38/12
f 18/4/13 2/39/13 9/32/13
f 34/1/14 4/25/14 35/26/14
f 6/36/12 23/12/12 19/17/12
f 7/40/15 22/34/15 20/18/15
f 8/41/16 21/22/16 22/24/16
f 20/18/3 1/38/3 7/40/3
f 11/13/4 23/12/4 16/21/4
f 17/42/17 25/43/17 12/16/17
f 38/44/18 24/35/18 32/8/18
f 12/16/3 25/43/3 28/45/3
f 31/46/19 27/15/19 33/47/19
f 36/48/20 29/19/20 38/44/20
f 33/47/21 26/14/21 36/48/21
f 28/45/3 6/36/3 12/16/3
f 17/42/22 27/49/22 30/50/22
f 10/51/21 36/48/21 3/52/21
f 27/49/23 17/42/23 11/13/23
f 3/53/20 38/44/20 15/54/20
f 31/46/24 10/51/24 5/55/24
f 15/54/18 32/8/18 2/56/18
f 25/43/14 34/1/14 35/26/14
f 35/26/3 28/45/3 25/43/3
f 37/9/3 24/35/3 28/45/3
f 30/50/25 31/57/25 34/1/25
f 34/1/26 31/57/26 5/2/26
f 18/4/27 10/28/27 3/5/27
f 9/7/3 2/56/3 32/8/3
f 21/10/28 8/58/28 13/11/28
f 11/13/29 16/21/29 26/14/29
f 12/16/3 6/36/3 19/17/3
f 21/22/7 11/59/7 17/23/7
f 4/25/3 9/7/3 37/9/3
f 14/27/30 5/60/30 10/28/30
f 1/29/31 13/61/31 8/30/31
f 14/27/13 18/4/13 9/32/13
f 22/34/11 17/42/11 12/16/11
f 24/35/32 29/19/32 16/21/32
f 19/17/12 23/12/12 13/37/12
f 18/4/33 15/6/33 2/39/33
f 34/1/34 14/3/34 4/25/34
f 6/36/12 16/21/12 23/12/12
f 7/40/35 8/58/35 22/34/35
f 20/18/3 19/17/3 1/38/3
f 11/13/4 21/10/4 23/12/4
f 17/42/36 30/50/36 25/43/36
f 38/44/18 29/19/18 24/35/18
f 36/48/20 26/20/20 29/19/20
f 33/47/37 27/15/37 26/14/37
f 28/45/3 24/35/3 6/36/3
f 10/51/21 33/47/21 36/48/21
f 3/53/20 36/48/20 38/44/20
f 31/46/24 33/47/24 10/51/24
f 15/54/18 38/44/18 32/8/18
f 25/43/38 30/50/38 34/1/38
f 35/26/3 37/9/3 28/45/3
f 37/9/3 32/8/3 24/35/3
f 30/50/39 27/49/39 31/57/39
