# MagicaVoxel @ Ephtracy

# group
o 

# material
mtllib VerySmallMedicalKit_LOD1.mtl
usemtl palette

# normals
vn 1 0 0
vn -1 0 0
vn 0 0 -1
vn 0 0 1
vn 0 -1 0
vn 0 1 0

# texcoords
vt 0.974609 0.5
vt 0.982422 0.5

# verts
v 0.1 -0.4 -0.1
v 0.1 -0.4 0
v 0.1 -0.4 0.1
v 0.1 -0.4 0.2
v 0.1 -0.3 -0.1
v 0.1 -0.3 0
v 0.1 -0.1 0.1
v 0.1 -0.1 0.2
v 0.1 0.2 -0.1
v 0.1 0.2 0.2
v -0.2 -0.4 -0.1
v -0.2 -0.4 0
v -0.2 -0.4 0.2
v -0.2 -0.1 -0.1
v -0.2 -0.1 0
v -0.2 0.2 -0.1
v -0.2 0.2 0.2
v 0.1 -0.4 -0.1
v 0.1 -0.3 -0.1
v 0.1 0.2 -0.1
v 0 -0.4 -0.1
v 0 -0.3 -0.1
v -0.1 -0.4 -0.1
v -0.1 -0.1 -0.1
v -0.2 -0.4 -0.1
v -0.2 -0.1 -0.1
v -0.2 0.2 -0.1
v 0.1 -0.4 0.2
v 0.1 -0.1 0.2
v 0.1 0.2 0.2
v 0 -0.4 0.2
v 0 -0.1 0.2
v -0.2 -0.4 0.2
v -0.2 0.2 0.2
v 0.1 -0.4 -0.1
v 0 -0.4 -0.1
v -0.1 -0.4 -0.1
v -0.2 -0.4 -0.1
v 0.1 -0.4 0
v 0 -0.4 0
v -0.1 -0.4 0
v -0.2 -0.4 0
v 0.1 -0.4 0.1
v 0 -0.4 0.1
v 0.1 -0.4 0.2
v 0 -0.4 0.2
v -0.2 -0.4 0.2
v 0.1 0.2 -0.1
v -0.2 0.2 -0.1
v 0.1 0.2 0.2
v -0.2 0.2 0.2

# faces
f 5/2/1 2/2/1 1/2/1
f 6/1/1 3/1/1 2/1/1
f 6/2/1 2/2/1 5/2/1
f 7/2/1 4/2/1 3/2/1
f 7/1/1 3/1/1 6/1/1
f 7/1/1 6/1/1 5/1/1
f 8/2/1 4/2/1 7/2/1
f 9/1/1 7/1/1 5/1/1
f 9/1/1 8/1/1 7/1/1
f 10/1/1 8/1/1 9/1/1
f 11/2/2 12/2/2 14/2/2
f 12/1/2 13/1/2 15/1/2
f 14/2/2 12/2/2 15/2/2
f 14/1/2 15/1/2 16/1/2
f 15/1/2 13/1/2 17/1/2
f 16/1/2 15/1/2 17/1/2
f 21/2/3 19/2/3 18/2/3
f 22/1/3 20/1/3 19/1/3
f 22/2/3 19/2/3 21/2/3
f 23/1/3 22/1/3 21/1/3
f 24/1/3 20/1/3 22/1/3
f 24/1/3 22/1/3 23/1/3
f 25/2/3 24/2/3 23/2/3
f 26/1/3 20/1/3 24/1/3
f 26/2/3 24/2/3 25/2/3
f 27/1/3 20/1/3 26/1/3
f 28/2/4 29/2/4 31/2/4
f 29/1/4 30/1/4 32/1/4
f 31/2/4 29/2/4 32/2/4
f 31/1/4 32/1/4 33/1/4
f 32/1/4 30/1/4 34/1/4
f 33/1/4 32/1/4 34/1/4
f 39/2/5 36/2/5 35/2/5
f 40/1/5 37/1/5 36/1/5
f 40/2/5 36/2/5 39/2/5
f 41/2/5 38/2/5 37/2/5
f 41/1/5 37/1/5 40/1/5
f 42/2/5 38/2/5 41/2/5
f 43/1/5 40/1/5 39/1/5
f 43/1/5 41/1/5 40/1/5
f 43/1/5 42/1/5 41/1/5
f 44/1/5 42/1/5 43/1/5
f 45/2/5 44/2/5 43/2/5
f 46/1/5 42/1/5 44/1/5
f 46/2/5 44/2/5 45/2/5
f 47/1/5 42/1/5 46/1/5
f 48/1/6 49/1/6 50/1/6
f 50/1/6 49/1/6 51/1/6
