# MagicaVoxel @ Ephtracy

# group
o 

# material
mtllib HeavyDoubleShooterBot_LOD1-2.mtl
usemtl palette

# normals
vn 1 0 0
vn -1 0 0
vn 0 0 -1
vn 0 0 1
vn 0 -1 0
vn 0 1 0

# texcoords
vt 0.974609 0.5
vt 0.978516 0.5

# verts
v 0.4 3.3 -0.4
v 0.4 3.3 0.4
v 0.4 3.6 -0.4
v 0.4 3.6 0.4
v 0.4 3.7 -0.4
v 0.4 3.7 0.4
v 0.4 4.1 -0.4
v 0.4 4.1 0.4
v 0.3 3.6 -0.3
v 0.3 3.6 0.3
v 0.3 3.7 -0.3
v 0.3 3.7 0.3
v 0.2 3.5 0.3
v 0.2 3.5 0.4
v 0.2 3.8 0.3
v 0.2 3.8 0.4
v -0.1 3.4 0.3
v -0.1 3.4 0.4
v -0.1 3.7 -0.4
v -0.1 3.7 -0.3
v -0.1 3.9 0.3
v -0.1 3.9 0.4
v -0.1 4 -0.3
v -0.1 4 -0.1
v -0.1 4 0.1
v -0.1 4 0.3
v -0.1 4 0.4
v -0.1 4.1 -0.4
v -0.1 4.1 -0.1
v -0.1 4.1 0.1
v -0.1 4.1 0.4
v -0.2 4 -0.1
v -0.2 4 0.1
v -0.2 4.1 -0.1
v -0.2 4.1 0.1
v -0.3 3.5 0.3
v -0.3 3.5 0.4
v -0.3 3.6 0.3
v -0.3 3.6 0.4
v -0.3 3.7 0.3
v -0.3 3.7 0.4
v -0.3 3.8 0.3
v -0.3 3.8 0.4
v -0.3 3.9 0.3
v -0.3 3.9 0.4
v -0.3 4 0.3
v -0.3 4 0.4
v 0.3 3.5 0.3
v 0.3 3.5 0.4
v 0.3 3.6 0.3
v 0.3 3.6 0.4
v 0.3 3.7 0.3
v 0.3 3.7 0.4
v 0.3 3.8 0.3
v 0.3 3.8 0.4
v 0.3 3.9 0.3
v 0.3 3.9 0.4
v 0.3 4 0.3
v 0.3 4 0.4
v 0.2 4 -0.1
v 0.2 4 0.1
v 0.2 4.1 -0.1
v 0.2 4.1 0.1
v 0.1 3.4 0.3
v 0.1 3.4 0.4
v 0.1 3.7 -0.4
v 0.1 3.7 -0.3
v 0.1 3.9 0.3
v 0.1 3.9 0.4
v 0.1 4 -0.3
v 0.1 4 -0.1
v 0.1 4 0.1
v 0.1 4 0.3
v 0.1 4 0.4
v 0.1 4.1 -0.4
v 0.1 4.1 -0.1
v 0.1 4.1 0.1
v 0.1 4.1 0.4
v -0.2 3.5 0.3
v -0.2 3.5 0.4
v -0.2 3.8 0.3
v -0.2 3.8 0.4
v -0.3 3.6 -0.3
v -0.3 3.6 0.3
v -0.3 3.7 -0.3
v -0.3 3.7 0.3
v -0.4 3.3 -0.4
v -0.4 3.3 0.4
v -0.4 3.6 -0.4
v -0.4 3.6 0.4
v -0.4 3.7 -0.4
v -0.4 3.7 0.4
v -0.4 4.1 -0.4
v -0.4 4.1 0.4
v 0.4 3.3 -0.4
v 0.4 3.6 -0.4
v 0.4 3.7 -0.4
v 0.4 4.1 -0.4
v 0.1 3.7 -0.4
v 0.1 4.1 -0.4
v -0.1 3.7 -0.4
v -0.1 4.1 -0.4
v -0.4 3.3 -0.4
v -0.4 3.6 -0.4
v -0.4 3.7 -0.4
v -0.4 4.1 -0.4
v 0.3 3.6 -0.3
v 0.3 3.7 -0.3
v 0.1 3.7 -0.3
v 0.1 4 -0.3
v -0.1 3.7 -0.3
v -0.1 4 -0.3
v -0.3 3.6 -0.3
v -0.3 3.7 -0.3
v 0.2 4 0.1
v 0.2 4.1 0.1
v 0.1 4 0.1
v 0.1 4.1 0.1
v -0.1 4 0.1
v -0.1 4.1 0.1
v -0.2 4 0.1
v -0.2 4.1 0.1
v 0.2 4 -0.1
v 0.2 4.1 -0.1
v 0.1 4 -0.1
v 0.1 4.1 -0.1
v -0.1 4 -0.1
v -0.1 4.1 -0.1
v -0.2 4 -0.1
v -0.2 4.1 -0.1
v 0.3 3.5 0.3
v 0.3 3.6 0.3
v 0.3 3.7 0.3
v 0.3 3.8 0.3
v 0.3 3.9 0.3
v 0.3 4 0.3
v 0.2 3.5 0.3
v 0.2 3.8 0.3
v 0.1 3.4 0.3
v 0.1 3.9 0.3
v 0.1 4 0.3
v -0.1 3.4 0.3
v -0.1 3.9 0.3
v -0.1 4 0.3
v -0.2 3.5 0.3
v -0.2 3.8 0.3
v -0.3 3.5 0.3
v -0.3 3.6 0.3
v -0.3 3.7 0.3
v -0.3 3.8 0.3
v -0.3 3.9 0.3
v -0.3 4 0.3
v 0.4 3.3 0.4
v 0.4 3.6 0.4
v 0.4 3.7 0.4
v 0.4 4.1 0.4
v 0.3 3.5 0.4
v 0.3 3.6 0.4
v 0.3 3.7 0.4
v 0.3 3.8 0.4
v 0.3 3.9 0.4
v 0.3 4 0.4
v 0.2 3.5 0.4
v 0.2 3.8 0.4
v 0.1 3.4 0.4
v 0.1 3.9 0.4
v 0.1 4 0.4
v 0.1 4.1 0.4
v -0.1 3.4 0.4
v -0.1 3.9 0.4
v -0.1 4 0.4
v -0.1 4.1 0.4
v -0.2 3.5 0.4
v -0.2 3.8 0.4
v -0.3 3.5 0.4
v -0.3 3.6 0.4
v -0.3 3.7 0.4
v -0.3 3.8 0.4
v -0.3 3.9 0.4
v -0.3 4 0.4
v -0.4 3.3 0.4
v -0.4 3.6 0.4
v -0.4 3.7 0.4
v -0.4 4.1 0.4
v 0.4 3.3 -0.4
v -0.4 3.3 -0.4
v 0.1 3.3 -0.1
v -0.1 3.3 -0.1
v 0.1 3.3 0.1
v -0.1 3.3 0.1
v 0.4 3.3 0.4
v -0.4 3.3 0.4
v 0.4 3.7 -0.4
v 0.1 3.7 -0.4
v -0.1 3.7 -0.4
v -0.4 3.7 -0.4
v 0.3 3.7 -0.3
v 0.1 3.7 -0.3
v -0.1 3.7 -0.3
v -0.3 3.7 -0.3
v 0.3 3.7 0.3
v -0.3 3.7 0.3
v 0.4 3.7 0.4
v 0.3 3.7 0.4
v -0.3 3.7 0.4
v -0.4 3.7 0.4
v 0.3 3.8 0.3
v 0.2 3.8 0.3
v -0.2 3.8 0.3
v -0.3 3.8 0.3
v 0.3 3.8 0.4
v 0.2 3.8 0.4
v -0.2 3.8 0.4
v -0.3 3.8 0.4
v 0.3 4 0.3
v 0.1 4 0.3
v -0.1 4 0.3
v -0.3 4 0.3
v 0.3 4 0.4
v 0.1 4 0.4
v -0.1 4 0.4
v -0.3 4 0.4
v 0.1 3.4 0.3
v -0.1 3.4 0.3
v 0.1 3.4 0.4
v -0.1 3.4 0.4
v 0.3 3.5 0.3
v 0.2 3.5 0.3
v -0.2 3.5 0.3
v -0.3 3.5 0.3
v 0.3 3.5 0.4
v 0.2 3.5 0.4
v -0.2 3.5 0.4
v -0.3 3.5 0.4
v 0.4 3.6 -0.4
v -0.4 3.6 -0.4
v 0.3 3.6 -0.3
v -0.3 3.6 -0.3
v 0.3 3.6 0.3
v -0.3 3.6 0.3
v 0.4 3.6 0.4
v 0.3 3.6 0.4
v -0.3 3.6 0.4
v -0.4 3.6 0.4
v 0.3 3.9 0.3
v 0.1 3.9 0.3
v -0.1 3.9 0.3
v -0.3 3.9 0.3
v 0.3 3.9 0.4
v 0.1 3.9 0.4
v -0.1 3.9 0.4
v -0.3 3.9 0.4
v 0.1 4 -0.3
v -0.1 4 -0.3
v 0.2 4 -0.1
v 0.1 4 -0.1
v -0.1 4 -0.1
v -0.2 4 -0.1
v 0.2 4 0.1
v 0.1 4 0.1
v -0.1 4 0.1
v -0.2 4 0.1
v 0.1 4 0.3
v -0.1 4 0.3
v 0.4 4.1 -0.4
v 0.1 4.1 -0.4
v -0.1 4.1 -0.4
v -0.4 4.1 -0.4
v 0.2 4.1 -0.1
v 0.1 4.1 -0.1
v -0.1 4.1 -0.1
v -0.2 4.1 -0.1
v 0.2 4.1 0.1
v 0.1 4.1 0.1
v -0.1 4.1 0.1
v -0.2 4.1 0.1
v 0.4 4.1 0.4
v 0.1 4.1 0.4
v -0.1 4.1 0.4
v -0.4 4.1 0.4

# faces
f 3/2/1 2/2/1 1/2/1
f 4/2/1 2/2/1 3/2/1
f 7/2/1 6/2/1 5/2/1
f 8/2/1 6/2/1 7/2/1
f 11/1/1 10/1/1 9/1/1
f 12/1/1 10/1/1 11/1/1
f 15/2/1 14/2/1 13/2/1
f 16/2/1 14/2/1 15/2/1
f 21/2/1 18/2/1 17/2/1
f 22/2/1 18/2/1 21/2/1
f 23/2/1 20/2/1 19/2/1
f 28/2/1 23/2/1 19/2/1
f 28/2/1 24/2/1 23/2/1
f 29/2/1 24/2/1 28/2/1
f 30/2/1 27/2/1 26/2/1
f 30/2/1 26/2/1 25/2/1
f 31/2/1 27/2/1 30/2/1
f 34/2/1 33/2/1 32/2/1
f 35/2/1 33/2/1 34/2/1
f 38/2/1 37/2/1 36/2/1
f 39/2/1 37/2/1 38/2/1
f 42/2/1 41/2/1 40/2/1
f 43/2/1 41/2/1 42/2/1
f 46/2/1 45/2/1 44/2/1
f 47/2/1 45/2/1 46/2/1
f 48/2/2 49/2/2 50/2/2
f 50/2/2 49/2/2 51/2/2
f 52/2/2 53/2/2 54/2/2
f 54/2/2 53/2/2 55/2/2
f 56/2/2 57/2/2 58/2/2
f 58/2/2 57/2/2 59/2/2
f 60/2/2 61/2/2 62/2/2
f 62/2/2 61/2/2 63/2/2
f 64/2/2 65/2/2 68/2/2
f 68/2/2 65/2/2 69/2/2
f 66/2/2 67/2/2 70/2/2
f 66/2/2 70/2/2 75/2/2
f 70/2/2 71/2/2 75/2/2
f 75/2/2 71/2/2 76/2/2
f 73/2/2 74/2/2 77/2/2
f 72/2/2 73/2/2 77/2/2
f 77/2/2 74/2/2 78/2/2
f 79/2/2 80/2/2 81/2/2
f 81/2/2 80/2/2 82/2/2
f 83/1/2 84/1/2 85/1/2
f 85/1/2 84/1/2 86/1/2
f 87/2/2 88/2/2 89/2/2
f 89/2/2 88/2/2 90/2/2
f 91/2/2 92/2/2 93/2/2
f 93/2/2 92/2/2 94/2/2
f 99/2/3 98/2/3 97/2/3
f 100/2/3 98/2/3 99/2/3
f 103/2/3 96/2/3 95/2/3
f 104/2/3 96/2/3 103/2/3
f 105/2/3 102/2/3 101/2/3
f 106/2/3 102/2/3 105/2/3
f 109/1/3 108/1/3 107/1/3
f 111/1/3 109/1/3 107/1/3
f 111/1/3 110/1/3 109/1/3
f 112/1/3 110/1/3 111/1/3
f 113/1/3 111/1/3 107/1/3
f 114/1/3 111/1/3 113/1/3
f 117/2/3 116/2/3 115/2/3
f 118/2/3 116/2/3 117/2/3
f 121/2/3 120/2/3 119/2/3
f 122/2/3 120/2/3 121/2/3
f 123/2/4 124/2/4 125/2/4
f 125/2/4 124/2/4 126/2/4
f 127/2/4 128/2/4 129/2/4
f 129/2/4 128/2/4 130/2/4
f 131/1/4 132/1/4 137/1/4
f 132/1/4 133/1/4 137/1/4
f 133/1/4 134/1/4 137/1/4
f 137/1/4 134/1/4 138/1/4
f 135/1/4 136/1/4 140/1/4
f 140/1/4 136/1/4 141/1/4
f 139/1/4 140/1/4 142/1/4
f 140/1/4 141/1/4 142/1/4
f 142/1/4 141/1/4 143/1/4
f 143/1/4 141/1/4 144/1/4
f 145/1/4 146/1/4 147/1/4
f 147/1/4 146/1/4 148/1/4
f 148/1/4 146/1/4 149/1/4
f 149/1/4 146/1/4 150/1/4
f 143/1/4 144/1/4 151/1/4
f 151/1/4 144/1/4 152/1/4
f 153/2/4 154/2/4 157/2/4
f 157/2/4 154/2/4 158/2/4
f 155/2/4 156/2/4 159/2/4
f 159/2/4 156/2/4 160/2/4
f 160/2/4 156/2/4 161/2/4
f 161/2/4 156/2/4 162/2/4
f 153/2/4 157/2/4 163/2/4
f 160/2/4 161/2/4 164/2/4
f 153/2/4 163/2/4 165/2/4
f 163/2/4 164/2/4 165/2/4
f 164/2/4 161/2/4 166/2/4
f 165/2/4 164/2/4 166/2/4
f 162/2/4 156/2/4 167/2/4
f 167/2/4 156/2/4 168/2/4
f 153/2/4 165/2/4 169/2/4
f 169/2/4 170/2/4 173/2/4
f 173/2/4 170/2/4 174/2/4
f 169/2/4 173/2/4 175/2/4
f 174/2/4 170/2/4 178/2/4
f 178/2/4 170/2/4 179/2/4
f 171/2/4 172/2/4 180/2/4
f 153/2/4 169/2/4 181/2/4
f 175/2/4 176/2/4 181/2/4
f 169/2/4 175/2/4 181/2/4
f 181/2/4 176/2/4 182/2/4
f 179/2/4 180/2/4 183/2/4
f 178/2/4 179/2/4 183/2/4
f 177/2/4 178/2/4 183/2/4
f 180/2/4 172/2/4 184/2/4
f 183/2/4 180/2/4 184/2/4
f 187/2/5 186/2/5 185/2/5
f 188/2/5 186/2/5 187/2/5
f 189/2/5 187/2/5 185/2/5
f 189/1/5 188/1/5 187/1/5
f 190/2/5 186/2/5 188/2/5
f 190/1/5 188/1/5 189/1/5
f 191/2/5 189/2/5 185/2/5
f 191/2/5 190/2/5 189/2/5
f 192/2/5 186/2/5 190/2/5
f 192/2/5 190/2/5 191/2/5
f 197/2/5 194/2/5 193/2/5
f 198/2/5 194/2/5 197/2/5
f 199/2/5 196/2/5 195/2/5
f 200/2/5 196/2/5 199/2/5
f 201/2/5 197/2/5 193/2/5
f 202/2/5 196/2/5 200/2/5
f 203/2/5 201/2/5 193/2/5
f 204/2/5 201/2/5 203/2/5
f 205/2/5 196/2/5 202/2/5
f 206/2/5 196/2/5 205/2/5
f 211/2/5 208/2/5 207/2/5
f 212/2/5 208/2/5 211/2/5
f 213/2/5 210/2/5 209/2/5
f 214/2/5 210/2/5 213/2/5
f 219/2/5 216/2/5 215/2/5
f 220/2/5 216/2/5 219/2/5
f 221/2/5 218/2/5 217/2/5
f 222/2/5 218/2/5 221/2/5
f 223/2/6 224/2/6 225/2/6
f 225/2/6 224/2/6 226/2/6
f 227/2/6 228/2/6 231/2/6
f 231/2/6 228/2/6 232/2/6
f 229/2/6 230/2/6 233/2/6
f 233/2/6 230/2/6 234/2/6
f 235/2/6 236/2/6 237/2/6
f 237/2/6 236/2/6 238/2/6
f 235/2/6 237/2/6 239/2/6
f 238/2/6 236/2/6 240/2/6
f 235/2/6 239/2/6 241/2/6
f 241/2/6 239/2/6 242/2/6
f 240/2/6 236/2/6 243/2/6
f 243/2/6 236/2/6 244/2/6
f 245/2/6 246/2/6 249/2/6
f 249/2/6 246/2/6 250/2/6
f 247/2/6 248/2/6 251/2/6
f 251/2/6 248/2/6 252/2/6
f 253/1/6 254/1/6 256/1/6
f 256/1/6 254/1/6 257/1/6
f 255/1/6 256/1/6 259/1/6
f 257/1/6 258/1/6 259/1/6
f 256/1/6 257/1/6 259/1/6
f 259/1/6 258/1/6 260/1/6
f 260/1/6 258/1/6 261/1/6
f 261/1/6 258/1/6 262/1/6
f 260/1/6 261/1/6 263/1/6
f 263/1/6 261/1/6 264/1/6
f 265/2/6 266/2/6 269/2/6
f 269/2/6 266/2/6 270/2/6
f 267/2/6 268/2/6 271/2/6
f 271/2/6 268/2/6 272/2/6
f 265/2/6 269/2/6 273/2/6
f 272/2/6 268/2/6 276/2/6
f 273/2/6 274/2/6 277/2/6
f 265/2/6 273/2/6 277/2/6
f 277/2/6 274/2/6 278/2/6
f 275/2/6 276/2/6 279/2/6
f 276/2/6 268/2/6 280/2/6
f 279/2/6 276/2/6 280/2/6
