# MagicaVoxel @ Ephtracy

# group
o 

# material
mtllib VerySmallArmorKit_LOD1.mtl
usemtl palette

# normals
vn 1 0 0
vn -1 0 0
vn 0 0 -1
vn 0 0 1
vn 0 -1 0
vn 0 1 0

# texcoords
vt 0.970703 0.5
vt 0.974609 0.5
vt 0.978516 0.5

# verts
v 0.2 -0.2 -0.1
v 0.2 -0.2 0.2
v 0.2 0.5 -0.1
v 0.2 0.5 0.2
v -0.3 -0.2 -0.1
v -0.3 -0.2 0.2
v -0.3 0.5 -0.1
v -0.3 0.5 0.2
v 0.2 -0.2 -0.1
v 0.2 0.5 -0.1
v -0.3 -0.2 -0.1
v -0.3 0.5 -0.1
v 0.2 -0.2 0.2
v 0.2 0.5 0.2
v 0 0 0.2
v 0 0.3 0.2
v -0.1 0 0.2
v -0.1 0.3 0.2
v -0.3 -0.2 0.2
v -0.3 0.5 0.2
v 0.2 -0.2 -0.1
v -0.3 -0.2 -0.1
v 0.2 -0.2 0.2
v -0.3 -0.2 0.2
v 0.2 0.5 -0.1
v -0.3 0.5 -0.1
v 0.2 0.5 0.2
v -0.3 0.5 0.2

# faces
f 3/2/1 2/2/1 1/2/1
f 4/2/1 2/2/1 3/2/1
f 5/2/2 6/2/2 7/2/2
f 7/2/2 6/2/2 8/2/2
f 11/2/3 10/2/3 9/2/3
f 12/2/3 10/2/3 11/2/3
f 13/2/4 14/2/4 15/2/4
f 15/2/4 14/2/4 16/2/4
f 13/2/4 15/2/4 17/2/4
f 15/1/4 16/1/4 17/1/4
f 16/2/4 14/2/4 18/2/4
f 17/1/4 16/1/4 18/1/4
f 13/2/4 17/2/4 19/2/4
f 17/2/4 18/2/4 19/2/4
f 18/2/4 14/2/4 20/2/4
f 19/2/4 18/2/4 20/2/4
f 23/2/5 22/2/5 21/2/5
f 24/2/5 22/2/5 23/2/5
f 25/2/6 26/2/6 27/2/6
f 27/2/6 26/2/6 28/2/6
