# MagicaVoxel @ Ephtracy

# group
o 

# material
mtllib HomingPlasmaBot_LOD0-0.mtl
usemtl palette

# normals
vn -1 0 0
vn 1 0 0
vn 0 0 1
vn 0 0 -1
vn 0 -1 0
vn 0 1 0

# texcoords
vt 0.970703 0.5
vt 0.974609 0.5
vt 0.978516 0.5

# verts
v 0.3 1.4 -1.1
v 0.3 1.4 -1.2
v 0.3 1.5 -0.9
v 0.3 1.5 -1.1
v 0.3 1.5 -1.2
v 0.3 1.6 -1.1
v 0.3 1.6 -1.2
v 0.3 1.7 -0.8
v 0.3 1.7 -0.9
v 0.3 1.7 -1
v 0.3 1.7 -1.1
v 0.3 1.9 -1
v 0.3 1.9 -1.1
v 0.3 2 -0.8
v 0.3 2 -0.9
v 0.3 2.1 -0.9
v 0.3 2.1 -1
v 0.3 2.3 -0.8
v 0.3 2.3 -0.9
v 0.3 2.3 -1
v 0.4 1.4 -0.9
v 0.4 1.4 -1
v 0.4 1.4 -1.1
v 0.4 1.5 -0.8
v 0.4 1.5 -0.9
v 0.4 1.5 -1
v 0.4 1.5 -1.1
v 0.4 1.7 -0.8
v 0.4 1.7 -0.9
v 0.4 1.9 -1
v 0.4 1.9 -1.1
v 0.4 2.1 -1
v 0.4 2.1 -1.1
v 0.5 1.4 -0.8
v 0.5 1.4 -0.9
v 0.5 1.5 -0.8
v 0.5 1.5 -0.9
v 0.5 1.6 -1.1
v 0.5 1.6 -1.2
v 0.5 1.7 -1.1
v 0.5 1.7 -1.2
v 0.6 1.9 -1
v 0.6 1.9 -1.1
v 0.6 2 -0.9
v 0.6 2 -1
v 0.6 2.1 -1
v 0.6 2.1 -1.1
v 0.6 2.2 -0.9
v 0.6 2.2 -1
v 0.7 2.2 -0.9
v 0.7 2.2 -1
v 0.7 2.3 -0.9
v 0.7 2.3 -1
v 0.4 2.2 -0.9
v 0.4 2.2 -1
v 0.4 2.3 -0.9
v 0.4 2.3 -1
v 0.5 1.9 -1
v 0.5 1.9 -1.1
v 0.5 2 -0.9
v 0.5 2 -1
v 0.5 2.1 -1
v 0.5 2.1 -1.1
v 0.5 2.2 -0.9
v 0.5 2.2 -1
v 0.6 1.4 -0.8
v 0.6 1.4 -0.9
v 0.6 1.5 -0.8
v 0.6 1.5 -0.9
v 0.6 1.6 -1.1
v 0.6 1.6 -1.2
v 0.6 1.7 -1.1
v 0.6 1.7 -1.2
v 0.7 1.4 -0.9
v 0.7 1.4 -1
v 0.7 1.4 -1.1
v 0.7 1.5 -0.8
v 0.7 1.5 -0.9
v 0.7 1.5 -1
v 0.7 1.5 -1.1
v 0.7 1.7 -0.8
v 0.7 1.7 -0.9
v 0.7 1.9 -1
v 0.7 1.9 -1.1
v 0.7 2.1 -1
v 0.7 2.1 -1.1
v 0.8 1.4 -1.1
v 0.8 1.4 -1.2
v 0.8 1.5 -0.9
v 0.8 1.5 -1.1
v 0.8 1.5 -1.2
v 0.8 1.6 -1.1
v 0.8 1.6 -1.2
v 0.8 1.7 -0.8
v 0.8 1.7 -0.9
v 0.8 1.7 -1
v 0.8 1.7 -1.1
v 0.8 1.9 -1
v 0.8 1.9 -1.1
v 0.8 2 -0.8
v 0.8 2 -0.9
v 0.8 2.1 -0.9
v 0.8 2.1 -1
v 0.8 2.3 -0.8
v 0.8 2.3 -0.9
v 0.8 2.3 -1
v 0.3 1.7 -0.8
v 0.3 2 -0.8
v 0.3 2.3 -0.8
v 0.4 1.5 -0.8
v 0.4 1.7 -0.8
v 0.4 1.8 -0.8
v 0.4 2 -0.8
v 0.4 2.2 -0.8
v 0.5 1.4 -0.8
v 0.5 1.5 -0.8
v 0.5 1.6 -0.8
v 0.5 1.7 -0.8
v 0.5 1.8 -0.8
v 0.6 1.4 -0.8
v 0.6 1.5 -0.8
v 0.6 1.6 -0.8
v 0.6 1.7 -0.8
v 0.6 1.8 -0.8
v 0.7 1.5 -0.8
v 0.7 1.7 -0.8
v 0.7 1.8 -0.8
v 0.7 2 -0.8
v 0.7 2.2 -0.8
v 0.8 1.7 -0.8
v 0.8 2 -0.8
v 0.8 2.3 -0.8
v 0.3 1.5 -0.9
v 0.3 1.7 -0.9
v 0.4 1.4 -0.9
v 0.4 1.5 -0.9
v 0.4 1.7 -0.9
v 0.5 1.4 -0.9
v 0.5 1.5 -0.9
v 0.6 1.4 -0.9
v 0.6 1.5 -0.9
v 0.7 1.4 -0.9
v 0.7 1.5 -0.9
v 0.7 1.7 -0.9
v 0.8 1.5 -0.9
v 0.8 1.7 -0.9
v 0.3 1.4 -1.1
v 0.3 1.5 -1.1
v 0.4 1.4 -1.1
v 0.4 1.5 -1.1
v 0.7 1.4 -1.1
v 0.7 1.5 -1.1
v 0.8 1.4 -1.1
v 0.8 1.5 -1.1
v 0.4 2.2 -0.9
v 0.4 2.3 -0.9
v 0.5 2 -0.9
v 0.5 2.2 -0.9
v 0.6 2 -0.9
v 0.6 2.2 -0.9
v 0.7 2.2 -0.9
v 0.7 2.3 -0.9
v 0.3 1.9 -1
v 0.3 2.1 -1
v 0.3 2.3 -1
v 0.4 1.9 -1
v 0.4 2.1 -1
v 0.4 2.2 -1
v 0.4 2.3 -1
v 0.5 1.9 -1
v 0.5 2 -1
v 0.5 2.1 -1
v 0.5 2.2 -1
v 0.6 1.9 -1
v 0.6 2 -1
v 0.6 2.1 -1
v 0.6 2.2 -1
v 0.7 1.9 -1
v 0.7 2.1 -1
v 0.7 2.2 -1
v 0.7 2.3 -1
v 0.8 1.9 -1
v 0.8 2.1 -1
v 0.8 2.3 -1
v 0.3 1.6 -1.1
v 0.3 1.7 -1.1
v 0.3 1.9 -1.1
v 0.4 1.6 -1.1
v 0.4 1.7 -1.1
v 0.4 1.9 -1.1
v 0.4 2.1 -1.1
v 0.5 1.6 -1.1
v 0.5 1.7 -1.1
v 0.5 1.9 -1.1
v 0.5 2.1 -1.1
v 0.6 1.6 -1.1
v 0.6 1.7 -1.1
v 0.6 1.9 -1.1
v 0.6 2.1 -1.1
v 0.7 1.6 -1.1
v 0.7 1.7 -1.1
v 0.7 1.9 -1.1
v 0.7 2.1 -1.1
v 0.8 1.6 -1.1
v 0.8 1.7 -1.1
v 0.8 1.9 -1.1
v 0.3 1.4 -1.2
v 0.3 1.5 -1.2
v 0.3 1.6 -1.2
v 0.4 1.4 -1.2
v 0.4 1.5 -1.2
v 0.5 1.6 -1.2
v 0.5 1.7 -1.2
v 0.6 1.6 -1.2
v 0.6 1.7 -1.2
v 0.7 1.4 -1.2
v 0.7 1.5 -1.2
v 0.8 1.4 -1.2
v 0.8 1.5 -1.2
v 0.8 1.6 -1.2
v 0.5 1.4 -0.8
v 0.6 1.4 -0.8
v 0.4 1.4 -0.9
v 0.5 1.4 -0.9
v 0.6 1.4 -0.9
v 0.7 1.4 -0.9
v 0.4 1.4 -1
v 0.5 1.4 -1
v 0.6 1.4 -1
v 0.7 1.4 -1
v 0.3 1.4 -1.1
v 0.4 1.4 -1.1
v 0.7 1.4 -1.1
v 0.8 1.4 -1.1
v 0.3 1.4 -1.2
v 0.4 1.4 -1.2
v 0.7 1.4 -1.2
v 0.8 1.4 -1.2
v 0.4 1.5 -0.8
v 0.5 1.5 -0.8
v 0.6 1.5 -0.8
v 0.7 1.5 -0.8
v 0.3 1.5 -0.9
v 0.4 1.5 -0.9
v 0.5 1.5 -0.9
v 0.6 1.5 -0.9
v 0.7 1.5 -0.9
v 0.8 1.5 -0.9
v 0.4 1.5 -1
v 0.7 1.5 -1
v 0.3 1.5 -1.1
v 0.4 1.5 -1.1
v 0.7 1.5 -1.1
v 0.8 1.5 -1.1
v 0.3 1.7 -0.8
v 0.4 1.7 -0.8
v 0.7 1.7 -0.8
v 0.8 1.7 -0.8
v 0.3 1.7 -0.9
v 0.4 1.7 -0.9
v 0.7 1.7 -0.9
v 0.8 1.7 -0.9
v 0.3 1.6 -1.1
v 0.4 1.6 -1.1
v 0.5 1.6 -1.1
v 0.6 1.6 -1.1
v 0.7 1.6 -1.1
v 0.8 1.6 -1.1
v 0.3 1.6 -1.2
v 0.5 1.6 -1.2
v 0.6 1.6 -1.2
v 0.8 1.6 -1.2
v 0.5 1.7 -1.1
v 0.6 1.7 -1.1
v 0.5 1.7 -1.2
v 0.6 1.7 -1.2
v 0.3 1.9 -1
v 0.4 1.9 -1
v 0.5 1.9 -1
v 0.6 1.9 -1
v 0.7 1.9 -1
v 0.8 1.9 -1
v 0.3 1.9 -1.1
v 0.4 1.9 -1.1
v 0.5 1.9 -1.1
v 0.6 1.9 -1.1
v 0.7 1.9 -1.1
v 0.8 1.9 -1.1
v 0.5 2 -0.9
v 0.6 2 -0.9
v 0.5 2 -1
v 0.6 2 -1
v 0.4 2.1 -1
v 0.5 2.1 -1
v 0.6 2.1 -1
v 0.7 2.1 -1
v 0.4 2.1 -1.1
v 0.5 2.1 -1.1
v 0.6 2.1 -1.1
v 0.7 2.1 -1.1
v 0.4 2.2 -0.9
v 0.5 2.2 -0.9
v 0.6 2.2 -0.9
v 0.7 2.2 -0.9
v 0.4 2.2 -1
v 0.5 2.2 -1
v 0.6 2.2 -1
v 0.7 2.2 -1
v 0.3 2.3 -0.8
v 0.8 2.3 -0.8
v 0.3 2.3 -0.9
v 0.4 2.3 -0.9
v 0.7 2.3 -0.9
v 0.8 2.3 -0.9
v 0.3 2.3 -1
v 0.4 2.3 -1
v 0.7 2.3 -1
v 0.8 2.3 -1

# faces
f 4/3/1 2/3/1 1/3/1
f 5/3/1 2/3/1 4/3/1
f 6/3/1 4/3/1 3/3/1
f 6/1/1 5/1/1 4/1/1
f 7/1/1 5/1/1 6/1/1
f 9/3/1 6/3/1 3/3/1
f 10/3/1 6/3/1 9/3/1
f 11/3/1 6/3/1 10/3/1
f 12/3/1 10/3/1 9/3/1
f 12/1/1 11/1/1 10/1/1
f 13/1/1 11/1/1 12/1/1
f 14/1/1 9/1/1 8/1/1
f 15/3/1 12/3/1 9/3/1
f 15/1/1 9/1/1 14/1/1
f 16/3/1 15/3/1 14/3/1
f 16/3/1 12/3/1 15/3/1
f 17/3/1 12/3/1 16/3/1
f 18/3/1 16/3/1 14/3/1
f 19/1/1 17/1/1 16/1/1
f 19/3/1 16/3/1 18/3/1
f 20/1/1 17/1/1 19/1/1
f 25/3/1 22/3/1 21/3/1
f 26/1/1 23/1/1 22/1/1
f 26/3/1 22/3/1 25/3/1
f 27/1/1 23/1/1 26/1/1
f 28/1/1 25/1/1 24/1/1
f 29/1/1 25/1/1 28/1/1
f 32/2/1 31/2/1 30/2/1
f 33/2/1 31/2/1 32/2/1
f 36/1/1 35/1/1 34/1/1
f 37/1/1 35/1/1 36/1/1
f 40/2/1 39/2/1 38/2/1
f 41/2/1 39/2/1 40/2/1
f 45/2/1 43/2/1 42/2/1
f 46/2/1 43/2/1 45/2/1
f 46/2/1 45/2/1 44/2/1
f 47/2/1 43/2/1 46/2/1
f 48/2/1 46/2/1 44/2/1
f 49/2/1 46/2/1 48/2/1
f 52/1/1 51/1/1 50/1/1
f 53/1/1 51/1/1 52/1/1
f 54/1/2 55/1/2 56/1/2
f 56/1/2 55/1/2 57/1/2
f 58/2/2 59/2/2 61/2/2
f 61/2/2 59/2/2 62/2/2
f 60/2/2 61/2/2 62/2/2
f 62/2/2 59/2/2 63/2/2
f 60/2/2 62/2/2 64/2/2
f 64/2/2 62/2/2 65/2/2
f 66/1/2 67/1/2 68/1/2
f 68/1/2 67/1/2 69/1/2
f 70/2/2 71/2/2 72/2/2
f 72/2/2 71/2/2 73/2/2
f 74/3/2 75/3/2 78/3/2
f 75/1/2 76/1/2 79/1/2
f 78/3/2 75/3/2 79/3/2
f 79/1/2 76/1/2 80/1/2
f 77/1/2 78/1/2 81/1/2
f 81/1/2 78/1/2 82/1/2
f 83/2/2 84/2/2 85/2/2
f 85/2/2 84/2/2 86/2/2
f 87/3/2 88/3/2 90/3/2
f 90/3/2 88/3/2 91/3/2
f 89/3/2 90/3/2 92/3/2
f 90/1/2 91/1/2 92/1/2
f 92/1/2 91/1/2 93/1/2
f 89/3/2 92/3/2 95/3/2
f 95/3/2 92/3/2 96/3/2
f 96/3/2 92/3/2 97/3/2
f 95/3/2 96/3/2 98/3/2
f 96/1/2 97/1/2 98/1/2
f 98/1/2 97/1/2 99/1/2
f 94/1/2 95/1/2 100/1/2
f 95/3/2 98/3/2 101/3/2
f 100/1/2 95/1/2 101/1/2
f 100/3/2 101/3/2 102/3/2
f 101/3/2 98/3/2 102/3/2
f 102/3/2 98/3/2 103/3/2
f 100/3/2 102/3/2 104/3/2
f 102/1/2 103/1/2 105/1/2
f 104/3/2 102/3/2 105/3/2
f 105/1/2 103/1/2 106/1/2
f 111/1/3 108/1/3 107/1/3
f 112/1/3 108/1/3 111/1/3
f 113/3/3 109/3/3 108/3/3
f 113/1/3 108/1/3 112/1/3
f 114/3/3 109/3/3 113/3/3
f 116/1/3 111/1/3 110/1/3
f 117/1/3 111/1/3 116/1/3
f 118/3/3 112/3/3 111/3/3
f 118/1/3 111/1/3 117/1/3
f 119/2/3 113/2/3 112/2/3
f 119/3/3 112/3/3 118/3/3
f 119/2/3 114/2/3 113/2/3
f 120/1/3 117/1/3 116/1/3
f 120/1/3 116/1/3 115/1/3
f 121/1/3 117/1/3 120/1/3
f 122/2/3 118/2/3 117/2/3
f 122/1/3 117/1/3 121/1/3
f 122/2/3 119/2/3 118/2/3
f 123/2/3 119/2/3 122/2/3
f 124/2/3 114/2/3 119/2/3
f 124/2/3 119/2/3 123/2/3
f 125/1/3 123/1/3 122/1/3
f 125/1/3 122/1/3 121/1/3
f 126/3/3 124/3/3 123/3/3
f 126/1/3 123/1/3 125/1/3
f 127/2/3 114/2/3 124/2/3
f 127/3/3 124/3/3 126/3/3
f 128/2/3 114/2/3 127/2/3
f 129/3/3 109/3/3 114/3/3
f 129/2/3 114/2/3 128/2/3
f 130/1/3 128/1/3 127/1/3
f 130/1/3 127/1/3 126/1/3
f 131/3/3 129/3/3 128/3/3
f 131/1/3 128/1/3 130/1/3
f 132/3/3 109/3/3 129/3/3
f 132/3/3 129/3/3 131/3/3
f 136/3/3 134/3/3 133/3/3
f 137/3/3 134/3/3 136/3/3
f 138/3/3 136/3/3 135/3/3
f 139/3/3 136/3/3 138/3/3
f 142/3/3 141/3/3 140/3/3
f 143/3/3 141/3/3 142/3/3
f 145/3/3 144/3/3 143/3/3
f 146/3/3 144/3/3 145/3/3
f 149/3/3 148/3/3 147/3/3
f 150/3/3 148/3/3 149/3/3
f 153/3/3 152/3/3 151/3/3
f 154/3/3 152/3/3 153/3/3
f 155/3/4 156/3/4 158/3/4
f 157/2/4 158/2/4 159/2/4
f 158/3/4 156/3/4 160/3/4
f 159/2/4 158/2/4 160/2/4
f 160/3/4 156/3/4 161/3/4
f 161/3/4 156/3/4 162/3/4
f 163/3/4 164/3/4 166/3/4
f 164/1/4 165/1/4 167/1/4
f 166/3/4 164/3/4 167/3/4
f 167/1/4 165/1/4 168/1/4
f 168/1/4 165/1/4 169/1/4
f 167/2/4 168/2/4 172/2/4
f 172/2/4 168/2/4 173/2/4
f 170/2/4 171/2/4 174/2/4
f 174/2/4 171/2/4 175/2/4
f 176/2/4 177/2/4 179/2/4
f 179/2/4 177/2/4 180/2/4
f 178/3/4 179/3/4 182/3/4
f 179/1/4 180/1/4 183/1/4
f 182/3/4 179/3/4 183/3/4
f 180/1/4 181/1/4 183/1/4
f 183/1/4 181/1/4 184/1/4
f 185/3/4 186/3/4 188/3/4
f 186/1/4 187/1/4 189/1/4
f 188/3/4 186/3/4 189/3/4
f 189/1/4 187/1/4 190/1/4
f 188/2/4 189/2/4 192/2/4
f 190/2/4 191/2/4 192/2/4
f 189/2/4 190/2/4 192/2/4
f 192/2/4 191/2/4 193/2/4
f 193/2/4 191/2/4 194/2/4
f 194/2/4 191/2/4 195/2/4
f 193/2/4 194/2/4 197/2/4
f 197/2/4 194/2/4 198/2/4
f 196/2/4 197/2/4 200/2/4
f 198/2/4 199/2/4 200/2/4
f 197/2/4 198/2/4 200/2/4
f 200/2/4 199/2/4 201/2/4
f 201/2/4 199/2/4 202/2/4
f 202/2/4 199/2/4 203/2/4
f 200/3/4 201/3/4 204/3/4
f 201/1/4 202/1/4 205/1/4
f 204/3/4 201/3/4 205/3/4
f 205/1/4 202/1/4 206/1/4
f 207/3/4 208/3/4 210/3/4
f 208/1/4 209/1/4 211/1/4
f 210/3/4 208/3/4 211/3/4
f 210/1/4 211/1/4 212/1/4
f 211/1/4 209/1/4 212/1/4
f 210/1/4 212/1/4 214/1/4
f 212/2/4 213/2/4 214/2/4
f 214/2/4 213/2/4 215/2/4
f 210/1/4 214/1/4 216/1/4
f 216/1/4 214/1/4 217/1/4
f 216/3/4 217/3/4 218/3/4
f 217/1/4 214/1/4 219/1/4
f 218/3/4 217/3/4 219/3/4
f 219/1/4 214/1/4 220/1/4
f 224/1/5 222/1/5 221/1/5
f 225/1/5 222/1/5 224/1/5
f 227/3/5 224/3/5 223/3/5
f 228/1/5 225/1/5 224/1/5
f 228/3/5 224/3/5 227/3/5
f 229/3/5 226/3/5 225/3/5
f 229/1/5 225/1/5 228/1/5
f 230/3/5 226/3/5 229/3/5
f 232/1/5 228/1/5 227/1/5
f 232/1/5 229/1/5 228/1/5
f 232/1/5 230/1/5 229/1/5
f 233/1/5 230/1/5 232/1/5
f 235/3/5 232/3/5 231/3/5
f 236/1/5 233/1/5 232/1/5
f 236/3/5 232/3/5 235/3/5
f 237/3/5 234/3/5 233/3/5
f 237/1/5 233/1/5 236/1/5
f 238/3/5 234/3/5 237/3/5
f 244/1/5 240/1/5 239/1/5
f 245/1/5 240/1/5 244/1/5
f 246/1/5 242/1/5 241/1/5
f 247/1/5 242/1/5 246/1/5
f 249/3/5 244/3/5 243/3/5
f 250/3/5 248/3/5 247/3/5
f 251/3/5 249/3/5 243/3/5
f 252/3/5 249/3/5 251/3/5
f 253/3/5 248/3/5 250/3/5
f 254/3/5 248/3/5 253/3/5
f 259/1/5 256/1/5 255/1/5
f 260/1/5 256/1/5 259/1/5
f 261/1/5 258/1/5 257/1/5
f 262/1/5 258/1/5 261/1/5
f 263/1/6 264/1/6 269/1/6
f 264/1/6 265/1/6 269/1/6
f 269/1/6 265/1/6 270/1/6
f 267/1/6 268/1/6 271/1/6
f 266/1/6 267/1/6 271/1/6
f 271/1/6 268/1/6 272/1/6
f 273/2/6 274/2/6 275/2/6
f 275/2/6 274/2/6 276/2/6
f 277/1/6 278/1/6 283/1/6
f 283/1/6 278/1/6 284/1/6
f 279/2/6 280/2/6 285/2/6
f 285/2/6 280/2/6 286/2/6
f 281/1/6 282/1/6 287/1/6
f 287/1/6 282/1/6 288/1/6
f 289/2/6 290/2/6 291/2/6
f 291/2/6 290/2/6 292/2/6
f 293/2/6 294/2/6 297/2/6
f 297/2/6 294/2/6 298/2/6
f 295/2/6 296/2/6 299/2/6
f 299/2/6 296/2/6 300/2/6
f 301/2/6 302/2/6 305/2/6
f 305/2/6 302/2/6 306/2/6
f 303/2/6 304/2/6 307/2/6
f 307/2/6 304/2/6 308/2/6
f 309/3/6 310/3/6 311/3/6
f 311/3/6 310/3/6 312/3/6
f 312/3/6 310/3/6 313/3/6
f 313/3/6 310/3/6 314/3/6
f 311/1/6 312/1/6 315/1/6
f 315/1/6 312/1/6 316/1/6
f 313/1/6 314/1/6 317/1/6
f 317/1/6 314/1/6 318/1/6
