# Blender v2.93.5 OBJ File: 'FlowerS.blend'
# www.blender.org
mtllib FlowersWhite.mtl
o Plane.003
v 2.455440 1.681751 -1.299294
v 2.449943 -0.399150 -1.299899
v 2.456183 1.681751 -1.663842
v 2.441935 -0.399150 -1.665409
v 2.427911 0.600850 -1.277945
v 2.467066 0.600850 -1.633947
v 2.627155 1.681751 -1.431871
v 2.598730 -0.387934 -1.437768
v 2.274678 1.681751 -1.542366
v 2.270237 -0.399150 -1.501979
v 2.650321 0.600850 -1.460175
v 2.276045 0.600850 -1.487138
v 3.381629 1.907772 -0.189869
v 3.600283 1.907772 -2.177881
v 1.393618 1.907772 -0.408523
v 1.612271 1.907772 -2.396534
v 2.410323 1.605340 -0.505581
v 2.583577 1.605339 -2.080823
v 3.284571 1.605340 -1.206575
v 1.709329 1.605339 -1.379829
v 2.496950 1.798814 -1.293202
v -0.190209 1.534948 0.025078
v -0.190209 -0.545953 0.019548
v 0.172235 1.534948 -0.014038
v 0.172235 -0.545952 -0.028373
v -0.214440 0.454047 0.000048
v 0.143709 0.454047 0.000048
v -0.039654 1.534948 0.181270
v -0.036900 -0.534737 0.152370
v 0.031643 1.534948 -0.181174
v -0.008987 -0.545952 -0.181174
v -0.008987 0.454047 0.201202
v -0.023104 0.454047 -0.173778
v -1.191726 1.760970 1.067006
v 0.808274 1.760970 1.067006
v -1.191727 1.760970 -0.932994
v 0.808274 1.760970 -0.932994
v -0.984097 1.458537 0.067006
v 0.600644 1.458537 0.067006
v -0.191726 1.458537 0.859376
v -0.191726 1.458537 -0.725365
v -0.191726 1.652012 0.067006
v -0.323284 1.259056 -2.556963
v -0.318412 -0.821845 -2.559581
v -0.117285 1.259056 -2.256197
v -0.104658 -0.821845 -2.262981
v -0.312702 0.178155 -2.590155
v -0.143195 0.178155 -2.274659
v -0.389618 1.259056 -2.350415
v -0.362857 -0.810629 -2.361666
v -0.036595 1.259056 -2.459149
v -0.055824 -0.821845 -2.494940
v -0.392663 0.178155 -2.313966
v -0.069021 0.178155 -2.503876
v -1.715132 1.485078 -2.946076
v -0.768556 1.485077 -1.184261
v 0.046684 1.485078 -3.892652
v 0.993260 1.485078 -2.130837
v -0.735955 1.182645 -3.236462
v 0.014083 1.182645 -1.840451
v -1.058941 1.182645 -2.163437
v 0.337069 1.182645 -2.913476
v -0.360936 1.376120 -2.538456
vt 0.986148 0.059173
vt 0.986148 0.266876
vt 0.763880 0.266876
vt 0.763880 0.059173
vt 0.986669 0.115759
vt 0.986669 0.364959
vt 0.762291 0.364959
vt 0.762291 0.115759
vt 0.986148 0.059173
vt 0.986148 0.266876
vt 0.763880 0.266876
vt 0.763880 0.059173
vt 0.986669 0.115759
vt 0.986669 0.364959
vt 0.762291 0.364959
vt 0.762291 0.115759
vt 0.174727 0.798109
vt 0.347321 0.798109
vt 0.347321 0.987857
vt 0.174727 0.987857
vt 0.174727 0.608361
vt 0.347321 0.608361
vt 0.002134 0.608361
vt 0.002134 0.798109
vt 0.002134 0.987857
vt 0.986148 0.059173
vt 0.986148 0.266876
vt 0.763880 0.266876
vt 0.763880 0.059173
vt 0.986669 0.115759
vt 0.986669 0.364959
vt 0.762291 0.364959
vt 0.762291 0.115759
vt 0.986148 0.059173
vt 0.986148 0.266876
vt 0.763880 0.266876
vt 0.763880 0.059173
vt 0.986669 0.115759
vt 0.986669 0.364959
vt 0.762291 0.364959
vt 0.762291 0.115759
vt 0.174727 0.798109
vt 0.347321 0.798109
vt 0.347321 0.987857
vt 0.174727 0.987857
vt 0.174727 0.608361
vt 0.347321 0.608361
vt 0.002134 0.608361
vt 0.002134 0.798109
vt 0.002134 0.987857
vt 0.986148 0.059173
vt 0.986148 0.266876
vt 0.763880 0.266876
vt 0.763880 0.059173
vt 0.986669 0.115759
vt 0.986669 0.364959
vt 0.762291 0.364959
vt 0.762291 0.115759
vt 0.986148 0.059173
vt 0.986148 0.266876
vt 0.763880 0.266876
vt 0.763880 0.059173
vt 0.986669 0.115759
vt 0.986669 0.364959
vt 0.762291 0.364959
vt 0.762291 0.115759
vt 0.174727 0.798109
vt 0.347321 0.798109
vt 0.347321 0.987857
vt 0.174727 0.987857
vt 0.174727 0.608361
vt 0.347321 0.608361
vt 0.002134 0.608361
vt 0.002134 0.798109
vt 0.002134 0.987857
vn 0.9991 -0.0027 0.0431
vn 0.9985 -0.0064 0.0553
vn 0.1288 -0.0075 -0.9916
vn 0.1858 -0.0101 -0.9825
vn 0.0481 0.9970 0.0599
vn -0.0599 0.9970 0.0481
vn -0.0481 0.9970 -0.0599
vn 0.0599 0.9970 -0.0481
vn 0.0664 -0.0027 0.9978
vn 0.0542 -0.0064 0.9985
vn 0.9998 -0.0075 0.0196
vn 0.9970 -0.0101 0.0773
vn -0.0543 0.9970 0.0543
vn -0.0543 0.9970 -0.0543
vn 0.0543 0.9970 -0.0543
vn 0.0543 0.9970 0.0543
vn -0.8476 -0.0027 0.5307
vn -0.8539 -0.0064 0.5203
vn 0.4559 -0.0075 0.8900
vn 0.4037 -0.0101 0.9148
vn -0.0736 0.9970 -0.0221
vn 0.0221 0.9970 -0.0736
vn 0.0736 0.9970 0.0221
vn -0.0221 0.9970 0.0736
usemtl None
s off
f 5/1/1 2/2/1 4/3/1 6/4/1
f 1/5/2 5/6/2 6/7/2 3/8/2
f 11/9/3 8/10/3 10/11/3 12/12/3
f 7/13/4 11/14/4 12/15/4 9/16/4
f 21/17/5 18/18/5 16/19/5 20/20/5
f 19/21/6 14/22/6 18/18/6 21/17/6
f 13/23/7 19/21/7 21/17/7 17/24/7
f 17/24/8 21/17/8 20/20/8 15/25/8
f 26/26/9 23/27/9 25/28/9 27/29/9
f 22/30/10 26/31/10 27/32/10 24/33/10
f 32/34/11 29/35/11 31/36/11 33/37/11
f 28/38/12 32/39/12 33/40/12 30/41/12
f 42/42/13 39/43/13 37/44/13 41/45/13
f 40/46/14 35/47/14 39/43/14 42/42/14
f 34/48/15 40/46/15 42/42/15 38/49/15
f 38/49/16 42/42/16 41/45/16 36/50/16
f 47/51/17 44/52/17 46/53/17 48/54/17
f 43/55/18 47/56/18 48/57/18 45/58/18
f 53/59/19 50/60/19 52/61/19 54/62/19
f 49/63/20 53/64/20 54/65/20 51/66/20
f 63/67/21 60/68/21 58/69/21 62/70/21
f 61/71/22 56/72/22 60/68/22 63/67/22
f 55/73/23 61/71/23 63/67/23 59/74/23
f 59/74/24 63/67/24 62/70/24 57/75/24
