# Blender v2.93.5 OBJ File: 'FlowerS.blend'
# www.blender.org
mtllib FlowersPurple.mtl
o Plane.003
v 0.267256 1.771089 -1.651192
v 0.271260 -0.309812 -1.647378
v 0.045599 1.771089 -1.361772
v 0.055979 -0.309812 -1.351886
v 0.302092 0.690188 -1.651474
v 0.055074 0.690188 -1.392142
v 0.050320 1.771089 -1.649903
v 0.069347 -0.298596 -1.627977
v 0.263587 1.771089 -1.348298
v 0.291611 -0.309812 -1.377718
v 0.014736 0.690188 -1.641445
v 0.295992 0.690188 -1.393041
v 0.120855 1.979781 -2.978258
v -1.258559 1.979781 -1.530081
v 1.569032 1.979781 -1.598844
v 0.189618 1.979781 -0.150667
v 0.701740 1.677348 -2.138209
v -0.391267 1.677348 -0.990717
v -0.418510 1.677348 -2.110966
v 0.728983 1.677348 -1.017960
v 0.155237 1.870823 -1.564463
v -1.548577 1.528793 0.804445
v -1.548577 -0.552108 0.798915
v -1.186134 1.528793 0.765329
v -1.186134 -0.552108 0.750994
v -1.572809 0.447891 0.779415
v -1.214659 0.447892 0.779415
v -1.398022 1.528793 0.960637
v -1.395268 -0.540893 0.931737
v -1.326725 1.528793 0.598193
v -1.367356 -0.552108 0.598193
v -1.367355 0.447891 0.980569
v -1.381473 0.447892 0.605589
v -2.408518 1.737484 1.825739
v -0.408518 1.737484 1.825739
v -2.408517 1.737484 -0.174261
v -0.408518 1.737484 -0.174261
v -2.200888 1.435052 0.825739
v -0.616147 1.435052 0.825739
v -1.408518 1.435052 1.618109
v -1.408518 1.435052 0.033369
v -1.408518 1.628527 0.825739
v 1.339312 1.262531 1.320492
v 1.334092 -0.818370 1.322316
v 1.182791 1.262531 0.991255
v 1.169260 -0.818370 0.995985
v 1.323679 0.181630 1.351625
v 1.205501 0.181630 1.013535
v 1.437077 1.262531 1.126830
v 1.408887 -0.807154 1.133767
v 1.071407 1.262531 1.179122
v 1.084814 -0.818370 1.217477
v 1.445774 0.181630 1.091304
v 1.096454 0.181630 1.228363
v 2.587159 1.471223 1.795272
v 1.927220 1.471223 -0.092711
v 0.699176 1.471223 2.455211
v 0.039237 1.471223 0.567228
v 1.574656 1.168791 1.929241
v 1.051740 1.168790 0.433259
v 2.061189 1.168790 0.919792
v 0.565207 1.168790 1.442708
v 1.313198 1.362265 1.181250
vt 0.987760 0.153807
vt 0.987760 0.327899
vt 0.763695 0.327899
vt 0.763695 0.153807
vt 0.988286 0.201236
vt 0.988286 0.410111
vt 0.762094 0.410111
vt 0.762094 0.201236
vt 0.987760 0.153807
vt 0.987760 0.327899
vt 0.763695 0.327899
vt 0.763695 0.153807
vt 0.988286 0.201236
vt 0.988286 0.410111
vt 0.762094 0.410111
vt 0.762094 0.201236
vt 0.551992 0.824576
vt 0.741444 0.824576
vt 0.741444 0.997754
vt 0.551992 0.997754
vt 0.551992 0.651398
vt 0.741444 0.651398
vt 0.362539 0.651398
vt 0.362539 0.824576
vt 0.362539 0.997754
vt 0.987760 0.153807
vt 0.987760 0.327899
vt 0.763695 0.327899
vt 0.763695 0.153807
vt 0.988286 0.201236
vt 0.988286 0.410111
vt 0.762094 0.410111
vt 0.762094 0.201236
vt 0.987760 0.153807
vt 0.987760 0.327899
vt 0.763695 0.327899
vt 0.763695 0.153807
vt 0.988286 0.201236
vt 0.988286 0.410111
vt 0.762094 0.410111
vt 0.762094 0.201236
vt 0.551992 0.824576
vt 0.741444 0.824576
vt 0.741444 0.997754
vt 0.551992 0.997754
vt 0.551992 0.651398
vt 0.741444 0.651398
vt 0.362539 0.651398
vt 0.362539 0.824576
vt 0.362539 0.997754
vt 0.987760 0.153807
vt 0.987760 0.327899
vt 0.763695 0.327899
vt 0.763695 0.153807
vt 0.988286 0.201236
vt 0.988286 0.410111
vt 0.762094 0.410111
vt 0.762094 0.201236
vt 0.987760 0.153807
vt 0.987760 0.327899
vt 0.763695 0.327899
vt 0.763695 0.153807
vt 0.988286 0.201236
vt 0.988286 0.410111
vt 0.762094 0.410111
vt 0.762094 0.201236
vt 0.551992 0.824576
vt 0.741444 0.824576
vt 0.741444 0.997754
vt 0.551992 0.997754
vt 0.551992 0.651398
vt 0.741444 0.651398
vt 0.362539 0.651398
vt 0.362539 0.824576
vt 0.362539 0.997754
vn -0.7683 -0.0027 -0.6401
vn -0.7604 -0.0064 -0.6494
vn -0.7037 -0.0075 0.7104
vn -0.7436 -0.0101 0.6686
vn -0.0019 0.9970 -0.0768
vn 0.0768 0.9970 -0.0019
vn 0.0019 0.9970 0.0768
vn -0.0768 0.9970 0.0019
vn 0.0664 -0.0027 0.9978
vn 0.0542 -0.0064 0.9985
vn 0.9998 -0.0075 0.0196
vn 0.9970 -0.0101 0.0773
vn -0.0543 0.9970 0.0543
vn -0.0543 0.9970 -0.0543
vn 0.0543 0.9970 -0.0543
vn 0.0543 0.9970 0.0543
vn 0.9200 -0.0027 -0.3919
vn 0.9247 -0.0064 -0.3806
vn -0.3114 -0.0075 -0.9502
vn -0.2560 -0.0101 -0.9666
vn 0.0692 0.9970 0.0334
vn -0.0334 0.9970 0.0692
vn -0.0692 0.9970 -0.0334
vn 0.0334 0.9970 -0.0692
usemtl None
s off
f 5/1/1 2/2/1 4/3/1 6/4/1
f 1/5/2 5/6/2 6/7/2 3/8/2
f 11/9/3 8/10/3 10/11/3 12/12/3
f 7/13/4 11/14/4 12/15/4 9/16/4
f 21/17/5 18/18/5 16/19/5 20/20/5
f 19/21/6 14/22/6 18/18/6 21/17/6
f 13/23/7 19/21/7 21/17/7 17/24/7
f 17/24/8 21/17/8 20/20/8 15/25/8
f 26/26/9 23/27/9 25/28/9 27/29/9
f 22/30/10 26/31/10 27/32/10 24/33/10
f 32/34/11 29/35/11 31/36/11 33/37/11
f 28/38/12 32/39/12 33/40/12 30/41/12
f 42/42/13 39/43/13 37/44/13 41/45/13
f 40/46/14 35/47/14 39/43/14 42/42/14
f 34/48/15 40/46/15 42/42/15 38/49/15
f 38/49/16 42/42/16 41/45/16 36/50/16
f 47/51/17 44/52/17 46/53/17 48/54/17
f 43/55/18 47/56/18 48/57/18 45/58/18
f 53/59/19 50/60/19 52/61/19 54/62/19
f 49/63/20 53/64/20 54/65/20 51/66/20
f 63/67/21 60/68/21 58/69/21 62/70/21
f 61/71/22 56/72/22 60/68/22 63/67/22
f 55/73/23 61/71/23 63/67/23 59/74/23
f 59/74/24 63/67/24 62/70/24 57/75/24
