# MagicaVoxel @ Ephtracy

# group
o 

# material
mtllib Mini-Bot_Shooter_LOD2-1.mtl
usemtl palette

# normals
vn 1 0 0
vn -1 0 0
vn 0 0 -1
vn 0 0 1
vn 0 -1 0
vn 0 1 0

# texcoords
vt 0.970703 0.5
vt 0.974609 0.5
vt 0.978516 0.5

# verts
v 0.5 1.2 -0.5
v 0.5 1.2 -0.1
v 0.5 1.2 0.1
v 0.5 1.2 0.5
v 0.5 1.4 -0.1
v 0.5 1.4 0.1
v 0.5 1.7 -0.1
v 0.5 1.7 0.1
v 0.5 1.8 -0.1
v 0.5 1.8 0.1
v 0.5 2.2 -0.5
v 0.5 2.2 0.5
v -0.5 1.2 -0.5
v -0.5 1.2 -0.1
v -0.5 1.2 0.1
v -0.5 1.2 0.5
v -0.5 1.4 -0.1
v -0.5 1.4 0.1
v -0.5 1.6 -0.1
v -0.5 1.6 0.1
v -0.5 1.8 -0.1
v -0.5 1.8 0.1
v -0.5 2.2 -0.5
v -0.5 2.2 0.5
v 0.5 1.2 -0.5
v 0.5 2.2 -0.5
v 0.3 1.2 -0.5
v 0.3 1.4 -0.5
v 0.1 1.4 -0.5
v 0.1 2.2 -0.5
v -0.1 1.4 -0.5
v -0.1 2.2 -0.5
v -0.3 1.2 -0.5
v -0.3 1.4 -0.5
v -0.5 1.2 -0.5
v -0.5 2.2 -0.5
v 0.5 1.2 0.5
v 0.5 2.2 0.5
v 0.3 1.6 0.5
v 0.3 1.7 0.5
v 0.3 1.9 0.5
v 0.3 2.1 0.5
v 0.2 1.8 0.5
v 0.2 1.9 0.5
v 0.2 2 0.5
v 0.2 2.1 0.5
v 0.1 1.2 0.5
v 0.1 1.4 0.5
v 0.1 1.7 0.5
v 0.1 1.8 0.5
v 0.1 1.9 0.5
v 0.1 2 0.5
v -0.1 1.2 0.5
v -0.1 1.4 0.5
v -0.1 1.7 0.5
v -0.1 1.8 0.5
v -0.1 1.9 0.5
v -0.1 2 0.5
v -0.2 1.8 0.5
v -0.2 1.9 0.5
v -0.2 2 0.5
v -0.2 2.1 0.5
v -0.3 1.6 0.5
v -0.3 1.7 0.5
v -0.3 1.9 0.5
v -0.3 2.1 0.5
v -0.5 1.2 0.5
v -0.5 2.2 0.5
v 0.5 1.2 -0.5
v 0.3 1.2 -0.5
v -0.3 1.2 -0.5
v -0.5 1.2 -0.5
v 0.3 1.2 -0.4
v 0.1 1.2 -0.4
v -0.1 1.2 -0.4
v -0.3 1.2 -0.4
v 0.3 1.2 -0.3
v 0.1 1.2 -0.3
v -0.1 1.2 -0.3
v -0.3 1.2 -0.3
v 0.5 1.2 -0.1
v 0.3 1.2 -0.1
v -0.3 1.2 -0.1
v -0.5 1.2 -0.1
v 0.5 1.2 0.1
v 0.3 1.2 0.1
v -0.3 1.2 0.1
v -0.5 1.2 0.1
v 0.3 1.2 0.3
v 0.1 1.2 0.3
v -0.1 1.2 0.3
v -0.3 1.2 0.3
v 0.5 1.2 0.5
v 0.1 1.2 0.5
v -0.1 1.2 0.5
v -0.5 1.2 0.5
v 0.5 2.2 -0.5
v 0.1 2.2 -0.5
v -0.1 2.2 -0.5
v -0.5 2.2 -0.5
v 0.1 2.2 0.2
v -0.1 2.2 0.2
v 0.5 2.2 0.5
v -0.5 2.2 0.5

# faces
f 5/3/1 2/3/1 1/3/1
f 5/2/1 3/2/1 2/2/1
f 6/3/1 4/3/1 3/3/1
f 6/2/1 3/2/1 5/2/1
f 7/3/1 5/3/1 1/3/1
f 7/3/1 6/3/1 5/3/1
f 8/3/1 4/3/1 6/3/1
f 8/3/1 6/3/1 7/3/1
f 9/3/1 7/3/1 1/3/1
f 9/2/1 8/2/1 7/2/1
f 10/3/1 4/3/1 8/3/1
f 10/2/1 8/2/1 9/2/1
f 11/3/1 9/3/1 1/3/1
f 11/3/1 10/3/1 9/3/1
f 12/3/1 4/3/1 10/3/1
f 12/3/1 10/3/1 11/3/1
f 13/3/2 14/3/2 17/3/2
f 14/2/2 15/2/2 17/2/2
f 15/3/2 16/3/2 18/3/2
f 17/2/2 15/2/2 18/2/2
f 13/3/2 17/3/2 19/3/2
f 17/3/2 18/3/2 19/3/2
f 18/3/2 16/3/2 20/3/2
f 19/3/2 18/3/2 20/3/2
f 13/3/2 19/3/2 21/3/2
f 19/2/2 20/2/2 21/2/2
f 20/3/2 16/3/2 22/3/2
f 21/2/2 20/2/2 22/2/2
f 13/3/2 21/3/2 23/3/2
f 21/3/2 22/3/2 23/3/2
f 22/3/2 16/3/2 24/3/2
f 23/3/2 22/3/2 24/3/2
f 27/3/3 26/3/3 25/3/3
f 28/3/3 26/3/3 27/3/3
f 29/2/3 28/2/3 27/2/3
f 29/3/3 26/3/3 28/3/3
f 30/3/3 26/3/3 29/3/3
f 31/2/3 29/2/3 27/2/3
f 31/2/3 30/2/3 29/2/3
f 32/2/3 30/2/3 31/2/3
f 33/2/3 31/2/3 27/2/3
f 34/3/3 32/3/3 31/3/3
f 34/2/3 31/2/3 33/2/3
f 35/3/3 34/3/3 33/3/3
f 36/3/3 32/3/3 34/3/3
f 36/3/3 34/3/3 35/3/3
f 37/3/4 38/3/4 39/3/4
f 39/3/4 38/3/4 40/3/4
f 40/3/4 38/3/4 41/3/4
f 41/3/4 38/3/4 42/3/4
f 40/3/4 41/3/4 43/3/4
f 41/2/4 42/2/4 44/2/4
f 43/3/4 41/3/4 44/3/4
f 44/2/4 42/2/4 45/2/4
f 42/3/4 38/3/4 46/3/4
f 45/2/4 42/2/4 46/2/4
f 37/3/4 39/3/4 47/3/4
f 47/3/4 39/3/4 48/3/4
f 39/2/4 40/2/4 49/2/4
f 40/3/4 43/3/4 49/3/4
f 44/2/4 45/2/4 50/2/4
f 49/3/4 43/3/4 50/3/4
f 43/2/4 44/2/4 50/2/4
f 50/2/4 45/2/4 51/2/4
f 45/3/4 46/3/4 52/3/4
f 51/2/4 45/2/4 52/2/4
f 47/2/4 48/2/4 53/2/4
f 48/3/4 39/3/4 54/3/4
f 53/2/4 48/2/4 54/2/4
f 39/2/4 49/2/4 55/2/4
f 50/2/4 51/2/4 55/2/4
f 49/2/4 50/2/4 55/2/4
f 55/2/4 51/2/4 56/2/4
f 51/3/4 52/3/4 57/3/4
f 56/2/4 51/2/4 57/2/4
f 52/3/4 46/3/4 58/3/4
f 57/3/4 52/3/4 58/3/4
f 56/2/4 57/2/4 59/2/4
f 55/3/4 56/3/4 59/3/4
f 57/2/4 58/2/4 59/2/4
f 59/2/4 58/2/4 60/2/4
f 58/3/4 46/3/4 61/3/4
f 60/2/4 58/2/4 61/2/4
f 46/3/4 38/3/4 62/3/4
f 61/3/4 46/3/4 62/3/4
f 54/3/4 39/3/4 63/3/4
f 53/3/4 54/3/4 63/3/4
f 39/2/4 55/2/4 63/2/4
f 59/3/4 60/3/4 64/3/4
f 63/2/4 55/2/4 64/2/4
f 55/3/4 59/3/4 64/3/4
f 60/2/4 61/2/4 65/2/4
f 64/3/4 60/3/4 65/3/4
f 61/2/4 62/2/4 65/2/4
f 62/3/4 38/3/4 66/3/4
f 65/2/4 62/2/4 66/2/4
f 63/3/4 64/3/4 67/3/4
f 64/3/4 65/3/4 67/3/4
f 65/3/4 66/3/4 67/3/4
f 53/3/4 63/3/4 67/3/4
f 66/3/4 38/3/4 68/3/4
f 67/3/4 66/3/4 68/3/4
f 73/3/5 70/3/5 69/3/5
f 73/2/5 71/2/5 70/2/5
f 74/2/5 71/2/5 73/2/5
f 75/2/5 71/2/5 74/2/5
f 76/3/5 72/3/5 71/3/5
f 76/2/5 71/2/5 75/2/5
f 77/3/5 73/3/5 69/3/5
f 77/3/5 74/3/5 73/3/5
f 78/2/5 75/2/5 74/2/5
f 78/3/5 74/3/5 77/3/5
f 79/3/5 76/3/5 75/3/5
f 79/2/5 75/2/5 78/2/5
f 80/3/5 72/3/5 76/3/5
f 80/3/5 76/3/5 79/3/5
f 81/3/5 77/3/5 69/3/5
f 82/2/5 79/2/5 78/2/5
f 82/3/5 77/3/5 81/3/5
f 82/2/5 78/2/5 77/2/5
f 82/2/5 80/2/5 79/2/5
f 83/3/5 72/3/5 80/3/5
f 83/2/5 80/2/5 82/2/5
f 84/3/5 72/3/5 83/3/5
f 85/2/5 82/2/5 81/2/5
f 85/2/5 83/2/5 82/2/5
f 85/2/5 84/2/5 83/2/5
f 86/2/5 84/2/5 85/2/5
f 87/2/5 84/2/5 86/2/5
f 88/2/5 84/2/5 87/2/5
f 89/3/5 86/3/5 85/3/5
f 89/2/5 87/2/5 86/2/5
f 90/2/5 87/2/5 89/2/5
f 91/2/5 87/2/5 90/2/5
f 92/3/5 88/3/5 87/3/5
f 92/2/5 87/2/5 91/2/5
f 93/3/5 89/3/5 85/3/5
f 93/3/5 90/3/5 89/3/5
f 94/2/5 91/2/5 90/2/5
f 94/3/5 90/3/5 93/3/5
f 95/3/5 92/3/5 91/3/5
f 95/2/5 91/2/5 94/2/5
f 96/3/5 88/3/5 92/3/5
f 96/3/5 92/3/5 95/3/5
f 97/3/6 98/3/6 101/3/6
f 98/2/6 99/2/6 101/2/6
f 99/3/6 100/3/6 102/3/6
f 101/2/6 99/2/6 102/2/6
f 97/3/6 101/3/6 103/3/6
f 101/3/6 102/3/6 103/3/6
f 102/3/6 100/3/6 104/3/6
f 103/3/6 102/3/6 104/3/6
