# Blender v2.93.5 OBJ File: 'LaserGunAmmo.blend'
# www.blender.org
mtllib LaserGunAmmo_LOD0.mtl
o Cube_Cube.001
v -0.472011 0.128587 0.469905
v -0.472011 1.072609 0.469905
v -0.472011 0.128587 -0.474117
v -0.472011 1.072609 -0.474117
v 0.472011 0.128587 0.469905
v 0.472011 1.072609 0.469905
v 0.472011 0.128587 -0.474117
v 0.472011 1.072609 -0.474117
v -0.191227 0.038701 0.025799
v -0.370566 0.600598 0.368460
v -0.191227 1.000701 0.025799
v -0.370566 0.600598 -0.372672
v 0.000000 0.118780 -0.489055
v 0.370566 0.600598 -0.372672
v 0.370566 0.600598 0.368460
v 0.000000 0.959000 -0.002106
v 0.000000 0.005858 -0.002106
v 0.000000 0.600598 0.469905
v 0.472011 0.600598 -0.002106
v 0.000000 0.600598 -0.491083
v -0.472011 0.600598 -0.002106
v -0.341786 0.099607 0.187391
v -0.441932 0.836604 0.439826
v -0.341786 1.059991 -0.154395
v -0.441932 0.364592 -0.444038
v -0.236006 0.126567 -0.474117
v 0.170893 1.057886 -0.325288
v 0.441932 0.364592 -0.444038
v 0.341786 0.094868 -0.154395
v 0.341786 1.063678 0.187391
v 0.441932 0.364592 0.439826
v 0.170893 0.101823 0.358284
v -0.170893 1.065268 0.358284
v -0.341786 0.094868 -0.154395
v -0.441932 0.364592 0.439826
v -0.341786 1.063678 0.187391
v -0.441932 0.836604 -0.444038
v 0.236006 0.126567 -0.474117
v -0.170893 1.057886 -0.325288
v 0.441932 0.836604 -0.444038
v 0.341786 0.099607 0.187391
v 0.341786 1.059991 -0.154395
v 0.441932 0.836604 0.439826
v -0.170893 0.101823 0.358284
v 0.170893 1.065268 0.358284
v 0.000000 1.009819 0.217026
v 0.000000 0.990450 -0.165427
v 0.191227 1.000701 0.025799
v 0.000000 0.046426 0.217026
v 0.000000 0.051408 -0.238112
v 0.191227 0.038701 0.025799
v -0.219161 0.600598 0.436217
v 0.219161 0.600598 0.436217
v 0.000000 0.346002 0.358284
v 0.000000 0.834155 0.358284
v 0.438323 0.600598 0.217055
v 0.438323 0.600598 -0.221267
v 0.341786 0.342287 0.016498
v 0.341786 0.832149 0.016498
v 0.219161 0.600598 -0.440429
v -0.219161 0.600598 -0.440429
v 0.000000 0.362573 -0.574151
v 0.000000 0.829512 -0.325288
v -0.438323 0.600598 -0.221267
v -0.438323 0.600598 0.217055
v -0.341786 0.342287 0.016498
v -0.341786 0.832149 0.016498
v -0.415721 0.836604 0.213417
v -0.415797 0.362293 0.213456
v -0.416397 0.361704 -0.202630
v -0.208086 0.836604 -0.410606
v -0.233749 0.364592 -0.487761
v 0.233749 0.364592 -0.487761
v 0.416384 0.836604 -0.202623
v 0.416397 0.361704 -0.202630
v 0.415797 0.362293 0.213456
v 0.208024 0.836604 0.421611
v 0.208046 0.362589 0.421655
v -0.208046 0.362589 0.421655
v 0.209035 0.068723 -0.203435
v -0.209035 0.068723 -0.203435
v -0.209035 0.072230 0.214635
v -0.209035 1.035035 -0.203435
v 0.209035 1.035035 -0.203435
v 0.209035 1.038716 0.214635
v -0.209035 1.038716 0.214635
v 0.209035 0.072230 0.214635
v -0.208024 0.836604 0.421611
v 0.415721 0.836604 0.213417
v 0.208086 0.836604 -0.410606
v -0.416384 0.836604 -0.202623
vt 0.845702 0.509585
vt 0.845700 0.510215
vt 0.845700 0.509581
vt 0.845721 0.508047
vt 0.845723 0.507423
vt 0.845723 0.508049
vt 0.845713 0.510849
vt 0.845715 0.510223
vt 0.845715 0.510850
vt 0.845713 0.508060
vt 0.845715 0.507426
vt 0.845715 0.508059
vt 0.974640 0.528518
vt 0.974639 0.528975
vt 0.974639 0.528591
vt 0.974636 0.531485
vt 0.974635 0.531029
vt 0.974636 0.531130
vt 0.974636 0.530013
vt 0.974636 0.530572
vt 0.974635 0.530115
vt 0.974639 0.530572
vt 0.974637 0.530060
vt 0.974639 0.530013
vt 0.970688 0.534792
vt 0.970689 0.534799
vt 0.970688 0.535176
vt 0.974636 0.527474
vt 0.974638 0.528013
vt 0.974636 0.528087
vt 0.974631 0.525813
vt 0.974633 0.525181
vt 0.974633 0.525807
vt 0.974628 0.525811
vt 0.974630 0.525172
vt 0.974630 0.525861
vt 0.970680 0.530139
vt 0.970682 0.530757
vt 0.970680 0.530745
vt 0.974632 0.528602
vt 0.974633 0.527960
vt 0.974633 0.528598
vt 0.974628 0.528607
vt 0.974630 0.527973
vt 0.974630 0.528649
vt 0.970680 0.532934
vt 0.970682 0.533541
vt 0.970680 0.533539
vt 0.974639 0.525804
vt 0.974640 0.525155
vt 0.974641 0.525795
vt 0.974636 0.525810
vt 0.974638 0.525178
vt 0.974638 0.525826
vt 0.970688 0.530136
vt 0.970689 0.530743
vt 0.970688 0.530739
vt 0.974621 0.524805
vt 0.974619 0.525427
vt 0.974619 0.524809
vt 0.974624 0.524822
vt 0.974622 0.525460
vt 0.974622 0.524747
vt 0.970676 0.532877
vt 0.970674 0.532254
vt 0.970676 0.532287
vt 0.970676 0.531662
vt 0.970674 0.531661
vt 0.974625 0.525454
vt 0.974624 0.526086
vt 0.974624 0.525461
vt 0.845708 0.510249
vt 0.845706 0.509600
vt 0.845707 0.509613
vt 0.970676 0.530307
vt 0.970674 0.530948
vt 0.970675 0.530110
vt 0.845708 0.507732
vt 0.845706 0.508335
vt 0.845706 0.507620
vt 0.974626 0.524841
vt 0.845702 0.508319
vt 0.845700 0.507698
vt 0.845703 0.507595
vt 0.970673 0.530282
vt 0.970689 0.531379
vt 0.970688 0.531374
vt 0.974635 0.525165
vt 0.974636 0.524539
vt 0.974636 0.525173
vt 0.845715 0.507436
vt 0.845717 0.508052
vt 0.845716 0.508061
vt 0.970688 0.532011
vt 0.970689 0.532664
vt 0.970688 0.532645
vt 0.845716 0.509320
vt 0.845717 0.509957
vt 0.845715 0.509955
vt 0.974634 0.525807
vt 0.845721 0.509951
vt 0.845723 0.509308
vt 0.845723 0.509943
vt 0.970691 0.532005
vt 0.970691 0.532638
vt 0.970682 0.534174
vt 0.970680 0.534172
vt 0.974627 0.527965
vt 0.974628 0.527338
vt 0.974628 0.527971
vt 0.845708 0.510229
vt 0.845710 0.510852
vt 0.845708 0.510856
vt 0.970680 0.535512
vt 0.970682 0.534850
vt 0.970682 0.535645
vt 0.845708 0.512751
vt 0.845710 0.512120
vt 0.845710 0.512825
vt 0.974626 0.528603
vt 0.845713 0.512116
vt 0.845715 0.512745
vt 0.845713 0.512810
vt 0.970683 0.535497
vt 0.970682 0.531373
vt 0.970680 0.531375
vt 0.974627 0.525179
vt 0.974628 0.524544
vt 0.974628 0.525174
vt 0.845708 0.507423
vt 0.845710 0.508058
vt 0.845708 0.508056
vt 0.970680 0.532714
vt 0.970682 0.532062
vt 0.970682 0.532873
vt 0.845708 0.509946
vt 0.845710 0.509325
vt 0.845710 0.510027
vt 0.974626 0.525804
vt 0.845713 0.509326
vt 0.845715 0.509949
vt 0.845713 0.510028
vt 0.970683 0.532715
vt 0.974639 0.527474
vt 0.974638 0.527382
vt 0.970691 0.532950
vt 0.970689 0.533582
vt 0.970689 0.532910
vt 0.974639 0.526749
vt 0.974640 0.527604
vt 0.970688 0.533675
vt 0.970688 0.534288
vt 0.970687 0.533805
vt 0.845717 0.510263
vt 0.845716 0.511118
vt 0.845715 0.510263
vt 0.974636 0.526749
vt 0.845716 0.512032
vt 0.845718 0.512489
vt 0.845715 0.512786
vt 0.970687 0.534719
vt 0.974638 0.528598
vt 0.974636 0.528591
vt 0.845721 0.514085
vt 0.845719 0.514597
vt 0.845719 0.514085
vt 0.974640 0.531029
vt 0.974639 0.531485
vt 0.974639 0.531130
vt 0.974639 0.529658
vt 0.845722 0.513628
vt 0.845720 0.513172
vt 0.845723 0.512823
vt 0.974640 0.530115
vt 0.845718 0.513172
vt 0.845716 0.513628
vt 0.845715 0.512823
vt 0.974636 0.529658
vt 0.845717 0.514085
vt 0.974639 0.528087
vt 0.974631 0.524546
vt 0.974632 0.525175
vt 0.970683 0.530747
vt 0.970683 0.531376
vt 0.970683 0.530140
vt 0.974632 0.527335
vt 0.974632 0.527968
vt 0.970683 0.534169
vt 0.970683 0.532922
vt 0.970683 0.533536
vt 0.974639 0.524533
vt 0.974639 0.525167
vt 0.970691 0.530734
vt 0.970691 0.531368
vt 0.970691 0.530131
vt 0.974621 0.526071
vt 0.974620 0.525445
vt 0.970673 0.532272
vt 0.970672 0.531646
vt 0.970673 0.532855
vt 0.845703 0.510168
vt 0.845720 0.507444
vt 0.845713 0.510235
vt 0.845713 0.507453
vt 0.845722 0.512032
vt 0.845723 0.512786
vt 0.845721 0.512489
vt 0.845718 0.514999
vt 0.845715 0.515347
vt 0.845716 0.514542
vt 0.845719 0.513574
vt 0.974637 0.531083
vt 0.970691 0.533675
vt 0.970692 0.533805
vt 0.970691 0.534288
vt 0.974623 0.527362
vt 0.974621 0.527177
vt 0.974623 0.526772
vt 0.974624 0.527369
vt 0.974623 0.527208
vt 0.974624 0.526772
vt 0.974618 0.526952
vt 0.974620 0.526772
vt 0.974620 0.527379
vt 0.974621 0.527418
vt 0.974620 0.527200
vt 0.974621 0.526772
vt 0.974626 0.526099
vt 0.845706 0.510190
vt 0.845704 0.508261
vt 0.845707 0.508355
vt 0.845700 0.508323
vt 0.974634 0.524547
vt 0.845718 0.507448
vt 0.974638 0.526464
vt 0.974636 0.526444
vt 0.845721 0.509318
vt 0.974626 0.527342
vt 0.845710 0.510247
vt 0.845712 0.512163
vt 0.845708 0.512117
vt 0.845715 0.512111
vt 0.974626 0.524542
vt 0.845710 0.507452
vt 0.974628 0.526513
vt 0.845708 0.509317
vt 0.845715 0.509320
vt 0.974631 0.526514
vt 0.845721 0.510263
vt 0.845723 0.510263
vt 0.845722 0.511118
vt 0.974635 0.527604
vt 0.970688 0.532950
vt 0.974635 0.528518
vt 0.974636 0.528975
vt 0.845722 0.514542
vt 0.845723 0.515347
vt 0.845720 0.514999
vt 0.970691 0.534792
vt 0.970691 0.535176
vt 0.970692 0.534719
vt 0.974633 0.524545
vt 0.974622 0.527399
vt 0.974622 0.527985
vt 0.974621 0.527985
vt 0.974633 0.527337
vt 0.974625 0.527418
vt 0.974624 0.526944
vt 0.974625 0.526772
vt 0.974641 0.524535
vt 0.974637 0.524542
vt 0.974637 0.524088
vt 0.974639 0.523930
vt 0.974619 0.526067
vt 0.974622 0.526053
vt 0.974623 0.526474
vt 0.974621 0.526654
vn -0.9881 -0.1126 0.1046
vn -0.1407 -0.1075 -0.9842
vn 0.9872 -0.1113 -0.1143
vn 0.0771 -0.1164 0.9902
vn 0.2456 -0.9345 0.2577
vn 0.2259 0.9454 -0.2347
vn -0.1362 0.9671 -0.2149
vn -0.1838 0.9741 0.1316
vn -0.1218 -0.9653 0.2312
vn -0.1842 -0.9763 -0.1135
vn 0.0769 0.2672 0.9606
vn -0.2398 -0.3898 0.8891
vn -0.2869 0.2121 0.9342
vn 0.9600 0.2560 -0.1134
vn 0.8698 -0.4199 0.2590
vn 0.9180 0.2380 0.3173
vn 0.1935 0.3371 -0.9214
vn -0.3271 0.3114 -0.8922
vn 0.3724 0.2787 -0.8852
vn -0.9603 0.2587 0.1047
vn -0.8507 -0.4486 -0.2741
vn -0.9034 0.2546 -0.3450
vn -0.8684 0.4776 0.1335
vn -0.9088 0.0933 0.4067
vn -0.9872 -0.1113 -0.1143
vn -0.7431 -0.3853 -0.5471
vn -0.8954 -0.2135 -0.3908
vn -0.9600 0.2560 -0.1134
vn -0.9158 -0.1923 0.3527
vn -0.7674 -0.3644 0.5276
vn -0.8698 -0.4199 0.2590
vn -0.2232 0.1325 -0.9657
vn -0.4048 0.1333 -0.9046
vn 0.1407 -0.1075 -0.9842
vn -0.0649 -0.0565 -0.9963
vn 0.0011 0.1263 -0.9920
vn -0.1935 0.3371 -0.9214
vn -0.0011 0.1263 -0.9920
vn 0.0649 -0.0565 -0.9963
vn 0.3271 0.3114 -0.8922
vn 0.9831 0.1033 -0.1511
vn 0.9066 0.1163 -0.4057
vn 0.9881 -0.1126 0.1046
vn 0.7674 -0.3644 0.5276
vn 0.9158 -0.1923 0.3527
vn 0.9603 0.2587 0.1047
vn 0.8954 -0.2135 -0.3908
vn 0.7431 -0.3853 -0.5471
vn 0.8507 -0.4486 -0.2741
vn 0.1516 0.0682 0.9861
vn 0.4073 0.0755 0.9102
vn -0.0771 -0.1164 0.9902
vn -0.5204 -0.3642 0.7724
vn -0.3280 -0.1787 0.9276
vn -0.0769 0.2672 0.9606
vn 0.3280 -0.1787 0.9276
vn 0.5204 -0.3642 0.7724
vn 0.2398 -0.3898 0.8891
vn 0.1121 -0.9757 -0.1883
vn 0.0482 -0.9647 -0.2590
vn 0.2530 -0.9509 -0.1780
vn -0.2306 -0.9670 -0.1087
vn -0.0085 -0.9948 -0.1014
vn -0.1133 -0.9739 -0.1968
vn -0.0611 -0.9954 0.0740
vn -0.2290 -0.9619 0.1492
vn -0.1227 -0.9791 0.1623
vn 0.2350 0.9545 0.1838
vn 0.2698 0.9276 0.2584
vn -0.2283 0.9653 0.1268
vn -0.0368 0.9990 0.0245
vn -0.1626 0.9593 0.2308
vn -0.0153 0.9996 -0.0246
vn -0.2162 0.9609 -0.1731
vn -0.1367 0.9735 -0.1831
vn 0.1766 0.9588 -0.2224
vn 0.1409 -0.9735 0.1802
vn -0.4073 0.0755 0.9102
vn -0.1516 0.0682 0.9861
vn 0.2869 0.2121 0.9342
vn 0.9088 0.0933 0.4067
vn 0.8684 0.4776 0.1335
vn 0.9034 0.2546 -0.3450
vn 0.4048 0.1333 -0.9046
vn 0.2232 0.1325 -0.9657
vn -0.3724 0.2787 -0.8852
vn -0.9066 0.1163 -0.4057
vn -0.9831 0.1033 -0.1511
vn -0.9180 0.2380 0.3173
vn -0.9004 0.2196 0.3754
vn -0.4382 0.2583 -0.8610
vn 0.8790 0.2389 -0.4127
vn 0.3449 0.1981 0.9175
vn 0.0611 -0.9954 0.0740
vn 0.0153 0.9996 -0.0246
vn -0.2350 0.9545 0.1838
vn 0.2283 0.9653 0.1268
vn -0.1121 -0.9757 -0.1883
vn 0.2306 -0.9670 -0.1087
vn -0.4073 -0.0747 0.9102
vn 0.1516 -0.0674 0.9861
vn -0.6465 0.4781 0.5945
vn 0.9089 -0.0921 0.4068
vn 0.9832 -0.1020 -0.1511
vn 0.5849 0.4867 0.6489
vn 0.3999 0.2039 -0.8936
vn -0.2204 0.2049 -0.9536
vn 0.6856 0.5130 -0.5165
vn -0.9067 -0.1149 -0.4058
vn -0.9839 -0.0953 0.1512
vn -0.5239 0.5058 -0.6853
vn -0.9323 0.0839 -0.3519
vn -0.9601 -0.2567 -0.1111
vn -0.8790 0.2389 -0.4127
vn -0.9190 -0.2270 -0.3223
vn -0.9871 0.1111 -0.1151
vn -0.9089 -0.0921 0.4068
vn -0.9880 0.1124 0.1058
vn -0.9317 -0.2065 0.2989
vn -0.9832 -0.1020 -0.1511
vn 0.3321 0.5533 -0.7639
vn 0.1371 -0.2485 -0.9589
vn 0.4382 0.2583 -0.8610
vn -0.3319 -0.3109 -0.8906
vn -0.2052 -0.0541 -0.9772
vn -0.3999 0.2039 -0.8936
vn 0.2052 -0.0541 -0.9772
vn 0.3319 -0.3109 -0.8906
vn 0.2204 0.2049 -0.9536
vn 0.8425 0.4501 0.2960
vn 0.9603 -0.2597 0.1016
vn 0.9004 0.2196 0.3754
vn 0.9317 -0.2065 0.2989
vn 0.9880 0.1124 0.1058
vn 0.9067 -0.1149 -0.4058
vn 0.9871 0.1111 -0.1151
vn 0.9190 -0.2270 -0.3223
vn 0.9839 -0.0953 0.1512
vn -0.2694 0.4153 0.8689
vn -0.0748 -0.2678 0.9606
vn -0.3449 0.1981 0.9175
vn -0.2721 -0.1905 0.9432
vn -0.0779 0.1163 0.9902
vn 0.4073 -0.0747 0.9102
vn 0.0779 0.1163 0.9902
vn 0.2721 -0.1905 0.9432
vn -0.1516 -0.0674 0.9861
vn 0.1842 -0.9763 -0.1135
vn 0.1133 -0.9739 -0.1968
vn 0.0085 -0.9948 -0.1014
vn -0.2530 -0.9509 -0.1780
vn -0.0482 -0.9647 -0.2590
vn -0.2456 -0.9345 0.2577
vn -0.1409 -0.9735 0.1802
vn 0.1838 0.9741 0.1316
vn 0.1626 0.9593 0.2308
vn 0.0368 0.9990 0.0245
vn -0.2698 0.9276 0.2584
vn -0.2259 0.9454 -0.2347
vn -0.1766 0.9588 -0.2224
vn 0.1362 0.9671 -0.2149
vn 0.1367 0.9735 -0.1831
vn 0.2162 0.9609 -0.1731
vn 0.1218 -0.9653 0.2312
vn 0.1227 -0.9791 0.1623
vn 0.2290 -0.9619 0.1492
vn 0.0748 -0.2678 0.9606
vn 0.2694 0.4153 0.8689
vn 0.6465 0.4781 0.5945
vn 0.9601 -0.2567 -0.1111
vn 0.9323 0.0839 -0.3519
vn 0.5239 0.5058 -0.6853
vn -0.1371 -0.2485 -0.9589
vn -0.3321 0.5533 -0.7639
vn -0.6856 0.5130 -0.5165
vn -0.9603 -0.2597 0.1016
vn -0.8425 0.4501 0.2960
vn -0.5849 0.4867 0.6489
usemtl None
s off
f 91/1/1 4/2/1 37/3/1
f 90/4/2 8/5/2 40/6/2
f 89/7/3 6/8/3 43/9/3
f 88/10/4 2/11/4 23/12/4
f 41/13/5 32/14/5 87/15/5
f 36/16/6 33/17/6 86/18/6
f 85/19/7 46/20/7 45/21/7
f 47/22/8 48/23/8 84/24/8
f 82/25/9 49/26/9 44/27/9
f 81/28/10 17/29/10 9/30/10
f 79/31/11 10/32/11 35/33/11
f 78/34/12 18/35/12 54/36/12
f 45/37/13 55/38/13 77/39/13
f 76/40/14 15/41/14 31/42/14
f 75/43/15 19/44/15 58/45/15
f 42/46/16 59/47/16 74/48/16
f 73/49/17 14/50/17 28/51/17
f 72/52/18 20/53/18 62/54/18
f 39/55/19 63/56/19 71/57/19
f 70/58/20 12/59/20 25/60/20
f 69/61/21 21/62/21 66/63/21
f 36/64/22 67/65/22 68/66/22
f 65/67/23 67/65/23 21/68/23
f 10/69/24 68/70/24 65/71/24
f 2/72/25 68/73/25 23/74/25
f 22/75/26 66/76/26 9/77/26
f 1/78/27 69/79/27 22/80/27
f 10/69/28 69/61/28 35/81/28
f 70/82/29 3/83/29 34/84/29
f 66/76/30 34/85/30 9/77/30
f 21/62/31 70/58/31 66/63/31
f 71/57/32 20/86/32 61/87/32
f 12/88/33 71/89/33 61/90/33
f 4/91/34 71/92/34 37/93/34
f 72/94/35 13/95/35 26/96/35
f 25/97/36 26/98/36 3/99/36
f 12/88/37 72/52/37 25/100/37
f 38/101/38 28/102/38 7/103/38
f 13/95/39 73/104/39 38/105/39
f 20/53/40 73/49/40 62/54/40
f 74/48/41 19/106/41 57/107/41
f 14/108/42 74/109/42 57/110/42
f 8/111/43 74/112/43 40/113/43
f 29/114/44 58/115/44 51/116/44
f 7/117/45 75/118/45 29/119/45
f 14/108/46 75/43/46 28/120/46
f 76/121/47 5/122/47 41/123/47
f 58/115/48 41/124/48 51/116/48
f 19/44/49 76/40/49 58/45/49
f 77/39/50 18/125/50 53/126/50
f 15/127/51 77/128/51 53/129/51
f 6/130/52 77/131/52 43/132/52
f 32/133/53 54/134/53 49/135/53
f 5/136/54 78/137/54 32/138/54
f 15/127/55 78/34/55 31/139/55
f 79/140/56 1/141/56 44/142/56
f 54/134/57 44/143/57 49/135/57
f 18/35/58 79/31/58 54/36/58
f 80/144/59 17/29/59 50/145/59
f 38/146/60 50/147/60 13/148/60
f 38/149/61 29/150/61 80/144/61
f 81/151/62 9/152/62 34/153/62
f 26/154/63 34/155/63 3/156/63
f 26/157/64 50/145/64 81/28/64
f 22/158/65 44/159/65 1/160/65
f 9/152/66 82/25/66 22/161/66
f 9/30/67 49/162/67 82/163/67
f 47/164/68 11/165/68 16/166/68
f 39/167/69 24/168/69 83/169/69
f 84/24/70 48/23/70 42/170/70
f 27/171/71 42/172/71 8/173/71
f 47/22/72 84/24/72 27/174/72
f 30/175/73 45/176/73 6/177/73
f 48/23/74 85/19/74 30/178/74
f 48/23/75 46/20/75 85/19/75
f 11/165/76 46/179/76 16/166/76
f 51/180/77 49/162/77 17/29/77
f 88/181/78 10/32/78 52/182/78
f 18/125/79 88/183/79 52/184/79
f 55/38/80 33/185/80 88/183/80
f 89/186/81 15/41/81 56/187/81
f 59/47/82 56/188/82 19/106/82
f 59/47/83 30/189/83 89/190/83
f 90/191/84 14/50/84 60/192/84
f 20/86/85 90/193/85 60/194/85
f 63/56/86 27/195/86 90/193/86
f 91/196/87 12/59/87 64/197/87
f 21/68/88 91/198/88 64/199/88
f 67/65/89 24/200/89 91/198/89
f 91/1/90 24/201/90 4/2/90
f 90/4/91 27/202/91 8/5/91
f 89/7/92 30/203/92 6/8/92
f 88/10/93 33/204/93 2/11/93
f 41/205/94 5/206/94 32/207/94
f 36/208/95 2/209/95 33/210/95
f 47/164/96 16/166/96 48/211/96
f 83/169/97 24/168/97 11/212/97
f 81/28/98 50/145/98 17/29/98
f 80/213/99 29/214/99 51/215/99
f 79/31/100 52/182/100 10/32/100
f 78/34/101 53/129/101 18/35/101
f 45/216/102 46/217/102 55/218/102
f 76/40/103 56/187/103 15/41/103
f 75/43/104 57/110/104 19/44/104
f 42/219/105 48/220/105 59/221/105
f 73/49/106 60/192/106 14/50/106
f 72/52/107 61/90/107 20/53/107
f 39/222/108 47/223/108 63/224/108
f 70/58/109 64/197/109 12/59/109
f 69/61/110 65/71/110 21/62/110
f 36/225/111 11/226/111 67/227/111
f 65/67/112 68/66/112 67/65/112
f 10/69/113 23/228/113 68/70/113
f 2/72/114 36/229/114 68/73/114
f 22/80/115 69/79/115 66/230/115
f 1/78/116 35/231/116 69/79/116
f 10/69/117 65/71/117 69/61/117
f 70/82/118 25/232/118 3/83/118
f 66/230/119 70/82/119 34/84/119
f 21/62/120 64/197/120 70/58/120
f 71/57/121 63/56/121 20/86/121
f 12/88/122 37/233/122 71/89/122
f 4/91/123 39/234/123 71/92/123
f 72/52/124 62/54/124 13/235/124
f 25/100/125 72/52/125 26/236/125
f 12/88/126 61/90/126 72/52/126
f 38/101/127 73/237/127 28/102/127
f 13/235/128 62/54/128 73/49/128
f 20/53/129 60/192/129 73/49/129
f 74/48/130 59/47/130 19/106/130
f 14/108/131 40/238/131 74/109/131
f 8/111/132 42/239/132 74/112/132
f 29/119/133 75/118/133 58/240/133
f 7/117/134 28/241/134 75/118/134
f 14/108/135 57/110/135 75/43/135
f 76/121/136 31/242/136 5/122/136
f 58/240/137 76/121/137 41/123/137
f 19/44/138 56/187/138 76/40/138
f 77/39/139 55/38/139 18/125/139
f 15/127/140 43/243/140 77/128/140
f 6/130/141 45/244/141 77/131/141
f 32/245/142 78/34/142 54/36/142
f 5/136/143 31/246/143 78/137/143
f 15/127/144 53/129/144 78/34/144
f 79/140/145 35/247/145 1/141/145
f 54/36/146 79/31/146 44/248/146
f 18/35/147 52/182/147 79/31/147
f 80/144/148 51/180/148 17/29/148
f 38/149/149 80/144/149 50/145/149
f 38/249/150 7/250/150 29/251/150
f 26/157/151 81/28/151 34/252/151
f 26/253/152 13/148/152 50/147/152
f 22/254/153 82/163/153 44/255/153
f 9/30/154 17/29/154 49/162/154
f 47/22/155 83/169/155 11/212/155
f 47/22/156 39/167/156 83/169/156
f 39/256/157 4/257/157 24/258/157
f 27/174/158 84/24/158 42/170/158
f 30/178/159 85/19/159 45/21/159
f 48/211/160 16/166/160 46/179/160
f 86/18/161 33/17/161 46/20/161
f 11/212/162 86/18/162 46/20/162
f 11/212/163 36/16/163 86/18/163
f 87/259/164 32/260/164 49/26/164
f 51/180/165 87/15/165 49/162/165
f 51/215/166 41/261/166 87/259/166
f 88/181/167 23/262/167 10/32/167
f 18/125/168 55/38/168 88/183/168
f 55/263/169 46/264/169 33/265/169
f 89/186/170 43/266/170 15/41/170
f 59/47/171 89/190/171 56/188/171
f 59/267/172 48/268/172 30/269/172
f 90/191/173 40/270/173 14/50/173
f 20/86/174 63/56/174 90/193/174
f 63/271/175 47/272/175 27/273/175
f 91/196/176 37/274/176 12/59/176
f 21/68/177 67/65/177 91/198/177
f 67/275/178 11/276/178 24/277/178
