# Blender v2.93.5 OBJ File: 'GranadeAmmo.blend'
# www.blender.org
mtllib GranadeLaucnherAmmo_LOD0.mtl
o Cube_Cube.001
v -0.379397 0.216395 0.373402
v -0.293720 0.784449 0.164391
v -0.379397 0.216395 -0.373402
v -0.293720 0.784449 -0.164391
v 0.383250 0.216395 0.373402
v 0.297573 0.784449 0.164391
v 0.383250 0.216395 -0.373402
v 0.297573 0.784449 -0.164391
v -0.165569 0.005712 0.000000
v -0.379397 0.395080 0.373653
v -0.165569 0.863233 -0.000000
v -0.379397 0.395080 -0.373653
v 0.001926 0.005712 -0.210934
v 0.001926 0.922683 -0.110583
v 0.383250 0.395080 -0.373653
v 0.169422 0.005712 0.000000
v 0.169422 0.863233 -0.000000
v 0.383250 0.395080 0.373653
v 0.001926 0.005712 0.210934
v 0.001926 0.922683 0.110583
v 0.001926 0.989755 -0.000000
v 0.001926 0.005712 0.000000
v 0.001926 0.395080 0.253315
v 0.310208 0.395080 0.000000
v 0.001926 0.395080 -0.253315
v -0.306355 0.395080 0.000000
v -0.319021 0.050079 0.186701
v -0.379397 0.589764 0.361710
v -0.188735 0.052374 -0.340722
v 0.187178 0.802990 -0.149373
v 0.322874 0.050079 -0.186701
v 0.192588 0.052374 0.340722
v -0.183325 0.802990 0.149373
v -0.319021 0.050079 -0.186701
v -0.379397 0.589764 -0.361710
v 0.192588 0.052374 -0.340722
v -0.183325 0.802990 -0.149373
v 0.383250 0.589764 -0.361710
v 0.322874 0.050079 0.186701
v 0.383250 0.589764 0.361710
v -0.188735 0.052374 0.340722
v 0.187178 0.802990 0.149373
v -0.189099 0.395080 0.374029
v 0.192952 0.395080 0.374029
v 0.001926 0.200396 0.252633
v 0.001926 0.589764 0.239409
v 0.403230 0.395080 0.189177
v 0.403230 0.395080 -0.189177
v 0.241344 0.200396 0.000000
v 0.238202 0.595720 0.000000
v 0.192952 0.395080 -0.374029
v -0.189099 0.395080 -0.374029
v 0.001926 0.200396 -0.252633
v 0.001926 0.589764 -0.239409
v -0.399377 0.395080 -0.189177
v -0.399377 0.395080 0.189177
v -0.237491 0.200396 0.000000
v -0.234349 0.595720 0.000000
v -0.332840 0.589764 0.209928
v -0.346076 0.201498 0.186701
v -0.346076 0.201498 -0.186701
v -0.188735 0.589764 -0.423269
v -0.188735 0.201843 -0.340722
v 0.192588 0.201843 -0.340722
v 0.336693 0.589764 -0.209928
v 0.349929 0.201498 -0.186701
v 0.349929 0.201498 0.186701
v 0.192588 0.589764 0.423269
v 0.192588 0.201843 0.340722
v -0.188735 0.201843 0.340722
v 0.190748 0.008346 -0.185514
v -0.186895 0.008346 -0.185514
v -0.186895 0.008346 0.185514
v 0.190748 0.008346 0.185514
v -0.188735 0.589764 0.423269
v 0.336693 0.589764 0.209928
v 0.192588 0.589764 -0.423269
v -0.332840 0.589764 -0.209928
vt 0.974631 0.525799
vt 0.974631 0.525792
vt 0.974631 0.525799
vt 0.845735 0.531991
vt 0.845735 0.531980
vt 0.845735 0.531987
vt 0.974631 0.525799
vt 0.974631 0.525792
vt 0.974631 0.525799
vt 0.845735 0.532037
vt 0.845735 0.532041
vt 0.845735 0.532042
vt 0.974631 0.525825
vt 0.974631 0.525818
vt 0.974631 0.525823
vt 0.974631 0.525767
vt 0.974631 0.525772
vt 0.974631 0.525774
vt 0.974631 0.525770
vt 0.974631 0.525775
vt 0.974631 0.525769
vt 0.845735 0.531975
vt 0.845735 0.531975
vt 0.845735 0.531978
vt 0.974631 0.525809
vt 0.974631 0.525817
vt 0.974631 0.525812
vt 0.974631 0.525799
vt 0.974631 0.525806
vt 0.974631 0.525799
vt 0.970690 0.525818
vt 0.970690 0.525812
vt 0.970690 0.525812
vt 0.974631 0.525805
vt 0.974631 0.525812
vt 0.974631 0.525812
vt 0.974631 0.525836
vt 0.974631 0.525829
vt 0.974631 0.525828
vt 0.970690 0.525786
vt 0.970690 0.525781
vt 0.970690 0.525781
vt 0.974631 0.525829
vt 0.974631 0.525835
vt 0.974631 0.525836
vt 0.974631 0.525798
vt 0.974631 0.525804
vt 0.974631 0.525798
vt 0.974631 0.525817
vt 0.974631 0.525811
vt 0.974631 0.525811
vt 0.974631 0.525805
vt 0.974631 0.525812
vt 0.974631 0.525812
vt 0.974631 0.525836
vt 0.974631 0.525841
vt 0.974631 0.525835
vt 0.970690 0.525789
vt 0.970690 0.525784
vt 0.970690 0.525784
vt 0.974631 0.525784
vt 0.974631 0.525777
vt 0.974631 0.525784
vt 0.974631 0.525789
vt 0.974631 0.525784
vt 0.974631 0.525832
vt 0.974631 0.525828
vt 0.845735 0.532036
vt 0.845735 0.532037
vt 0.845735 0.532032
vt 0.845735 0.532012
vt 0.845735 0.532012
vt 0.845735 0.532018
vt 0.974631 0.525817
vt 0.974631 0.525804
vt 0.974631 0.525804
vt 0.845734 0.532009
vt 0.845734 0.532019
vt 0.845734 0.532019
vt 0.974631 0.525793
vt 0.974631 0.525791
vt 0.845735 0.531998
vt 0.845735 0.531993
vt 0.845734 0.532036
vt 0.845734 0.532036
vt 0.845734 0.532041
vt 0.974631 0.525769
vt 0.974631 0.525781
vt 0.974631 0.525775
vt 0.974631 0.525778
vt 0.974631 0.525786
vt 0.974631 0.525782
vt 0.974631 0.525836
vt 0.974631 0.525828
vt 0.845735 0.532036
vt 0.845735 0.532036
vt 0.845735 0.532013
vt 0.845735 0.532013
vt 0.845735 0.532018
vt 0.970690 0.525806
vt 0.970690 0.525806
vt 0.974631 0.525806
vt 0.974631 0.525805
vt 0.845735 0.532023
vt 0.845735 0.532026
vt 0.845735 0.532020
vt 0.845735 0.532000
vt 0.845735 0.531995
vt 0.845735 0.531984
vt 0.845735 0.531984
vt 0.845735 0.532029
vt 0.845735 0.532026
vt 0.974631 0.525834
vt 0.974631 0.525777
vt 0.845735 0.532028
vt 0.845735 0.532024
vt 0.845734 0.532002
vt 0.845734 0.532003
vt 0.845734 0.531998
vt 0.974631 0.525826
vt 0.974631 0.525833
vt 0.845735 0.531969
vt 0.970690 0.525766
vt 0.970690 0.525837
vt 0.970690 0.525837
vt 0.970690 0.525792
vt 0.970690 0.525799
vt 0.974631 0.525790
vt 0.970690 0.525792
vt 0.970690 0.525799
vt 0.845735 0.531981
vt 0.845735 0.532037
vt 0.845734 0.532001
vt 0.974631 0.525802
vt 0.845735 0.532035
vt 0.970690 0.525833
vt 0.970690 0.525789
vt 0.970690 0.525807
vt 0.970690 0.525801
vt 0.970690 0.525812
vt 0.970690 0.525792
vt 0.970690 0.525777
vt 0.845734 0.532008
vt 0.970690 0.525775
vt 0.974631 0.525775
vt 0.845735 0.532027
vt 0.974631 0.525774
vt 0.845735 0.532023
vt 0.974631 0.525792
vt 0.970690 0.525833
vn -0.9488 0.1226 0.2910
vn 0.2067 0.7399 -0.6402
vn 0.9488 0.1226 -0.2910
vn -0.2067 0.7399 0.6402
vn 0.2889 -0.9219 0.2581
vn 0.4793 0.8322 -0.2787
vn -0.0500 -0.9610 0.2720
vn -0.0156 -0.9998 -0.0124
vn 0.1541 -0.1675 0.9737
vn -0.4194 -0.0032 0.9078
vn -0.5142 0.6718 0.5332
vn 0.9538 -0.2607 -0.1494
vn 0.8273 -0.2926 0.4795
vn 0.9031 0.0829 0.4214
vn -0.1541 -0.1675 -0.9737
vn 0.4194 -0.0032 -0.9078
vn 0.5142 0.6718 -0.5332
vn -0.9538 -0.2607 0.1494
vn -0.8273 -0.2926 -0.4795
vn -0.9031 0.0829 -0.4214
vn -0.8460 0.3335 -0.4160
vn -0.9446 0.3119 0.1023
vn -0.9488 0.1226 -0.2910
vn -0.7726 -0.2854 -0.5672
vn -0.9718 -0.1736 -0.1596
vn -0.9538 -0.2607 -0.1494
vn -0.9718 -0.1736 0.1596
vn -0.7726 -0.2854 0.5672
vn -0.8273 -0.2926 0.4795
vn 0.5332 0.0603 -0.8438
vn -0.0020 0.0612 -0.9981
vn -0.2067 0.7399 -0.6402
vn 0.5235 -0.1784 -0.8331
vn 0.1689 0.0000 -0.9856
vn 0.1541 -0.1675 -0.9737
vn -0.1689 0.0000 -0.9856
vn -0.5235 -0.1784 -0.8331
vn -0.4194 -0.0032 -0.9078
vn 0.8460 0.3335 0.4160
vn 0.9446 0.3119 -0.1023
vn 0.9488 0.1226 0.2910
vn 0.7726 -0.2854 0.5672
vn 0.9718 -0.1736 0.1596
vn 0.9538 -0.2607 0.1494
vn 0.9718 -0.1736 -0.1596
vn 0.7726 -0.2854 -0.5672
vn 0.8273 -0.2926 -0.4795
vn -0.5332 0.0603 0.8438
vn 0.0020 0.0612 0.9981
vn 0.2067 0.7399 0.6402
vn -0.5235 -0.1784 0.8331
vn -0.1689 0.0000 0.9856
vn -0.1541 -0.1675 0.9737
vn 0.1689 0.0000 0.9856
vn 0.5235 -0.1784 0.8331
vn 0.4194 -0.0032 0.9078
vn 0.0000 -1.0000 0.0000
vn 0.2889 -0.9219 -0.2581
vn -0.3013 -0.9533 0.0211
vn -0.5321 -0.7103 -0.4607
vn -0.0500 -0.9610 -0.2720
vn -0.5321 -0.7103 0.4607
vn -0.3013 -0.9533 -0.0211
vn -0.0156 -0.9998 0.0124
vn -0.5425 0.7182 -0.4356
vn 0.1065 0.9265 -0.3610
vn 0.1065 0.9265 0.3610
vn 0.4793 0.8322 0.2787
vn -0.5425 0.7182 0.4356
vn -0.0020 0.0612 0.9981
vn 0.5332 0.0603 0.8438
vn 0.5142 0.6718 0.5332
vn 0.9446 0.3119 0.1023
vn 0.8460 0.3335 -0.4160
vn 0.9031 0.0829 -0.4214
vn 0.0020 0.0612 -0.9981
vn -0.5332 0.0603 -0.8438
vn -0.5142 0.6718 -0.5332
vn -0.9446 0.3119 -0.1023
vn -0.8460 0.3335 0.4160
vn -0.9031 0.0829 0.4214
vn 0.0491 0.7886 -0.6129
vn -0.0491 0.7886 0.6129
vn 0.5321 -0.7103 0.4607
vn 0.5425 0.7182 -0.4356
vn -0.1065 0.9265 -0.3610
vn 0.3013 -0.9533 0.0211
vn -0.0020 -0.0014 1.0000
vn -0.5287 -0.1432 0.8366
vn 0.0379 0.3606 0.9319
vn 0.9942 -0.0002 0.1077
vn 0.8723 -0.2347 0.4289
vn 0.8173 0.2101 0.5365
vn 0.0020 -0.0014 -1.0000
vn 0.5287 -0.1432 -0.8366
vn -0.0379 0.3606 -0.9319
vn -0.9942 -0.0002 -0.1077
vn -0.8723 -0.2347 -0.4289
vn -0.8173 0.2101 -0.5365
vn -0.8640 0.3101 -0.3966
vn -0.9559 -0.0180 -0.2932
vn -0.8547 -0.1527 -0.4962
vn -0.9942 -0.0002 0.1077
vn -0.8547 -0.1527 0.4962
vn -0.8723 -0.2347 0.4289
vn 0.6828 -0.1804 -0.7080
vn -0.2988 -0.2335 -0.9253
vn -0.0491 0.7886 -0.6129
vn 0.4194 0.0000 -0.9078
vn -0.0020 -0.0014 -1.0000
vn -0.4194 0.0000 -0.9078
vn -0.5287 -0.1432 -0.8366
vn 0.8640 0.3101 0.3966
vn 0.9559 -0.0180 0.2932
vn 0.8547 -0.1527 0.4962
vn 0.9942 -0.0002 -0.1077
vn 0.8547 -0.1527 -0.4962
vn 0.8723 -0.2347 -0.4289
vn -0.6828 -0.1804 0.7080
vn 0.2988 -0.2335 0.9253
vn 0.0491 0.7886 0.6129
vn -0.4194 0.0000 0.9078
vn 0.0020 -0.0014 1.0000
vn 0.4194 0.0000 0.9078
vn 0.5287 -0.1432 0.8366
vn 0.0156 -0.9998 -0.0124
vn 0.0500 -0.9610 -0.2720
vn 0.5321 -0.7103 -0.4607
vn -0.2889 -0.9219 -0.2581
vn -0.2889 -0.9219 0.2581
vn -0.4793 0.8322 -0.2787
vn 0.5425 0.7182 0.4356
vn -0.4793 0.8322 0.2787
vn -0.1065 0.9265 0.3610
vn 0.0500 -0.9610 0.2720
vn 0.0156 -0.9998 0.0124
vn 0.3013 -0.9533 -0.0211
vn -0.2988 -0.2335 0.9253
vn 0.6828 -0.1804 0.7080
vn -0.0379 0.3606 0.9319
vn 0.9559 -0.0180 -0.2932
vn 0.8640 0.3101 -0.3966
vn 0.8173 0.2101 -0.5365
vn 0.2988 -0.2335 -0.9253
vn -0.6828 -0.1804 -0.7080
vn 0.0379 0.3606 -0.9319
vn -0.9559 -0.0180 0.2932
vn -0.8640 0.3101 0.3966
vn -0.8173 0.2101 0.5365
usemtl None
s off
f 78/1/1 4/2/1 35/3/1
f 77/4/2 8/5/2 38/6/2
f 76/7/3 6/8/3 40/9/3
f 75/10/4 2/11/4 28/12/4
f 39/13/5 32/14/5 74/15/5
f 14/16/6 17/17/6 30/18/6
f 73/19/7 19/20/7 41/21/7
f 13/22/8 9/23/8 72/24/8
f 43/25/9 1/26/9 70/27/9
f 69/28/10 23/29/10 45/30/10
f 42/31/11 46/32/11 68/33/11
f 47/34/12 5/35/12 67/36/12
f 66/37/13 24/38/13 49/39/13
f 8/40/14 50/41/14 65/42/14
f 51/43/15 7/44/15 64/45/15
f 63/46/16 25/47/16 53/48/16
f 37/49/17 54/50/17 62/51/17
f 55/52/18 3/53/18 61/54/18
f 60/55/19 26/56/19 57/57/19
f 2/58/20 58/59/20 59/60/20
f 59/61/21 26/56/21 56/62/21
f 10/63/22 59/61/22 56/62/22
f 2/64/23 59/61/23 28/65/23
f 27/66/24 57/57/24 9/67/24
f 1/68/25 60/69/25 27/70/25
f 1/26/26 56/62/26 60/55/26
f 61/71/27 3/72/27 34/73/27
f 57/57/28 34/74/28 9/67/28
f 26/56/29 61/54/29 57/57/29
f 52/75/30 54/50/30 25/47/30
f 35/3/31 52/75/31 12/76/31
f 4/77/32 62/78/32 35/79/32
f 29/80/33 53/48/33 13/81/33
f 3/72/34 63/82/34 29/83/34
f 3/53/35 52/75/35 63/46/35
f 64/84/36 7/85/36 36/86/36
f 53/48/37 36/87/37 13/81/37
f 25/47/38 64/45/38 53/48/38
f 65/88/39 24/38/39 48/89/39
f 15/90/40 65/88/40 48/89/40
f 8/91/41 65/88/41 38/92/41
f 31/93/42 49/39/42 16/94/42
f 7/85/43 66/95/43 31/96/43
f 7/44/44 48/89/44 66/37/44
f 67/97/45 5/98/45 39/99/45
f 49/39/46 39/13/46 16/94/46
f 24/38/47 67/36/47 49/39/47
f 44/100/48 46/32/48 23/101/48
f 40/9/49 44/102/49 18/103/49
f 6/104/50 68/105/50 40/106/50
f 32/14/51 45/30/51 19/20/51
f 5/98/52 69/107/52 32/108/52
f 5/35/53 44/102/53 69/28/53
f 70/109/54 1/68/54 41/110/54
f 45/30/55 41/21/55 19/20/55
f 23/29/56 70/27/56 45/30/56
f 13/22/57 16/111/57 22/112/57
f 36/87/58 31/93/58 71/113/58
f 72/24/59 9/23/59 34/73/59
f 29/83/60 34/73/60 3/72/60
f 13/81/61 72/114/61 29/80/61
f 27/70/62 41/110/62 1/68/62
f 9/23/63 73/115/63 27/70/63
f 9/23/64 19/116/64 73/115/64
f 14/117/65 11/118/65 21/119/65
f 30/18/66 17/17/66 8/91/66
f 17/17/67 42/120/67 6/8/67
f 17/17/68 20/121/68 42/120/68
f 11/118/69 20/122/69 21/119/69
f 16/111/57 19/116/57 22/112/57
f 43/25/70 28/65/70 10/63/70
f 46/32/71 43/123/71 23/101/71
f 46/32/72 33/124/72 75/125/72
f 76/7/73 18/103/73 47/34/73
f 24/38/74 76/7/74 47/34/74
f 50/41/75 6/126/75 76/127/75
f 51/43/76 38/92/76 15/90/76
f 54/50/77 51/43/77 25/47/77
f 54/50/78 30/18/78 77/128/78
f 78/1/79 12/76/79 55/52/79
f 26/56/80 78/1/80 55/52/80
f 58/59/81 4/129/81 78/130/81
f 77/4/82 30/131/82 8/5/82
f 75/10/83 33/132/83 2/11/83
f 39/99/84 5/98/84 32/108/84
f 14/117/85 21/119/85 17/133/85
f 37/49/86 4/2/86 11/134/86
f 13/22/57 22/112/57 9/23/57
f 71/135/87 31/96/87 16/111/87
f 43/25/88 10/63/88 1/26/88
f 69/28/89 44/102/89 23/29/89
f 42/31/90 20/136/90 46/32/90
f 47/34/91 18/103/91 5/35/91
f 66/37/92 48/89/92 24/38/92
f 8/40/93 17/137/93 50/41/93
f 51/43/94 15/90/94 7/44/94
f 63/46/95 52/75/95 25/47/95
f 37/138/96 14/139/96 54/140/96
f 55/52/97 12/76/97 3/53/97
f 60/55/98 56/62/98 26/56/98
f 2/58/99 11/141/99 58/59/99
f 59/60/100 58/59/100 26/142/100
f 10/63/101 28/65/101 59/61/101
f 27/66/102 60/55/102 57/57/102
f 1/26/103 10/63/103 56/62/103
f 57/57/104 61/54/104 34/74/104
f 26/56/105 55/52/105 61/54/105
f 52/75/106 62/51/106 54/50/106
f 35/3/107 62/51/107 52/75/107
f 4/77/108 37/143/108 62/78/108
f 29/80/109 63/46/109 53/48/109
f 3/53/110 12/76/110 52/75/110
f 53/48/111 64/45/111 36/87/111
f 25/47/112 51/43/112 64/45/112
f 65/42/113 50/41/113 24/144/113
f 15/90/114 38/92/114 65/88/114
f 31/93/115 66/37/115 49/39/115
f 7/44/116 15/90/116 48/89/116
f 49/39/117 67/36/117 39/13/117
f 24/38/118 47/34/118 67/36/118
f 44/100/119 68/33/119 46/32/119
f 40/9/120 68/145/120 44/102/120
f 6/104/121 42/146/121 68/105/121
f 32/14/122 69/28/122 45/30/122
f 5/35/123 18/103/123 44/102/123
f 45/30/124 70/27/124 41/21/124
f 23/29/125 43/25/125 70/27/125
f 13/22/126 71/135/126 16/111/126
f 13/81/127 36/87/127 71/113/127
f 36/86/128 7/85/128 31/96/128
f 29/80/129 72/114/129 34/74/129
f 27/66/130 73/19/130 41/21/130
f 9/23/57 22/112/57 19/116/57
f 14/16/131 37/49/131 11/134/131
f 17/133/132 21/119/132 20/122/132
f 11/134/133 33/147/133 20/121/133
f 11/134/134 2/64/134 33/147/134
f 74/15/135 32/14/135 19/20/135
f 16/111/136 74/148/136 19/116/136
f 16/111/137 39/99/137 74/148/137
f 43/25/138 75/149/138 28/65/138
f 46/32/139 75/125/139 43/123/139
f 46/32/140 20/136/140 33/124/140
f 76/7/141 40/9/141 18/103/141
f 24/144/142 50/41/142 76/127/142
f 50/41/143 17/137/143 6/126/143
f 51/43/144 77/128/144 38/92/144
f 54/50/145 77/128/145 51/43/145
f 54/140/146 14/139/146 30/150/146
f 78/1/147 35/3/147 12/76/147
f 26/142/148 58/59/148 78/130/148
f 58/59/149 11/141/149 4/129/149
