# Blender v2.93.5 OBJ File: 'LeftHand1.blend'
# www.blender.org
mtllib Hero-7.mtl
o Cube_Cube.001
v -1.306764 1.652407 0.421691
v -1.424114 1.652407 0.304341
v -1.424114 1.652407 0.178026
v -1.306764 1.652407 0.060676
v -1.078719 1.652407 0.304341
v -1.196069 1.652407 0.421691
v -1.196069 1.652407 0.060676
v -1.078719 1.652407 0.178026
v -1.424114 1.498522 0.304341
v -1.424114 1.498522 0.178026
v -1.424114 1.402184 0.304341
v -1.424114 1.402184 0.178026
v -1.272782 1.284429 0.304341
v -1.272782 1.284429 0.178026
v -1.151676 1.284429 0.304341
v -1.151676 1.284429 0.178026
v -1.362767 1.563391 0.393689
v -1.305519 1.498522 0.409656
v -1.305519 1.498522 0.072711
v -1.362767 1.563391 0.088678
v -1.078719 1.563391 0.178026
v -1.067790 1.498522 0.188316
v -1.183395 1.498522 0.072711
v -1.196069 1.563391 0.060676
v -1.196069 1.563391 0.421691
v -1.183395 1.498522 0.409656
v -1.067790 1.498522 0.294051
v -1.078719 1.563391 0.304341
v -1.363172 1.402184 0.365282
v -1.306764 1.402184 0.356822
v -1.306764 1.402184 0.125545
v -1.363172 1.402184 0.117085
v -1.272782 1.360958 0.380870
v -1.272782 1.401779 0.356822
v -1.272782 1.401779 0.125545
v -1.272782 1.360958 0.101498
v -1.132715 1.401779 0.356822
v -1.097383 1.360431 0.380343
v -1.097383 1.360431 0.102024
v -1.132715 1.401779 0.125545
v -1.481588 1.685042 0.328148
v -1.448953 1.652407 0.314630
v -1.317052 1.652407 0.446530
v -1.330570 1.685042 0.479166
v -1.330570 1.685042 0.003202
v -1.317052 1.652407 0.035837
v -1.448953 1.652407 0.167738
v -1.481588 1.685042 0.154219
v -1.021245 1.685042 0.154219
v -1.053880 1.652407 0.167738
v -1.185781 1.652407 0.035837
v -1.172263 1.685042 0.003202
v -1.172263 1.685042 0.479166
v -1.185781 1.652407 0.446530
v -1.053880 1.652407 0.314630
v -1.021245 1.685042 0.328148
v -1.439202 2.393672 0.310591
v -1.481588 2.351285 0.328148
v -1.330570 2.351285 0.479166
v -1.313013 2.393672 0.436780
v -1.313013 2.393672 0.045588
v -1.330570 2.351285 0.003202
v -1.481588 2.351285 0.154219
v -1.439202 2.393672 0.171776
v -1.189819 2.393672 0.436780
v -1.172263 2.351285 0.479166
v -1.021245 2.351285 0.328148
v -1.063631 2.393672 0.310591
v -1.063631 2.393672 0.171776
v -1.021245 2.351285 0.154219
v -1.172263 2.351285 0.003202
v -1.189819 2.393672 0.045588
v -1.312874 2.018164 0.425959
v -1.430128 2.018164 0.308705
v -1.430128 2.018164 0.173662
v -1.189959 2.018164 0.425959
v -1.312874 2.018164 0.056408
v -1.189959 2.018164 0.056408
v -1.072705 2.018164 0.308705
v -1.072705 2.018164 0.173662
vt 0.971862 0.647099
vt 0.972023 0.699925
vt 0.972074 0.692981
vt 0.971883 0.630335
vt 0.971472 0.376798
vt 0.971472 0.151973
vt 0.971219 0.151781
vt 0.970845 0.376693
vt 0.970271 0.405165
vt 0.971198 0.179910
vt 0.970931 0.180799
vt 0.970931 0.405610
vt 0.971337 0.707380
vt 0.971521 0.647099
vt 0.971499 0.630335
vt 0.971286 0.700436
vt 0.973145 0.401584
vt 0.973145 0.176759
vt 0.972915 0.176584
vt 0.972915 0.401408
vt 0.971498 0.872212
vt 0.971337 0.819386
vt 0.971286 0.826330
vt 0.971477 0.888976
vt 0.972023 0.811931
vt 0.971839 0.872212
vt 0.971860 0.888976
vt 0.972074 0.818875
vt 0.978315 0.665860
vt 0.978315 0.575778
vt 0.978506 0.575778
vt 0.978506 0.665860
vt 0.970565 0.911113
vt 0.970932 0.911114
vt 0.971111 0.852323
vt 0.971111 0.731881
vt 0.970909 0.665634
vt 0.970542 0.665633
vt 0.970363 0.724424
vt 0.970363 0.844866
vt 0.970033 0.376781
vt 0.970033 0.601605
vt 0.970472 0.601605
vt 0.971472 0.601623
vt 0.971911 0.601623
vt 0.971911 0.376798
vt 0.970492 0.405514
vt 0.970492 0.630324
vt 0.970931 0.630421
vt 0.975254 0.401426
vt 0.975254 0.176601
vt 0.975023 0.176776
vt 0.975023 0.401601
vt 0.979958 0.731529
vt 0.979801 0.731016
vt 0.979676 0.682558
vt 0.979958 0.683214
vt 0.978827 0.327009
vt 0.979029 0.327529
vt 0.979029 0.411052
vt 0.978827 0.410532
vt 0.977723 0.642738
vt 0.977724 0.691220
vt 0.977533 0.691181
vt 0.977533 0.642699
vt 0.976864 0.735510
vt 0.976864 0.552617
vt 0.977125 0.552617
vt 0.977373 0.615368
vt 0.977373 0.672760
vt 0.977125 0.735510
vt 0.979259 0.375927
vt 0.979213 0.463310
vt 0.979029 0.463341
vt 0.977724 0.552656
vt 0.977533 0.552617
vt 0.979630 0.595176
vt 0.979446 0.595144
vt 0.979661 0.531931
vt 0.979784 0.573153
vt 0.979384 0.327469
vt 0.979541 0.326957
vt 0.979541 0.375271
vt 0.979367 0.485332
vt 0.979244 0.526554
vt 0.979769 0.326957
vt 0.979769 0.456282
vt 0.979562 0.435404
vt 0.979562 0.346636
vt 0.979446 0.647433
vt 0.978827 0.462821
vt 0.979261 0.561401
vt 0.978991 0.561401
vt 0.978828 0.531931
vt 0.979424 0.531931
vt 0.979425 0.627137
vt 0.979261 0.627137
vt 0.979261 0.709280
vt 0.978991 0.709280
vt 0.978991 0.627137
vt 0.978294 0.588546
vt 0.978294 0.714083
vt 0.978221 0.714083
vt 0.978221 0.588546
vt 0.978827 0.627137
vt 0.977921 0.714083
vt 0.977921 0.588546
vt 0.977394 0.650814
vt 0.977394 0.562072
vt 0.978645 0.585262
vt 0.978645 0.674004
vt 0.979540 0.410371
vt 0.979366 0.410936
vt 0.977394 0.691397
vt 0.979783 0.647549
vt 0.979957 0.648114
vt 0.979697 0.595471
vt 0.979280 0.463014
vt 0.979878 0.423317
vt 0.979790 0.394481
vt 0.979878 0.385376
vt 0.979878 0.398420
vt 0.978666 0.604615
vt 0.978754 0.575778
vt 0.978754 0.600676
vt 0.978754 0.613720
vt 0.977845 0.726850
vt 0.977845 0.575778
vt 0.979878 0.331616
vt 0.979790 0.326957
vt 0.978666 0.672139
vt 0.978754 0.667480
vt 0.979446 0.730956
vt 0.971911 0.608309
vt 0.971472 0.608309
vt 0.971219 0.691313
vt 0.971219 0.835453
vt 0.971449 0.911002
vt 0.971888 0.911002
vt 0.972141 0.827998
vt 0.972141 0.683858
vt 0.974331 0.860256
vt 0.974561 0.935805
vt 0.974589 0.913779
vt 0.974398 0.851133
vt 0.975254 0.708661
vt 0.975023 0.633112
vt 0.974996 0.655138
vt 0.975187 0.717785
vt 0.969741 0.151781
vt 0.969374 0.151861
vt 0.969343 0.180799
vt 0.969782 0.180703
vt 0.970900 0.151861
vt 0.970533 0.151781
vt 0.970492 0.180703
vt 0.970529 0.939799
vt 0.970968 0.939800
vt 0.970276 0.712655
vt 0.970276 0.856795
vt 0.971198 0.720112
vt 0.970945 0.637108
vt 0.973476 0.749228
vt 0.973655 0.690436
vt 0.973618 0.661910
vt 0.973388 0.737458
vt 0.974081 0.964604
vt 0.974311 0.889055
vt 0.974224 0.877126
vt 0.974045 0.935917
vt 0.969782 0.405514
vt 0.969782 0.630324
vt 0.969343 0.630421
vt 0.975254 0.626251
vt 0.975023 0.626426
vt 0.971911 0.151973
vt 0.970033 0.151956
vt 0.970472 0.151956
vt 0.973145 0.626408
vt 0.972915 0.626233
vt 0.971198 0.629531
vt 0.971219 0.601430
vn 0.0000 -1.0000 0.0000
vn 0.9883 -0.1527 0.0000
vn -0.9883 -0.1527 0.0000
vn 0.0000 -0.1577 0.9875
vn 0.7071 0.0000 0.7071
vn 0.0000 1.0000 0.0000
vn 0.6992 0.1488 0.6992
vn 0.6992 0.1488 -0.6992
vn -0.6992 0.1488 -0.6992
vn 0.0000 -0.1577 -0.9875
vn -0.0997 -0.1239 0.9873
vn -1.0000 0.0000 0.0000
vn 1.0000 0.0000 0.0000
vn -0.7587 -0.0702 -0.6477
vn 0.7071 0.0000 -0.7071
vn -0.4737 -0.6634 0.5793
vn -0.0997 -0.1239 -0.9873
vn -0.4737 -0.6634 -0.5793
vn 0.9999 -0.0129 0.0000
vn -0.7587 -0.0702 0.6477
vn -0.7683 0.1043 -0.6315
vn 0.8137 -0.5813 0.0000
vn 0.0000 -0.7071 0.7071
vn -0.6141 -0.7892 0.0000
vn 0.0119 0.9999 0.0000
vn 0.0000 -0.7071 -0.7071
vn 0.7071 0.0070 -0.7071
vn 0.7071 0.0070 0.7071
vn -0.0965 -0.0218 -0.9951
vn 0.9861 0.1661 0.0000
vn -0.0965 -0.0218 0.9951
vn -0.2278 -0.2916 0.9290
vn -0.2278 -0.2916 -0.9290
vn 0.0802 0.5507 0.8308
vn 0.0802 0.5507 -0.8308
vn 0.7602 0.6496 0.0000
vn 0.0023 0.5017 0.8650
vn 0.0023 0.5017 -0.8650
vn -0.7683 0.1043 0.6315
vn -0.5000 -0.7071 0.5000
vn -0.5000 -0.7071 -0.5000
vn 0.5000 -0.7071 -0.5000
vn 0.5000 -0.7071 0.5000
vn -0.7071 -0.7071 0.0000
vn 0.7071 -0.7071 0.0000
vn -0.5000 0.7071 0.5000
vn -0.5000 0.7071 -0.5000
vn 0.5000 0.7071 -0.5000
vn 0.5000 0.7071 0.5000
vn -0.7071 0.7071 0.0000
vn 0.0000 0.7071 0.7071
vn 0.7071 0.7071 0.0000
vn 0.0000 0.7071 -0.7071
vn -0.6992 -0.1488 0.6992
vn -0.6992 0.1488 0.6992
vn 0.0000 0.1577 -0.9875
vn -0.6992 -0.1488 -0.6992
vn 0.6992 -0.1488 -0.6992
vn 0.6992 -0.1488 0.6992
vn 0.0000 0.1577 0.9875
vn -0.9883 0.1527 0.0000
vn 0.9883 0.1527 0.0000
usemtl None
s off
f 1/1/1 6/2/1 54/3/1 43/4/1
f 80/5/2 70/6/2 67/7/2 79/8/2
f 74/9/3 58/10/3 63/11/3 75/12/3
f 3/13/1 2/14/1 42/15/1 47/16/1
f 76/17/4 66/18/4 59/19/4 73/20/4
f 7/21/1 4/22/1 46/23/1 51/24/1
f 5/25/1 8/26/1 50/27/1 55/28/1
f 6/2/1 5/25/1 55/28/1 54/3/1
f 5/29/5 6/30/5 25/31/5 28/32/5
f 69/33/6 72/34/6 61/35/6 64/36/6 57/37/6 60/38/6 65/39/6 68/40/6
f 76/41/7 53/42/7 56/43/7 79/8/7
f 80/5/8 49/44/8 52/45/8 78/46/8
f 77/47/9 45/48/9 48/49/9 75/12/9
f 4/22/1 3/13/1 47/16/1 46/23/1
f 8/26/1 7/21/1 51/24/1 50/27/1
f 77/50/10 62/51/10 71/52/10 78/53/10
f 6/54/11 1/55/11 17/56/11 25/57/11
f 2/58/12 3/59/12 10/60/12 9/61/12
f 8/62/13 5/63/13 28/64/13 21/65/13
f 18/66/1 19/67/1 23/68/1 22/69/1 27/70/1 26/71/1
f 10/60/14 20/72/14 32/73/14 12/74/14
f 7/75/15 8/62/15 21/65/15 24/76/15
f 29/77/16 11/78/16 13/79/16 33/80/16
f 4/81/17 7/82/17 24/83/17 20/72/17
f 12/74/18 32/73/18 36/84/18 14/85/18
f 19/86/19 18/87/19 30/88/19 31/89/19
f 17/56/20 9/90/20 11/78/20 29/77/20
f 3/59/21 4/81/21 20/72/21 10/60/21
f 9/61/12 10/60/12 12/74/12 11/91/12
f 15/92/22 16/93/22 39/94/22 38/95/22
f 33/96/23 13/97/23 15/92/23 38/95/23
f 11/98/24 12/99/24 14/100/24 13/97/24
f 31/101/25 30/102/25 34/103/25 35/104/25
f 13/97/1 14/100/1 16/93/1 15/92/1
f 14/100/26 36/105/26 39/94/26 16/93/26
f 35/104/6 34/103/6 37/106/6 40/107/6
f 22/108/27 23/109/27 24/76/27 21/65/27
f 26/110/28 27/111/28 28/32/28 25/31/28
f 20/72/29 24/83/29 23/112/29 19/113/29
f 21/65/30 28/64/30 27/114/30 22/108/30
f 25/57/31 17/56/31 18/115/31 26/116/31
f 30/117/32 18/115/32 17/56/32 29/77/32
f 32/73/33 20/72/33 19/113/33 31/118/33
f 29/119/34 33/120/34 34/121/34 30/122/34
f 36/123/35 32/124/35 31/125/35 35/126/35
f 38/127/36 39/128/36 40/107/36 37/106/36
f 37/129/37 34/121/37 33/120/37 38/130/37
f 39/131/38 36/123/38 35/126/38 40/132/38
f 1/55/39 2/133/39 9/90/39 17/56/39
f 42/15/40 43/4/40 44/134/40 41/135/40
f 46/23/41 47/16/41 48/136/41 45/137/41
f 50/27/42 51/24/42 52/138/42 49/139/42
f 54/3/43 55/28/43 56/140/43 53/141/43
f 41/135/44 48/136/44 47/16/44 42/15/44
f 45/142/26 52/143/26 51/144/26 46/145/26
f 49/139/45 56/140/45 55/28/45 50/27/45
f 53/146/23 44/147/23 43/148/23 54/149/23
f 2/14/1 1/1/1 43/4/1 42/15/1
f 60/150/46 57/151/46 58/152/46 59/153/46
f 64/154/47 61/155/47 62/156/47 63/11/47
f 72/34/48 69/33/48 70/157/48 71/158/48
f 68/40/49 65/39/49 66/159/49 67/160/49
f 57/37/50 64/36/50 63/161/50 58/162/50
f 65/163/51 60/164/51 59/165/51 66/166/51
f 67/160/52 70/157/52 69/33/52 68/40/52
f 71/167/53 62/168/53 61/169/53 72/170/53
f 73/171/54 59/153/54 58/152/54 74/9/54
f 44/172/55 73/171/55 74/9/55 41/173/55
f 45/174/56 77/50/56 78/53/56 52/175/56
f 62/156/57 77/47/57 75/12/57 63/11/57
f 70/6/58 80/5/58 78/46/58 71/176/58
f 66/177/59 76/41/59 79/8/59 67/178/59
f 53/179/60 76/17/60 73/20/60 44/180/60
f 41/181/61 74/9/61 75/12/61 48/49/61
f 49/44/62 80/5/62 79/8/62 56/182/62
