# MagicaVoxel @ Ephtracy

# group
o 

# material
mtllib Hero-9.mtl
usemtl palette

# normals
vn -1 0 0
vn 1 0 0
vn 0 0 1
vn 0 0 -1
vn 0 -1 0
vn 0 1 0

# texcoords
vt 0.970703 0.5
vt 0.974609 0.5
vt 0.994141 0.5

# verts
v -1.5 2.5 0.4
v -1.5 2.5 0.3
v -1.5 2.5 0.2
v -1.5 2.5 0.1
v -1.5 3 0.3
v -1.5 3 0.2
v -1.5 3.2 0.3
v -1.5 3.2 0.2
v -1.5 3.4 0.4
v -1.5 3.4 0.3
v -1.5 3.4 0.2
v -1.5 3.4 0.1
v -1.5 3.5 0.3
v -1.5 3.5 0.2
v -1.4 2.4 0.4
v -1.4 2.4 0.1
v -1.4 2.5 0.5
v -1.4 2.5 0.4
v -1.4 2.5 0.3
v -1.4 2.5 0.2
v -1.4 2.5 0.1
v -1.4 2.5 0
v -1.4 2.9 0.5
v -1.4 2.9 0.4
v -1.4 2.9 0.1
v -1.4 2.9 0
v -1.4 3.3 0.5
v -1.4 3.3 0.4
v -1.4 3.3 0.1
v -1.4 3.3 0
v -1.4 3.4 0.4
v -1.4 3.4 0.3
v -1.4 3.4 0.2
v -1.4 3.4 0.1
v -1.4 3.5 0.5
v -1.4 3.5 0.3
v -1.4 3.5 0.2
v -1.4 3.5 0
v -1.4 3.6 0.3
v -1.4 3.6 0.2
v -1.3 2.9 0.5
v -1.3 2.9 0.4
v -1.3 2.9 0.1
v -1.3 2.9 0
v -1.3 3.3 0.5
v -1.3 3.3 0.4
v -1.3 3.3 0.1
v -1.3 3.3 0
v -1.3 3.5 0.4
v -1.3 3.5 0.3
v -1.3 3.5 0.2
v -1.3 3.5 0.1
v -1.3 3.6 0.4
v -1.3 3.6 0.3
v -1.3 3.6 0.2
v -1.3 3.6 0.1
v -1.1 3.2 0.5
v -1.1 3.2 0.4
v -1.1 3.2 0.1
v -1.1 3.2 0
v -1.1 3.3 0.5
v -1.1 3.3 0.4
v -1.1 3.3 0.1
v -1.1 3.3 0
v -1.1 3.5 0.5
v -1.1 3.5 0.4
v -1.1 3.5 0.1
v -1.1 3.5 0
v -1.1 3.6 0.5
v -1.1 3.6 0.4
v -1.1 3.6 0.1
v -1.1 3.6 0
v -1.2 2.9 0.5
v -1.2 2.9 0.4
v -1.2 2.9 0.1
v -1.2 2.9 0
v -1.2 3.3 0.5
v -1.2 3.3 0.4
v -1.2 3.3 0.1
v -1.2 3.3 0
v -1.1 2.4 0.4
v -1.1 2.4 0.1
v -1.1 2.5 0.5
v -1.1 2.5 0.4
v -1.1 2.5 0.1
v -1.1 2.5 0
v -1.1 2.9 0.5
v -1.1 2.9 0.4
v -1.1 2.9 0.1
v -1.1 2.9 0
v -1 2.5 0.4
v -1 2.5 0.1
v -1 3.2 0.5
v -1 3.2 0.4
v -1 3.2 0.1
v -1 3.2 0
v -1 3.6 0.5
v -1 3.6 0
v -1.4 2.5 0.5
v -1.4 2.9 0.5
v -1.4 3.3 0.5
v -1.4 3.5 0.5
v -1.3 2.9 0.5
v -1.3 3.3 0.5
v -1.2 2.9 0.5
v -1.2 3.3 0.5
v -1.1 2.5 0.5
v -1.1 2.9 0.5
v -1.1 3.2 0.5
v -1.1 3.3 0.5
v -1.1 3.5 0.5
v -1.1 3.6 0.5
v -1 3.2 0.5
v -1 3.6 0.5
v -1.5 2.5 0.4
v -1.5 3.4 0.4
v -1.4 2.4 0.4
v -1.4 2.5 0.4
v -1.4 2.9 0.4
v -1.4 3.3 0.4
v -1.4 3.4 0.4
v -1.3 2.9 0.4
v -1.3 3.3 0.4
v -1.3 3.5 0.4
v -1.3 3.6 0.4
v -1.2 2.9 0.4
v -1.2 3.3 0.4
v -1.1 2.4 0.4
v -1.1 2.5 0.4
v -1.1 2.9 0.4
v -1.1 3.2 0.4
v -1.1 3.3 0.4
v -1.1 3.5 0.4
v -1.1 3.6 0.4
v -1 2.5 0.4
v -1 3.2 0.4
v -1.5 3.4 0.3
v -1.5 3.5 0.3
v -1.4 3.4 0.3
v -1.4 3.5 0.3
v -1.4 3.6 0.3
v -1.3 3.5 0.3
v -1.3 3.6 0.3
v -1.5 3.4 0.2
v -1.5 3.5 0.2
v -1.4 3.4 0.2
v -1.4 3.5 0.2
v -1.4 3.6 0.2
v -1.3 3.5 0.2
v -1.3 3.6 0.2
v -1.5 2.5 0.1
v -1.5 3.4 0.1
v -1.4 2.4 0.1
v -1.4 2.5 0.1
v -1.4 2.9 0.1
v -1.4 3.3 0.1
v -1.4 3.4 0.1
v -1.3 2.9 0.1
v -1.3 3.3 0.1
v -1.3 3.5 0.1
v -1.3 3.6 0.1
v -1.2 2.9 0.1
v -1.2 3.3 0.1
v -1.1 2.4 0.1
v -1.1 2.5 0.1
v -1.1 2.9 0.1
v -1.1 3.2 0.1
v -1.1 3.3 0.1
v -1.1 3.5 0.1
v -1.1 3.6 0.1
v -1 2.5 0.1
v -1 3.2 0.1
v -1.4 2.5 0
v -1.4 2.9 0
v -1.4 3.3 0
v -1.4 3.5 0
v -1.3 2.9 0
v -1.3 3.3 0
v -1.2 2.9 0
v -1.2 3.3 0
v -1.1 2.5 0
v -1.1 2.9 0
v -1.1 3.2 0
v -1.1 3.3 0
v -1.1 3.5 0
v -1.1 3.6 0
v -1 3.2 0
v -1 3.6 0
v -1.4 2.4 0.4
v -1.1 2.4 0.4
v -1.3 2.4 0.3
v -1.2 2.4 0.3
v -1.3 2.4 0.2
v -1.2 2.4 0.2
v -1.4 2.4 0.1
v -1.1 2.4 0.1
v -1.4 2.5 0.5
v -1.1 2.5 0.5
v -1.5 2.5 0.4
v -1.4 2.5 0.4
v -1.1 2.5 0.4
v -1 2.5 0.4
v -1.5 2.5 0.3
v -1.4 2.5 0.3
v -1.5 2.5 0.2
v -1.4 2.5 0.2
v -1.5 2.5 0.1
v -1.4 2.5 0.1
v -1.1 2.5 0.1
v -1 2.5 0.1
v -1.4 2.5 0
v -1.1 2.5 0
v -1.1 3.2 0.5
v -1 3.2 0.5
v -1.1 3.2 0.4
v -1 3.2 0.4
v -1.1 3.2 0.1
v -1 3.2 0.1
v -1.1 3.2 0
v -1 3.2 0
v -1.4 3.3 0.5
v -1.3 3.3 0.5
v -1.2 3.3 0.5
v -1.1 3.3 0.5
v -1.4 3.3 0.4
v -1.3 3.3 0.4
v -1.2 3.3 0.4
v -1.1 3.3 0.4
v -1.4 3.3 0.1
v -1.3 3.3 0.1
v -1.2 3.3 0.1
v -1.1 3.3 0.1
v -1.4 3.3 0
v -1.3 3.3 0
v -1.2 3.3 0
v -1.1 3.3 0
v -1.4 2.9 0.5
v -1.3 2.9 0.5
v -1.2 2.9 0.5
v -1.1 2.9 0.5
v -1.4 2.9 0.4
v -1.3 2.9 0.4
v -1.2 2.9 0.4
v -1.1 2.9 0.4
v -1.4 2.9 0.1
v -1.3 2.9 0.1
v -1.2 2.9 0.1
v -1.1 2.9 0.1
v -1.4 2.9 0
v -1.3 2.9 0
v -1.2 2.9 0
v -1.1 2.9 0
v -1.5 3.4 0.4
v -1.4 3.4 0.4
v -1.5 3.4 0.3
v -1.4 3.4 0.3
v -1.5 3.4 0.2
v -1.4 3.4 0.2
v -1.5 3.4 0.1
v -1.4 3.4 0.1
v -1.4 3.5 0.5
v -1.1 3.5 0.5
v -1.3 3.5 0.4
v -1.1 3.5 0.4
v -1.5 3.5 0.3
v -1.4 3.5 0.3
v -1.3 3.5 0.3
v -1.5 3.5 0.2
v -1.4 3.5 0.2
v -1.3 3.5 0.2
v -1.3 3.5 0.1
v -1.1 3.5 0.1
v -1.4 3.5 0
v -1.1 3.5 0
v -1.1 3.6 0.5
v -1 3.6 0.5
v -1.3 3.6 0.4
v -1.1 3.6 0.4
v -1.4 3.6 0.3
v -1.3 3.6 0.3
v -1.4 3.6 0.2
v -1.3 3.6 0.2
v -1.3 3.6 0.1
v -1.1 3.6 0.1
v -1.1 3.6 0
v -1 3.6 0

# faces
f 5/1/1 2/1/1 1/1/1
f 5/2/1 3/2/1 2/2/1
f 6/1/1 4/1/1 3/1/1
f 6/2/1 3/2/1 5/2/1
f 7/1/1 5/1/1 1/1/1
f 7/3/1 6/3/1 5/3/1
f 8/1/1 4/1/1 6/1/1
f 8/3/1 6/3/1 7/3/1
f 9/1/1 7/1/1 1/1/1
f 10/2/1 8/2/1 7/2/1
f 10/1/1 7/1/1 9/1/1
f 11/1/1 4/1/1 8/1/1
f 11/2/1 8/2/1 10/2/1
f 12/1/1 4/1/1 11/1/1
f 13/2/1 11/2/1 10/2/1
f 14/2/1 11/2/1 13/2/1
f 18/2/1 16/2/1 15/2/1
f 19/2/1 16/2/1 18/2/1
f 20/2/1 16/2/1 19/2/1
f 21/2/1 16/2/1 20/2/1
f 23/1/1 18/1/1 17/1/1
f 24/1/1 18/1/1 23/1/1
f 25/1/1 22/1/1 21/1/1
f 26/1/1 22/1/1 25/1/1
f 31/1/1 28/1/1 27/1/1
f 34/1/1 30/1/1 29/1/1
f 35/1/1 32/1/1 31/1/1
f 35/1/1 31/1/1 27/1/1
f 36/1/1 32/1/1 35/1/1
f 37/1/1 34/1/1 33/1/1
f 38/1/1 30/1/1 34/1/1
f 38/1/1 34/1/1 37/1/1
f 39/1/1 37/1/1 36/1/1
f 40/1/1 37/1/1 39/1/1
f 45/1/1 42/1/1 41/1/1
f 46/1/1 42/1/1 45/1/1
f 47/1/1 44/1/1 43/1/1
f 48/1/1 44/1/1 47/1/1
f 53/1/1 50/1/1 49/1/1
f 54/1/1 50/1/1 53/1/1
f 55/1/1 52/1/1 51/1/1
f 56/1/1 52/1/1 55/1/1
f 61/1/1 58/1/1 57/1/1
f 62/1/1 58/1/1 61/1/1
f 63/1/1 60/1/1 59/1/1
f 64/1/1 60/1/1 63/1/1
f 69/1/1 66/1/1 65/1/1
f 70/1/1 66/1/1 69/1/1
f 71/1/1 68/1/1 67/1/1
f 72/1/1 68/1/1 71/1/1
f 73/1/2 74/1/2 77/1/2
f 77/1/2 74/1/2 78/1/2
f 75/1/2 76/1/2 79/1/2
f 79/1/2 76/1/2 80/1/2
f 81/2/2 82/2/2 84/2/2
f 84/2/2 82/2/2 85/2/2
f 83/1/2 84/1/2 87/1/2
f 87/1/2 84/1/2 88/1/2
f 85/1/2 86/1/2 89/1/2
f 89/1/2 86/1/2 90/1/2
f 91/1/2 92/1/2 94/1/2
f 94/1/2 92/1/2 95/1/2
f 93/1/2 94/1/2 97/1/2
f 95/1/2 96/1/2 97/1/2
f 94/1/2 95/1/2 97/1/2
f 97/1/2 96/1/2 98/1/2
f 103/1/3 100/1/3 99/1/3
f 104/1/3 102/1/3 101/1/3
f 105/1/3 103/1/3 99/1/3
f 105/1/3 104/1/3 103/1/3
f 106/1/3 102/1/3 104/1/3
f 106/1/3 104/1/3 105/1/3
f 107/1/3 105/1/3 99/1/3
f 108/1/3 105/1/3 107/1/3
f 110/1/3 102/1/3 106/1/3
f 111/1/3 102/1/3 110/1/3
f 113/1/3 112/1/3 111/1/3
f 113/1/3 111/1/3 110/1/3
f 113/1/3 110/1/3 109/1/3
f 114/1/3 112/1/3 113/1/3
f 118/1/3 116/1/3 115/1/3
f 119/1/3 116/1/3 118/1/3
f 120/1/3 116/1/3 119/1/3
f 121/1/3 116/1/3 120/1/3
f 122/1/3 120/1/3 119/1/3
f 123/1/3 120/1/3 122/1/3
f 128/2/3 118/2/3 117/2/3
f 129/2/3 118/2/3 128/2/3
f 130/1/3 127/1/3 126/1/3
f 131/1/3 127/1/3 130/1/3
f 132/1/3 127/1/3 131/1/3
f 133/1/3 125/1/3 124/1/3
f 134/1/3 125/1/3 133/1/3
f 135/1/3 130/1/3 129/1/3
f 135/1/3 131/1/3 130/1/3
f 136/1/3 131/1/3 135/1/3
f 139/2/3 138/2/3 137/2/3
f 140/2/3 138/2/3 139/2/3
f 142/1/3 141/1/3 140/1/3
f 143/1/3 141/1/3 142/1/3
f 144/2/4 145/2/4 146/2/4
f 146/2/4 145/2/4 147/2/4
f 147/1/4 148/1/4 149/1/4
f 149/1/4 148/1/4 150/1/4
f 151/1/4 152/1/4 154/1/4
f 154/1/4 152/1/4 155/1/4
f 155/1/4 152/1/4 156/1/4
f 156/1/4 152/1/4 157/1/4
f 155/1/4 156/1/4 158/1/4
f 158/1/4 156/1/4 159/1/4
f 153/2/4 154/2/4 164/2/4
f 164/2/4 154/2/4 165/2/4
f 162/1/4 163/1/4 166/1/4
f 166/1/4 163/1/4 167/1/4
f 167/1/4 163/1/4 168/1/4
f 160/1/4 161/1/4 169/1/4
f 169/1/4 161/1/4 170/1/4
f 165/1/4 166/1/4 171/1/4
f 166/1/4 167/1/4 171/1/4
f 171/1/4 167/1/4 172/1/4
f 173/1/4 174/1/4 177/1/4
f 175/1/4 176/1/4 178/1/4
f 173/1/4 177/1/4 179/1/4
f 177/1/4 178/1/4 179/1/4
f 178/1/4 176/1/4 180/1/4
f 179/1/4 178/1/4 180/1/4
f 173/1/4 179/1/4 181/1/4
f 181/1/4 179/1/4 182/1/4
f 180/1/4 176/1/4 184/1/4
f 184/1/4 176/1/4 185/1/4
f 185/1/4 186/1/4 187/1/4
f 184/1/4 185/1/4 187/1/4
f 183/1/4 184/1/4 187/1/4
f 187/1/4 186/1/4 188/1/4
f 191/2/5 190/2/5 189/2/5
f 192/2/5 190/2/5 191/2/5
f 193/2/5 191/2/5 189/2/5
f 193/1/5 192/1/5 191/1/5
f 194/2/5 190/2/5 192/2/5
f 194/1/5 192/1/5 193/1/5
f 195/2/5 193/2/5 189/2/5
f 195/2/5 194/2/5 193/2/5
f 196/2/5 190/2/5 194/2/5
f 196/2/5 194/2/5 195/2/5
f 200/1/5 198/1/5 197/1/5
f 201/1/5 198/1/5 200/1/5
f 203/1/5 200/1/5 199/1/5
f 204/1/5 200/1/5 203/1/5
f 205/2/5 204/2/5 203/2/5
f 206/2/5 204/2/5 205/2/5
f 207/1/5 206/1/5 205/1/5
f 208/1/5 206/1/5 207/1/5
f 209/1/5 202/1/5 201/1/5
f 210/1/5 202/1/5 209/1/5
f 211/1/5 209/1/5 208/1/5
f 212/1/5 209/1/5 211/1/5
f 215/1/5 214/1/5 213/1/5
f 216/1/5 214/1/5 215/1/5
f 219/1/5 218/1/5 217/1/5
f 220/1/5 218/1/5 219/1/5
f 225/1/5 222/1/5 221/1/5
f 226/1/5 222/1/5 225/1/5
f 227/1/5 224/1/5 223/1/5
f 228/1/5 224/1/5 227/1/5
f 233/1/5 230/1/5 229/1/5
f 234/1/5 230/1/5 233/1/5
f 235/1/5 232/1/5 231/1/5
f 236/1/5 232/1/5 235/1/5
f 237/1/6 238/1/6 241/1/6
f 241/1/6 238/1/6 242/1/6
f 239/1/6 240/1/6 243/1/6
f 243/1/6 240/1/6 244/1/6
f 245/1/6 246/1/6 249/1/6
f 249/1/6 246/1/6 250/1/6
f 247/1/6 248/1/6 251/1/6
f 251/1/6 248/1/6 252/1/6
f 253/1/6 254/1/6 255/1/6
f 255/1/6 254/1/6 256/1/6
f 257/1/6 258/1/6 259/1/6
f 259/1/6 258/1/6 260/1/6
f 261/1/6 262/1/6 263/1/6
f 263/1/6 262/1/6 264/1/6
f 261/1/6 263/1/6 266/1/6
f 266/1/6 263/1/6 267/1/6
f 265/2/6 266/2/6 268/2/6
f 268/2/6 266/2/6 269/2/6
f 269/1/6 270/1/6 271/1/6
f 269/1/6 271/1/6 273/1/6
f 271/1/6 272/1/6 273/1/6
f 273/1/6 272/1/6 274/1/6
f 275/1/6 276/1/6 278/1/6
f 277/1/6 278/1/6 280/1/6
f 279/1/6 280/1/6 281/1/6
f 280/1/6 278/1/6 282/1/6
f 281/1/6 280/1/6 282/1/6
f 282/1/6 278/1/6 283/1/6
f 278/1/6 276/1/6 284/1/6
f 283/1/6 278/1/6 284/1/6
f 284/1/6 276/1/6 285/1/6
f 285/1/6 276/1/6 286/1/6
