# Blender v2.93.5 OBJ File: 'LeftHand1.blend'
# www.blender.org
mtllib Hero-7.mtl
o Cube_Cube.001
v -1.306764 1.652407 0.421691
v -1.424114 1.652407 0.304341
v -1.424114 1.652407 0.178026
v -1.306764 1.652407 0.060676
v -1.040960 1.652407 0.304341
v -1.188858 1.652407 0.421691
v -1.196069 1.652407 0.060676
v -1.064093 1.652407 0.178026
v -1.424114 1.498522 0.304341
v -1.424114 1.498522 0.178026
v -1.424114 1.402184 0.304341
v -1.424114 1.402184 0.178026
v -1.272782 1.284429 0.304341
v -1.272782 1.284429 0.178026
v -1.151676 1.284429 0.304341
v -1.151676 1.284429 0.178026
v -1.362767 1.563391 0.393689
v -1.305519 1.498522 0.409656
v -1.305519 1.498522 0.072711
v -1.362767 1.563391 0.088678
v -1.072347 1.563391 0.178026
v -1.066587 1.498522 0.188316
v -1.183395 1.498522 0.072711
v -1.196069 1.563391 0.060676
v -1.194156 1.563391 0.421691
v -1.183375 1.498522 0.409656
v -1.060266 1.498522 0.294051
v -1.057116 1.563391 0.304341
v -1.363172 1.402184 0.365282
v -1.306764 1.402184 0.356822
v -1.306764 1.402184 0.125545
v -1.363172 1.402184 0.117085
v -1.272782 1.360958 0.380870
v -1.272782 1.401779 0.356822
v -1.272782 1.401779 0.125545
v -1.272782 1.360958 0.101498
v -1.132715 1.401779 0.356822
v -1.097383 1.360431 0.380343
v -1.097383 1.360431 0.102024
v -1.132715 1.401779 0.125545
v -1.481588 1.685042 0.328148
v -1.448953 1.652407 0.314630
v -1.317052 1.652407 0.446530
v -1.330570 1.685042 0.479166
v -1.330570 1.685042 0.003202
v -1.317052 1.652407 0.035837
v -1.448953 1.652407 0.167738
v -1.481588 1.685042 0.154219
v -1.009655 1.685042 0.154219
v -1.040283 1.652407 0.167738
v -1.185781 1.652407 0.035837
v -1.172263 1.685042 0.003202
v -1.167597 1.685042 0.479166
v -1.179516 1.652407 0.446530
v -1.013084 1.652407 0.314630
v -0.977925 1.685042 0.328148
v -1.439202 2.393672 0.310591
v -1.481588 2.351285 0.328148
v -1.330570 2.351285 0.479166
v -1.313013 2.393672 0.436780
v -1.313013 2.393672 0.045588
v -1.330570 2.351285 0.003202
v -1.481588 2.351285 0.154219
v -1.439202 2.393672 0.171776
v -1.189819 2.393672 0.436780
v -1.172263 2.351285 0.479166
v -1.009655 2.351285 0.328148
v -1.050037 2.393672 0.310591
v -1.024898 2.393672 0.171776
v -0.977925 2.351285 0.154219
v -1.167597 2.351285 0.003202
v -1.183467 2.393672 0.045588
v -1.307730 2.018164 0.425959
v -1.430128 2.018164 0.308705
v -1.430128 2.018164 0.173662
v -1.187415 2.018164 0.425959
v -1.307730 2.018164 0.056408
v -1.187415 2.018164 0.056408
v -1.085640 2.018164 0.308705
v -1.085640 2.018164 0.173662
vt 0.972023 0.699925
vt 0.971883 0.630335
vt 0.971862 0.647099
vt 0.971472 0.151973
vt 0.970845 0.376693
vt 0.971472 0.376798
vt 0.971198 0.179910
vt 0.970931 0.405610
vt 0.970271 0.405165
vt 0.971337 0.707380
vt 0.971499 0.630335
vt 0.971286 0.700436
vt 0.973145 0.401584
vt 0.972915 0.176584
vt 0.972915 0.401408
vt 0.971337 0.819386
vt 0.971477 0.888976
vt 0.971498 0.872212
vt 0.971839 0.872212
vt 0.972074 0.818875
vt 0.972023 0.811931
vt 0.972074 0.692981
vt 0.978315 0.575778
vt 0.978506 0.665860
vt 0.978315 0.665860
vt 0.970542 0.665633
vt 0.970363 0.724424
vt 0.970363 0.844866
vt 0.970033 0.376781
vt 0.970472 0.601605
vt 0.971472 0.601623
vt 0.971911 0.376798
vt 0.970492 0.405514
vt 0.970931 0.630421
vt 0.971286 0.826330
vt 0.971860 0.888976
vt 0.975254 0.176601
vt 0.975023 0.401601
vt 0.975254 0.401426
vt 0.979801 0.731016
vt 0.979958 0.683214
vt 0.979958 0.731529
vt 0.979029 0.327529
vt 0.978827 0.410532
vt 0.978827 0.327009
vt 0.977724 0.691220
vt 0.977533 0.642699
vt 0.977723 0.642738
vt 0.977373 0.615368
vt 0.977373 0.672760
vt 0.977125 0.735510
vt 0.979029 0.411052
vt 0.979213 0.463310
vt 0.979029 0.463341
vt 0.977533 0.552617
vt 0.977724 0.552656
vt 0.979630 0.595176
vt 0.979661 0.531931
vt 0.979784 0.573153
vt 0.979384 0.327469
vt 0.979541 0.375271
vt 0.979259 0.375927
vt 0.979244 0.526554
vt 0.979769 0.456282
vt 0.979562 0.346636
vt 0.979769 0.326957
vt 0.979446 0.647433
vt 0.979676 0.682558
vt 0.978827 0.462821
vt 0.978991 0.561401
vt 0.979424 0.531931
vt 0.979261 0.561401
vt 0.979425 0.627137
vt 0.978991 0.709280
vt 0.979261 0.627137
vt 0.979261 0.709280
vt 0.978294 0.714083
vt 0.978221 0.588546
vt 0.978294 0.588546
vt 0.978991 0.627137
vt 0.978827 0.627137
vt 0.978221 0.714083
vt 0.977921 0.588546
vt 0.977394 0.562072
vt 0.977394 0.650814
vt 0.978645 0.585262
vt 0.978506 0.575778
vt 0.979366 0.410936
vt 0.977533 0.691181
vt 0.979783 0.647549
vt 0.979957 0.648114
vt 0.979697 0.595471
vt 0.979280 0.463014
vt 0.979790 0.394481
vt 0.979878 0.398420
vt 0.979878 0.423317
vt 0.978666 0.604615
vt 0.978754 0.600676
vt 0.978754 0.613720
vt 0.977845 0.726850
vt 0.977921 0.714083
vt 0.979878 0.331616
vt 0.979790 0.326957
vt 0.978754 0.667480
vt 0.978666 0.672139
vt 0.979446 0.730956
vt 0.971472 0.608309
vt 0.971219 0.835453
vt 0.971449 0.911002
vt 0.971888 0.911002
vt 0.972141 0.827998
vt 0.972141 0.683858
vt 0.971219 0.691313
vt 0.974561 0.935805
vt 0.974398 0.851133
vt 0.974331 0.860256
vt 0.975023 0.633112
vt 0.975187 0.717785
vt 0.975254 0.708661
vt 0.971521 0.647099
vt 0.969374 0.151861
vt 0.969782 0.180703
vt 0.969741 0.151781
vt 0.970900 0.151861
vt 0.970492 0.180703
vt 0.970931 0.180799
vt 0.970565 0.911113
vt 0.970968 0.939800
vt 0.970932 0.911114
vt 0.970276 0.712655
vt 0.970276 0.856795
vt 0.971111 0.731881
vt 0.970945 0.637108
vt 0.970909 0.665634
vt 0.973655 0.690436
vt 0.973388 0.737458
vt 0.973476 0.749228
vt 0.974311 0.889055
vt 0.974045 0.935917
vt 0.974081 0.964604
vt 0.969782 0.405514
vt 0.969343 0.180799
vt 0.969343 0.630421
vt 0.969782 0.630324
vt 0.975254 0.626251
vt 0.975023 0.626426
vt 0.971911 0.151973
vt 0.970472 0.151956
vt 0.970033 0.151956
vt 0.972915 0.626233
vt 0.973145 0.626408
vt 0.971198 0.629531
vt 0.971219 0.601430
vt 0.971219 0.151781
vt 0.973145 0.176759
vt 0.971111 0.852323
vt 0.970033 0.601605
vt 0.971911 0.601623
vt 0.970492 0.630324
vt 0.975023 0.176776
vt 0.976864 0.735510
vt 0.976864 0.552617
vt 0.977125 0.552617
vt 0.979446 0.595144
vt 0.979541 0.326957
vt 0.979367 0.485332
vt 0.979562 0.435404
vt 0.978828 0.531931
vt 0.978645 0.674004
vt 0.979540 0.410371
vt 0.977394 0.691397
vt 0.979878 0.385376
vt 0.978754 0.575778
vt 0.977845 0.575778
vt 0.971911 0.608309
vt 0.974589 0.913779
vt 0.974996 0.655138
vt 0.970533 0.151781
vt 0.970529 0.939799
vt 0.971198 0.720112
vt 0.973618 0.661910
vt 0.974224 0.877126
vn 0.0000 -1.0000 -0.0000
vn 0.9515 -0.3077 0.0000
vn -0.9883 -0.1527 0.0000
vn 0.0000 -0.1577 0.9875
vn 0.6176 -0.1121 0.7784
vn 0.0000 1.0000 -0.0000
vn 0.7268 0.2718 0.6308
vn 0.7390 0.2060 -0.6414
vn -0.6842 0.1474 -0.7142
vn 0.0000 -0.1577 -0.9875
vn 0.0000 0.0000 1.0000
vn -1.0000 0.0000 0.0000
vn 0.9796 -0.0908 -0.1794
vn -0.7071 0.0000 -0.7071
vn 0.6645 0.0000 -0.7473
vn -0.4061 -0.6462 0.6462
vn -0.1623 -0.2018 -0.9659
vn -0.5233 -0.6725 -0.5233
vn 0.9999 -0.0129 0.0000
vn -0.7820 -0.1062 0.6141
vn -0.8244 0.0000 -0.5660
vn 0.8137 -0.5813 0.0000
vn 0.0000 -0.7071 0.7071
vn -0.6141 -0.7892 0.0000
vn 0.0119 0.9999 0.0000
vn 0.0000 -0.7071 -0.7071
vn 0.7025 -0.0502 -0.7099
vn 0.6501 -0.0328 0.7592
vn -0.1649 0.0961 -0.9816
vn 0.9904 0.0690 -0.1194
vn 0.0000 -0.1824 0.9832
vn 0.1303 -0.4780 0.8686
vn 0.1303 -0.4780 -0.8686
vn 0.1216 0.5730 0.8105
vn 0.0060 0.5076 -0.8616
vn 0.7602 0.6496 0.0000
vn 0.0041 0.4971 0.8677
vn 0.0041 0.4971 -0.8677
vn -0.6902 0.2171 0.6902
vn -0.5000 -0.7071 0.5000
vn -0.5000 -0.7071 -0.5000
vn 0.4953 -0.6857 -0.5333
vn 0.4383 -0.7106 0.5505
vn -0.7071 -0.7071 0.0000
vn 0.6959 -0.7065 -0.1289
vn -0.5000 0.7071 0.5000
vn -0.5000 0.7071 -0.5000
vn 0.4369 0.7126 -0.5490
vn 0.4929 0.6894 0.5307
vn -0.7071 0.7071 0.0000
vn 0.0000 0.7071 0.7071
vn 0.6919 0.7111 0.1253
vn 0.0000 0.7071 -0.7071
vn -0.6842 -0.1474 0.7142
vn -0.6981 0.1594 0.6981
vn 0.0000 0.1577 -0.9875
vn -0.6981 -0.1594 -0.6981
vn 0.6149 -0.1599 -0.7722
vn 0.6732 -0.1464 0.7248
vn 0.0000 0.1577 0.9875
vn -0.9883 0.1527 0.0000
vn 0.9577 0.2286 -0.1747
vn 0.9577 -0.2286 0.1747
vn 0.6499 -0.0387 0.7590
vn 0.6149 0.1599 0.7722
vn 0.6732 0.1464 -0.7248
vn -0.6981 0.1594 -0.6981
vn -0.1604 -0.2029 0.9660
vn 0.9771 -0.1773 -0.1178
vn -0.7820 -0.1062 -0.6141
vn 0.6868 -0.0637 -0.7241
vn -0.5233 -0.6725 0.5233
vn 0.0000 0.0000 -1.0000
vn -0.4061 -0.6462 -0.6462
vn -0.7071 0.0000 0.7071
vn -0.6902 0.2171 -0.6902
vn 0.6882 -0.0002 -0.7255
vn 0.6771 -0.1473 0.7210
vn 0.0000 -0.1824 -0.9832
vn 0.9975 -0.0390 -0.0596
vn -0.1630 0.0978 0.9818
vn -0.4254 -0.1560 0.8914
vn -0.4254 -0.1560 -0.8914
vn 0.0060 0.5076 0.8616
vn 0.1216 0.5730 -0.8105
vn 0.0000 0.5076 0.8616
vn 0.0000 0.5076 -0.8616
vn -0.8244 0.0000 0.5660
vn 0.4704 -0.7138 -0.5189
vn 0.4406 -0.7049 0.5559
vn 0.7007 -0.7019 -0.1278
vn 0.4373 0.7121 -0.5492
vn 0.4692 0.7140 0.5197
vn 0.6901 0.7127 0.1259
vn -0.6981 -0.1594 0.6981
vn -0.6842 0.1474 0.7142
vn -0.6842 -0.1474 -0.7142
vn 0.7268 -0.2718 -0.6308
vn 0.7390 -0.2060 0.6414
vn 0.9515 0.3077 0.0000
usemtl None
s off
f 6/1/1 43/2/1 1/3/1
f 70/4/2 79/5/2 80/6/2
f 58/7/3 75/8/3 74/9/3
f 3/10/1 42/11/1 47/12/1
f 76/13/4 59/14/4 73/15/4
f 4/16/1 51/17/1 7/18/1
f 8/19/1 55/20/1 5/21/1
f 5/21/1 54/22/1 6/1/1
f 6/23/5 28/24/5 5/25/5
f 60/26/6 65/27/6 68/28/6
f 76/29/7 56/30/7 79/5/7
f 49/31/8 78/32/8 80/6/8
f 77/33/9 48/34/9 75/8/9
f 3/10/1 46/35/1 4/16/1
f 7/18/1 50/36/1 8/19/1
f 62/37/10 78/38/10 77/39/10
f 1/40/11 25/41/11 6/42/11
f 3/43/12 9/44/12 2/45/12
f 5/46/13 21/47/13 8/48/13
f 22/49/1 27/50/1 26/51/1
f 10/52/14 32/53/14 12/54/14
f 8/48/15 24/55/15 7/56/15
f 29/57/16 13/58/16 33/59/16
f 4/60/17 24/61/17 20/62/17
f 32/53/18 14/63/18 12/54/18
f 18/64/19 31/65/19 19/66/19
f 9/67/20 29/57/20 17/68/20
f 3/43/21 20/62/21 10/52/21
f 10/52/12 11/69/12 9/44/12
f 16/70/22 38/71/22 15/72/22
f 33/73/23 15/72/23 38/71/23
f 12/74/24 13/75/24 11/76/24
f 30/77/25 35/78/25 31/79/25
f 14/80/1 15/72/1 13/75/1
f 36/81/26 16/70/26 14/80/26
f 34/82/6 40/83/6 35/78/6
f 23/84/27 21/47/27 22/85/27
f 26/86/28 28/24/28 25/87/28
f 24/61/29 19/88/29 20/62/29
f 28/89/30 22/85/30 21/47/30
f 25/41/31 18/90/31 26/91/31
f 18/90/32 29/57/32 30/92/32
f 32/53/33 19/88/33 31/93/33
f 33/94/34 30/95/34 29/96/34
f 36/97/35 31/98/35 35/99/35
f 38/100/36 40/83/36 37/101/36
f 37/102/37 33/94/37 38/103/37
f 36/97/38 40/104/38 39/105/38
f 2/106/39 17/68/39 1/40/39
f 43/2/40 41/107/40 42/11/40
f 47/12/41 45/108/41 46/35/41
f 50/36/42 52/109/42 49/110/42
f 54/22/43 56/111/43 53/112/43
f 48/113/44 42/11/44 41/107/44
f 52/114/26 46/115/26 45/116/26
f 49/110/45 55/20/45 50/36/45
f 44/117/23 54/118/23 53/119/23
f 2/120/1 43/2/1 42/11/1
f 57/121/46 59/122/46 60/123/46
f 64/124/47 62/125/47 63/126/47
f 69/127/48 71/128/48 72/129/48
f 68/28/49 66/130/49 67/131/49
f 64/132/50 58/133/50 57/134/50
f 60/135/51 66/136/51 65/137/51
f 67/131/52 69/127/52 68/28/52
f 62/138/53 72/139/53 71/140/53
f 73/141/54 58/142/54 74/9/54
f 73/141/55 41/143/55 44/144/55
f 45/145/56 78/38/56 52/146/56
f 77/33/57 63/126/57 62/125/57
f 70/4/58 78/32/58 71/147/58
f 76/29/59 67/148/59 66/149/59
f 76/13/60 44/150/60 53/151/60
f 41/152/61 75/8/61 48/34/61
f 80/6/62 56/153/62 49/31/62
f 6/1/1 54/22/1 43/2/1
f 70/4/63 67/154/63 79/5/63
f 58/7/3 63/126/3 75/8/3
f 3/10/1 2/120/1 42/11/1
f 76/13/4 66/155/4 59/14/4
f 4/16/1 46/35/1 51/17/1
f 8/19/1 50/36/1 55/20/1
f 5/21/1 55/20/1 54/22/1
f 6/23/64 25/87/64 28/24/64
f 68/28/6 69/127/6 64/132/6
f 69/127/6 72/129/6 64/132/6
f 72/129/6 61/156/6 64/132/6
f 64/132/6 57/134/6 68/28/6
f 57/134/6 60/26/6 68/28/6
f 76/29/65 53/157/65 56/30/65
f 49/31/66 52/158/66 78/32/66
f 77/33/67 45/159/67 48/34/67
f 3/10/1 47/12/1 46/35/1
f 7/18/1 51/17/1 50/36/1
f 62/37/10 71/160/10 78/38/10
f 1/40/68 17/68/68 25/41/68
f 3/43/12 10/52/12 9/44/12
f 5/46/69 28/89/69 21/47/69
f 26/51/1 18/161/1 19/162/1
f 19/162/1 23/163/1 26/51/1
f 23/163/1 22/49/1 26/51/1
f 10/52/70 20/62/70 32/53/70
f 8/48/71 21/47/71 24/55/71
f 29/57/72 11/164/72 13/58/72
f 4/60/73 7/165/73 24/61/73
f 32/53/74 36/166/74 14/63/74
f 18/64/19 30/167/19 31/65/19
f 9/67/75 11/164/75 29/57/75
f 3/43/76 4/60/76 20/62/76
f 10/52/12 12/54/12 11/69/12
f 16/70/22 39/168/22 38/71/22
f 33/73/23 13/75/23 15/72/23
f 12/74/24 14/80/24 13/75/24
f 30/77/25 34/82/25 35/78/25
f 14/80/1 16/70/1 15/72/1
f 36/81/26 39/168/26 16/70/26
f 34/82/6 37/101/6 40/83/6
f 23/84/77 24/55/77 21/47/77
f 26/86/78 27/169/78 28/24/78
f 24/61/79 23/170/79 19/88/79
f 28/89/80 27/171/80 22/85/80
f 25/41/81 17/68/81 18/90/81
f 18/90/82 17/68/82 29/57/82
f 32/53/83 20/62/83 19/88/83
f 33/94/84 34/172/84 30/95/84
f 36/97/85 32/173/85 31/98/85
f 38/100/36 39/174/36 40/83/36
f 37/102/86 34/172/86 33/94/86
f 36/97/87 35/99/87 40/104/87
f 2/106/88 9/67/88 17/68/88
f 43/2/40 44/175/40 41/107/40
f 47/12/41 48/113/41 45/108/41
f 50/36/89 51/17/89 52/109/89
f 54/22/90 55/20/90 56/111/90
f 48/113/44 47/12/44 42/11/44
f 52/114/26 51/176/26 46/115/26
f 49/110/91 56/111/91 55/20/91
f 44/117/23 43/177/23 54/118/23
f 2/120/1 1/3/1 43/2/1
f 57/121/46 58/142/46 59/122/46
f 64/124/47 61/178/47 62/125/47
f 69/127/92 70/179/92 71/128/92
f 68/28/93 65/27/93 66/130/93
f 64/132/50 63/180/50 58/133/50
f 60/135/51 59/181/51 66/136/51
f 67/131/94 70/179/94 69/127/94
f 62/138/53 61/182/53 72/139/53
f 73/141/95 59/122/95 58/142/95
f 73/141/96 74/9/96 41/143/96
f 45/145/56 77/39/56 78/38/56
f 77/33/97 75/8/97 63/126/97
f 70/4/98 80/6/98 78/32/98
f 76/29/99 79/5/99 67/148/99
f 76/13/60 73/15/60 44/150/60
f 41/152/61 74/9/61 75/8/61
f 80/6/100 79/5/100 56/153/100
