# MagicaVoxel @ Ephtracy

# group
o 

# material
mtllib LargeMedicalKit_LOD1.mtl
usemtl palette

# normals
vn 1 0 0
vn -1 0 0
vn 0 0 -1
vn 0 0 1
vn 0 -1 0
vn 0 1 0

# texcoords
vt 0.974609 0.5
vt 0.982422 0.5

# verts
v 0.5 -0.2 -0.3
v 0.5 -0.2 0.3
v 0.5 -0.1 -0.1
v 0.5 -0.1 0
v 0.5 0.2 -0.1
v 0.5 0.2 0
v 0.5 0.4 -0.3
v 0.5 0.4 0.3
v -0.6 -0.2 -0.3
v -0.6 -0.2 0.3
v -0.6 -0.1 -0.1
v -0.6 -0.1 0
v -0.6 0.2 -0.1
v -0.6 0.2 0
v -0.6 0.4 -0.3
v -0.6 0.4 0.3
v 0.5 -0.2 -0.3
v 0.5 0.4 -0.3
v 0.3 -0.1 -0.3
v 0.3 0.1 -0.3
v 0.2 -0.1 -0.3
v 0.2 0.1 -0.3
v -0.3 -0.1 -0.3
v -0.3 0.1 -0.3
v -0.4 -0.1 -0.3
v -0.4 0.1 -0.3
v -0.6 -0.2 -0.3
v -0.6 0.4 -0.3
v 0.5 -0.2 0.3
v 0.5 0.4 0.3
v 0.3 -0.1 0.3
v 0.3 0.2 0.3
v 0.2 -0.1 0.3
v 0.2 0.2 0.3
v 0.1 0.1 0.3
v 0.1 0.2 0.3
v 0 0 0.3
v 0 0.1 0.3
v 0 0.2 0.3
v 0 0.3 0.3
v -0.1 0 0.3
v -0.1 0.1 0.3
v -0.1 0.2 0.3
v -0.1 0.3 0.3
v -0.2 0.1 0.3
v -0.2 0.2 0.3
v -0.3 -0.1 0.3
v -0.3 0.2 0.3
v -0.4 -0.1 0.3
v -0.4 0.2 0.3
v -0.6 -0.2 0.3
v -0.6 0.4 0.3
v 0.5 -0.2 -0.3
v -0.6 -0.2 -0.3
v 0.5 -0.2 0.3
v -0.6 -0.2 0.3
v 0.5 0.4 -0.3
v -0.6 0.4 -0.3
v 0.5 0.4 0.3
v -0.6 0.4 0.3

# faces
f 3/1/1 2/1/1 1/1/1
f 4/1/1 2/1/1 3/1/1
f 5/1/1 3/1/1 1/1/1
f 5/2/1 4/2/1 3/2/1
f 6/1/1 2/1/1 4/1/1
f 6/2/1 4/2/1 5/2/1
f 7/1/1 5/1/1 1/1/1
f 7/1/1 6/1/1 5/1/1
f 8/1/1 2/1/1 6/1/1
f 8/1/1 6/1/1 7/1/1
f 9/1/2 10/1/2 11/1/2
f 11/1/2 10/1/2 12/1/2
f 9/1/2 11/1/2 13/1/2
f 11/2/2 12/2/2 13/2/2
f 12/1/2 10/1/2 14/1/2
f 13/2/2 12/2/2 14/2/2
f 9/1/2 13/1/2 15/1/2
f 13/1/2 14/1/2 15/1/2
f 14/1/2 10/1/2 16/1/2
f 15/1/2 14/1/2 16/1/2
f 19/1/3 18/1/3 17/1/3
f 20/1/3 18/1/3 19/1/3
f 21/1/3 19/1/3 17/1/3
f 21/2/3 20/2/3 19/2/3
f 22/1/3 18/1/3 20/1/3
f 22/2/3 20/2/3 21/2/3
f 23/1/3 21/1/3 17/1/3
f 23/1/3 22/1/3 21/1/3
f 24/1/3 18/1/3 22/1/3
f 24/1/3 22/1/3 23/1/3
f 25/1/3 23/1/3 17/1/3
f 25/2/3 24/2/3 23/2/3
f 26/1/3 18/1/3 24/1/3
f 26/2/3 24/2/3 25/2/3
f 27/1/3 25/1/3 17/1/3
f 27/1/3 26/1/3 25/1/3
f 28/1/3 18/1/3 26/1/3
f 28/1/3 26/1/3 27/1/3
f 29/1/4 30/1/4 31/1/4
f 31/1/4 30/1/4 32/1/4
f 29/1/4 31/1/4 33/1/4
f 31/2/4 32/2/4 33/2/4
f 32/1/4 30/1/4 34/1/4
f 33/2/4 32/2/4 34/2/4
f 33/1/4 34/1/4 35/1/4
f 34/1/4 30/1/4 36/1/4
f 35/1/4 34/1/4 36/1/4
f 33/1/4 35/1/4 37/1/4
f 35/2/4 36/2/4 38/2/4
f 37/1/4 35/1/4 38/1/4
f 36/1/4 30/1/4 39/1/4
f 38/2/4 36/2/4 39/2/4
f 39/1/4 30/1/4 40/1/4
f 37/2/4 38/2/4 41/2/4
f 33/1/4 37/1/4 41/1/4
f 39/2/4 40/2/4 41/2/4
f 38/2/4 39/2/4 41/2/4
f 41/2/4 40/2/4 42/2/4
f 42/2/4 40/2/4 43/2/4
f 40/1/4 30/1/4 44/1/4
f 43/2/4 40/2/4 44/2/4
f 42/2/4 43/2/4 45/2/4
f 41/1/4 42/1/4 45/1/4
f 43/1/4 44/1/4 46/1/4
f 45/2/4 43/2/4 46/2/4
f 29/1/4 33/1/4 47/1/4
f 33/1/4 41/1/4 47/1/4
f 45/1/4 46/1/4 47/1/4
f 41/1/4 45/1/4 47/1/4
f 46/1/4 44/1/4 48/1/4
f 47/1/4 46/1/4 48/1/4
f 29/1/4 47/1/4 49/1/4
f 47/2/4 48/2/4 49/2/4
f 48/1/4 44/1/4 50/1/4
f 49/2/4 48/2/4 50/2/4
f 29/1/4 49/1/4 51/1/4
f 49/1/4 50/1/4 51/1/4
f 50/1/4 44/1/4 52/1/4
f 51/1/4 50/1/4 52/1/4
f 44/1/4 30/1/4 52/1/4
f 55/1/5 54/1/5 53/1/5
f 56/1/5 54/1/5 55/1/5
f 57/1/6 58/1/6 59/1/6
f 59/1/6 58/1/6 60/1/6
