# MagicaVoxel @ Ephtracy

# group
o 

# material
mtllib BigRock2_LOD0.mtl
usemtl palette

# normals
vn -1 0 0
vn 1 0 0
vn 0 0 1
vn 0 0 -1
vn 0 -1 0
vn 0 1 0

# texcoords
vt 0.939453 0.5
vt 0.986328 0.5
vt 0.990234 0.5
vt 0.994141 0.5

# verts
v -0.5 -0.1 0.4
v -0.5 -0.1 0.3
v -0.5 0 0.4
v -0.5 0 0.3
v -0.4 -0.1 0.3
v -0.4 -0.1 0.2
v -0.4 -0.1 -0.1
v -0.4 -0.1 -0.3
v -0.4 0 0.4
v -0.4 0 0.3
v -0.4 0 0.2
v -0.4 0 -0.1
v -0.4 0 -0.3
v -0.4 0.1 0.4
v -0.4 0.1 0.3
v -0.3 -0.1 0.5
v -0.3 -0.1 0.4
v -0.3 -0.1 0.2
v -0.3 -0.1 0.1
v -0.3 -0.1 -0.1
v -0.3 0 0.5
v -0.3 0 0.4
v -0.3 0 0.3
v -0.3 0 0.2
v -0.3 0 0.1
v -0.3 0 0
v -0.3 0 -0.1
v -0.3 0 -0.3
v -0.3 0.1 0.3
v -0.3 0.1 0.2
v -0.3 0.1 0.1
v -0.3 0.1 0
v -0.3 0.1 -0.1
v -0.3 0.1 -0.2
v -0.3 0.1 -0.3
v -0.3 0.2 0.3
v -0.3 0.2 0.2
v -0.3 0.2 -0.1
v -0.3 0.2 -0.2
v -0.3 0.3 -0.1
v -0.3 0.3 -0.2
v -0.2 0 0.2
v -0.2 0 0.1
v -0.2 0 0
v -0.2 0 -0.1
v -0.2 0.1 0.2
v -0.2 0.1 0.1
v -0.2 0.1 0
v -0.2 0.1 -0.1
v -0.2 0.1 -0.2
v -0.2 0.1 -0.3
v -0.2 0.2 0.3
v -0.2 0.2 0.2
v -0.2 0.2 0.1
v -0.2 0.2 0
v -0.2 0.2 -0.1
v -0.2 0.2 -0.2
v -0.2 0.2 -0.3
v -0.2 0.3 0.3
v -0.2 0.3 0.2
v -0.2 0.3 0.1
v -0.2 0.3 0
v -0.2 0.3 -0.1
v -0.2 0.4 0
v -0.2 0.4 -0.1
v -0.1 0 0.5
v -0.1 0 0.4
v -0.1 0.1 0.5
v -0.1 0.1 0.4
v -0.1 0.1 0.3
v -0.1 0.2 0.4
v -0.1 0.2 0.3
v -0.1 0.2 0.1
v -0.1 0.2 0
v -0.1 0.3 0.2
v -0.1 0.3 0.1
v -0.1 0.3 0
v -0.1 0.3 -0.1
v -0.1 0.3 -0.2
v -0.1 0.4 0.2
v -0.1 0.4 0.1
v -0.1 0.4 0
v -0.1 0.4 -0.1
v -0.1 0.4 -0.2
v 0 -0.1 -0.3
v 0 -0.1 -0.4
v 0 0 -0.3
v 0 0 -0.4
v 0 0.2 0.4
v 0 0.2 0.3
v 0 0.3 0.4
v 0 0.3 0.3
v 0 0.3 0.2
v 0 0.4 0.3
v 0 0.4 0.2
v 0 0.1 -0.2
v 0 0.1 -0.3
v 0 0.2 -0.2
v 0 0.2 -0.3
v 0 0.3 0
v 0 0.3 -0.1
v 0 0.3 -0.2
v 0 0.4 0
v 0 0.4 -0.1
v 0 0.4 -0.2
v 0.1 0 0.5
v 0.1 0 0.4
v 0.1 0 -0.2
v 0.1 0 -0.3
v 0.1 0.1 0.5
v 0.1 0.1 0.4
v 0.1 0.1 0.3
v 0.1 0.1 -0.2
v 0.1 0.1 -0.3
v 0.1 0.2 0.4
v 0.1 0.2 0.3
v 0.1 0.2 0
v 0.1 0.2 -0.1
v 0.1 0.2 -0.2
v 0.1 0.3 0.4
v 0.1 0.3 0.3
v 0.1 0.3 0.2
v 0.1 0.3 0.1
v 0.1 0.3 0
v 0.1 0.3 -0.1
v 0.1 0.3 -0.2
v 0.1 0.4 0.3
v 0.1 0.4 0.2
v 0.1 0.4 0.1
v 0.1 0.4 0
v 0.2 -0.1 -0.3
v 0.2 -0.1 -0.4
v 0.2 0 -0.3
v 0.2 0 -0.4
v 0.2 0.1 0
v 0.2 0.1 -0.1
v 0.2 0.1 -0.2
v 0.2 0.2 0.3
v 0.2 0.2 0.2
v 0.2 0.2 0
v 0.2 0.2 -0.1
v 0.2 0.2 -0.2
v 0.2 0.3 0.3
v 0.2 0.3 0.2
v 0.2 0.3 0.1
v 0.2 0.4 0.2
v 0.2 0.4 0.1
v 0.3 -0.1 0.5
v 0.3 -0.1 0.4
v 0.3 -0.1 -0.2
v 0.3 -0.1 -0.3
v 0.3 0 0.5
v 0.3 0 0.4
v 0.3 0 0.3
v 0.3 0 -0.1
v 0.3 0 -0.2
v 0.3 0 -0.3
v 0.3 0.1 0.4
v 0.3 0.1 0.3
v 0.3 0.1 0.2
v 0.3 0.1 0.1
v 0.3 0.1 0
v 0.3 0.1 -0.1
v 0.3 0.1 -0.2
v 0.3 0.2 0.3
v 0.3 0.2 0.2
v 0.3 0.2 0.1
v 0.3 0.2 0
v 0.3 0.3 0.2
v 0.3 0.3 0.1
v 0.3 0.3 0
v 0.4 -0.1 0.4
v 0.4 -0.1 -0.2
v 0.4 0 0.4
v 0.4 0 0.3
v 0.4 0 0.2
v 0.4 0 0
v 0.4 0 -0.1
v 0.4 0 -0.2
v 0.4 0.1 0.3
v 0.4 0.1 0.2
v 0.4 0.1 0.1
v 0.4 0.1 0
v 0.4 0.1 -0.1
v 0.4 0.2 0.2
v 0.4 0.2 0.1
v -0.3 -0.1 0.5
v -0.3 0 0.5
v -0.2 -0.1 0.5
v -0.2 0 0.5
v -0.1 -0.1 0.5
v -0.1 0 0.5
v -0.1 0.1 0.5
v 0.1 0 0.5
v 0.1 0.1 0.5
v 0.2 -0.1 0.5
v 0.2 0 0.5
v 0.3 -0.1 0.5
v 0.3 0 0.5
v -0.5 -0.1 0.4
v -0.5 0 0.4
v -0.4 0 0.4
v -0.4 0.1 0.4
v -0.3 -0.1 0.4
v -0.3 0 0.4
v -0.2 0 0.4
v -0.2 0.1 0.4
v -0.1 0 0.4
v -0.1 0.1 0.4
v -0.1 0.2 0.4
v 0 0.1 0.4
v 0 0.2 0.4
v 0 0.3 0.4
v 0.1 0 0.4
v 0.1 0.1 0.4
v 0.1 0.2 0.4
v 0.1 0.3 0.4
v 0.2 0 0.4
v 0.3 -0.1 0.4
v 0.3 0 0.4
v 0.3 0.1 0.4
v 0.4 -0.1 0.4
v 0.4 0 0.4
v -0.3 0.1 0.3
v -0.3 0.2 0.3
v -0.2 0.1 0.3
v -0.2 0.2 0.3
v -0.2 0.3 0.3
v -0.1 0.1 0.3
v -0.1 0.2 0.3
v -0.1 0.3 0.3
v 0 0.2 0.3
v 0 0.3 0.3
v 0 0.4 0.3
v 0.1 0.1 0.3
v 0.1 0.2 0.3
v 0.1 0.3 0.3
v 0.1 0.4 0.3
v 0.2 0.2 0.3
v 0.2 0.3 0.3
v 0.3 0 0.3
v 0.3 0.1 0.3
v 0.3 0.2 0.3
v 0.4 0 0.3
v 0.4 0.1 0.3
v -0.1 0.3 0.2
v -0.1 0.4 0.2
v 0 0.3 0.2
v 0 0.4 0.2
v 0.1 0.3 0.2
v 0.1 0.4 0.2
v 0.2 0.2 0.2
v 0.2 0.3 0.2
v 0.2 0.4 0.2
v 0.3 0.1 0.2
v 0.3 0.2 0.2
v 0.3 0.3 0.2
v 0.4 0.1 0.2
v 0.4 0.2 0.2
v -0.3 0 0.1
v -0.3 0.1 0.1
v -0.2 0 0.1
v -0.2 0.1 0.1
v -0.2 0.2 0
v -0.2 0.3 0
v -0.2 0.4 0
v -0.1 0.2 0
v -0.1 0.3 0
v -0.1 0.4 0
v -0.4 -0.1 -0.1
v -0.4 0 -0.1
v -0.3 -0.1 -0.1
v -0.3 0 -0.1
v -0.3 0.1 -0.1
v -0.3 0.2 -0.1
v -0.3 0.3 -0.1
v -0.2 0 -0.1
v -0.2 0.1 -0.1
v -0.2 0.2 -0.1
v -0.2 0.3 -0.1
v -0.5 -0.1 0.3
v -0.5 0 0.3
v -0.4 -0.1 0.3
v -0.4 0 0.3
v -0.4 0.1 0.3
v -0.3 0 0.3
v -0.3 0.1 0.3
v -0.4 -0.1 0.2
v -0.4 0 0.2
v -0.3 -0.1 0.2
v -0.3 0 0.2
v -0.3 0.1 0.2
v -0.3 0.2 0.2
v -0.2 0 0.2
v -0.2 0.1 0.2
v -0.2 0.2 0.2
v -0.2 0.2 0.1
v -0.2 0.3 0.1
v -0.1 0.2 0.1
v -0.1 0.3 0.1
v 0.1 0.3 0.1
v 0.1 0.4 0.1
v 0.2 0.3 0.1
v 0.2 0.4 0.1
v 0.3 0.1 0.1
v 0.3 0.2 0.1
v 0.4 0.1 0.1
v 0.4 0.2 0.1
v -0.3 0 0
v -0.3 0.1 0
v -0.2 0 0
v -0.2 0.1 0
v 0 0.3 0
v 0 0.4 0
v 0.1 0.2 0
v 0.1 0.3 0
v 0.1 0.4 0
v 0.2 0.1 0
v 0.2 0.2 0
v 0.2 0.3 0
v 0.3 0.1 0
v 0.3 0.2 0
v 0.3 0.3 0
v -0.2 0.3 -0.1
v -0.2 0.4 -0.1
v -0.1 0.3 -0.1
v -0.1 0.4 -0.1
v 0.3 0 -0.1
v 0.3 0.1 -0.1
v 0.4 0 -0.1
v 0.4 0.1 -0.1
v -0.3 0.1 -0.2
v -0.3 0.2 -0.2
v -0.3 0.3 -0.2
v -0.2 0.1 -0.2
v -0.2 0.2 -0.2
v -0.2 0.3 -0.2
v -0.1 0.3 -0.2
v -0.1 0.4 -0.2
v 0 0.1 -0.2
v 0 0.2 -0.2
v 0 0.3 -0.2
v 0 0.4 -0.2
v 0.1 0 -0.2
v 0.1 0.1 -0.2
v 0.1 0.2 -0.2
v 0.1 0.3 -0.2
v 0.2 0 -0.2
v 0.2 0.1 -0.2
v 0.2 0.2 -0.2
v 0.3 -0.1 -0.2
v 0.3 0 -0.2
v 0.3 0.1 -0.2
v 0.4 -0.1 -0.2
v 0.4 0 -0.2
v -0.4 -0.1 -0.3
v -0.4 0 -0.3
v -0.3 -0.1 -0.3
v -0.3 0 -0.3
v -0.3 0.1 -0.3
v -0.2 0 -0.3
v -0.2 0.1 -0.3
v -0.2 0.2 -0.3
v 0 -0.1 -0.3
v 0 0 -0.3
v 0 0.1 -0.3
v 0 0.2 -0.3
v 0.1 0 -0.3
v 0.1 0.1 -0.3
v 0.2 -0.1 -0.3
v 0.2 0 -0.3
v 0.3 -0.1 -0.3
v 0.3 0 -0.3
v 0 -0.1 -0.4
v 0 0 -0.4
v 0.2 -0.1 -0.4
v 0.2 0 -0.4
v -0.3 -0.1 0.5
v -0.2 -0.1 0.5
v -0.1 -0.1 0.5
v 0.2 -0.1 0.5
v 0.3 -0.1 0.5
v -0.5 -0.1 0.4
v -0.3 -0.1 0.4
v 0.1 -0.1 0.4
v 0.2 -0.1 0.4
v 0.3 -0.1 0.4
v 0.4 -0.1 0.4
v -0.5 -0.1 0.3
v -0.4 -0.1 0.3
v -0.2 -0.1 0.3
v -0.1 -0.1 0.3
v 0.1 -0.1 0.3
v 0.2 -0.1 0.3
v 0.3 -0.1 0.3
v -0.4 -0.1 0.2
v -0.3 -0.1 0.2
v 0.1 -0.1 0.2
v 0.2 -0.1 0.2
v -0.3 -0.1 0.1
v -0.1 -0.1 0.1
v -0.1 -0.1 0
v 0.1 -0.1 0
v 0.2 -0.1 0
v -0.4 -0.1 -0.1
v -0.3 -0.1 -0.1
v -0.2 -0.1 -0.1
v 0.1 -0.1 -0.1
v 0.2 -0.1 -0.1
v 0.3 -0.1 -0.1
v -0.3 -0.1 -0.2
v -0.2 -0.1 -0.2
v -0.1 -0.1 -0.2
v 0 -0.1 -0.2
v 0.1 -0.1 -0.2
v 0.2 -0.1 -0.2
v 0.3 -0.1 -0.2
v 0.4 -0.1 -0.2
v -0.4 -0.1 -0.3
v -0.3 -0.1 -0.3
v 0 -0.1 -0.3
v 0.1 -0.1 -0.3
v 0.2 -0.1 -0.3
v 0.3 -0.1 -0.3
v 0 -0.1 -0.4
v 0.2 -0.1 -0.4
v -0.3 0 0.5
v -0.2 0 0.5
v -0.1 0 0.5
v 0.1 0 0.5
v 0.2 0 0.5
v 0.3 0 0.5
v -0.5 0 0.4
v -0.4 0 0.4
v -0.3 0 0.4
v -0.2 0 0.4
v -0.1 0 0.4
v 0.1 0 0.4
v 0.2 0 0.4
v 0.3 0 0.4
v 0.4 0 0.4
v -0.5 0 0.3
v -0.4 0 0.3
v -0.3 0 0.3
v 0.3 0 0.3
v 0.4 0 0.3
v -0.4 0 0.2
v -0.3 0 0.2
v -0.2 0 0.2
v -0.3 0 0.1
v -0.2 0 0.1
v -0.3 0 0
v -0.2 0 0
v -0.4 0 -0.1
v -0.3 0 -0.1
v -0.2 0 -0.1
v 0.3 0 -0.1
v 0.4 0 -0.1
v 0.1 0 -0.2
v 0.2 0 -0.2
v 0.3 0 -0.2
v 0.4 0 -0.2
v -0.4 0 -0.3
v -0.3 0 -0.3
v 0 0 -0.3
v 0.1 0 -0.3
v 0.2 0 -0.3
v 0.3 0 -0.3
v 0 0 -0.4
v 0.2 0 -0.4
v -0.1 0.1 0.5
v 0.1 0.1 0.5
v -0.4 0.1 0.4
v -0.2 0.1 0.4
v -0.1 0.1 0.4
v 0 0.1 0.4
v 0.1 0.1 0.4
v 0.3 0.1 0.4
v -0.4 0.1 0.3
v -0.3 0.1 0.3
v -0.2 0.1 0.3
v -0.1 0.1 0.3
v 0.1 0.1 0.3
v 0.3 0.1 0.3
v 0.4 0.1 0.3
v 0.3 0.1 0.2
v 0.4 0.1 0.2
v -0.3 0.1 0.1
v -0.2 0.1 0.1
v 0.3 0.1 0.1
v 0.4 0.1 0.1
v -0.3 0.1 0
v -0.2 0.1 0
v 0.2 0.1 0
v 0.3 0.1 0
v 0.4 0.1 0
v 0.2 0.1 -0.1
v 0.3 0.1 -0.1
v 0.4 0.1 -0.1
v -0.3 0.1 -0.2
v -0.2 0.1 -0.2
v 0 0.1 -0.2
v 0.1 0.1 -0.2
v 0.2 0.1 -0.2
v 0.3 0.1 -0.2
v -0.3 0.1 -0.3
v -0.2 0.1 -0.3
v 0 0.1 -0.3
v 0.1 0.1 -0.3
v -0.1 0.2 0.4
v 0 0.2 0.4
v -0.3 0.2 0.3
v -0.2 0.2 0.3
v -0.1 0.2 0.3
v 0 0.2 0.3
v 0.2 0.2 0.3
v 0.3 0.2 0.3
v -0.3 0.2 0.2
v -0.2 0.2 0.2
v 0.2 0.2 0.2
v 0.3 0.2 0.2
v 0.4 0.2 0.2
v -0.2 0.2 0.1
v -0.1 0.2 0.1
v 0.3 0.2 0.1
v 0.4 0.2 0.1
v -0.2 0.2 0
v -0.1 0.2 0
v 0.1 0.2 0
v 0.2 0.2 0
v 0.1 0.2 -0.1
v 0.2 0.2 -0.1
v -0.2 0.2 -0.2
v 0 0.2 -0.2
v 0.1 0.2 -0.2
v 0.2 0.2 -0.2
v -0.2 0.2 -0.3
v 0 0.2 -0.3
v 0 0.3 0.4
v 0.1 0.3 0.4
v -0.2 0.3 0.3
v -0.1 0.3 0.3
v 0 0.3 0.3
v 0.1 0.3 0.3
v 0.2 0.3 0.3
v -0.2 0.3 0.2
v -0.1 0.3 0.2
v 0 0.3 0.2
v 0.1 0.3 0.2
v 0.2 0.3 0.2
v 0.3 0.3 0.2
v -0.2 0.3 0.1
v -0.1 0.3 0.1
v 0.1 0.3 0.1
v 0.2 0.3 0.1
v 0.3 0.3 0.1
v 0 0.3 0
v 0.1 0.3 0
v 0.2 0.3 0
v 0.3 0.3 0
v -0.3 0.3 -0.1
v -0.2 0.3 -0.1
v -0.1 0.3 -0.1
v 0 0.3 -0.1
v 0.1 0.3 -0.1
v -0.3 0.3 -0.2
v -0.2 0.3 -0.2
v -0.1 0.3 -0.2
v 0 0.3 -0.2
v 0.1 0.3 -0.2
v 0 0.4 0.3
v 0.1 0.4 0.3
v -0.1 0.4 0.2
v 0 0.4 0.2
v 0.1 0.4 0.2
v 0.2 0.4 0.2
v -0.1 0.4 0.1
v 0 0.4 0.1
v 0.1 0.4 0.1
v 0.2 0.4 0.1
v -0.2 0.4 0
v -0.1 0.4 0
v 0 0.4 0
v 0.1 0.4 0
v -0.2 0.4 -0.1
v -0.1 0.4 -0.1
v 0 0.4 -0.1
v -0.1 0.4 -0.2
v 0 0.4 -0.2

# faces
f 3/1/1 2/1/1 1/1/1
f 4/1/1 2/1/1 3/1/1
f 10/1/1 6/1/1 5/1/1
f 11/1/1 6/1/1 10/1/1
f 12/1/1 8/1/1 7/1/1
f 13/1/1 8/1/1 12/1/1
f 14/1/1 10/1/1 9/1/1
f 15/1/1 10/1/1 14/1/1
f 21/1/1 17/1/1 16/1/1
f 22/1/1 17/1/1 21/1/1
f 24/1/1 19/1/1 18/1/1
f 25/4/1 20/4/1 19/4/1
f 25/1/1 19/1/1 24/1/1
f 26/4/1 20/4/1 25/4/1
f 27/4/1 20/4/1 26/4/1
f 29/1/1 24/1/1 23/1/1
f 30/1/1 24/1/1 29/1/1
f 31/4/1 26/4/1 25/4/1
f 32/4/1 26/4/1 31/4/1
f 33/4/1 28/4/1 27/4/1
f 34/4/1 28/4/1 33/4/1
f 35/4/1 28/4/1 34/4/1
f 36/4/1 30/4/1 29/4/1
f 37/4/1 30/4/1 36/4/1
f 38/1/1 34/1/1 33/1/1
f 39/1/1 34/1/1 38/1/1
f 40/3/1 39/3/1 38/3/1
f 41/3/1 39/3/1 40/3/1
f 46/1/1 43/1/1 42/1/1
f 47/1/1 43/1/1 46/1/1
f 48/1/1 45/1/1 44/1/1
f 49/1/1 45/1/1 48/1/1
f 53/3/1 47/3/1 46/3/1
f 54/4/1 48/4/1 47/4/1
f 54/3/1 47/3/1 53/3/1
f 55/3/1 49/3/1 48/3/1
f 55/4/1 48/4/1 54/4/1
f 56/3/1 49/3/1 55/3/1
f 57/3/1 51/3/1 50/3/1
f 58/3/1 51/3/1 57/3/1
f 59/2/1 53/2/1 52/2/1
f 60/4/1 54/4/1 53/4/1
f 60/2/1 53/2/1 59/2/1
f 61/4/1 54/4/1 60/4/1
f 62/3/1 56/3/1 55/3/1
f 63/3/1 56/3/1 62/3/1
f 64/2/1 63/2/1 62/2/1
f 65/2/1 63/2/1 64/2/1
f 68/1/1 67/1/1 66/1/1
f 69/1/1 67/1/1 68/1/1
f 71/4/1 70/4/1 69/4/1
f 72/4/1 70/4/1 71/4/1
f 76/2/1 74/2/1 73/2/1
f 77/2/1 74/2/1 76/2/1
f 80/3/1 76/3/1 75/3/1
f 81/2/1 77/2/1 76/2/1
f 81/3/1 76/3/1 80/3/1
f 82/2/1 77/2/1 81/2/1
f 83/3/1 79/3/1 78/3/1
f 84/3/1 79/3/1 83/3/1
f 87/1/1 86/1/1 85/1/1
f 88/1/1 86/1/1 87/1/1
f 91/4/1 90/4/1 89/4/1
f 92/4/1 90/4/1 91/4/1
f 94/3/1 93/3/1 92/3/1
f 95/3/1 93/3/1 94/3/1
f 96/3/2 97/3/2 98/3/2
f 98/3/2 97/3/2 99/3/2
f 100/4/2 101/4/2 103/4/2
f 101/3/2 102/3/2 104/3/2
f 103/4/2 101/4/2 104/4/2
f 104/3/2 102/3/2 105/3/2
f 106/1/2 107/1/2 110/1/2
f 110/1/2 107/1/2 111/1/2
f 108/4/2 109/4/2 113/4/2
f 113/4/2 109/4/2 114/4/2
f 111/3/2 112/3/2 115/3/2
f 115/3/2 112/3/2 116/3/2
f 115/4/2 116/4/2 120/4/2
f 120/4/2 116/4/2 121/4/2
f 117/4/2 118/4/2 124/4/2
f 118/1/2 119/1/2 125/1/2
f 124/4/2 118/4/2 125/4/2
f 125/1/2 119/1/2 126/1/2
f 121/3/2 122/3/2 127/3/2
f 127/3/2 122/3/2 128/3/2
f 123/3/2 124/3/2 129/3/2
f 129/3/2 124/3/2 130/3/2
f 131/1/2 132/1/2 133/1/2
f 133/1/2 132/1/2 134/1/2
f 135/4/2 136/4/2 140/4/2
f 136/3/2 137/3/2 141/3/2
f 140/4/2 136/4/2 141/4/2
f 141/3/2 137/3/2 142/3/2
f 138/3/2 139/3/2 143/3/2
f 143/3/2 139/3/2 144/3/2
f 144/4/2 145/4/2 146/4/2
f 146/4/2 145/4/2 147/4/2
f 148/4/2 149/4/2 152/4/2
f 152/4/2 149/4/2 153/4/2
f 150/4/2 151/4/2 156/4/2
f 156/4/2 151/4/2 157/4/2
f 153/4/2 154/4/2 158/4/2
f 158/4/2 154/4/2 159/4/2
f 155/1/2 156/1/2 163/1/2
f 163/1/2 156/1/2 164/1/2
f 159/4/2 160/4/2 165/4/2
f 165/4/2 160/4/2 166/4/2
f 161/1/2 162/1/2 167/1/2
f 167/1/2 162/1/2 168/1/2
f 166/3/2 167/3/2 169/3/2
f 167/4/2 168/4/2 170/4/2
f 169/3/2 167/3/2 170/3/2
f 170/4/2 168/4/2 171/4/2
f 172/1/2 173/1/2 174/1/2
f 174/1/2 173/1/2 175/1/2
f 175/1/2 173/1/2 176/1/2
f 176/1/2 173/1/2 177/1/2
f 177/1/2 173/1/2 178/1/2
f 178/1/2 173/1/2 179/1/2
f 175/1/2 176/1/2 180/1/2
f 176/4/2 177/4/2 181/4/2
f 180/1/2 176/1/2 181/1/2
f 181/4/2 177/4/2 182/4/2
f 177/1/2 178/1/2 183/1/2
f 182/4/2 177/4/2 183/4/2
f 183/1/2 178/1/2 184/1/2
f 181/4/2 182/4/2 185/4/2
f 185/4/2 182/4/2 186/4/2
f 189/1/3 188/1/3 187/1/3
f 190/1/3 188/1/3 189/1/3
f 191/4/3 190/4/3 189/4/3
f 192/4/3 190/4/3 191/4/3
f 194/1/3 192/1/3 191/1/3
f 194/1/3 193/1/3 192/1/3
f 195/1/3 193/1/3 194/1/3
f 196/1/3 194/1/3 191/1/3
f 197/1/3 194/1/3 196/1/3
f 198/4/3 197/4/3 196/4/3
f 199/4/3 197/4/3 198/4/3
f 202/1/3 201/1/3 200/1/3
f 204/1/3 202/1/3 200/1/3
f 204/1/3 203/1/3 202/1/3
f 205/1/3 203/1/3 204/1/3
f 206/1/3 203/1/3 205/1/3
f 207/1/3 203/1/3 206/1/3
f 208/4/3 207/4/3 206/4/3
f 209/4/3 207/4/3 208/4/3
f 211/4/3 210/4/3 209/4/3
f 212/4/3 210/4/3 211/4/3
f 215/3/3 212/3/3 211/3/3
f 216/4/3 213/4/3 212/4/3
f 216/3/3 212/3/3 215/3/3
f 217/4/3 213/4/3 216/4/3
f 218/4/3 215/4/3 214/4/3
f 220/4/3 215/4/3 218/4/3
f 221/4/3 215/4/3 220/4/3
f 222/1/3 220/1/3 219/1/3
f 223/1/3 220/1/3 222/1/3
f 226/4/3 225/4/3 224/4/3
f 227/4/3 225/4/3 226/4/3
f 229/3/3 227/3/3 226/3/3
f 230/2/3 228/2/3 227/2/3
f 230/3/3 227/3/3 229/3/3
f 231/2/3 228/2/3 230/2/3
f 232/3/3 231/3/3 230/3/3
f 233/3/3 231/3/3 232/3/3
f 237/3/3 234/3/3 233/3/3
f 238/3/3 234/3/3 237/3/3
f 239/4/3 236/4/3 235/4/3
f 239/3/3 237/3/3 236/3/3
f 240/3/3 237/3/3 239/3/3
f 242/4/3 239/4/3 235/4/3
f 243/4/3 239/4/3 242/4/3
f 244/1/3 242/1/3 241/1/3
f 245/1/3 242/1/3 244/1/3
f 248/3/3 247/3/3 246/3/3
f 249/3/3 247/3/3 248/3/3
f 253/4/3 251/4/3 250/4/3
f 254/4/3 251/4/3 253/4/3
f 256/3/3 253/3/3 252/3/3
f 257/3/3 253/3/3 256/3/3
f 258/4/3 256/4/3 255/4/3
f 259/4/3 256/4/3 258/4/3
f 262/4/3 261/4/3 260/4/3
f 263/4/3 261/4/3 262/4/3
f 267/3/3 265/3/3 264/3/3
f 268/2/3 266/2/3 265/2/3
f 268/3/3 265/3/3 267/3/3
f 269/2/3 266/2/3 268/2/3
f 272/1/3 271/1/3 270/1/3
f 273/1/3 271/1/3 272/1/3
f 277/4/3 274/4/3 273/4/3
f 278/1/3 275/1/3 274/1/3
f 278/4/3 274/4/3 277/4/3
f 279/3/3 276/3/3 275/3/3
f 279/1/3 275/1/3 278/1/3
f 280/3/3 276/3/3 279/3/3
f 281/1/4 282/1/4 283/1/4
f 283/1/4 282/1/4 284/1/4
f 284/1/4 285/1/4 286/1/4
f 286/1/4 285/1/4 287/1/4
f 288/1/4 289/1/4 290/1/4
f 290/1/4 289/1/4 291/1/4
f 291/1/4 292/1/4 294/1/4
f 292/4/4 293/4/4 295/4/4
f 294/1/4 292/1/4 295/1/4
f 295/4/4 293/4/4 296/4/4
f 297/4/4 298/4/4 299/4/4
f 299/4/4 298/4/4 300/4/4
f 301/4/4 302/4/4 303/4/4
f 303/4/4 302/4/4 304/4/4
f 305/4/4 306/4/4 307/4/4
f 307/4/4 306/4/4 308/4/4
f 309/4/4 310/4/4 311/4/4
f 311/4/4 310/4/4 312/4/4
f 313/3/4 314/3/4 316/3/4
f 316/3/4 314/3/4 317/3/4
f 315/3/4 316/3/4 319/3/4
f 319/3/4 316/3/4 320/3/4
f 318/1/4 319/1/4 321/1/4
f 319/4/4 320/4/4 322/4/4
f 321/1/4 319/1/4 322/1/4
f 322/4/4 320/4/4 323/4/4
f 324/2/4 325/2/4 326/2/4
f 326/2/4 325/2/4 327/2/4
f 328/1/4 329/1/4 330/1/4
f 330/1/4 329/1/4 331/1/4
f 332/1/4 333/1/4 335/1/4
f 333/3/4 334/3/4 336/3/4
f 335/1/4 333/1/4 336/1/4
f 336/3/4 334/3/4 337/3/4
f 336/4/4 337/4/4 338/4/4
f 336/4/4 338/4/4 341/4/4
f 338/3/4 339/3/4 342/3/4
f 341/4/4 338/4/4 342/4/4
f 342/3/4 339/3/4 343/3/4
f 340/4/4 341/4/4 345/4/4
f 341/1/4 342/1/4 346/1/4
f 345/4/4 341/4/4 346/4/4
f 346/1/4 342/1/4 347/1/4
f 344/4/4 345/4/4 348/4/4
f 345/3/4 346/3/4 349/3/4
f 348/4/4 345/4/4 349/4/4
f 349/3/4 346/3/4 350/3/4
f 348/1/4 349/1/4 352/1/4
f 352/1/4 349/1/4 353/1/4
f 351/1/4 352/1/4 354/1/4
f 354/1/4 352/1/4 355/1/4
f 356/1/4 357/1/4 358/1/4
f 358/1/4 357/1/4 359/1/4
f 358/4/4 359/4/4 361/4/4
f 359/4/4 360/4/4 361/4/4
f 361/4/4 360/4/4 362/4/4
f 358/4/4 361/4/4 364/4/4
f 361/1/4 362/1/4 365/1/4
f 364/4/4 361/4/4 365/4/4
f 362/3/4 363/3/4 366/3/4
f 365/1/4 362/1/4 366/1/4
f 366/3/4 363/3/4 367/3/4
f 365/4/4 366/4/4 368/4/4
f 368/4/4 366/4/4 369/4/4
f 370/4/4 371/4/4 372/4/4
f 372/4/4 371/4/4 373/4/4
f 374/1/4 375/1/4 376/1/4
f 376/1/4 375/1/4 377/1/4
f 384/1/5 379/1/5 378/1/5
f 385/1/5 381/1/5 380/1/5
f 386/4/5 382/4/5 381/4/5
f 386/1/5 381/1/5 385/1/5
f 387/4/5 382/4/5 386/4/5
f 389/1/5 384/1/5 383/1/5
f 390/1/5 384/1/5 389/1/5
f 391/4/5 380/4/5 379/4/5
f 391/1/5 384/1/5 390/1/5
f 391/1/5 379/1/5 384/1/5
f 392/1/5 385/1/5 380/1/5
f 392/4/5 380/4/5 391/4/5
f 393/4/5 386/4/5 385/4/5
f 393/1/5 385/1/5 392/1/5
f 393/4/5 387/4/5 386/4/5
f 394/4/5 387/4/5 393/4/5
f 395/1/5 388/1/5 387/1/5
f 395/4/5 387/4/5 394/4/5
f 396/1/5 391/1/5 390/1/5
f 396/1/5 392/1/5 391/1/5
f 397/1/5 392/1/5 396/1/5
f 398/4/5 394/4/5 393/4/5
f 398/4/5 393/4/5 392/4/5
f 399/1/5 395/1/5 394/1/5
f 399/4/5 394/4/5 398/4/5
f 400/1/5 392/1/5 397/1/5
f 401/4/5 398/4/5 392/4/5
f 401/1/5 392/1/5 400/1/5
f 402/4/5 401/4/5 400/4/5
f 402/4/5 398/4/5 401/4/5
f 403/1/5 399/1/5 398/1/5
f 403/4/5 398/4/5 402/4/5
f 404/1/5 395/1/5 399/1/5
f 404/1/5 399/1/5 403/1/5
f 406/4/5 402/4/5 400/4/5
f 407/4/5 402/4/5 406/4/5
f 408/1/5 403/1/5 402/1/5
f 408/4/5 404/4/5 403/4/5
f 409/1/5 395/1/5 404/1/5
f 409/4/5 404/4/5 408/4/5
f 410/1/5 388/1/5 395/1/5
f 410/1/5 395/1/5 409/1/5
f 411/1/5 407/1/5 406/1/5
f 411/1/5 406/1/5 405/1/5
f 412/4/5 402/4/5 407/4/5
f 412/1/5 407/1/5 411/1/5
f 413/1/5 409/1/5 408/1/5
f 413/4/5 402/4/5 412/4/5
f 413/1/5 408/1/5 402/1/5
f 414/1/5 409/1/5 413/1/5
f 415/1/5 409/1/5 414/1/5
f 416/4/5 410/4/5 409/4/5
f 416/1/5 409/1/5 415/1/5
f 417/1/5 388/1/5 410/1/5
f 417/4/5 410/4/5 416/4/5
f 418/1/5 388/1/5 417/1/5
f 419/1/5 411/1/5 405/1/5
f 420/4/5 412/4/5 411/4/5
f 420/1/5 411/1/5 419/1/5
f 420/4/5 413/4/5 412/4/5
f 420/4/5 414/4/5 413/4/5
f 421/1/5 415/1/5 414/1/5
f 421/4/5 414/4/5 420/4/5
f 422/4/5 416/4/5 415/4/5
f 422/1/5 415/1/5 421/1/5
f 422/4/5 417/4/5 416/4/5
f 423/4/5 417/4/5 422/4/5
f 424/4/5 417/4/5 423/4/5
f 425/1/5 423/1/5 422/1/5
f 425/1/5 422/1/5 421/1/5
f 426/1/5 423/1/5 425/1/5
f 427/1/6 428/1/6 435/1/6
f 428/4/6 429/4/6 436/4/6
f 435/1/6 428/1/6 436/1/6
f 436/4/6 429/4/6 437/4/6
f 430/1/6 431/1/6 438/1/6
f 431/4/6 432/4/6 439/4/6
f 438/1/6 431/1/6 439/1/6
f 439/4/6 432/4/6 440/4/6
f 433/1/6 434/1/6 442/1/6
f 442/1/6 434/1/6 443/1/6
f 440/1/6 441/1/6 445/1/6
f 445/1/6 441/1/6 446/1/6
f 443/1/6 444/1/6 447/1/6
f 447/1/6 444/1/6 448/1/6
f 448/1/6 449/1/6 450/1/6
f 450/1/6 449/1/6 451/1/6
f 452/4/6 453/4/6 455/4/6
f 455/4/6 453/4/6 456/4/6
f 457/1/6 458/1/6 461/1/6
f 461/1/6 458/1/6 462/1/6
f 454/1/6 455/1/6 463/1/6
f 463/1/6 455/1/6 464/1/6
f 459/4/6 460/4/6 466/4/6
f 460/4/6 461/4/6 466/4/6
f 466/4/6 461/4/6 467/4/6
f 467/4/6 461/4/6 468/4/6
f 465/1/6 466/1/6 469/1/6
f 466/1/6 467/1/6 469/1/6
f 469/1/6 467/1/6 470/1/6
f 471/1/6 472/1/6 475/1/6
f 475/1/6 472/1/6 476/1/6
f 476/1/6 472/1/6 477/1/6
f 473/1/6 474/1/6 479/1/6
f 479/1/6 474/1/6 480/1/6
f 474/4/6 475/4/6 481/4/6
f 480/1/6 474/1/6 481/1/6
f 481/4/6 475/4/6 482/4/6
f 477/4/6 478/4/6 483/4/6
f 483/4/6 478/4/6 484/4/6
f 484/1/6 485/1/6 486/1/6
f 486/1/6 485/1/6 487/1/6
f 488/4/6 489/4/6 492/4/6
f 492/4/6 489/4/6 493/4/6
f 490/4/6 491/4/6 495/4/6
f 495/4/6 491/4/6 496/4/6
f 494/1/6 495/1/6 497/1/6
f 495/1/6 496/1/6 497/1/6
f 497/1/6 496/1/6 498/1/6
f 498/1/6 496/1/6 499/1/6
f 497/1/6 498/1/6 504/1/6
f 504/1/6 498/1/6 505/1/6
f 500/4/6 501/4/6 506/4/6
f 506/4/6 501/4/6 507/4/6
f 502/4/6 503/4/6 508/4/6
f 508/4/6 503/4/6 509/4/6
f 510/4/6 511/4/6 514/4/6
f 514/4/6 511/4/6 515/4/6
f 512/4/6 513/4/6 518/4/6
f 518/4/6 513/4/6 519/4/6
f 516/4/6 517/4/6 520/4/6
f 520/4/6 517/4/6 521/4/6
f 521/4/6 522/4/6 525/4/6
f 525/4/6 522/4/6 526/4/6
f 523/4/6 524/4/6 527/4/6
f 527/4/6 524/4/6 528/4/6
f 529/4/6 530/4/6 531/4/6
f 531/4/6 530/4/6 532/4/6
f 531/3/6 532/3/6 535/3/6
f 535/3/6 532/3/6 536/3/6
f 533/3/6 534/3/6 537/3/6
f 537/3/6 534/3/6 538/3/6
f 539/4/6 540/4/6 543/4/6
f 543/4/6 540/4/6 544/4/6
f 541/2/6 542/2/6 546/2/6
f 542/3/6 543/3/6 547/3/6
f 546/2/6 542/2/6 547/2/6
f 547/3/6 543/3/6 548/3/6
f 544/3/6 545/3/6 549/3/6
f 549/3/6 545/3/6 550/3/6
f 546/4/6 547/4/6 552/4/6
f 552/4/6 547/4/6 553/4/6
f 550/3/6 551/3/6 555/3/6
f 555/3/6 551/3/6 556/3/6
f 554/3/6 555/3/6 558/3/6
f 555/4/6 556/4/6 559/4/6
f 558/3/6 555/3/6 559/3/6
f 559/4/6 556/4/6 560/4/6
f 557/4/6 558/4/6 564/4/6
f 564/4/6 558/4/6 565/4/6
f 561/3/6 562/3/6 566/3/6
f 562/4/6 563/4/6 567/4/6
f 566/3/6 562/3/6 567/3/6
f 567/4/6 563/4/6 568/4/6
f 564/1/6 565/1/6 569/1/6
f 569/1/6 565/1/6 570/1/6
f 571/3/6 572/3/6 574/3/6
f 574/3/6 572/3/6 575/3/6
f 573/3/6 574/3/6 577/3/6
f 574/2/6 575/2/6 578/2/6
f 577/3/6 574/3/6 578/3/6
f 575/4/6 576/4/6 579/4/6
f 578/2/6 575/2/6 579/2/6
f 579/4/6 576/4/6 580/4/6
f 577/2/6 578/2/6 582/2/6
f 578/3/6 579/3/6 583/3/6
f 582/2/6 578/2/6 583/2/6
f 583/3/6 579/3/6 584/3/6
f 581/2/6 582/2/6 585/2/6
f 582/4/6 583/4/6 586/4/6
f 585/2/6 582/2/6 586/2/6
f 586/4/6 583/4/6 587/4/6
f 586/3/6 587/3/6 588/3/6
f 588/3/6 587/3/6 589/3/6
