# MagicaVoxel @ Ephtracy

# group
o HeavyBotLOD1

# material
mtllib HeavyBotLOD2-5-HeavyBotLOD1.mtl
usemtl palette

# normals
vn -1 0 0
vn 1 0 0
vn 0 0 1
vn 0 0 -1
vn 0 -1 0
vn 0 1 0

# texcoords
vt 0.970703 0.5
vt 0.974609 0.5
vt 0.978516 0.5
vt 0.982422 0.5

# verts
v -0.9 1.1 0.3
v -0.9 1.1 -0.3
v -0.9 1.2 0.3
v -0.9 1.2 -0.3
v -0.8 2.8 0.4
v -0.8 2.8 -0.6
v -0.8 3.2 0.4
v -0.8 3.2 -0.6
v -0.7 1.1 0.5
v -0.7 1.1 0.3
v -0.7 1.1 -0.3
v -0.7 1.1 -0.6
v -0.7 1.2 0.3
v -0.7 1.2 -0.3
v -0.7 1.3 0.5
v -0.7 1.3 -0.6
v -0.6 1.8 0.5
v -0.6 1.8 -0.5
v -0.6 2 0.2
v -0.6 2 0.1
v -0.6 2 -0.1
v -0.6 2 -0.2
v -0.6 2.2 0.2
v -0.6 2.2 0.1
v -0.6 2.2 -0.1
v -0.6 2.2 -0.2
v -0.6 2.4 0.2
v -0.6 2.4 0.1
v -0.6 2.4 -0.1
v -0.6 2.4 -0.2
v -0.6 2.5 0.2
v -0.6 2.5 0.1
v -0.6 2.5 -0.1
v -0.6 2.5 -0.2
v -0.6 2.6 0.2
v -0.6 2.6 0.1
v -0.6 2.6 -0.1
v -0.6 2.6 -0.2
v -0.6 2.7 0.2
v -0.6 2.7 0.1
v -0.6 2.7 -0.1
v -0.6 2.7 -0.2
v -0.6 2.8 0.4
v -0.6 2.8 -0.5
v -0.6 3.2 0.5
v -0.6 3.2 0.4
v -0.5 1.3 0.5
v -0.5 1.3 -0.6
v -0.5 1.8 0.5
v -0.5 1.8 -0.5
v -0.5 3.2 -0.5
v -0.5 3.2 -0.6
v -0.4 2.4 0.6
v -0.4 2.4 0.5
v -0.4 3.2 0.6
v -0.4 3.2 0.5
v -0.3 0.9 0.5
v -0.3 0.9 -0.6
v -0.3 1.1 0.5
v -0.3 1.1 -0.6
v -0.3 1.9 0.6
v -0.3 1.9 0.5
v -0.3 2.4 0.6
v -0.3 2.4 0.5
v -0.2 1.6 0.6
v -0.2 1.6 0.5
v -0.2 1.9 0.6
v -0.2 1.9 0.5
v -0.1 1.2 0.6
v -0.1 1.2 0.5
v -0.1 1.6 0.6
v -0.1 1.6 0.5
v 0.2 3.1 0.4
v 0.2 3.1 0.1
v 0.2 3.1 -0.1
v 0.2 3.1 -0.6
v 0.2 3.2 0.4
v 0.2 3.2 0.1
v 0.2 3.2 -0.1
v 0.2 3.2 -0.6
v 0.4 3.1 0.1
v 0.4 3.1 -0.1
v 0.4 3.2 0.1
v 0.4 3.2 -0.1
v 0.6 2.8 -0.5
v 0.6 2.8 -0.6
v 0.6 3.2 -0.5
v 0.6 3.2 -0.6
v -0.6 2.8 -0.5
v -0.6 2.8 -0.6
v -0.6 3.2 -0.5
v -0.6 3.2 -0.6
v -0.4 3.1 0.1
v -0.4 3.1 -0.1
v -0.4 3.2 0.1
v -0.4 3.2 -0.1
v -0.2 3.1 0.4
v -0.2 3.1 0.1
v -0.2 3.1 -0.1
v -0.2 3.1 -0.6
v -0.2 3.2 0.4
v -0.2 3.2 0.1
v -0.2 3.2 -0.1
v -0.2 3.2 -0.6
v 0.1 1.2 0.6
v 0.1 1.2 0.5
v 0.1 1.6 0.6
v 0.1 1.6 0.5
v 0.2 1.6 0.6
v 0.2 1.6 0.5
v 0.2 1.9 0.6
v 0.2 1.9 0.5
v 0.3 0.9 0.5
v 0.3 0.9 -0.6
v 0.3 1.1 0.5
v 0.3 1.1 -0.6
v 0.3 1.9 0.6
v 0.3 1.9 0.5
v 0.3 2.4 0.6
v 0.3 2.4 0.5
v 0.4 2.4 0.6
v 0.4 2.4 0.5
v 0.4 3.2 0.6
v 0.4 3.2 0.5
v 0.5 1.3 0.5
v 0.5 1.3 -0.6
v 0.5 1.8 0.5
v 0.5 1.8 -0.5
v 0.5 3.2 -0.5
v 0.5 3.2 -0.6
v 0.6 1.8 0.5
v 0.6 1.8 -0.5
v 0.6 2 0.2
v 0.6 2 0.1
v 0.6 2 -0.1
v 0.6 2 -0.2
v 0.6 2.2 0.2
v 0.6 2.2 0.1
v 0.6 2.2 -0.1
v 0.6 2.2 -0.2
v 0.6 2.4 0.2
v 0.6 2.4 0.1
v 0.6 2.4 -0.1
v 0.6 2.4 -0.2
v 0.6 2.5 0.2
v 0.6 2.5 0.1
v 0.6 2.5 -0.1
v 0.6 2.5 -0.2
v 0.6 2.6 0.2
v 0.6 2.6 0.1
v 0.6 2.6 -0.1
v 0.6 2.6 -0.2
v 0.6 2.7 0.2
v 0.6 2.7 0.1
v 0.6 2.7 -0.1
v 0.6 2.7 -0.2
v 0.6 2.8 0.5
v 0.6 2.8 -0.5
v 0.7 1.1 0.5
v 0.7 1.1 0.3
v 0.7 1.1 -0.3
v 0.7 1.1 -0.6
v 0.7 1.2 0.3
v 0.7 1.2 -0.3
v 0.7 1.3 0.5
v 0.7 1.3 -0.6
v 0.8 2.8 0.5
v 0.8 2.8 -0.6
v 0.8 3.2 0.5
v 0.8 3.2 -0.6
v 0.9 1.1 0.3
v 0.9 1.1 -0.3
v 0.9 1.2 0.3
v 0.9 1.2 -0.3
v -0.4 2.4 0.6
v -0.4 3.2 0.6
v -0.3 1.9 0.6
v -0.3 2.4 0.6
v -0.2 1.6 0.6
v -0.2 1.9 0.6
v -0.2 2.7 0.6
v -0.2 2.9 0.6
v -0.1 1.2 0.6
v -0.1 1.6 0.6
v -0.1 2 0.6
v -0.1 2.7 0.6
v -0.1 2.9 0.6
v -0.1 3.1 0.6
v 0.1 1.2 0.6
v 0.1 1.6 0.6
v 0.1 2 0.6
v 0.1 2.7 0.6
v 0.1 2.9 0.6
v 0.1 3.1 0.6
v 0.2 1.6 0.6
v 0.2 1.9 0.6
v 0.2 2.7 0.6
v 0.2 2.9 0.6
v 0.3 1.9 0.6
v 0.3 2.4 0.6
v 0.4 2.4 0.6
v 0.4 3.2 0.6
v -0.7 1.1 0.5
v -0.7 1.3 0.5
v -0.6 1.8 0.5
v -0.6 3.2 0.5
v -0.5 1.1 0.5
v -0.5 1.2 0.5
v -0.5 1.3 0.5
v -0.5 1.8 0.5
v -0.4 2.4 0.5
v -0.4 3.2 0.5
v -0.3 0.9 0.5
v -0.3 1.1 0.5
v -0.3 1.2 0.5
v -0.3 1.9 0.5
v -0.3 2.4 0.5
v -0.2 1.6 0.5
v -0.2 1.9 0.5
v -0.1 1.2 0.5
v -0.1 1.6 0.5
v 0.1 1.2 0.5
v 0.1 1.6 0.5
v 0.2 1.6 0.5
v 0.2 1.9 0.5
v 0.3 0.9 0.5
v 0.3 1.1 0.5
v 0.3 1.2 0.5
v 0.3 1.9 0.5
v 0.3 2.4 0.5
v 0.4 2.4 0.5
v 0.4 3.2 0.5
v 0.5 1.1 0.5
v 0.5 1.2 0.5
v 0.5 1.3 0.5
v 0.5 1.8 0.5
v 0.6 1.8 0.5
v 0.6 2.8 0.5
v 0.7 1.1 0.5
v 0.7 1.3 0.5
v 0.8 2.8 0.5
v 0.8 3.2 0.5
v -0.8 2.8 0.4
v -0.8 3.2 0.4
v -0.6 2.8 0.4
v -0.6 3.2 0.4
v -0.9 1.1 0.3
v -0.9 1.2 0.3
v -0.7 1.1 0.3
v -0.7 1.2 0.3
v 0.7 1.1 0.3
v 0.7 1.2 0.3
v 0.9 1.1 0.3
v 0.9 1.2 0.3
v -0.4 3.1 -0.1
v -0.4 3.2 -0.1
v -0.2 3.1 -0.1
v -0.2 3.2 -0.1
v 0.2 3.1 -0.1
v 0.2 3.2 -0.1
v 0.4 3.1 -0.1
v 0.4 3.2 -0.1
v -0.2 3.1 0.4
v -0.2 3.2 0.4
v 0.2 3.1 0.4
v 0.2 3.2 0.4
v -0.4 3.1 0.1
v -0.4 3.2 0.1
v -0.2 3.1 0.1
v -0.2 3.2 0.1
v 0.2 3.1 0.1
v 0.2 3.2 0.1
v 0.4 3.1 0.1
v 0.4 3.2 0.1
v -0.9 1.1 -0.3
v -0.9 1.2 -0.3
v -0.7 1.1 -0.3
v -0.7 1.2 -0.3
v 0.7 1.1 -0.3
v 0.7 1.2 -0.3
v 0.9 1.1 -0.3
v 0.9 1.2 -0.3
v -0.6 1.8 -0.5
v -0.6 2.8 -0.5
v -0.6 3.2 -0.5
v -0.5 1.8 -0.5
v -0.5 3.2 -0.5
v 0.5 1.8 -0.5
v 0.5 3.2 -0.5
v 0.6 1.8 -0.5
v 0.6 2.8 -0.5
v 0.6 3.2 -0.5
v -0.8 2.8 -0.6
v -0.8 3.2 -0.6
v -0.7 1.1 -0.6
v -0.7 1.3 -0.6
v -0.6 2.8 -0.6
v -0.6 3.2 -0.6
v -0.5 1.1 -0.6
v -0.5 1.2 -0.6
v -0.5 1.3 -0.6
v -0.5 3.2 -0.6
v -0.4 3 -0.6
v -0.4 3.1 -0.6
v -0.3 0.9 -0.6
v -0.3 1.1 -0.6
v -0.3 1.2 -0.6
v -0.3 2.5 -0.6
v -0.3 2.8 -0.6
v -0.3 2.9 -0.6
v -0.3 3 -0.6
v -0.3 3.1 -0.6
v -0.2 1.1 -0.6
v -0.2 1.6 -0.6
v -0.2 1.9 -0.6
v -0.2 2.5 -0.6
v -0.2 2.8 -0.6
v -0.2 2.9 -0.6
v -0.2 3 -0.6
v -0.2 3.1 -0.6
v -0.2 3.2 -0.6
v -0.1 1.1 -0.6
v -0.1 1.6 -0.6
v -0.1 1.9 -0.6
v -0.1 2.5 -0.6
v -0.1 2.6 -0.6
v -0.1 2.8 -0.6
v 0.1 1.1 -0.6
v 0.1 1.6 -0.6
v 0.1 1.9 -0.6
v 0.1 2.5 -0.6
v 0.1 2.6 -0.6
v 0.1 2.8 -0.6
v 0.2 1.1 -0.6
v 0.2 1.6 -0.6
v 0.2 1.9 -0.6
v 0.2 2.5 -0.6
v 0.2 2.8 -0.6
v 0.2 2.9 -0.6
v 0.2 3 -0.6
v 0.2 3.1 -0.6
v 0.2 3.2 -0.6
v 0.3 0.9 -0.6
v 0.3 1.1 -0.6
v 0.3 1.2 -0.6
v 0.3 2.5 -0.6
v 0.3 2.8 -0.6
v 0.3 2.9 -0.6
v 0.3 3 -0.6
v 0.3 3.1 -0.6
v 0.4 3 -0.6
v 0.4 3.1 -0.6
v 0.5 1.1 -0.6
v 0.5 1.2 -0.6
v 0.5 1.3 -0.6
v 0.5 3.2 -0.6
v 0.6 2.8 -0.6
v 0.6 3.2 -0.6
v 0.7 1.1 -0.6
v 0.7 1.3 -0.6
v 0.8 2.8 -0.6
v 0.8 3.2 -0.6
v -0.3 0.9 0.5
v 0.3 0.9 0.5
v -0.3 0.9 -0.6
v 0.3 0.9 -0.6
v -0.7 1.1 0.5
v -0.5 1.1 0.5
v -0.3 1.1 0.5
v 0.3 1.1 0.5
v 0.5 1.1 0.5
v 0.7 1.1 0.5
v -0.9 1.1 0.3
v -0.7 1.1 0.3
v 0.7 1.1 0.3
v 0.9 1.1 0.3
v -0.9 1.1 -0.3
v -0.7 1.1 -0.3
v 0.7 1.1 -0.3
v 0.9 1.1 -0.3
v -0.7 1.1 -0.6
v -0.5 1.1 -0.6
v -0.3 1.1 -0.6
v 0.3 1.1 -0.6
v 0.5 1.1 -0.6
v 0.7 1.1 -0.6
v -0.1 1.2 0.6
v 0.1 1.2 0.6
v -0.1 1.2 0.5
v 0.1 1.2 0.5
v -0.2 1.6 0.6
v -0.1 1.6 0.6
v 0.1 1.6 0.6
v 0.2 1.6 0.6
v -0.2 1.6 0.5
v -0.1 1.6 0.5
v 0.1 1.6 0.5
v 0.2 1.6 0.5
v -0.6 1.8 0.5
v -0.5 1.8 0.5
v 0.5 1.8 0.5
v 0.6 1.8 0.5
v -0.6 1.8 -0.5
v -0.5 1.8 -0.5
v 0.5 1.8 -0.5
v 0.6 1.8 -0.5
v -0.3 1.9 0.6
v -0.2 1.9 0.6
v 0.2 1.9 0.6
v 0.3 1.9 0.6
v -0.3 1.9 0.5
v -0.2 1.9 0.5
v 0.2 1.9 0.5
v 0.3 1.9 0.5
v -0.4 2.4 0.6
v -0.3 2.4 0.6
v 0.3 2.4 0.6
v 0.4 2.4 0.6
v -0.4 2.4 0.5
v -0.3 2.4 0.5
v 0.3 2.4 0.5
v 0.4 2.4 0.5
v 0.6 2.8 0.5
v 0.8 2.8 0.5
v -0.8 2.8 0.4
v -0.6 2.8 0.4
v -0.6 2.8 -0.5
v 0.6 2.8 -0.5
v -0.8 2.8 -0.6
v -0.6 2.8 -0.6
v 0.6 2.8 -0.6
v 0.8 2.8 -0.6
v -0.9 1.2 0.3
v -0.7 1.2 0.3
v 0.7 1.2 0.3
v 0.9 1.2 0.3
v -0.9 1.2 -0.3
v -0.7 1.2 -0.3
v 0.7 1.2 -0.3
v 0.9 1.2 -0.3
v -0.7 1.3 0.5
v -0.5 1.3 0.5
v 0.5 1.3 0.5
v 0.7 1.3 0.5
v -0.7 1.3 -0.6
v -0.5 1.3 -0.6
v 0.5 1.3 -0.6
v 0.7 1.3 -0.6
v -0.2 3.1 0.4
v 0.2 3.1 0.4
v -0.4 3.1 0.1
v -0.2 3.1 0.1
v 0.2 3.1 0.1
v 0.4 3.1 0.1
v -0.4 3.1 -0.1
v -0.2 3.1 -0.1
v 0.2 3.1 -0.1
v 0.4 3.1 -0.1
v -0.2 3.1 -0.6
v 0.2 3.1 -0.6
v -0.4 3.2 0.6
v 0.4 3.2 0.6
v -0.6 3.2 0.5
v -0.4 3.2 0.5
v 0.4 3.2 0.5
v 0.8 3.2 0.5
v -0.8 3.2 0.4
v -0.6 3.2 0.4
v -0.2 3.2 0.4
v 0.2 3.2 0.4
v -0.4 3.2 0.1
v -0.2 3.2 0.1
v 0.2 3.2 0.1
v 0.4 3.2 0.1
v -0.4 3.2 -0.1
v -0.2 3.2 -0.1
v 0.2 3.2 -0.1
v 0.4 3.2 -0.1
v -0.6 3.2 -0.5
v -0.5 3.2 -0.5
v 0.5 3.2 -0.5
v 0.6 3.2 -0.5
v -0.8 3.2 -0.6
v -0.6 3.2 -0.6
v -0.5 3.2 -0.6
v -0.2 3.2 -0.6
v 0.2 3.2 -0.6
v 0.5 3.2 -0.6
v 0.6 3.2 -0.6
v 0.8 3.2 -0.6

# faces
f 3/4/1 2/4/1 1/4/1
f 4/4/1 2/4/1 3/4/1
f 7/4/1 6/4/1 5/4/1
f 8/4/1 6/4/1 7/4/1
f 13/4/1 10/4/1 9/4/1
f 14/4/1 12/4/1 11/4/1
f 15/4/1 13/4/1 9/4/1
f 15/4/1 14/4/1 13/4/1
f 16/4/1 12/4/1 14/4/1
f 16/4/1 14/4/1 15/4/1
f 19/4/1 18/4/1 17/4/1
f 20/4/1 18/4/1 19/4/1
f 21/4/1 18/4/1 20/4/1
f 22/4/1 18/4/1 21/4/1
f 23/4/1 19/4/1 17/4/1
f 23/2/1 20/2/1 19/2/1
f 24/4/1 21/4/1 20/4/1
f 24/2/1 20/2/1 23/2/1
f 25/2/1 22/2/1 21/2/1
f 25/4/1 21/4/1 24/4/1
f 26/4/1 18/4/1 22/4/1
f 26/2/1 22/2/1 25/2/1
f 27/3/1 24/3/1 23/3/1
f 27/4/1 23/4/1 17/4/1
f 28/4/1 25/4/1 24/4/1
f 28/3/1 24/3/1 27/3/1
f 29/3/1 26/3/1 25/3/1
f 29/4/1 25/4/1 28/4/1
f 30/4/1 18/4/1 26/4/1
f 30/3/1 26/3/1 29/3/1
f 31/4/1 27/4/1 17/4/1
f 31/2/1 28/2/1 27/2/1
f 32/4/1 29/4/1 28/4/1
f 32/2/1 28/2/1 31/2/1
f 33/2/1 30/2/1 29/2/1
f 33/4/1 29/4/1 32/4/1
f 34/4/1 18/4/1 30/4/1
f 34/2/1 30/2/1 33/2/1
f 35/4/1 31/4/1 17/4/1
f 35/3/1 32/3/1 31/3/1
f 36/4/1 33/4/1 32/4/1
f 36/3/1 32/3/1 35/3/1
f 37/3/1 34/3/1 33/3/1
f 37/4/1 33/4/1 36/4/1
f 38/4/1 18/4/1 34/4/1
f 38/3/1 34/3/1 37/3/1
f 39/4/1 35/4/1 17/4/1
f 39/2/1 36/2/1 35/2/1
f 40/4/1 37/4/1 36/4/1
f 40/2/1 36/2/1 39/2/1
f 41/2/1 38/2/1 37/2/1
f 41/4/1 37/4/1 40/4/1
f 42/4/1 18/4/1 38/4/1
f 42/2/1 38/2/1 41/2/1
f 43/4/1 41/4/1 40/4/1
f 43/4/1 39/4/1 17/4/1
f 43/4/1 42/4/1 41/4/1
f 43/4/1 40/4/1 39/4/1
f 44/4/1 18/4/1 42/4/1
f 44/4/1 42/4/1 43/4/1
f 45/4/1 43/4/1 17/4/1
f 46/4/1 43/4/1 45/4/1
f 49/4/1 48/4/1 47/4/1
f 50/4/1 48/4/1 49/4/1
f 51/4/1 48/4/1 50/4/1
f 52/4/1 48/4/1 51/4/1
f 55/4/1 54/4/1 53/4/1
f 56/4/1 54/4/1 55/4/1
f 59/4/1 58/4/1 57/4/1
f 60/4/1 58/4/1 59/4/1
f 63/4/1 62/4/1 61/4/1
f 64/4/1 62/4/1 63/4/1
f 67/4/1 66/4/1 65/4/1
f 68/4/1 66/4/1 67/4/1
f 71/4/1 70/4/1 69/4/1
f 72/4/1 70/4/1 71/4/1
f 77/4/1 74/4/1 73/4/1
f 78/4/1 74/4/1 77/4/1
f 79/4/1 76/4/1 75/4/1
f 80/4/1 76/4/1 79/4/1
f 83/4/1 82/4/1 81/4/1
f 84/4/1 82/4/1 83/4/1
f 87/4/1 86/4/1 85/4/1
f 88/4/1 86/4/1 87/4/1
f 89/4/2 90/4/2 91/4/2
f 91/4/2 90/4/2 92/4/2
f 93/4/2 94/4/2 95/4/2
f 95/4/2 94/4/2 96/4/2
f 97/4/2 98/4/2 101/4/2
f 101/4/2 98/4/2 102/4/2
f 99/4/2 100/4/2 103/4/2
f 103/4/2 100/4/2 104/4/2
f 105/4/2 106/4/2 107/4/2
f 107/4/2 106/4/2 108/4/2
f 109/4/2 110/4/2 111/4/2
f 111/4/2 110/4/2 112/4/2
f 113/4/2 114/4/2 115/4/2
f 115/4/2 114/4/2 116/4/2
f 117/4/2 118/4/2 119/4/2
f 119/4/2 118/4/2 120/4/2
f 121/4/2 122/4/2 123/4/2
f 123/4/2 122/4/2 124/4/2
f 125/4/2 126/4/2 127/4/2
f 127/4/2 126/4/2 128/4/2
f 128/4/2 126/4/2 129/4/2
f 129/4/2 126/4/2 130/4/2
f 131/4/2 132/4/2 133/4/2
f 133/4/2 132/4/2 134/4/2
f 134/4/2 132/4/2 135/4/2
f 135/4/2 132/4/2 136/4/2
f 131/4/2 133/4/2 137/4/2
f 133/2/2 134/2/2 137/2/2
f 134/4/2 135/4/2 138/4/2
f 137/2/2 134/2/2 138/2/2
f 135/2/2 136/2/2 139/2/2
f 138/4/2 135/4/2 139/4/2
f 136/4/2 132/4/2 140/4/2
f 139/2/2 136/2/2 140/2/2
f 137/3/2 138/3/2 141/3/2
f 131/4/2 137/4/2 141/4/2
f 138/4/2 139/4/2 142/4/2
f 141/3/2 138/3/2 142/3/2
f 139/3/2 140/3/2 143/3/2
f 142/4/2 139/4/2 143/4/2
f 140/4/2 132/4/2 144/4/2
f 143/3/2 140/3/2 144/3/2
f 131/4/2 141/4/2 145/4/2
f 141/2/2 142/2/2 145/2/2
f 142/4/2 143/4/2 146/4/2
f 145/2/2 142/2/2 146/2/2
f 143/2/2 144/2/2 147/2/2
f 146/4/2 143/4/2 147/4/2
f 144/4/2 132/4/2 148/4/2
f 147/2/2 144/2/2 148/2/2
f 131/4/2 145/4/2 149/4/2
f 145/3/2 146/3/2 149/3/2
f 146/4/2 147/4/2 150/4/2
f 149/3/2 146/3/2 150/3/2
f 147/3/2 148/3/2 151/3/2
f 150/4/2 147/4/2 151/4/2
f 148/4/2 132/4/2 152/4/2
f 151/3/2 148/3/2 152/3/2
f 131/4/2 149/4/2 153/4/2
f 149/2/2 150/2/2 153/2/2
f 150/4/2 151/4/2 154/4/2
f 153/2/2 150/2/2 154/2/2
f 151/2/2 152/2/2 155/2/2
f 154/4/2 151/4/2 155/4/2
f 152/4/2 132/4/2 156/4/2
f 155/2/2 152/2/2 156/2/2
f 154/4/2 155/4/2 157/4/2
f 131/4/2 153/4/2 157/4/2
f 155/4/2 156/4/2 157/4/2
f 153/4/2 154/4/2 157/4/2
f 156/4/2 132/4/2 158/4/2
f 157/4/2 156/4/2 158/4/2
f 159/4/2 160/4/2 163/4/2
f 161/4/2 162/4/2 164/4/2
f 159/4/2 163/4/2 165/4/2
f 163/4/2 164/4/2 165/4/2
f 164/4/2 162/4/2 166/4/2
f 165/4/2 164/4/2 166/4/2
f 167/4/2 168/4/2 169/4/2
f 169/4/2 168/4/2 170/4/2
f 171/4/2 172/4/2 173/4/2
f 173/4/2 172/4/2 174/4/2
f 178/4/3 176/4/3 175/4/3
f 180/4/3 178/4/3 177/4/3
f 181/4/3 176/4/3 178/4/3
f 181/4/3 178/4/3 180/4/3
f 182/4/3 176/4/3 181/4/3
f 184/4/3 180/4/3 179/4/3
f 184/4/3 181/4/3 180/4/3
f 185/4/3 181/4/3 184/4/3
f 186/3/3 182/3/3 181/3/3
f 186/4/3 181/4/3 185/4/3
f 187/4/3 176/4/3 182/4/3
f 187/3/3 182/3/3 186/3/3
f 188/4/3 176/4/3 187/4/3
f 189/4/3 185/4/3 184/4/3
f 189/4/3 184/4/3 183/4/3
f 190/4/3 185/4/3 189/4/3
f 191/3/3 186/3/3 185/3/3
f 191/4/3 185/4/3 190/4/3
f 191/3/3 188/3/3 187/3/3
f 191/3/3 187/3/3 186/3/3
f 192/3/3 188/3/3 191/3/3
f 193/3/3 188/3/3 192/3/3
f 194/4/3 176/4/3 188/4/3
f 194/3/3 188/3/3 193/3/3
f 195/4/3 191/4/3 190/4/3
f 195/4/3 192/4/3 191/4/3
f 196/4/3 192/4/3 195/4/3
f 197/3/3 193/3/3 192/3/3
f 197/4/3 192/4/3 196/4/3
f 198/4/3 194/4/3 193/4/3
f 198/3/3 193/3/3 197/3/3
f 199/4/3 197/4/3 196/4/3
f 199/4/3 198/4/3 197/4/3
f 200/4/3 198/4/3 199/4/3
f 201/4/3 198/4/3 200/4/3
f 202/4/3 176/4/3 194/4/3
f 202/4/3 198/4/3 201/4/3
f 202/4/3 194/4/3 198/4/3
f 207/4/3 204/4/3 203/4/3
f 208/4/3 204/4/3 207/4/3
f 209/4/3 204/4/3 208/4/3
f 210/4/3 206/4/3 205/4/3
f 211/4/3 209/4/3 208/4/3
f 211/4/3 210/4/3 209/4/3
f 211/4/3 206/4/3 210/4/3
f 212/4/3 206/4/3 211/4/3
f 214/3/3 208/3/3 207/3/3
f 215/4/3 211/4/3 208/4/3
f 215/3/3 208/3/3 214/3/3
f 216/4/3 211/4/3 215/4/3
f 217/4/3 211/4/3 216/4/3
f 218/4/3 214/4/3 213/4/3
f 218/4/3 215/4/3 214/4/3
f 218/4/3 216/4/3 215/4/3
f 219/4/3 216/4/3 218/4/3
f 220/4/3 218/4/3 213/4/3
f 221/4/3 218/4/3 220/4/3
f 222/4/3 220/4/3 213/4/3
f 224/4/3 223/4/3 222/4/3
f 226/4/3 224/4/3 222/4/3
f 226/4/3 225/4/3 224/4/3
f 226/4/3 222/4/3 213/4/3
f 227/4/3 225/4/3 226/4/3
f 228/4/3 225/4/3 227/4/3
f 229/4/3 225/4/3 228/4/3
f 231/4/3 229/4/3 228/4/3
f 231/4/3 230/4/3 229/4/3
f 233/3/3 228/3/3 227/3/3
f 234/4/3 231/4/3 228/4/3
f 234/3/3 228/3/3 233/3/3
f 234/4/3 232/4/3 231/4/3
f 235/4/3 232/4/3 234/4/3
f 236/4/3 232/4/3 235/4/3
f 237/4/3 232/4/3 236/4/3
f 238/4/3 232/4/3 237/4/3
f 239/4/3 234/4/3 233/4/3
f 239/4/3 235/4/3 234/4/3
f 240/4/3 235/4/3 239/4/3
f 241/4/3 232/4/3 238/4/3
f 242/4/3 232/4/3 241/4/3
f 245/4/3 244/4/3 243/4/3
f 246/4/3 244/4/3 245/4/3
f 249/4/3 248/4/3 247/4/3
f 250/4/3 248/4/3 249/4/3
f 253/4/3 252/4/3 251/4/3
f 254/4/3 252/4/3 253/4/3
f 257/4/3 256/4/3 255/4/3
f 258/4/3 256/4/3 257/4/3
f 261/4/3 260/4/3 259/4/3
f 262/4/3 260/4/3 261/4/3
f 263/4/4 264/4/4 265/4/4
f 265/4/4 264/4/4 266/4/4
f 267/4/4 268/4/4 269/4/4
f 269/4/4 268/4/4 270/4/4
f 271/4/4 272/4/4 273/4/4
f 273/4/4 272/4/4 274/4/4
f 275/4/4 276/4/4 277/4/4
f 277/4/4 276/4/4 278/4/4
f 279/4/4 280/4/4 281/4/4
f 281/4/4 280/4/4 282/4/4
f 283/4/4 284/4/4 286/4/4
f 284/4/4 285/4/4 286/4/4
f 286/4/4 285/4/4 287/4/4
f 288/4/4 289/4/4 290/4/4
f 290/4/4 289/4/4 291/4/4
f 291/4/4 289/4/4 292/4/4
f 293/4/4 294/4/4 297/4/4
f 297/4/4 294/4/4 298/4/4
f 295/4/4 296/4/4 299/4/4
f 299/4/4 296/4/4 300/4/4
f 300/4/4 296/4/4 301/4/4
f 300/4/4 301/4/4 303/4/4
f 301/4/4 302/4/4 303/4/4
f 303/4/4 302/4/4 304/4/4
f 299/3/4 300/3/4 306/3/4
f 300/4/4 303/4/4 307/4/4
f 306/3/4 300/3/4 307/3/4
f 307/4/4 303/4/4 308/4/4
f 308/4/4 303/4/4 309/4/4
f 309/4/4 303/4/4 310/4/4
f 303/2/4 304/2/4 311/2/4
f 310/4/4 303/4/4 311/4/4
f 304/4/4 302/4/4 312/4/4
f 311/2/4 304/2/4 312/2/4
f 305/4/4 306/4/4 313/4/4
f 306/4/4 307/4/4 313/4/4
f 307/4/4 308/4/4 313/4/4
f 313/4/4 308/4/4 314/4/4
f 314/4/4 308/4/4 315/4/4
f 308/2/4 309/2/4 316/2/4
f 315/4/4 308/4/4 316/4/4
f 309/4/4 310/4/4 317/4/4
f 316/2/4 309/2/4 317/2/4
f 310/2/4 311/2/4 318/2/4
f 317/4/4 310/4/4 318/4/4
f 311/4/4 312/4/4 319/4/4
f 318/2/4 311/2/4 319/2/4
f 312/4/4 302/4/4 320/4/4
f 319/4/4 312/4/4 320/4/4
f 320/4/4 302/4/4 321/4/4
f 305/4/4 313/4/4 322/4/4
f 313/2/4 314/2/4 322/2/4
f 314/4/4 315/4/4 323/4/4
f 322/2/4 314/2/4 323/2/4
f 315/2/4 316/2/4 324/2/4
f 323/4/4 315/4/4 324/4/4
f 316/4/4 317/4/4 325/4/4
f 324/2/4 316/2/4 325/2/4
f 318/4/4 319/4/4 325/4/4
f 317/4/4 318/4/4 325/4/4
f 325/4/4 319/4/4 326/4/4
f 326/4/4 319/4/4 327/4/4
f 323/4/4 324/4/4 328/4/4
f 322/4/4 323/4/4 328/4/4
f 305/4/4 322/4/4 328/4/4
f 325/4/4 326/4/4 328/4/4
f 324/4/4 325/4/4 328/4/4
f 328/4/4 326/4/4 329/4/4
f 329/4/4 326/4/4 330/4/4
f 330/4/4 326/4/4 331/4/4
f 326/2/4 327/2/4 332/2/4
f 331/4/4 326/4/4 332/4/4
f 327/4/4 319/4/4 333/4/4
f 332/2/4 327/2/4 333/2/4
f 305/4/4 328/4/4 334/4/4
f 328/2/4 329/2/4 334/2/4
f 329/4/4 330/4/4 335/4/4
f 334/2/4 329/2/4 335/2/4
f 330/2/4 331/2/4 336/2/4
f 335/4/4 330/4/4 336/4/4
f 331/4/4 332/4/4 337/4/4
f 336/2/4 331/2/4 337/2/4
f 332/4/4 333/4/4 337/4/4
f 333/4/4 319/4/4 338/4/4
f 337/4/4 333/4/4 338/4/4
f 338/4/4 319/4/4 339/4/4
f 319/3/4 320/3/4 340/3/4
f 339/4/4 319/4/4 340/4/4
f 340/3/4 320/3/4 341/3/4
f 335/4/4 336/4/4 343/4/4
f 334/4/4 335/4/4 343/4/4
f 336/4/4 337/4/4 343/4/4
f 305/4/4 334/4/4 343/4/4
f 343/4/4 337/4/4 344/4/4
f 344/4/4 337/4/4 345/4/4
f 337/2/4 338/2/4 346/2/4
f 345/4/4 337/4/4 346/4/4
f 338/4/4 339/4/4 347/4/4
f 346/2/4 338/2/4 347/2/4
f 339/2/4 340/2/4 348/2/4
f 347/4/4 339/4/4 348/4/4
f 341/4/4 342/4/4 349/4/4
f 348/2/4 340/2/4 349/2/4
f 340/4/4 341/4/4 349/4/4
f 349/4/4 342/4/4 350/4/4
f 347/4/4 348/4/4 351/4/4
f 345/4/4 346/4/4 351/4/4
f 349/2/4 350/2/4 351/2/4
f 348/4/4 349/4/4 351/4/4
f 346/4/4 347/4/4 351/4/4
f 350/4/4 342/4/4 352/4/4
f 351/2/4 350/2/4 352/2/4
f 344/3/4 345/3/4 353/3/4
f 345/4/4 351/4/4 354/4/4
f 353/3/4 345/3/4 354/3/4
f 351/4/4 352/4/4 354/4/4
f 354/4/4 352/4/4 355/4/4
f 352/4/4 342/4/4 356/4/4
f 355/4/4 352/4/4 356/4/4
f 354/4/4 355/4/4 359/4/4
f 353/4/4 354/4/4 359/4/4
f 359/4/4 355/4/4 360/4/4
f 357/4/4 358/4/4 361/4/4
f 361/4/4 358/4/4 362/4/4
f 365/4/5 364/4/5 363/4/5
f 366/4/5 364/4/5 365/4/5
f 374/4/5 368/4/5 367/4/5
f 375/4/5 372/4/5 371/4/5
f 377/4/5 374/4/5 373/4/5
f 378/4/5 368/4/5 374/4/5
f 378/4/5 374/4/5 377/4/5
f 379/4/5 376/4/5 375/4/5
f 379/4/5 375/4/5 371/4/5
f 380/4/5 376/4/5 379/4/5
f 381/4/5 368/4/5 378/4/5
f 382/3/5 369/3/5 368/3/5
f 382/4/5 368/4/5 381/4/5
f 383/3/5 369/3/5 382/3/5
f 384/3/5 371/3/5 370/3/5
f 385/4/5 379/4/5 371/4/5
f 385/3/5 371/3/5 384/3/5
f 386/4/5 379/4/5 385/4/5
f 389/4/5 388/4/5 387/4/5
f 390/4/5 388/4/5 389/4/5
f 395/4/5 392/4/5 391/4/5
f 396/4/5 392/4/5 395/4/5
f 397/4/5 394/4/5 393/4/5
f 398/4/5 394/4/5 397/4/5
f 403/4/5 400/4/5 399/4/5
f 404/4/5 400/4/5 403/4/5
f 405/4/5 402/4/5 401/4/5
f 406/4/5 402/4/5 405/4/5
f 411/4/5 408/4/5 407/4/5
f 412/4/5 408/4/5 411/4/5
f 413/4/5 410/4/5 409/4/5
f 414/4/5 410/4/5 413/4/5
f 419/4/5 416/4/5 415/4/5
f 420/4/5 416/4/5 419/4/5
f 421/4/5 418/4/5 417/4/5
f 422/4/5 418/4/5 421/4/5
f 427/4/5 426/4/5 425/4/5
f 428/4/5 424/4/5 423/4/5
f 429/4/5 427/4/5 425/4/5
f 430/4/5 427/4/5 429/4/5
f 431/4/5 424/4/5 428/4/5
f 432/4/5 424/4/5 431/4/5
f 433/4/6 434/4/6 437/4/6
f 437/4/6 434/4/6 438/4/6
f 435/4/6 436/4/6 439/4/6
f 439/4/6 436/4/6 440/4/6
f 441/4/6 442/4/6 445/4/6
f 445/4/6 442/4/6 446/4/6
f 443/4/6 444/4/6 447/4/6
f 447/4/6 444/4/6 448/4/6
f 449/3/6 450/3/6 452/3/6
f 452/3/6 450/3/6 453/3/6
f 451/3/6 452/3/6 455/3/6
f 453/3/6 454/3/6 455/3/6
f 452/3/6 453/3/6 455/3/6
f 455/3/6 454/3/6 456/3/6
f 456/3/6 454/3/6 457/3/6
f 457/3/6 454/3/6 458/3/6
f 456/3/6 457/3/6 459/3/6
f 459/3/6 457/3/6 460/3/6
f 461/4/6 462/4/6 464/4/6
f 464/4/6 462/4/6 465/4/6
f 463/4/6 464/4/6 468/4/6
f 465/4/6 466/4/6 468/4/6
f 464/4/6 465/4/6 468/4/6
f 468/4/6 466/4/6 469/4/6
f 469/4/6 466/4/6 470/4/6
f 467/4/6 468/4/6 471/4/6
f 468/4/6 469/4/6 471/4/6
f 471/4/6 469/4/6 472/4/6
f 470/4/6 466/4/6 473/4/6
f 473/4/6 466/4/6 474/4/6
f 467/4/6 471/4/6 475/4/6
f 474/4/6 466/4/6 478/4/6
f 475/4/6 476/4/6 479/4/6
f 467/4/6 475/4/6 479/4/6
f 479/4/6 476/4/6 480/4/6
f 477/4/6 478/4/6 481/4/6
f 478/4/6 466/4/6 481/4/6
f 481/4/6 466/4/6 482/4/6
f 467/4/6 479/4/6 483/4/6
f 483/4/6 479/4/6 484/4/6
f 480/4/6 476/4/6 485/4/6
f 485/4/6 476/4/6 486/4/6
f 477/4/6 481/4/6 487/4/6
f 487/4/6 481/4/6 488/4/6
f 482/4/6 466/4/6 489/4/6
f 489/4/6 466/4/6 490/4/6
