# MagicaVoxel @ Ephtracy

# group
o 

# material
mtllib SmallFlower3_LOD1.mtl
usemtl palette

# normals
vn -1 0 0
vn 1 0 0
vn 0 0 1
vn 0 0 -1
vn 0 -1 0
vn 0 1 0

# texcoords
vt 0.939453 0.5
vt 0.943359 0.5
vt 0.974609 0.5
vt 0.986328 0.5

# verts
v -0.2 0.4 0.2
v -0.2 0.4 -0.1
v -0.2 0.6 0.2
v -0.2 0.6 -0.1
v -0.2 0.8 0.2
v -0.2 0.8 -0.1
v -0.1 0 0.1
v -0.1 0 0
v -0.1 0.3 0.1
v -0.1 0.3 0
v 0 0 0.1
v 0 0 0
v 0 0.3 0.1
v 0 0.3 0
v 0.1 0.4 0.2
v 0.1 0.4 -0.1
v 0.1 0.6 0.2
v 0.1 0.6 -0.1
v 0.1 0.8 0.2
v 0.1 0.8 -0.1
v -0.2 0.4 0.2
v -0.2 0.6 0.2
v -0.2 0.8 0.2
v 0.1 0.4 0.2
v 0.1 0.6 0.2
v 0.1 0.8 0.2
v -0.1 0 0.1
v -0.1 0.3 0.1
v 0 0 0.1
v 0 0.3 0.1
v -0.1 0 0
v -0.1 0.3 0
v 0 0 0
v 0 0.3 0
v -0.2 0.4 -0.1
v -0.2 0.6 -0.1
v -0.2 0.8 -0.1
v 0.1 0.4 -0.1
v 0.1 0.6 -0.1
v 0.1 0.8 -0.1
v -0.1 0 0.1
v 0 0 0.1
v -0.1 0 0
v 0 0 0
v -0.2 0.4 0.2
v 0.1 0.4 0.2
v -0.2 0.4 -0.1
v 0.1 0.4 -0.1
v -0.1 0.3 0.1
v 0 0.3 0.1
v -0.1 0.3 0
v 0 0.3 0
v -0.2 0.8 0.2
v 0.1 0.8 0.2
v -0.2 0.8 -0.1
v 0.1 0.8 -0.1

# faces
f 3/1/1 2/1/1 1/1/1
f 4/1/1 2/1/1 3/1/1
f 5/2/1 4/2/1 3/2/1
f 6/2/1 4/2/1 5/2/1
f 9/3/1 8/3/1 7/3/1
f 10/3/1 8/3/1 9/3/1
f 11/3/2 12/3/2 13/3/2
f 13/3/2 12/3/2 14/3/2
f 15/1/2 16/1/2 17/1/2
f 17/1/2 16/1/2 18/1/2
f 17/2/2 18/2/2 19/2/2
f 19/2/2 18/2/2 20/2/2
f 24/1/3 22/1/3 21/1/3
f 25/2/3 23/2/3 22/2/3
f 25/1/3 22/1/3 24/1/3
f 26/2/3 23/2/3 25/2/3
f 29/3/3 28/3/3 27/3/3
f 30/3/3 28/3/3 29/3/3
f 31/3/4 32/3/4 33/3/4
f 33/3/4 32/3/4 34/3/4
f 35/1/4 36/1/4 38/1/4
f 36/2/4 37/2/4 39/2/4
f 38/1/4 36/1/4 39/1/4
f 39/2/4 37/2/4 40/2/4
f 43/3/5 42/3/5 41/3/5
f 44/3/5 42/3/5 43/3/5
f 47/1/5 46/1/5 45/1/5
f 48/1/5 46/1/5 47/1/5
f 49/3/6 50/3/6 51/3/6
f 51/3/6 50/3/6 52/3/6
f 53/2/6 54/2/6 55/2/6
f 55/2/6 54/2/6 56/2/6
