# Blender v2.93.5 OBJ File: 'FlowerS.blend'
# www.blender.org
mtllib FlowersBlue.mtl
o Plane.003_Plane.004
v 0.019431 1.236672 1.631755
v 0.013901 -0.844229 1.631706
v -0.016436 1.236672 1.268976
v -0.030769 -0.844229 1.268848
v -0.005816 0.155771 1.655762
v -0.002606 0.155771 1.297626
v 0.176965 1.236672 1.482606
v 0.148092 -0.833013 1.479594
v -0.184825 1.236672 1.408064
v -0.185189 -0.844229 1.448693
v 0.197172 0.155771 1.452120
v -0.177920 0.155771 1.462875
v -1.014215 1.450703 2.078725
v 0.985705 1.450704 2.096650
v -1.002805 1.450703 0.805688
v 0.997115 1.450704 0.823612
v -0.800888 1.148271 1.444067
v 0.783789 1.148271 1.458270
v -0.013070 1.148271 1.955527
v -0.004029 1.148271 0.946810
v -0.008550 1.341746 1.451169
v 1.103036 1.677642 -0.132850
v 1.103037 -0.403259 -0.138380
v 1.465480 1.677642 -0.171966
v 1.465480 -0.403259 -0.186300
v 1.078805 0.596741 -0.157880
v 1.436954 0.596741 -0.157880
v 1.253591 1.677642 0.023342
v 1.256346 -0.392043 -0.005558
v 1.324889 1.677642 -0.339102
v 1.284258 -0.403259 -0.339102
v 1.284258 0.596741 0.043275
v 1.270141 0.596741 -0.331706
v 0.646821 1.891674 -1.162448
v 0.646821 1.891674 0.837553
v 1.919910 1.891674 -1.162447
v 1.919910 1.891674 0.837553
v 1.283365 1.589241 -0.954818
v 1.283365 1.589241 0.629923
v 0.778986 1.589241 -0.162447
v 1.787744 1.589241 -0.162448
v 1.283365 1.782716 -0.162448
v -1.016205 1.485746 -0.900752
v -1.011644 -0.595155 -0.903879
v -0.778962 1.485746 -0.623964
v -0.767141 -0.595155 -0.632071
v -1.009267 0.404845 -0.934891
v -0.806712 0.404845 -0.639523
v -1.059870 1.485746 -0.688252
v -1.034478 -0.583939 -0.702325
v -0.720637 1.485746 -0.834436
v -0.743616 -0.595155 -0.867944
v -1.058964 0.404845 -0.651688
v -0.757699 0.404845 -0.875404
v -0.425104 1.699778 -1.859294
v -2.074520 1.699777 -0.728176
v 0.294902 1.699777 -0.809368
v -1.354514 1.699777 0.321750
v -0.236335 1.397345 -1.216905
v -1.543283 1.397345 -0.320640
v -1.175065 1.397345 -1.184738
v -0.604553 1.397345 -0.352807
v -0.889809 1.590820 -0.768772
vt 0.987760 0.153807
vt 0.987760 0.327899
vt 0.763695 0.327899
vt 0.763695 0.153807
vt 0.988286 0.201236
vt 0.988286 0.410111
vt 0.762094 0.410111
vt 0.762094 0.201236
vt 0.987760 0.153807
vt 0.987760 0.327899
vt 0.763695 0.327899
vt 0.763695 0.153807
vt 0.988286 0.201236
vt 0.988286 0.410111
vt 0.762094 0.410111
vt 0.762094 0.201236
vt 0.189437 0.469056
vt 0.375812 0.469056
vt 0.375812 0.567101
vt 0.189437 0.567101
vt 0.189437 0.371011
vt 0.375812 0.371011
vt 0.003062 0.371011
vt 0.003062 0.469056
vt 0.003062 0.567101
vt 0.987760 0.153807
vt 0.987760 0.327899
vt 0.763695 0.327899
vt 0.763695 0.153807
vt 0.988286 0.201236
vt 0.988286 0.410111
vt 0.762094 0.410111
vt 0.762094 0.201236
vt 0.987760 0.153807
vt 0.987760 0.327899
vt 0.763695 0.327899
vt 0.763695 0.153807
vt 0.988286 0.201236
vt 0.988286 0.410111
vt 0.762094 0.410111
vt 0.762094 0.201236
vt 0.189437 0.469056
vt 0.375812 0.469056
vt 0.375812 0.567101
vt 0.189437 0.567101
vt 0.189437 0.371011
vt 0.375812 0.371011
vt 0.003062 0.371011
vt 0.003062 0.469056
vt 0.003062 0.567101
vt 0.987760 0.153807
vt 0.987760 0.327899
vt 0.763695 0.327899
vt 0.763695 0.153807
vt 0.988286 0.201236
vt 0.988286 0.410111
vt 0.762094 0.410111
vt 0.762094 0.201236
vt 0.987760 0.153807
vt 0.987760 0.327899
vt 0.763695 0.327899
vt 0.763695 0.153807
vt 0.988286 0.201236
vt 0.988286 0.410111
vt 0.762094 0.410111
vt 0.762094 0.201236
vt 0.189437 0.469056
vt 0.375812 0.469056
vt 0.375812 0.567101
vt 0.189437 0.567101
vt 0.189437 0.371011
vt 0.375812 0.371011
vt 0.003062 0.371011
vt 0.003062 0.469056
vt 0.003062 0.567101
vn 0.9983 -0.0027 -0.0574
vn 0.9990 -0.0064 -0.0453
vn 0.0285 -0.0075 -0.9996
vn 0.0862 -0.0101 -0.9962
vn -0.0550 0.9949 0.0847
vn -0.0534 0.9949 -0.0856
vn 0.0550 0.9949 -0.0847
vn 0.0534 0.9949 0.0856
vn 0.0664 -0.0027 0.9978
vn 0.0542 -0.0064 0.9985
vn 0.9998 -0.0075 0.0196
vn 0.9970 -0.0101 0.0773
vn -0.0851 0.9949 -0.0542
vn 0.0851 0.9949 -0.0542
vn 0.0851 0.9949 0.0542
vn -0.0851 0.9949 0.0542
vn -0.7854 -0.0027 0.6190
vn -0.7928 -0.0064 0.6094
vn 0.5493 -0.0075 0.8356
vn 0.5001 -0.0101 0.8659
vn -0.0035 0.9949 -0.1009
vn 0.0929 0.9949 0.0396
vn 0.0035 0.9949 0.1009
vn -0.0929 0.9949 -0.0396
usemtl None
s off
f 5/1/1 2/2/1 4/3/1 6/4/1
f 1/5/2 5/6/2 6/7/2 3/8/2
f 11/9/3 8/10/3 10/11/3 12/12/3
f 7/13/4 11/14/4 12/15/4 9/16/4
f 21/17/5 18/18/5 16/19/5 20/20/5
f 19/21/6 14/22/6 18/18/6 21/17/6
f 13/23/7 19/21/7 21/17/7 17/24/7
f 17/24/8 21/17/8 20/20/8 15/25/8
f 26/26/9 23/27/9 25/28/9 27/29/9
f 22/30/10 26/31/10 27/32/10 24/33/10
f 32/34/11 29/35/11 31/36/11 33/37/11
f 28/38/12 32/39/12 33/40/12 30/41/12
f 42/42/13 39/43/13 37/44/13 41/45/13
f 40/46/14 35/47/14 39/43/14 42/42/14
f 34/48/15 40/46/15 42/42/15 38/49/15
f 38/49/16 42/42/16 41/45/16 36/50/16
f 47/51/17 44/52/17 46/53/17 48/54/17
f 43/55/18 47/56/18 48/57/18 45/58/18
f 53/59/19 50/60/19 52/61/19 54/62/19
f 49/63/20 53/64/20 54/65/20 51/66/20
f 63/67/21 60/68/21 58/69/21 62/70/21
f 61/71/22 56/72/22 60/68/22 63/67/22
f 55/73/23 61/71/23 63/67/23 59/74/23
f 59/74/24 63/67/24 62/70/24 57/75/24
