# MagicaVoxel @ Ephtracy

# group
o 

# material
mtllib SmallFlower2_LOD1.mtl
usemtl palette

# normals
vn -1 0 0
vn 1 0 0
vn 0 0 1
vn 0 0 -1
vn 0 -1 0
vn 0 1 0

# texcoords
vt 0.974609 0.5
vt 0.986328 0.5
vt 0.994141 0.5

# verts
v -0.2 0.5 0.2
v -0.2 0.5 -0.1
v -0.2 0.8 0.2
v -0.2 0.8 -0.1
v -0.1 0 0.1
v -0.1 0 0
v -0.1 0.4 0.1
v -0.1 0.4 0
v 0 0 0.1
v 0 0 0
v 0 0.4 0.1
v 0 0.4 0
v 0.1 0.5 0.2
v 0.1 0.5 -0.1
v 0.1 0.8 0.2
v 0.1 0.8 -0.1
v -0.2 0.5 0.2
v -0.2 0.8 0.2
v 0.1 0.5 0.2
v 0.1 0.8 0.2
v -0.1 0 0.1
v -0.1 0.4 0.1
v 0 0 0.1
v 0 0.4 0.1
v -0.1 0 0
v -0.1 0.4 0
v 0 0 0
v 0 0.4 0
v -0.2 0.5 -0.1
v -0.2 0.8 -0.1
v 0.1 0.5 -0.1
v 0.1 0.8 -0.1
v -0.1 0 0.1
v 0 0 0.1
v -0.1 0 0
v 0 0 0
v -0.2 0.5 0.2
v 0.1 0.5 0.2
v -0.2 0.5 -0.1
v 0.1 0.5 -0.1
v -0.1 0.4 0.1
v 0 0.4 0.1
v -0.1 0.4 0
v 0 0.4 0
v -0.2 0.8 0.2
v 0.1 0.8 0.2
v -0.2 0.8 -0.1
v 0.1 0.8 -0.1

# faces
f 3/3/1 2/3/1 1/3/1
f 4/3/1 2/3/1 3/3/1
f 7/1/1 6/1/1 5/1/1
f 8/1/1 6/1/1 7/1/1
f 9/1/2 10/1/2 11/1/2
f 11/1/2 10/1/2 12/1/2
f 13/3/2 14/3/2 15/3/2
f 15/3/2 14/3/2 16/3/2
f 19/3/3 18/3/3 17/3/3
f 20/3/3 18/3/3 19/3/3
f 23/1/3 22/1/3 21/1/3
f 24/1/3 22/1/3 23/1/3
f 25/1/4 26/1/4 27/1/4
f 27/1/4 26/1/4 28/1/4
f 29/3/4 30/3/4 31/3/4
f 31/3/4 30/3/4 32/3/4
f 35/1/5 34/1/5 33/1/5
f 36/1/5 34/1/5 35/1/5
f 39/3/5 38/3/5 37/3/5
f 40/3/5 38/3/5 39/3/5
f 41/1/6 42/1/6 43/1/6
f 43/1/6 42/1/6 44/1/6
f 45/3/6 46/3/6 47/3/6
f 47/3/6 46/3/6 48/3/6
