# MagicaVoxel @ Ephtracy

# group
o 

# material
mtllib RocketBot_LOD1-0.mtl
usemtl palette

# normals
vn -1 0 0
vn 1 0 0
vn 0 0 -1
vn 0 0 1
vn 0 -1 0
vn 0 1 0

# texcoords
vt 0.974609 0.5
vt 0.978516 0.5

# verts
v 0.8 1.6 -0.5
v 0.8 1.6 -0.3
v 0.8 1.6 -0.2
v 0.8 1.6 0.4
v 0.8 1.8 -0.1
v 0.8 1.8 0.4
v 0.8 1.9 -0.2
v 0.8 1.9 -0.1
v 0.8 1.9 0.2
v 0.8 1.9 0.7
v 0.8 2 -0.5
v 0.8 2 -0.3
v 0.8 2 0.2
v 0.8 2 0.7
v 0.8 2.1 -0.5
v 0.8 2.1 -0.3
v 0.8 2.1 0.1
v 0.8 2.1 0.7
v 0.8 2.2 -0.2
v 0.8 2.2 0.1
v 0.8 2.3 0.1
v 0.8 2.3 0.7
v 0.8 2.4 -0.5
v 0.8 2.4 -0.3
v 0.8 2.4 -0.2
v 0.8 2.4 0.1
v 0.9 1.7 -0.3
v 0.9 1.7 -0.2
v 0.9 1.8 -0.1
v 0.9 1.8 0.3
v 0.9 1.9 -0.2
v 0.9 1.9 -0.1
v 0.9 1.9 0.2
v 0.9 1.9 0.3
v 0.9 2 -0.4
v 0.9 2 -0.3
v 0.9 2 0.2
v 0.9 2 0.7
v 0.9 2.1 -0.4
v 0.9 2.1 -0.3
v 0.9 2.1 0.1
v 0.9 2.1 0.7
v 0.9 2.2 -0.2
v 0.9 2.2 0.1
v 0.9 2.3 -0.3
v 0.9 2.3 -0.2
v 0.9 2.3 0.1
v 0.9 2.3 0.7
v 0.9 2.4 0.1
v 0.9 2.4 0.7
v 1 1.8 0.3
v 1 1.8 0.4
v 1 1.9 0.3
v 1 1.9 0.4
v 1.2 1.6 -0.5
v 1.2 1.6 -0.3
v 1.2 1.7 -0.4
v 1.2 1.7 -0.3
v 1.2 2 -0.5
v 1.2 2 -0.4
v 1.2 2.1 -0.5
v 1.2 2.1 -0.4
v 1.2 2.1 0.6
v 1.2 2.1 0.7
v 1.2 2.2 0.6
v 1.2 2.2 0.7
v 1.2 2.3 -0.4
v 1.2 2.3 -0.3
v 1.2 2.3 -0.2
v 1.2 2.3 0
v 1.2 2.4 -0.5
v 1.2 2.4 -0.3
v 1.2 2.4 -0.2
v 1.2 2.4 0
v 1 1.6 -0.5
v 1 1.6 -0.3
v 1 1.7 -0.4
v 1 1.7 -0.3
v 1 2 -0.5
v 1 2 -0.4
v 1 2.1 -0.5
v 1 2.1 -0.4
v 1 2.1 0.6
v 1 2.1 0.7
v 1 2.2 0.6
v 1 2.2 0.7
v 1 2.3 -0.4
v 1 2.3 -0.3
v 1 2.3 -0.2
v 1 2.3 0
v 1 2.4 -0.5
v 1 2.4 -0.3
v 1 2.4 -0.2
v 1 2.4 0
v 1.2 1.8 0.3
v 1.2 1.8 0.4
v 1.2 1.9 0.3
v 1.2 1.9 0.4
v 1.3 1.7 -0.3
v 1.3 1.7 -0.2
v 1.3 1.8 0
v 1.3 1.8 0.3
v 1.3 1.9 0.2
v 1.3 1.9 0.3
v 1.3 2 -0.4
v 1.3 2 -0.3
v 1.3 2 -0.2
v 1.3 2 0
v 1.3 2 0.2
v 1.3 2 0.7
v 1.3 2.1 -0.4
v 1.3 2.1 -0.3
v 1.3 2.1 -0.1
v 1.3 2.1 0.7
v 1.3 2.2 -0.2
v 1.3 2.2 -0.1
v 1.3 2.3 -0.3
v 1.3 2.3 -0.2
v 1.3 2.3 0.1
v 1.3 2.3 0.7
v 1.3 2.4 0.1
v 1.3 2.4 0.7
v 1.4 1.6 -0.5
v 1.4 1.6 -0.3
v 1.4 1.6 -0.2
v 1.4 1.6 0.4
v 1.4 1.8 0
v 1.4 1.8 0.4
v 1.4 1.9 0.2
v 1.4 1.9 0.7
v 1.4 2 -0.5
v 1.4 2 -0.3
v 1.4 2 -0.2
v 1.4 2 0
v 1.4 2 0.2
v 1.4 2 0.7
v 1.4 2.1 -0.5
v 1.4 2.1 -0.3
v 1.4 2.1 -0.1
v 1.4 2.1 0.7
v 1.4 2.2 -0.2
v 1.4 2.2 -0.1
v 1.4 2.3 0.1
v 1.4 2.3 0.7
v 1.4 2.4 -0.5
v 1.4 2.4 -0.3
v 1.4 2.4 -0.2
v 1.4 2.4 0.1
v 0.8 1.6 -0.5
v 0.8 2 -0.5
v 0.8 2.1 -0.5
v 0.8 2.4 -0.5
v 1 1.6 -0.5
v 1 2 -0.5
v 1 2.1 -0.5
v 1 2.4 -0.5
v 1.2 1.6 -0.5
v 1.2 2 -0.5
v 1.2 2.1 -0.5
v 1.2 2.4 -0.5
v 1.4 1.6 -0.5
v 1.4 2 -0.5
v 1.4 2.1 -0.5
v 1.4 2.4 -0.5
v 0.9 2 -0.4
v 0.9 2.1 -0.4
v 1 1.7 -0.4
v 1 2 -0.4
v 1 2.1 -0.4
v 1 2.3 -0.4
v 1.2 1.7 -0.4
v 1.2 2 -0.4
v 1.2 2.1 -0.4
v 1.2 2.3 -0.4
v 1.3 2 -0.4
v 1.3 2.1 -0.4
v 0.8 1.6 -0.2
v 0.8 1.9 -0.2
v 0.8 2.2 -0.2
v 0.8 2.4 -0.2
v 0.9 1.7 -0.2
v 0.9 1.9 -0.2
v 0.9 2.2 -0.2
v 0.9 2.3 -0.2
v 1 2.3 -0.2
v 1 2.4 -0.2
v 1.2 2.3 -0.2
v 1.2 2.4 -0.2
v 1.3 1.7 -0.2
v 1.3 2 -0.2
v 1.3 2.2 -0.2
v 1.3 2.3 -0.2
v 1.4 1.6 -0.2
v 1.4 2 -0.2
v 1.4 2.2 -0.2
v 1.4 2.4 -0.2
v 1.3 2.1 -0.1
v 1.3 2.2 -0.1
v 1.4 2.1 -0.1
v 1.4 2.2 -0.1
v 1 2.3 0
v 1 2.4 0
v 1.2 2.3 0
v 1.2 2.4 0
v 0.8 2.1 0.1
v 0.8 2.2 0.1
v 0.9 2.1 0.1
v 0.9 2.2 0.1
v 0.8 1.9 0.2
v 0.8 2 0.2
v 0.9 1.9 0.2
v 0.9 2 0.2
v 1.3 1.9 0.2
v 1.3 2 0.2
v 1.4 1.9 0.2
v 1.4 2 0.2
v 0.8 1.6 -0.3
v 0.8 2 -0.3
v 0.8 2.1 -0.3
v 0.8 2.4 -0.3
v 0.9 1.7 -0.3
v 0.9 2 -0.3
v 0.9 2.1 -0.3
v 0.9 2.3 -0.3
v 1 1.6 -0.3
v 1 1.7 -0.3
v 1 2.3 -0.3
v 1 2.4 -0.3
v 1.2 1.6 -0.3
v 1.2 1.7 -0.3
v 1.2 2.3 -0.3
v 1.2 2.4 -0.3
v 1.3 1.7 -0.3
v 1.3 2 -0.3
v 1.3 2.1 -0.3
v 1.3 2.3 -0.3
v 1.4 1.6 -0.3
v 1.4 2 -0.3
v 1.4 2.1 -0.3
v 1.4 2.4 -0.3
v 0.8 1.8 -0.1
v 0.8 1.9 -0.1
v 0.9 1.8 -0.1
v 0.9 1.9 -0.1
v 1.3 1.8 0
v 1.3 2 0
v 1.4 1.8 0
v 1.4 2 0
v 0.8 2.3 0.1
v 0.8 2.4 0.1
v 0.9 2.3 0.1
v 0.9 2.4 0.1
v 1.3 2.3 0.1
v 1.3 2.4 0.1
v 1.4 2.3 0.1
v 1.4 2.4 0.1
v 0.9 1.8 0.3
v 0.9 1.9 0.3
v 1 1.8 0.3
v 1 1.9 0.3
v 1.2 1.8 0.3
v 1.2 1.9 0.3
v 1.3 1.8 0.3
v 1.3 1.9 0.3
v 0.8 1.6 0.4
v 0.8 1.8 0.4
v 1 1.8 0.4
v 1 1.9 0.4
v 1.2 1.8 0.4
v 1.2 1.9 0.4
v 1.4 1.6 0.4
v 1.4 1.8 0.4
v 1 2.1 0.6
v 1 2.2 0.6
v 1.2 2.1 0.6
v 1.2 2.2 0.6
v 0.8 1.9 0.7
v 0.8 2 0.7
v 0.8 2.1 0.7
v 0.8 2.3 0.7
v 0.9 2 0.7
v 0.9 2.1 0.7
v 0.9 2.3 0.7
v 0.9 2.4 0.7
v 1 2 0.7
v 1 2.1 0.7
v 1 2.2 0.7
v 1.2 2 0.7
v 1.2 2.1 0.7
v 1.2 2.2 0.7
v 1.3 2 0.7
v 1.3 2.1 0.7
v 1.3 2.3 0.7
v 1.3 2.4 0.7
v 1.4 1.9 0.7
v 1.4 2 0.7
v 1.4 2.1 0.7
v 1.4 2.3 0.7
v 0.8 1.6 -0.5
v 1 1.6 -0.5
v 1.2 1.6 -0.5
v 1.4 1.6 -0.5
v 0.8 1.6 -0.3
v 1 1.6 -0.3
v 1.2 1.6 -0.3
v 1.4 1.6 -0.3
v 0.8 1.6 -0.2
v 1.4 1.6 -0.2
v 0.8 1.6 0.4
v 1.4 1.6 0.4
v 1 1.7 -0.4
v 1.2 1.7 -0.4
v 0.9 1.7 -0.3
v 1 1.7 -0.3
v 1.2 1.7 -0.3
v 1.3 1.7 -0.3
v 0.9 1.7 -0.2
v 1.3 1.7 -0.2
v 0.8 1.9 0.2
v 0.9 1.9 0.2
v 1.3 1.9 0.2
v 1.4 1.9 0.2
v 0.9 1.9 0.3
v 1 1.9 0.3
v 1.2 1.9 0.3
v 1.3 1.9 0.3
v 1 1.9 0.4
v 1.2 1.9 0.4
v 0.8 1.9 0.7
v 1.4 1.9 0.7
v 0.8 2.1 -0.5
v 1 2.1 -0.5
v 1.2 2.1 -0.5
v 1.4 2.1 -0.5
v 0.9 2.1 -0.4
v 1 2.1 -0.4
v 1.2 2.1 -0.4
v 1.3 2.1 -0.4
v 0.8 2.1 -0.3
v 0.9 2.1 -0.3
v 1.3 2.1 -0.3
v 1.4 2.1 -0.3
v 1.3 2.1 -0.1
v 1.4 2.1 -0.1
v 0.8 2.1 0.1
v 0.9 2.1 0.1
v 0.8 2.1 0.7
v 0.9 2.1 0.7
v 1.3 2.1 0.7
v 1.4 2.1 0.7
v 0.8 2.2 -0.2
v 0.9 2.2 -0.2
v 1.3 2.2 -0.2
v 1.4 2.2 -0.2
v 1.3 2.2 -0.1
v 1.4 2.2 -0.1
v 0.8 2.2 0.1
v 0.9 2.2 0.1
v 1 2.2 0.6
v 1.2 2.2 0.6
v 1 2.2 0.7
v 1.2 2.2 0.7
v 0.8 1.8 -0.1
v 0.9 1.8 -0.1
v 1.3 1.8 0
v 1.4 1.8 0
v 0.9 1.8 0.3
v 1 1.8 0.3
v 1.2 1.8 0.3
v 1.3 1.8 0.3
v 0.8 1.8 0.4
v 1 1.8 0.4
v 1.2 1.8 0.4
v 1.4 1.8 0.4
v 0.8 1.9 -0.2
v 0.9 1.9 -0.2
v 0.8 1.9 -0.1
v 0.9 1.9 -0.1
v 0.8 2 -0.5
v 1 2 -0.5
v 1.2 2 -0.5
v 1.4 2 -0.5
v 0.9 2 -0.4
v 1 2 -0.4
v 1.2 2 -0.4
v 1.3 2 -0.4
v 0.8 2 -0.3
v 0.9 2 -0.3
v 1.3 2 -0.3
v 1.4 2 -0.3
v 1.3 2 -0.2
v 1.4 2 -0.2
v 1.3 2 0
v 1.4 2 0
v 0.8 2 0.2
v 0.9 2 0.2
v 1.3 2 0.2
v 1.4 2 0.2
v 0.8 2 0.7
v 0.9 2 0.7
v 1.3 2 0.7
v 1.4 2 0.7
v 1 2.1 0.6
v 1.2 2.1 0.6
v 1 2.1 0.7
v 1.2 2.1 0.7
v 1 2.3 -0.4
v 1.2 2.3 -0.4
v 0.9 2.3 -0.3
v 1 2.3 -0.3
v 1.2 2.3 -0.3
v 1.3 2.3 -0.3
v 0.9 2.3 -0.2
v 1 2.3 -0.2
v 1.2 2.3 -0.2
v 1.3 2.3 -0.2
v 1 2.3 0
v 1.2 2.3 0
v 0.8 2.3 0.1
v 0.9 2.3 0.1
v 1.3 2.3 0.1
v 1.4 2.3 0.1
v 0.8 2.3 0.7
v 0.9 2.3 0.7
v 1.3 2.3 0.7
v 1.4 2.3 0.7
v 0.8 2.4 -0.5
v 1 2.4 -0.5
v 1.2 2.4 -0.5
v 1.4 2.4 -0.5
v 0.8 2.4 -0.3
v 1 2.4 -0.3
v 1.2 2.4 -0.3
v 1.4 2.4 -0.3
v 0.8 2.4 -0.2
v 1 2.4 -0.2
v 1.2 2.4 -0.2
v 1.4 2.4 -0.2
v 1 2.4 0
v 1.2 2.4 0
v 0.8 2.4 0.1
v 0.9 2.4 0.1
v 1.3 2.4 0.1
v 1.4 2.4 0.1
v 0.9 2.4 0.7
v 1.3 2.4 0.7

# faces
f 3/2/1 4/2/1 5/2/1
f 5/2/1 4/2/1 6/2/1
f 3/2/1 5/2/1 7/2/1
f 7/2/1 5/2/1 8/2/1
f 1/2/1 2/2/1 11/2/1
f 11/2/1 2/2/1 12/2/1
f 9/2/1 10/2/1 13/2/1
f 13/2/1 10/2/1 14/2/1
f 17/2/1 18/2/1 20/2/1
f 20/2/1 18/2/1 21/2/1
f 19/2/1 20/2/1 21/2/1
f 21/2/1 18/2/1 22/2/1
f 15/2/1 16/2/1 23/2/1
f 23/2/1 16/2/1 24/2/1
f 19/2/1 21/2/1 25/2/1
f 25/2/1 21/2/1 26/2/1
f 27/1/1 28/1/1 31/1/1
f 29/1/1 30/1/1 32/1/1
f 32/1/1 30/1/1 33/1/1
f 33/1/1 30/1/1 34/1/1
f 27/1/1 31/1/1 36/1/1
f 31/1/1 32/1/1 36/1/1
f 32/1/1 33/1/1 36/1/1
f 36/1/1 33/1/1 37/1/1
f 36/1/1 37/1/1 39/1/1
f 37/1/1 38/1/1 39/1/1
f 35/1/1 36/1/1 39/1/1
f 39/1/1 38/1/1 40/1/1
f 40/1/1 38/1/1 41/1/1
f 41/1/1 38/1/1 42/1/1
f 40/1/1 41/1/1 43/1/1
f 43/1/1 41/1/1 44/1/1
f 40/1/1 43/1/1 45/1/1
f 45/1/1 43/1/1 46/1/1
f 47/2/1 48/2/1 49/2/1
f 49/2/1 48/2/1 50/2/1
f 51/2/1 52/2/1 53/2/1
f 53/2/1 52/2/1 54/2/1
f 55/2/1 56/2/1 57/2/1
f 57/2/1 56/2/1 58/2/1
f 55/2/1 57/2/1 59/2/1
f 59/2/1 57/2/1 60/2/1
f 63/2/1 64/2/1 65/2/1
f 65/2/1 64/2/1 66/2/1
f 61/2/1 62/2/1 67/2/1
f 61/2/1 67/2/1 71/2/1
f 67/2/1 68/2/1 71/2/1
f 71/2/1 68/2/1 72/2/1
f 69/2/1 70/2/1 73/2/1
f 73/2/1 70/2/1 74/2/1
f 77/2/2 76/2/2 75/2/2
f 78/2/2 76/2/2 77/2/2
f 79/2/2 77/2/2 75/2/2
f 80/2/2 77/2/2 79/2/2
f 85/2/2 84/2/2 83/2/2
f 86/2/2 84/2/2 85/2/2
f 87/2/2 82/2/2 81/2/2
f 91/2/2 87/2/2 81/2/2
f 91/2/2 88/2/2 87/2/2
f 92/2/2 88/2/2 91/2/2
f 93/2/2 90/2/2 89/2/2
f 94/2/2 90/2/2 93/2/2
f 97/2/2 96/2/2 95/2/2
f 98/2/2 96/2/2 97/2/2
f 103/1/2 102/1/2 101/1/2
f 104/1/2 102/1/2 103/1/2
f 106/1/2 100/1/2 99/1/2
f 107/1/2 100/1/2 106/1/2
f 108/1/2 103/1/2 101/1/2
f 109/1/2 103/1/2 108/1/2
f 111/1/2 109/1/2 108/1/2
f 111/1/2 110/1/2 109/1/2
f 111/1/2 108/1/2 107/1/2
f 111/1/2 107/1/2 106/1/2
f 111/1/2 106/1/2 105/1/2
f 112/1/2 110/1/2 111/1/2
f 113/1/2 110/1/2 112/1/2
f 114/1/2 110/1/2 113/1/2
f 115/1/2 113/1/2 112/1/2
f 116/1/2 113/1/2 115/1/2
f 117/1/2 115/1/2 112/1/2
f 118/1/2 115/1/2 117/1/2
f 121/2/2 120/2/2 119/2/2
f 122/2/2 120/2/2 121/2/2
f 127/2/2 126/2/2 125/2/2
f 128/2/2 126/2/2 127/2/2
f 131/2/2 124/2/2 123/2/2
f 132/2/2 124/2/2 131/2/2
f 133/2/2 127/2/2 125/2/2
f 134/2/2 127/2/2 133/2/2
f 135/2/2 130/2/2 129/2/2
f 136/2/2 130/2/2 135/2/2
f 142/2/2 140/2/2 139/2/2
f 143/2/2 140/2/2 142/2/2
f 143/2/2 142/2/2 141/2/2
f 144/2/2 140/2/2 143/2/2
f 145/2/2 138/2/2 137/2/2
f 146/2/2 138/2/2 145/2/2
f 147/2/2 143/2/2 141/2/2
f 148/2/2 143/2/2 147/2/2
f 149/2/3 150/2/3 153/2/3
f 153/2/3 150/2/3 154/2/3
f 151/2/3 152/2/3 155/2/3
f 155/2/3 152/2/3 156/2/3
f 157/2/3 158/2/3 161/2/3
f 161/2/3 158/2/3 162/2/3
f 159/2/3 160/2/3 163/2/3
f 163/2/3 160/2/3 164/2/3
f 165/1/3 166/1/3 168/1/3
f 168/1/3 166/1/3 169/1/3
f 167/1/3 168/1/3 171/1/3
f 169/1/3 170/1/3 171/1/3
f 168/1/3 169/1/3 171/1/3
f 171/1/3 170/1/3 172/1/3
f 172/1/3 170/1/3 173/1/3
f 173/1/3 170/1/3 174/1/3
f 172/1/3 173/1/3 175/1/3
f 175/1/3 173/1/3 176/1/3
f 177/2/3 178/2/3 181/2/3
f 181/2/3 178/2/3 182/2/3
f 179/2/3 180/2/3 183/2/3
f 183/2/3 180/2/3 184/2/3
f 184/2/3 180/2/3 185/2/3
f 185/2/3 180/2/3 186/2/3
f 177/2/3 181/2/3 189/2/3
f 187/2/3 188/2/3 192/2/3
f 189/2/3 190/2/3 193/2/3
f 177/2/3 189/2/3 193/2/3
f 193/2/3 190/2/3 194/2/3
f 191/2/3 192/2/3 195/2/3
f 192/2/3 188/2/3 196/2/3
f 195/2/3 192/2/3 196/2/3
f 197/2/3 198/2/3 199/2/3
f 199/2/3 198/2/3 200/2/3
f 201/2/3 202/2/3 203/2/3
f 203/2/3 202/2/3 204/2/3
f 205/2/3 206/2/3 207/2/3
f 207/2/3 206/2/3 208/2/3
f 209/2/3 210/2/3 211/2/3
f 211/2/3 210/2/3 212/2/3
f 213/2/3 214/2/3 215/2/3
f 215/2/3 214/2/3 216/2/3
f 221/2/4 218/2/4 217/2/4
f 222/2/4 218/2/4 221/2/4
f 223/2/4 220/2/4 219/2/4
f 224/2/4 220/2/4 223/2/4
f 225/2/4 221/2/4 217/2/4
f 226/2/4 221/2/4 225/2/4
f 227/2/4 220/2/4 224/2/4
f 228/2/4 220/2/4 227/2/4
f 233/2/4 230/2/4 229/2/4
f 236/2/4 232/2/4 231/2/4
f 237/2/4 234/2/4 233/2/4
f 237/2/4 233/2/4 229/2/4
f 238/2/4 234/2/4 237/2/4
f 239/2/4 236/2/4 235/2/4
f 240/2/4 232/2/4 236/2/4
f 240/2/4 236/2/4 239/2/4
f 243/2/4 242/2/4 241/2/4
f 244/2/4 242/2/4 243/2/4
f 247/2/4 246/2/4 245/2/4
f 248/2/4 246/2/4 247/2/4
f 251/2/4 250/2/4 249/2/4
f 252/2/4 250/2/4 251/2/4
f 255/2/4 254/2/4 253/2/4
f 256/2/4 254/2/4 255/2/4
f 259/1/4 258/1/4 257/1/4
f 260/1/4 258/1/4 259/1/4
f 263/1/4 262/1/4 261/1/4
f 264/1/4 262/1/4 263/1/4
f 267/2/4 266/2/4 265/2/4
f 269/2/4 267/2/4 265/2/4
f 269/2/4 268/2/4 267/2/4
f 270/2/4 268/2/4 269/2/4
f 271/2/4 269/2/4 265/2/4
f 272/2/4 269/2/4 271/2/4
f 275/1/4 274/1/4 273/1/4
f 276/1/4 274/1/4 275/1/4
f 281/2/4 278/2/4 277/2/4
f 282/2/4 280/2/4 279/2/4
f 283/2/4 280/2/4 282/2/4
f 285/2/4 281/2/4 277/2/4
f 285/1/4 282/1/4 281/1/4
f 286/2/4 284/2/4 283/2/4
f 286/1/4 282/1/4 285/1/4
f 286/2/4 283/2/4 282/2/4
f 287/2/4 284/2/4 286/2/4
f 288/2/4 285/2/4 277/2/4
f 288/2/4 286/2/4 285/2/4
f 289/2/4 286/2/4 288/2/4
f 290/2/4 284/2/4 287/2/4
f 291/1/4 289/1/4 288/1/4
f 291/2/4 288/2/4 277/2/4
f 292/2/4 290/2/4 289/2/4
f 292/1/4 289/1/4 291/1/4
f 293/2/4 284/2/4 290/2/4
f 293/2/4 290/2/4 292/2/4
f 294/2/4 284/2/4 293/2/4
f 295/2/4 291/2/4 277/2/4
f 296/2/4 291/2/4 295/2/4
f 297/2/4 293/2/4 292/2/4
f 298/2/4 293/2/4 297/2/4
f 299/2/5 300/2/5 303/2/5
f 303/2/5 300/2/5 304/2/5
f 301/2/5 302/2/5 305/2/5
f 305/2/5 302/2/5 306/2/5
f 307/2/5 308/2/5 309/2/5
f 309/2/5 308/2/5 310/2/5
f 311/1/5 312/1/5 314/1/5
f 314/1/5 312/1/5 315/1/5
f 313/1/5 314/1/5 317/1/5
f 315/1/5 316/1/5 317/1/5
f 314/1/5 315/1/5 317/1/5
f 317/1/5 316/1/5 318/1/5
f 319/2/5 320/2/5 323/2/5
f 321/2/5 322/2/5 326/2/5
f 323/2/5 324/2/5 327/2/5
f 325/2/5 326/2/5 328/2/5
f 323/2/5 327/2/5 329/2/5
f 327/2/5 328/2/5 329/2/5
f 319/2/5 323/2/5 329/2/5
f 328/2/5 326/2/5 330/2/5
f 329/2/5 328/2/5 330/2/5
f 326/2/5 322/2/5 330/2/5
f 331/2/5 332/2/5 335/2/5
f 335/2/5 332/2/5 336/2/5
f 333/2/5 334/2/5 337/2/5
f 337/2/5 334/2/5 338/2/5
f 331/2/5 335/2/5 339/2/5
f 339/2/5 335/2/5 340/2/5
f 338/2/5 334/2/5 341/2/5
f 341/2/5 334/2/5 342/2/5
f 345/2/5 346/2/5 347/2/5
f 347/2/5 346/2/5 348/2/5
f 343/2/5 344/2/5 349/2/5
f 349/2/5 344/2/5 350/2/5
f 353/2/5 354/2/5 355/2/5
f 355/2/5 354/2/5 356/2/5
f 351/2/5 352/2/5 357/2/5
f 357/2/5 352/2/5 358/2/5
f 359/2/5 360/2/5 361/2/5
f 361/2/5 360/2/5 362/2/5
f 367/2/6 364/2/6 363/2/6
f 370/2/6 366/2/6 365/2/6
f 371/2/6 368/2/6 367/2/6
f 371/2/6 367/2/6 363/2/6
f 372/2/6 368/2/6 371/2/6
f 373/2/6 370/2/6 369/2/6
f 374/2/6 366/2/6 370/2/6
f 374/2/6 370/2/6 373/2/6
f 377/2/6 376/2/6 375/2/6
f 378/2/6 376/2/6 377/2/6
f 383/2/6 380/2/6 379/2/6
f 384/2/6 380/2/6 383/2/6
f 385/2/6 382/2/6 381/2/6
f 386/2/6 382/2/6 385/2/6
f 387/2/6 383/2/6 379/2/6
f 388/2/6 383/2/6 387/2/6
f 389/2/6 382/2/6 386/2/6
f 390/2/6 382/2/6 389/2/6
f 393/2/6 392/2/6 391/2/6
f 394/2/6 392/2/6 393/2/6
f 399/2/6 396/2/6 395/2/6
f 400/2/6 396/2/6 399/2/6
f 401/2/6 398/2/6 397/2/6
f 402/2/6 398/2/6 401/2/6
f 405/2/6 404/2/6 403/2/6
f 406/2/6 404/2/6 405/2/6
f 410/1/6 408/1/6 407/1/6
f 411/1/6 408/1/6 410/1/6
f 413/1/6 410/1/6 409/1/6
f 413/1/6 412/1/6 411/1/6
f 413/1/6 411/1/6 410/1/6
f 414/1/6 412/1/6 413/1/6
f 415/1/6 412/1/6 414/1/6
f 416/1/6 412/1/6 415/1/6
f 417/1/6 415/1/6 414/1/6
f 418/1/6 415/1/6 417/1/6
f 423/2/6 420/2/6 419/2/6
f 424/2/6 420/2/6 423/2/6
f 425/2/6 422/2/6 421/2/6
f 426/2/6 422/2/6 425/2/6
f 431/2/6 428/2/6 427/2/6
f 432/2/6 428/2/6 431/2/6
f 433/2/6 430/2/6 429/2/6
f 434/2/6 430/2/6 433/2/6
f 439/2/6 436/2/6 435/2/6
f 440/2/6 438/2/6 437/2/6
f 441/2/6 439/2/6 435/2/6
f 441/2/6 440/2/6 439/2/6
f 442/2/6 440/2/6 441/2/6
f 443/2/6 438/2/6 440/2/6
f 443/2/6 440/2/6 442/2/6
f 444/2/6 438/2/6 443/2/6
f 445/2/6 443/2/6 442/2/6
f 446/2/6 443/2/6 445/2/6
