# MagicaVoxel @ Ephtracy

# group
o 

# material
mtllib Mini-Bot_Shooter_LOD0-1.mtl
usemtl palette

# normals
vn 1 0 0
vn -1 0 0
vn 0 0 -1
vn 0 0 1
vn 0 -1 0
vn 0 1 0

# texcoords
vt 0.970703 0.5
vt 0.974609 0.5
vt 0.978516 0.5

# verts
v 0.5 1.3 -0.4
v 0.5 1.3 -0.1
v 0.5 1.3 0.1
v 0.5 1.3 0.5
v 0.5 1.4 -0.4
v 0.5 1.4 -0.1
v 0.5 1.4 0.1
v 0.5 1.4 0.4
v 0.5 1.5 0.4
v 0.5 1.5 0.5
v 0.5 1.7 -0.4
v 0.5 1.7 -0.1
v 0.5 1.7 0.1
v 0.5 1.7 0.4
v 0.5 1.8 -0.4
v 0.5 1.8 -0.1
v 0.5 1.8 0.1
v 0.5 1.8 0.3
v 0.5 1.8 0.4
v 0.5 2 0.1
v 0.5 2 0.3
v 0.5 2.1 -0.4
v 0.5 2.1 -0.1
v 0.5 2.1 0.1
v 0.4 1.2 -0.3
v 0.4 1.2 -0.1
v 0.4 1.2 0.1
v 0.4 1.2 0.3
v 0.4 1.3 -0.5
v 0.4 1.3 -0.4
v 0.4 1.3 -0.3
v 0.4 1.3 -0.1
v 0.4 1.3 0.1
v 0.4 1.3 0.3
v 0.4 1.4 -0.5
v 0.4 1.4 -0.4
v 0.4 1.5 0.4
v 0.4 1.5 0.5
v 0.4 1.7 -0.5
v 0.4 1.7 -0.4
v 0.4 1.7 -0.1
v 0.4 1.7 0.1
v 0.4 1.7 0.4
v 0.4 1.8 -0.5
v 0.4 1.8 -0.4
v 0.4 1.8 -0.1
v 0.4 1.8 0.1
v 0.4 1.8 0.3
v 0.4 1.8 0.4
v 0.4 2 0.1
v 0.4 2 0.3
v 0.4 2.1 -0.5
v 0.4 2.1 -0.4
v 0.4 2.1 -0.1
v 0.4 2.1 0.1
v 0.4 2.1 0.4
v 0.4 2.2 -0.4
v 0.4 2.2 -0.1
v 0.4 2.2 0.5
v 0.3 1.2 -0.4
v 0.3 1.2 -0.3
v 0.3 1.2 0.3
v 0.3 1.2 0.4
v 0.3 1.3 -0.4
v 0.3 1.3 -0.3
v 0.3 1.3 0.3
v 0.3 1.3 0.4
v 0.2 2 0.4
v 0.2 2 0.5
v 0.2 2.1 0.4
v 0.2 2.1 0.5
v 0.1 1.9 0.4
v 0.1 1.9 0.5
v 0.1 2 0.4
v 0.1 2 0.5
v -0.1 1.5 -0.5
v -0.1 1.5 -0.4
v -0.1 1.7 0.4
v -0.1 1.7 0.5
v -0.1 1.8 0.4
v -0.1 1.8 0.5
v -0.1 2 -0.4
v -0.1 2 -0.3
v -0.1 2.1 -0.5
v -0.1 2.1 -0.3
v -0.1 2.1 0.2
v -0.1 2.2 -0.3
v -0.1 2.2 0.2
v -0.2 1.3 0.4
v -0.2 1.3 0.5
v -0.2 1.4 0.4
v -0.2 1.4 0.5
v -0.2 1.8 0.4
v -0.2 1.8 0.5
v -0.2 1.9 0.4
v -0.2 1.9 0.5
v -0.2 2.1 -0.4
v -0.2 2.1 -0.3
v -0.2 2.2 -0.4
v -0.2 2.2 -0.3
v -0.3 1.6 0.4
v -0.3 1.6 0.5
v -0.3 1.7 0.4
v -0.3 1.7 0.5
v -0.3 1.9 0.4
v -0.3 1.9 0.5
v -0.3 2.1 0.4
v -0.3 2.1 0.5
v 0.3 1.6 0.4
v 0.3 1.6 0.5
v 0.3 1.7 0.4
v 0.3 1.7 0.5
v 0.3 1.9 0.4
v 0.3 1.9 0.5
v 0.3 2.1 0.4
v 0.3 2.1 0.5
v 0.2 1.3 0.4
v 0.2 1.3 0.5
v 0.2 1.4 0.4
v 0.2 1.4 0.5
v 0.2 1.8 0.4
v 0.2 1.8 0.5
v 0.2 1.9 0.4
v 0.2 1.9 0.5
v 0.2 2.1 -0.4
v 0.2 2.1 -0.3
v 0.2 2.2 -0.4
v 0.2 2.2 -0.3
v 0.1 1.5 -0.5
v 0.1 1.5 -0.4
v 0.1 1.7 0.4
v 0.1 1.7 0.5
v 0.1 1.8 0.4
v 0.1 1.8 0.5
v 0.1 2 -0.4
v 0.1 2 -0.3
v 0.1 2.1 -0.5
v 0.1 2.1 -0.3
v 0.1 2.1 0.2
v 0.1 2.2 -0.3
v 0.1 2.2 0.2
v -0.1 1.9 0.4
v -0.1 1.9 0.5
v -0.1 2 0.4
v -0.1 2 0.5
v -0.2 2 0.4
v -0.2 2 0.5
v -0.2 2.1 0.4
v -0.2 2.1 0.5
v -0.3 1.2 -0.4
v -0.3 1.2 -0.3
v -0.3 1.2 0.3
v -0.3 1.2 0.4
v -0.3 1.3 -0.4
v -0.3 1.3 -0.3
v -0.3 1.3 0.3
v -0.3 1.3 0.4
v -0.4 1.2 -0.3
v -0.4 1.2 -0.1
v -0.4 1.2 0.1
v -0.4 1.2 0.3
v -0.4 1.3 -0.5
v -0.4 1.3 -0.4
v -0.4 1.3 -0.3
v -0.4 1.3 -0.1
v -0.4 1.3 0.1
v -0.4 1.3 0.3
v -0.4 1.4 -0.5
v -0.4 1.4 -0.4
v -0.4 1.5 0.4
v -0.4 1.5 0.5
v -0.4 1.6 -0.1
v -0.4 1.6 0.1
v -0.4 1.6 0.2
v -0.4 1.7 -0.5
v -0.4 1.7 -0.4
v -0.4 1.7 -0.2
v -0.4 1.7 -0.1
v -0.4 1.7 0.1
v -0.4 1.7 0.2
v -0.4 1.7 0.4
v -0.4 1.8 -0.5
v -0.4 1.8 -0.4
v -0.4 1.8 -0.2
v -0.4 1.8 -0.1
v -0.4 1.8 0.1
v -0.4 1.8 0.3
v -0.4 1.8 0.4
v -0.4 2 0.1
v -0.4 2 0.3
v -0.4 2.1 -0.5
v -0.4 2.1 -0.4
v -0.4 2.1 -0.1
v -0.4 2.1 0.1
v -0.4 2.1 0.4
v -0.4 2.2 -0.4
v -0.4 2.2 -0.1
v -0.4 2.2 0.5
v -0.5 1.3 -0.4
v -0.5 1.3 -0.1
v -0.5 1.3 0.1
v -0.5 1.3 0.5
v -0.5 1.4 -0.4
v -0.5 1.4 -0.1
v -0.5 1.4 0.1
v -0.5 1.4 0.4
v -0.5 1.5 0.4
v -0.5 1.5 0.5
v -0.5 1.6 -0.1
v -0.5 1.6 0.1
v -0.5 1.6 0.2
v -0.5 1.7 -0.4
v -0.5 1.7 -0.2
v -0.5 1.7 -0.1
v -0.5 1.7 0.1
v -0.5 1.7 0.2
v -0.5 1.7 0.4
v -0.5 1.8 -0.4
v -0.5 1.8 -0.2
v -0.5 1.8 -0.1
v -0.5 1.8 0.1
v -0.5 1.8 0.3
v -0.5 1.8 0.4
v -0.5 2 0.1
v -0.5 2 0.3
v -0.5 2.1 -0.4
v -0.5 2.1 -0.1
v -0.5 2.1 0.1
v 0.4 1.3 -0.5
v 0.4 1.4 -0.5
v 0.4 1.7 -0.5
v 0.4 1.8 -0.5
v 0.4 2.1 -0.5
v 0.3 1.3 -0.5
v 0.3 1.4 -0.5
v 0.3 1.5 -0.5
v 0.2 1.5 -0.5
v 0.2 1.7 -0.5
v 0.2 1.8 -0.5
v 0.2 2.1 -0.5
v 0.1 1.4 -0.5
v 0.1 1.5 -0.5
v 0.1 2.1 -0.5
v -0.1 1.4 -0.5
v -0.1 1.5 -0.5
v -0.1 2.1 -0.5
v -0.2 1.5 -0.5
v -0.2 1.7 -0.5
v -0.2 1.8 -0.5
v -0.2 2.1 -0.5
v -0.3 1.3 -0.5
v -0.3 1.4 -0.5
v -0.3 1.5 -0.5
v -0.4 1.3 -0.5
v -0.4 1.4 -0.5
v -0.4 1.7 -0.5
v -0.4 1.8 -0.5
v -0.4 2.1 -0.5
v 0.5 1.3 -0.4
v 0.5 1.4 -0.4
v 0.5 1.7 -0.4
v 0.5 1.8 -0.4
v 0.5 2.1 -0.4
v 0.4 1.3 -0.4
v 0.4 1.4 -0.4
v 0.4 1.7 -0.4
v 0.4 1.8 -0.4
v 0.4 2.1 -0.4
v 0.4 2.2 -0.4
v 0.3 1.2 -0.4
v 0.3 1.3 -0.4
v 0.2 2.1 -0.4
v 0.2 2.2 -0.4
v 0.1 1.2 -0.4
v 0.1 1.3 -0.4
v 0.1 1.5 -0.4
v 0.1 2 -0.4
v -0.1 1.2 -0.4
v -0.1 1.3 -0.4
v -0.1 1.5 -0.4
v -0.1 2 -0.4
v -0.2 2.1 -0.4
v -0.2 2.2 -0.4
v -0.3 1.2 -0.4
v -0.3 1.3 -0.4
v -0.4 1.3 -0.4
v -0.4 1.4 -0.4
v -0.4 1.7 -0.4
v -0.4 1.8 -0.4
v -0.4 2.1 -0.4
v -0.4 2.2 -0.4
v -0.5 1.3 -0.4
v -0.5 1.4 -0.4
v -0.5 1.7 -0.4
v -0.5 1.8 -0.4
v -0.5 2.1 -0.4
v 0.4 1.2 -0.3
v 0.4 1.3 -0.3
v 0.3 1.2 -0.3
v 0.3 1.3 -0.3
v 0.2 2.1 -0.3
v 0.2 2.2 -0.3
v 0.1 2 -0.3
v 0.1 2.1 -0.3
v 0.1 2.2 -0.3
v -0.1 2 -0.3
v -0.1 2.1 -0.3
v -0.1 2.2 -0.3
v -0.2 2.1 -0.3
v -0.2 2.2 -0.3
v -0.3 1.2 -0.3
v -0.3 1.3 -0.3
v -0.4 1.2 -0.3
v -0.4 1.3 -0.3
v 0.5 1.7 0.1
v 0.5 1.8 0.1
v 0.4 1.7 0.1
v 0.4 1.8 0.1
v -0.4 1.7 0.1
v -0.4 1.8 0.1
v -0.5 1.7 0.1
v -0.5 1.8 0.1
v 0.1 2.1 0.2
v 0.1 2.2 0.2
v -0.1 2.1 0.2
v -0.1 2.2 0.2
v -0.4 1.6 0.2
v -0.4 1.7 0.2
v -0.5 1.6 0.2
v -0.5 1.7 0.2
v -0.4 1.7 -0.2
v -0.4 1.8 -0.2
v -0.5 1.7 -0.2
v -0.5 1.8 -0.2
v 0.5 1.7 -0.1
v 0.5 1.8 -0.1
v 0.4 1.7 -0.1
v 0.4 1.8 -0.1
v -0.4 1.6 -0.1
v -0.4 1.7 -0.1
v -0.5 1.6 -0.1
v -0.5 1.7 -0.1
v 0.5 2 0.1
v 0.5 2.1 0.1
v 0.4 2 0.1
v 0.4 2.1 0.1
v -0.4 2 0.1
v -0.4 2.1 0.1
v -0.5 2 0.1
v -0.5 2.1 0.1
v 0.5 1.8 0.3
v 0.5 2 0.3
v 0.4 1.2 0.3
v 0.4 1.3 0.3
v 0.4 1.8 0.3
v 0.4 2 0.3
v 0.3 1.2 0.3
v 0.3 1.3 0.3
v -0.3 1.2 0.3
v -0.3 1.3 0.3
v -0.4 1.2 0.3
v -0.4 1.3 0.3
v -0.4 1.8 0.3
v -0.4 2 0.3
v -0.5 1.8 0.3
v -0.5 2 0.3
v 0.5 1.5 0.4
v 0.5 1.7 0.4
v 0.5 1.8 0.4
v 0.4 1.5 0.4
v 0.4 1.7 0.4
v 0.4 1.8 0.4
v 0.3 1.2 0.4
v 0.3 1.3 0.4
v 0.3 1.6 0.4
v 0.3 1.7 0.4
v 0.3 1.9 0.4
v 0.3 2.1 0.4
v 0.2 1.3 0.4
v 0.2 1.4 0.4
v 0.2 1.8 0.4
v 0.2 1.9 0.4
v 0.2 2 0.4
v 0.2 2.1 0.4
v 0.1 1.2 0.4
v 0.1 1.3 0.4
v 0.1 1.7 0.4
v 0.1 1.8 0.4
v 0.1 1.9 0.4
v 0.1 2 0.4
v -0.1 1.2 0.4
v -0.1 1.3 0.4
v -0.1 1.7 0.4
v -0.1 1.8 0.4
v -0.1 1.9 0.4
v -0.1 2 0.4
v -0.2 1.3 0.4
v -0.2 1.4 0.4
v -0.2 1.8 0.4
v -0.2 1.9 0.4
v -0.2 2 0.4
v -0.2 2.1 0.4
v -0.3 1.2 0.4
v -0.3 1.3 0.4
v -0.3 1.6 0.4
v -0.3 1.7 0.4
v -0.3 1.9 0.4
v -0.3 2.1 0.4
v -0.4 1.5 0.4
v -0.4 1.7 0.4
v -0.4 1.8 0.4
v -0.5 1.5 0.4
v -0.5 1.7 0.4
v -0.5 1.8 0.4
v 0.5 1.3 0.5
v 0.5 1.5 0.5
v 0.4 1.5 0.5
v 0.4 2.2 0.5
v 0.3 1.6 0.5
v 0.3 1.7 0.5
v 0.3 1.9 0.5
v 0.3 2.1 0.5
v 0.2 1.3 0.5
v 0.2 1.4 0.5
v 0.2 1.8 0.5
v 0.2 1.9 0.5
v 0.2 2 0.5
v 0.2 2.1 0.5
v 0.1 1.7 0.5
v 0.1 1.8 0.5
v 0.1 1.9 0.5
v 0.1 2 0.5
v -0.1 1.7 0.5
v -0.1 1.8 0.5
v -0.1 1.9 0.5
v -0.1 2 0.5
v -0.2 1.3 0.5
v -0.2 1.4 0.5
v -0.2 1.8 0.5
v -0.2 1.9 0.5
v -0.2 2 0.5
v -0.2 2.1 0.5
v -0.3 1.6 0.5
v -0.3 1.7 0.5
v -0.3 1.9 0.5
v -0.3 2.1 0.5
v -0.4 1.5 0.5
v -0.4 2.2 0.5
v -0.5 1.3 0.5
v -0.5 1.5 0.5
v 0.3 1.2 -0.4
v 0.1 1.2 -0.4
v -0.1 1.2 -0.4
v -0.3 1.2 -0.4
v 0.4 1.2 -0.3
v 0.3 1.2 -0.3
v 0.1 1.2 -0.3
v -0.1 1.2 -0.3
v -0.3 1.2 -0.3
v -0.4 1.2 -0.3
v 0.2 1.2 -0.2
v -0.2 1.2 -0.2
v 0.4 1.2 -0.1
v 0.3 1.2 -0.1
v -0.3 1.2 -0.1
v -0.4 1.2 -0.1
v 0.4 1.2 0.1
v 0.3 1.2 0.1
v -0.3 1.2 0.1
v -0.4 1.2 0.1
v 0.2 1.2 0.2
v -0.2 1.2 0.2
v 0.4 1.2 0.3
v 0.3 1.2 0.3
v 0.1 1.2 0.3
v -0.1 1.2 0.3
v -0.3 1.2 0.3
v -0.4 1.2 0.3
v 0.3 1.2 0.4
v 0.1 1.2 0.4
v -0.1 1.2 0.4
v -0.3 1.2 0.4
v 0.4 1.3 -0.5
v 0.3 1.3 -0.5
v -0.3 1.3 -0.5
v -0.4 1.3 -0.5
v 0.5 1.3 -0.4
v 0.4 1.3 -0.4
v 0.3 1.3 -0.4
v 0.1 1.3 -0.4
v -0.1 1.3 -0.4
v -0.3 1.3 -0.4
v -0.4 1.3 -0.4
v -0.5 1.3 -0.4
v 0.4 1.3 -0.3
v 0.3 1.3 -0.3
v -0.3 1.3 -0.3
v -0.4 1.3 -0.3
v 0.5 1.3 -0.1
v 0.4 1.3 -0.1
v -0.4 1.3 -0.1
v -0.5 1.3 -0.1
v 0.5 1.3 0.1
v 0.4 1.3 0.1
v -0.4 1.3 0.1
v -0.5 1.3 0.1
v 0.4 1.3 0.3
v 0.3 1.3 0.3
v -0.3 1.3 0.3
v -0.4 1.3 0.3
v 0.3 1.3 0.4
v 0.2 1.3 0.4
v -0.2 1.3 0.4
v -0.3 1.3 0.4
v 0.5 1.3 0.5
v 0.2 1.3 0.5
v -0.2 1.3 0.5
v -0.5 1.3 0.5
v 0.2 1.4 0.4
v -0.2 1.4 0.4
v 0.2 1.4 0.5
v -0.2 1.4 0.5
v -0.4 1.7 0.1
v -0.5 1.7 0.1
v -0.4 1.7 0.2
v -0.5 1.7 0.2
v 0.3 1.7 0.4
v 0.1 1.7 0.4
v -0.1 1.7 0.4
v -0.3 1.7 0.4
v 0.3 1.7 0.5
v 0.1 1.7 0.5
v -0.1 1.7 0.5
v -0.3 1.7 0.5
v -0.4 1.8 -0.2
v -0.5 1.8 -0.2
v 0.5 1.8 -0.1
v 0.4 1.8 -0.1
v -0.4 1.8 -0.1
v -0.5 1.8 -0.1
v 0.5 1.8 0.1
v 0.4 1.8 0.1
v -0.4 1.8 0.1
v -0.5 1.8 0.1
v 0.1 1.9 0.4
v -0.1 1.9 0.4
v 0.1 1.9 0.5
v -0.1 1.9 0.5
v 0.2 2 0.4
v 0.1 2 0.4
v -0.1 2 0.4
v -0.2 2 0.4
v 0.2 2 0.5
v 0.1 2 0.5
v -0.1 2 0.5
v -0.2 2 0.5
v 0.3 2.1 0.4
v 0.2 2.1 0.4
v -0.2 2.1 0.4
v -0.3 2.1 0.4
v 0.3 2.1 0.5
v 0.2 2.1 0.5
v -0.2 2.1 0.5
v -0.3 2.1 0.5
v 0.1 1.5 -0.5
v -0.1 1.5 -0.5
v 0.1 1.5 -0.4
v -0.1 1.5 -0.4
v 0.5 1.5 0.4
v 0.4 1.5 0.4
v -0.4 1.5 0.4
v -0.5 1.5 0.4
v 0.5 1.5 0.5
v 0.4 1.5 0.5
v -0.4 1.5 0.5
v -0.5 1.5 0.5
v -0.4 1.6 -0.1
v -0.5 1.6 -0.1
v -0.4 1.6 0.1
v -0.5 1.6 0.1
v -0.4 1.6 0.2
v -0.5 1.6 0.2
v 0.3 1.6 0.4
v -0.3 1.6 0.4
v 0.3 1.6 0.5
v -0.3 1.6 0.5
v -0.4 1.7 -0.2
v -0.5 1.7 -0.2
v 0.5 1.7 -0.1
v 0.4 1.7 -0.1
v -0.4 1.7 -0.1
v -0.5 1.7 -0.1
v 0.5 1.7 0.1
v 0.4 1.7 0.1
v 0.5 1.8 0.3
v 0.4 1.8 0.3
v -0.4 1.8 0.3
v -0.5 1.8 0.3
v 0.5 1.8 0.4
v 0.4 1.8 0.4
v 0.2 1.8 0.4
v 0.1 1.8 0.4
v -0.1 1.8 0.4
v -0.2 1.8 0.4
v -0.4 1.8 0.4
v -0.5 1.8 0.4
v 0.2 1.8 0.5
v 0.1 1.8 0.5
v -0.1 1.8 0.5
v -0.2 1.8 0.5
v 0.3 1.9 0.4
v 0.2 1.9 0.4
v -0.2 1.9 0.4
v -0.3 1.9 0.4
v 0.3 1.9 0.5
v 0.2 1.9 0.5
v -0.2 1.9 0.5
v -0.3 1.9 0.5
v 0.1 2 -0.4
v -0.1 2 -0.4
v 0.1 2 -0.3
v -0.1 2 -0.3
v 0.5 2 0.1
v 0.4 2 0.1
v -0.4 2 0.1
v -0.5 2 0.1
v 0.5 2 0.3
v 0.4 2 0.3
v -0.4 2 0.3
v -0.5 2 0.3
v 0.4 2.1 -0.5
v 0.2 2.1 -0.5
v 0.1 2.1 -0.5
v -0.1 2.1 -0.5
v -0.2 2.1 -0.5
v -0.4 2.1 -0.5
v 0.5 2.1 -0.4
v 0.4 2.1 -0.4
v 0.2 2.1 -0.4
v -0.2 2.1 -0.4
v -0.4 2.1 -0.4
v -0.5 2.1 -0.4
v 0.2 2.1 -0.3
v 0.1 2.1 -0.3
v -0.1 2.1 -0.3
v -0.2 2.1 -0.3
v 0.5 2.1 -0.1
v 0.4 2.1 -0.1
v -0.4 2.1 -0.1
v -0.5 2.1 -0.1
v 0.5 2.1 0.1
v 0.4 2.1 0.1
v -0.4 2.1 0.1
v -0.5 2.1 0.1
v 0.1 2.1 0.2
v -0.1 2.1 0.2
v 0.4 2.2 -0.4
v 0.2 2.2 -0.4
v -0.2 2.2 -0.4
v -0.4 2.2 -0.4
v 0.2 2.2 -0.3
v 0.1 2.2 -0.3
v -0.1 2.2 -0.3
v -0.2 2.2 -0.3
v 0.4 2.2 -0.1
v 0.2 2.2 -0.1
v -0.2 2.2 -0.1
v -0.4 2.2 -0.1
v 0.3 2.2 0.1
v 0.2 2.2 0.1
v -0.2 2.2 0.1
v -0.3 2.2 0.1
v 0.3 2.2 0.2
v 0.2 2.2 0.2
v 0.1 2.2 0.2
v -0.1 2.2 0.2
v -0.2 2.2 0.2
v -0.3 2.2 0.2
v 0.3 2.2 0.3
v 0.2 2.2 0.3
v -0.2 2.2 0.3
v -0.3 2.2 0.3
v 0.3 2.2 0.4
v -0.3 2.2 0.4
v 0.4 2.2 0.5
v -0.4 2.2 0.5

# faces
f 5/3/1 2/3/1 1/3/1
f 6/2/1 3/2/1 2/2/1
f 6/3/1 2/3/1 5/3/1
f 7/3/1 4/3/1 3/3/1
f 7/2/1 3/2/1 6/2/1
f 8/3/1 4/3/1 7/3/1
f 9/1/1 8/1/1 7/1/1
f 9/3/1 4/3/1 8/3/1
f 10/3/1 4/3/1 9/3/1
f 11/1/1 6/1/1 5/1/1
f 12/3/1 7/3/1 6/3/1
f 12/1/1 6/1/1 11/1/1
f 13/1/1 9/1/1 7/1/1
f 13/3/1 7/3/1 12/3/1
f 14/1/1 9/1/1 13/1/1
f 15/3/1 12/3/1 11/3/1
f 16/3/1 12/3/1 15/3/1
f 17/3/1 14/3/1 13/3/1
f 18/3/1 14/3/1 17/3/1
f 19/3/1 14/3/1 18/3/1
f 20/3/1 17/3/1 16/3/1
f 20/1/1 18/1/1 17/1/1
f 21/1/1 18/1/1 20/1/1
f 22/1/1 16/1/1 15/1/1
f 23/3/1 20/3/1 16/3/1
f 23/1/1 16/1/1 22/1/1
f 24/3/1 20/3/1 23/3/1
f 31/3/1 26/3/1 25/3/1
f 32/2/1 27/2/1 26/2/1
f 32/3/1 26/3/1 31/3/1
f 33/3/1 28/3/1 27/3/1
f 33/2/1 27/2/1 32/2/1
f 34/3/1 28/3/1 33/3/1
f 35/3/1 30/3/1 29/3/1
f 36/3/1 30/3/1 35/3/1
f 39/1/1 36/1/1 35/1/1
f 40/1/1 36/1/1 39/1/1
f 43/3/1 38/3/1 37/3/1
f 44/3/1 40/3/1 39/3/1
f 45/3/1 40/3/1 44/3/1
f 46/2/1 42/2/1 41/2/1
f 47/2/1 42/2/1 46/2/1
f 49/3/1 38/3/1 43/3/1
f 51/1/1 49/1/1 48/1/1
f 52/1/1 45/1/1 44/1/1
f 53/1/1 45/1/1 52/1/1
f 55/1/1 51/1/1 50/1/1
f 56/3/1 38/3/1 49/3/1
f 56/1/1 49/1/1 51/1/1
f 56/1/1 51/1/1 55/1/1
f 57/1/1 54/1/1 53/1/1
f 58/3/1 55/3/1 54/3/1
f 58/1/1 54/1/1 57/1/1
f 58/3/1 56/3/1 55/3/1
f 59/3/1 38/3/1 56/3/1
f 59/3/1 56/3/1 58/3/1
f 64/3/1 61/3/1 60/3/1
f 65/3/1 61/3/1 64/3/1
f 66/3/1 63/3/1 62/3/1
f 67/3/1 63/3/1 66/3/1
f 70/3/1 69/3/1 68/3/1
f 71/3/1 69/3/1 70/3/1
f 74/3/1 73/3/1 72/3/1
f 75/3/1 73/3/1 74/3/1
f 80/3/1 79/3/1 78/3/1
f 81/3/1 79/3/1 80/3/1
f 82/3/1 77/3/1 76/3/1
f 84/3/1 82/3/1 76/3/1
f 84/3/1 83/3/1 82/3/1
f 85/3/1 83/3/1 84/3/1
f 87/3/1 86/3/1 85/3/1
f 88/3/1 86/3/1 87/3/1
f 91/3/1 90/3/1 89/3/1
f 92/3/1 90/3/1 91/3/1
f 95/3/1 94/3/1 93/3/1
f 96/3/1 94/3/1 95/3/1
f 99/1/1 98/1/1 97/1/1
f 100/1/1 98/1/1 99/1/1
f 103/3/1 102/3/1 101/3/1
f 104/3/1 102/3/1 103/3/1
f 107/3/1 106/3/1 105/3/1
f 108/3/1 106/3/1 107/3/1
f 109/3/2 110/3/2 111/3/2
f 111/3/2 110/3/2 112/3/2
f 113/3/2 114/3/2 115/3/2
f 115/3/2 114/3/2 116/3/2
f 117/3/2 118/3/2 119/3/2
f 119/3/2 118/3/2 120/3/2
f 121/3/2 122/3/2 123/3/2
f 123/3/2 122/3/2 124/3/2
f 125/1/2 126/1/2 127/1/2
f 127/1/2 126/1/2 128/1/2
f 131/3/2 132/3/2 133/3/2
f 133/3/2 132/3/2 134/3/2
f 129/3/2 130/3/2 135/3/2
f 129/3/2 135/3/2 137/3/2
f 135/3/2 136/3/2 137/3/2
f 137/3/2 136/3/2 138/3/2
f 138/3/2 139/3/2 140/3/2
f 140/3/2 139/3/2 141/3/2
f 142/3/2 143/3/2 144/3/2
f 144/3/2 143/3/2 145/3/2
f 146/3/2 147/3/2 148/3/2
f 148/3/2 147/3/2 149/3/2
f 150/3/2 151/3/2 154/3/2
f 154/3/2 151/3/2 155/3/2
f 152/3/2 153/3/2 156/3/2
f 156/3/2 153/3/2 157/3/2
f 158/3/2 159/3/2 164/3/2
f 159/2/2 160/2/2 165/2/2
f 164/3/2 159/3/2 165/3/2
f 160/3/2 161/3/2 166/3/2
f 165/2/2 160/2/2 166/2/2
f 166/3/2 161/3/2 167/3/2
f 162/3/2 163/3/2 168/3/2
f 168/3/2 163/3/2 169/3/2
f 168/1/2 169/1/2 175/1/2
f 175/1/2 169/1/2 176/1/2
f 173/2/2 174/2/2 178/2/2
f 172/2/2 173/2/2 178/2/2
f 178/2/2 174/2/2 179/2/2
f 179/2/2 174/2/2 180/2/2
f 170/3/2 171/3/2 181/3/2
f 175/3/2 176/3/2 182/3/2
f 182/3/2 176/3/2 183/3/2
f 177/2/2 178/2/2 184/2/2
f 178/2/2 179/2/2 184/2/2
f 184/2/2 179/2/2 185/2/2
f 185/2/2 179/2/2 186/2/2
f 181/3/2 171/3/2 188/3/2
f 187/1/2 188/1/2 190/1/2
f 182/1/2 183/1/2 191/1/2
f 191/1/2 183/1/2 192/1/2
f 189/1/2 190/1/2 194/1/2
f 188/3/2 171/3/2 195/3/2
f 190/1/2 188/1/2 195/1/2
f 194/1/2 190/1/2 195/1/2
f 192/1/2 193/1/2 196/1/2
f 193/3/2 194/3/2 197/3/2
f 196/1/2 193/1/2 197/1/2
f 194/3/2 195/3/2 197/3/2
f 195/3/2 171/3/2 198/3/2
f 197/3/2 195/3/2 198/3/2
f 199/3/2 200/3/2 203/3/2
f 200/2/2 201/2/2 204/2/2
f 203/3/2 200/3/2 204/3/2
f 201/3/2 202/3/2 205/3/2
f 204/2/2 201/2/2 205/2/2
f 205/3/2 202/3/2 206/3/2
f 205/1/2 206/1/2 207/1/2
f 206/3/2 202/3/2 207/3/2
f 207/3/2 202/3/2 208/3/2
f 203/1/2 204/1/2 209/1/2
f 204/3/2 205/3/2 209/3/2
f 205/1/2 207/1/2 210/1/2
f 209/3/2 205/3/2 210/3/2
f 210/1/2 207/1/2 211/1/2
f 203/1/2 209/1/2 212/1/2
f 212/1/2 209/1/2 213/1/2
f 213/1/2 209/1/2 214/1/2
f 211/1/2 207/1/2 216/1/2
f 216/1/2 207/1/2 217/1/2
f 212/3/2 213/3/2 218/3/2
f 218/3/2 213/3/2 219/3/2
f 216/3/2 217/3/2 221/3/2
f 215/3/2 216/3/2 221/3/2
f 221/3/2 217/3/2 222/3/2
f 222/3/2 217/3/2 223/3/2
f 220/3/2 221/3/2 224/3/2
f 221/1/2 222/1/2 224/1/2
f 224/1/2 222/1/2 225/1/2
f 219/1/2 220/1/2 226/1/2
f 218/1/2 219/1/2 226/1/2
f 220/3/2 224/3/2 227/3/2
f 226/1/2 220/1/2 227/1/2
f 227/3/2 224/3/2 228/3/2
f 234/3/3 230/3/3 229/3/3
f 235/1/3 231/1/3 230/1/3
f 235/3/3 230/3/3 234/3/3
f 236/1/3 231/1/3 235/1/3
f 237/3/3 236/3/3 235/3/3
f 237/1/3 231/1/3 236/1/3
f 238/3/3 232/3/3 231/3/3
f 238/1/3 231/1/3 237/1/3
f 239/1/3 233/1/3 232/1/3
f 239/3/3 232/3/3 238/3/3
f 240/1/3 233/1/3 239/1/3
f 241/3/3 238/3/3 237/3/3
f 241/3/3 237/3/3 235/3/3
f 241/3/3 240/3/3 239/3/3
f 241/3/3 239/3/3 238/3/3
f 241/2/3 235/2/3 234/2/3
f 242/3/3 240/3/3 241/3/3
f 243/3/3 240/3/3 242/3/3
f 244/2/3 241/2/3 234/2/3
f 244/2/3 242/2/3 241/2/3
f 245/2/3 242/2/3 244/2/3
f 247/3/3 245/3/3 244/3/3
f 247/3/3 246/3/3 245/3/3
f 248/3/3 246/3/3 247/3/3
f 249/3/3 246/3/3 248/3/3
f 250/3/3 246/3/3 249/3/3
f 251/2/3 244/2/3 234/2/3
f 252/3/3 247/3/3 244/3/3
f 252/2/3 244/2/3 251/2/3
f 253/1/3 248/1/3 247/1/3
f 253/3/3 247/3/3 252/3/3
f 254/3/3 252/3/3 251/3/3
f 255/1/3 253/1/3 252/1/3
f 255/3/3 252/3/3 254/3/3
f 256/1/3 248/1/3 253/1/3
f 256/1/3 253/1/3 255/1/3
f 256/3/3 249/3/3 248/3/3
f 257/1/3 250/1/3 249/1/3
f 257/3/3 249/3/3 256/3/3
f 258/1/3 250/1/3 257/1/3
f 264/3/3 260/3/3 259/3/3
f 265/1/3 261/1/3 260/1/3
f 265/3/3 260/3/3 264/3/3
f 266/3/3 262/3/3 261/3/3
f 266/1/3 261/1/3 265/1/3
f 267/1/3 263/1/3 262/1/3
f 267/3/3 262/3/3 266/3/3
f 268/1/3 263/1/3 267/1/3
f 272/1/3 269/1/3 268/1/3
f 273/1/3 269/1/3 272/1/3
f 274/3/3 271/3/3 270/3/3
f 275/3/3 271/3/3 274/3/3
f 278/2/3 275/2/3 274/2/3
f 279/2/3 275/2/3 278/2/3
f 280/2/3 277/2/3 276/2/3
f 281/2/3 277/2/3 280/2/3
f 284/3/3 279/3/3 278/3/3
f 285/3/3 279/3/3 284/3/3
f 290/1/3 283/1/3 282/1/3
f 291/1/3 283/1/3 290/1/3
f 292/3/3 287/3/3 286/3/3
f 293/1/3 288/1/3 287/1/3
f 293/3/3 287/3/3 292/3/3
f 294/3/3 289/3/3 288/3/3
f 294/1/3 288/1/3 293/1/3
f 295/1/3 290/1/3 289/1/3
f 295/3/3 289/3/3 294/3/3
f 296/1/3 290/1/3 295/1/3
f 299/3/3 298/3/3 297/3/3
f 300/3/3 298/3/3 299/3/3
f 304/3/3 302/3/3 301/3/3
f 305/3/3 302/3/3 304/3/3
f 306/2/3 304/2/3 303/2/3
f 307/2/3 304/2/3 306/2/3
f 309/3/3 308/3/3 307/3/3
f 310/3/3 308/3/3 309/3/3
f 313/3/3 312/3/3 311/3/3
f 314/3/3 312/3/3 313/3/3
f 317/3/3 316/3/3 315/3/3
f 318/3/3 316/3/3 317/3/3
f 321/3/3 320/3/3 319/3/3
f 322/3/3 320/3/3 321/3/3
f 325/1/3 324/1/3 323/1/3
f 326/1/3 324/1/3 325/1/3
f 329/1/3 328/1/3 327/1/3
f 330/1/3 328/1/3 329/1/3
f 331/3/4 332/3/4 333/3/4
f 333/3/4 332/3/4 334/3/4
f 335/3/4 336/3/4 337/3/4
f 337/3/4 336/3/4 338/3/4
f 339/1/4 340/1/4 341/1/4
f 341/1/4 340/1/4 342/1/4
f 343/3/4 344/3/4 345/3/4
f 345/3/4 344/3/4 346/3/4
f 347/3/4 348/3/4 349/3/4
f 349/3/4 348/3/4 350/3/4
f 351/1/4 352/1/4 355/1/4
f 355/1/4 352/1/4 356/1/4
f 353/3/4 354/3/4 357/3/4
f 357/3/4 354/3/4 358/3/4
f 359/3/4 360/3/4 361/3/4
f 361/3/4 360/3/4 362/3/4
f 363/1/4 364/1/4 365/1/4
f 365/1/4 364/1/4 366/1/4
f 367/1/4 368/1/4 370/1/4
f 368/3/4 369/3/4 371/3/4
f 370/1/4 368/1/4 371/1/4
f 371/3/4 369/3/4 372/3/4
f 373/3/4 374/3/4 379/3/4
f 377/2/4 378/2/4 382/2/4
f 382/2/4 378/2/4 383/2/4
f 383/2/4 378/2/4 384/2/4
f 373/3/4 379/3/4 385/3/4
f 379/2/4 380/2/4 386/2/4
f 385/3/4 379/3/4 386/3/4
f 375/2/4 376/2/4 387/2/4
f 381/2/4 382/2/4 388/2/4
f 382/2/4 383/2/4 388/2/4
f 388/2/4 383/2/4 389/2/4
f 389/2/4 383/2/4 390/2/4
f 385/2/4 386/2/4 391/2/4
f 386/2/4 380/2/4 392/2/4
f 391/2/4 386/2/4 392/2/4
f 375/2/4 387/2/4 393/2/4
f 387/2/4 388/2/4 393/2/4
f 388/2/4 389/2/4 393/2/4
f 393/2/4 389/2/4 394/2/4
f 394/2/4 389/2/4 395/2/4
f 392/2/4 380/2/4 397/2/4
f 391/3/4 392/3/4 397/3/4
f 397/2/4 380/2/4 398/2/4
f 395/2/4 396/2/4 399/2/4
f 394/2/4 395/2/4 399/2/4
f 399/2/4 396/2/4 400/2/4
f 400/2/4 396/2/4 401/2/4
f 391/3/4 397/3/4 403/3/4
f 403/3/4 397/3/4 404/3/4
f 375/2/4 393/2/4 405/2/4
f 405/2/4 393/2/4 406/2/4
f 401/2/4 402/2/4 407/2/4
f 400/2/4 401/2/4 407/2/4
f 407/2/4 402/2/4 408/2/4
f 409/1/4 410/1/4 412/1/4
f 410/3/4 411/3/4 413/3/4
f 412/1/4 410/1/4 413/1/4
f 413/3/4 411/3/4 414/3/4
f 415/3/4 416/3/4 417/3/4
f 417/3/4 418/3/4 419/3/4
f 419/3/4 418/3/4 420/3/4
f 420/3/4 418/3/4 421/3/4
f 421/3/4 418/3/4 422/3/4
f 415/3/4 417/3/4 423/3/4
f 417/3/4 419/3/4 423/3/4
f 423/3/4 419/3/4 424/3/4
f 420/3/4 421/3/4 425/3/4
f 425/3/4 421/3/4 426/3/4
f 422/3/4 418/3/4 428/3/4
f 420/3/4 425/3/4 429/3/4
f 429/3/4 425/3/4 430/3/4
f 427/3/4 428/3/4 432/3/4
f 431/3/4 432/3/4 435/3/4
f 432/3/4 428/3/4 436/3/4
f 435/3/4 432/3/4 436/3/4
f 424/3/4 419/3/4 438/3/4
f 433/3/4 434/3/4 439/3/4
f 436/3/4 428/3/4 441/3/4
f 428/3/4 418/3/4 442/3/4
f 441/3/4 428/3/4 442/3/4
f 437/3/4 438/3/4 443/3/4
f 438/3/4 419/3/4 443/3/4
f 439/3/4 440/3/4 444/3/4
f 433/3/4 439/3/4 444/3/4
f 444/3/4 440/3/4 445/3/4
f 442/3/4 418/3/4 446/3/4
f 444/3/4 445/3/4 447/3/4
f 445/3/4 446/3/4 447/3/4
f 437/3/4 443/3/4 447/3/4
f 443/3/4 444/3/4 447/3/4
f 446/3/4 418/3/4 448/3/4
f 447/3/4 446/3/4 448/3/4
f 437/3/4 447/3/4 449/3/4
f 449/3/4 447/3/4 450/3/4
f 456/3/5 452/3/5 451/3/5
f 457/2/5 453/2/5 452/2/5
f 457/3/5 452/3/5 456/3/5
f 458/3/5 454/3/5 453/3/5
f 458/2/5 453/2/5 457/2/5
f 459/3/5 454/3/5 458/3/5
f 461/3/5 457/3/5 456/3/5
f 461/3/5 460/3/5 459/3/5
f 461/3/5 459/3/5 458/3/5
f 461/3/5 458/3/5 457/3/5
f 461/3/5 456/3/5 455/3/5
f 462/3/5 460/3/5 461/3/5
f 463/3/5 461/3/5 455/3/5
f 464/3/5 461/3/5 463/3/5
f 465/3/5 460/3/5 462/3/5
f 466/3/5 460/3/5 465/3/5
f 467/2/5 464/2/5 463/2/5
f 468/3/5 461/3/5 464/3/5
f 468/2/5 464/2/5 467/2/5
f 469/3/5 465/3/5 462/3/5
f 469/2/5 466/2/5 465/2/5
f 470/2/5 466/2/5 469/2/5
f 471/2/5 462/2/5 461/2/5
f 471/3/5 461/3/5 468/3/5
f 471/3/5 468/3/5 467/3/5
f 472/3/5 470/3/5 469/3/5
f 472/2/5 462/2/5 471/2/5
f 472/3/5 469/3/5 462/3/5
f 473/3/5 471/3/5 467/3/5
f 473/3/5 472/3/5 471/3/5
f 474/3/5 472/3/5 473/3/5
f 475/3/5 472/3/5 474/3/5
f 476/3/5 472/3/5 475/3/5
f 477/3/5 470/3/5 472/3/5
f 477/3/5 472/3/5 476/3/5
f 478/3/5 470/3/5 477/3/5
f 479/3/5 475/3/5 474/3/5
f 480/2/5 476/2/5 475/2/5
f 480/3/5 475/3/5 479/3/5
f 481/3/5 477/3/5 476/3/5
f 481/2/5 476/2/5 480/2/5
f 482/3/5 477/3/5 481/3/5
f 488/3/5 484/3/5 483/3/5
f 489/2/5 485/2/5 484/2/5
f 489/3/5 484/3/5 488/3/5
f 490/2/5 485/2/5 489/2/5
f 491/2/5 485/2/5 490/2/5
f 492/3/5 486/3/5 485/3/5
f 492/2/5 485/2/5 491/2/5
f 493/3/5 486/3/5 492/3/5
f 495/3/5 488/3/5 487/3/5
f 495/3/5 489/3/5 488/3/5
f 496/3/5 489/3/5 495/3/5
f 497/3/5 494/3/5 493/3/5
f 497/3/5 493/3/5 492/3/5
f 498/3/5 494/3/5 497/3/5
f 499/3/5 495/3/5 487/3/5
f 500/3/5 495/3/5 499/3/5
f 501/3/5 494/3/5 498/3/5
f 502/3/5 494/3/5 501/3/5
f 503/2/5 500/2/5 499/2/5
f 504/2/5 500/2/5 503/2/5
f 505/2/5 502/2/5 501/2/5
f 506/2/5 502/2/5 505/2/5
f 507/3/5 504/3/5 503/3/5
f 510/3/5 506/3/5 505/3/5
f 511/3/5 508/3/5 507/3/5
f 514/3/5 510/3/5 509/3/5
f 515/3/5 512/3/5 511/3/5
f 515/3/5 507/3/5 503/3/5
f 515/3/5 511/3/5 507/3/5
f 516/3/5 512/3/5 515/3/5
f 517/3/5 514/3/5 513/3/5
f 518/3/5 510/3/5 514/3/5
f 518/3/5 514/3/5 517/3/5
f 518/3/5 506/3/5 510/3/5
f 521/3/5 520/3/5 519/3/5
f 522/3/5 520/3/5 521/3/5
f 525/3/5 524/3/5 523/3/5
f 526/3/5 524/3/5 525/3/5
f 531/3/5 528/3/5 527/3/5
f 532/3/5 528/3/5 531/3/5
f 533/3/5 530/3/5 529/3/5
f 534/3/5 530/3/5 533/3/5
f 539/1/5 536/1/5 535/1/5
f 540/1/5 536/1/5 539/1/5
f 541/3/5 538/3/5 537/3/5
f 542/3/5 538/3/5 541/3/5
f 543/3/5 540/3/5 539/3/5
f 544/3/5 540/3/5 543/3/5
f 547/3/5 546/3/5 545/3/5
f 548/3/5 546/3/5 547/3/5
f 553/3/5 550/3/5 549/3/5
f 554/3/5 550/3/5 553/3/5
f 555/3/5 552/3/5 551/3/5
f 556/3/5 552/3/5 555/3/5
f 561/3/5 558/3/5 557/3/5
f 562/3/5 558/3/5 561/3/5
f 563/3/5 560/3/5 559/3/5
f 564/3/5 560/3/5 563/3/5
f 565/2/6 566/2/6 567/2/6
f 567/2/6 566/2/6 568/2/6
f 569/3/6 570/3/6 573/3/6
f 573/3/6 570/3/6 574/3/6
f 571/3/6 572/3/6 575/3/6
f 575/3/6 572/3/6 576/3/6
f 577/3/6 578/3/6 579/3/6
f 579/3/6 578/3/6 580/3/6
f 579/1/6 580/1/6 581/1/6
f 581/1/6 580/1/6 582/1/6
f 583/3/6 584/3/6 585/3/6
f 585/3/6 584/3/6 586/3/6
f 587/1/6 588/1/6 591/1/6
f 591/1/6 588/1/6 592/1/6
f 589/3/6 590/3/6 593/3/6
f 593/3/6 590/3/6 594/3/6
f 595/3/6 596/3/6 599/3/6
f 599/3/6 596/3/6 600/3/6
f 597/3/6 598/3/6 605/3/6
f 605/3/6 598/3/6 606/3/6
f 601/3/6 602/3/6 607/3/6
f 607/3/6 602/3/6 608/3/6
f 603/3/6 604/3/6 609/3/6
f 609/3/6 604/3/6 610/3/6
f 611/3/6 612/3/6 615/3/6
f 615/3/6 612/3/6 616/3/6
f 613/3/6 614/3/6 617/3/6
f 617/3/6 614/3/6 618/3/6
f 619/2/6 620/2/6 621/2/6
f 621/2/6 620/2/6 622/2/6
f 623/1/6 624/1/6 627/1/6
f 627/1/6 624/1/6 628/1/6
f 625/1/6 626/1/6 629/1/6
f 629/1/6 626/1/6 630/1/6
f 631/1/6 632/1/6 638/1/6
f 632/3/6 633/3/6 639/3/6
f 638/1/6 632/1/6 639/1/6
f 635/1/6 636/1/6 640/1/6
f 634/3/6 635/3/6 640/3/6
f 640/1/6 636/1/6 641/1/6
f 639/3/6 633/3/6 643/3/6
f 643/3/6 633/3/6 644/3/6
f 634/3/6 640/3/6 645/3/6
f 645/3/6 640/3/6 646/3/6
f 637/1/6 638/1/6 647/1/6
f 647/1/6 638/1/6 648/1/6
f 641/1/6 642/1/6 649/1/6
f 649/1/6 642/1/6 650/1/6
f 647/3/6 648/3/6 651/3/6
f 651/3/6 648/3/6 652/3/6
f 649/3/6 650/3/6 653/3/6
f 653/3/6 650/3/6 654/3/6
f 644/2/6 645/2/6 655/2/6
f 655/2/6 645/2/6 656/2/6
f 657/1/6 658/1/6 661/1/6
f 659/1/6 660/1/6 664/1/6
f 657/1/6 661/1/6 665/1/6
f 661/3/6 662/3/6 666/3/6
f 665/1/6 661/1/6 666/1/6
f 663/3/6 664/3/6 667/3/6
f 664/1/6 660/1/6 667/1/6
f 667/1/6 660/1/6 668/1/6
f 665/3/6 666/3/6 669/3/6
f 666/3/6 662/3/6 670/3/6
f 669/3/6 666/3/6 670/3/6
f 663/3/6 667/3/6 671/3/6
f 667/3/6 668/3/6 671/3/6
f 671/3/6 668/3/6 672/3/6
f 665/3/6 669/3/6 673/3/6
f 669/1/6 670/1/6 673/1/6
f 670/3/6 662/3/6 674/3/6
f 673/1/6 670/1/6 674/1/6
f 674/3/6 662/3/6 675/3/6
f 663/3/6 671/3/6 676/3/6
f 671/1/6 672/1/6 677/1/6
f 676/3/6 671/3/6 677/3/6
f 672/3/6 668/3/6 678/3/6
f 677/1/6 672/1/6 678/1/6
f 665/3/6 673/3/6 679/3/6
f 673/3/6 674/3/6 679/3/6
f 676/1/6 677/1/6 680/1/6
f 679/3/6 674/3/6 680/3/6
f 675/1/6 676/1/6 680/1/6
f 674/1/6 675/1/6 680/1/6
f 677/3/6 678/3/6 681/3/6
f 680/1/6 677/1/6 681/1/6
f 678/3/6 668/3/6 682/3/6
f 681/3/6 678/3/6 682/3/6
f 665/3/6 679/3/6 683/3/6
f 680/1/6 681/1/6 683/1/6
f 681/1/6 682/1/6 683/1/6
f 679/1/6 680/1/6 683/1/6
f 682/3/6 668/3/6 684/3/6
f 683/1/6 682/1/6 684/1/6
f 665/3/6 683/3/6 685/3/6
f 683/3/6 684/3/6 685/3/6
f 684/3/6 668/3/6 686/3/6
f 685/3/6 684/3/6 686/3/6
