# MagicaVoxel @ Ephtracy

# group
o 

# material
mtllib HomingPlasmaBot_LOD2-0.mtl
usemtl palette

# normals
vn -1 0 0
vn 1 0 0
vn 0 0 1
vn 0 0 -1
vn 0 -1 0
vn 0 1 0

# texcoords
vt 0.974609 0.5
vt 0.978516 0.5

# verts
v 0.3 1.4 -0.8
v 0.3 1.4 -1.2
v 0.3 1.6 -1.1
v 0.3 1.6 -1.2
v 0.3 2.1 -1
v 0.3 2.1 -1.1
v 0.3 2.3 -0.8
v 0.3 2.3 -1
v 0.8 1.4 -0.8
v 0.8 1.4 -1.2
v 0.8 1.6 -1.1
v 0.8 1.6 -1.2
v 0.8 2.1 -1
v 0.8 2.1 -1.1
v 0.8 2.3 -0.8
v 0.8 2.3 -1
v 0.3 1.4 -0.8
v 0.3 2.3 -0.8
v 0.4 1.6 -0.8
v 0.4 2.2 -0.8
v 0.7 1.6 -0.8
v 0.7 2.2 -0.8
v 0.8 1.4 -0.8
v 0.8 2.3 -0.8
v 0.3 2.1 -1
v 0.3 2.3 -1
v 0.4 2.1 -1
v 0.4 2.3 -1
v 0.7 2.1 -1
v 0.7 2.3 -1
v 0.8 2.1 -1
v 0.8 2.3 -1
v 0.3 1.6 -1.1
v 0.3 2.1 -1.1
v 0.4 1.6 -1.1
v 0.4 2.1 -1.1
v 0.7 1.6 -1.1
v 0.7 2.1 -1.1
v 0.8 1.6 -1.1
v 0.8 2.1 -1.1
v 0.3 1.4 -1.2
v 0.3 1.6 -1.2
v 0.8 1.4 -1.2
v 0.8 1.6 -1.2
v 0.3 1.4 -0.8
v 0.8 1.4 -0.8
v 0.3 1.4 -1.2
v 0.8 1.4 -1.2
v 0.3 1.6 -1.1
v 0.4 1.6 -1.1
v 0.7 1.6 -1.1
v 0.8 1.6 -1.1
v 0.3 1.6 -1.2
v 0.8 1.6 -1.2
v 0.3 2.1 -1
v 0.4 2.1 -1
v 0.7 2.1 -1
v 0.8 2.1 -1
v 0.3 2.1 -1.1
v 0.4 2.1 -1.1
v 0.7 2.1 -1.1
v 0.8 2.1 -1.1
v 0.3 2.3 -0.8
v 0.8 2.3 -0.8
v 0.4 2.3 -0.9
v 0.7 2.3 -0.9
v 0.3 2.3 -1
v 0.4 2.3 -1
v 0.7 2.3 -1
v 0.8 2.3 -1

# faces
f 3/2/1 2/2/1 1/2/1
f 4/2/1 2/2/1 3/2/1
f 5/2/1 3/2/1 1/2/1
f 6/2/1 3/2/1 5/2/1
f 7/2/1 5/2/1 1/2/1
f 8/2/1 5/2/1 7/2/1
f 9/2/2 10/2/2 11/2/2
f 11/2/2 10/2/2 12/2/2
f 9/2/2 11/2/2 13/2/2
f 13/2/2 11/2/2 14/2/2
f 9/2/2 13/2/2 15/2/2
f 15/2/2 13/2/2 16/2/2
f 19/2/3 18/2/3 17/2/3
f 20/2/3 18/2/3 19/2/3
f 21/2/3 19/2/3 17/2/3
f 21/1/3 20/1/3 19/1/3
f 22/2/3 18/2/3 20/2/3
f 22/1/3 20/1/3 21/1/3
f 23/2/3 21/2/3 17/2/3
f 23/2/3 22/2/3 21/2/3
f 24/2/3 18/2/3 22/2/3
f 24/2/3 22/2/3 23/2/3
f 25/2/4 26/2/4 27/2/4
f 27/2/4 26/2/4 28/2/4
f 27/1/4 28/1/4 29/1/4
f 29/1/4 28/1/4 30/1/4
f 29/2/4 30/2/4 31/2/4
f 31/2/4 30/2/4 32/2/4
f 33/2/4 34/2/4 35/2/4
f 35/2/4 34/2/4 36/2/4
f 35/1/4 36/1/4 37/1/4
f 37/1/4 36/1/4 38/1/4
f 37/2/4 38/2/4 39/2/4
f 39/2/4 38/2/4 40/2/4
f 41/2/4 42/2/4 43/2/4
f 43/2/4 42/2/4 44/2/4
f 47/2/5 46/2/5 45/2/5
f 48/2/5 46/2/5 47/2/5
f 49/2/6 50/2/6 53/2/6
f 51/2/6 52/2/6 53/2/6
f 50/2/6 51/2/6 53/2/6
f 53/2/6 52/2/6 54/2/6
f 55/2/6 56/2/6 59/2/6
f 56/1/6 57/1/6 60/1/6
f 59/2/6 56/2/6 60/2/6
f 57/2/6 58/2/6 61/2/6
f 60/1/6 57/1/6 61/1/6
f 61/2/6 58/2/6 62/2/6
f 63/2/6 64/2/6 65/2/6
f 65/2/6 64/2/6 66/2/6
f 63/2/6 65/2/6 67/2/6
f 65/1/6 66/1/6 68/1/6
f 67/2/6 65/2/6 68/2/6
f 66/2/6 64/2/6 69/2/6
f 68/1/6 66/1/6 69/1/6
f 69/2/6 64/2/6 70/2/6
