# MagicaVoxel @ Ephtracy

# group
o 

# material
mtllib TeleporterBot_LOD0-2.mtl
usemtl palette

# normals
vn -1 0 0
vn 1 0 0
vn 0 0 1
vn 0 0 -1
vn 0 -1 0
vn 0 1 0

# texcoords
vt 0.970703 0.5
vt 0.974609 0.5
vt 0.978516 0.5

# verts
v -0.7 2.3 0.1
v -0.7 2.3 -0.1
v -0.7 2.3 -0.2
v -0.7 2.3 -0.3
v -0.7 2.3 -0.4
v -0.7 2.3 -0.6
v -0.7 2.4 0
v -0.7 2.4 -0.1
v -0.7 2.4 -0.4
v -0.7 2.4 -0.5
v -0.7 2.7 0.1
v -0.7 2.7 0
v -0.7 2.7 -0.2
v -0.7 2.7 -0.3
v -0.7 2.7 -0.5
v -0.7 2.7 -0.6
v -0.6 2.4 -0.2
v -0.6 2.4 -0.3
v -0.6 2.6 -0.2
v -0.6 2.6 -0.3
v -0.5 2.6 -0.2
v -0.5 2.6 -0.4
v -0.5 2.7 -0.2
v -0.5 2.7 -0.4
v -0.4 2.6 -0.1
v -0.4 2.6 -0.2
v -0.4 2.7 -0.1
v -0.4 2.7 -0.2
v -0.3 2.6 0.1
v -0.3 2.6 0
v -0.3 2.6 -0.1
v -0.3 2.7 0.1
v -0.3 2.7 -0.1
v 0.1 2.3 0.1
v 0.1 2.3 0
v 0.1 2.3 -0.3
v 0.1 2.3 -0.5
v 0.1 2.3 -0.6
v 0.1 2.4 0.1
v 0.1 2.4 0
v 0.1 2.4 -0.3
v 0.1 2.4 -0.5
v 0.1 2.6 -0.2
v 0.1 2.6 -0.3
v 0.1 2.6 -0.5
v 0.1 2.7 -0.2
v 0.1 2.7 -0.3
v 0.1 2.7 -0.5
v 0.1 2.7 -0.6
v 0.2 2.3 0
v 0.2 2.3 -0.2
v 0.2 2.4 0
v 0.2 2.4 -0.2
v 0.2 2.6 -0.3
v 0.2 2.6 -0.4
v 0.2 2.7 -0.3
v 0.2 2.7 -0.4
v 0.3 2.4 0.1
v 0.3 2.4 0
v 0.3 2.5 0.1
v 0.3 2.5 0
v 0.6 2.5 0.1
v 0.6 2.5 0
v 0.6 2.6 0
v 0.6 2.6 -0.2
v 0.6 2.6 -0.3
v 0.6 2.6 -0.5
v 0.6 2.7 0.1
v 0.6 2.7 0
v 0.6 2.7 -0.2
v 0.6 2.7 -0.3
v 0.6 2.7 -0.5
v -0.6 2.5 0.1
v -0.6 2.5 0
v -0.6 2.6 0
v -0.6 2.6 -0.2
v -0.6 2.6 -0.3
v -0.6 2.6 -0.5
v -0.6 2.7 0.1
v -0.6 2.7 0
v -0.6 2.7 -0.2
v -0.6 2.7 -0.3
v -0.6 2.7 -0.5
v -0.3 2.4 0.1
v -0.3 2.4 0
v -0.3 2.5 0.1
v -0.3 2.5 0
v -0.2 2.3 0
v -0.2 2.3 -0.2
v -0.2 2.4 0
v -0.2 2.4 -0.2
v -0.2 2.6 -0.3
v -0.2 2.6 -0.4
v -0.2 2.7 -0.3
v -0.2 2.7 -0.4
v -0.1 2.3 0.1
v -0.1 2.3 0
v -0.1 2.3 -0.3
v -0.1 2.3 -0.5
v -0.1 2.3 -0.6
v -0.1 2.4 0.1
v -0.1 2.4 0
v -0.1 2.4 -0.3
v -0.1 2.4 -0.5
v -0.1 2.6 -0.2
v -0.1 2.6 -0.3
v -0.1 2.6 -0.5
v -0.1 2.7 -0.2
v -0.1 2.7 -0.3
v -0.1 2.7 -0.5
v -0.1 2.7 -0.6
v 0.3 2.6 0.1
v 0.3 2.6 0
v 0.3 2.6 -0.1
v 0.3 2.7 0.1
v 0.3 2.7 -0.1
v 0.4 2.6 -0.1
v 0.4 2.6 -0.2
v 0.4 2.7 -0.1
v 0.4 2.7 -0.2
v 0.5 2.6 -0.2
v 0.5 2.6 -0.4
v 0.5 2.7 -0.2
v 0.5 2.7 -0.4
v 0.6 2.4 -0.2
v 0.6 2.4 -0.3
v 0.6 2.6 -0.2
v 0.6 2.6 -0.3
v 0.7 2.3 0.1
v 0.7 2.3 -0.1
v 0.7 2.3 -0.2
v 0.7 2.3 -0.3
v 0.7 2.3 -0.4
v 0.7 2.3 -0.6
v 0.7 2.4 0
v 0.7 2.4 -0.1
v 0.7 2.4 -0.4
v 0.7 2.4 -0.5
v 0.7 2.7 0.1
v 0.7 2.7 0
v 0.7 2.7 -0.2
v 0.7 2.7 -0.3
v 0.7 2.7 -0.5
v 0.7 2.7 -0.6
v -0.7 2.3 0.1
v -0.7 2.7 0.1
v -0.6 2.4 0.1
v -0.6 2.5 0.1
v -0.6 2.7 0.1
v -0.5 2.3 0.1
v -0.5 2.4 0.1
v -0.3 2.4 0.1
v -0.3 2.5 0.1
v -0.3 2.6 0.1
v -0.3 2.7 0.1
v -0.2 2.6 0.1
v -0.2 2.7 0.1
v -0.1 2.3 0.1
v -0.1 2.4 0.1
v 0.1 2.3 0.1
v 0.1 2.4 0.1
v 0.2 2.6 0.1
v 0.2 2.7 0.1
v 0.3 2.4 0.1
v 0.3 2.5 0.1
v 0.3 2.6 0.1
v 0.3 2.7 0.1
v 0.5 2.3 0.1
v 0.5 2.4 0.1
v 0.6 2.4 0.1
v 0.6 2.5 0.1
v 0.6 2.7 0.1
v 0.7 2.3 0.1
v 0.7 2.7 0.1
v -0.6 2.5 0
v -0.6 2.6 0
v -0.3 2.4 0
v -0.3 2.5 0
v -0.3 2.6 0
v -0.2 2.6 0
v -0.1 2.4 0
v 0.1 2.4 0
v 0.2 2.6 0
v 0.3 2.4 0
v 0.3 2.5 0
v 0.3 2.6 0
v 0.6 2.5 0
v 0.6 2.6 0
v -0.4 2.6 -0.1
v -0.4 2.7 -0.1
v -0.3 2.6 -0.1
v -0.3 2.7 -0.1
v 0.3 2.6 -0.1
v 0.3 2.7 -0.1
v 0.4 2.6 -0.1
v 0.4 2.7 -0.1
v -0.5 2.6 -0.2
v -0.5 2.7 -0.2
v -0.4 2.6 -0.2
v -0.4 2.7 -0.2
v 0.4 2.6 -0.2
v 0.4 2.7 -0.2
v 0.5 2.6 -0.2
v 0.5 2.7 -0.2
v -0.7 2.3 -0.3
v -0.7 2.7 -0.3
v -0.6 2.4 -0.3
v -0.6 2.6 -0.3
v -0.6 2.7 -0.3
v -0.3 2.3 -0.3
v -0.3 2.4 -0.3
v -0.1 2.3 -0.3
v -0.1 2.4 -0.3
v 0.1 2.3 -0.3
v 0.1 2.4 -0.3
v 0.3 2.3 -0.3
v 0.3 2.4 -0.3
v 0.6 2.4 -0.3
v 0.6 2.6 -0.3
v 0.6 2.7 -0.3
v 0.7 2.3 -0.3
v 0.7 2.7 -0.3
v -0.6 2.6 -0.5
v -0.6 2.7 -0.5
v -0.3 2.6 -0.5
v -0.3 2.7 -0.5
v -0.2 2.6 -0.5
v -0.2 2.7 -0.5
v -0.1 2.6 -0.5
v -0.1 2.7 -0.5
v 0.1 2.6 -0.5
v 0.1 2.7 -0.5
v 0.2 2.6 -0.5
v 0.2 2.7 -0.5
v 0.3 2.6 -0.5
v 0.3 2.7 -0.5
v 0.6 2.6 -0.5
v 0.6 2.7 -0.5
v -0.2 2.3 0
v -0.2 2.4 0
v -0.1 2.3 0
v -0.1 2.4 0
v 0.1 2.3 0
v 0.1 2.4 0
v 0.2 2.3 0
v 0.2 2.4 0
v -0.7 2.3 -0.2
v -0.7 2.7 -0.2
v -0.6 2.4 -0.2
v -0.6 2.6 -0.2
v -0.6 2.7 -0.2
v -0.3 2.3 -0.2
v -0.3 2.4 -0.2
v -0.2 2.3 -0.2
v -0.2 2.4 -0.2
v -0.1 2.6 -0.2
v -0.1 2.7 -0.2
v 0.1 2.6 -0.2
v 0.1 2.7 -0.2
v 0.2 2.3 -0.2
v 0.2 2.4 -0.2
v 0.3 2.3 -0.2
v 0.3 2.4 -0.2
v 0.6 2.4 -0.2
v 0.6 2.6 -0.2
v 0.6 2.7 -0.2
v 0.7 2.3 -0.2
v 0.7 2.7 -0.2
v -0.2 2.6 -0.3
v -0.2 2.7 -0.3
v -0.1 2.6 -0.3
v -0.1 2.7 -0.3
v 0.1 2.6 -0.3
v 0.1 2.7 -0.3
v 0.2 2.6 -0.3
v 0.2 2.7 -0.3
v -0.5 2.6 -0.4
v -0.5 2.7 -0.4
v -0.3 2.6 -0.4
v -0.3 2.7 -0.4
v -0.2 2.6 -0.4
v -0.2 2.7 -0.4
v 0.2 2.6 -0.4
v 0.2 2.7 -0.4
v 0.3 2.6 -0.4
v 0.3 2.7 -0.4
v 0.5 2.6 -0.4
v 0.5 2.7 -0.4
v -0.1 2.4 -0.5
v -0.1 2.6 -0.5
v 0.1 2.4 -0.5
v 0.1 2.6 -0.5
v -0.7 2.3 -0.6
v -0.7 2.7 -0.6
v -0.6 2.4 -0.6
v -0.6 2.7 -0.6
v -0.5 2.3 -0.6
v -0.5 2.4 -0.6
v -0.3 2.3 -0.6
v -0.3 2.7 -0.6
v -0.2 2.3 -0.6
v -0.2 2.7 -0.6
v -0.1 2.3 -0.6
v -0.1 2.7 -0.6
v 0.1 2.3 -0.6
v 0.1 2.7 -0.6
v 0.2 2.3 -0.6
v 0.2 2.7 -0.6
v 0.3 2.3 -0.6
v 0.3 2.7 -0.6
v 0.5 2.3 -0.6
v 0.5 2.4 -0.6
v 0.6 2.4 -0.6
v 0.6 2.7 -0.6
v 0.7 2.3 -0.6
v 0.7 2.7 -0.6
v -0.7 2.3 0.1
v -0.5 2.3 0.1
v -0.1 2.3 0.1
v 0.1 2.3 0.1
v 0.5 2.3 0.1
v 0.7 2.3 0.1
v -0.5 2.3 0
v -0.2 2.3 0
v -0.1 2.3 0
v 0.1 2.3 0
v 0.2 2.3 0
v 0.5 2.3 0
v -0.7 2.3 -0.1
v -0.3 2.3 -0.1
v 0.3 2.3 -0.1
v 0.7 2.3 -0.1
v -0.7 2.3 -0.2
v -0.3 2.3 -0.2
v -0.2 2.3 -0.2
v 0.2 2.3 -0.2
v 0.3 2.3 -0.2
v 0.7 2.3 -0.2
v -0.7 2.3 -0.3
v -0.3 2.3 -0.3
v -0.1 2.3 -0.3
v 0.1 2.3 -0.3
v 0.3 2.3 -0.3
v 0.7 2.3 -0.3
v -0.7 2.3 -0.4
v -0.3 2.3 -0.4
v 0.3 2.3 -0.4
v 0.7 2.3 -0.4
v -0.5 2.3 -0.5
v -0.3 2.3 -0.5
v -0.2 2.3 -0.5
v -0.1 2.3 -0.5
v 0.1 2.3 -0.5
v 0.2 2.3 -0.5
v 0.3 2.3 -0.5
v 0.5 2.3 -0.5
v -0.7 2.3 -0.6
v -0.5 2.3 -0.6
v -0.3 2.3 -0.6
v -0.2 2.3 -0.6
v -0.1 2.3 -0.6
v 0.1 2.3 -0.6
v 0.2 2.3 -0.6
v 0.3 2.3 -0.6
v 0.5 2.3 -0.6
v 0.7 2.3 -0.6
v -0.2 2.4 0
v -0.1 2.4 0
v 0.1 2.4 0
v 0.2 2.4 0
v -0.6 2.4 -0.2
v -0.3 2.4 -0.2
v -0.2 2.4 -0.2
v 0.2 2.4 -0.2
v 0.3 2.4 -0.2
v 0.6 2.4 -0.2
v -0.6 2.4 -0.3
v -0.3 2.4 -0.3
v -0.1 2.4 -0.3
v 0.1 2.4 -0.3
v 0.3 2.4 -0.3
v 0.6 2.4 -0.3
v -0.1 2.4 -0.5
v 0.1 2.4 -0.5
v -0.3 2.6 0.1
v -0.2 2.6 0.1
v 0.2 2.6 0.1
v 0.3 2.6 0.1
v -0.3 2.6 0
v -0.2 2.6 0
v 0.2 2.6 0
v 0.3 2.6 0
v -0.3 2.4 0.1
v -0.1 2.4 0.1
v 0.1 2.4 0.1
v 0.3 2.4 0.1
v -0.3 2.4 0
v -0.1 2.4 0
v 0.1 2.4 0
v 0.3 2.4 0
v -0.6 2.5 0.1
v -0.3 2.5 0.1
v 0.3 2.5 0.1
v 0.6 2.5 0.1
v -0.6 2.5 0
v -0.3 2.5 0
v 0.3 2.5 0
v 0.6 2.5 0
v -0.6 2.6 0
v -0.3 2.6 0
v 0.3 2.6 0
v 0.6 2.6 0
v -0.4 2.6 -0.1
v -0.3 2.6 -0.1
v 0.3 2.6 -0.1
v 0.4 2.6 -0.1
v -0.6 2.6 -0.2
v -0.5 2.6 -0.2
v -0.4 2.6 -0.2
v -0.1 2.6 -0.2
v 0.1 2.6 -0.2
v 0.4 2.6 -0.2
v 0.5 2.6 -0.2
v 0.6 2.6 -0.2
v -0.6 2.6 -0.3
v -0.2 2.6 -0.3
v -0.1 2.6 -0.3
v 0.1 2.6 -0.3
v 0.2 2.6 -0.3
v 0.6 2.6 -0.3
v -0.5 2.6 -0.4
v -0.3 2.6 -0.4
v -0.2 2.6 -0.4
v 0.2 2.6 -0.4
v 0.3 2.6 -0.4
v 0.5 2.6 -0.4
v -0.6 2.6 -0.5
v -0.3 2.6 -0.5
v -0.2 2.6 -0.5
v -0.1 2.6 -0.5
v 0.1 2.6 -0.5
v 0.2 2.6 -0.5
v 0.3 2.6 -0.5
v 0.6 2.6 -0.5
v -0.7 2.7 0.1
v -0.6 2.7 0.1
v -0.3 2.7 0.1
v -0.2 2.7 0.1
v 0.2 2.7 0.1
v 0.3 2.7 0.1
v 0.6 2.7 0.1
v 0.7 2.7 0.1
v -0.7 2.7 0
v -0.6 2.7 0
v 0.6 2.7 0
v 0.7 2.7 0
v -0.4 2.7 -0.1
v -0.3 2.7 -0.1
v -0.2 2.7 -0.1
v 0.2 2.7 -0.1
v 0.3 2.7 -0.1
v 0.4 2.7 -0.1
v -0.7 2.7 -0.2
v -0.6 2.7 -0.2
v -0.5 2.7 -0.2
v -0.4 2.7 -0.2
v -0.3 2.7 -0.2
v -0.1 2.7 -0.2
v 0.1 2.7 -0.2
v 0.3 2.7 -0.2
v 0.4 2.7 -0.2
v 0.5 2.7 -0.2
v 0.6 2.7 -0.2
v 0.7 2.7 -0.2
v -0.7 2.7 -0.3
v -0.6 2.7 -0.3
v -0.4 2.7 -0.3
v -0.3 2.7 -0.3
v -0.2 2.7 -0.3
v -0.1 2.7 -0.3
v 0.1 2.7 -0.3
v 0.2 2.7 -0.3
v 0.3 2.7 -0.3
v 0.4 2.7 -0.3
v 0.6 2.7 -0.3
v 0.7 2.7 -0.3
v -0.5 2.7 -0.4
v -0.3 2.7 -0.4
v -0.2 2.7 -0.4
v 0.2 2.7 -0.4
v 0.3 2.7 -0.4
v 0.5 2.7 -0.4
v -0.7 2.7 -0.5
v -0.6 2.7 -0.5
v -0.3 2.7 -0.5
v -0.2 2.7 -0.5
v -0.1 2.7 -0.5
v 0.1 2.7 -0.5
v 0.2 2.7 -0.5
v 0.3 2.7 -0.5
v 0.6 2.7 -0.5
v 0.7 2.7 -0.5
v -0.7 2.7 -0.6
v -0.6 2.7 -0.6
v -0.3 2.7 -0.6
v -0.2 2.7 -0.6
v -0.1 2.7 -0.6
v 0.1 2.7 -0.6
v 0.2 2.7 -0.6
v 0.3 2.7 -0.6
v 0.6 2.7 -0.6
v 0.7 2.7 -0.6

# faces
f 7/1/1 2/1/1 1/1/1
f 8/3/1 3/3/1 2/3/1
f 8/1/1 2/1/1 7/1/1
f 9/1/1 6/1/1 5/1/1
f 9/3/1 5/3/1 4/3/1
f 10/1/1 6/1/1 9/1/1
f 11/1/1 7/1/1 1/1/1
f 12/3/1 8/3/1 7/3/1
f 12/1/1 7/1/1 11/1/1
f 13/3/1 3/3/1 8/3/1
f 13/3/1 8/3/1 12/3/1
f 14/3/1 9/3/1 4/3/1
f 14/3/1 10/3/1 9/3/1
f 15/1/1 6/1/1 10/1/1
f 15/3/1 10/3/1 14/3/1
f 16/1/1 6/1/1 15/1/1
f 19/2/1 18/2/1 17/2/1
f 20/2/1 18/2/1 19/2/1
f 23/1/1 22/1/1 21/1/1
f 24/1/1 22/1/1 23/1/1
f 27/1/1 26/1/1 25/1/1
f 28/1/1 26/1/1 27/1/1
f 32/1/1 30/1/1 29/1/1
f 32/1/1 31/1/1 30/1/1
f 33/1/1 31/1/1 32/1/1
f 39/3/1 35/3/1 34/3/1
f 40/3/1 35/3/1 39/3/1
f 41/1/1 37/1/1 36/1/1
f 42/3/1 38/3/1 37/3/1
f 42/1/1 37/1/1 41/1/1
f 45/3/1 38/3/1 42/3/1
f 46/3/1 44/3/1 43/3/1
f 47/3/1 44/3/1 46/3/1
f 48/3/1 38/3/1 45/3/1
f 49/3/1 38/3/1 48/3/1
f 52/1/1 51/1/1 50/1/1
f 53/1/1 51/1/1 52/1/1
f 56/3/1 55/3/1 54/3/1
f 57/3/1 55/3/1 56/3/1
f 60/3/1 59/3/1 58/3/1
f 61/3/1 59/3/1 60/3/1
f 64/1/1 63/1/1 62/1/1
f 68/1/1 64/1/1 62/1/1
f 69/3/1 65/3/1 64/3/1
f 69/1/1 64/1/1 68/1/1
f 70/3/1 65/3/1 69/3/1
f 71/3/1 67/3/1 66/3/1
f 72/3/1 67/3/1 71/3/1
f 73/1/2 74/1/2 75/1/2
f 73/1/2 75/1/2 79/1/2
f 75/3/2 76/3/2 80/3/2
f 79/1/2 75/1/2 80/1/2
f 80/3/2 76/3/2 81/3/2
f 77/3/2 78/3/2 82/3/2
f 82/3/2 78/3/2 83/3/2
f 84/3/2 85/3/2 86/3/2
f 86/3/2 85/3/2 87/3/2
f 88/1/2 89/1/2 90/1/2
f 90/1/2 89/1/2 91/1/2
f 92/3/2 93/3/2 94/3/2
f 94/3/2 93/3/2 95/3/2
f 96/3/2 97/3/2 101/3/2
f 101/3/2 97/3/2 102/3/2
f 98/1/2 99/1/2 103/1/2
f 99/3/2 100/3/2 104/3/2
f 103/1/2 99/1/2 104/1/2
f 104/3/2 100/3/2 107/3/2
f 105/3/2 106/3/2 108/3/2
f 108/3/2 106/3/2 109/3/2
f 107/3/2 100/3/2 110/3/2
f 110/3/2 100/3/2 111/3/2
f 112/1/2 113/1/2 115/1/2
f 113/1/2 114/1/2 115/1/2
f 115/1/2 114/1/2 116/1/2
f 117/1/2 118/1/2 119/1/2
f 119/1/2 118/1/2 120/1/2
f 121/1/2 122/1/2 123/1/2
f 123/1/2 122/1/2 124/1/2
f 125/2/2 126/2/2 127/2/2
f 127/2/2 126/2/2 128/2/2
f 129/1/2 130/1/2 135/1/2
f 130/3/2 131/3/2 136/3/2
f 135/1/2 130/1/2 136/1/2
f 133/1/2 134/1/2 137/1/2
f 132/3/2 133/3/2 137/3/2
f 137/1/2 134/1/2 138/1/2
f 129/1/2 135/1/2 139/1/2
f 135/3/2 136/3/2 140/3/2
f 139/1/2 135/1/2 140/1/2
f 136/3/2 131/3/2 141/3/2
f 140/3/2 136/3/2 141/3/2
f 132/3/2 137/3/2 142/3/2
f 137/3/2 138/3/2 142/3/2
f 138/1/2 134/1/2 143/1/2
f 142/3/2 138/3/2 143/3/2
f 143/1/2 134/1/2 144/1/2
f 147/1/3 146/1/3 145/1/3
f 148/1/3 146/1/3 147/1/3
f 149/1/3 146/1/3 148/1/3
f 150/1/3 147/1/3 145/1/3
f 151/3/3 148/3/3 147/3/3
f 151/1/3 147/1/3 150/1/3
f 152/3/3 151/3/3 150/3/3
f 152/3/3 148/3/3 151/3/3
f 153/3/3 148/3/3 152/3/3
f 156/1/3 155/1/3 154/1/3
f 157/1/3 155/1/3 156/1/3
f 158/3/3 152/3/3 150/3/3
f 159/3/3 152/3/3 158/3/3
f 162/3/3 157/3/3 156/3/3
f 163/3/3 157/3/3 162/3/3
f 164/3/3 161/3/3 160/3/3
f 166/1/3 163/1/3 162/1/3
f 167/1/3 163/1/3 166/1/3
f 168/3/3 165/3/3 164/3/3
f 168/3/3 164/3/3 160/3/3
f 169/3/3 165/3/3 168/3/3
f 170/1/3 169/1/3 168/1/3
f 170/3/3 165/3/3 169/3/3
f 171/3/3 165/3/3 170/3/3
f 173/1/3 170/1/3 168/1/3
f 173/1/3 172/1/3 171/1/3
f 173/1/3 171/1/3 170/1/3
f 174/1/3 172/1/3 173/1/3
f 178/2/3 176/2/3 175/2/3
f 179/2/3 176/2/3 178/2/3
f 180/2/3 178/2/3 177/2/3
f 180/2/3 179/2/3 178/2/3
f 181/2/3 180/2/3 177/2/3
f 182/2/3 180/2/3 181/2/3
f 183/2/3 180/2/3 182/2/3
f 184/2/3 183/2/3 182/2/3
f 185/2/3 183/2/3 184/2/3
f 186/2/3 183/2/3 185/2/3
f 187/2/3 186/2/3 185/2/3
f 188/2/3 186/2/3 187/2/3
f 191/1/3 190/1/3 189/1/3
f 192/1/3 190/1/3 191/1/3
f 195/1/3 194/1/3 193/1/3
f 196/1/3 194/1/3 195/1/3
f 199/1/3 198/1/3 197/1/3
f 200/1/3 198/1/3 199/1/3
f 203/1/3 202/1/3 201/1/3
f 204/1/3 202/1/3 203/1/3
f 207/3/3 206/3/3 205/3/3
f 208/3/3 206/3/3 207/3/3
f 209/3/3 206/3/3 208/3/3
f 210/3/3 207/3/3 205/3/3
f 211/3/3 207/3/3 210/3/3
f 212/1/3 211/1/3 210/1/3
f 213/1/3 211/1/3 212/1/3
f 216/1/3 215/1/3 214/1/3
f 217/1/3 215/1/3 216/1/3
f 218/3/3 217/3/3 216/3/3
f 221/3/3 218/3/3 216/3/3
f 221/3/3 220/3/3 219/3/3
f 221/3/3 219/3/3 218/3/3
f 222/3/3 220/3/3 221/3/3
f 225/3/3 224/3/3 223/3/3
f 226/3/3 224/3/3 225/3/3
f 227/1/3 226/1/3 225/1/3
f 228/1/3 226/1/3 227/1/3
f 229/3/3 228/3/3 227/3/3
f 230/3/3 228/3/3 229/3/3
f 233/3/3 232/3/3 231/3/3
f 234/3/3 232/3/3 233/3/3
f 235/1/3 234/1/3 233/1/3
f 236/1/3 234/1/3 235/1/3
f 237/3/3 236/3/3 235/3/3
f 238/3/3 236/3/3 237/3/3
f 239/3/4 240/3/4 241/3/4
f 241/3/4 240/3/4 242/3/4
f 243/3/4 244/3/4 245/3/4
f 245/3/4 244/3/4 246/3/4
f 247/3/4 248/3/4 249/3/4
f 249/3/4 248/3/4 250/3/4
f 250/3/4 248/3/4 251/3/4
f 247/3/4 249/3/4 252/3/4
f 252/3/4 249/3/4 253/3/4
f 252/1/4 253/1/4 254/1/4
f 254/1/4 253/1/4 255/1/4
f 256/3/4 257/3/4 258/3/4
f 258/3/4 257/3/4 259/3/4
f 260/1/4 261/1/4 262/1/4
f 262/1/4 261/1/4 263/1/4
f 262/3/4 263/3/4 264/3/4
f 262/3/4 264/3/4 267/3/4
f 265/3/4 266/3/4 267/3/4
f 264/3/4 265/3/4 267/3/4
f 267/3/4 266/3/4 268/3/4
f 269/3/4 270/3/4 271/3/4
f 271/3/4 270/3/4 272/3/4
f 273/3/4 274/3/4 275/3/4
f 275/3/4 274/3/4 276/3/4
f 277/1/4 278/1/4 279/1/4
f 279/1/4 278/1/4 280/1/4
f 279/3/4 280/3/4 281/3/4
f 281/3/4 280/3/4 282/3/4
f 283/3/4 284/3/4 285/3/4
f 285/3/4 284/3/4 286/3/4
f 285/1/4 286/1/4 287/1/4
f 287/1/4 286/1/4 288/1/4
f 289/2/4 290/2/4 291/2/4
f 291/2/4 290/2/4 292/2/4
f 293/1/4 294/1/4 295/1/4
f 295/1/4 294/1/4 296/1/4
f 293/1/4 295/1/4 297/1/4
f 295/3/4 296/3/4 298/3/4
f 297/1/4 295/1/4 298/1/4
f 297/3/4 298/3/4 299/3/4
f 298/3/4 296/3/4 300/3/4
f 299/3/4 298/3/4 300/3/4
f 299/1/4 300/1/4 301/1/4
f 301/1/4 300/1/4 302/1/4
f 301/3/4 302/3/4 303/3/4
f 303/3/4 302/3/4 304/3/4
f 305/3/4 306/3/4 307/3/4
f 307/3/4 306/3/4 308/3/4
f 307/1/4 308/1/4 309/1/4
f 309/1/4 308/1/4 310/1/4
f 309/3/4 310/3/4 311/3/4
f 311/3/4 310/3/4 312/3/4
f 311/1/4 312/1/4 313/1/4
f 312/3/4 310/3/4 313/3/4
f 313/3/4 310/3/4 314/3/4
f 311/1/4 313/1/4 315/1/4
f 313/1/4 314/1/4 315/1/4
f 315/1/4 314/1/4 316/1/4
f 323/1/5 318/1/5 317/1/5
f 323/3/5 319/3/5 318/3/5
f 324/3/5 319/3/5 323/3/5
f 325/3/5 319/3/5 324/3/5
f 326/3/5 321/3/5 320/3/5
f 327/3/5 321/3/5 326/3/5
f 328/1/5 322/1/5 321/1/5
f 328/3/5 321/3/5 327/3/5
f 329/1/5 323/1/5 317/1/5
f 329/1/5 324/1/5 323/1/5
f 330/1/5 324/1/5 329/1/5
f 331/1/5 328/1/5 327/1/5
f 332/1/5 322/1/5 328/1/5
f 332/1/5 328/1/5 331/1/5
f 333/3/5 330/3/5 329/3/5
f 334/1/5 324/1/5 330/1/5
f 334/3/5 330/3/5 333/3/5
f 335/1/5 324/1/5 334/1/5
f 336/1/5 331/1/5 327/1/5
f 337/3/5 332/3/5 331/3/5
f 337/1/5 331/1/5 336/1/5
f 338/3/5 332/3/5 337/3/5
f 345/3/5 340/3/5 339/3/5
f 346/1/5 341/1/5 340/1/5
f 346/3/5 340/3/5 345/3/5
f 347/3/5 344/3/5 343/3/5
f 347/1/5 343/1/5 342/1/5
f 348/3/5 344/3/5 347/3/5
f 349/1/5 346/1/5 345/1/5
f 350/1/5 341/1/5 346/1/5
f 350/1/5 346/1/5 349/1/5
f 351/1/5 341/1/5 350/1/5
f 352/1/5 341/1/5 351/1/5
f 353/1/5 347/1/5 342/1/5
f 353/1/5 348/1/5 347/1/5
f 354/1/5 348/1/5 353/1/5
f 355/1/5 348/1/5 354/1/5
f 356/1/5 348/1/5 355/1/5
f 357/1/5 349/1/5 345/1/5
f 358/3/5 350/3/5 349/3/5
f 358/1/5 349/1/5 357/1/5
f 359/1/5 351/1/5 350/1/5
f 359/3/5 350/3/5 358/3/5
f 360/3/5 352/3/5 351/3/5
f 360/1/5 351/1/5 359/1/5
f 361/3/5 352/3/5 360/3/5
f 362/3/5 354/3/5 353/3/5
f 363/1/5 355/1/5 354/1/5
f 363/3/5 354/3/5 362/3/5
f 364/3/5 356/3/5 355/3/5
f 364/1/5 355/1/5 363/1/5
f 365/1/5 348/1/5 356/1/5
f 365/3/5 356/3/5 364/3/5
f 366/1/5 348/1/5 365/1/5
f 373/2/5 368/2/5 367/2/5
f 373/2/5 369/2/5 368/2/5
f 373/2/5 370/2/5 369/2/5
f 374/2/5 370/2/5 373/2/5
f 377/2/5 372/2/5 371/2/5
f 377/2/5 376/2/5 375/2/5
f 377/2/5 375/2/5 374/2/5
f 377/2/5 374/2/5 373/2/5
f 377/2/5 373/2/5 372/2/5
f 378/2/5 376/2/5 377/2/5
f 379/2/5 376/2/5 378/2/5
f 380/2/5 376/2/5 379/2/5
f 381/2/5 376/2/5 380/2/5
f 382/2/5 376/2/5 381/2/5
f 383/2/5 380/2/5 379/2/5
f 384/2/5 380/2/5 383/2/5
f 389/1/5 386/1/5 385/1/5
f 390/3/5 387/3/5 386/3/5
f 390/1/5 386/1/5 389/1/5
f 391/1/5 388/1/5 387/1/5
f 391/3/5 387/3/5 390/3/5
f 392/1/5 388/1/5 391/1/5
f 393/3/6 394/3/6 397/3/6
f 397/3/6 394/3/6 398/3/6
f 395/3/6 396/3/6 399/3/6
f 399/3/6 396/3/6 400/3/6
f 401/3/6 402/3/6 405/3/6
f 405/3/6 402/3/6 406/3/6
f 403/3/6 404/3/6 407/3/6
f 407/3/6 404/3/6 408/3/6
f 409/2/6 410/2/6 413/2/6
f 413/2/6 410/2/6 414/2/6
f 411/2/6 412/2/6 415/2/6
f 415/2/6 412/2/6 416/2/6
f 409/2/6 413/2/6 417/2/6
f 417/2/6 413/2/6 418/2/6
f 418/2/6 413/2/6 419/2/6
f 416/2/6 412/2/6 422/2/6
f 422/2/6 412/2/6 423/2/6
f 423/2/6 412/2/6 424/2/6
f 417/2/6 418/2/6 425/2/6
f 420/2/6 421/2/6 427/2/6
f 427/2/6 421/2/6 428/2/6
f 423/2/6 424/2/6 430/2/6
f 425/2/6 418/2/6 431/2/6
f 428/2/6 429/2/6 433/2/6
f 426/2/6 427/2/6 433/2/6
f 427/2/6 428/2/6 433/2/6
f 433/2/6 429/2/6 434/2/6
f 423/2/6 430/2/6 436/2/6
f 431/2/6 432/2/6 437/2/6
f 435/2/6 436/2/6 437/2/6
f 425/2/6 431/2/6 437/2/6
f 434/2/6 435/2/6 437/2/6
f 433/2/6 434/2/6 437/2/6
f 432/2/6 433/2/6 437/2/6
f 437/2/6 436/2/6 438/2/6
f 438/2/6 436/2/6 439/2/6
f 439/2/6 436/2/6 440/2/6
f 440/2/6 436/2/6 441/2/6
f 441/2/6 436/2/6 442/2/6
f 442/2/6 436/2/6 443/2/6
f 436/2/6 430/2/6 444/2/6
f 443/2/6 436/2/6 444/2/6
f 445/1/6 446/1/6 453/1/6
f 453/1/6 446/1/6 454/1/6
f 451/1/6 452/1/6 455/1/6
f 455/1/6 452/1/6 456/1/6
f 447/1/6 448/1/6 458/1/6
f 448/3/6 449/3/6 459/3/6
f 458/1/6 448/1/6 459/1/6
f 449/1/6 450/1/6 460/1/6
f 459/3/6 449/3/6 460/3/6
f 460/1/6 450/1/6 461/1/6
f 453/3/6 454/3/6 463/3/6
f 463/3/6 454/3/6 464/3/6
f 457/1/6 458/1/6 466/1/6
f 458/3/6 459/3/6 467/3/6
f 459/3/6 460/3/6 467/3/6
f 466/1/6 458/1/6 467/1/6
f 460/3/6 461/3/6 467/3/6
f 467/3/6 461/3/6 468/3/6
f 468/3/6 461/3/6 469/3/6
f 461/1/6 462/1/6 470/1/6
f 469/3/6 461/3/6 470/3/6
f 470/1/6 462/1/6 471/1/6
f 455/3/6 456/3/6 473/3/6
f 473/3/6 456/3/6 474/3/6
f 465/1/6 466/1/6 477/1/6
f 466/3/6 467/3/6 477/3/6
f 467/3/6 468/3/6 477/3/6
f 477/3/6 468/3/6 478/3/6
f 478/3/6 468/3/6 479/3/6
f 479/3/6 468/3/6 480/3/6
f 470/3/6 471/3/6 481/3/6
f 469/3/6 470/3/6 481/3/6
f 481/3/6 471/3/6 482/3/6
f 482/3/6 471/3/6 483/3/6
f 471/1/6 472/1/6 484/1/6
f 483/3/6 471/3/6 484/3/6
f 465/1/6 477/1/6 487/1/6
f 477/1/6 478/1/6 487/1/6
f 478/3/6 479/3/6 488/3/6
f 487/1/6 478/1/6 488/1/6
f 488/3/6 479/3/6 489/3/6
f 482/3/6 483/3/6 490/3/6
f 483/1/6 484/1/6 491/1/6
f 490/3/6 483/3/6 491/3/6
f 484/1/6 472/1/6 492/1/6
f 491/1/6 484/1/6 492/1/6
f 475/3/6 476/3/6 493/3/6
f 493/3/6 476/3/6 494/3/6
f 485/3/6 486/3/6 501/3/6
f 501/3/6 486/3/6 502/3/6
f 493/1/6 494/1/6 503/1/6
f 494/3/6 495/3/6 504/3/6
f 503/1/6 494/1/6 504/1/6
f 495/1/6 496/1/6 505/1/6
f 504/3/6 495/3/6 505/3/6
f 496/3/6 497/3/6 506/3/6
f 505/1/6 496/1/6 506/1/6
f 506/3/6 497/3/6 507/3/6
f 498/3/6 499/3/6 508/3/6
f 499/1/6 500/1/6 509/1/6
f 508/3/6 499/3/6 509/3/6
f 500/3/6 501/3/6 510/3/6
f 509/1/6 500/1/6 510/1/6
f 501/1/6 502/1/6 511/1/6
f 510/3/6 501/3/6 511/3/6
f 511/1/6 502/1/6 512/1/6
