# MagicaVoxel @ Ephtracy

# group
o 

# material
mtllib SmallTrunk_LOD0.mtl
usemtl palette

# normals
vn -1 0 0
vn 1 0 0
vn 0 0 1
vn 0 0 -1
vn 0 -1 0
vn 0 1 0

# texcoords
vt 0.908203 0.5
vt 0.912109 0.5
vt 0.958984 0.5
vt 0.962891 0.5
vt 0.966797 0.5

# verts
v 0.2 0 -0.1
v 0.2 0 -0.3
v 0.2 0 -0.5
v 0.2 0.1 -0.1
v 0.2 0.1 -0.2
v 0.2 0.1 -0.3
v 0.2 0.1 -0.4
v 0.2 0.1 -0.5
v 0.2 0.2 -0.1
v 0.2 0.2 -0.2
v 0.2 0.2 -0.4
v 0.2 0.2 -0.5
v 0.2 0.3 -0.1
v 0.2 0.3 -0.2
v 0.2 0.3 -0.3
v 0.2 0.3 -0.4
v 0.2 0.3 -0.5
v 0.2 0.4 -0.3
v 0.2 0.4 -0.4
v 0.2 0.5 -0.2
v 0.2 0.5 -0.4
v 0.3 0.3 -0.1
v 0.3 0.3 -0.2
v 0.3 0.3 -0.4
v 0.3 0.3 -0.5
v 0.3 0.4 -0.1
v 0.3 0.4 -0.2
v 0.3 0.4 -0.4
v 0.3 0.4 -0.5
v 0.3 0.5 -0.2
v 0.3 0.5 -0.3
v 0.3 0.5 -0.4
v 0.3 0.5 -0.5
v 0.3 0.6 -0.2
v 0.3 0.6 -0.3
v 0.3 0.6 -0.4
v 0.3 0.7 -0.2
v 0.3 0.7 -0.3
v 0.3 0.7 -0.4
v 0.3 0.8 -0.2
v 0.3 0.8 -0.3
v 0.3 0.8 -0.4
v 0.4 0.4 -0.1
v 0.4 0.4 -0.2
v 0.4 0.5 -0.1
v 0.4 0.5 -0.2
v 0.4 0.4 -0.4
v 0.4 0.4 -0.5
v 0.4 0.5 -0.4
v 0.4 0.5 -0.5
v 0.5 0.3 -0.1
v 0.5 0.3 -0.2
v 0.5 0.3 -0.4
v 0.5 0.3 -0.5
v 0.5 0.4 -0.2
v 0.5 0.4 -0.3
v 0.5 0.4 -0.4
v 0.5 0.4 -0.5
v 0.5 0.5 -0.1
v 0.5 0.5 -0.2
v 0.5 0.5 -0.3
v 0.5 0.5 -0.4
v 0.5 0.6 -0.2
v 0.5 0.6 -0.3
v 0.5 0.7 -0.2
v 0.5 0.7 -0.4
v 0.5 0.8 -0.2
v 0.5 0.8 -0.4
v 0.6 0 -0.1
v 0.6 0 -0.4
v 0.6 0 -0.5
v 0.6 0.1 -0.1
v 0.6 0.1 -0.2
v 0.6 0.1 -0.3
v 0.6 0.1 -0.4
v 0.6 0.1 -0.5
v 0.6 0.2 -0.3
v 0.6 0.2 -0.4
v 0.6 0.2 -0.5
v 0.6 0.3 -0.1
v 0.6 0.3 -0.2
v 0.6 0.3 -0.3
v 0.6 0.3 -0.4
v 0.6 0.3 -0.5
v 0.6 0.4 -0.2
v 0.6 0.4 -0.3
v 0.6 0.4 -0.4
v 0.6 0.5 -0.2
v 0.6 0.5 -0.3
v 0.2 0 -0.1
v 0.2 0.1 -0.1
v 0.2 0.2 -0.1
v 0.2 0.3 -0.1
v 0.3 0 -0.1
v 0.3 0.1 -0.1
v 0.3 0.2 -0.1
v 0.3 0.3 -0.1
v 0.3 0.4 -0.1
v 0.4 0 -0.1
v 0.4 0.1 -0.1
v 0.4 0.2 -0.1
v 0.4 0.4 -0.1
v 0.4 0.5 -0.1
v 0.5 0.1 -0.1
v 0.5 0.2 -0.1
v 0.5 0.3 -0.1
v 0.5 0.5 -0.1
v 0.6 0 -0.1
v 0.6 0.1 -0.1
v 0.6 0.3 -0.1
v 0.2 0.3 -0.2
v 0.2 0.5 -0.2
v 0.3 0.3 -0.2
v 0.3 0.4 -0.2
v 0.3 0.5 -0.2
v 0.3 0.6 -0.2
v 0.3 0.7 -0.2
v 0.3 0.8 -0.2
v 0.4 0.4 -0.2
v 0.4 0.5 -0.2
v 0.4 0.6 -0.2
v 0.4 0.7 -0.2
v 0.4 0.8 -0.2
v 0.5 0.3 -0.2
v 0.5 0.4 -0.2
v 0.5 0.5 -0.2
v 0.5 0.6 -0.2
v 0.5 0.7 -0.2
v 0.5 0.8 -0.2
v 0.6 0.3 -0.2
v 0.6 0.4 -0.2
v 0.6 0.5 -0.2
v 0.5 0.4 -0.3
v 0.5 0.5 -0.3
v 0.6 0.4 -0.3
v 0.6 0.5 -0.3
v 0.2 0.3 -0.4
v 0.2 0.4 -0.4
v 0.2 0.5 -0.4
v 0.3 0.3 -0.4
v 0.3 0.4 -0.4
v 0.3 0.5 -0.4
v 0.3 0.6 -0.4
v 0.3 0.7 -0.4
v 0.3 0.8 -0.4
v 0.4 0.4 -0.4
v 0.4 0.5 -0.4
v 0.4 0.6 -0.4
v 0.5 0.3 -0.4
v 0.5 0.4 -0.4
v 0.5 0.5 -0.4
v 0.5 0.7 -0.4
v 0.5 0.8 -0.4
v 0.6 0.3 -0.4
v 0.6 0.4 -0.4
v 0.2 0 -0.5
v 0.2 0.1 -0.5
v 0.2 0.2 -0.5
v 0.2 0.3 -0.5
v 0.3 0 -0.5
v 0.3 0.1 -0.5
v 0.3 0.2 -0.5
v 0.3 0.3 -0.5
v 0.3 0.4 -0.5
v 0.3 0.5 -0.5
v 0.4 0 -0.5
v 0.4 0.1 -0.5
v 0.4 0.3 -0.5
v 0.4 0.4 -0.5
v 0.4 0.5 -0.5
v 0.5 0.1 -0.5
v 0.5 0.2 -0.5
v 0.5 0.3 -0.5
v 0.5 0.4 -0.5
v 0.6 0 -0.5
v 0.6 0.1 -0.5
v 0.6 0.2 -0.5
v 0.6 0.3 -0.5
v 0.2 0 -0.1
v 0.3 0 -0.1
v 0.4 0 -0.1
v 0.6 0 -0.1
v 0.3 0 -0.2
v 0.4 0 -0.2
v 0.2 0 -0.3
v 0.3 0 -0.3
v 0.4 0 -0.4
v 0.6 0 -0.4
v 0.2 0 -0.5
v 0.3 0 -0.5
v 0.4 0 -0.5
v 0.6 0 -0.5
v 0.2 0.3 -0.1
v 0.3 0.3 -0.1
v 0.5 0.3 -0.1
v 0.6 0.3 -0.1
v 0.2 0.3 -0.2
v 0.3 0.3 -0.2
v 0.5 0.3 -0.2
v 0.6 0.3 -0.2
v 0.2 0.3 -0.4
v 0.3 0.3 -0.4
v 0.5 0.3 -0.4
v 0.6 0.3 -0.4
v 0.2 0.3 -0.5
v 0.3 0.3 -0.5
v 0.5 0.3 -0.5
v 0.6 0.3 -0.5
v 0.3 0.4 -0.1
v 0.4 0.4 -0.1
v 0.3 0.4 -0.2
v 0.4 0.4 -0.2
v 0.5 0.4 -0.3
v 0.6 0.4 -0.3
v 0.4 0.4 -0.4
v 0.5 0.4 -0.4
v 0.6 0.4 -0.4
v 0.4 0.4 -0.5
v 0.5 0.4 -0.5
v 0.4 0.5 -0.1
v 0.5 0.5 -0.1
v 0.2 0.5 -0.2
v 0.3 0.5 -0.2
v 0.4 0.5 -0.2
v 0.5 0.5 -0.2
v 0.6 0.5 -0.2
v 0.3 0.5 -0.3
v 0.5 0.5 -0.3
v 0.6 0.5 -0.3
v 0.2 0.5 -0.4
v 0.3 0.5 -0.4
v 0.4 0.5 -0.4
v 0.3 0.5 -0.5
v 0.4 0.5 -0.5
v 0.3 0.8 -0.2
v 0.4 0.8 -0.2
v 0.5 0.8 -0.2
v 0.3 0.8 -0.3
v 0.4 0.8 -0.3
v 0.3 0.8 -0.4
v 0.5 0.8 -0.4

# faces
f 4/2/1 2/2/1 1/2/1
f 5/2/1 2/2/1 4/2/1
f 6/1/1 3/1/1 2/1/1
f 6/2/1 2/2/1 5/2/1
f 7/1/1 3/1/1 6/1/1
f 8/1/1 3/1/1 7/1/1
f 9/5/1 5/5/1 4/5/1
f 10/1/1 6/1/1 5/1/1
f 10/5/1 5/5/1 9/5/1
f 11/5/1 7/5/1 6/5/1
f 11/2/1 8/2/1 7/2/1
f 12/2/1 8/2/1 11/2/1
f 13/2/1 10/2/1 9/2/1
f 14/1/1 6/1/1 10/1/1
f 14/2/1 10/2/1 13/2/1
f 15/5/1 11/5/1 6/5/1
f 15/1/1 6/1/1 14/1/1
f 16/3/1 12/3/1 11/3/1
f 16/5/1 11/5/1 15/5/1
f 17/3/1 12/3/1 16/3/1
f 18/4/1 15/4/1 14/4/1
f 18/1/1 16/1/1 15/1/1
f 19/1/1 16/1/1 18/1/1
f 20/4/1 18/4/1 14/4/1
f 20/4/1 19/4/1 18/4/1
f 21/4/1 19/4/1 20/4/1
f 26/1/1 23/1/1 22/1/1
f 27/1/1 23/1/1 26/1/1
f 28/3/1 25/3/1 24/3/1
f 29/3/1 25/3/1 28/3/1
f 32/4/1 29/4/1 28/4/1
f 33/4/1 29/4/1 32/4/1
f 34/4/1 31/4/1 30/4/1
f 35/3/1 32/3/1 31/3/1
f 35/4/1 31/4/1 34/4/1
f 36/3/1 32/3/1 35/3/1
f 37/3/1 35/3/1 34/3/1
f 38/4/1 36/4/1 35/4/1
f 38/3/1 35/3/1 37/3/1
f 39/4/1 36/4/1 38/4/1
f 40/5/1 38/5/1 37/5/1
f 41/3/1 39/3/1 38/3/1
f 41/5/1 38/5/1 40/5/1
f 42/3/1 39/3/1 41/3/1
f 45/5/1 44/5/1 43/5/1
f 46/5/1 44/5/1 45/5/1
f 47/4/2 48/4/2 49/4/2
f 49/4/2 48/4/2 50/4/2
f 51/5/2 52/5/2 55/5/2
f 53/5/2 54/5/2 57/5/2
f 57/5/2 54/5/2 58/5/2
f 51/5/2 55/5/2 59/5/2
f 59/5/2 55/5/2 60/5/2
f 56/5/2 57/5/2 61/5/2
f 61/5/2 57/5/2 62/5/2
f 60/3/2 61/3/2 63/3/2
f 61/4/2 62/4/2 64/4/2
f 63/3/2 61/3/2 64/3/2
f 63/4/2 64/4/2 65/4/2
f 64/4/2 62/4/2 66/4/2
f 65/4/2 64/4/2 66/4/2
f 65/3/2 66/3/2 67/3/2
f 67/3/2 66/3/2 68/3/2
f 69/2/2 70/2/2 72/2/2
f 72/2/2 70/2/2 73/2/2
f 73/2/2 70/2/2 74/2/2
f 70/1/2 71/1/2 75/1/2
f 74/2/2 70/2/2 75/2/2
f 75/1/2 71/1/2 76/1/2
f 73/5/2 74/5/2 77/5/2
f 74/1/2 75/1/2 77/1/2
f 75/2/2 76/2/2 78/2/2
f 77/1/2 75/1/2 78/1/2
f 78/2/2 76/2/2 79/2/2
f 72/1/2 73/1/2 80/1/2
f 73/5/2 77/5/2 81/5/2
f 80/1/2 73/1/2 81/1/2
f 77/5/2 78/5/2 81/5/2
f 81/5/2 78/5/2 82/5/2
f 78/1/2 79/1/2 83/1/2
f 82/5/2 78/5/2 83/5/2
f 83/1/2 79/1/2 84/1/2
f 81/1/2 82/1/2 85/1/2
f 82/5/2 83/5/2 86/5/2
f 85/1/2 82/1/2 86/1/2
f 86/5/2 83/5/2 87/5/2
f 85/5/2 86/5/2 88/5/2
f 88/5/2 86/5/2 89/5/2
f 94/2/3 91/2/3 90/2/3
f 95/5/3 92/5/3 91/5/3
f 95/2/3 91/2/3 94/2/3
f 96/2/3 93/2/3 92/2/3
f 96/5/3 92/5/3 95/5/3
f 97/2/3 93/2/3 96/2/3
f 99/1/3 95/1/3 94/1/3
f 100/5/3 96/5/3 95/5/3
f 100/1/3 95/1/3 99/1/3
f 101/1/3 98/1/3 97/1/3
f 101/5/3 96/5/3 100/5/3
f 101/1/3 97/1/3 96/1/3
f 102/1/3 98/1/3 101/1/3
f 104/2/3 100/2/3 99/2/3
f 104/2/3 101/2/3 100/2/3
f 105/5/3 103/5/3 102/5/3
f 105/2/3 101/2/3 104/2/3
f 105/5/3 102/5/3 101/5/3
f 106/5/3 103/5/3 105/5/3
f 107/5/3 103/5/3 106/5/3
f 108/2/3 104/2/3 99/2/3
f 109/1/3 105/1/3 104/1/3
f 109/2/3 104/2/3 108/2/3
f 109/1/3 106/1/3 105/1/3
f 110/1/3 106/1/3 109/1/3
f 113/4/3 112/4/3 111/4/3
f 114/4/3 112/4/3 113/4/3
f 115/4/3 112/4/3 114/4/3
f 119/4/3 115/4/3 114/4/3
f 119/4/3 116/4/3 115/4/3
f 120/4/3 116/4/3 119/4/3
f 121/3/3 117/3/3 116/3/3
f 121/4/3 116/4/3 120/4/3
f 122/5/3 118/5/3 117/5/3
f 122/3/3 117/3/3 121/3/3
f 123/5/3 118/5/3 122/5/3
f 126/3/3 121/3/3 120/3/3
f 127/4/3 122/4/3 121/4/3
f 127/3/3 121/3/3 126/3/3
f 128/3/3 123/3/3 122/3/3
f 128/4/3 122/4/3 127/4/3
f 129/3/3 123/3/3 128/3/3
f 130/1/3 125/1/3 124/1/3
f 131/5/3 126/5/3 125/5/3
f 131/1/3 125/1/3 130/1/3
f 132/5/3 126/5/3 131/5/3
f 133/5/4 134/5/4 135/5/4
f 135/5/4 134/5/4 136/5/4
f 137/1/4 138/1/4 140/1/4
f 138/4/4 139/4/4 141/4/4
f 140/1/4 138/1/4 141/1/4
f 141/4/4 139/4/4 142/4/4
f 142/3/4 143/3/4 147/3/4
f 143/4/4 144/4/4 148/4/4
f 147/3/4 143/3/4 148/3/4
f 146/5/4 147/5/4 150/5/4
f 147/4/4 148/4/4 151/4/4
f 150/5/4 147/5/4 151/5/4
f 144/3/4 145/3/4 152/3/4
f 151/4/4 148/4/4 152/4/4
f 148/4/4 144/4/4 152/4/4
f 152/3/4 145/3/4 153/3/4
f 149/5/4 150/5/4 154/5/4
f 154/5/4 150/5/4 155/5/4
f 156/1/4 157/1/4 160/1/4
f 157/2/4 158/2/4 161/2/4
f 160/1/4 157/1/4 161/1/4
f 158/3/4 159/3/4 162/3/4
f 161/2/4 158/2/4 162/2/4
f 162/3/4 159/3/4 163/3/4
f 160/2/4 161/2/4 166/2/4
f 161/1/4 162/1/4 167/1/4
f 166/2/4 161/2/4 167/2/4
f 162/1/4 163/1/4 167/1/4
f 163/3/4 164/3/4 168/3/4
f 167/1/4 163/1/4 168/1/4
f 164/4/4 165/4/4 169/4/4
f 168/3/4 164/3/4 169/3/4
f 169/4/4 165/4/4 170/4/4
f 167/4/4 168/4/4 171/4/4
f 166/1/4 167/1/4 171/1/4
f 171/4/4 168/4/4 172/4/4
f 168/5/4 169/5/4 173/5/4
f 172/4/4 168/4/4 173/4/4
f 173/5/4 169/5/4 174/5/4
f 166/1/4 171/1/4 175/1/4
f 171/2/4 172/2/4 176/2/4
f 175/1/4 171/1/4 176/1/4
f 172/1/4 173/1/4 177/1/4
f 176/2/4 172/2/4 177/2/4
f 177/1/4 173/1/4 178/1/4
f 183/2/5 180/2/5 179/2/5
f 183/1/5 181/1/5 180/1/5
f 184/2/5 182/2/5 181/2/5
f 184/1/5 181/1/5 183/1/5
f 185/2/5 183/2/5 179/2/5
f 185/2/5 184/2/5 183/2/5
f 186/2/5 184/2/5 185/2/5
f 187/2/5 182/2/5 184/2/5
f 187/2/5 184/2/5 186/2/5
f 188/2/5 182/2/5 187/2/5
f 189/1/5 186/1/5 185/1/5
f 190/2/5 187/2/5 186/2/5
f 190/1/5 186/1/5 189/1/5
f 191/1/5 188/1/5 187/1/5
f 191/2/5 187/2/5 190/2/5
f 192/1/5 188/1/5 191/1/5
f 193/2/6 194/2/6 197/2/6
f 197/2/6 194/2/6 198/2/6
f 195/1/6 196/1/6 199/1/6
f 199/1/6 196/1/6 200/1/6
f 201/3/6 202/3/6 205/3/6
f 205/3/6 202/3/6 206/3/6
f 203/1/6 204/1/6 207/1/6
f 207/1/6 204/1/6 208/1/6
f 209/1/6 210/1/6 211/1/6
f 211/1/6 210/1/6 212/1/6
f 213/5/6 214/5/6 216/5/6
f 216/5/6 214/5/6 217/5/6
f 215/5/6 216/5/6 218/5/6
f 218/5/6 216/5/6 219/5/6
f 220/5/6 221/5/6 224/5/6
f 224/5/6 221/5/6 225/5/6
f 222/4/6 223/4/6 227/4/6
f 225/5/6 226/5/6 228/5/6
f 228/5/6 226/5/6 229/5/6
f 222/4/6 227/4/6 230/4/6
f 230/4/6 227/4/6 231/4/6
f 231/4/6 232/4/6 233/4/6
f 233/4/6 232/4/6 234/4/6
f 235/5/6 236/5/6 238/5/6
f 236/3/6 237/3/6 239/3/6
f 238/5/6 236/5/6 239/5/6
f 238/3/6 239/3/6 240/3/6
f 239/3/6 237/3/6 241/3/6
f 240/3/6 239/3/6 241/3/6
