# MagicaVoxel @ Ephtracy

# group
o 

# material
mtllib BigRock1_LOD0.mtl
usemtl palette

# normals
vn -1 0 0
vn 1 0 0
vn 0 0 1
vn 0 0 -1
vn 0 -1 0
vn 0 1 0

# texcoords
vt 0.939453 0.5
vt 0.986328 0.5
vt 0.990234 0.5
vt 0.994141 0.5

# verts
v -0.5 -0.1 0.4
v -0.5 -0.1 0.1
v -0.5 -0.1 0
v -0.5 -0.1 -0.1
v -0.5 0 0.4
v -0.5 0 0.3
v -0.5 0 0.1
v -0.5 0 0
v -0.5 0 -0.1
v -0.5 0.1 0.3
v -0.5 0.1 0.1
v -0.4 -0.1 0.5
v -0.4 -0.1 0.4
v -0.4 0 0.5
v -0.4 0 0.4
v -0.4 0 0.3
v -0.4 0 0.1
v -0.4 0 0
v -0.4 0 -0.1
v -0.4 0.1 0.4
v -0.4 0.1 0.3
v -0.4 0.1 0.2
v -0.4 0.1 0.1
v -0.4 0.1 0
v -0.4 0.1 -0.1
v -0.4 0.2 0.2
v -0.4 0.2 0.1
v -0.4 0.2 0
v -0.4 0.3 0.3
v -0.4 0.3 0.2
v -0.4 0.3 0.1
v -0.3 -0.1 -0.1
v -0.3 -0.1 -0.2
v -0.3 0 0.5
v -0.3 0 0.4
v -0.3 0 -0.1
v -0.3 0 -0.2
v -0.3 0.1 0.5
v -0.3 0.1 0.4
v -0.3 0.1 0
v -0.3 0.1 -0.1
v -0.3 0.1 -0.2
v -0.3 0.2 0.1
v -0.3 0.2 0
v -0.3 0.2 -0.1
v -0.3 0.3 0.2
v -0.3 0.3 0.1
v -0.3 0.3 0
v -0.3 0.4 0.2
v -0.3 0.4 0.1
v -0.2 -0.1 -0.2
v -0.2 -0.1 -0.3
v -0.2 0 -0.2
v -0.2 0 -0.3
v -0.2 0.1 0.4
v -0.2 0.1 0.3
v -0.2 0.2 0.4
v -0.2 0.2 0.3
v -0.1 0.1 0.5
v -0.1 0.1 0.4
v -0.1 0.2 0.5
v -0.1 0.2 0.4
v -0.1 0.2 0.3
v -0.1 0.3 0.4
v -0.1 0.3 0.3
v -0.1 0.3 0.2
v -0.1 0.4 0.3
v -0.1 0.4 0.2
v 0 -0.1 -0.3
v 0 -0.1 -0.4
v 0 0 -0.2
v 0 0 -0.3
v 0 0 -0.4
v 0 0.1 -0.1
v 0 0.1 -0.2
v 0 0.1 -0.3
v 0 0.2 0.5
v 0 0.2 0.4
v 0 0.2 -0.1
v 0 0.2 -0.2
v 0 0.3 0.5
v 0 0.3 0.4
v 0.1 0 -0.3
v 0.1 0 -0.4
v 0.1 0.1 -0.3
v 0.1 0.1 -0.4
v 0.2 0.1 -0.2
v 0.2 0.1 -0.3
v 0.2 0.2 -0.2
v 0.2 0.2 -0.3
v 0.1 0.1 0.5
v 0.1 0.1 0.4
v 0.1 0.2 0.4
v 0.1 0.2 0.3
v 0.1 0.3 0.5
v 0.1 0.3 0.3
v 0.1 0.3 0.2
v 0.1 0.4 0.3
v 0.1 0.4 0.2
v 0.2 0 0.5
v 0.2 0 0.4
v 0.2 0 0.3
v 0.2 0 -0.3
v 0.2 0 -0.4
v 0.2 0.1 0.5
v 0.2 0.1 0.4
v 0.2 0.1 0.3
v 0.2 0.1 -0.3
v 0.2 0.1 -0.4
v 0.2 0.2 0.4
v 0.2 0.2 0.3
v 0.2 0.2 0.2
v 0.2 0.2 0.1
v 0.2 0.2 0
v 0.2 0.3 0.3
v 0.2 0.3 0.2
v 0.2 0.3 0.1
v 0.2 0.3 0
v 0.2 0.4 0.2
v 0.2 0.4 0.1
v 0.3 -0.1 0.5
v 0.3 -0.1 0.3
v 0.3 -0.1 -0.1
v 0.3 -0.1 -0.2
v 0.3 -0.1 -0.4
v 0.3 0 0.5
v 0.3 0 0.3
v 0.3 0 0
v 0.3 0 -0.1
v 0.3 0 -0.2
v 0.3 0 -0.3
v 0.3 0 -0.4
v 0.3 0.1 0.3
v 0.3 0.1 0.2
v 0.3 0.1 0
v 0.3 0.1 -0.1
v 0.3 0.1 -0.2
v 0.3 0.2 0.3
v 0.3 0.2 0.2
v 0.3 0.2 0.1
v 0.3 0.2 0
v 0.3 0.2 -0.1
v 0.3 0.2 -0.3
v 0.3 0.3 0.2
v 0.3 0.3 0.1
v 0.4 -0.1 0.3
v 0.4 -0.1 0.1
v 0.4 -0.1 -0.1
v 0.4 0 0.3
v 0.4 0 0.1
v 0.4 0 0
v 0.4 0 -0.1
v 0.4 0.1 0.3
v 0.4 0.1 0.2
v 0.4 0.1 0.1
v 0.4 0.1 0
v 0.4 0.2 0.2
v 0.4 0.2 0
v -0.4 -0.1 0.5
v -0.4 0 0.5
v -0.3 0 0.5
v -0.3 0.1 0.5
v -0.1 -0.1 0.5
v -0.1 0 0.5
v -0.1 0.1 0.5
v -0.1 0.2 0.5
v 0 0 0.5
v 0 0.1 0.5
v 0 0.2 0.5
v 0 0.3 0.5
v 0.1 -0.1 0.5
v 0.1 0 0.5
v 0.1 0.1 0.5
v 0.1 0.3 0.5
v 0.2 0 0.5
v 0.2 0.1 0.5
v 0.3 -0.1 0.5
v 0.3 0 0.5
v -0.5 -0.1 0.4
v -0.5 0 0.4
v -0.4 -0.1 0.4
v -0.4 0 0.4
v -0.4 0.1 0.4
v -0.3 0 0.4
v -0.3 0.1 0.4
v -0.2 0.1 0.4
v -0.2 0.2 0.4
v -0.1 0.1 0.4
v -0.1 0.2 0.4
v -0.1 0.3 0.4
v 0 0.2 0.4
v 0 0.3 0.4
v 0.1 0.1 0.4
v 0.1 0.2 0.4
v 0.2 0.1 0.4
v 0.2 0.2 0.4
v -0.5 0 0.3
v -0.5 0.1 0.3
v -0.4 0 0.3
v -0.4 0.1 0.3
v -0.4 0.3 0.3
v -0.3 0.1 0.3
v -0.3 0.3 0.3
v -0.2 0.1 0.3
v -0.2 0.2 0.3
v -0.2 0.3 0.3
v -0.1 0.2 0.3
v -0.1 0.3 0.3
v -0.1 0.4 0.3
v 0 0.3 0.3
v 0 0.4 0.3
v 0.1 0.2 0.3
v 0.1 0.3 0.3
v 0.1 0.4 0.3
v 0.2 0 0.3
v 0.2 0.1 0.3
v 0.2 0.2 0.3
v 0.2 0.3 0.3
v 0.3 -0.1 0.3
v 0.3 0 0.3
v 0.3 0.1 0.3
v 0.3 0.2 0.3
v 0.4 -0.1 0.3
v 0.4 0 0.3
v 0.4 0.1 0.3
v -0.3 0.3 0.2
v -0.3 0.4 0.2
v -0.2 0.3 0.2
v -0.2 0.4 0.2
v -0.1 0.3 0.2
v -0.1 0.4 0.2
v 0.1 0.3 0.2
v 0.1 0.4 0.2
v 0.2 0.2 0.2
v 0.2 0.3 0.2
v 0.2 0.4 0.2
v 0.3 0.1 0.2
v 0.3 0.2 0.2
v 0.3 0.3 0.2
v 0.4 0.1 0.2
v 0.4 0.2 0.2
v -0.5 0 0.1
v -0.5 0.1 0.1
v -0.4 0 0.1
v -0.4 0.1 0.1
v -0.4 0.2 0.1
v -0.4 0.3 0.1
v -0.3 0.2 0.1
v -0.3 0.3 0.1
v -0.3 0.4 0.1
v -0.2 0.3 0.1
v -0.2 0.4 0.1
v -0.1 0.3 0.1
v 0 0.3 0.1
v 0 0.4 0.1
v 0.1 0.3 0.1
v 0.1 0.4 0.1
v 0.2 0.2 0.1
v 0.2 0.3 0.1
v 0.2 0.4 0.1
v 0.3 0.2 0.1
v 0.3 0.3 0.1
v -0.4 0.1 0
v -0.4 0.2 0
v -0.3 0.1 0
v -0.3 0.2 0
v -0.3 0.3 0
v -0.2 0.2 0
v -0.1 0.2 0
v -0.1 0.3 0
v 0 0.2 0
v 0 0.3 0
v 0.1 0.2 0
v 0.1 0.3 0
v 0.2 0.2 0
v 0.2 0.3 0
v 0.3 0 0
v 0.3 0.1 0
v 0.3 0.2 0
v 0.4 0 0
v 0.4 0.1 0
v 0.4 0.2 0
v -0.5 -0.1 -0.1
v -0.5 0 -0.1
v -0.4 0 -0.1
v -0.4 0.1 -0.1
v -0.3 -0.1 -0.1
v -0.3 0 -0.1
v -0.3 0.1 -0.1
v -0.3 0.2 -0.1
v -0.2 0.1 -0.1
v -0.2 0.2 -0.1
v -0.1 0.1 -0.1
v -0.1 0.2 -0.1
v 0 0.1 -0.1
v 0 0.2 -0.1
v 0.3 -0.1 -0.1
v 0.3 0 -0.1
v 0.4 -0.1 -0.1
v 0.4 0 -0.1
v -0.3 -0.1 -0.2
v -0.3 0 -0.2
v -0.3 0.1 -0.2
v -0.2 -0.1 -0.2
v -0.2 0 -0.2
v -0.1 0 -0.2
v -0.1 0.1 -0.2
v 0 0 -0.2
v 0 0.1 -0.2
v 0 0.2 -0.2
v 0.2 0.1 -0.2
v 0.2 0.2 -0.2
v -0.2 -0.1 -0.3
v -0.2 0 -0.3
v -0.1 -0.1 -0.3
v -0.1 0 -0.3
v 0 -0.1 -0.3
v 0 0 -0.3
v 0 0.1 -0.3
v 0.1 0 -0.3
v 0.1 0.1 -0.3
v 0.2 0 -0.3
v 0.2 0.1 -0.3
v 0.2 0.2 -0.3
v 0.3 0 -0.3
v 0.3 0.2 -0.3
v 0 -0.1 -0.4
v 0 0 -0.4
v 0.1 -0.1 -0.4
v 0.1 0 -0.4
v 0.1 0.1 -0.4
v 0.2 -0.1 -0.4
v 0.2 0 -0.4
v 0.2 0.1 -0.4
v 0.3 -0.1 -0.4
v 0.3 0 -0.4
v -0.4 -0.1 0.5
v -0.1 -0.1 0.5
v 0.1 -0.1 0.5
v 0.3 -0.1 0.5
v -0.5 -0.1 0.4
v -0.4 -0.1 0.4
v -0.2 -0.1 0.4
v -0.1 -0.1 0.4
v 0.1 -0.1 0.4
v -0.3 -0.1 0.3
v -0.2 -0.1 0.3
v -0.1 -0.1 0.3
v 0 -0.1 0.3
v 0.3 -0.1 0.3
v 0.4 -0.1 0.3
v -0.4 -0.1 0.2
v -0.3 -0.1 0.2
v -0.2 -0.1 0.2
v -0.1 -0.1 0.2
v 0.1 -0.1 0.2
v 0.3 -0.1 0.2
v -0.5 -0.1 0.1
v -0.4 -0.1 0.1
v -0.2 -0.1 0.1
v 0 -0.1 0.1
v 0.1 -0.1 0.1
v 0.2 -0.1 0.1
v 0.4 -0.1 0.1
v -0.5 -0.1 0
v -0.4 -0.1 0
v -0.5 -0.1 -0.1
v -0.3 -0.1 -0.1
v -0.2 -0.1 -0.1
v -0.1 -0.1 -0.1
v 0 -0.1 -0.1
v 0.1 -0.1 -0.1
v 0.2 -0.1 -0.1
v 0.3 -0.1 -0.1
v 0.4 -0.1 -0.1
v -0.3 -0.1 -0.2
v -0.2 -0.1 -0.2
v -0.1 -0.1 -0.2
v 0 -0.1 -0.2
v 0.2 -0.1 -0.2
v 0.3 -0.1 -0.2
v -0.2 -0.1 -0.3
v -0.1 -0.1 -0.3
v 0 -0.1 -0.3
v 0 -0.1 -0.4
v 0.1 -0.1 -0.4
v 0.2 -0.1 -0.4
v 0.3 -0.1 -0.4
v -0.4 0 0.5
v -0.3 0 0.5
v 0.2 0 0.5
v 0.3 0 0.5
v -0.5 0 0.4
v -0.4 0 0.4
v -0.3 0 0.4
v 0.2 0 0.4
v -0.5 0 0.3
v -0.4 0 0.3
v 0.2 0 0.3
v 0.3 0 0.3
v -0.5 0 0.1
v -0.4 0 0.1
v -0.5 0 0
v -0.4 0 0
v 0.3 0 0
v 0.4 0 0
v -0.5 0 -0.1
v -0.4 0 -0.1
v 0.3 0 -0.1
v 0.4 0 -0.1
v -0.2 0 -0.2
v -0.1 0 -0.2
v 0 0 -0.2
v -0.2 0 -0.3
v -0.1 0 -0.3
v 0 0 -0.3
v 0.1 0 -0.3
v 0.2 0 -0.3
v 0.3 0 -0.3
v 0 0 -0.4
v 0.1 0 -0.4
v 0.2 0 -0.4
v 0.3 0 -0.4
v -0.3 0.1 0.5
v -0.1 0.1 0.5
v 0.1 0.1 0.5
v 0.2 0.1 0.5
v -0.4 0.1 0.4
v -0.3 0.1 0.4
v -0.2 0.1 0.4
v -0.1 0.1 0.4
v 0.1 0.1 0.4
v 0.2 0.1 0.4
v -0.5 0.1 0.3
v -0.4 0.1 0.3
v -0.3 0.1 0.3
v -0.2 0.1 0.3
v 0.3 0.1 0.3
v 0.4 0.1 0.3
v -0.4 0.1 0.2
v 0.3 0.1 0.2
v 0.4 0.1 0.2
v -0.5 0.1 0.1
v -0.4 0.1 0.1
v -0.4 0.1 0
v -0.3 0.1 0
v -0.4 0.1 -0.1
v -0.3 0.1 -0.1
v -0.2 0.1 -0.1
v -0.1 0.1 -0.1
v 0 0.1 -0.1
v -0.3 0.1 -0.2
v -0.1 0.1 -0.2
v 0 0.1 -0.2
v 0.2 0.1 -0.2
v 0 0.1 -0.3
v 0.1 0.1 -0.3
v 0.2 0.1 -0.3
v 0.1 0.1 -0.4
v 0.2 0.1 -0.4
v -0.1 0.2 0.5
v 0 0.2 0.5
v -0.2 0.2 0.4
v -0.1 0.2 0.4
v 0 0.2 0.4
v 0.1 0.2 0.4
v 0.2 0.2 0.4
v -0.2 0.2 0.3
v -0.1 0.2 0.3
v 0.1 0.2 0.3
v 0.2 0.2 0.3
v 0.3 0.2 0.3
v 0.2 0.2 0.2
v 0.3 0.2 0.2
v 0.4 0.2 0.2
v -0.4 0.2 0.1
v -0.3 0.2 0.1
v 0.2 0.2 0.1
v 0.3 0.2 0.1
v -0.4 0.2 0
v -0.3 0.2 0
v -0.2 0.2 0
v -0.1 0.2 0
v 0 0.2 0
v 0.1 0.2 0
v 0.2 0.2 0
v 0.3 0.2 0
v 0.4 0.2 0
v -0.3 0.2 -0.1
v -0.2 0.2 -0.1
v -0.1 0.2 -0.1
v 0 0.2 -0.1
v 0.1 0.2 -0.1
v 0.2 0.2 -0.1
v 0.3 0.2 -0.1
v 0 0.2 -0.2
v 0.2 0.2 -0.2
v 0.2 0.2 -0.3
v 0.3 0.2 -0.3
v 0 0.3 0.5
v 0.1 0.3 0.5
v -0.1 0.3 0.4
v 0 0.3 0.4
v -0.4 0.3 0.3
v -0.3 0.3 0.3
v -0.2 0.3 0.3
v -0.1 0.3 0.3
v 0 0.3 0.3
v 0.1 0.3 0.3
v 0.2 0.3 0.3
v -0.4 0.3 0.2
v -0.3 0.3 0.2
v -0.2 0.3 0.2
v -0.1 0.3 0.2
v 0.1 0.3 0.2
v 0.2 0.3 0.2
v 0.3 0.3 0.2
v -0.4 0.3 0.1
v -0.3 0.3 0.1
v -0.2 0.3 0.1
v -0.1 0.3 0.1
v 0 0.3 0.1
v 0.1 0.3 0.1
v 0.2 0.3 0.1
v 0.3 0.3 0.1
v -0.3 0.3 0
v -0.1 0.3 0
v 0 0.3 0
v 0.1 0.3 0
v 0.2 0.3 0
v -0.1 0.4 0.3
v 0 0.4 0.3
v 0.1 0.4 0.3
v -0.3 0.4 0.2
v -0.2 0.4 0.2
v -0.1 0.4 0.2
v 0 0.4 0.2
v 0.1 0.4 0.2
v 0.2 0.4 0.2
v -0.3 0.4 0.1
v -0.2 0.4 0.1
v 0 0.4 0.1
v 0.1 0.4 0.1
v 0.2 0.4 0.1

# faces
f 5/1/1 2/1/1 1/1/1
f 6/1/1 2/1/1 5/1/1
f 7/4/1 3/4/1 2/4/1
f 7/1/1 2/1/1 6/1/1
f 8/1/1 4/1/1 3/1/1
f 8/4/1 3/4/1 7/4/1
f 9/1/1 4/1/1 8/1/1
f 10/1/1 7/1/1 6/1/1
f 11/1/1 7/1/1 10/1/1
f 14/1/1 13/1/1 12/1/1
f 15/1/1 13/1/1 14/1/1
f 20/1/1 16/1/1 15/1/1
f 21/1/1 16/1/1 20/1/1
f 23/4/1 19/4/1 18/4/1
f 23/4/1 18/4/1 17/4/1
f 24/4/1 19/4/1 23/4/1
f 25/4/1 19/4/1 24/4/1
f 26/4/1 22/4/1 21/4/1
f 26/3/1 24/3/1 23/3/1
f 26/3/1 23/3/1 22/3/1
f 27/3/1 24/3/1 26/3/1
f 28/3/1 24/3/1 27/3/1
f 29/4/1 26/4/1 21/4/1
f 30/1/1 27/1/1 26/1/1
f 30/4/1 26/4/1 29/4/1
f 31/1/1 27/1/1 30/1/1
f 36/1/1 33/1/1 32/1/1
f 37/1/1 33/1/1 36/1/1
f 38/4/1 35/4/1 34/4/1
f 39/4/1 35/4/1 38/4/1
f 41/4/1 37/4/1 36/4/1
f 42/4/1 37/4/1 41/4/1
f 44/4/1 41/4/1 40/4/1
f 45/4/1 41/4/1 44/4/1
f 47/3/1 44/3/1 43/3/1
f 48/3/1 44/3/1 47/3/1
f 49/3/1 47/3/1 46/3/1
f 50/3/1 47/3/1 49/3/1
f 53/4/1 52/4/1 51/4/1
f 54/4/1 52/4/1 53/4/1
f 57/4/1 56/4/1 55/4/1
f 58/4/1 56/4/1 57/4/1
f 61/3/1 60/3/1 59/3/1
f 62/3/1 60/3/1 61/3/1
f 64/4/1 63/4/1 62/4/1
f 65/4/1 63/4/1 64/4/1
f 67/3/1 66/3/1 65/3/1
f 68/3/1 66/3/1 67/3/1
f 72/1/1 70/1/1 69/1/1
f 73/1/1 70/1/1 72/1/1
f 75/4/1 72/4/1 71/4/1
f 76/4/1 72/4/1 75/4/1
f 79/4/1 75/4/1 74/4/1
f 80/4/1 75/4/1 79/4/1
f 81/3/1 78/3/1 77/3/1
f 82/3/1 78/3/1 81/3/1
f 85/4/1 84/4/1 83/4/1
f 86/4/1 84/4/1 85/4/1
f 89/1/1 88/1/1 87/1/1
f 90/1/1 88/1/1 89/1/1
f 91/3/2 92/3/2 93/3/2
f 91/3/2 93/3/2 95/3/2
f 93/3/2 94/3/2 95/3/2
f 95/3/2 94/3/2 96/3/2
f 96/2/2 97/2/2 98/2/2
f 98/2/2 97/2/2 99/2/2
f 100/4/2 101/4/2 105/4/2
f 101/1/2 102/1/2 106/1/2
f 105/4/2 101/4/2 106/4/2
f 106/1/2 102/1/2 107/1/2
f 103/4/2 104/4/2 108/4/2
f 108/4/2 104/4/2 109/4/2
f 106/4/2 107/4/2 110/4/2
f 110/4/2 107/4/2 111/4/2
f 111/3/2 112/3/2 115/3/2
f 115/3/2 112/3/2 116/3/2
f 113/4/2 114/4/2 117/4/2
f 117/4/2 114/4/2 118/4/2
f 116/2/2 117/2/2 119/2/2
f 119/2/2 117/2/2 120/2/2
f 121/1/2 122/1/2 126/1/2
f 126/1/2 122/1/2 127/1/2
f 123/4/2 124/4/2 129/4/2
f 124/1/2 125/1/2 130/1/2
f 129/4/2 124/4/2 130/4/2
f 130/1/2 125/1/2 131/1/2
f 131/1/2 125/1/2 132/1/2
f 128/4/2 129/4/2 135/4/2
f 129/3/2 130/3/2 136/3/2
f 135/4/2 129/4/2 136/4/2
f 130/1/2 131/1/2 137/1/2
f 136/3/2 130/3/2 137/3/2
f 133/4/2 134/4/2 138/4/2
f 138/4/2 134/4/2 139/4/2
f 135/3/2 136/3/2 141/3/2
f 136/1/2 137/1/2 142/1/2
f 141/3/2 136/3/2 142/3/2
f 137/1/2 131/1/2 143/1/2
f 142/1/2 137/1/2 143/1/2
f 139/3/2 140/3/2 144/3/2
f 144/3/2 140/3/2 145/3/2
f 146/4/2 147/4/2 149/4/2
f 147/1/2 148/1/2 150/1/2
f 149/4/2 147/4/2 150/4/2
f 150/1/2 148/1/2 151/1/2
f 151/1/2 148/1/2 152/1/2
f 149/3/2 150/3/2 153/3/2
f 153/3/2 150/3/2 154/3/2
f 150/1/2 151/1/2 155/1/2
f 154/3/2 150/3/2 155/3/2
f 155/1/2 151/1/2 156/1/2
f 154/4/2 155/4/2 157/4/2
f 155/4/2 156/4/2 157/4/2
f 157/4/2 156/4/2 158/4/2
f 161/1/3 160/1/3 159/1/3
f 163/1/3 161/1/3 159/1/3
f 164/4/3 162/4/3 161/4/3
f 164/1/3 161/1/3 163/1/3
f 165/4/3 162/4/3 164/4/3
f 167/4/3 164/4/3 163/4/3
f 167/3/3 166/3/3 165/3/3
f 167/3/3 165/3/3 164/3/3
f 168/3/3 166/3/3 167/3/3
f 169/3/3 166/3/3 168/3/3
f 171/4/3 167/4/3 163/4/3
f 171/4/3 168/4/3 167/4/3
f 172/4/3 168/4/3 171/4/3
f 173/3/3 170/3/3 169/3/3
f 173/4/3 168/4/3 172/4/3
f 173/3/3 169/3/3 168/3/3
f 174/3/3 170/3/3 173/3/3
f 175/1/3 172/1/3 171/1/3
f 175/4/3 173/4/3 172/4/3
f 176/4/3 173/4/3 175/4/3
f 177/1/3 175/1/3 171/1/3
f 178/1/3 175/1/3 177/1/3
f 181/1/3 180/1/3 179/1/3
f 182/1/3 180/1/3 181/1/3
f 184/1/3 183/1/3 182/1/3
f 185/1/3 183/1/3 184/1/3
f 188/4/3 187/4/3 186/4/3
f 189/4/3 187/4/3 188/4/3
f 191/4/3 190/4/3 189/4/3
f 192/4/3 190/4/3 191/4/3
f 195/4/3 194/4/3 193/4/3
f 196/4/3 194/4/3 195/4/3
f 199/1/3 198/1/3 197/1/3
f 200/1/3 198/1/3 199/1/3
f 202/4/3 201/4/3 200/4/3
f 203/4/3 201/4/3 202/4/3
f 204/3/3 203/3/3 202/3/3
f 205/3/3 203/3/3 204/3/3
f 206/3/3 203/3/3 205/3/3
f 207/2/3 206/2/3 205/2/3
f 208/2/3 206/2/3 207/2/3
f 210/3/3 209/3/3 208/3/3
f 211/3/3 209/3/3 210/3/3
f 213/2/3 211/2/3 210/2/3
f 214/2/3 211/2/3 213/2/3
f 217/3/3 213/3/3 212/3/3
f 218/3/3 213/3/3 217/3/3
f 220/1/3 216/1/3 215/1/3
f 221/4/3 217/4/3 216/4/3
f 221/1/3 216/1/3 220/1/3
f 222/4/3 217/4/3 221/4/3
f 223/4/3 220/4/3 219/4/3
f 224/3/3 221/3/3 220/3/3
f 224/4/3 220/4/3 223/4/3
f 225/3/3 221/3/3 224/3/3
f 228/3/3 227/3/3 226/3/3
f 229/3/3 227/3/3 228/3/3
f 230/2/3 229/2/3 228/2/3
f 231/2/3 229/2/3 230/2/3
f 235/2/3 233/2/3 232/2/3
f 236/2/3 233/2/3 235/2/3
f 238/3/3 235/3/3 234/3/3
f 239/3/3 235/3/3 238/3/3
f 240/4/3 238/4/3 237/4/3
f 241/4/3 238/4/3 240/4/3
f 242/1/4 243/1/4 244/1/4
f 244/1/4 243/1/4 245/1/4
f 246/1/4 247/1/4 248/1/4
f 248/1/4 247/1/4 249/1/4
f 249/3/4 250/3/4 251/3/4
f 251/3/4 250/3/4 252/3/4
f 251/2/4 252/2/4 253/2/4
f 253/2/4 252/2/4 254/2/4
f 254/2/4 252/2/4 255/2/4
f 254/3/4 255/3/4 256/3/4
f 256/3/4 255/3/4 257/3/4
f 256/2/4 257/2/4 259/2/4
f 259/2/4 257/2/4 260/2/4
f 258/3/4 259/3/4 261/3/4
f 261/3/4 259/3/4 262/3/4
f 263/3/4 264/3/4 265/3/4
f 265/3/4 264/3/4 266/3/4
f 266/3/4 267/3/4 268/3/4
f 268/3/4 267/3/4 269/3/4
f 269/3/4 267/3/4 270/3/4
f 269/2/4 270/2/4 271/2/4
f 271/2/4 270/2/4 272/2/4
f 271/3/4 272/3/4 273/3/4
f 273/3/4 272/3/4 274/3/4
f 273/4/4 274/4/4 275/4/4
f 275/4/4 274/4/4 276/4/4
f 277/1/4 278/1/4 280/1/4
f 278/4/4 279/4/4 281/4/4
f 280/1/4 278/1/4 281/1/4
f 281/4/4 279/4/4 282/4/4
f 283/1/4 284/1/4 285/1/4
f 283/1/4 285/1/4 287/1/4
f 285/4/4 286/4/4 288/4/4
f 287/1/4 285/1/4 288/1/4
f 288/4/4 286/4/4 289/4/4
f 289/4/4 290/4/4 291/4/4
f 291/4/4 290/4/4 292/4/4
f 291/3/4 292/3/4 293/3/4
f 293/3/4 292/3/4 294/3/4
f 293/4/4 294/4/4 295/4/4
f 295/4/4 294/4/4 296/4/4
f 297/1/4 298/1/4 299/1/4
f 299/1/4 298/1/4 300/1/4
f 301/1/4 302/1/4 304/1/4
f 302/4/4 303/4/4 305/4/4
f 304/1/4 302/1/4 305/1/4
f 305/4/4 303/4/4 306/4/4
f 306/4/4 303/4/4 307/4/4
f 306/1/4 307/1/4 308/1/4
f 308/1/4 307/1/4 309/1/4
f 309/4/4 310/4/4 311/4/4
f 311/4/4 310/4/4 312/4/4
f 313/4/4 314/4/4 315/4/4
f 315/4/4 314/4/4 316/4/4
f 315/1/4 316/1/4 317/1/4
f 317/1/4 316/1/4 318/1/4
f 318/4/4 319/4/4 320/4/4
f 320/4/4 319/4/4 321/4/4
f 322/1/4 323/1/4 325/1/4
f 323/1/4 324/1/4 325/1/4
f 325/1/4 324/1/4 326/1/4
f 327/1/4 328/1/4 329/1/4
f 329/1/4 328/1/4 330/1/4
f 329/4/4 330/4/4 332/4/4
f 330/4/4 331/4/4 332/4/4
f 332/4/4 331/4/4 333/4/4
f 333/4/4 331/4/4 334/4/4
f 332/1/4 333/1/4 335/1/4
f 335/1/4 333/1/4 336/1/4
f 342/1/5 338/1/5 337/1/5
f 343/1/5 338/1/5 342/1/5
f 344/4/5 339/4/5 338/4/5
f 344/1/5 338/1/5 343/1/5
f 345/1/5 340/1/5 339/1/5
f 345/4/5 339/4/5 344/4/5
f 346/1/5 343/1/5 342/1/5
f 346/1/5 342/1/5 341/1/5
f 347/4/5 344/4/5 343/4/5
f 347/1/5 343/1/5 346/1/5
f 348/1/5 345/1/5 344/1/5
f 348/4/5 344/4/5 347/4/5
f 349/1/5 345/1/5 348/1/5
f 350/1/5 340/1/5 345/1/5
f 350/1/5 345/1/5 349/1/5
f 352/1/5 346/1/5 341/1/5
f 353/4/5 349/4/5 348/4/5
f 353/1/5 346/1/5 352/1/5
f 353/4/5 347/4/5 346/4/5
f 353/4/5 348/4/5 347/4/5
f 354/4/5 349/4/5 353/4/5
f 355/4/5 349/4/5 354/4/5
f 356/1/5 350/1/5 349/1/5
f 357/4/5 351/4/5 350/4/5
f 357/1/5 350/1/5 356/1/5
f 358/1/5 352/1/5 341/1/5
f 359/4/5 353/4/5 352/4/5
f 359/1/5 352/1/5 358/1/5
f 359/4/5 354/4/5 353/4/5
f 360/1/5 355/1/5 354/1/5
f 360/4/5 354/4/5 359/4/5
f 361/1/5 356/1/5 349/1/5
f 361/4/5 349/4/5 355/4/5
f 362/4/5 357/4/5 356/4/5
f 362/1/5 356/1/5 361/1/5
f 363/4/5 357/4/5 362/4/5
f 364/4/5 351/4/5 357/4/5
f 364/4/5 357/4/5 363/4/5
f 365/4/5 359/4/5 358/4/5
f 366/1/5 360/1/5 359/1/5
f 366/4/5 359/4/5 365/4/5
f 367/1/5 366/1/5 365/1/5
f 368/1/5 360/1/5 366/1/5
f 368/1/5 366/1/5 367/1/5
f 369/1/5 355/1/5 360/1/5
f 369/1/5 360/1/5 368/1/5
f 370/4/5 363/4/5 362/4/5
f 370/1/5 355/1/5 369/1/5
f 370/4/5 361/4/5 355/4/5
f 370/4/5 362/4/5 361/4/5
f 371/4/5 363/4/5 370/4/5
f 372/4/5 363/4/5 371/4/5
f 373/1/5 364/1/5 363/1/5
f 373/4/5 363/4/5 372/4/5
f 374/1/5 364/1/5 373/1/5
f 375/1/5 364/1/5 374/1/5
f 376/1/5 369/1/5 368/1/5
f 377/4/5 370/4/5 369/4/5
f 377/1/5 369/1/5 376/1/5
f 377/4/5 371/4/5 370/4/5
f 378/4/5 371/4/5 377/4/5
f 379/1/5 372/1/5 371/1/5
f 379/4/5 371/4/5 378/4/5
f 380/4/5 374/4/5 373/4/5
f 380/4/5 373/4/5 372/4/5
f 381/4/5 374/4/5 380/4/5
f 382/4/5 378/4/5 377/4/5
f 383/1/5 379/1/5 378/1/5
f 383/4/5 378/4/5 382/4/5
f 384/1/5 372/1/5 379/1/5
f 384/1/5 379/1/5 383/1/5
f 385/1/5 372/1/5 384/1/5
f 386/4/5 380/4/5 372/4/5
f 386/1/5 372/1/5 385/1/5
f 387/1/5 381/1/5 380/1/5
f 387/4/5 380/4/5 386/4/5
f 388/1/5 381/1/5 387/1/5
f 389/1/6 390/1/6 394/1/6
f 394/1/6 390/1/6 395/1/6
f 391/1/6 392/1/6 396/1/6
f 393/1/6 394/1/6 397/1/6
f 397/1/6 394/1/6 398/1/6
f 396/1/6 392/1/6 399/1/6
f 399/1/6 392/1/6 400/1/6
f 401/4/6 402/4/6 403/4/6
f 403/4/6 402/4/6 404/4/6
f 403/1/6 404/1/6 407/1/6
f 407/1/6 404/1/6 408/1/6
f 405/1/6 406/1/6 409/1/6
f 409/1/6 406/1/6 410/1/6
f 411/4/6 412/4/6 414/4/6
f 412/1/6 413/1/6 415/1/6
f 414/4/6 412/4/6 415/4/6
f 415/1/6 413/1/6 416/1/6
f 416/1/6 417/1/6 420/1/6
f 420/1/6 417/1/6 421/1/6
f 418/1/6 419/1/6 422/1/6
f 422/1/6 419/1/6 423/1/6
f 424/4/6 425/4/6 429/4/6
f 429/4/6 425/4/6 430/4/6
f 430/4/6 425/4/6 431/4/6
f 426/4/6 427/4/6 432/4/6
f 432/4/6 427/4/6 433/4/6
f 428/1/6 429/1/6 435/1/6
f 429/1/6 430/1/6 435/1/6
f 435/1/6 430/1/6 436/1/6
f 436/1/6 430/1/6 437/1/6
f 434/1/6 435/1/6 440/1/6
f 438/3/6 439/3/6 441/3/6
f 441/3/6 439/3/6 442/3/6
f 434/1/6 440/1/6 443/1/6
f 443/1/6 440/1/6 444/1/6
f 445/4/6 446/4/6 447/4/6
f 447/4/6 446/4/6 448/4/6
f 448/4/6 449/4/6 452/4/6
f 449/4/6 450/4/6 452/4/6
f 450/1/6 451/1/6 453/1/6
f 452/4/6 450/4/6 453/4/6
f 453/1/6 451/1/6 454/1/6
f 454/4/6 455/4/6 456/4/6
f 456/4/6 455/4/6 457/4/6
f 457/4/6 455/4/6 458/4/6
f 457/4/6 458/4/6 459/4/6
f 459/4/6 458/4/6 460/4/6
f 461/3/6 462/3/6 464/3/6
f 464/3/6 462/3/6 465/3/6
f 463/4/6 464/4/6 468/4/6
f 468/4/6 464/4/6 469/4/6
f 466/4/6 467/4/6 470/4/6
f 470/4/6 467/4/6 471/4/6
f 471/4/6 472/4/6 473/4/6
f 473/4/6 472/4/6 474/4/6
f 474/4/6 475/4/6 479/4/6
f 476/3/6 477/3/6 480/3/6
f 480/3/6 477/3/6 481/3/6
f 478/3/6 479/3/6 486/3/6
f 479/4/6 475/4/6 487/4/6
f 486/3/6 479/3/6 487/3/6
f 487/4/6 475/4/6 488/4/6
f 481/4/6 482/4/6 489/4/6
f 482/3/6 483/3/6 490/3/6
f 489/4/6 482/4/6 490/4/6
f 483/4/6 484/4/6 491/4/6
f 490/3/6 483/3/6 491/3/6
f 484/3/6 485/3/6 492/3/6
f 491/4/6 484/4/6 492/4/6
f 485/4/6 486/4/6 493/4/6
f 492/3/6 485/3/6 493/3/6
f 486/3/6 487/3/6 494/3/6
f 493/4/6 486/4/6 494/4/6
f 494/3/6 487/3/6 495/3/6
f 492/4/6 493/4/6 496/4/6
f 493/4/6 494/4/6 496/4/6
f 494/1/6 495/1/6 497/1/6
f 496/4/6 494/4/6 497/4/6
f 497/1/6 495/1/6 498/1/6
f 498/1/6 495/1/6 499/1/6
f 500/3/6 501/3/6 503/3/6
f 502/4/6 503/4/6 507/4/6
f 503/3/6 501/3/6 508/3/6
f 507/4/6 503/4/6 508/4/6
f 508/3/6 501/3/6 509/3/6
f 504/4/6 505/4/6 511/4/6
f 505/3/6 506/3/6 512/3/6
f 511/4/6 505/4/6 512/4/6
f 506/2/6 507/2/6 513/2/6
f 512/3/6 506/3/6 513/3/6
f 513/2/6 507/2/6 514/2/6
f 509/3/6 510/3/6 515/3/6
f 515/3/6 510/3/6 516/3/6
f 511/1/6 512/1/6 518/1/6
f 518/1/6 512/1/6 519/1/6
f 516/3/6 517/3/6 524/3/6
f 524/3/6 517/3/6 525/3/6
f 519/3/6 520/3/6 526/3/6
f 520/3/6 521/3/6 526/3/6
f 521/2/6 522/2/6 527/2/6
f 526/3/6 521/3/6 527/3/6
f 522/3/6 523/3/6 528/3/6
f 527/2/6 522/2/6 528/2/6
f 523/4/6 524/4/6 529/4/6
f 528/3/6 523/3/6 529/3/6
f 529/4/6 524/4/6 530/4/6
f 531/3/6 532/3/6 536/3/6
f 532/2/6 533/2/6 537/2/6
f 536/3/6 532/3/6 537/3/6
f 537/2/6 533/2/6 538/2/6
f 534/3/6 535/3/6 540/3/6
f 535/2/6 536/2/6 541/2/6
f 540/3/6 535/3/6 541/3/6
f 536/2/6 537/2/6 541/2/6
f 537/3/6 538/3/6 542/3/6
f 541/2/6 537/2/6 542/2/6
f 538/2/6 539/2/6 543/2/6
f 542/3/6 538/3/6 543/3/6
f 543/2/6 539/2/6 544/2/6
