# MagicaVoxel @ Ephtracy

# group
o 

# material
mtllib Mini-Kamikaze_LOD2.mtl
usemtl palette

# normals
vn 1 0 0
vn -1 0 0
vn 0 0 -1
vn 0 0 1
vn 0 -1 0
vn 0 1 0

# texcoords
vt 0.970703 0.5
vt 0.974609 0.5
vt 0.978516 0.5

# verts
v 0.5 0.6 -0.3
v 0.5 0.6 0.4
v 0.5 0.9 -0.3
v 0.5 0.9 0.4
v 0.5 1.4 -0.3
v 0.5 1.4 0.4
v 0.5 1.5 -0.3
v 0.5 1.5 -0.2
v 0.5 1.5 -0.1
v 0.5 1.5 0.4
v 0.5 2 -0.3
v 0.5 2 -0.2
v 0.5 2 -0.1
v 0.5 2 0.4
v -0.5 0.6 -0.3
v -0.5 0.6 0.4
v -0.5 0.9 -0.3
v -0.5 0.9 0.4
v -0.5 1.4 -0.3
v -0.5 1.4 0.4
v -0.5 1.5 -0.3
v -0.5 1.5 -0.2
v -0.5 1.5 -0.1
v -0.5 1.5 0.4
v -0.5 2 -0.3
v -0.5 2 -0.2
v -0.5 2 -0.1
v -0.5 2 0.4
v 0.5 0.6 -0.3
v 0.5 0.9 -0.3
v 0.5 1.4 -0.3
v 0.5 1.5 -0.3
v 0.5 2 -0.3
v 0.3 1.1 -0.3
v 0.3 1.2 -0.3
v 0.1 0.9 -0.3
v 0.1 1.1 -0.3
v 0.1 1.2 -0.3
v 0.1 1.4 -0.3
v -0.1 0.9 -0.3
v -0.1 1.1 -0.3
v -0.1 1.2 -0.3
v -0.1 1.4 -0.3
v -0.3 1.1 -0.3
v -0.3 1.2 -0.3
v -0.5 0.6 -0.3
v -0.5 0.9 -0.3
v -0.5 1.4 -0.3
v -0.5 1.5 -0.3
v -0.5 2 -0.3
v 0.5 0.6 0.4
v 0.5 0.9 0.4
v 0.5 1.4 0.4
v 0.5 1.5 0.4
v 0.5 2 0.4
v 0.3 1.7 0.4
v 0.3 1.9 0.4
v 0.2 1.8 0.4
v 0.2 1.9 0.4
v 0.1 0.9 0.4
v 0.1 1.2 0.4
v 0.1 1.5 0.4
v 0.1 1.7 0.4
v 0.1 1.8 0.4
v 0.1 2 0.4
v -0.1 0.9 0.4
v -0.1 1.2 0.4
v -0.1 1.5 0.4
v -0.1 1.7 0.4
v -0.1 1.8 0.4
v -0.1 2 0.4
v -0.2 1.8 0.4
v -0.2 1.9 0.4
v -0.3 1.7 0.4
v -0.3 1.9 0.4
v -0.5 0.6 0.4
v -0.5 0.9 0.4
v -0.5 1.4 0.4
v -0.5 1.5 0.4
v -0.5 2 0.4
v 0.5 0.6 -0.3
v -0.5 0.6 -0.3
v 0.5 0.6 0.4
v -0.5 0.6 0.4
v 0.5 2 -0.3
v -0.5 2 -0.3
v 0.5 2 -0.2
v -0.5 2 -0.2
v 0.5 2 -0.1
v 0.1 2 -0.1
v -0.1 2 -0.1
v -0.5 2 -0.1
v 0.5 2 0.4
v 0.1 2 0.4
v -0.1 2 0.4
v -0.5 2 0.4

# faces
f 3/2/1 2/2/1 1/2/1
f 4/2/1 2/2/1 3/2/1
f 5/3/1 4/3/1 3/3/1
f 6/3/1 4/3/1 5/3/1
f 7/2/1 6/2/1 5/2/1
f 8/2/1 6/2/1 7/2/1
f 9/2/1 6/2/1 8/2/1
f 10/2/1 6/2/1 9/2/1
f 11/3/1 8/3/1 7/3/1
f 12/2/1 9/2/1 8/2/1
f 12/3/1 8/3/1 11/3/1
f 13/3/1 10/3/1 9/3/1
f 13/2/1 9/2/1 12/2/1
f 14/3/1 10/3/1 13/3/1
f 15/2/2 16/2/2 17/2/2
f 17/2/2 16/2/2 18/2/2
f 17/3/2 18/3/2 19/3/2
f 19/3/2 18/3/2 20/3/2
f 19/2/2 20/2/2 21/2/2
f 21/2/2 20/2/2 22/2/2
f 22/2/2 20/2/2 23/2/2
f 23/2/2 20/2/2 24/2/2
f 21/3/2 22/3/2 25/3/2
f 22/2/2 23/2/2 26/2/2
f 25/3/2 22/3/2 26/3/2
f 23/3/2 24/3/2 27/3/2
f 26/2/2 23/2/2 27/2/2
f 27/3/2 24/3/2 28/3/2
f 34/3/3 31/3/3 30/3/3
f 35/3/3 31/3/3 34/3/3
f 36/2/3 30/2/3 29/2/3
f 36/3/3 34/3/3 30/3/3
f 37/2/3 35/2/3 34/2/3
f 37/3/3 34/3/3 36/3/3
f 38/3/3 31/3/3 35/3/3
f 38/2/3 35/2/3 37/2/3
f 39/2/3 32/2/3 31/2/3
f 39/3/3 31/3/3 38/3/3
f 40/2/3 37/2/3 36/2/3
f 40/2/3 38/2/3 37/2/3
f 40/2/3 39/2/3 38/2/3
f 40/2/3 36/2/3 29/2/3
f 41/2/3 39/2/3 40/2/3
f 42/2/3 39/2/3 41/2/3
f 43/2/3 32/2/3 39/2/3
f 43/2/3 39/2/3 42/2/3
f 44/2/3 42/2/3 41/2/3
f 44/3/3 41/3/3 40/3/3
f 45/3/3 43/3/3 42/3/3
f 45/2/3 42/2/3 44/2/3
f 46/2/3 40/2/3 29/2/3
f 47/3/3 44/3/3 40/3/3
f 47/2/3 40/2/3 46/2/3
f 47/3/3 45/3/3 44/3/3
f 48/2/3 32/2/3 43/2/3
f 48/3/3 45/3/3 47/3/3
f 48/3/3 43/3/3 45/3/3
f 49/3/3 33/3/3 32/3/3
f 49/2/3 32/2/3 48/2/3
f 50/3/3 33/3/3 49/3/3
f 54/3/4 55/3/4 56/3/4
f 56/3/4 55/3/4 57/3/4
f 56/2/4 57/2/4 58/2/4
f 57/3/4 55/3/4 59/3/4
f 58/2/4 57/2/4 59/2/4
f 51/2/4 52/2/4 60/2/4
f 52/3/4 53/3/4 60/3/4
f 60/3/4 53/3/4 61/3/4
f 53/2/4 54/2/4 62/2/4
f 54/3/4 56/3/4 62/3/4
f 56/2/4 58/2/4 63/2/4
f 62/3/4 56/3/4 63/3/4
f 58/3/4 59/3/4 64/3/4
f 63/2/4 58/2/4 64/2/4
f 59/3/4 55/3/4 65/3/4
f 64/3/4 59/3/4 65/3/4
f 60/2/4 61/2/4 66/2/4
f 51/2/4 60/2/4 66/2/4
f 61/3/4 53/3/4 67/3/4
f 66/2/4 61/2/4 67/2/4
f 63/2/4 64/2/4 68/2/4
f 62/2/4 63/2/4 68/2/4
f 53/2/4 62/2/4 68/2/4
f 64/2/4 65/2/4 68/2/4
f 68/2/4 65/2/4 69/2/4
f 69/2/4 65/2/4 70/2/4
f 70/2/4 65/2/4 71/2/4
f 69/2/4 70/2/4 72/2/4
f 70/3/4 71/3/4 72/3/4
f 72/3/4 71/3/4 73/3/4
f 68/3/4 69/3/4 74/3/4
f 69/2/4 72/2/4 74/2/4
f 72/2/4 73/2/4 74/2/4
f 73/3/4 71/3/4 75/3/4
f 74/2/4 73/2/4 75/2/4
f 51/2/4 66/2/4 76/2/4
f 66/3/4 67/3/4 77/3/4
f 76/2/4 66/2/4 77/2/4
f 67/3/4 53/3/4 78/3/4
f 77/3/4 67/3/4 78/3/4
f 53/2/4 68/2/4 78/2/4
f 74/3/4 75/3/4 79/3/4
f 78/2/4 68/2/4 79/2/4
f 68/3/4 74/3/4 79/3/4
f 75/3/4 71/3/4 80/3/4
f 79/3/4 75/3/4 80/3/4
f 83/2/5 82/2/5 81/2/5
f 84/2/5 82/2/5 83/2/5
f 85/3/6 86/3/6 87/3/6
f 87/3/6 86/3/6 88/3/6
f 87/2/6 88/2/6 89/2/6
f 89/2/6 88/2/6 90/2/6
f 90/2/6 88/2/6 91/2/6
f 91/2/6 88/2/6 92/2/6
f 89/3/6 90/3/6 93/3/6
f 90/2/6 91/2/6 94/2/6
f 93/3/6 90/3/6 94/3/6
f 91/3/6 92/3/6 95/3/6
f 94/2/6 91/2/6 95/2/6
f 95/3/6 92/3/6 96/3/6
