# MagicaVoxel @ Ephtracy

# group
o 

# material
mtllib MediumRock2_LOD0.mtl
usemtl palette

# normals
vn -1 0 0
vn 1 0 0
vn 0 0 1
vn 0 0 -1
vn 0 -1 0
vn 0 1 0

# texcoords
vt 0.939453 0.5
vt 0.986328 0.5
vt 0.990234 0.5
vt 0.994141 0.5

# verts
v -0.3 -0.1 0.3
v -0.3 -0.1 0.1
v -0.3 -0.1 0
v -0.3 0 0.3
v -0.3 0 0.2
v -0.3 0 0.1
v -0.3 0 0
v -0.3 0.1 0.2
v -0.3 0.1 0.1
v -0.2 -0.1 0
v -0.2 -0.1 -0.2
v -0.2 0 0.3
v -0.2 0 0.2
v -0.2 0 0.1
v -0.2 0 0
v -0.2 0 -0.1
v -0.2 0 -0.2
v -0.2 0.1 0.3
v -0.2 0.1 0.2
v -0.2 0.1 0.1
v -0.2 0.1 0
v -0.2 0.1 -0.1
v -0.1 -0.1 -0.2
v -0.1 -0.1 -0.3
v -0.1 0 -0.1
v -0.1 0 -0.2
v -0.1 0 -0.3
v -0.1 0.1 0.2
v -0.1 0.1 0.1
v -0.1 0.1 0
v -0.1 0.1 -0.1
v -0.1 0.1 -0.2
v -0.1 0.2 0.2
v -0.1 0.2 0
v 0 0 -0.2
v 0 0 -0.3
v 0 0.1 0
v 0 0.1 -0.1
v 0 0.1 -0.2
v 0 0.1 -0.3
v 0 0.2 0
v 0 0.2 -0.1
v 0.1 -0.1 -0.2
v 0.1 -0.1 -0.3
v 0.1 0 0
v 0.1 0 -0.1
v 0.1 0 -0.2
v 0.1 0 -0.3
v 0.1 0.1 0.1
v 0.1 0.1 0
v 0.1 0.1 -0.1
v 0.1 0.1 -0.2
v 0.1 0.1 -0.3
v 0.1 0.2 0.1
v 0.1 0.2 0
v 0.1 0.2 -0.1
v 0.2 -0.1 0.3
v 0.2 -0.1 0.2
v 0.2 -0.1 0
v 0.2 -0.1 -0.1
v 0.2 -0.1 -0.2
v 0.2 0 0.2
v 0.2 0 0.1
v 0.2 0 0
v 0.2 0 -0.1
v 0.2 0 -0.2
v 0.2 0.1 0.3
v 0.2 0.1 0.2
v 0.2 0.1 0.1
v 0.2 0.1 0
v 0.2 0.2 0.2
v 0.2 0.2 0.1
v 0.3 -0.1 0.2
v 0.3 -0.1 0
v 0.3 0 0.2
v 0.3 0 0
v -0.3 -0.1 0.3
v -0.3 0 0.3
v -0.2 0 0.3
v -0.2 0.1 0.3
v -0.1 -0.1 0.3
v -0.1 0 0.3
v -0.1 0.1 0.3
v 0.1 -0.1 0.3
v 0.1 0 0.3
v 0.1 0.1 0.3
v 0.2 -0.1 0.3
v 0.2 0.1 0.3
v -0.3 0 0.2
v -0.3 0.1 0.2
v -0.2 0 0.2
v -0.2 0.1 0.2
v -0.1 0.1 0.2
v -0.1 0.2 0.2
v 0 0.1 0.2
v 0 0.2 0.2
v 0.1 0.1 0.2
v 0.2 -0.1 0.2
v 0.2 0 0.2
v 0.2 0.1 0.2
v 0.2 0.2 0.2
v 0.3 -0.1 0.2
v 0.3 0 0.2
v -0.3 0 0.1
v -0.3 0.1 0.1
v -0.2 0 0.1
v -0.2 0.1 0.1
v 0.1 0.1 0.1
v 0.1 0.2 0.1
v 0.2 0.1 0.1
v 0.2 0.2 0.1
v -0.3 -0.1 0
v -0.3 0 0
v -0.2 -0.1 0
v -0.2 0 0
v -0.1 0.1 0
v -0.1 0.2 0
v 0 0.1 0
v 0 0.2 0
v 0.1 0 0
v 0.1 0.1 0
v 0.2 -0.1 0
v 0.2 0 0
v 0.2 0.1 0
v 0.3 -0.1 0
v 0.3 0 0
v -0.2 0 -0.1
v -0.2 0.1 -0.1
v -0.1 0 -0.1
v -0.1 0.1 -0.1
v 0 0.1 -0.1
v 0 0.2 -0.1
v 0.1 0.1 -0.1
v 0.1 0.2 -0.1
v -0.2 -0.1 -0.2
v -0.2 0 -0.2
v -0.1 -0.1 -0.2
v -0.1 0 -0.2
v -0.1 0.1 -0.2
v 0 0 -0.2
v 0 0.1 -0.2
v 0.1 -0.1 -0.2
v 0.1 0 -0.2
v 0.2 -0.1 -0.2
v 0.2 0 -0.2
v -0.1 -0.1 -0.3
v -0.1 0 -0.3
v 0 -0.1 -0.3
v 0 0 -0.3
v 0 0.1 -0.3
v 0.1 -0.1 -0.3
v 0.1 0 -0.3
v 0.1 0.1 -0.3
v -0.3 -0.1 0.3
v -0.1 -0.1 0.3
v 0.1 -0.1 0.3
v 0.2 -0.1 0.3
v -0.1 -0.1 0.2
v 0.1 -0.1 0.2
v 0.2 -0.1 0.2
v 0.3 -0.1 0.2
v -0.3 -0.1 0.1
v -0.2 -0.1 0.1
v -0.3 -0.1 0
v -0.2 -0.1 0
v 0.1 -0.1 0
v 0.2 -0.1 0
v 0.3 -0.1 0
v 0.1 -0.1 -0.1
v 0.2 -0.1 -0.1
v -0.2 -0.1 -0.2
v -0.1 -0.1 -0.2
v 0 -0.1 -0.2
v 0.1 -0.1 -0.2
v 0.2 -0.1 -0.2
v -0.1 -0.1 -0.3
v 0 -0.1 -0.3
v 0.1 -0.1 -0.3
v -0.3 0 0.3
v -0.2 0 0.3
v -0.3 0 0.2
v -0.2 0 0.2
v 0.2 0 0.2
v 0.3 0 0.2
v -0.3 0 0.1
v -0.2 0 0.1
v 0.2 0 0.1
v -0.3 0 0
v -0.2 0 0
v 0.1 0 0
v 0.2 0 0
v 0.3 0 0
v -0.2 0 -0.1
v -0.1 0 -0.1
v 0.1 0 -0.1
v 0.2 0 -0.1
v -0.2 0 -0.2
v -0.1 0 -0.2
v 0 0 -0.2
v 0.1 0 -0.2
v 0.2 0 -0.2
v -0.1 0 -0.3
v 0 0 -0.3
v -0.2 0.1 0.3
v -0.1 0.1 0.3
v 0.1 0.1 0.3
v 0.2 0.1 0.3
v -0.3 0.1 0.2
v -0.2 0.1 0.2
v -0.1 0.1 0.2
v 0 0.1 0.2
v 0.1 0.1 0.2
v 0.2 0.1 0.2
v -0.3 0.1 0.1
v -0.2 0.1 0.1
v -0.1 0.1 0.1
v 0.1 0.1 0.1
v 0.2 0.1 0.1
v -0.2 0.1 0
v -0.1 0.1 0
v 0 0.1 0
v 0.1 0.1 0
v 0.2 0.1 0
v -0.2 0.1 -0.1
v -0.1 0.1 -0.1
v 0 0.1 -0.1
v 0.1 0.1 -0.1
v -0.1 0.1 -0.2
v 0 0.1 -0.2
v 0.1 0.1 -0.2
v 0 0.1 -0.3
v 0.1 0.1 -0.3
v -0.1 0.2 0.2
v 0 0.2 0.2
v 0.2 0.2 0.2
v 0 0.2 0.1
v 0.1 0.2 0.1
v 0.2 0.2 0.1
v -0.1 0.2 0
v 0 0.2 0
v 0.1 0.2 0
v 0 0.2 -0.1
v 0.1 0.2 -0.1

# faces
f 4/1/1 2/1/1 1/1/1
f 5/1/1 2/1/1 4/1/1
f 6/4/1 3/4/1 2/4/1
f 6/1/1 2/1/1 5/1/1
f 7/4/1 3/4/1 6/4/1
f 8/4/1 6/4/1 5/4/1
f 9/4/1 6/4/1 8/4/1
f 15/1/1 11/1/1 10/1/1
f 16/1/1 11/1/1 15/1/1
f 17/1/1 11/1/1 16/1/1
f 18/4/1 13/4/1 12/4/1
f 19/4/1 13/4/1 18/4/1
f 20/3/1 15/3/1 14/3/1
f 21/4/1 16/4/1 15/4/1
f 21/3/1 15/3/1 20/3/1
f 22/4/1 16/4/1 21/4/1
f 26/4/1 24/4/1 23/4/1
f 27/4/1 24/4/1 26/4/1
f 31/4/1 26/4/1 25/4/1
f 32/4/1 26/4/1 31/4/1
f 33/3/1 30/3/1 29/3/1
f 33/3/1 29/3/1 28/3/1
f 34/3/1 30/3/1 33/3/1
f 39/4/1 36/4/1 35/4/1
f 40/4/1 36/4/1 39/4/1
f 41/2/1 38/2/1 37/2/1
f 42/2/1 38/2/1 41/2/1
f 43/1/2 44/1/2 47/1/2
f 47/1/2 44/1/2 48/1/2
f 45/3/2 46/3/2 50/3/2
f 46/3/2 47/3/2 50/3/2
f 50/3/2 47/3/2 51/3/2
f 47/4/2 48/4/2 52/4/2
f 51/3/2 47/3/2 52/3/2
f 52/4/2 48/4/2 53/4/2
f 49/3/2 50/3/2 54/3/2
f 50/2/2 51/2/2 55/2/2
f 54/3/2 50/3/2 55/3/2
f 55/2/2 51/2/2 56/2/2
f 57/1/2 58/1/2 62/1/2
f 59/4/2 60/4/2 64/4/2
f 60/1/2 61/1/2 65/1/2
f 64/4/2 60/4/2 65/4/2
f 65/1/2 61/1/2 66/1/2
f 57/1/2 62/1/2 67/1/2
f 62/4/2 63/4/2 68/4/2
f 67/1/2 62/1/2 68/1/2
f 63/3/2 64/3/2 69/3/2
f 68/4/2 63/4/2 69/4/2
f 69/3/2 64/3/2 70/3/2
f 68/2/2 69/2/2 71/2/2
f 71/2/2 69/2/2 72/2/2
f 73/1/2 74/1/2 75/1/2
f 75/1/2 74/1/2 76/1/2
f 79/1/3 78/1/3 77/1/3
f 81/1/3 79/1/3 77/1/3
f 82/4/3 80/4/3 79/4/3
f 82/1/3 79/1/3 81/1/3
f 83/4/3 80/4/3 82/4/3
f 84/4/3 82/4/3 81/4/3
f 85/3/3 83/3/3 82/3/3
f 85/4/3 82/4/3 84/4/3
f 86/3/3 83/3/3 85/3/3
f 87/1/3 85/1/3 84/1/3
f 87/1/3 86/1/3 85/1/3
f 88/1/3 86/1/3 87/1/3
f 91/4/3 90/4/3 89/4/3
f 92/4/3 90/4/3 91/4/3
f 95/3/3 94/3/3 93/3/3
f 96/3/3 94/3/3 95/3/3
f 97/2/3 96/2/3 95/2/3
f 100/2/3 96/2/3 97/2/3
f 101/2/3 96/2/3 100/2/3
f 102/1/3 99/1/3 98/1/3
f 103/1/3 99/1/3 102/1/3
f 104/4/4 105/4/4 106/4/4
f 106/4/4 105/4/4 107/4/4
f 108/2/4 109/2/4 110/2/4
f 110/2/4 109/2/4 111/2/4
f 112/4/4 113/4/4 114/4/4
f 114/4/4 113/4/4 115/4/4
f 116/3/4 117/3/4 118/3/4
f 118/3/4 117/3/4 119/3/4
f 120/3/4 121/3/4 123/3/4
f 123/3/4 121/3/4 124/3/4
f 122/1/4 123/1/4 125/1/4
f 125/1/4 123/1/4 126/1/4
f 127/4/4 128/4/4 129/4/4
f 129/4/4 128/4/4 130/4/4
f 131/2/4 132/2/4 133/2/4
f 133/2/4 132/2/4 134/2/4
f 135/1/4 136/1/4 137/1/4
f 137/1/4 136/1/4 138/1/4
f 138/4/4 139/4/4 140/4/4
f 140/4/4 139/4/4 141/4/4
f 142/1/4 143/1/4 144/1/4
f 144/1/4 143/1/4 145/1/4
f 146/4/4 147/4/4 148/4/4
f 148/4/4 147/4/4 149/4/4
f 148/1/4 149/1/4 151/1/4
f 149/4/4 150/4/4 152/4/4
f 151/1/4 149/1/4 152/1/4
f 152/4/4 150/4/4 153/4/4
f 158/1/5 155/1/5 154/1/5
f 158/4/5 156/4/5 155/4/5
f 159/1/5 157/1/5 156/1/5
f 159/4/5 156/4/5 158/4/5
f 160/1/5 157/1/5 159/1/5
f 162/1/5 158/1/5 154/1/5
f 162/1/5 161/1/5 160/1/5
f 162/1/5 160/1/5 159/1/5
f 162/1/5 159/1/5 158/1/5
f 163/1/5 161/1/5 162/1/5
f 164/4/5 163/4/5 162/4/5
f 165/1/5 161/1/5 163/1/5
f 165/4/5 163/4/5 164/4/5
f 166/1/5 161/1/5 165/1/5
f 167/1/5 161/1/5 166/1/5
f 168/1/5 161/1/5 167/1/5
f 169/1/5 166/1/5 165/1/5
f 169/4/5 167/4/5 166/4/5
f 170/4/5 167/4/5 169/4/5
f 171/1/5 169/1/5 165/1/5
f 171/1/5 170/1/5 169/1/5
f 172/1/5 170/1/5 171/1/5
f 173/1/5 170/1/5 172/1/5
f 174/1/5 170/1/5 173/1/5
f 175/1/5 170/1/5 174/1/5
f 176/4/5 173/4/5 172/4/5
f 177/1/5 174/1/5 173/1/5
f 177/4/5 173/4/5 176/4/5
f 178/1/5 174/1/5 177/1/5
f 179/1/6 180/1/6 181/1/6
f 181/1/6 180/1/6 182/1/6
f 183/1/6 184/1/6 187/1/6
f 185/4/6 186/4/6 188/4/6
f 188/4/6 186/4/6 189/4/6
f 187/1/6 184/1/6 191/1/6
f 191/1/6 184/1/6 192/1/6
f 190/4/6 191/4/6 195/4/6
f 195/4/6 191/4/6 196/4/6
f 193/1/6 194/1/6 197/1/6
f 197/1/6 194/1/6 198/1/6
f 195/1/6 196/1/6 200/1/6
f 200/1/6 196/1/6 201/1/6
f 198/4/6 199/4/6 202/4/6
f 202/4/6 199/4/6 203/4/6
f 204/4/6 205/4/6 209/4/6
f 205/3/6 206/3/6 210/3/6
f 209/4/6 205/4/6 210/4/6
f 210/3/6 206/3/6 211/3/6
f 206/1/6 207/1/6 212/1/6
f 211/3/6 206/3/6 212/3/6
f 212/1/6 207/1/6 213/1/6
f 208/4/6 209/4/6 214/4/6
f 209/4/6 210/4/6 214/4/6
f 214/4/6 210/4/6 215/4/6
f 215/4/6 210/4/6 216/4/6
f 215/3/6 216/3/6 219/3/6
f 219/3/6 216/3/6 220/3/6
f 217/3/6 218/3/6 222/3/6
f 222/3/6 218/3/6 223/3/6
f 219/4/6 220/4/6 224/4/6
f 220/3/6 221/3/6 225/3/6
f 224/4/6 220/4/6 225/4/6
f 225/3/6 221/3/6 226/3/6
f 225/4/6 226/4/6 228/4/6
f 226/3/6 227/3/6 229/3/6
f 228/4/6 226/4/6 229/4/6
f 229/3/6 227/3/6 230/3/6
f 229/4/6 230/4/6 231/4/6
f 231/4/6 230/4/6 232/4/6
f 233/3/6 234/3/6 236/3/6
f 234/2/6 235/2/6 236/2/6
f 236/2/6 235/2/6 237/2/6
f 237/2/6 235/2/6 238/2/6
f 233/3/6 236/3/6 239/3/6
f 236/3/6 237/3/6 239/3/6
f 239/3/6 237/3/6 240/3/6
f 240/3/6 237/3/6 241/3/6
f 240/2/6 241/2/6 242/2/6
f 242/2/6 241/2/6 243/2/6
