# Blender v2.93.5 OBJ File: 'DefaultCorridor.blend'
# www.blender.org
mtllib DefaultCorridor.mtl
o Cube_Cube.002
v 1.447623 1.074151 4.101473
v 0.301732 2.221299 4.101474
v 0.287073 2.221300 -4.101475
v 1.446369 1.074152 -4.101476
v -0.288119 2.221299 4.101474
v -1.441340 1.074151 4.101473
v -1.447415 1.074152 -4.101476
v -0.288119 2.221300 -4.101475
v 1.101752 0.027036 4.101474
v 1.483584 0.797609 4.101473
v 1.487425 0.797611 -4.101476
v 1.097806 0.027037 -4.101476
v -1.487226 0.797609 4.101473
v -1.102799 0.027036 4.101474
v -1.098852 0.027037 -4.101476
v -1.488471 0.797611 -4.101476
v 0.881515 -0.126150 4.101474
v -0.871364 -0.126150 4.101474
v -1.098852 -0.080446 -4.101476
v -1.098949 -0.080447 4.101474
v -0.887311 -0.189425 4.101474
v -0.887206 -0.189424 -4.101476
v -0.879843 -0.126149 -4.101476
v 0.870213 -0.126149 -4.101476
v 1.097902 -0.080447 4.101474
v 1.090443 -0.080446 -4.101476
v 0.886160 -0.189424 -4.101476
v 0.886264 -0.189425 4.101474
vt 0.283329 0.005763
vt 0.408270 0.004705
vt 0.409397 0.642010
vt 0.283887 0.635561
vt 0.274928 0.642010
vt 0.150049 0.640909
vt 0.149417 0.011148
vt 0.274927 0.004699
vt 0.484380 0.638956
vt 0.418994 0.635152
vt 0.418328 0.005359
vt 0.485039 0.009239
vt 0.493905 0.008622
vt 0.560489 0.004737
vt 0.561148 0.634454
vt 0.494437 0.638334
vt 0.737014 0.642010
vt 0.735887 0.004705
vt 0.781259 0.004699
vt 0.781259 0.642010
vt 0.843221 0.245574
vt 0.843880 0.875286
vt 0.822298 0.876687
vt 0.821767 0.246926
vt 0.812900 0.247592
vt 0.813439 0.877385
vt 0.791976 0.875989
vt 0.791317 0.246191
vt 0.723544 0.255420
vt 0.723544 0.884515
vt 0.704574 0.885814
vt 0.704574 0.255399
vt 0.004706 0.634454
vt 0.005359 0.004699
vt 0.140192 0.004071
vt 0.139322 0.635114
vt 0.873246 0.246192
vt 0.872247 0.876585
vt 0.853938 0.875968
vt 0.853938 0.245553
vt 0.942956 0.245531
vt 0.942956 0.875286
vt 0.935244 0.875968
vt 0.935244 0.245553
vt 0.969802 0.875946
vt 0.969776 0.244903
vt 0.977514 0.245553
vt 0.977514 0.875968
vt 0.960993 0.245569
vt 0.960404 0.875286
vt 0.952015 0.875924
vt 0.953014 0.245531
vt 0.987250 0.875286
vt 0.986661 0.245569
vt 0.995301 0.246191
vt 0.995301 0.875286
vn -0.7054 -0.7088 0.0007
vn 0.7043 -0.7099 -0.0003
vn -0.8942 0.4476 0.0000
vn 0.8936 0.4488 0.0001
vn 0.0000 -1.0000 -0.0000
vn 0.9879 -0.1553 -0.0004
vn -0.9904 -0.1379 -0.0002
vn 0.4578 0.8891 0.0000
vn 0.0000 1.0000 0.0000
vn -0.4642 0.8858 0.0002
vn -0.9835 0.1811 0.0005
vn 0.9869 0.1614 -0.0007
vn -0.9986 0.0521 0.0007
vn 0.9998 0.0179 0.0002
usemtl None.001
s 1
f 1/1/1 2/2/1 3/3/1 4/4/1
f 5/5/2 6/6/2 7/7/2 8/8/2
f 9/9/3 10/10/3 11/11/3 12/12/3
f 13/13/4 14/14/4 15/15/4 16/16/4
f 3/17/5 2/18/5 5/19/5 8/20/5
f 13/21/6 16/22/6 7/23/6 6/24/6
f 11/25/7 10/26/7 1/27/7 4/28/7
f 19/29/8 20/30/8 21/31/8 22/32/8
f 23/33/9 18/34/9 17/35/9 24/36/9
f 25/37/10 26/38/10 27/39/10 28/40/10
f 18/41/11 23/42/11 22/43/11 21/44/11
f 24/45/12 17/46/12 28/47/12 27/48/12
f 9/49/13 12/50/13 26/51/13 25/52/13
f 15/53/14 14/54/14 20/55/14 19/56/14
