# Blender v2.93.5 OBJ File: ''
# www.blender.org
mtllib AlienDungeonEnterExit2.mtl
o Cube_Cube.001
v -2.129966 1.311261 1.646274
v -1.950379 1.418879 1.611774
v 0.000000 3.719904 1.594112
v 0.000000 3.729213 1.738542
v -2.435141 1.294143 1.757169
v 0.000000 4.084912 0.918205
v -2.797105 1.287889 0.939600
v -2.797105 1.292185 1.501229
v 0.000000 4.089208 1.479835
v 0.000000 -1.504838 1.522626
v 0.000000 -1.509135 0.960995
v 2.797105 1.287889 0.939600
v 2.797105 1.292186 1.501230
v 1.453187 1.026808 -0.417341
v 0.302475 2.175672 -0.417340
v 0.302475 2.084946 -8.611924
v 1.453187 0.937590 -8.611924
v 2.435141 1.294143 1.757169
v 0.000000 -1.175627 1.914943
v -0.788009 -0.584949 1.688457
v 2.129966 1.311262 1.646275
v 1.975852 1.238334 1.611328
v 0.871772 -0.318243 1.586769
v 0.788008 -0.584949 1.688457
v -0.289885 2.175672 -0.417340
v -1.440597 1.026808 -0.417341
v -1.440597 0.937590 -8.611924
v -0.289885 2.084946 -8.611924
v 1.104672 -0.024703 -0.417341
v 1.494248 0.749459 -0.417341
v 1.494248 0.660246 -8.611924
v 1.104672 -0.113982 -8.611924
v 1.103602 -0.038202 0.040593
v 0.972609 -0.065882 0.004837
v 1.016704 -0.134261 0.043134
v 1.950379 1.418879 1.611774
v 0.000000 3.684523 1.562573
v 0.312145 2.236062 0.038738
v 1.254082 1.095208 -0.008301
v 1.295419 1.044664 0.084326
v 1.235915 0.683247 0.033491
v -1.481658 0.749459 -0.417341
v -1.092082 -0.024703 -0.376115
v -1.092082 -0.113982 -8.611924
v -1.481658 0.660245 -8.611924
v -0.871772 -0.318243 1.586769
v -1.975852 1.238334 1.611328
v 1.302057 0.853411 0.133999
v 0.885680 -0.155594 -0.417341
v -0.873078 -0.155594 -0.366096
v -1.016704 -0.134261 0.043134
v -1.235915 0.683247 0.033491
v -1.103602 -0.038202 0.040593
v -0.972609 -0.065882 0.004837
v -1.295419 1.044664 0.084325
v -1.254082 1.095207 -0.008301
v -0.312145 2.236062 0.038738
v -1.302057 0.853410 0.133999
v -1.092082 -0.218638 -8.611924
v -1.092082 -0.129360 -0.374977
v -0.873078 -0.260250 -0.364956
v -0.873078 -0.349524 -8.611924
v -0.873078 -0.244868 -8.611924
v 0.885680 -0.244868 -8.611924
v 1.104672 -0.129360 -0.417341
v 1.104672 -0.218638 -8.611924
v 0.885654 -0.349525 -8.611924
v 0.885654 -0.260250 -0.417341
vt 0.289852 0.898783
vt 0.285276 0.883181
vt 0.298565 0.651645
vt 0.306848 0.651408
vt 0.306848 0.916204
vt 0.561148 0.648392
vt 0.561148 0.952668
vt 0.517945 0.952667
vt 0.517945 0.648392
vt 0.925507 0.245531
vt 0.925507 0.549807
vt 0.882305 0.549807
vt 0.882305 0.245531
vt 0.925507 0.559205
vt 0.925507 0.863481
vt 0.882305 0.863481
vt 0.882305 0.559205
vt 0.283858 0.005806
vt 0.408930 0.004699
vt 0.408930 0.642010
vt 0.283887 0.636221
vt 0.129830 0.664199
vt 0.129830 0.929100
vt 0.101988 0.948787
vt 0.101988 0.644511
vt 0.214040 0.955659
vt 0.199187 0.862875
vt 0.186415 0.671052
vt 0.214043 0.651408
vt 0.214043 0.955662
vt 0.508547 0.648391
vt 0.508547 0.952667
vt 0.480705 0.932980
vt 0.480705 0.668079
vt 0.418328 0.952668
vt 0.418328 0.648392
vt 0.461530 0.648392
vt 0.461530 0.952667
vt 0.742078 0.828979
vt 0.736354 0.816878
vt 0.744784 0.664883
vt 0.762295 0.651408
vt 0.762295 0.843689
vt 0.274461 0.642010
vt 0.149389 0.640903
vt 0.149417 0.010488
vt 0.274460 0.004699
vt 0.485039 0.638994
vt 0.418335 0.635114
vt 0.418328 0.004699
vt 0.485039 0.008579
vt 0.605884 0.901174
vt 0.607406 0.692228
vt 0.609560 0.689166
vt 0.616128 0.691259
vt 0.616128 0.920754
vt 0.879208 0.004699
vt 0.879208 0.236134
vt 0.876578 0.234181
vt 0.858434 0.179722
vt 0.791317 0.090533
vt 0.792536 0.082625
vt 0.408930 0.745445
vt 0.316246 0.667305
vt 0.408930 0.651408
vt 0.369585 0.824655
vt 0.365361 0.765269
vt 0.385120 0.754843
vt 0.385120 0.821638
vt 0.373029 0.825892
vt 0.494444 0.008579
vt 0.561148 0.004699
vt 0.561148 0.635114
vt 0.494437 0.638994
vt 0.177017 0.651408
vt 0.177017 0.955662
vt 0.149389 0.936017
vt 0.162161 0.744194
vt 0.177014 0.651410
vt 0.736354 0.642010
vt 0.736354 0.004699
vt 0.781919 0.004699
vt 0.781919 0.642010
vt 0.843880 0.245531
vt 0.843880 0.875946
vt 0.822298 0.877347
vt 0.822297 0.246932
vt 0.812900 0.246932
vt 0.812900 0.877347
vt 0.791317 0.875946
vt 0.791317 0.245531
vt 0.578975 0.867971
vt 0.570545 0.715976
vt 0.576269 0.703875
vt 0.596486 0.689166
vt 0.596486 0.881447
vt 0.694516 0.462565
vt 0.570545 0.377097
vt 0.624625 0.265778
vt 0.637659 0.257324
vt 0.694516 0.254760
vt 0.588137 0.245362
vt 0.570545 0.016572
vt 0.581105 0.004699
vt 0.716397 0.004699
vt 0.726957 0.016572
vt 0.709365 0.245362
vt 0.625526 0.818172
vt 0.629749 0.758786
vt 0.633193 0.757548
vt 0.645284 0.761803
vt 0.645284 0.828597
vt 0.236730 0.915967
vt 0.223441 0.684431
vt 0.228017 0.668829
vt 0.245013 0.651408
vt 0.245013 0.916204
vt 0.092590 0.644511
vt 0.092590 0.875946
vt 0.005918 0.798020
vt 0.004699 0.790112
vt 0.071816 0.700923
vt 0.089960 0.646464
vt 0.689791 0.828814
vt 0.689791 0.850363
vt 0.675044 0.860263
vt 0.671117 0.856464
vt 0.667194 0.841949
vt 0.668962 0.828967
vt 0.723544 0.254760
vt 0.723544 0.885175
vt 0.703914 0.885836
vt 0.703914 0.255421
vt 0.772834 0.781659
vt 0.771693 0.667956
vt 0.778540 0.651408
vt 0.778540 0.776348
vt 0.682944 0.802868
vt 0.684085 0.689166
vt 0.689791 0.694476
vt 0.689791 0.819416
vt 0.255933 0.879934
vt 0.254411 0.670988
vt 0.264655 0.651408
vt 0.264655 0.880903
vt 0.258086 0.882996
vt 0.649536 0.689165
vt 0.673546 0.742163
vt 0.672318 0.748151
vt 0.626754 0.748151
vt 0.625526 0.742163
vt 0.638331 0.837995
vt 0.638331 0.852020
vt 0.625525 0.841900
vt 0.403814 0.812418
vt 0.407905 0.825834
vt 0.394517 0.825834
vt 0.387959 0.845190
vt 0.387959 0.866739
vt 0.367130 0.866585
vt 0.365361 0.853604
vt 0.369285 0.839089
vt 0.373212 0.835290
vt 0.316246 0.880061
vt 0.319652 0.762416
vt 0.331406 0.754843
vt 0.331406 0.880548
vt 0.355964 0.754843
vt 0.355964 0.880548
vt 0.344210 0.872976
vt 0.340804 0.755330
vt 0.570545 0.557430
vt 0.694516 0.471962
vt 0.694516 0.679768
vt 0.637659 0.677203
vt 0.624625 0.668750
vt 0.654681 0.770059
vt 0.668438 0.757548
vt 0.668438 0.772558
vt 0.665639 0.772371
vt 0.408274 0.769853
vt 0.394517 0.757342
vt 0.405475 0.755030
vt 0.408274 0.754843
vt 0.654681 0.805726
vt 0.654681 0.786085
vt 0.661592 0.781955
vt 0.661592 0.801596
vt 0.004706 0.635114
vt 0.004699 0.004699
vt 0.139991 0.004699
vt 0.139982 0.635114
vt 0.872907 0.246192
vt 0.872907 0.876607
vt 0.853278 0.875946
vt 0.853278 0.245531
vt 0.401428 0.783381
vt 0.401428 0.803021
vt 0.394517 0.798891
vt 0.394517 0.779250
vt 0.942956 0.245531
vt 0.942956 0.875946
vt 0.934905 0.875946
vt 0.934905 0.245531
vt 0.969802 0.875946
vt 0.969802 0.245531
vt 0.977853 0.245531
vt 0.977853 0.875946
vt 0.960404 0.245531
vt 0.960404 0.875946
vt 0.952354 0.875946
vt 0.952354 0.245531
vt 0.987250 0.875946
vt 0.987250 0.245531
vt 0.995301 0.245531
vt 0.995301 0.875946
vn 0.5268 -0.4818 0.7003
vn -0.7071 0.7071 -0.0054
vn -0.7071 -0.7071 0.0054
vn 0.7071 0.7071 -0.0054
vn -0.7063 -0.7079 0.0078
vn 0.5000 0.5054 0.7033
vn -0.5761 -0.5606 0.5948
vn -0.5000 0.5054 0.7033
vn 0.7071 -0.7071 0.0054
vn -0.4006 0.2974 0.8667
vn 0.7063 -0.7079 0.0078
vn -0.8933 0.4495 -0.0049
vn -0.9075 0.4198 -0.0183
vn -0.6977 -0.5804 0.4198
vn 0.0000 0.3580 0.9337
vn -0.8965 0.3835 -0.2220
vn 0.8933 0.4494 -0.0049
vn 0.5761 -0.5606 0.5948
vn 0.0000 -0.9999 0.0111
vn 0.9892 -0.1465 0.0016
vn -0.9892 -0.1465 0.0016
vn 0.4006 0.2974 0.8667
vn -0.8815 0.4577 0.1165
vn -0.0001 0.9799 0.1996
vn 0.9026 0.3766 -0.2086
vn -0.5268 -0.4818 0.7003
vn 0.6977 -0.5804 0.4198
vn 0.9503 -0.0339 -0.3094
vn 0.5131 0.8583 -0.0093
vn 0.7380 -0.6736 -0.0398
vn -0.7374 -0.6727 -0.0613
vn 0.9075 0.4197 -0.0183
vn 0.0000 -0.8388 0.5445
vn 0.2068 -0.0316 0.9779
vn -0.2068 -0.0316 0.9779
vn -0.9434 -0.0350 -0.3298
vn 0.9120 -0.0245 0.4095
vn -0.9120 -0.0245 0.4095
vn 0.8815 0.4577 0.1165
vn -0.7502 0.6611 0.0140
vn 0.7462 0.6646 0.0395
vn 0.0392 -0.0109 -0.9992
vn -0.0002 0.9999 -0.0109
vn -0.5130 0.8584 -0.0094
vn 0.0000 0.0000 -1.0000
vn -1.0000 0.0000 0.0000
vn 1.0000 -0.0002 0.0000
vn 1.0000 0.0000 0.0000
usemtl None
s 1
f 1/1/1 2/2/1 3/3/1 4/4/1 5/5/1
f 6/6/2 7/7/2 8/8/2 9/9/2
f 10/10/3 8/11/3 7/12/3 11/13/3
f 12/14/4 6/15/4 9/16/4 13/17/4
f 14/18/5 15/19/5 16/20/5 17/21/5
f 4/22/6 18/23/6 13/24/6 9/25/6
f 19/26/7 20/27/7 5/28/7 8/29/7 10/30/7
f 9/31/8 8/32/8 5/33/8 4/34/8
f 11/35/9 12/36/9 13/37/9 10/38/9
f 21/39/10 22/40/10 23/41/10 24/42/10 18/43/10
f 25/44/11 26/45/11 27/46/11 28/47/11
f 29/48/12 30/49/12 31/50/12 32/51/12
f 23/52/13 33/53/13 34/54/13 35/55/13 24/56/13
f 36/57/14 3/58/14 37/59/14 38/60/14 39/61/14 40/62/14
f 24/63/15 20/64/15 19/65/15
f 33/66/16 41/67/16 30/68/16 29/69/16 34/70/16
f 42/71/17 43/72/17 44/73/17 45/74/17
f 10/75/18 13/76/18 18/77/18 24/78/18 19/79/18
f 16/80/19 15/81/19 25/82/19 28/83/19
f 42/84/20 45/85/20 27/86/20 26/87/20
f 31/88/21 30/89/21 14/90/21 17/91/21
f 46/92/22 47/93/22 1/94/22 5/95/22 20/96/22
f 23/97/23 22/98/23 48/99/23 41/100/23 33/101/23
f 24/102/24 35/103/24 49/104/24 50/105/24 51/106/24 20/107/24
f 52/108/25 53/109/25 54/110/25 43/111/25 42/112/25
f 3/113/26 36/114/26 21/115/26 18/116/26 4/117/26
f 3/118/27 2/119/27 55/120/27 56/121/27 57/122/27 37/123/27
f 42/124/28 26/125/28 56/126/28 55/127/28 58/128/28 52/129/28
f 59/130/29 60/131/29 61/132/29 62/133/29
f 57/134/30 56/135/30 26/136/30 25/137/30
f 39/138/31 38/139/31 15/140/31 14/141/31
f 53/142/32 46/143/32 20/144/32 51/145/32 54/146/32
f 37/147/33 57/148/33 25/149/33 15/150/33 38/151/33
f 47/152/34 2/153/34 1/154/34
f 36/155/35 22/156/35 21/157/35
f 14/158/36 30/159/36 41/160/36 48/161/36 40/162/36 39/163/36
f 55/164/37 2/165/37 47/166/37 58/167/37
f 48/168/38 22/169/38 36/170/38 40/171/38
f 47/172/39 46/173/39 53/174/39 52/175/39 58/176/39
f 29/177/40 49/178/40 35/179/40 34/180/40
f 50/181/41 43/182/41 54/183/41 51/184/41
f 43/185/42 50/186/42 61/187/42 60/188/42
f 63/189/43 50/190/43 49/191/43 64/192/43
f 65/193/44 66/194/44 67/195/44 68/196/44
f 49/197/45 29/198/45 65/199/45 68/200/45
f 50/201/46 63/202/46 62/203/46 61/204/46
f 64/205/47 49/206/47 68/207/47 67/208/47
f 29/209/46 32/210/46 66/211/46 65/212/46
f 44/213/48 43/214/48 60/215/48 59/216/48
