# Blender v2.93.5 OBJ File: 'Collapser.blend'
# www.blender.org
mtllib BPJ-Collapsator-0.mtl
o Cube.001_Cube.002
v -0.363655 0.891467 0.975493
v -0.320053 0.941630 0.975493
v -0.162225 0.767737 0.840833
v 0.363655 0.891467 0.975493
v 0.320053 0.941630 0.975493
v 0.155286 0.738851 0.814489
v 0.149931 0.810682 0.804291
v -0.172928 0.852180 0.882698
v 0.021419 0.686937 0.778452
v 0.000000 0.901792 0.720334
v 0.172660 0.785746 0.870307
v 0.150523 0.847036 0.863360
v 0.000000 0.774507 1.030984
v 0.000000 0.904478 1.060215
v -0.021419 0.900564 0.814117
v -0.021419 0.672253 0.667681
v -0.247046 0.859645 0.918438
v -0.080915 0.707666 0.797141
v 0.064256 0.836511 0.725420
v 0.247046 0.912338 0.918478
v 0.123523 0.806298 0.990136
v -0.123523 0.910971 1.029467
v 0.094242 0.706956 0.793920
v -0.064256 0.836511 0.725420
v 0.247046 0.846472 0.918429
v -0.123523 0.806298 0.990136
v 0.123523 0.910971 1.029467
v -0.025997 0.912206 0.943798
v 0.064256 0.883428 0.831004
v -0.107488 0.871321 0.866004
v 0.025997 0.786749 0.890037
v -0.085675 0.763450 0.844012
v 0.107291 0.768349 0.852514
v 0.000000 0.826420 1.091338
v 0.000000 0.717575 0.586543
v 0.123523 0.845321 1.012285
v -0.077991 0.789589 0.903888
v -0.085675 0.845417 0.779125
v 0.085675 0.845417 0.779125
v 0.077991 0.905866 0.941203
v -0.103988 0.903252 0.937777
v 0.103988 0.791563 0.909047
v -0.123523 0.845321 1.012285
v -0.221788 0.927761 1.002394
v -0.243589 0.856219 0.983932
v -0.128512 0.833570 0.819646
v -0.175517 0.808645 0.913719
v -0.175517 0.907616 0.927787
v 0.239229 0.870527 0.987624
v 0.175517 0.907616 0.927787
v 0.123523 0.804277 1.084348
v 0.000000 0.738081 1.124466
v 0.240281 0.879672 1.082990
v 0.123523 0.898413 1.119319
v -0.123523 0.804277 1.084348
v 0.123523 0.829395 1.097774
v -0.123523 0.829395 1.097774
v -0.123523 0.898413 1.119319
v -0.221788 0.917595 1.092418
v -0.249527 0.860710 1.078276
v 0.123523 0.765999 1.161519
v 0.000000 0.775456 1.178032
v -0.123523 0.772666 1.166011
v 0.249527 0.823507 1.135947
v -0.249527 0.823507 1.135947
v 0.123523 0.734006 1.226243
v 0.000000 0.621560 1.232317
v 0.000000 0.682199 1.245793
v -0.123523 0.727339 1.221751
v -0.042837 0.826078 0.668288
v -0.061761 0.775899 1.014838
v -0.042837 0.652624 0.741023
v -0.061761 0.906179 1.046648
v -0.061761 0.838075 1.043138
v -0.061761 0.737527 1.119469
v -0.061761 0.800682 1.132229
v -0.061761 0.648259 1.232317
v -0.061761 0.721421 1.223206
v 0.061761 0.906179 1.046648
v 0.061761 0.775899 1.014838
v 0.042837 0.826078 0.668288
v 0.042837 0.653508 0.728722
v 0.061761 0.838075 1.043138
v 0.042837 0.686332 0.656510
v 0.061761 0.737527 1.119469
v 0.061761 0.800682 1.132229
v 0.061761 0.648259 1.232317
v 0.061761 0.721421 1.223206
v 0.000000 0.681101 1.187143
v -0.061761 0.688588 1.187143
v 0.061761 0.688588 1.187143
vt 0.970705 0.508329
vt 0.970707 0.508059
vt 0.970705 0.508109
vt 0.970724 0.509222
vt 0.970727 0.508989
vt 0.970724 0.508922
vt 0.970724 0.508038
vt 0.970726 0.508113
vt 0.970724 0.507831
vt 0.970705 0.507806
vt 0.970707 0.507894
vt 0.970707 0.507693
vt 0.970711 0.507456
vt 0.970716 0.507470
vt 0.970714 0.507270
vt 0.982509 0.521137
vt 0.982506 0.520923
vt 0.982507 0.521190
vt 0.982501 0.519841
vt 0.982502 0.520020
vt 0.982503 0.519877
vt 0.970730 0.507378
vt 0.970733 0.507704
vt 0.970734 0.507560
vt 0.970704 0.508803
vt 0.970701 0.508948
vt 0.970704 0.508944
vt 0.982536 0.521100
vt 0.982536 0.520762
vt 0.982532 0.520832
vt 0.982529 0.521715
vt 0.982531 0.521584
vt 0.982529 0.521374
vt 0.970700 0.507404
vt 0.970700 0.507688
vt 0.970702 0.507455
vt 0.982535 0.521223
vt 0.982529 0.521140
vt 0.982497 0.519440
vt 0.982495 0.519300
vt 0.982495 0.519547
vt 0.982503 0.521038
vt 0.982501 0.520936
vt 0.982501 0.521115
vt 0.970711 0.507767
vt 0.970710 0.508041
vt 0.970713 0.507914
vt 0.970729 0.507892
vt 0.970729 0.508242
vt 0.970732 0.508018
vt 0.974736 0.502603
vt 0.974738 0.502750
vt 0.974739 0.502600
vt 0.982498 0.520151
vt 0.982500 0.520086
vt 0.982498 0.519984
vt 0.970733 0.507196
vt 0.970734 0.507402
vt 0.970736 0.507151
vt 0.982526 0.519530
vt 0.982526 0.519780
vt 0.982529 0.519598
vt 0.982523 0.519638
vt 0.982524 0.519968
vt 0.982501 0.519699
vt 0.982503 0.519639
vt 0.982500 0.519574
vt 0.982506 0.521066
vt 0.982503 0.520875
vt 0.982508 0.521323
vt 0.970716 0.507077
vt 0.970718 0.507333
vt 0.970720 0.507065
vt 0.982510 0.519421
vt 0.982510 0.519671
vt 0.982512 0.519478
vt 0.982506 0.519518
vt 0.970713 0.507686
vt 0.982507 0.519858
vt 0.982520 0.521471
vt 0.982519 0.521324
vt 0.982519 0.521546
vt 0.970727 0.507746
vt 0.970731 0.507805
vt 0.970728 0.507566
vt 0.982521 0.519818
vt 0.974738 0.502455
vt 0.974739 0.502305
vt 0.974736 0.502308
vt 0.970701 0.509098
vt 0.970704 0.509250
vt 0.970704 0.509098
vt 0.982501 0.520730
vt 0.982503 0.521536
vt 0.982501 0.521223
vt 0.970737 0.507703
vt 0.982530 0.519458
vt 0.970734 0.507057
vt 0.970739 0.506899
vt 0.970709 0.507584
vt 0.982514 0.519338
vt 0.970718 0.506936
vt 0.970721 0.506899
vt 0.970701 0.507155
vt 0.970704 0.506901
vt 0.970737 0.507528
vt 0.970742 0.507345
vt 0.970740 0.507265
vt 0.970730 0.508937
vt 0.970730 0.509244
vt 0.970733 0.509208
vt 0.970727 0.509245
vt 0.970730 0.508966
vt 0.970727 0.508932
vt 0.970724 0.509456
vt 0.970727 0.509245
vt 0.970725 0.509255
vt 0.970703 0.507977
vt 0.970701 0.507788
vt 0.970701 0.507989
vt 0.970713 0.509262
vt 0.970710 0.509457
vt 0.970713 0.509464
vt 0.970735 0.507948
vt 0.970722 0.507218
vt 0.970717 0.508951
vt 0.970719 0.509252
vt 0.970720 0.508947
vt 0.970731 0.508335
vt 0.970734 0.508124
vt 0.974705 0.527175
vt 0.974703 0.527280
vt 0.974706 0.527336
vt 0.974701 0.527385
vt 0.974700 0.527517
vt 0.974704 0.527449
vt 0.974711 0.526522
vt 0.974714 0.526463
vt 0.974712 0.526399
vt 0.974706 0.527979
vt 0.974704 0.527864
vt 0.974704 0.528061
vt 0.970729 0.508783
vt 0.970731 0.508678
vt 0.970727 0.508603
vt 0.974741 0.502451
vt 0.970702 0.508307
vt 0.970704 0.508386
vt 0.970704 0.508190
vt 0.970715 0.507600
vt 0.974711 0.526708
vt 0.974712 0.526587
vt 0.974703 0.526962
vt 0.974703 0.527111
vt 0.970718 0.508506
vt 0.970720 0.508355
vt 0.970717 0.508360
vt 0.970736 0.507832
vt 0.982506 0.521646
vt 0.982521 0.520933
vt 0.982519 0.520961
vt 0.982520 0.521128
vt 0.970715 0.508508
vt 0.970713 0.508361
vt 0.970704 0.508660
vt 0.970701 0.508803
vt 0.970722 0.508353
vt 0.970737 0.508042
vt 0.970738 0.507920
vt 0.970704 0.508552
vt 0.970718 0.508801
vt 0.970740 0.507797
vt 0.970720 0.508652
vt 0.970722 0.508500
vt 0.970707 0.508238
vt 0.970727 0.509227
vt 0.970723 0.508342
vt 0.970704 0.508021
vt 0.982501 0.519449
vt 0.982532 0.521419
vt 0.982519 0.520128
vt 0.982520 0.520233
vt 0.982523 0.521081
vt 0.982521 0.521213
vt 0.982499 0.519585
vt 0.982497 0.519574
vt 0.982500 0.519788
vt 0.982519 0.521306
vt 0.970715 0.508804
vt 0.970713 0.508952
vt 0.982495 0.521059
vt 0.982495 0.521295
vt 0.982497 0.521211
vt 0.982525 0.519687
vt 0.982506 0.519398
vt 0.982508 0.519329
vt 0.982503 0.519349
vt 0.982505 0.519985
vt 0.982501 0.520208
vt 0.982503 0.520094
vt 0.982523 0.520148
vt 0.970701 0.509248
vt 0.982503 0.520640
vt 0.982501 0.521443
vt 0.970740 0.507639
vt 0.970733 0.508932
vt 0.970719 0.508059
vt 0.970730 0.509209
vt 0.970727 0.509456
vt 0.970704 0.507768
vt 0.970710 0.509263
vt 0.970720 0.507480
vt 0.970716 0.509255
vt 0.970737 0.508213
vt 0.970722 0.508943
vt 0.974674 0.527103
vt 0.974673 0.527242
vt 0.974676 0.527154
vt 0.970701 0.508059
vt 0.982538 0.521265
vt 0.982497 0.521477
vt 0.982496 0.521608
vt 0.982530 0.520931
vt 0.974709 0.526644
vt 0.982497 0.519729
vt 0.974738 0.502160
vt 0.970701 0.508657
vt 0.970701 0.508500
vn 0.3297 0.2865 -0.8996
vn -0.0558 0.0485 0.9973
vn 0.4543 -0.8243 0.3379
vn -0.4445 0.7564 -0.4799
vn 0.0610 0.9981 0.0064
vn 0.6927 0.6590 -0.2929
vn -0.3573 0.7970 -0.4870
vn 0.0100 -0.9922 -0.1239
vn 0.5479 0.3098 0.7770
vn -0.9385 -0.1294 -0.3200
vn -0.3720 0.3740 -0.8495
vn -0.3503 0.3045 -0.8858
vn -0.6205 -0.3186 -0.7166
vn -0.0193 -0.7203 0.6934
vn 0.9482 0.0257 -0.3167
vn 0.1536 0.9786 0.1368
vn 0.5422 -0.8400 -0.0180
vn 0.2081 0.9019 0.3785
vn 0.1280 -0.6988 0.7037
vn -0.3836 -0.8935 0.2335
vn -0.1237 -0.8748 0.4684
vn 0.0592 -0.7927 0.6067
vn -0.5031 0.7975 -0.3329
vn 0.5543 0.7063 -0.4403
vn 0.6764 0.6369 -0.3699
vn 0.3776 0.9115 0.1630
vn -0.1041 0.7444 -0.6596
vn 0.2331 0.9468 -0.2218
vn 0.0556 0.9954 0.0777
vn -0.3716 0.9234 -0.0960
vn -0.3565 0.5795 -0.7329
vn 0.0882 -0.9899 -0.1113
vn 0.1357 -0.7412 0.6574
vn 0.1270 0.9146 0.3839
vn -0.4507 -0.0459 0.8915
vn 0.4943 0.0804 -0.8656
vn 0.9348 0.0291 -0.3541
vn 0.0687 -0.9366 -0.3435
vn -0.5368 0.7713 -0.3420
vn -0.5313 -0.7765 0.3389
vn -0.2792 -0.9596 -0.0355
vn -0.5508 0.7518 -0.3625
vn 0.0703 0.9951 -0.0688
vn -0.1340 0.7474 -0.6507
vn -0.5810 0.7239 0.3720
vn 0.0845 0.0735 0.9937
vn 0.0154 -0.9844 0.1752
vn 0.4526 -0.3327 -0.8273
vn -0.3305 -0.7931 -0.5116
vn -0.1904 0.6567 0.7297
vn -0.1875 -0.1499 0.9708
vn -0.9025 0.4280 0.0483
vn 1.0000 0.0000 0.0000
vn -1.0000 0.0000 0.0000
vn -0.3847 -0.9228 0.0197
vn 0.6336 -0.7264 -0.2664
vn 0.2979 0.9499 -0.0944
vn 0.1558 0.7596 0.6315
vn 0.3036 -0.8536 -0.4234
vn 0.0934 -0.2160 0.9719
vn -0.0115 0.1236 0.9923
vn -0.0901 -0.7429 -0.6633
vn 0.6963 -0.5354 -0.4780
vn 0.0772 0.5861 0.8066
vn -0.0934 -0.2160 0.9719
vn -0.0237 0.8618 0.5066
vn -0.6259 -0.7273 -0.2815
vn -0.4353 -0.9001 -0.0193
vn -0.5479 0.3098 0.7770
vn 0.0136 0.9979 0.0632
vn -0.9142 -0.1004 -0.3927
vn -0.4251 -0.9038 -0.0493
vn 0.2528 -0.5848 -0.7708
vn -0.0738 0.1232 0.9896
vn 0.0636 0.7076 0.7037
vn -0.0377 -0.9311 -0.3628
vn 0.8605 0.0428 -0.5077
vn 0.1265 -0.9030 -0.4105
vn -0.0238 0.9828 0.1831
vn 0.4507 -0.0459 0.8915
vn 0.2814 0.8602 0.4252
vn 0.0893 -0.7370 -0.6700
vn -0.6758 -0.5719 -0.4650
vn 0.0173 0.7539 0.6568
vn 0.6114 -0.6413 -0.4637
vn 0.0546 -0.8091 -0.5851
vn 0.1764 0.7422 0.6466
vn 0.6154 0.0006 -0.7883
vn -0.2815 -0.1585 0.9464
vn 0.1883 -0.9209 0.3414
vn 0.2784 0.7032 -0.6543
vn -0.0123 0.9975 0.0690
vn 0.1854 0.9811 0.0552
vn -0.7719 0.2012 -0.6031
vn -0.0397 -0.9948 -0.0937
vn 0.0315 -0.7701 0.6372
vn 0.2156 -0.0503 0.9752
vn 0.5062 -0.8585 -0.0819
vn -0.0555 0.5867 -0.8079
vn -0.8058 0.2382 -0.5421
vn 0.0976 -0.8060 0.5838
vn 0.9283 0.3124 -0.2016
vn 0.1376 0.9842 0.1111
vn 0.4852 -0.8709 0.0782
vn 0.0238 0.9828 0.1831
vn 0.0381 -0.6941 0.7188
vn -0.0677 -0.6452 0.7610
vn -0.1818 -0.9789 0.0937
vn -0.0679 -0.9111 0.4065
vn -0.0290 -0.7444 0.6671
vn -0.4872 0.7958 -0.3596
vn 0.4772 0.7911 -0.3826
vn 0.5473 0.7626 -0.3447
vn -0.0242 0.9987 -0.0453
vn 0.4506 0.8621 -0.2317
vn 0.0585 0.9945 -0.0872
vn -0.1054 0.9888 -0.1057
vn -0.0737 0.9125 -0.4024
vn -0.3003 0.5934 -0.7468
vn 0.4574 -0.8878 0.0511
vn -0.0350 -0.9252 0.3779
vn -0.2774 -0.2433 0.9294
vn 0.4955 0.0006 -0.8686
vn 0.8271 -0.5117 -0.2326
vn 0.9341 0.0300 -0.3557
vn 0.0377 -0.9311 -0.3628
vn 0.1123 0.9058 -0.4085
vn -0.5810 -0.8138 -0.0119
vn 0.2031 0.9697 -0.1359
vn 0.1388 -0.9132 0.3831
vn 0.0110 0.8551 0.5183
vn 0.4635 -0.8220 0.3310
vn 0.6671 -0.0557 -0.7429
vn -0.2787 -0.8956 -0.3467
vn 0.2418 -0.2891 0.9262
vn -0.1776 0.6978 0.6940
vn 0.0009 0.7690 0.6393
vn -0.3043 -0.2838 0.9093
vn -0.9484 0.3082 -0.0744
vn -0.4079 -0.9128 -0.0196
vn 0.4353 -0.9001 -0.0193
vn 0.1980 0.9708 0.1357
vn 0.5819 -0.7286 -0.3614
vn 0.1240 0.8338 0.5379
vn 0.3798 -0.6008 -0.7035
vn 0.0237 0.8618 0.5066
vn 0.2736 0.1189 0.9545
vn -0.0772 0.5861 0.8066
vn -0.2528 -0.5848 -0.7708
vn 0.6848 -0.6533 -0.3229
vn 0.0594 0.7745 0.6298
vn -0.6437 -0.5709 -0.5096
vn -0.2736 0.1189 0.9545
vn -0.6336 -0.7264 -0.2664
vn -0.2156 -0.0503 0.9752
vn -0.6764 0.6369 -0.3699
vn -0.7102 0.6871 -0.1532
vn -0.9279 -0.2831 0.2427
vn -0.1270 0.9146 0.3839
vn -0.8993 -0.2784 -0.3372
vn -0.9360 -0.1290 -0.3274
vn 0.0901 -0.7429 -0.6633
vn -0.0687 -0.9366 -0.3435
vn 0.0555 0.5867 -0.8079
vn 0.1125 -0.8798 -0.4618
vn -0.2081 0.9019 0.3785
vn -0.0002 -0.9962 -0.0866
vn -0.5242 -0.7940 0.3080
vn 0.2774 -0.2433 0.9294
vn 0.5380 0.7703 -0.3423
vn -0.0816 0.9965 -0.0155
vn -0.1828 0.7413 0.6458
vn -0.0546 -0.8091 -0.5851
vn -0.6417 -0.6214 -0.4494
vn -0.1764 0.7422 0.6466
vn -0.0893 -0.7370 -0.6700
usemtl None
s off
f 25/1/1 5/2/1 4/3/1
f 45/4/2 2/5/2 1/6/2
f 25/7/3 49/8/3 11/9/3
f 17/10/4 44/11/4 48/12/4
f 28/13/5 79/14/5 40/15/5
f 10/16/6 29/17/6 19/18/6
f 46/19/7 8/20/7 30/21/7
f 37/22/8 13/23/8 71/24/8
f 83/25/9 14/26/9 34/27/9
f 70/28/10 35/29/10 16/30/10
f 17/31/11 8/32/11 3/33/11
f 2/34/12 17/35/12 1/36/12
f 3/33/13 24/37/13 18/38/13
f 72/39/14 9/40/14 18/41/14
f 7/42/15 11/43/15 6/44/15
f 22/45/16 59/46/16 58/47/16
f 21/48/17 53/49/17 51/50/17
f 74/51/18 57/52/18 76/53/18
f 6/54/19 33/55/19 23/56/19
f 47/57/20 26/58/20 45/59/20
f 3/60/21 37/61/21 47/62/21
f 18/63/22 31/64/22 37/61/22
f 38/65/23 15/66/23 24/67/23
f 7/42/24 39/68/24 12/69/24
f 10/16/25 19/18/25 81/70/25
f 50/71/26 27/72/26 49/73/26
f 12/74/27 40/75/27 50/76/27
f 15/66/28 40/75/28 29/77/28
f 28/13/29 22/45/29 73/78/29
f 30/21/30 28/79/30 15/66/30
f 8/80/31 48/81/31 30/82/31
f 42/83/32 80/84/32 31/85/32
f 33/55/33 31/64/33 9/86/33
f 34/87/34 86/88/34 83/89/34
f 73/90/35 43/91/35 74/92/35
f 12/69/36 25/93/36 11/43/36
f 84/94/37 19/18/37 23/95/37
f 13/23/38 75/96/38 71/24/38
f 46/19/39 38/65/39 24/67/39
f 3/60/40 47/62/40 17/97/40
f 17/98/41 45/59/41 1/99/41
f 46/19/42 30/21/42 38/65/42
f 48/12/43 22/45/43 41/100/43
f 12/74/44 50/76/44 20/101/44
f 20/102/45 49/73/45 5/103/45
f 5/103/46 49/104/46 4/105/46
f 11/9/47 21/48/47 42/83/47
f 19/18/48 6/44/48 23/95/48
f 55/106/49 65/107/49 60/108/49
f 56/109/50 64/110/50 53/111/50
f 57/112/51 59/113/51 60/114/51
f 44/115/52 60/116/52 59/117/52
f 22/118/53 57/119/53 43/120/53
f 27/121/54 56/122/54 54/123/54
f 26/58/55 60/108/55 45/59/55
f 80/84/56 51/50/56 85/124/56
f 27/72/57 53/125/57 49/73/57
f 57/126/58 65/127/58 63/128/58
f 51/50/59 64/129/59 61/130/59
f 87/131/60 68/132/60 67/133/60
f 78/134/61 69/135/61 77/136/61
f 89/137/62 77/138/62 90/139/62
f 91/140/63 66/141/63 87/142/63
f 78/143/64 68/144/64 62/145/64
f 68/132/65 77/136/65 67/133/65
f 34/87/66 76/53/66 62/146/66
f 75/147/67 63/148/67 55/149/67
f 71/24/68 55/106/68 26/58/68
f 14/26/69 74/92/69 34/27/69
f 28/13/70 73/78/70 14/150/70
f 24/37/71 16/30/71 18/38/71
f 37/22/72 71/24/72 26/58/72
f 89/137/73 87/151/73 67/152/73
f 66/153/74 88/154/74 87/131/74
f 86/155/75 61/156/75 56/157/75
f 13/23/76 85/124/76 52/158/76
f 35/159/77 81/70/77 84/94/77
f 16/160/78 84/161/78 82/162/78
f 83/163/79 56/157/79 36/164/79
f 36/165/80 79/166/80 83/25/80
f 86/155/81 66/167/81 61/156/81
f 52/158/82 91/168/82 89/169/82
f 75/147/83 69/170/83 63/148/83
f 76/171/84 63/128/84 78/143/84
f 85/124/85 61/130/85 91/168/85
f 52/158/86 90/172/86 75/96/86
f 86/155/87 62/173/87 88/174/87
f 25/1/88 20/175/88 5/2/88
f 45/4/89 44/176/89 2/5/89
f 25/7/90 4/177/90 49/8/90
f 17/10/91 2/178/91 44/11/91
f 28/13/92 14/150/92 79/14/92
f 10/179/93 15/66/93 29/77/93
f 46/180/94 3/33/94 8/32/94
f 37/22/95 31/85/95 13/23/95
f 6/181/96 11/182/96 33/55/96
f 83/25/97 79/166/97 14/26/97
f 72/183/98 16/160/98 9/184/98
f 70/185/99 10/186/99 35/187/99
f 3/33/100 46/180/100 24/37/100
f 9/184/101 82/162/101 23/188/101
f 7/42/102 12/69/102 11/43/102
f 22/45/103 44/11/103 59/46/103
f 21/48/104 49/8/104 53/49/104
f 74/189/105 43/190/105 57/126/105
f 23/56/106 33/55/106 9/86/106
f 3/191/107 18/192/107 32/193/107
f 47/57/108 37/22/108 26/58/108
f 3/60/109 32/194/109 37/61/109
f 18/63/110 9/86/110 31/64/110
f 38/65/111 30/21/111 15/66/111
f 12/74/112 39/195/112 29/77/112
f 7/196/113 19/197/113 39/195/113
f 50/71/114 40/15/114 27/72/114
f 12/74/115 29/77/115 40/75/115
f 15/66/116 28/79/116 40/75/116
f 28/13/117 41/100/117 22/45/117
f 30/21/118 41/198/118 28/79/118
f 8/20/119 17/199/119 48/200/119
f 42/83/120 21/48/120 80/84/120
f 33/55/121 42/201/121 31/64/121
f 73/90/122 22/202/122 43/91/122
f 12/69/123 20/203/123 25/93/123
f 82/204/124 84/94/124 23/95/124
f 84/94/125 81/70/125 19/18/125
f 13/23/126 52/158/126 75/96/126
f 30/21/127 48/200/127 41/198/127
f 17/98/128 47/57/128 45/59/128
f 48/12/129 44/11/129 22/45/129
f 33/55/130 11/182/130 42/201/130
f 20/102/131 50/71/131 49/73/131
f 11/9/132 49/8/132 21/48/132
f 19/18/133 7/42/133 6/44/133
f 55/106/134 63/205/134 65/107/134
f 53/111/135 54/206/135 56/109/135
f 56/157/136 61/156/136 64/207/136
f 76/171/137 57/126/137 63/128/137
f 57/112/138 58/208/138 59/113/138
f 44/115/139 45/209/139 60/116/139
f 22/118/53 58/210/53 57/119/53
f 27/121/54 36/211/54 56/122/54
f 26/58/140 55/106/140 60/108/140
f 80/84/141 21/48/141 51/50/141
f 27/72/142 54/212/142 53/125/142
f 85/124/143 51/50/143 61/130/143
f 57/126/144 60/213/144 65/127/144
f 51/50/145 53/49/145 64/129/145
f 34/87/146 62/146/146 86/88/146
f 87/131/147 88/154/147 68/132/147
f 88/174/148 62/145/148 68/144/148
f 89/137/149 67/152/149 77/138/149
f 91/168/150 61/130/150 66/214/150
f 78/143/151 63/128/151 69/215/151
f 90/216/152 77/217/152 69/218/152
f 68/132/153 78/134/153 77/136/153
f 71/219/154 75/147/154 55/149/154
f 14/26/155 73/90/155 74/92/155
f 10/220/156 70/28/156 24/37/156
f 10/179/157 24/67/157 15/66/157
f 32/221/158 18/192/158 37/222/158
f 34/87/159 74/51/159 76/53/159
f 18/38/160 16/30/160 72/223/160
f 24/37/161 70/28/161 16/30/161
f 89/137/162 91/224/162 87/151/162
f 13/23/163 80/84/163 85/124/163
f 35/187/164 10/186/164 81/225/164
f 16/160/165 35/29/165 84/161/165
f 83/89/166 86/88/166 56/226/166
f 31/85/167 80/84/167 13/23/167
f 9/184/168 16/160/168 82/162/168
f 36/165/169 27/227/169 79/166/169
f 39/195/170 19/197/170 29/77/170
f 40/15/171 79/14/171 27/72/171
f 86/155/172 88/174/172 66/167/172
f 52/158/173 85/124/173 91/168/173
f 75/147/174 90/228/174 69/170/174
f 76/171/175 78/143/175 62/173/175
f 52/158/176 89/169/176 90/172/176
