# Blender v2.93.5 OBJ File: 'SmallRocks.blend'
# www.blender.org
o Cube
v 0.154470 -0.008208 -0.382169
v 0.102965 -0.010669 -0.500096
v -0.105554 -0.008994 -0.521242
v 0.013036 0.078474 -0.524245
v -0.073280 0.088905 -0.663521
v -0.157355 -0.005929 -0.678203
v -0.043785 0.099251 -0.591175
v -0.038462 0.075955 -0.482809
v 0.082514 0.051052 -0.350333
v 0.540298 0.012639 0.163403
v 0.584227 0.002085 0.005385
v 0.352626 0.009126 0.167765
v 0.376729 0.049065 0.158563
v 0.575804 0.042198 0.025377
v 0.506532 0.076985 0.021319
v 0.355478 0.053968 -0.077167
v 0.335420 -0.003719 -0.114635
v 0.450500 0.096373 -0.006954
v 0.403140 0.067012 0.126503
v 0.508545 0.039399 0.127117
v 0.153579 0.032219 0.624184
v -0.142272 0.005977 0.339209
v -0.068676 0.000317 0.796232
v -0.066490 0.089332 0.772249
v -0.110265 0.092228 0.379948
v 0.029133 0.194024 0.549295
v -0.206115 0.118941 0.470989
v -0.269019 0.013111 0.458729
v -0.158266 0.165622 0.581376
v -0.009297 0.164851 0.678131
v 0.127997 0.118010 0.611778
v -0.430028 -0.011345 -0.068045
v -0.360489 -0.013845 -0.355387
v -0.705492 -0.073128 -0.060620
v -0.737731 0.042539 -0.106016
v -0.321889 0.038298 -0.393763
v -0.401401 0.157486 -0.184373
v -0.517568 0.081468 -0.372585
v -0.490398 -0.036297 -0.396998
v -0.541605 0.142614 -0.298855
v -0.632948 0.139047 -0.078385
v -0.486560 0.088215 -0.007940
vt 0.987754 0.369379
vt 0.987754 0.447385
vt 0.959303 0.371027
vt 0.957654 0.332226
vt 0.946730 0.301947
vt 0.940357 0.411169
vt 0.262817 0.313059
vt 0.296352 0.431668
vt 0.244916 0.475638
vt 0.241241 0.363053
vt 0.208126 0.904663
vt 0.254622 0.894303
vt 0.256274 0.941925
vt 0.243096 0.971834
vt 0.531994 0.846804
vt 0.505381 0.790682
vt 0.531994 0.750312
vt 0.296352 0.330846
vt 0.200895 0.971834
vt 0.957544 0.462605
vt 0.982126 0.547872
vt 0.940357 0.547872
vt 0.968496 0.471463
vt 0.927971 0.936330
vt 0.882255 0.942479
vt 0.879724 0.894734
vt 0.903026 0.879292
vt 0.258379 0.578574
vt 0.241241 0.540734
vt 0.250168 0.518087
vt 0.265637 0.488772
vt 0.849495 0.901658
vt 0.946978 0.285048
vt 0.868448 0.285048
vt 0.868096 0.164312
vt 0.969585 0.218208
vt 0.940195 0.950389
vt 0.940195 0.849781
vt 0.522345 0.934991
vt 0.510779 0.918964
vt 0.505381 0.865466
vt 0.522345 0.855662
vt 0.530611 0.741454
vt 0.510626 0.738884
vt 0.505381 0.637152
vt 0.530611 0.619386
vt 0.960039 0.699674
vt 0.943605 0.689188
vt 0.949732 0.638721
vt 0.960039 0.628904
vt 0.282829 0.585827
vt 0.282829 0.484497
vt 0.745553 0.301947
vt 0.840637 0.316572
vt 0.815109 0.436549
vt 0.713734 0.422608
vt 0.707204 0.449803
vt 0.840637 0.606885
vt 0.826335 0.291645
vt 0.761143 0.119575
vt 0.804407 0.004429
vt 0.828036 0.884008
vt 0.709417 0.935034
vt 0.707204 0.730689
vt 0.828036 0.615744
vt 0.173208 0.995571
vt 0.108337 0.979288
vt 0.140074 0.867038
vt 0.173208 0.847938
vt 0.909901 0.144244
vt 0.868096 0.061858
vt 0.909587 0.004429
vt 0.973252 0.155454
vt 0.973252 0.011100
vt 0.931499 0.608410
vt 0.869580 0.620045
vt 0.849495 0.502908
vt 0.916021 0.486200
vt 0.859238 0.290979
vt 0.859238 0.026817
vt 0.901151 0.301947
vt 0.931499 0.319790
vt 0.756427 0.303620
vt 0.842809 0.318646
vt 0.818029 0.422829
vt 0.725327 0.424202
vt 0.722463 0.467767
vt 0.838467 0.607318
vt 0.830098 0.291569
vt 0.766090 0.106407
vt 0.810677 0.006989
vt 0.828036 0.853330
vt 0.709417 0.935034
vt 0.721022 0.717544
vt 0.828036 0.646422
vt 0.173208 0.995571
vt 0.104919 0.978801
vt 0.132397 0.866128
vt 0.170738 0.840277
vt 0.917145 0.145526
vt 0.872877 0.071280
vt 0.909587 0.004429
vt 0.973026 0.154907
vt 0.973252 0.011100
vt 0.931499 0.608410
vt 0.869580 0.620045
vt 0.855402 0.479927
vt 0.917791 0.467169
vt 0.859238 0.260769
vt 0.859238 0.057026
vt 0.904621 0.303988
vt 0.924943 0.334206
vn 0.0776 0.9846 0.1563
vn 0.6943 0.6082 -0.3848
vn 0.7165 0.6740 -0.1799
vn -0.0081 -1.0000 0.0009
vn -0.7928 0.5778 0.1941
vn -0.6937 0.2408 0.6788
vn -0.3245 -0.7222 0.6108
vn -0.7425 0.6185 0.2571
vn 0.5451 0.7987 -0.2547
vn 0.5256 -0.3456 -0.7774
vn 0.2165 0.9287 0.3009
vn 0.4146 0.5085 -0.7547
vn 0.4144 0.8600 0.2976
vn 0.0071 -0.9985 0.0535
vn -0.4571 0.8880 0.0501
vn 0.1997 0.7757 0.5987
vn 0.1024 0.5685 0.8163
vn -0.9160 0.3964 0.0619
vn 0.7771 0.5440 0.3164
vn 0.3912 0.4312 -0.8131
vn 0.1321 0.9576 0.2562
vn -0.1674 0.9128 -0.3725
vn 0.6554 0.2737 -0.7040
vn 0.0533 -0.9984 -0.0210
vn -0.6768 0.5112 0.5297
vn 0.5092 0.4933 0.7053
vn 0.5840 0.2396 0.7756
vn -0.8319 0.3058 0.4631
vn 0.6877 0.0929 -0.7201
vn -0.5688 0.4677 -0.6765
vn 0.0054 0.9831 0.1828
vn 0.2034 0.8578 -0.4720
vn 0.9107 -0.0975 0.4013
vn 0.2003 -0.9790 0.0375
vn -0.6931 0.6060 -0.3904
vn -0.3838 0.1561 0.9101
vn -0.1432 -0.1262 0.9816
vn -0.7702 -0.2488 -0.5873
vn 0.9440 0.0653 0.3234
vn 0.0570 -0.0856 -0.9947
s off
f 8/1/1 9/2/1 4/3/1 7/4/1
f 5/5/2 7/4/2 4/3/2 2/6/2
f 2/6/3 4/3/3 9/2/3
f 1/7/4 3/8/4 6/9/4 2/10/4
f 3/11/5 8/12/5 7/13/5 5/14/5
f 9/15/6 8/16/6 3/17/6
f 1/7/7 9/18/7 3/8/7
f 3/11/8 5/14/8 6/19/8
f 2/6/9 9/2/9 1/20/9
f 6/21/10 5/22/10 2/23/10
f 19/24/11 20/25/11 15/26/11 18/27/11
f 16/28/12 18/29/12 15/30/12 14/31/12
f 14/32/13 15/26/13 20/25/13
f 10/33/14 12/34/14 17/35/14 11/36/14
f 13/37/15 19/24/15 18/27/15 16/38/15
f 20/25/16 19/24/16 13/37/16
f 10/39/17 20/40/17 13/41/17 12/42/17
f 12/43/18 13/44/18 16/45/18 17/46/18
f 11/47/19 14/48/19 20/49/19 10/50/19
f 17/51/20 16/28/20 14/31/20 11/52/20
f 30/53/21 31/54/21 26/55/21 29/56/21
f 27/57/22 29/56/22 26/55/22 25/58/22
f 25/59/23 26/60/23 31/61/23
f 21/62/24 23/63/24 28/64/24 22/65/24
f 24/66/25 30/67/25 29/68/25 27/69/25
f 31/70/26 30/71/26 24/72/26
f 21/73/27 31/70/27 24/72/27 23/74/27
f 23/75/28 24/76/28 27/77/28 28/78/28
f 22/79/29 25/59/29 31/61/29 21/80/29
f 28/78/30 27/77/30 25/81/30 22/82/30
f 41/83/31 42/84/31 37/85/31 40/86/31
f 38/87/32 40/86/32 37/85/32 36/88/32
f 36/89/33 37/90/33 42/91/33
f 32/92/34 34/93/34 39/94/34 33/95/34
f 35/96/35 41/97/35 40/98/35 38/99/35
f 42/100/36 41/101/36 35/102/36
f 32/103/37 42/100/37 35/102/37 34/104/37
f 34/105/38 35/106/38 38/107/38 39/108/38
f 33/109/39 36/89/39 42/91/39 32/110/39
f 39/108/40 38/107/40 36/111/40 33/112/40
