# MagicaVoxel @ Ephtracy

# group
o 

# material
mtllib MediumRock3_LOD0.mtl
usemtl palette

# normals
vn -1 0 0
vn 1 0 0
vn 0 0 1
vn 0 0 -1
vn 0 -1 0
vn 0 1 0

# texcoords
vt 0.939453 0.5
vt 0.986328 0.5
vt 0.990234 0.5
vt 0.994141 0.5

# verts
v -0.2 -0.1 0.1
v -0.2 -0.1 -0.1
v -0.2 -0.1 -0.2
v -0.2 -0.1 -0.3
v -0.2 0 0.1
v -0.2 0 0
v -0.2 0 -0.1
v -0.2 0 -0.2
v -0.2 0 -0.3
v -0.2 0.1 0
v -0.2 0.1 -0.1
v -0.1 -0.1 0.2
v -0.1 -0.1 0.1
v -0.1 0 0.2
v -0.1 0 0.1
v -0.1 0 0
v -0.1 0 -0.1
v -0.1 0 -0.2
v -0.1 0 -0.3
v -0.1 0.1 0.1
v -0.1 0.1 0
v -0.1 0.1 -0.1
v -0.1 0.1 -0.2
v -0.1 0.1 -0.3
v -0.1 0.2 -0.2
v -0.1 0.2 -0.3
v 0 -0.1 0.3
v 0 -0.1 0.2
v 0 0 0.3
v 0 0 0.2
v 0 0.1 0.1
v 0 0.1 0
v 0 0.1 -0.1
v 0 0.1 -0.2
v 0 0.2 0.1
v 0 0.2 0
v 0 0.2 -0.1
v 0 0.2 -0.2
v 0.1 0 0.2
v 0.1 0 0.1
v 0.1 0.1 0.2
v 0.1 0.1 0.1
v 0.1 0.2 0
v 0.1 0.2 -0.1
v 0.1 0.2 -0.2
v 0.1 0.3 0
v 0.1 0.3 -0.1
v 0.1 0.3 -0.2
v 0.2 -0.1 0.3
v 0.2 -0.1 0.2
v 0.2 0 0.3
v 0.2 0 0.2
v 0.2 0.1 -0.2
v 0.2 0.1 -0.3
v 0.2 0.2 -0.2
v 0.2 0.2 -0.3
v 0.3 -0.1 0.2
v 0.3 -0.1 0
v 0.3 -0.1 -0.1
v 0.3 -0.1 -0.3
v 0.3 0 0.2
v 0.3 0 0.1
v 0.3 0 -0.1
v 0.3 0 -0.2
v 0.3 0 -0.3
v 0.3 0.1 0.2
v 0.3 0.1 0.1
v 0.3 0.1 0
v 0.3 0.1 -0.1
v 0.3 0.1 -0.2
v 0.3 0.1 -0.3
v 0.3 0.2 0.1
v 0.3 0.2 0
v 0.3 0.2 -0.1
v 0.3 0.3 0
v 0.3 0.3 -0.1
v 0.3 0.3 -0.2
v 0 -0.1 0.3
v 0 0 0.3
v 0.1 -0.1 0.3
v 0.1 0 0.3
v 0.2 -0.1 0.3
v 0.2 0 0.3
v -0.1 -0.1 0.2
v -0.1 0 0.2
v 0 -0.1 0.2
v 0 0 0.2
v 0.1 0 0.2
v 0.1 0.1 0.2
v 0.2 -0.1 0.2
v 0.2 0 0.2
v 0.2 0.1 0.2
v 0.3 -0.1 0.2
v 0.3 0 0.2
v 0.3 0.1 0.2
v -0.2 -0.1 0.1
v -0.2 0 0.1
v -0.1 -0.1 0.1
v -0.1 0 0.1
v -0.1 0.1 0.1
v 0 0 0.1
v 0 0.1 0.1
v 0 0.2 0.1
v 0.1 0 0.1
v 0.1 0.1 0.1
v 0.1 0.2 0.1
v 0.2 0.1 0.1
v 0.2 0.2 0.1
v 0.3 0.1 0.1
v 0.3 0.2 0.1
v -0.2 0 0
v -0.2 0.1 0
v -0.1 0 0
v -0.1 0.1 0
v 0.1 0.2 0
v 0.1 0.3 0
v 0.2 0.2 0
v 0.2 0.3 0
v 0.3 0.2 0
v 0.3 0.3 0
v -0.1 0.1 -0.2
v -0.1 0.2 -0.2
v 0 0.1 -0.2
v 0 0.2 -0.2
v -0.2 0 -0.1
v -0.2 0.1 -0.1
v -0.1 0 -0.1
v -0.1 0.1 -0.1
v 0.1 0.2 -0.2
v 0.1 0.3 -0.2
v 0.2 0.1 -0.2
v 0.2 0.2 -0.2
v 0.2 0.3 -0.2
v 0.3 0.1 -0.2
v 0.3 0.3 -0.2
v -0.2 -0.1 -0.3
v -0.2 0 -0.3
v -0.1 0 -0.3
v -0.1 0.1 -0.3
v -0.1 0.2 -0.3
v 0 0 -0.3
v 0 0.1 -0.3
v 0 0.2 -0.3
v 0.1 -0.1 -0.3
v 0.1 0.1 -0.3
v 0.2 -0.1 -0.3
v 0.2 0 -0.3
v 0.2 0.1 -0.3
v 0.2 0.2 -0.3
v 0.3 -0.1 -0.3
v 0.3 0 -0.3
v 0.3 0.1 -0.3
v 0 -0.1 0.3
v 0.1 -0.1 0.3
v 0.2 -0.1 0.3
v -0.1 -0.1 0.2
v 0 -0.1 0.2
v 0.1 -0.1 0.2
v 0.2 -0.1 0.2
v 0.3 -0.1 0.2
v -0.2 -0.1 0.1
v -0.1 -0.1 0.1
v 0 -0.1 0.1
v 0.1 -0.1 0.1
v 0.2 -0.1 0
v 0.3 -0.1 0
v -0.2 -0.1 -0.1
v -0.1 -0.1 -0.1
v 0.2 -0.1 -0.1
v 0.3 -0.1 -0.1
v -0.2 -0.1 -0.2
v -0.1 -0.1 -0.2
v 0.1 -0.1 -0.2
v 0.2 -0.1 -0.2
v -0.2 -0.1 -0.3
v 0.1 -0.1 -0.3
v 0.2 -0.1 -0.3
v 0.3 -0.1 -0.3
v 0 0 0.3
v 0.1 0 0.3
v 0.2 0 0.3
v -0.1 0 0.2
v 0 0 0.2
v 0.1 0 0.2
v 0.2 0 0.2
v -0.2 0 0.1
v -0.1 0 0.1
v 0 0 0.1
v 0.1 0 0.1
v -0.2 0 0
v -0.1 0 0
v -0.2 0 -0.1
v -0.1 0 -0.1
v -0.2 0 -0.2
v -0.1 0 -0.2
v -0.2 0 -0.3
v -0.1 0 -0.3
v 0.1 0.1 0.2
v 0.2 0.1 0.2
v 0.3 0.1 0.2
v -0.1 0.1 0.1
v 0 0.1 0.1
v 0.1 0.1 0.1
v 0.2 0.1 0.1
v 0.3 0.1 0.1
v -0.2 0.1 0
v -0.1 0.1 0
v 0 0.1 0
v -0.2 0.1 -0.1
v -0.1 0.1 -0.1
v 0 0.1 -0.1
v -0.1 0.1 -0.2
v 0 0.1 -0.2
v 0.2 0.1 -0.2
v 0.3 0.1 -0.2
v 0.2 0.1 -0.3
v 0.3 0.1 -0.3
v 0 0.2 0.1
v 0.1 0.2 0.1
v 0.2 0.2 0.1
v 0.3 0.2 0.1
v 0 0.2 0
v 0.1 0.2 0
v 0.2 0.2 0
v 0.3 0.2 0
v 0 0.2 -0.1
v 0.1 0.2 -0.1
v -0.1 0.2 -0.2
v 0 0.2 -0.2
v 0.1 0.2 -0.2
v 0.2 0.2 -0.2
v -0.1 0.2 -0.3
v 0 0.2 -0.3
v 0.2 0.2 -0.3
v 0.1 0.3 0
v 0.2 0.3 0
v 0.3 0.3 0
v 0.1 0.3 -0.1
v 0.2 0.3 -0.1
v 0.3 0.3 -0.1
v 0.1 0.3 -0.2
v 0.2 0.3 -0.2
v 0.3 0.3 -0.2

# faces
f 5/1/1 2/1/1 1/1/1
f 6/1/1 2/1/1 5/1/1
f 7/4/1 3/4/1 2/4/1
f 7/1/1 2/1/1 6/1/1
f 8/1/1 4/1/1 3/1/1
f 8/4/1 3/4/1 7/4/1
f 9/1/1 4/1/1 8/1/1
f 10/4/1 7/4/1 6/4/1
f 11/4/1 7/4/1 10/4/1
f 14/4/1 13/4/1 12/4/1
f 15/4/1 13/4/1 14/4/1
f 20/4/1 16/4/1 15/4/1
f 21/4/1 16/4/1 20/4/1
f 22/4/1 19/4/1 18/4/1
f 22/4/1 18/4/1 17/4/1
f 23/4/1 19/4/1 22/4/1
f 24/4/1 19/4/1 23/4/1
f 25/3/1 24/3/1 23/3/1
f 26/3/1 24/3/1 25/3/1
f 29/4/1 28/4/1 27/4/1
f 30/4/1 28/4/1 29/4/1
f 35/2/1 32/2/1 31/2/1
f 36/4/1 33/4/1 32/4/1
f 36/2/1 32/2/1 35/2/1
f 37/3/1 34/3/1 33/3/1
f 37/4/1 33/4/1 36/4/1
f 38/3/1 34/3/1 37/3/1
f 41/3/1 40/3/1 39/3/1
f 42/3/1 40/3/1 41/3/1
f 46/3/1 44/3/1 43/3/1
f 47/2/1 45/2/1 44/2/1
f 47/3/1 44/3/1 46/3/1
f 48/2/1 45/2/1 47/2/1
f 49/1/2 50/1/2 51/1/2
f 51/1/2 50/1/2 52/1/2
f 53/2/2 54/2/2 55/2/2
f 55/2/2 54/2/2 56/2/2
f 57/1/2 58/1/2 61/1/2
f 61/1/2 58/1/2 62/1/2
f 59/1/2 60/1/2 63/1/2
f 58/4/2 59/4/2 63/4/2
f 63/1/2 60/1/2 64/1/2
f 64/1/2 60/1/2 65/1/2
f 61/4/2 62/4/2 66/4/2
f 62/1/2 58/1/2 67/1/2
f 66/4/2 62/4/2 67/4/2
f 58/4/2 63/4/2 68/4/2
f 67/1/2 58/1/2 68/1/2
f 63/4/2 64/4/2 68/4/2
f 68/4/2 64/4/2 69/4/2
f 64/3/2 65/3/2 70/3/2
f 69/4/2 64/4/2 70/4/2
f 70/3/2 65/3/2 71/3/2
f 67/4/2 68/4/2 72/4/2
f 68/1/2 69/1/2 73/1/2
f 72/4/2 68/4/2 73/4/2
f 69/3/2 70/3/2 74/3/2
f 73/1/2 69/1/2 74/1/2
f 73/2/2 74/2/2 75/2/2
f 74/3/2 70/3/2 76/3/2
f 75/2/2 74/2/2 76/2/2
f 76/3/2 70/3/2 77/3/2
f 80/4/3 79/4/3 78/4/3
f 81/4/3 79/4/3 80/4/3
f 82/1/3 81/1/3 80/1/3
f 83/1/3 81/1/3 82/1/3
f 86/4/3 85/4/3 84/4/3
f 87/4/3 85/4/3 86/4/3
f 91/3/3 89/3/3 88/3/3
f 92/3/3 89/3/3 91/3/3
f 93/1/3 91/1/3 90/1/3
f 94/4/3 92/4/3 91/4/3
f 94/1/3 91/1/3 93/1/3
f 95/4/3 92/4/3 94/4/3
f 98/1/3 97/1/3 96/1/3
f 99/1/3 97/1/3 98/1/3
f 101/4/3 100/4/3 99/4/3
f 102/4/3 100/4/3 101/4/3
f 104/1/3 102/1/3 101/1/3
f 105/2/3 103/2/3 102/2/3
f 105/1/3 102/1/3 104/1/3
f 106/2/3 103/2/3 105/2/3
f 107/3/3 106/3/3 105/3/3
f 108/3/3 106/3/3 107/3/3
f 109/4/3 108/4/3 107/4/3
f 110/4/3 108/4/3 109/4/3
f 113/4/3 112/4/3 111/4/3
f 114/4/3 112/4/3 113/4/3
f 117/3/3 116/3/3 115/3/3
f 118/3/3 116/3/3 117/3/3
f 119/2/3 118/2/3 117/2/3
f 120/2/3 118/2/3 119/2/3
f 123/3/3 122/3/3 121/3/3
f 124/3/3 122/3/3 123/3/3
f 125/4/4 126/4/4 127/4/4
f 127/4/4 126/4/4 128/4/4
f 129/2/4 130/2/4 132/2/4
f 132/2/4 130/2/4 133/2/4
f 131/3/4 132/3/4 134/3/4
f 132/3/4 133/3/4 134/3/4
f 134/3/4 133/3/4 135/3/4
f 136/1/4 137/1/4 138/1/4
f 136/1/4 138/1/4 141/1/4
f 138/4/4 139/4/4 141/4/4
f 139/3/4 140/3/4 142/3/4
f 141/4/4 139/4/4 142/4/4
f 142/3/4 140/3/4 143/3/4
f 136/1/4 141/1/4 144/1/4
f 141/1/4 142/1/4 144/1/4
f 142/2/4 143/2/4 145/2/4
f 144/1/4 142/1/4 145/1/4
f 144/4/4 145/4/4 146/4/4
f 146/4/4 145/4/4 147/4/4
f 145/2/4 143/2/4 148/2/4
f 147/4/4 145/4/4 148/4/4
f 148/2/4 143/2/4 149/2/4
f 146/1/4 147/1/4 150/1/4
f 147/3/4 148/3/4 151/3/4
f 150/1/4 147/1/4 151/1/4
f 151/3/4 148/3/4 152/3/4
f 157/4/5 154/4/5 153/4/5
f 158/1/5 155/1/5 154/1/5
f 158/4/5 154/4/5 157/4/5
f 159/1/5 155/1/5 158/1/5
f 162/4/5 157/4/5 156/4/5
f 163/3/5 158/3/5 157/3/5
f 163/4/5 157/4/5 162/4/5
f 164/1/5 160/1/5 159/1/5
f 164/3/5 158/3/5 163/3/5
f 164/1/5 159/1/5 158/1/5
f 165/1/5 163/1/5 162/1/5
f 165/1/5 160/1/5 164/1/5
f 165/1/5 164/1/5 163/1/5
f 165/1/5 162/1/5 161/1/5
f 166/1/5 160/1/5 165/1/5
f 167/1/5 165/1/5 161/1/5
f 168/1/5 165/1/5 167/1/5
f 169/4/5 166/4/5 165/4/5
f 169/1/5 165/1/5 168/1/5
f 170/4/5 166/4/5 169/4/5
f 171/4/5 168/4/5 167/4/5
f 172/1/5 169/1/5 168/1/5
f 172/4/5 168/4/5 171/4/5
f 172/1/5 170/1/5 169/1/5
f 173/1/5 170/1/5 172/1/5
f 174/1/5 170/1/5 173/1/5
f 175/1/5 172/1/5 171/1/5
f 175/1/5 173/1/5 172/1/5
f 176/4/5 174/4/5 173/4/5
f 176/1/5 173/1/5 175/1/5
f 177/1/5 170/1/5 174/1/5
f 177/4/5 174/4/5 176/4/5
f 178/1/5 170/1/5 177/1/5
f 179/4/6 180/4/6 183/4/6
f 180/1/6 181/1/6 184/1/6
f 183/4/6 180/4/6 184/4/6
f 184/1/6 181/1/6 185/1/6
f 182/4/6 183/4/6 187/4/6
f 183/3/6 184/3/6 188/3/6
f 187/4/6 183/4/6 188/4/6
f 188/3/6 184/3/6 189/3/6
f 186/1/6 187/1/6 190/1/6
f 190/1/6 187/1/6 191/1/6
f 192/4/6 193/4/6 194/4/6
f 194/4/6 193/4/6 195/4/6
f 194/1/6 195/1/6 196/1/6
f 196/1/6 195/1/6 197/1/6
f 198/3/6 199/3/6 203/3/6
f 199/4/6 200/4/6 204/4/6
f 203/3/6 199/3/6 204/3/6
f 204/4/6 200/4/6 205/4/6
f 201/4/6 202/4/6 207/4/6
f 207/4/6 202/4/6 208/4/6
f 206/4/6 207/4/6 209/4/6
f 207/1/6 208/1/6 210/1/6
f 209/4/6 207/4/6 210/4/6
f 210/1/6 208/1/6 211/1/6
f 210/4/6 211/4/6 212/4/6
f 212/4/6 211/4/6 213/4/6
f 214/3/6 215/3/6 216/3/6
f 216/3/6 215/3/6 217/3/6
f 218/2/6 219/2/6 222/2/6
f 219/3/6 220/3/6 223/3/6
f 222/2/6 219/2/6 223/2/6
f 220/4/6 221/4/6 224/4/6
f 223/3/6 220/3/6 224/3/6
f 224/4/6 221/4/6 225/4/6
f 222/4/6 223/4/6 226/4/6
f 226/4/6 223/4/6 227/4/6
f 226/3/6 227/3/6 229/3/6
f 229/3/6 227/3/6 230/3/6
f 228/3/6 229/3/6 232/3/6
f 229/2/6 230/2/6 233/2/6
f 232/3/6 229/3/6 233/3/6
f 230/2/6 231/2/6 233/2/6
f 233/2/6 231/2/6 234/2/6
f 235/3/6 236/3/6 238/3/6
f 236/2/6 237/2/6 239/2/6
f 238/3/6 236/3/6 239/3/6
f 239/2/6 237/2/6 240/2/6
f 238/2/6 239/2/6 241/2/6
f 239/3/6 240/3/6 242/3/6
f 241/2/6 239/2/6 242/2/6
f 242/3/6 240/3/6 243/3/6
