# MagicaVoxel @ Ephtracy

# group
o 

# material
mtllib Mini-Bot_Wizard_LOD2-0.mtl
usemtl palette

# normals
vn 1 0 0
vn -1 0 0
vn 0 0 -1
vn 0 0 1
vn 0 -1 0
vn 0 1 0

# texcoords
vt 0.970703 0.5
vt 0.974609 0.5
vt 0.978516 0.5

# verts
v 0.8 1.8 -0.3
v 0.8 1.8 -0.1
v 0.8 1.8 0.1
v 0.8 1.8 0.3
v 0.8 2.1 -0.1
v 0.8 2.1 0.1
v 0.8 2.3 -0.3
v 0.8 2.3 0.3
v 0.7 1.6 -0.3
v 0.7 1.6 -0.1
v 0.7 1.6 0.1
v 0.7 1.6 0.3
v 0.7 1.8 -0.3
v 0.7 1.8 -0.1
v 0.7 1.8 0.1
v 0.7 1.8 0.3
v 0.7 2.3 -0.3
v 0.7 2.3 0.3
v 0.7 2.4 -0.3
v 0.7 2.4 0.3
v 0.6 1.4 -0.5
v 0.6 1.4 -0.1
v 0.6 1.4 0.1
v 0.6 1.4 0.3
v 0.6 1.6 -0.3
v 0.6 1.6 -0.1
v 0.6 1.6 0.1
v 0.6 1.6 0.3
v 0.6 1.8 -0.5
v 0.6 1.8 -0.3
v 0.6 2.4 -0.3
v 0.6 2.4 0.3
v 0.6 2.5 -0.3
v 0.6 2.5 0.3
v 0.5 1.2 -0.5
v 0.5 1.2 -0.1
v 0.5 1.2 0.1
v 0.5 1.2 0.5
v 0.5 1.4 -0.5
v 0.5 1.4 -0.1
v 0.5 1.4 0.1
v 0.5 1.4 0.3
v 0.5 1.5 0.3
v 0.5 1.5 0.5
v 0.3 2.1 -0.5
v 0.3 2.1 -0.2
v 0.3 2.2 -0.5
v 0.3 2.2 -0.2
v 0.2 1.7 -0.5
v 0.2 1.7 -0.2
v 0.2 1.9 -0.5
v 0.2 1.9 -0.2
v 0.2 2 -0.5
v 0.2 2 -0.2
v 0.2 2.1 -0.5
v 0.2 2.1 -0.2
v 0.2 2.2 -0.5
v 0.2 2.2 -0.2
v 0.2 2.3 -0.5
v 0.2 2.3 -0.2
v 0.1 1.9 -0.5
v 0.1 1.9 -0.2
v 0.1 2 -0.5
v 0.1 2 -0.2
v 0.1 2.3 -0.5
v 0.1 2.3 -0.2
v 0.1 2.4 -0.5
v 0.1 2.4 -0.2
v 0.6 1.9 -0.3
v 0.6 1.9 -0.1
v 0.6 1.9 0.1
v 0.6 2.1 -0.1
v 0.6 2.1 0.1
v 0.6 2.1 0.3
v 0.6 2.3 -0.3
v 0.6 2.3 0.3
v 0.5 1.8 -0.3
v 0.5 1.8 -0.1
v 0.5 1.8 0.1
v 0.5 1.9 -0.3
v 0.5 1.9 -0.1
v 0.5 1.9 0.1
v 0.5 2 0.1
v 0.5 2 0.3
v 0.5 2.1 0.1
v 0.5 2.1 0.3
v 0.5 2.3 -0.3
v 0.5 2.3 0.3
v 0.5 2.5 -0.3
v 0.5 2.5 0.3
v 0.4 1.7 -0.5
v 0.4 1.7 -0.1
v 0.4 1.7 0.1
v 0.4 1.8 -0.5
v 0.4 1.8 -0.1
v 0.4 1.8 0.1
v 0.4 1.9 0.1
v 0.4 1.9 0.3
v 0.4 2 0.1
v 0.4 2 0.3
v 0.3 1.7 0.1
v 0.3 1.7 0.3
v 0.3 1.9 0.1
v 0.3 1.9 0.3
v 0 1.2 -0.5
v 0 1.2 -0.3
v 0 1.2 -0.2
v 0 1.2 0.2
v 0 1.2 0.3
v 0 1.2 0.5
v 0 1.3 -0.3
v 0 1.3 -0.2
v 0 1.3 0.2
v 0 1.3 0.3
v 0 1.5 0.1
v 0 1.5 0.3
v 0 1.5 0.5
v 0 1.6 -0.2
v 0 1.6 -0.1
v 0 1.7 -0.3
v 0 1.7 -0.2
v 0 1.7 -0.1
v 0 1.7 0.1
v 0 1.7 0.3
v 0 1.8 -0.3
v 0 1.8 -0.2
v 0 1.9 -0.5
v 0 1.9 -0.2
v 0 2 -0.4
v 0 2 -0.3
v 0 2.3 -0.4
v 0 2.3 -0.3
v 0 2.4 -0.5
v 0 2.4 -0.2
v 0.6 1.4 -0.5
v 0.6 1.8 -0.5
v 0.5 1.2 -0.5
v 0.5 1.4 -0.5
v 0.4 1.7 -0.5
v 0.4 1.8 -0.5
v 0.3 2.1 -0.5
v 0.3 2.2 -0.5
v 0.2 1.2 -0.5
v 0.2 1.4 -0.5
v 0.2 1.7 -0.5
v 0.2 1.9 -0.5
v 0.2 2 -0.5
v 0.2 2.1 -0.5
v 0.2 2.2 -0.5
v 0.2 2.3 -0.5
v 0.1 1.4 -0.5
v 0.1 1.9 -0.5
v 0.1 2 -0.5
v 0.1 2.3 -0.5
v 0.1 2.4 -0.5
v 0 1.2 -0.5
v 0 1.9 -0.5
v 0 2.4 -0.5
v 0.8 1.8 -0.3
v 0.8 2.3 -0.3
v 0.7 1.6 -0.3
v 0.7 1.8 -0.3
v 0.7 2.3 -0.3
v 0.7 2.4 -0.3
v 0.6 1.6 -0.3
v 0.6 1.8 -0.3
v 0.6 1.9 -0.3
v 0.6 2.3 -0.3
v 0.6 2.4 -0.3
v 0.6 2.5 -0.3
v 0.5 1.8 -0.3
v 0.5 1.9 -0.3
v 0.5 2.3 -0.3
v 0.5 2.5 -0.3
v 0.6 1.9 0.1
v 0.6 2.1 0.1
v 0.5 1.8 0.1
v 0.5 1.9 0.1
v 0.5 2 0.1
v 0.5 2.1 0.1
v 0.4 1.7 0.1
v 0.4 1.8 0.1
v 0.4 1.9 0.1
v 0.4 2 0.1
v 0.3 1.7 0.1
v 0.3 1.9 0.1
v 0.3 2.1 -0.2
v 0.3 2.2 -0.2
v 0.2 1.7 -0.2
v 0.2 1.9 -0.2
v 0.2 2 -0.2
v 0.2 2.1 -0.2
v 0.2 2.2 -0.2
v 0.2 2.3 -0.2
v 0.1 1.8 -0.2
v 0.1 1.9 -0.2
v 0.1 2 -0.2
v 0.1 2.1 -0.2
v 0.1 2.2 -0.2
v 0.1 2.3 -0.2
v 0.1 2.4 -0.2
v 0 1.7 -0.2
v 0 1.8 -0.2
v 0 1.9 -0.2
v 0 2.4 -0.2
v 0.8 1.8 0.3
v 0.8 2.3 0.3
v 0.7 1.6 0.3
v 0.7 1.8 0.3
v 0.7 2.3 0.3
v 0.7 2.4 0.3
v 0.6 1.4 0.3
v 0.6 1.6 0.3
v 0.6 1.7 0.3
v 0.6 1.8 0.3
v 0.6 2.1 0.3
v 0.6 2.3 0.3
v 0.6 2.4 0.3
v 0.6 2.5 0.3
v 0.5 1.4 0.3
v 0.5 1.5 0.3
v 0.5 1.7 0.3
v 0.5 1.8 0.3
v 0.5 1.9 0.3
v 0.5 2 0.3
v 0.5 2.1 0.3
v 0.5 2.3 0.3
v 0.5 2.5 0.3
v 0.4 1.8 0.3
v 0.4 1.9 0.3
v 0.4 2 0.3
v 0.3 1.7 0.3
v 0.3 1.9 0.3
v 0.1 1.5 0.3
v 0 1.5 0.3
v 0 1.7 0.3
v 0.5 1.2 0.5
v 0.5 1.5 0.5
v 0.3 1.2 0.5
v 0.3 1.4 0.5
v 0.1 1.4 0.5
v 0.1 1.5 0.5
v 0 1.2 0.5
v 0 1.5 0.5
v 0.5 1.2 -0.5
v 0.2 1.2 -0.5
v 0 1.2 -0.5
v 0.2 1.2 -0.3
v 0 1.2 -0.3
v 0.2 1.2 -0.2
v 0 1.2 -0.2
v 0.5 1.2 -0.1
v 0.3 1.2 -0.1
v 0.5 1.2 0.1
v 0.3 1.2 0.1
v 0.2 1.2 0.2
v 0 1.2 0.2
v 0.1 1.2 0.3
v 0 1.2 0.3
v 0.3 1.2 0.4
v 0.1 1.2 0.4
v 0.5 1.2 0.5
v 0.3 1.2 0.5
v 0 1.2 0.5
v 0.6 1.4 -0.5
v 0.5 1.4 -0.5
v 0.6 1.4 -0.1
v 0.5 1.4 -0.1
v 0.6 1.4 0.1
v 0.5 1.4 0.1
v 0.6 1.4 0.3
v 0.5 1.4 0.3
v 0.7 1.6 -0.3
v 0.6 1.6 -0.3
v 0.7 1.6 -0.1
v 0.6 1.6 -0.1
v 0.7 1.6 0.1
v 0.6 1.6 0.1
v 0.7 1.6 0.3
v 0.6 1.6 0.3
v 0.8 1.8 -0.3
v 0.7 1.8 -0.3
v 0.8 1.8 -0.1
v 0.7 1.8 -0.1
v 0.8 1.8 0.1
v 0.7 1.8 0.1
v 0.8 1.8 0.3
v 0.7 1.8 0.3
v 0.2 2 -0.5
v 0.1 2 -0.5
v 0.2 2 -0.2
v 0.1 2 -0.2
v 0.3 2.1 -0.5
v 0.2 2.1 -0.5
v 0.3 2.1 -0.2
v 0.2 2.1 -0.2
v 0.6 2.3 -0.3
v 0.5 2.3 -0.3
v 0.6 2.3 0.3
v 0.5 2.3 0.3
v 0.5 1.5 0.3
v 0.1 1.5 0.3
v 0 1.5 0.3
v 0.5 1.5 0.5
v 0.1 1.5 0.5
v 0 1.5 0.5
v 0.4 1.7 -0.5
v 0.2 1.7 -0.5
v 0.2 1.7 -0.2
v 0 1.7 -0.2
v 0.4 1.7 -0.1
v 0 1.7 -0.1
v 0.4 1.7 0.1
v 0.3 1.7 0.1
v 0 1.7 0.1
v 0.3 1.7 0.3
v 0 1.7 0.3
v 0.6 1.8 -0.5
v 0.4 1.8 -0.5
v 0.6 1.8 -0.3
v 0.5 1.8 -0.3
v 0.5 1.8 -0.1
v 0.4 1.8 -0.1
v 0.5 1.8 0.1
v 0.4 1.8 0.1
v 0.2 1.9 -0.5
v 0.1 1.9 -0.5
v 0.6 1.9 -0.3
v 0.5 1.9 -0.3
v 0.2 1.9 -0.2
v 0.1 1.9 -0.2
v 0.6 1.9 -0.1
v 0.5 1.9 -0.1
v 0.6 1.9 0.1
v 0.5 1.9 0.1
v 0.4 1.9 0.1
v 0.3 1.9 0.1
v 0.4 1.9 0.3
v 0.3 1.9 0.3
v 0.5 2 0.1
v 0.4 2 0.1
v 0.5 2 0.3
v 0.4 2 0.3
v 0.6 2.1 0.1
v 0.5 2.1 0.1
v 0.6 2.1 0.3
v 0.5 2.1 0.3
v 0.3 2.2 -0.5
v 0.2 2.2 -0.5
v 0.3 2.2 -0.2
v 0.2 2.2 -0.2
v 0.2 2.3 -0.5
v 0.1 2.3 -0.5
v 0.8 2.3 -0.3
v 0.7 2.3 -0.3
v 0.2 2.3 -0.2
v 0.1 2.3 -0.2
v 0.8 2.3 0.3
v 0.7 2.3 0.3
v 0.1 2.4 -0.5
v 0 2.4 -0.5
v 0.7 2.4 -0.3
v 0.6 2.4 -0.3
v 0.1 2.4 -0.2
v 0 2.4 -0.2
v 0.7 2.4 0.3
v 0.6 2.4 0.3
v 0.6 2.5 -0.3
v 0.5 2.5 -0.3
v 0.6 2.5 0.3
v 0.5 2.5 0.3

# faces
f 5/3/1 2/3/1 1/3/1
f 5/2/1 3/2/1 2/2/1
f 6/3/1 4/3/1 3/3/1
f 6/2/1 3/2/1 5/2/1
f 7/3/1 5/3/1 1/3/1
f 7/3/1 6/3/1 5/3/1
f 8/3/1 4/3/1 6/3/1
f 8/3/1 6/3/1 7/3/1
f 13/3/1 10/3/1 9/3/1
f 14/2/1 11/2/1 10/2/1
f 14/3/1 10/3/1 13/3/1
f 15/3/1 12/3/1 11/3/1
f 15/2/1 11/2/1 14/2/1
f 16/3/1 12/3/1 15/3/1
f 19/3/1 18/3/1 17/3/1
f 20/3/1 18/3/1 19/3/1
f 25/3/1 22/3/1 21/3/1
f 26/2/1 23/2/1 22/2/1
f 26/3/1 22/3/1 25/3/1
f 27/3/1 24/3/1 23/3/1
f 27/2/1 23/2/1 26/2/1
f 28/3/1 24/3/1 27/3/1
f 29/3/1 25/3/1 21/3/1
f 30/3/1 25/3/1 29/3/1
f 33/3/1 32/3/1 31/3/1
f 34/3/1 32/3/1 33/3/1
f 39/3/1 36/3/1 35/3/1
f 40/2/1 37/2/1 36/2/1
f 40/3/1 36/3/1 39/3/1
f 41/3/1 38/3/1 37/3/1
f 41/2/1 37/2/1 40/2/1
f 42/3/1 38/3/1 41/3/1
f 43/3/1 38/3/1 42/3/1
f 44/3/1 38/3/1 43/3/1
f 47/3/1 46/3/1 45/3/1
f 48/3/1 46/3/1 47/3/1
f 51/3/1 50/3/1 49/3/1
f 52/3/1 50/3/1 51/3/1
f 55/3/1 54/3/1 53/3/1
f 56/3/1 54/3/1 55/3/1
f 59/3/1 58/3/1 57/3/1
f 60/3/1 58/3/1 59/3/1
f 63/3/1 62/3/1 61/3/1
f 64/3/1 62/3/1 63/3/1
f 67/3/1 66/3/1 65/3/1
f 68/3/1 66/3/1 67/3/1
f 69/3/2 70/3/2 72/3/2
f 70/2/2 71/2/2 72/2/2
f 72/2/2 71/2/2 73/2/2
f 69/3/2 72/3/2 75/3/2
f 73/3/2 74/3/2 75/3/2
f 72/3/2 73/3/2 75/3/2
f 75/3/2 74/3/2 76/3/2
f 77/3/2 78/3/2 80/3/2
f 78/2/2 79/2/2 81/2/2
f 80/3/2 78/3/2 81/3/2
f 81/2/2 79/2/2 82/2/2
f 83/3/2 84/3/2 85/3/2
f 85/3/2 84/3/2 86/3/2
f 87/3/2 88/3/2 89/3/2
f 89/3/2 88/3/2 90/3/2
f 91/3/2 92/3/2 94/3/2
f 92/2/2 93/2/2 95/2/2
f 94/3/2 92/3/2 95/3/2
f 95/2/2 93/2/2 96/2/2
f 97/3/2 98/3/2 99/3/2
f 99/3/2 98/3/2 100/3/2
f 101/3/2 102/3/2 103/3/2
f 103/3/2 102/3/2 104/3/2
f 105/2/2 106/2/2 111/2/2
f 106/3/2 107/3/2 111/3/2
f 107/2/2 108/2/2 112/2/2
f 111/3/2 107/3/2 112/3/2
f 108/3/2 109/3/2 113/3/2
f 112/2/2 108/2/2 113/2/2
f 109/2/2 110/2/2 114/2/2
f 113/3/2 109/3/2 114/3/2
f 112/2/2 113/2/2 115/2/2
f 111/2/2 112/2/2 115/2/2
f 113/2/2 114/2/2 115/2/2
f 114/2/2 110/2/2 116/2/2
f 115/2/2 114/2/2 116/2/2
f 116/2/2 110/2/2 117/2/2
f 111/2/2 115/2/2 118/2/2
f 118/2/2 115/2/2 119/2/2
f 105/2/2 111/2/2 120/2/2
f 111/2/2 118/2/2 120/2/2
f 118/3/2 119/3/2 121/3/2
f 120/2/2 118/2/2 121/2/2
f 119/2/2 115/2/2 122/2/2
f 121/3/2 119/3/2 122/3/2
f 115/3/2 116/3/2 123/3/2
f 122/2/2 115/2/2 123/2/2
f 123/3/2 116/3/2 124/3/2
f 120/3/2 121/3/2 125/3/2
f 105/2/2 120/2/2 125/2/2
f 125/3/2 121/3/2 126/3/2
f 105/2/2 125/2/2 127/2/2
f 125/2/2 126/2/2 127/2/2
f 127/2/2 126/2/2 128/2/2
f 127/3/2 128/3/2 129/3/2
f 129/3/2 128/3/2 130/3/2
f 127/3/2 129/3/2 131/3/2
f 129/1/2 130/1/2 131/1/2
f 130/3/2 128/3/2 132/3/2
f 131/1/2 130/1/2 132/1/2
f 127/3/2 131/3/2 133/3/2
f 131/3/2 132/3/2 133/3/2
f 132/3/2 128/3/2 134/3/2
f 133/3/2 132/3/2 134/3/2
f 138/3/3 136/3/3 135/3/3
f 139/3/3 136/3/3 138/3/3
f 139/3/3 138/3/3 137/3/3
f 140/3/3 136/3/3 139/3/3
f 143/3/3 139/3/3 137/3/3
f 144/3/3 139/3/3 143/3/3
f 145/3/3 139/3/3 144/3/3
f 148/3/3 142/3/3 141/3/3
f 149/3/3 142/3/3 148/3/3
f 151/3/3 146/3/3 145/3/3
f 151/2/3 144/2/3 143/2/3
f 151/3/3 145/3/3 144/3/3
f 152/3/3 146/3/3 151/3/3
f 153/3/3 150/3/3 149/3/3
f 153/3/3 149/3/3 148/3/3
f 153/3/3 148/3/3 147/3/3
f 154/3/3 150/3/3 153/3/3
f 156/2/3 152/2/3 151/2/3
f 156/2/3 151/2/3 143/2/3
f 157/3/3 155/3/3 154/3/3
f 157/2/3 152/2/3 156/2/3
f 157/3/3 154/3/3 153/3/3
f 157/3/3 153/3/3 152/3/3
f 158/3/3 155/3/3 157/3/3
f 162/3/3 160/3/3 159/3/3
f 163/3/3 160/3/3 162/3/3
f 165/3/3 162/3/3 161/3/3
f 165/3/3 164/3/3 163/3/3
f 165/3/3 163/3/3 162/3/3
f 166/3/3 164/3/3 165/3/3
f 167/3/3 164/3/3 166/3/3
f 168/3/3 164/3/3 167/3/3
f 169/3/3 164/3/3 168/3/3
f 171/3/3 167/3/3 166/3/3
f 172/3/3 167/3/3 171/3/3
f 173/3/3 170/3/3 169/3/3
f 173/3/3 169/3/3 168/3/3
f 174/3/3 170/3/3 173/3/3
f 178/3/3 176/3/3 175/3/3
f 179/3/3 176/3/3 178/3/3
f 180/3/3 176/3/3 179/3/3
f 182/3/3 178/3/3 177/3/3
f 182/3/3 179/3/3 178/3/3
f 183/3/3 179/3/3 182/3/3
f 184/3/3 179/3/3 183/3/3
f 185/3/3 182/3/3 181/3/3
f 185/3/3 183/3/3 182/3/3
f 186/3/3 183/3/3 185/3/3
f 187/3/4 188/3/4 192/3/4
f 192/3/4 188/3/4 193/3/4
f 189/3/4 190/3/4 195/3/4
f 195/3/4 190/3/4 196/3/4
f 191/3/4 192/3/4 197/3/4
f 192/2/4 193/2/4 198/2/4
f 197/3/4 192/3/4 198/3/4
f 193/3/4 194/3/4 199/3/4
f 198/2/4 193/2/4 199/2/4
f 199/3/4 194/3/4 200/3/4
f 189/3/4 195/3/4 202/3/4
f 195/2/4 196/2/4 203/2/4
f 202/3/4 195/3/4 203/3/4
f 197/3/4 198/3/4 204/3/4
f 203/2/4 196/2/4 204/2/4
f 196/3/4 197/3/4 204/3/4
f 199/3/4 200/3/4 204/3/4
f 198/3/4 199/3/4 204/3/4
f 200/3/4 201/3/4 204/3/4
f 204/3/4 201/3/4 205/3/4
f 206/3/4 207/3/4 209/3/4
f 209/3/4 207/3/4 210/3/4
f 208/3/4 209/3/4 213/3/4
f 210/3/4 211/3/4 213/3/4
f 209/3/4 210/3/4 213/3/4
f 213/3/4 211/3/4 214/3/4
f 214/3/4 211/3/4 215/3/4
f 215/3/4 211/3/4 216/3/4
f 216/3/4 211/3/4 217/3/4
f 217/3/4 211/3/4 218/3/4
f 212/3/4 213/3/4 220/3/4
f 213/3/4 214/3/4 220/3/4
f 220/3/4 214/3/4 221/3/4
f 214/2/4 215/2/4 222/2/4
f 221/3/4 214/3/4 222/3/4
f 215/3/4 216/3/4 223/3/4
f 222/2/4 215/2/4 223/2/4
f 223/3/4 216/3/4 224/3/4
f 224/3/4 216/3/4 225/3/4
f 225/3/4 216/3/4 226/3/4
f 218/3/4 219/3/4 227/3/4
f 217/3/4 218/3/4 227/3/4
f 227/3/4 219/3/4 228/3/4
f 221/3/4 222/3/4 229/3/4
f 223/2/4 224/2/4 229/2/4
f 222/3/4 223/3/4 229/3/4
f 224/3/4 225/3/4 230/3/4
f 229/2/4 224/2/4 230/2/4
f 230/3/4 225/3/4 231/3/4
f 221/3/4 229/3/4 232/3/4
f 229/3/4 230/3/4 232/3/4
f 232/3/4 230/3/4 233/3/4
f 221/3/4 232/3/4 234/3/4
f 234/3/4 232/3/4 235/3/4
f 235/3/4 232/3/4 236/3/4
f 237/3/4 238/3/4 239/3/4
f 239/3/4 238/3/4 240/3/4
f 239/2/4 240/2/4 241/2/4
f 240/3/4 238/3/4 241/3/4
f 241/3/4 238/3/4 242/3/4
f 239/2/4 241/2/4 243/2/4
f 241/2/4 242/2/4 243/2/4
f 243/2/4 242/2/4 244/2/4
f 248/3/5 246/3/5 245/3/5
f 248/2/5 247/2/5 246/2/5
f 249/2/5 247/2/5 248/2/5
f 250/3/5 248/3/5 245/3/5
f 250/3/5 249/3/5 248/3/5
f 251/3/5 249/3/5 250/3/5
f 252/3/5 250/3/5 245/3/5
f 253/3/5 250/3/5 252/3/5
f 254/2/5 253/2/5 252/2/5
f 255/3/5 250/3/5 253/3/5
f 255/2/5 253/2/5 254/2/5
f 256/2/5 251/2/5 250/2/5
f 256/3/5 250/3/5 255/3/5
f 256/3/5 255/3/5 254/3/5
f 257/2/5 251/2/5 256/2/5
f 258/3/5 257/3/5 256/3/5
f 259/3/5 257/3/5 258/3/5
f 260/3/5 256/3/5 254/3/5
f 260/3/5 258/3/5 256/3/5
f 261/2/5 259/2/5 258/2/5
f 261/3/5 258/3/5 260/3/5
f 262/3/5 260/3/5 254/3/5
f 263/2/5 261/2/5 260/2/5
f 263/3/5 260/3/5 262/3/5
f 264/2/5 259/2/5 261/2/5
f 264/2/5 261/2/5 263/2/5
f 267/3/5 266/3/5 265/3/5
f 268/3/5 266/3/5 267/3/5
f 269/2/5 268/2/5 267/2/5
f 270/2/5 268/2/5 269/2/5
f 271/3/5 270/3/5 269/3/5
f 272/3/5 270/3/5 271/3/5
f 275/3/5 274/3/5 273/3/5
f 276/3/5 274/3/5 275/3/5
f 277/2/5 276/2/5 275/2/5
f 278/2/5 276/2/5 277/2/5
f 279/3/5 278/3/5 277/3/5
f 280/3/5 278/3/5 279/3/5
f 283/3/5 282/3/5 281/3/5
f 284/3/5 282/3/5 283/3/5
f 285/2/5 284/2/5 283/2/5
f 286/2/5 284/2/5 285/2/5
f 287/3/5 286/3/5 285/3/5
f 288/3/5 286/3/5 287/3/5
f 291/3/5 290/3/5 289/3/5
f 292/3/5 290/3/5 291/3/5
f 295/3/5 294/3/5 293/3/5
f 296/3/5 294/3/5 295/3/5
f 299/3/5 298/3/5 297/3/5
f 300/3/5 298/3/5 299/3/5
f 301/3/6 302/3/6 304/3/6
f 302/2/6 303/2/6 305/2/6
f 304/3/6 302/3/6 305/3/6
f 305/2/6 303/2/6 306/2/6
f 307/3/6 308/3/6 309/3/6
f 307/3/6 309/3/6 311/3/6
f 309/3/6 310/3/6 311/3/6
f 311/3/6 310/3/6 312/3/6
f 311/2/6 312/2/6 313/2/6
f 313/2/6 312/2/6 314/2/6
f 314/2/6 312/2/6 315/2/6
f 314/3/6 315/3/6 316/3/6
f 316/3/6 315/3/6 317/3/6
f 318/3/6 319/3/6 320/3/6
f 320/3/6 319/3/6 321/3/6
f 321/3/6 319/3/6 322/3/6
f 322/3/6 319/3/6 323/3/6
f 322/2/6 323/2/6 324/2/6
f 324/2/6 323/2/6 325/2/6
f 326/3/6 327/3/6 330/3/6
f 330/3/6 327/3/6 331/3/6
f 328/3/6 329/3/6 332/3/6
f 332/3/6 329/3/6 333/3/6
f 332/2/6 333/2/6 334/2/6
f 334/2/6 333/2/6 335/2/6
f 336/3/6 337/3/6 338/3/6
f 338/3/6 337/3/6 339/3/6
f 340/3/6 341/3/6 342/3/6
f 342/3/6 341/3/6 343/3/6
f 344/3/6 345/3/6 346/3/6
f 346/3/6 345/3/6 347/3/6
f 348/3/6 349/3/6 350/3/6
f 350/3/6 349/3/6 351/3/6
f 352/3/6 353/3/6 356/3/6
f 356/3/6 353/3/6 357/3/6
f 354/3/6 355/3/6 358/3/6
f 358/3/6 355/3/6 359/3/6
f 360/3/6 361/3/6 364/3/6
f 364/3/6 361/3/6 365/3/6
f 362/3/6 363/3/6 366/3/6
f 366/3/6 363/3/6 367/3/6
f 368/3/6 369/3/6 370/3/6
f 370/3/6 369/3/6 371/3/6
