# MagicaVoxel @ Ephtracy

# group
o 

# material
mtllib Mini-Bot_Wizard_LOD1-0.mtl
usemtl palette

# normals
vn 1 0 0
vn -1 0 0
vn 0 0 -1
vn 0 0 1
vn 0 -1 0
vn 0 1 0

# texcoords
vt 0.970703 0.5
vt 0.974609 0.5
vt 0.978516 0.5

# verts
v 0.8 1.8 -0.3
v 0.8 1.8 -0.1
v 0.8 1.8 0.1
v 0.8 1.8 0.3
v 0.8 2.1 -0.1
v 0.8 2.1 0.1
v 0.8 2.3 -0.3
v 0.8 2.3 0.3
v 0.7 1.6 -0.3
v 0.7 1.6 -0.1
v 0.7 1.6 0.1
v 0.7 1.6 0.3
v 0.7 1.8 -0.3
v 0.7 1.8 -0.1
v 0.7 1.8 0.1
v 0.7 1.8 0.3
v 0.7 2.1 -0.1
v 0.7 2.1 0.1
v 0.7 2.3 -0.3
v 0.7 2.3 0.3
v 0.7 2.4 -0.3
v 0.7 2.4 0.3
v 0.6 1.4 -0.5
v 0.6 1.4 -0.1
v 0.6 1.4 0.1
v 0.6 1.4 0.5
v 0.6 1.5 0.3
v 0.6 1.5 0.5
v 0.6 1.6 -0.3
v 0.6 1.6 -0.1
v 0.6 1.6 0.1
v 0.6 1.6 0.3
v 0.6 1.7 -0.5
v 0.6 1.7 -0.3
v 0.6 1.8 -0.1
v 0.6 1.8 0.1
v 0.6 2.4 -0.3
v 0.6 2.4 0.3
v 0.6 2.5 -0.3
v 0.6 2.5 0.3
v 0.5 1.3 -0.5
v 0.5 1.3 -0.1
v 0.5 1.3 0.1
v 0.5 1.3 0.5
v 0.5 1.4 -0.5
v 0.5 1.4 -0.1
v 0.5 1.4 0.1
v 0.5 1.4 0.5
v 0.5 1.6 -0.1
v 0.5 1.6 0.1
v 0.5 1.7 0.2
v 0.5 1.7 0.3
v 0.5 1.8 0.2
v 0.5 1.8 0.3
v 0.4 1.2 -0.3
v 0.4 1.2 -0.1
v 0.4 1.2 0.1
v 0.4 1.2 0.4
v 0.4 1.3 -0.3
v 0.4 1.3 -0.1
v 0.4 1.3 0.1
v 0.4 1.3 0.4
v 0.4 1.8 0.2
v 0.4 1.8 0.3
v 0.4 1.9 0.2
v 0.4 1.9 0.3
v 0.3 1.2 -0.4
v 0.3 1.2 -0.3
v 0.3 1.3 -0.4
v 0.3 1.3 -0.3
v 0.3 2.1 -0.5
v 0.3 2.1 -0.2
v 0.3 2.2 -0.5
v 0.3 2.2 -0.2
v 0.2 1.5 -0.5
v 0.2 1.5 -0.1
v 0.2 1.5 0.1
v 0.2 1.5 0.5
v 0.2 1.7 -0.2
v 0.2 1.7 0.5
v 0.2 1.9 -0.5
v 0.2 1.9 -0.2
v 0.2 2 -0.5
v 0.2 2 -0.2
v 0.2 2.1 -0.5
v 0.2 2.1 -0.2
v 0.2 2.2 -0.5
v 0.2 2.2 -0.2
v 0.2 2.3 -0.5
v 0.2 2.3 -0.2
v 0.1 1.9 -0.5
v 0.1 1.9 -0.2
v 0.1 2 -0.5
v 0.1 2 -0.2
v 0.1 2.1 -0.3
v 0.1 2.1 -0.2
v 0.1 2.2 -0.3
v 0.1 2.2 -0.2
v 0.1 2.3 -0.5
v 0.1 2.3 -0.2
v 0.1 2.4 -0.5
v 0.1 2.4 -0.2
v 0.6 1.7 0.2
v 0.6 1.7 0.3
v 0.6 1.8 0.2
v 0.6 1.8 0.3
v 0.6 1.9 -0.3
v 0.6 1.9 -0.1
v 0.6 1.9 0.1
v 0.6 2.1 -0.1
v 0.6 2.1 0.1
v 0.6 2.1 0.3
v 0.6 2.3 -0.3
v 0.6 2.3 0.3
v 0.5 1.7 -0.3
v 0.5 1.7 -0.1
v 0.5 1.8 -0.1
v 0.5 1.8 0.1
v 0.5 1.8 0.2
v 0.5 1.8 0.3
v 0.5 1.9 -0.3
v 0.5 1.9 -0.1
v 0.5 1.9 0.1
v 0.5 1.9 0.2
v 0.5 1.9 0.3
v 0.5 2 0.1
v 0.5 2 0.2
v 0.5 2 0.3
v 0.5 2.1 0.1
v 0.5 2.1 0.3
v 0.5 2.3 -0.3
v 0.5 2.3 0.3
v 0.5 2.5 -0.3
v 0.5 2.5 0.3
v 0.4 1.5 -0.5
v 0.4 1.5 -0.1
v 0.4 1.5 0.1
v 0.4 1.7 -0.5
v 0.4 1.7 -0.1
v 0.4 1.8 -0.1
v 0.4 1.8 0.1
v 0.4 1.9 0.1
v 0.4 1.9 0.2
v 0.4 1.9 0.3
v 0.4 2 0.1
v 0.4 2 0.2
v 0.4 2 0.3
v 0.3 1.5 0.1
v 0.3 1.5 0.3
v 0.3 1.8 0.2
v 0.3 1.8 0.3
v 0.3 1.9 0.1
v 0.3 1.9 0.2
v 0.3 1.9 0.3
v 0.2 1.3 -0.5
v 0.2 1.3 -0.4
v 0.2 1.4 -0.5
v 0.2 1.4 -0.4
v 0.2 2.1 -0.3
v 0.2 2.1 -0.2
v 0.2 2.2 -0.3
v 0.2 2.2 -0.2
v 0.1 1.8 -0.3
v 0.1 1.8 -0.2
v 0.1 1.9 -0.3
v 0.1 1.9 -0.2
v 0 1.2 -0.4
v 0 1.2 -0.3
v 0 1.2 -0.2
v 0 1.2 0.2
v 0 1.2 0.3
v 0 1.2 0.4
v 0 1.3 -0.3
v 0 1.3 -0.2
v 0 1.3 0.2
v 0 1.3 0.3
v 0 1.3 0.4
v 0 1.3 0.5
v 0 1.4 -0.5
v 0 1.4 -0.4
v 0 1.4 -0.3
v 0 1.5 0.1
v 0 1.5 0.2
v 0 1.6 -0.3
v 0 1.6 -0.2
v 0 1.6 -0.1
v 0 1.6 0.2
v 0 1.6 0.5
v 0 1.7 -0.3
v 0 1.7 -0.2
v 0 1.7 -0.1
v 0 1.7 0.1
v 0 1.7 0.5
v 0 1.8 -0.4
v 0 1.8 -0.3
v 0 1.8 -0.2
v 0 1.9 -0.5
v 0 1.9 -0.3
v 0 1.9 -0.2
v 0 2 -0.4
v 0 2 -0.3
v 0 2.3 -0.4
v 0 2.3 -0.3
v 0 2.4 -0.5
v 0 2.4 -0.2
v 0.6 1.4 -0.5
v 0.6 1.7 -0.5
v 0.5 1.3 -0.5
v 0.5 1.4 -0.5
v 0.4 1.5 -0.5
v 0.4 1.7 -0.5
v 0.3 2.1 -0.5
v 0.3 2.2 -0.5
v 0.2 1.3 -0.5
v 0.2 1.4 -0.5
v 0.2 1.5 -0.5
v 0.2 1.9 -0.5
v 0.2 2 -0.5
v 0.2 2.1 -0.5
v 0.2 2.2 -0.5
v 0.2 2.3 -0.5
v 0.1 1.4 -0.5
v 0.1 1.9 -0.5
v 0.1 2 -0.5
v 0.1 2.3 -0.5
v 0.1 2.4 -0.5
v 0 1.4 -0.5
v 0 1.9 -0.5
v 0 2.4 -0.5
v 0.3 1.2 -0.4
v 0.3 1.3 -0.4
v 0.2 1.3 -0.4
v 0.2 1.4 -0.4
v 0.1 1.2 -0.4
v 0.1 1.3 -0.4
v 0.1 1.4 -0.4
v 0 1.2 -0.4
v 0 1.4 -0.4
v 0.8 1.8 -0.3
v 0.8 2.3 -0.3
v 0.7 1.6 -0.3
v 0.7 1.8 -0.3
v 0.7 2.3 -0.3
v 0.7 2.4 -0.3
v 0.6 1.6 -0.3
v 0.6 1.7 -0.3
v 0.6 1.9 -0.3
v 0.6 2.3 -0.3
v 0.6 2.4 -0.3
v 0.6 2.5 -0.3
v 0.5 1.7 -0.3
v 0.5 1.9 -0.3
v 0.5 2.3 -0.3
v 0.5 2.5 -0.3
v 0.4 1.2 -0.3
v 0.4 1.3 -0.3
v 0.3 1.2 -0.3
v 0.3 1.3 -0.3
v 0.5 1.7 -0.1
v 0.5 1.8 -0.1
v 0.4 1.7 -0.1
v 0.4 1.8 -0.1
v 0.8 1.8 0.1
v 0.8 2.1 0.1
v 0.7 1.6 0.1
v 0.7 1.8 0.1
v 0.7 2.1 0.1
v 0.6 1.4 0.1
v 0.6 1.6 0.1
v 0.6 1.8 0.1
v 0.6 1.9 0.1
v 0.6 2.1 0.1
v 0.5 1.4 0.1
v 0.5 1.6 0.1
v 0.5 1.8 0.1
v 0.5 1.9 0.1
v 0.5 2 0.1
v 0.5 2.1 0.1
v 0.4 1.5 0.1
v 0.4 1.8 0.1
v 0.4 1.9 0.1
v 0.4 2 0.1
v 0.3 1.5 0.1
v 0.3 1.9 0.1
v 0.2 2.1 -0.3
v 0.2 2.2 -0.3
v 0.1 1.8 -0.3
v 0.1 1.9 -0.3
v 0.1 2.1 -0.3
v 0.1 2.2 -0.3
v 0 1.8 -0.3
v 0 1.9 -0.3
v 0.3 2.1 -0.2
v 0.3 2.2 -0.2
v 0.2 1.7 -0.2
v 0.2 1.9 -0.2
v 0.2 2 -0.2
v 0.2 2.1 -0.2
v 0.2 2.2 -0.2
v 0.2 2.3 -0.2
v 0.1 1.8 -0.2
v 0.1 1.9 -0.2
v 0.1 2 -0.2
v 0.1 2.1 -0.2
v 0.1 2.2 -0.2
v 0.1 2.3 -0.2
v 0.1 2.4 -0.2
v 0 1.7 -0.2
v 0 1.8 -0.2
v 0 1.9 -0.2
v 0 2.4 -0.2
v 0.8 1.8 -0.1
v 0.8 2.1 -0.1
v 0.7 1.6 -0.1
v 0.7 1.8 -0.1
v 0.7 2.1 -0.1
v 0.6 1.4 -0.1
v 0.6 1.6 -0.1
v 0.6 1.8 -0.1
v 0.5 1.4 -0.1
v 0.5 1.6 -0.1
v 0.6 1.7 0.2
v 0.6 1.8 0.2
v 0.5 1.7 0.2
v 0.5 1.8 0.2
v 0.5 1.9 0.2
v 0.4 1.8 0.2
v 0.4 1.9 0.2
v 0.8 1.8 0.3
v 0.8 2.3 0.3
v 0.7 1.6 0.3
v 0.7 1.8 0.3
v 0.7 2.3 0.3
v 0.7 2.4 0.3
v 0.6 1.5 0.3
v 0.6 1.6 0.3
v 0.6 1.7 0.3
v 0.6 1.8 0.3
v 0.6 1.9 0.3
v 0.6 2.1 0.3
v 0.6 2.3 0.3
v 0.6 2.4 0.3
v 0.6 2.5 0.3
v 0.5 1.6 0.3
v 0.5 1.7 0.3
v 0.5 1.8 0.3
v 0.5 1.9 0.3
v 0.5 2 0.3
v 0.5 2.1 0.3
v 0.5 2.3 0.3
v 0.5 2.5 0.3
v 0.4 1.7 0.3
v 0.4 1.8 0.3
v 0.4 1.9 0.3
v 0.4 2 0.3
v 0.3 1.5 0.3
v 0.3 1.8 0.3
v 0.3 1.9 0.3
v 0.4 1.2 0.4
v 0.4 1.3 0.4
v 0.3 1.3 0.4
v 0.1 1.2 0.4
v 0.1 1.3 0.4
v 0 1.2 0.4
v 0 1.3 0.4
v 0.6 1.4 0.5
v 0.6 1.5 0.5
v 0.5 1.3 0.5
v 0.5 1.4 0.5
v 0.3 1.3 0.5
v 0.3 1.4 0.5
v 0.2 1.5 0.5
v 0.2 1.7 0.5
v 0.1 1.4 0.5
v 0.1 1.6 0.5
v 0 1.3 0.5
v 0 1.6 0.5
v 0 1.7 0.5
v 0.3 1.2 -0.4
v 0.1 1.2 -0.4
v 0 1.2 -0.4
v 0.4 1.2 -0.3
v 0.3 1.2 -0.3
v 0.1 1.2 -0.3
v 0 1.2 -0.3
v 0.2 1.2 -0.2
v 0 1.2 -0.2
v 0.4 1.2 -0.1
v 0.3 1.2 -0.1
v 0.4 1.2 0.1
v 0.3 1.2 0.1
v 0.2 1.2 0.2
v 0 1.2 0.2
v 0.1 1.2 0.3
v 0 1.2 0.3
v 0.4 1.2 0.4
v 0.1 1.2 0.4
v 0 1.2 0.4
v 0.5 1.3 -0.5
v 0.2 1.3 -0.5
v 0.3 1.3 -0.4
v 0.2 1.3 -0.4
v 0.4 1.3 -0.3
v 0.3 1.3 -0.3
v 0.5 1.3 -0.1
v 0.4 1.3 -0.1
v 0.5 1.3 0.1
v 0.4 1.3 0.1
v 0.4 1.3 0.4
v 0.3 1.3 0.4
v 0.1 1.3 0.4
v 0 1.3 0.4
v 0.5 1.3 0.5
v 0.3 1.3 0.5
v 0 1.3 0.5
v 0.6 1.4 -0.5
v 0.5 1.4 -0.5
v 0.2 1.4 -0.5
v 0.1 1.4 -0.5
v 0 1.4 -0.5
v 0.2 1.4 -0.4
v 0.1 1.4 -0.4
v 0 1.4 -0.4
v 0.6 1.4 -0.1
v 0.5 1.4 -0.1
v 0.6 1.4 0.1
v 0.5 1.4 0.1
v 0.6 1.4 0.5
v 0.5 1.4 0.5
v 0.7 1.6 -0.3
v 0.6 1.6 -0.3
v 0.7 1.6 -0.1
v 0.6 1.6 -0.1
v 0.5 1.6 -0.1
v 0.7 1.6 0.1
v 0.6 1.6 0.1
v 0.5 1.6 0.1
v 0.7 1.6 0.3
v 0.6 1.6 0.3
v 0.8 1.8 -0.3
v 0.7 1.8 -0.3
v 0.8 1.8 -0.1
v 0.7 1.8 -0.1
v 0.6 1.8 -0.1
v 0.8 1.8 0.1
v 0.7 1.8 0.1
v 0.6 1.8 0.1
v 0.6 1.8 0.2
v 0.5 1.8 0.2
v 0.8 1.8 0.3
v 0.7 1.8 0.3
v 0.6 1.8 0.3
v 0.5 1.8 0.3
v 0.1 1.9 -0.3
v 0 1.9 -0.3
v 0.1 1.9 -0.2
v 0 1.9 -0.2
v 0.5 1.9 0.2
v 0.4 1.9 0.2
v 0.5 1.9 0.3
v 0.4 1.9 0.3
v 0.2 2 -0.5
v 0.1 2 -0.5
v 0.2 2 -0.2
v 0.1 2 -0.2
v 0.3 2.1 -0.5
v 0.2 2.1 -0.5
v 0.3 2.1 -0.2
v 0.2 2.1 -0.2
v 0.8 2.1 -0.1
v 0.7 2.1 -0.1
v 0.8 2.1 0.1
v 0.7 2.1 0.1
v 0.2 2.2 -0.3
v 0.1 2.2 -0.3
v 0.2 2.2 -0.2
v 0.1 2.2 -0.2
v 0.6 2.3 -0.3
v 0.5 2.3 -0.3
v 0.6 2.3 0.3
v 0.5 2.3 0.3
v 0.4 1.5 -0.5
v 0.2 1.5 -0.5
v 0.4 1.5 -0.1
v 0.2 1.5 -0.1
v 0.4 1.5 0.1
v 0.3 1.5 0.1
v 0.2 1.5 0.1
v 0.6 1.5 0.3
v 0.3 1.5 0.3
v 0.6 1.5 0.5
v 0.2 1.5 0.5
v 0.6 1.7 -0.5
v 0.4 1.7 -0.5
v 0.6 1.7 -0.3
v 0.5 1.7 -0.3
v 0.2 1.7 -0.2
v 0 1.7 -0.2
v 0.5 1.7 -0.1
v 0.4 1.7 -0.1
v 0.1 1.7 -0.1
v 0 1.7 -0.1
v 0.1 1.7 0.1
v 0 1.7 0.1
v 0.6 1.7 0.2
v 0.5 1.7 0.2
v 0.6 1.7 0.3
v 0.5 1.7 0.3
v 0.2 1.7 0.5
v 0 1.7 0.5
v 0.1 1.8 -0.3
v 0 1.8 -0.3
v 0.1 1.8 -0.2
v 0 1.8 -0.2
v 0.5 1.8 -0.1
v 0.4 1.8 -0.1
v 0.5 1.8 0.1
v 0.4 1.8 0.1
v 0.5 1.8 0.2
v 0.4 1.8 0.2
v 0.5 1.8 0.3
v 0.4 1.8 0.3
v 0.2 1.9 -0.5
v 0.1 1.9 -0.5
v 0.6 1.9 -0.3
v 0.5 1.9 -0.3
v 0.2 1.9 -0.2
v 0.1 1.9 -0.2
v 0.6 1.9 -0.1
v 0.5 1.9 -0.1
v 0.6 1.9 0.1
v 0.5 1.9 0.1
v 0.4 1.9 0.1
v 0.3 1.9 0.1
v 0.4 1.9 0.2
v 0.3 1.9 0.2
v 0.4 1.9 0.3
v 0.3 1.9 0.3
v 0.5 2 0.1
v 0.4 2 0.1
v 0.5 2 0.2
v 0.4 2 0.2
v 0.5 2 0.3
v 0.4 2 0.3
v 0.2 2.1 -0.3
v 0.1 2.1 -0.3
v 0.2 2.1 -0.2
v 0.1 2.1 -0.2
v 0.6 2.1 0.1
v 0.5 2.1 0.1
v 0.6 2.1 0.3
v 0.5 2.1 0.3
v 0.3 2.2 -0.5
v 0.2 2.2 -0.5
v 0.3 2.2 -0.2
v 0.2 2.2 -0.2
v 0.2 2.3 -0.5
v 0.1 2.3 -0.5
v 0.8 2.3 -0.3
v 0.7 2.3 -0.3
v 0.2 2.3 -0.2
v 0.1 2.3 -0.2
v 0.8 2.3 0.3
v 0.7 2.3 0.3
v 0.1 2.4 -0.5
v 0 2.4 -0.5
v 0.7 2.4 -0.3
v 0.6 2.4 -0.3
v 0.1 2.4 -0.2
v 0 2.4 -0.2
v 0.7 2.4 0.3
v 0.6 2.4 0.3
v 0.6 2.5 -0.3
v 0.5 2.5 -0.3
v 0.6 2.5 0.3
v 0.5 2.5 0.3

# faces
f 5/3/1 2/3/1 1/3/1
f 6/3/1 4/3/1 3/3/1
f 7/3/1 5/3/1 1/3/1
f 7/3/1 6/3/1 5/3/1
f 8/3/1 4/3/1 6/3/1
f 8/3/1 6/3/1 7/3/1
f 13/3/1 10/3/1 9/3/1
f 14/3/1 10/3/1 13/3/1
f 15/3/1 12/3/1 11/3/1
f 16/3/1 12/3/1 15/3/1
f 17/2/1 15/2/1 14/2/1
f 18/2/1 15/2/1 17/2/1
f 21/3/1 20/3/1 19/3/1
f 22/3/1 20/3/1 21/3/1
f 27/3/1 26/3/1 25/3/1
f 28/3/1 26/3/1 27/3/1
f 29/3/1 24/3/1 23/3/1
f 30/3/1 24/3/1 29/3/1
f 31/3/1 27/3/1 25/3/1
f 32/3/1 27/3/1 31/3/1
f 33/3/1 29/3/1 23/3/1
f 34/3/1 29/3/1 33/3/1
f 35/2/1 31/2/1 30/2/1
f 36/2/1 31/2/1 35/2/1
f 39/3/1 38/3/1 37/3/1
f 40/3/1 38/3/1 39/3/1
f 45/3/1 42/3/1 41/3/1
f 46/2/1 43/2/1 42/2/1
f 46/3/1 42/3/1 45/3/1
f 47/3/1 44/3/1 43/3/1
f 47/2/1 43/2/1 46/2/1
f 48/3/1 44/3/1 47/3/1
f 49/2/1 47/2/1 46/2/1
f 50/2/1 47/2/1 49/2/1
f 53/1/1 52/1/1 51/1/1
f 54/1/1 52/1/1 53/1/1
f 59/3/1 56/3/1 55/3/1
f 60/2/1 57/2/1 56/2/1
f 60/3/1 56/3/1 59/3/1
f 61/3/1 58/3/1 57/3/1
f 61/2/1 57/2/1 60/2/1
f 62/3/1 58/3/1 61/3/1
f 65/1/1 64/1/1 63/1/1
f 66/1/1 64/1/1 65/1/1
f 69/3/1 68/3/1 67/3/1
f 70/3/1 68/3/1 69/3/1
f 73/3/1 72/3/1 71/3/1
f 74/3/1 72/3/1 73/3/1
f 79/3/1 76/3/1 75/3/1
f 79/3/1 78/3/1 77/3/1
f 79/3/1 77/3/1 76/3/1
f 80/3/1 78/3/1 79/3/1
f 81/3/1 79/3/1 75/3/1
f 82/3/1 79/3/1 81/3/1
f 85/3/1 84/3/1 83/3/1
f 86/3/1 84/3/1 85/3/1
f 89/3/1 88/3/1 87/3/1
f 90/3/1 88/3/1 89/3/1
f 93/3/1 92/3/1 91/3/1
f 94/3/1 92/3/1 93/3/1
f 97/3/1 96/3/1 95/3/1
f 98/3/1 96/3/1 97/3/1
f 101/3/1 100/3/1 99/3/1
f 102/3/1 100/3/1 101/3/1
f 103/3/2 104/3/2 105/3/2
f 105/3/2 104/3/2 106/3/2
f 107/3/2 108/3/2 110/3/2
f 108/2/2 109/2/2 110/2/2
f 110/2/2 109/2/2 111/2/2
f 107/3/2 110/3/2 113/3/2
f 111/3/2 112/3/2 113/3/2
f 110/3/2 111/3/2 113/3/2
f 113/3/2 112/3/2 114/3/2
f 115/3/2 116/3/2 117/3/2
f 115/3/2 117/3/2 121/3/2
f 117/2/2 118/2/2 122/2/2
f 121/3/2 117/3/2 122/3/2
f 122/2/2 118/2/2 123/2/2
f 119/1/2 120/1/2 124/1/2
f 124/1/2 120/1/2 125/1/2
f 126/3/2 127/3/2 129/3/2
f 127/3/2 128/3/2 129/3/2
f 129/3/2 128/3/2 130/3/2
f 131/3/2 132/3/2 133/3/2
f 133/3/2 132/3/2 134/3/2
f 135/3/2 136/3/2 138/3/2
f 136/2/2 137/2/2 139/2/2
f 138/3/2 136/3/2 139/3/2
f 139/2/2 137/2/2 140/2/2
f 140/2/2 137/2/2 141/2/2
f 142/3/2 143/3/2 145/3/2
f 143/1/2 144/1/2 146/1/2
f 145/3/2 143/3/2 146/3/2
f 146/1/2 144/1/2 147/1/2
f 148/3/2 149/3/2 150/3/2
f 150/3/2 149/3/2 151/3/2
f 148/3/2 150/3/2 152/3/2
f 150/1/2 151/1/2 153/1/2
f 152/3/2 150/3/2 153/3/2
f 153/1/2 151/1/2 154/1/2
f 155/3/2 156/3/2 157/3/2
f 157/3/2 156/3/2 158/3/2
f 159/3/2 160/3/2 161/3/2
f 161/3/2 160/3/2 162/3/2
f 163/3/2 164/3/2 165/3/2
f 165/3/2 164/3/2 166/3/2
f 167/2/2 168/2/2 173/2/2
f 168/3/2 169/3/2 173/3/2
f 169/2/2 170/2/2 174/2/2
f 173/3/2 169/3/2 174/3/2
f 170/3/2 171/3/2 175/3/2
f 174/2/2 170/2/2 175/2/2
f 171/2/2 172/2/2 176/2/2
f 175/3/2 171/3/2 176/3/2
f 176/2/2 172/2/2 177/2/2
f 174/2/2 175/2/2 180/2/2
f 177/2/2 178/2/2 180/2/2
f 176/2/2 177/2/2 180/2/2
f 175/2/2 176/2/2 180/2/2
f 167/2/2 173/2/2 180/2/2
f 173/2/2 174/2/2 180/2/2
f 180/2/2 178/2/2 181/2/2
f 181/2/2 178/2/2 182/2/2
f 182/2/2 178/2/2 183/2/2
f 180/1/2 181/1/2 184/1/2
f 181/2/2 182/2/2 184/2/2
f 184/2/2 182/2/2 185/2/2
f 185/2/2 182/2/2 186/2/2
f 183/2/2 178/2/2 187/2/2
f 182/3/2 183/3/2 187/3/2
f 187/2/2 178/2/2 188/2/2
f 180/1/2 184/1/2 189/1/2
f 184/1/2 185/1/2 189/1/2
f 185/3/2 186/3/2 190/3/2
f 189/1/2 185/1/2 190/1/2
f 186/2/2 182/2/2 191/2/2
f 190/3/2 186/3/2 191/3/2
f 187/3/2 188/3/2 192/3/2
f 191/2/2 182/2/2 192/2/2
f 182/3/2 187/3/2 192/3/2
f 192/3/2 188/3/2 193/3/2
f 179/2/2 180/2/2 194/2/2
f 180/1/2 189/1/2 194/1/2
f 189/3/2 190/3/2 195/3/2
f 194/1/2 189/1/2 195/1/2
f 195/3/2 190/3/2 196/3/2
f 179/2/2 194/2/2 197/2/2
f 194/2/2 195/2/2 197/2/2
f 197/2/2 195/2/2 198/2/2
f 197/3/2 198/3/2 200/3/2
f 198/3/2 199/3/2 200/3/2
f 200/3/2 199/3/2 201/3/2
f 197/3/2 200/3/2 202/3/2
f 200/1/2 201/1/2 202/1/2
f 201/3/2 199/3/2 203/3/2
f 202/1/2 201/1/2 203/1/2
f 197/3/2 202/3/2 204/3/2
f 202/3/2 203/3/2 204/3/2
f 203/3/2 199/3/2 205/3/2
f 204/3/2 203/3/2 205/3/2
f 209/3/3 207/3/3 206/3/3
f 210/3/3 207/3/3 209/3/3
f 210/3/3 209/3/3 208/3/3
f 211/3/3 207/3/3 210/3/3
f 214/3/3 210/3/3 208/3/3
f 215/3/3 210/3/3 214/3/3
f 216/3/3 210/3/3 215/3/3
f 219/3/3 213/3/3 212/3/3
f 220/3/3 213/3/3 219/3/3
f 222/3/3 217/3/3 216/3/3
f 222/3/3 216/3/3 215/3/3
f 223/3/3 217/3/3 222/3/3
f 224/3/3 221/3/3 220/3/3
f 224/3/3 220/3/3 219/3/3
f 224/3/3 219/3/3 218/3/3
f 225/3/3 221/3/3 224/3/3
f 227/2/3 223/2/3 222/2/3
f 228/3/3 226/3/3 225/3/3
f 228/2/3 223/2/3 227/2/3
f 228/3/3 224/3/3 223/3/3
f 228/3/3 225/3/3 224/3/3
f 229/3/3 226/3/3 228/3/3
f 232/3/3 231/3/3 230/3/3
f 234/3/3 232/3/3 230/3/3
f 235/2/3 233/2/3 232/2/3
f 235/3/3 232/3/3 234/3/3
f 236/2/3 233/2/3 235/2/3
f 237/2/3 235/2/3 234/2/3
f 237/2/3 236/2/3 235/2/3
f 238/2/3 236/2/3 237/2/3
f 242/3/3 240/3/3 239/3/3
f 243/3/3 240/3/3 242/3/3
f 245/3/3 242/3/3 241/3/3
f 245/3/3 244/3/3 243/3/3
f 245/3/3 243/3/3 242/3/3
f 246/3/3 244/3/3 245/3/3
f 247/3/3 244/3/3 246/3/3
f 248/3/3 244/3/3 247/3/3
f 249/3/3 244/3/3 248/3/3
f 251/3/3 247/3/3 246/3/3
f 252/3/3 247/3/3 251/3/3
f 253/3/3 250/3/3 249/3/3
f 253/3/3 249/3/3 248/3/3
f 254/3/3 250/3/3 253/3/3
f 257/3/3 256/3/3 255/3/3
f 258/3/3 256/3/3 257/3/3
f 261/2/3 260/2/3 259/2/3
f 262/2/3 260/2/3 261/2/3
f 266/3/3 264/3/3 263/3/3
f 267/3/3 264/3/3 266/3/3
f 269/3/3 266/3/3 265/3/3
f 270/3/3 266/3/3 269/3/3
f 273/3/3 269/3/3 268/3/3
f 274/3/3 269/3/3 273/3/3
f 276/3/3 272/3/3 271/3/3
f 277/3/3 272/3/3 276/3/3
f 278/3/3 272/3/3 277/3/3
f 280/2/3 276/2/3 275/2/3
f 281/3/3 277/3/3 276/3/3
f 281/2/3 276/2/3 280/2/3
f 282/3/3 277/3/3 281/3/3
f 283/3/3 280/3/3 279/3/3
f 283/3/3 281/3/3 280/3/3
f 284/3/3 281/3/3 283/3/3
f 285/2/4 286/2/4 289/2/4
f 289/2/4 286/2/4 290/2/4
f 287/2/4 288/2/4 291/2/4
f 291/2/4 288/2/4 292/2/4
f 293/3/4 294/3/4 298/3/4
f 298/3/4 294/3/4 299/3/4
f 295/3/4 296/3/4 301/3/4
f 301/3/4 296/3/4 302/3/4
f 297/3/4 298/3/4 303/3/4
f 303/3/4 298/3/4 304/3/4
f 299/3/4 300/3/4 305/3/4
f 305/3/4 300/3/4 306/3/4
f 295/3/4 301/3/4 308/3/4
f 308/3/4 301/3/4 309/3/4
f 303/3/4 304/3/4 310/3/4
f 306/3/4 307/3/4 310/3/4
f 305/3/4 306/3/4 310/3/4
f 304/3/4 305/3/4 310/3/4
f 302/3/4 303/3/4 310/3/4
f 310/3/4 307/3/4 311/3/4
f 312/3/4 313/3/4 315/3/4
f 315/3/4 313/3/4 316/3/4
f 314/3/4 315/3/4 318/3/4
f 318/3/4 315/3/4 319/3/4
f 317/3/4 318/3/4 320/3/4
f 320/3/4 318/3/4 321/3/4
f 322/2/4 323/2/4 324/2/4
f 324/2/4 323/2/4 325/2/4
f 325/2/4 326/2/4 327/2/4
f 327/2/4 326/2/4 328/2/4
f 329/3/4 330/3/4 332/3/4
f 332/3/4 330/3/4 333/3/4
f 331/3/4 332/3/4 336/3/4
f 333/3/4 334/3/4 336/3/4
f 332/3/4 333/3/4 336/3/4
f 336/3/4 334/3/4 337/3/4
f 337/3/4 334/3/4 338/3/4
f 338/3/4 334/3/4 339/3/4
f 339/3/4 334/3/4 340/3/4
f 340/3/4 334/3/4 341/3/4
f 341/3/4 334/3/4 342/3/4
f 335/3/4 336/3/4 344/3/4
f 336/1/4 337/1/4 344/1/4
f 344/1/4 337/1/4 345/1/4
f 338/1/4 339/1/4 346/1/4
f 339/3/4 340/3/4 347/3/4
f 346/1/4 339/1/4 347/1/4
f 347/3/4 340/3/4 348/3/4
f 348/3/4 340/3/4 349/3/4
f 342/3/4 343/3/4 350/3/4
f 341/3/4 342/3/4 350/3/4
f 350/3/4 343/3/4 351/3/4
f 345/1/4 346/1/4 352/1/4
f 344/3/4 345/3/4 352/3/4
f 352/1/4 346/1/4 353/1/4
f 347/1/4 348/1/4 354/1/4
f 354/1/4 348/1/4 355/1/4
f 352/3/4 353/3/4 356/3/4
f 335/3/4 344/3/4 356/3/4
f 344/3/4 352/3/4 356/3/4
f 353/1/4 354/1/4 357/1/4
f 356/3/4 353/3/4 357/3/4
f 357/1/4 354/1/4 358/1/4
f 359/3/4 360/3/4 361/3/4
f 359/3/4 361/3/4 362/3/4
f 362/3/4 361/3/4 363/3/4
f 362/2/4 363/2/4 364/2/4
f 364/2/4 363/2/4 365/2/4
f 366/3/4 367/3/4 369/3/4
f 368/3/4 369/3/4 370/3/4
f 369/3/4 367/3/4 371/3/4
f 370/3/4 369/3/4 371/3/4
f 371/3/4 367/3/4 372/3/4
f 370/2/4 371/2/4 374/2/4
f 372/3/4 373/3/4 374/3/4
f 371/3/4 372/3/4 374/3/4
f 374/3/4 373/3/4 375/3/4
f 370/2/4 374/2/4 376/2/4
f 374/2/4 375/2/4 376/2/4
f 375/3/4 373/3/4 377/3/4
f 376/2/4 375/2/4 377/2/4
f 377/3/4 373/3/4 378/3/4
f 383/3/5 380/3/5 379/3/5
f 384/2/5 381/2/5 380/2/5
f 384/3/5 380/3/5 383/3/5
f 385/2/5 381/2/5 384/2/5
f 386/3/5 383/3/5 382/3/5
f 386/3/5 384/3/5 383/3/5
f 386/3/5 385/3/5 384/3/5
f 387/3/5 385/3/5 386/3/5
f 388/3/5 386/3/5 382/3/5
f 389/3/5 386/3/5 388/3/5
f 390/2/5 389/2/5 388/2/5
f 391/3/5 386/3/5 389/3/5
f 391/2/5 389/2/5 390/2/5
f 392/2/5 387/2/5 386/2/5
f 392/3/5 386/3/5 391/3/5
f 392/3/5 391/3/5 390/3/5
f 393/2/5 387/2/5 392/2/5
f 394/3/5 393/3/5 392/3/5
f 395/3/5 393/3/5 394/3/5
f 396/3/5 392/3/5 390/3/5
f 396/3/5 394/3/5 392/3/5
f 397/2/5 395/2/5 394/2/5
f 397/3/5 394/3/5 396/3/5
f 398/2/5 395/2/5 397/2/5
f 401/3/5 400/3/5 399/3/5
f 402/3/5 400/3/5 401/3/5
f 403/3/5 401/3/5 399/3/5
f 404/3/5 401/3/5 403/3/5
f 405/3/5 403/3/5 399/3/5
f 406/3/5 403/3/5 405/3/5
f 407/2/5 406/2/5 405/2/5
f 408/2/5 406/2/5 407/2/5
f 409/3/5 408/3/5 407/3/5
f 413/3/5 410/3/5 409/3/5
f 413/3/5 409/3/5 407/3/5
f 414/2/5 412/2/5 411/2/5
f 414/3/5 410/3/5 413/3/5
f 414/2/5 411/2/5 410/2/5
f 415/2/5 412/2/5 414/2/5
f 421/3/5 419/3/5 418/3/5
f 422/2/5 420/2/5 419/2/5
f 422/3/5 419/3/5 421/3/5
f 423/2/5 420/2/5 422/2/5
f 424/3/5 417/3/5 416/3/5
f 425/3/5 417/3/5 424/3/5
f 428/3/5 427/3/5 426/3/5
f 429/3/5 427/3/5 428/3/5
f 432/3/5 431/3/5 430/3/5
f 433/3/5 431/3/5 432/3/5
f 436/2/5 434/2/5 433/2/5
f 437/2/5 434/2/5 436/2/5
f 438/3/5 436/3/5 435/3/5
f 439/3/5 436/3/5 438/3/5
f 442/3/5 441/3/5 440/3/5
f 443/3/5 441/3/5 442/3/5
f 446/2/5 444/2/5 443/2/5
f 447/2/5 444/2/5 446/2/5
f 450/3/5 446/3/5 445/3/5
f 451/3/5 446/3/5 450/3/5
f 452/1/5 449/1/5 448/1/5
f 453/1/5 449/1/5 452/1/5
f 456/3/5 455/3/5 454/3/5
f 457/3/5 455/3/5 456/3/5
f 460/1/5 459/1/5 458/1/5
f 461/1/5 459/1/5 460/1/5
f 464/3/5 463/3/5 462/3/5
f 465/3/5 463/3/5 464/3/5
f 468/3/5 467/3/5 466/3/5
f 469/3/5 467/3/5 468/3/5
f 472/3/5 471/3/5 470/3/5
f 473/3/5 471/3/5 472/3/5
f 476/3/5 475/3/5 474/3/5
f 477/3/5 475/3/5 476/3/5
f 480/3/5 479/3/5 478/3/5
f 481/3/5 479/3/5 480/3/5
f 482/3/6 483/3/6 484/3/6
f 484/3/6 483/3/6 485/3/6
f 484/2/6 485/2/6 486/2/6
f 486/2/6 485/2/6 487/2/6
f 487/2/6 485/2/6 488/2/6
f 487/3/6 488/3/6 490/3/6
f 489/3/6 490/3/6 491/3/6
f 490/3/6 488/3/6 492/3/6
f 491/3/6 490/3/6 492/3/6
f 493/3/6 494/3/6 495/3/6
f 495/3/6 494/3/6 496/3/6
f 496/3/6 494/3/6 499/3/6
f 499/3/6 494/3/6 500/3/6
f 497/3/6 498/3/6 501/3/6
f 501/3/6 498/3/6 502/3/6
f 497/3/6 501/3/6 503/3/6
f 501/2/6 502/2/6 503/2/6
f 503/2/6 502/2/6 504/2/6
f 505/1/6 506/1/6 507/1/6
f 507/1/6 506/1/6 508/1/6
f 497/3/6 503/3/6 509/3/6
f 503/3/6 504/3/6 509/3/6
f 509/3/6 504/3/6 510/3/6
f 511/3/6 512/3/6 513/3/6
f 513/3/6 512/3/6 514/3/6
f 515/2/6 516/2/6 517/2/6
f 517/2/6 516/2/6 518/2/6
f 519/1/6 520/1/6 521/1/6
f 521/1/6 520/1/6 522/1/6
f 523/3/6 524/3/6 527/3/6
f 527/3/6 524/3/6 528/3/6
f 525/3/6 526/3/6 529/3/6
f 529/3/6 526/3/6 530/3/6
f 529/2/6 530/2/6 531/2/6
f 531/2/6 530/2/6 532/2/6
f 533/3/6 534/3/6 535/3/6
f 535/3/6 534/3/6 536/3/6
f 535/1/6 536/1/6 537/1/6
f 537/1/6 536/1/6 538/1/6
f 539/3/6 540/3/6 541/3/6
f 541/3/6 540/3/6 542/3/6
f 541/1/6 542/1/6 543/1/6
f 543/1/6 542/1/6 544/1/6
f 545/3/6 546/3/6 547/3/6
f 547/3/6 546/3/6 548/3/6
f 549/3/6 550/3/6 551/3/6
f 551/3/6 550/3/6 552/3/6
f 553/3/6 554/3/6 555/3/6
f 555/3/6 554/3/6 556/3/6
f 557/3/6 558/3/6 561/3/6
f 561/3/6 558/3/6 562/3/6
f 559/3/6 560/3/6 563/3/6
f 563/3/6 560/3/6 564/3/6
f 565/3/6 566/3/6 569/3/6
f 569/3/6 566/3/6 570/3/6
f 567/3/6 568/3/6 571/3/6
f 571/3/6 568/3/6 572/3/6
f 573/3/6 574/3/6 575/3/6
f 575/3/6 574/3/6 576/3/6
