# MagicaVoxel @ Ephtracy

# group
o 

# material
mtllib Mini-Bot_Wizard_LOD1-1.mtl
usemtl palette

# normals
vn 1 0 0
vn -1 0 0
vn 0 0 -1
vn 0 0 1
vn 0 -1 0
vn 0 1 0

# texcoords
vt 0.970703 0.5
vt 0.974609 0.5
vt 0.978516 0.5

# verts
v 0 1.2 -0.4
v 0 1.2 -0.3
v 0 1.2 -0.2
v 0 1.2 0.2
v 0 1.2 0.3
v 0 1.2 0.4
v 0 1.3 -0.3
v 0 1.3 -0.2
v 0 1.3 0.2
v 0 1.3 0.3
v 0 1.3 0.4
v 0 1.3 0.5
v 0 1.4 -0.5
v 0 1.4 -0.4
v 0 1.5 0.1
v 0 1.5 0.2
v 0 1.6 -0.2
v 0 1.6 -0.1
v 0 1.6 0.2
v 0 1.6 0.5
v 0 1.7 -0.3
v 0 1.7 -0.2
v 0 1.7 -0.1
v 0 1.7 0.1
v 0 1.7 0.5
v 0 1.8 -0.3
v 0 1.8 -0.2
v 0 1.9 -0.5
v 0 1.9 -0.3
v 0 1.9 -0.2
v 0 2 -0.4
v 0 2 -0.3
v 0 2.3 -0.4
v 0 2.3 -0.3
v 0 2.4 -0.5
v 0 2.4 -0.2
v -0.1 1.8 -0.3
v -0.1 1.8 -0.2
v -0.1 1.9 -0.3
v -0.1 1.9 -0.2
v -0.2 1.3 -0.5
v -0.2 1.3 -0.4
v -0.2 1.4 -0.5
v -0.2 1.4 -0.4
v -0.2 2.1 -0.3
v -0.2 2.1 -0.2
v -0.2 2.2 -0.3
v -0.2 2.2 -0.2
v -0.3 1.5 0.1
v -0.3 1.5 0.3
v -0.3 1.8 0.2
v -0.3 1.8 0.3
v -0.3 1.9 0.1
v -0.3 1.9 0.2
v -0.3 1.9 0.3
v -0.4 1.5 -0.5
v -0.4 1.5 -0.1
v -0.4 1.5 0.1
v -0.4 1.7 -0.5
v -0.4 1.7 -0.1
v -0.4 1.8 -0.1
v -0.4 1.8 0.1
v -0.4 1.9 0.1
v -0.4 1.9 0.2
v -0.4 1.9 0.3
v -0.4 2 0.1
v -0.4 2 0.2
v -0.4 2 0.3
v -0.5 1.7 -0.3
v -0.5 1.7 -0.1
v -0.5 1.8 -0.1
v -0.5 1.8 0.1
v -0.5 1.8 0.2
v -0.5 1.8 0.3
v -0.5 1.9 -0.3
v -0.5 1.9 -0.1
v -0.5 1.9 0.1
v -0.5 1.9 0.2
v -0.5 1.9 0.3
v -0.5 2 0.1
v -0.5 2 0.2
v -0.5 2 0.3
v -0.5 2.1 0.1
v -0.5 2.1 0.3
v -0.5 2.3 -0.3
v -0.5 2.3 0.3
v -0.5 2.5 -0.3
v -0.5 2.5 0.3
v -0.6 1.7 0.2
v -0.6 1.7 0.3
v -0.6 1.8 0.2
v -0.6 1.8 0.3
v -0.6 1.9 -0.3
v -0.6 1.9 -0.1
v -0.6 1.9 0.1
v -0.6 2.1 -0.1
v -0.6 2.1 0.1
v -0.6 2.1 0.3
v -0.6 2.3 -0.3
v -0.6 2.3 0.3
v -0.1 1.9 -0.5
v -0.1 1.9 -0.2
v -0.1 2 -0.5
v -0.1 2 -0.2
v -0.1 2.1 -0.3
v -0.1 2.1 -0.2
v -0.1 2.2 -0.3
v -0.1 2.2 -0.2
v -0.1 2.3 -0.5
v -0.1 2.3 -0.2
v -0.1 2.4 -0.5
v -0.1 2.4 -0.2
v -0.2 1.5 -0.5
v -0.2 1.5 -0.1
v -0.2 1.5 0.1
v -0.2 1.5 0.5
v -0.2 1.7 -0.2
v -0.2 1.7 0.5
v -0.2 1.9 -0.5
v -0.2 1.9 -0.2
v -0.2 2 -0.5
v -0.2 2 -0.2
v -0.2 2.1 -0.5
v -0.2 2.1 -0.2
v -0.2 2.2 -0.5
v -0.2 2.2 -0.2
v -0.2 2.3 -0.5
v -0.2 2.3 -0.2
v -0.3 1.2 -0.4
v -0.3 1.2 -0.3
v -0.3 1.3 -0.4
v -0.3 1.3 -0.3
v -0.3 2.1 -0.5
v -0.3 2.1 -0.2
v -0.3 2.2 -0.5
v -0.3 2.2 -0.2
v -0.4 1.2 -0.3
v -0.4 1.2 -0.1
v -0.4 1.2 0.1
v -0.4 1.2 0.4
v -0.4 1.3 -0.3
v -0.4 1.3 -0.1
v -0.4 1.3 0.1
v -0.4 1.3 0.4
v -0.4 1.8 0.2
v -0.4 1.8 0.3
v -0.4 1.9 0.2
v -0.4 1.9 0.3
v -0.5 1.3 -0.5
v -0.5 1.3 -0.1
v -0.5 1.3 0.1
v -0.5 1.3 0.5
v -0.5 1.4 -0.5
v -0.5 1.4 -0.1
v -0.5 1.4 0.1
v -0.5 1.4 0.5
v -0.5 1.6 -0.1
v -0.5 1.6 0.1
v -0.5 1.7 0.2
v -0.5 1.7 0.3
v -0.5 1.8 0.2
v -0.5 1.8 0.3
v -0.6 1.4 -0.5
v -0.6 1.4 -0.1
v -0.6 1.4 0.1
v -0.6 1.4 0.5
v -0.6 1.5 0.3
v -0.6 1.5 0.5
v -0.6 1.6 -0.3
v -0.6 1.6 -0.1
v -0.6 1.6 0.1
v -0.6 1.6 0.3
v -0.6 1.7 -0.5
v -0.6 1.7 -0.3
v -0.6 1.8 -0.1
v -0.6 1.8 0.1
v -0.6 2.4 -0.3
v -0.6 2.4 0.3
v -0.6 2.5 -0.3
v -0.6 2.5 0.3
v -0.7 1.6 -0.3
v -0.7 1.6 -0.1
v -0.7 1.6 0.1
v -0.7 1.6 0.3
v -0.7 1.8 -0.3
v -0.7 1.8 -0.1
v -0.7 1.8 0.1
v -0.7 1.8 0.3
v -0.7 2.1 -0.1
v -0.7 2.1 0.1
v -0.7 2.3 -0.3
v -0.7 2.3 0.3
v -0.7 2.4 -0.3
v -0.7 2.4 0.3
v -0.8 1.8 -0.3
v -0.8 1.8 -0.1
v -0.8 1.8 0.1
v -0.8 1.8 0.3
v -0.8 2.1 -0.1
v -0.8 2.1 0.1
v -0.8 2.3 -0.3
v -0.8 2.3 0.3
v 0 1.4 -0.5
v 0 1.9 -0.5
v 0 2.4 -0.5
v -0.1 1.4 -0.5
v -0.1 1.9 -0.5
v -0.1 2 -0.5
v -0.1 2.3 -0.5
v -0.1 2.4 -0.5
v -0.2 1.3 -0.5
v -0.2 1.4 -0.5
v -0.2 1.5 -0.5
v -0.2 1.9 -0.5
v -0.2 2 -0.5
v -0.2 2.1 -0.5
v -0.2 2.2 -0.5
v -0.2 2.3 -0.5
v -0.3 2.1 -0.5
v -0.3 2.2 -0.5
v -0.4 1.5 -0.5
v -0.4 1.7 -0.5
v -0.5 1.3 -0.5
v -0.5 1.4 -0.5
v -0.6 1.4 -0.5
v -0.6 1.7 -0.5
v 0 1.2 -0.4
v 0 1.4 -0.4
v -0.1 1.2 -0.4
v -0.1 1.3 -0.4
v -0.1 1.4 -0.4
v -0.2 1.3 -0.4
v -0.2 1.4 -0.4
v -0.3 1.2 -0.4
v -0.3 1.3 -0.4
v -0.3 1.2 -0.3
v -0.3 1.3 -0.3
v -0.4 1.2 -0.3
v -0.4 1.3 -0.3
v -0.5 1.7 -0.3
v -0.5 1.9 -0.3
v -0.5 2.3 -0.3
v -0.5 2.5 -0.3
v -0.6 1.6 -0.3
v -0.6 1.7 -0.3
v -0.6 1.9 -0.3
v -0.6 2.3 -0.3
v -0.6 2.4 -0.3
v -0.6 2.5 -0.3
v -0.7 1.6 -0.3
v -0.7 1.8 -0.3
v -0.7 2.3 -0.3
v -0.7 2.4 -0.3
v -0.8 1.8 -0.3
v -0.8 2.3 -0.3
v -0.4 1.7 -0.1
v -0.4 1.8 -0.1
v -0.5 1.7 -0.1
v -0.5 1.8 -0.1
v -0.3 1.5 0.1
v -0.3 1.9 0.1
v -0.4 1.5 0.1
v -0.4 1.8 0.1
v -0.4 1.9 0.1
v -0.4 2 0.1
v -0.5 1.4 0.1
v -0.5 1.6 0.1
v -0.5 1.8 0.1
v -0.5 1.9 0.1
v -0.5 2 0.1
v -0.5 2.1 0.1
v -0.6 1.4 0.1
v -0.6 1.6 0.1
v -0.6 1.8 0.1
v -0.6 1.9 0.1
v -0.6 2.1 0.1
v -0.7 1.6 0.1
v -0.7 1.8 0.1
v -0.7 2.1 0.1
v -0.8 1.8 0.1
v -0.8 2.1 0.1
v 0 1.8 -0.3
v 0 1.9 -0.3
v -0.1 1.8 -0.3
v -0.1 1.9 -0.3
v -0.1 2.1 -0.3
v -0.1 2.2 -0.3
v -0.2 2.1 -0.3
v -0.2 2.2 -0.3
v 0 1.7 -0.2
v 0 1.8 -0.2
v 0 1.9 -0.2
v 0 2.4 -0.2
v -0.1 1.8 -0.2
v -0.1 1.9 -0.2
v -0.1 2 -0.2
v -0.1 2.1 -0.2
v -0.1 2.2 -0.2
v -0.1 2.3 -0.2
v -0.1 2.4 -0.2
v -0.2 1.7 -0.2
v -0.2 1.9 -0.2
v -0.2 2 -0.2
v -0.2 2.1 -0.2
v -0.2 2.2 -0.2
v -0.2 2.3 -0.2
v -0.3 2.1 -0.2
v -0.3 2.2 -0.2
v -0.5 1.4 -0.1
v -0.5 1.6 -0.1
v -0.6 1.4 -0.1
v -0.6 1.6 -0.1
v -0.6 1.8 -0.1
v -0.7 1.6 -0.1
v -0.7 1.8 -0.1
v -0.7 2.1 -0.1
v -0.8 1.8 -0.1
v -0.8 2.1 -0.1
v -0.4 1.8 0.2
v -0.4 1.9 0.2
v -0.5 1.7 0.2
v -0.5 1.8 0.2
v -0.5 1.9 0.2
v -0.6 1.7 0.2
v -0.6 1.8 0.2
v -0.3 1.5 0.3
v -0.3 1.8 0.3
v -0.3 1.9 0.3
v -0.4 1.7 0.3
v -0.4 1.8 0.3
v -0.4 1.9 0.3
v -0.4 2 0.3
v -0.5 1.6 0.3
v -0.5 1.7 0.3
v -0.5 1.8 0.3
v -0.5 1.9 0.3
v -0.5 2 0.3
v -0.5 2.1 0.3
v -0.5 2.3 0.3
v -0.5 2.5 0.3
v -0.6 1.5 0.3
v -0.6 1.6 0.3
v -0.6 1.7 0.3
v -0.6 1.8 0.3
v -0.6 1.9 0.3
v -0.6 2.1 0.3
v -0.6 2.3 0.3
v -0.6 2.4 0.3
v -0.6 2.5 0.3
v -0.7 1.6 0.3
v -0.7 1.8 0.3
v -0.7 2.3 0.3
v -0.7 2.4 0.3
v -0.8 1.8 0.3
v -0.8 2.3 0.3
v 0 1.2 0.4
v 0 1.3 0.4
v -0.1 1.2 0.4
v -0.1 1.3 0.4
v -0.3 1.3 0.4
v -0.4 1.2 0.4
v -0.4 1.3 0.4
v 0 1.3 0.5
v 0 1.6 0.5
v 0 1.7 0.5
v -0.1 1.4 0.5
v -0.1 1.6 0.5
v -0.2 1.5 0.5
v -0.2 1.7 0.5
v -0.3 1.3 0.5
v -0.3 1.4 0.5
v -0.5 1.3 0.5
v -0.5 1.4 0.5
v -0.6 1.4 0.5
v -0.6 1.5 0.5
v 0 1.2 -0.4
v -0.1 1.2 -0.4
v -0.3 1.2 -0.4
v 0 1.2 -0.3
v -0.1 1.2 -0.3
v -0.3 1.2 -0.3
v -0.4 1.2 -0.3
v 0 1.2 -0.2
v -0.2 1.2 -0.2
v -0.3 1.2 -0.1
v -0.4 1.2 -0.1
v -0.3 1.2 0.1
v -0.4 1.2 0.1
v 0 1.2 0.2
v -0.2 1.2 0.2
v 0 1.2 0.3
v -0.1 1.2 0.3
v 0 1.2 0.4
v -0.1 1.2 0.4
v -0.4 1.2 0.4
v -0.2 1.3 -0.5
v -0.5 1.3 -0.5
v -0.2 1.3 -0.4
v -0.3 1.3 -0.4
v -0.3 1.3 -0.3
v -0.4 1.3 -0.3
v -0.4 1.3 -0.1
v -0.5 1.3 -0.1
v -0.4 1.3 0.1
v -0.5 1.3 0.1
v 0 1.3 0.4
v -0.1 1.3 0.4
v -0.3 1.3 0.4
v -0.4 1.3 0.4
v 0 1.3 0.5
v -0.3 1.3 0.5
v -0.5 1.3 0.5
v 0 1.4 -0.5
v -0.1 1.4 -0.5
v -0.2 1.4 -0.5
v -0.5 1.4 -0.5
v -0.6 1.4 -0.5
v 0 1.4 -0.4
v -0.1 1.4 -0.4
v -0.2 1.4 -0.4
v -0.5 1.4 -0.1
v -0.6 1.4 -0.1
v -0.5 1.4 0.1
v -0.6 1.4 0.1
v -0.5 1.4 0.5
v -0.6 1.4 0.5
v -0.6 1.6 -0.3
v -0.7 1.6 -0.3
v -0.5 1.6 -0.1
v -0.6 1.6 -0.1
v -0.7 1.6 -0.1
v -0.5 1.6 0.1
v -0.6 1.6 0.1
v -0.7 1.6 0.1
v -0.6 1.6 0.3
v -0.7 1.6 0.3
v -0.7 1.8 -0.3
v -0.8 1.8 -0.3
v -0.6 1.8 -0.1
v -0.7 1.8 -0.1
v -0.8 1.8 -0.1
v -0.6 1.8 0.1
v -0.7 1.8 0.1
v -0.8 1.8 0.1
v -0.5 1.8 0.2
v -0.6 1.8 0.2
v -0.5 1.8 0.3
v -0.6 1.8 0.3
v -0.7 1.8 0.3
v -0.8 1.8 0.3
v 0 1.9 -0.3
v -0.1 1.9 -0.3
v 0 1.9 -0.2
v -0.1 1.9 -0.2
v -0.4 1.9 0.2
v -0.5 1.9 0.2
v -0.4 1.9 0.3
v -0.5 1.9 0.3
v -0.1 2 -0.5
v -0.2 2 -0.5
v -0.1 2 -0.2
v -0.2 2 -0.2
v -0.2 2.1 -0.5
v -0.3 2.1 -0.5
v -0.2 2.1 -0.2
v -0.3 2.1 -0.2
v -0.7 2.1 -0.1
v -0.8 2.1 -0.1
v -0.7 2.1 0.1
v -0.8 2.1 0.1
v -0.1 2.2 -0.3
v -0.2 2.2 -0.3
v -0.1 2.2 -0.2
v -0.2 2.2 -0.2
v -0.5 2.3 -0.3
v -0.6 2.3 -0.3
v -0.5 2.3 0.3
v -0.6 2.3 0.3
v -0.2 1.5 -0.5
v -0.4 1.5 -0.5
v -0.2 1.5 -0.1
v -0.4 1.5 -0.1
v -0.2 1.5 0.1
v -0.3 1.5 0.1
v -0.4 1.5 0.1
v -0.3 1.5 0.3
v -0.6 1.5 0.3
v -0.2 1.5 0.5
v -0.6 1.5 0.5
v -0.4 1.7 -0.5
v -0.6 1.7 -0.5
v -0.5 1.7 -0.3
v -0.6 1.7 -0.3
v 0 1.7 -0.2
v -0.2 1.7 -0.2
v 0 1.7 -0.1
v -0.1 1.7 -0.1
v -0.4 1.7 -0.1
v -0.5 1.7 -0.1
v 0 1.7 0.1
v -0.1 1.7 0.1
v -0.5 1.7 0.2
v -0.6 1.7 0.2
v -0.5 1.7 0.3
v -0.6 1.7 0.3
v 0 1.7 0.5
v -0.2 1.7 0.5
v 0 1.8 -0.3
v -0.1 1.8 -0.3
v 0 1.8 -0.2
v -0.1 1.8 -0.2
v -0.4 1.8 -0.1
v -0.5 1.8 -0.1
v -0.4 1.8 0.1
v -0.5 1.8 0.1
v -0.4 1.8 0.2
v -0.5 1.8 0.2
v -0.4 1.8 0.3
v -0.5 1.8 0.3
v -0.1 1.9 -0.5
v -0.2 1.9 -0.5
v -0.5 1.9 -0.3
v -0.6 1.9 -0.3
v -0.1 1.9 -0.2
v -0.2 1.9 -0.2
v -0.5 1.9 -0.1
v -0.6 1.9 -0.1
v -0.3 1.9 0.1
v -0.4 1.9 0.1
v -0.5 1.9 0.1
v -0.6 1.9 0.1
v -0.3 1.9 0.2
v -0.4 1.9 0.2
v -0.3 1.9 0.3
v -0.4 1.9 0.3
v -0.4 2 0.1
v -0.5 2 0.1
v -0.4 2 0.2
v -0.5 2 0.2
v -0.4 2 0.3
v -0.5 2 0.3
v -0.1 2.1 -0.3
v -0.2 2.1 -0.3
v -0.1 2.1 -0.2
v -0.2 2.1 -0.2
v -0.5 2.1 0.1
v -0.6 2.1 0.1
v -0.5 2.1 0.3
v -0.6 2.1 0.3
v -0.2 2.2 -0.5
v -0.3 2.2 -0.5
v -0.2 2.2 -0.2
v -0.3 2.2 -0.2
v -0.1 2.3 -0.5
v -0.2 2.3 -0.5
v -0.7 2.3 -0.3
v -0.8 2.3 -0.3
v -0.1 2.3 -0.2
v -0.2 2.3 -0.2
v -0.7 2.3 0.3
v -0.8 2.3 0.3
v 0 2.4 -0.5
v -0.1 2.4 -0.5
v -0.6 2.4 -0.3
v -0.7 2.4 -0.3
v 0 2.4 -0.2
v -0.1 2.4 -0.2
v -0.6 2.4 0.3
v -0.7 2.4 0.3
v -0.5 2.5 -0.3
v -0.6 2.5 -0.3
v -0.5 2.5 0.3
v -0.6 2.5 0.3

# faces
f 7/2/1 2/2/1 1/2/1
f 7/3/1 3/3/1 2/3/1
f 8/2/1 4/2/1 3/2/1
f 8/3/1 3/3/1 7/3/1
f 9/3/1 5/3/1 4/3/1
f 9/2/1 4/2/1 8/2/1
f 10/2/1 6/2/1 5/2/1
f 10/3/1 5/3/1 9/3/1
f 11/2/1 6/2/1 10/2/1
f 14/2/1 9/2/1 8/2/1
f 14/2/1 12/2/1 11/2/1
f 14/2/1 11/2/1 10/2/1
f 14/2/1 10/2/1 9/2/1
f 14/2/1 7/2/1 1/2/1
f 14/2/1 8/2/1 7/2/1
f 15/2/1 12/2/1 14/2/1
f 15/2/1 14/2/1 13/2/1
f 16/2/1 12/2/1 15/2/1
f 17/2/1 15/2/1 13/2/1
f 18/2/1 15/2/1 17/2/1
f 19/2/1 12/2/1 16/2/1
f 19/3/1 16/3/1 15/3/1
f 20/2/1 12/2/1 19/2/1
f 21/2/1 17/2/1 13/2/1
f 22/3/1 18/3/1 17/3/1
f 22/2/1 17/2/1 21/2/1
f 23/2/1 15/2/1 18/2/1
f 23/3/1 18/3/1 22/3/1
f 24/3/1 19/3/1 15/3/1
f 24/2/1 15/2/1 23/2/1
f 24/3/1 20/3/1 19/3/1
f 25/3/1 20/3/1 24/3/1
f 26/3/1 22/3/1 21/3/1
f 26/2/1 21/2/1 13/2/1
f 27/3/1 22/3/1 26/3/1
f 28/2/1 26/2/1 13/2/1
f 29/2/1 26/2/1 28/2/1
f 31/3/1 29/3/1 28/3/1
f 31/3/1 30/3/1 29/3/1
f 32/3/1 30/3/1 31/3/1
f 33/3/1 31/3/1 28/3/1
f 33/1/1 32/1/1 31/1/1
f 34/3/1 30/3/1 32/3/1
f 34/1/1 32/1/1 33/1/1
f 35/3/1 33/3/1 28/3/1
f 35/3/1 34/3/1 33/3/1
f 36/3/1 30/3/1 34/3/1
f 36/3/1 34/3/1 35/3/1
f 39/3/1 38/3/1 37/3/1
f 40/3/1 38/3/1 39/3/1
f 43/3/1 42/3/1 41/3/1
f 44/3/1 42/3/1 43/3/1
f 47/3/1 46/3/1 45/3/1
f 48/3/1 46/3/1 47/3/1
f 51/3/1 50/3/1 49/3/1
f 52/3/1 50/3/1 51/3/1
f 53/3/1 51/3/1 49/3/1
f 54/1/1 52/1/1 51/1/1
f 54/3/1 51/3/1 53/3/1
f 55/1/1 52/1/1 54/1/1
f 59/3/1 57/3/1 56/3/1
f 60/2/1 58/2/1 57/2/1
f 60/3/1 57/3/1 59/3/1
f 61/2/1 58/2/1 60/2/1
f 62/2/1 58/2/1 61/2/1
f 66/3/1 64/3/1 63/3/1
f 67/1/1 65/1/1 64/1/1
f 67/3/1 64/3/1 66/3/1
f 68/1/1 65/1/1 67/1/1
f 71/3/1 70/3/1 69/3/1
f 75/3/1 71/3/1 69/3/1
f 76/2/1 72/2/1 71/2/1
f 76/3/1 71/3/1 75/3/1
f 77/2/1 72/2/1 76/2/1
f 78/1/1 74/1/1 73/1/1
f 79/1/1 74/1/1 78/1/1
f 83/3/1 81/3/1 80/3/1
f 83/3/1 82/3/1 81/3/1
f 84/3/1 82/3/1 83/3/1
f 87/3/1 86/3/1 85/3/1
f 88/3/1 86/3/1 87/3/1
f 91/3/1 90/3/1 89/3/1
f 92/3/1 90/3/1 91/3/1
f 96/3/1 94/3/1 93/3/1
f 96/2/1 95/2/1 94/2/1
f 97/2/1 95/2/1 96/2/1
f 99/3/1 96/3/1 93/3/1
f 99/3/1 98/3/1 97/3/1
f 99/3/1 97/3/1 96/3/1
f 100/3/1 98/3/1 99/3/1
f 101/3/2 102/3/2 103/3/2
f 103/3/2 102/3/2 104/3/2
f 105/3/2 106/3/2 107/3/2
f 107/3/2 106/3/2 108/3/2
f 109/3/2 110/3/2 111/3/2
f 111/3/2 110/3/2 112/3/2
f 113/3/2 114/3/2 117/3/2
f 115/3/2 116/3/2 117/3/2
f 114/3/2 115/3/2 117/3/2
f 117/3/2 116/3/2 118/3/2
f 113/3/2 117/3/2 119/3/2
f 119/3/2 117/3/2 120/3/2
f 121/3/2 122/3/2 123/3/2
f 123/3/2 122/3/2 124/3/2
f 125/3/2 126/3/2 127/3/2
f 127/3/2 126/3/2 128/3/2
f 129/3/2 130/3/2 131/3/2
f 131/3/2 130/3/2 132/3/2
f 133/3/2 134/3/2 135/3/2
f 135/3/2 134/3/2 136/3/2
f 137/3/2 138/3/2 141/3/2
f 138/2/2 139/2/2 142/2/2
f 141/3/2 138/3/2 142/3/2
f 139/3/2 140/3/2 143/3/2
f 142/2/2 139/2/2 143/2/2
f 143/3/2 140/3/2 144/3/2
f 145/1/2 146/1/2 147/1/2
f 147/1/2 146/1/2 148/1/2
f 149/3/2 150/3/2 153/3/2
f 150/2/2 151/2/2 154/2/2
f 153/3/2 150/3/2 154/3/2
f 151/3/2 152/3/2 155/3/2
f 154/2/2 151/2/2 155/2/2
f 155/3/2 152/3/2 156/3/2
f 154/2/2 155/2/2 157/2/2
f 157/2/2 155/2/2 158/2/2
f 159/1/2 160/1/2 161/1/2
f 161/1/2 160/1/2 162/1/2
f 165/3/2 166/3/2 167/3/2
f 167/3/2 166/3/2 168/3/2
f 163/3/2 164/3/2 169/3/2
f 169/3/2 164/3/2 170/3/2
f 165/3/2 167/3/2 171/3/2
f 171/3/2 167/3/2 172/3/2
f 163/3/2 169/3/2 173/3/2
f 173/3/2 169/3/2 174/3/2
f 170/2/2 171/2/2 175/2/2
f 175/2/2 171/2/2 176/2/2
f 177/3/2 178/3/2 179/3/2
f 179/3/2 178/3/2 180/3/2
f 181/3/2 182/3/2 185/3/2
f 185/3/2 182/3/2 186/3/2
f 183/3/2 184/3/2 187/3/2
f 187/3/2 184/3/2 188/3/2
f 186/2/2 187/2/2 189/2/2
f 189/2/2 187/2/2 190/2/2
f 191/3/2 192/3/2 193/3/2
f 193/3/2 192/3/2 194/3/2
f 195/3/2 196/3/2 199/3/2
f 197/3/2 198/3/2 200/3/2
f 195/3/2 199/3/2 201/3/2
f 199/3/2 200/3/2 201/3/2
f 200/3/2 198/3/2 202/3/2
f 201/3/2 200/3/2 202/3/2
f 206/2/3 204/2/3 203/2/3
f 207/3/3 205/3/3 204/3/3
f 207/2/3 204/2/3 206/2/3
f 208/3/3 205/3/3 207/3/3
f 209/3/3 205/3/3 208/3/3
f 210/3/3 205/3/3 209/3/3
f 212/3/3 207/3/3 206/3/3
f 213/3/3 207/3/3 212/3/3
f 214/3/3 207/3/3 213/3/3
f 215/3/3 209/3/3 208/3/3
f 216/3/3 209/3/3 215/3/3
f 217/3/3 209/3/3 216/3/3
f 218/3/3 209/3/3 217/3/3
f 219/3/3 217/3/3 216/3/3
f 220/3/3 217/3/3 219/3/3
f 221/3/3 212/3/3 211/3/3
f 221/3/3 213/3/3 212/3/3
f 223/3/3 221/3/3 211/3/3
f 223/3/3 222/3/3 221/3/3
f 224/3/3 222/3/3 223/3/3
f 225/3/3 222/3/3 224/3/3
f 226/3/3 222/3/3 225/3/3
f 229/2/3 228/2/3 227/2/3
f 230/2/3 228/2/3 229/2/3
f 231/2/3 228/2/3 230/2/3
f 232/3/3 230/3/3 229/3/3
f 232/2/3 231/2/3 230/2/3
f 233/2/3 231/2/3 232/2/3
f 234/3/3 232/3/3 229/3/3
f 235/3/3 232/3/3 234/3/3
f 238/3/3 237/3/3 236/3/3
f 239/3/3 237/3/3 238/3/3
f 245/3/3 241/3/3 240/3/3
f 246/3/3 241/3/3 245/3/3
f 247/3/3 243/3/3 242/3/3
f 248/3/3 243/3/3 247/3/3
f 249/3/3 243/3/3 248/3/3
f 250/3/3 246/3/3 245/3/3
f 250/3/3 245/3/3 244/3/3
f 250/3/3 248/3/3 247/3/3
f 250/3/3 247/3/3 246/3/3
f 251/3/3 248/3/3 250/3/3
f 252/3/3 248/3/3 251/3/3
f 253/3/3 248/3/3 252/3/3
f 254/3/3 252/3/3 251/3/3
f 255/3/3 252/3/3 254/3/3
f 258/2/3 257/2/3 256/2/3
f 259/2/3 257/2/3 258/2/3
f 262/3/3 261/3/3 260/3/3
f 263/3/3 261/3/3 262/3/3
f 264/3/3 261/3/3 263/3/3
f 268/2/3 264/2/3 263/2/3
f 269/3/3 265/3/3 264/3/3
f 269/2/3 264/2/3 268/2/3
f 270/3/3 265/3/3 269/3/3
f 272/3/3 267/3/3 266/3/3
f 273/3/3 267/3/3 272/3/3
f 275/3/3 271/3/3 270/3/3
f 275/3/3 270/3/3 269/3/3
f 276/3/3 271/3/3 275/3/3
f 277/3/3 274/3/3 273/3/3
f 278/3/3 274/3/3 277/3/3
f 280/3/3 279/3/3 278/3/3
f 281/3/3 279/3/3 280/3/3
f 282/2/4 283/2/4 284/2/4
f 284/2/4 283/2/4 285/2/4
f 286/2/4 287/2/4 288/2/4
f 288/2/4 287/2/4 289/2/4
f 290/3/4 291/3/4 294/3/4
f 292/3/4 293/3/4 295/3/4
f 295/3/4 293/3/4 296/3/4
f 296/3/4 293/3/4 297/3/4
f 297/3/4 293/3/4 298/3/4
f 298/3/4 293/3/4 299/3/4
f 299/3/4 293/3/4 300/3/4
f 290/3/4 294/3/4 301/3/4
f 294/3/4 295/3/4 301/3/4
f 301/3/4 295/3/4 302/3/4
f 296/3/4 297/3/4 303/3/4
f 303/3/4 297/3/4 304/3/4
f 298/3/4 299/3/4 305/3/4
f 305/3/4 299/3/4 306/3/4
f 304/3/4 305/3/4 307/3/4
f 307/3/4 305/3/4 308/3/4
f 309/3/4 310/3/4 311/3/4
f 311/3/4 310/3/4 312/3/4
f 312/3/4 313/3/4 314/3/4
f 314/3/4 313/3/4 315/3/4
f 315/3/4 316/3/4 317/3/4
f 317/3/4 316/3/4 318/3/4
f 319/2/4 320/2/4 322/2/4
f 322/2/4 320/2/4 323/2/4
f 321/2/4 322/2/4 324/2/4
f 324/2/4 322/2/4 325/2/4
f 326/3/4 327/3/4 329/3/4
f 327/1/4 328/1/4 330/1/4
f 329/3/4 327/3/4 330/3/4
f 330/1/4 328/1/4 331/1/4
f 326/3/4 329/3/4 333/3/4
f 329/1/4 330/1/4 334/1/4
f 333/3/4 329/3/4 334/3/4
f 334/1/4 330/1/4 335/1/4
f 331/1/4 332/1/4 336/1/4
f 336/1/4 332/1/4 337/1/4
f 326/3/4 333/3/4 341/3/4
f 333/1/4 334/1/4 342/1/4
f 341/3/4 333/3/4 342/3/4
f 342/1/4 334/1/4 343/1/4
f 335/1/4 336/1/4 344/1/4
f 337/3/4 338/3/4 345/3/4
f 336/3/4 337/3/4 345/3/4
f 344/1/4 336/1/4 345/1/4
f 345/3/4 338/3/4 346/3/4
f 339/3/4 340/3/4 347/3/4
f 347/3/4 340/3/4 348/3/4
f 348/3/4 340/3/4 349/3/4
f 345/3/4 346/3/4 350/3/4
f 343/3/4 344/3/4 350/3/4
f 347/3/4 348/3/4 350/3/4
f 346/3/4 347/3/4 350/3/4
f 342/3/4 343/3/4 350/3/4
f 344/3/4 345/3/4 350/3/4
f 350/3/4 348/3/4 351/3/4
f 351/3/4 348/3/4 352/3/4
f 352/3/4 348/3/4 353/3/4
f 351/3/4 352/3/4 354/3/4
f 354/3/4 352/3/4 355/3/4
f 356/2/4 357/2/4 358/2/4
f 358/2/4 357/2/4 359/2/4
f 358/3/4 359/3/4 360/3/4
f 358/3/4 360/3/4 361/3/4
f 361/3/4 360/3/4 362/3/4
f 363/2/4 364/2/4 366/2/4
f 364/3/4 365/3/4 367/3/4
f 366/2/4 364/2/4 367/2/4
f 366/3/4 367/3/4 368/3/4
f 367/3/4 365/3/4 369/3/4
f 368/3/4 367/3/4 369/3/4
f 363/2/4 366/2/4 370/2/4
f 366/3/4 368/3/4 371/3/4
f 370/2/4 366/2/4 371/2/4
f 370/3/4 371/3/4 372/3/4
f 371/3/4 368/3/4 373/3/4
f 372/3/4 371/3/4 373/3/4
f 373/3/4 368/3/4 374/3/4
f 374/3/4 368/3/4 375/3/4
f 379/2/5 377/2/5 376/2/5
f 380/3/5 378/3/5 377/3/5
f 380/2/5 377/2/5 379/2/5
f 381/3/5 378/3/5 380/3/5
f 383/3/5 380/3/5 379/3/5
f 383/3/5 382/3/5 381/3/5
f 383/3/5 381/3/5 380/3/5
f 384/3/5 382/3/5 383/3/5
f 385/3/5 382/3/5 384/3/5
f 386/3/5 382/3/5 385/3/5
f 387/3/5 385/3/5 384/3/5
f 387/2/5 386/2/5 385/2/5
f 388/2/5 386/2/5 387/2/5
f 389/2/5 384/2/5 383/2/5
f 390/3/5 387/3/5 384/3/5
f 390/2/5 384/2/5 389/2/5
f 390/3/5 388/3/5 387/3/5
f 391/3/5 390/3/5 389/3/5
f 392/3/5 390/3/5 391/3/5
f 393/2/5 392/2/5 391/2/5
f 394/3/5 390/3/5 392/3/5
f 394/2/5 392/2/5 393/2/5
f 395/3/5 388/3/5 390/3/5
f 395/3/5 390/3/5 394/3/5
f 398/3/5 397/3/5 396/3/5
f 399/3/5 397/3/5 398/3/5
f 400/3/5 397/3/5 399/3/5
f 401/3/5 397/3/5 400/3/5
f 402/3/5 397/3/5 401/3/5
f 403/3/5 397/3/5 402/3/5
f 404/2/5 403/2/5 402/2/5
f 405/2/5 403/2/5 404/2/5
f 409/3/5 405/3/5 404/3/5
f 410/2/5 408/2/5 407/2/5
f 410/2/5 407/2/5 406/2/5
f 411/3/5 409/3/5 408/3/5
f 411/2/5 408/2/5 410/2/5
f 412/3/5 405/3/5 409/3/5
f 412/3/5 409/3/5 411/3/5
f 418/2/5 414/2/5 413/2/5
f 419/3/5 415/3/5 414/3/5
f 419/2/5 414/2/5 418/2/5
f 420/3/5 415/3/5 419/3/5
f 421/3/5 417/3/5 416/3/5
f 422/3/5 417/3/5 421/3/5
f 425/3/5 424/3/5 423/3/5
f 426/3/5 424/3/5 425/3/5
f 430/3/5 428/3/5 427/3/5
f 431/3/5 428/3/5 430/3/5
f 432/2/5 430/2/5 429/2/5
f 433/2/5 430/2/5 432/2/5
f 435/3/5 434/3/5 433/3/5
f 436/3/5 434/3/5 435/3/5
f 440/3/5 438/3/5 437/3/5
f 441/3/5 438/3/5 440/3/5
f 442/2/5 440/2/5 439/2/5
f 443/2/5 440/2/5 442/2/5
f 447/1/5 446/1/5 445/1/5
f 448/1/5 446/1/5 447/1/5
f 449/3/5 444/3/5 443/3/5
f 450/3/5 444/3/5 449/3/5
f 453/3/5 452/3/5 451/3/5
f 454/3/5 452/3/5 453/3/5
f 457/1/5 456/1/5 455/1/5
f 458/1/5 456/1/5 457/1/5
f 461/3/5 460/3/5 459/3/5
f 462/3/5 460/3/5 461/3/5
f 465/3/5 464/3/5 463/3/5
f 466/3/5 464/3/5 465/3/5
f 469/3/5 468/3/5 467/3/5
f 470/3/5 468/3/5 469/3/5
f 473/3/5 472/3/5 471/3/5
f 474/3/5 472/3/5 473/3/5
f 477/3/5 476/3/5 475/3/5
f 478/3/5 476/3/5 477/3/5
f 479/3/6 480/3/6 481/3/6
f 481/3/6 480/3/6 482/3/6
f 481/2/6 482/2/6 483/2/6
f 483/2/6 482/2/6 484/2/6
f 484/2/6 482/2/6 485/2/6
f 483/3/6 484/3/6 486/3/6
f 483/3/6 486/3/6 488/3/6
f 486/3/6 487/3/6 488/3/6
f 488/3/6 487/3/6 489/3/6
f 490/3/6 491/3/6 492/3/6
f 492/3/6 491/3/6 493/3/6
f 494/3/6 495/3/6 496/3/6
f 496/3/6 495/3/6 497/3/6
f 490/3/6 492/3/6 498/3/6
f 498/3/6 492/3/6 499/3/6
f 496/2/6 497/2/6 500/2/6
f 497/3/6 495/3/6 501/3/6
f 500/2/6 497/2/6 501/2/6
f 502/1/6 503/1/6 504/1/6
f 504/1/6 503/1/6 505/1/6
f 500/3/6 501/3/6 506/3/6
f 501/3/6 495/3/6 507/3/6
f 506/3/6 501/3/6 507/3/6
f 508/3/6 509/3/6 510/3/6
f 510/3/6 509/3/6 511/3/6
f 512/2/6 513/2/6 514/2/6
f 514/2/6 513/2/6 515/2/6
f 516/1/6 517/1/6 518/1/6
f 518/1/6 517/1/6 519/1/6
f 520/3/6 521/3/6 524/3/6
f 524/3/6 521/3/6 525/3/6
f 522/3/6 523/3/6 526/3/6
f 526/3/6 523/3/6 527/3/6
f 526/2/6 527/2/6 530/2/6
f 530/2/6 527/2/6 531/2/6
f 528/3/6 529/3/6 532/3/6
f 532/3/6 529/3/6 533/3/6
f 532/1/6 533/1/6 534/1/6
f 534/1/6 533/1/6 535/1/6
f 536/3/6 537/3/6 538/3/6
f 538/3/6 537/3/6 539/3/6
f 538/1/6 539/1/6 540/1/6
f 540/1/6 539/1/6 541/1/6
f 542/3/6 543/3/6 544/3/6
f 544/3/6 543/3/6 545/3/6
f 546/3/6 547/3/6 548/3/6
f 548/3/6 547/3/6 549/3/6
f 550/3/6 551/3/6 552/3/6
f 552/3/6 551/3/6 553/3/6
f 554/3/6 555/3/6 558/3/6
f 558/3/6 555/3/6 559/3/6
f 556/3/6 557/3/6 560/3/6
f 560/3/6 557/3/6 561/3/6
f 562/3/6 563/3/6 566/3/6
f 566/3/6 563/3/6 567/3/6
f 564/3/6 565/3/6 568/3/6
f 568/3/6 565/3/6 569/3/6
f 570/3/6 571/3/6 572/3/6
f 572/3/6 571/3/6 573/3/6
