# MagicaVoxel @ Ephtracy

# group
o 

# material
mtllib LargeMedicalKit_LOD0.mtl
usemtl palette

# normals
vn 1 0 0
vn -1 0 0
vn 0 0 -1
vn 0 0 1
vn 0 -1 0
vn 0 1 0

# texcoords
vt 0.970703 0.5
vt 0.974609 0.5
vt 0.978516 0.5
vt 0.982422 0.5

# verts
v 0.5 -0.3 -0.5
v 0.5 -0.3 -0.3
v 0.5 -0.3 -0.2
v 0.5 -0.3 0.2
v 0.5 -0.2 0.2
v 0.5 -0.2 0.5
v 0.5 -0.1 -0.5
v 0.5 -0.1 -0.3
v 0.5 -0.1 -0.2
v 0.5 -0.1 -0.1
v 0.5 0 -0.5
v 0.5 0 -0.3
v 0.5 0 -0.2
v 0.5 0 -0.1
v 0.5 0 0.2
v 0.5 0 0.5
v 0.5 0.1 -0.5
v 0.5 0.1 -0.3
v 0.5 0.1 -0.2
v 0.5 0.1 0.2
v 0.4 -0.4 -0.4
v 0.4 -0.4 -0.3
v 0.4 -0.4 -0.2
v 0.4 -0.4 0.4
v 0.4 -0.3 -0.4
v 0.4 -0.3 -0.3
v 0.4 -0.3 -0.2
v 0.4 -0.3 0.2
v 0.4 -0.2 0.2
v 0.4 -0.2 0.4
v 0.4 0 0.2
v 0.4 0 0.4
v 0.4 0.1 -0.4
v 0.4 0.1 -0.3
v 0.4 0.1 -0.2
v 0.4 0.1 0.1
v 0.4 0.1 0.2
v 0.4 0.2 -0.4
v 0.4 0.2 -0.3
v 0.4 0.2 -0.2
v 0.4 0.2 0.1
v 0.4 0.2 0.4
v 0.3 -0.4 0.4
v 0.3 -0.4 0.5
v 0.3 -0.2 0.4
v 0.3 -0.2 0.5
v 0.3 0 0.4
v 0.3 0 0.5
v 0.3 0.1 -0.2
v 0.3 0.1 0.1
v 0.3 0.2 -0.2
v 0.3 0.2 0.1
v 0.3 0.2 0.4
v 0.3 0.2 0.5
v 0.1 0 0.4
v 0.1 0 0.5
v 0.1 0.1 0.4
v 0.1 0.2 0.4
v 0.1 0.2 0.5
v -0.2 -0.2 0.4
v -0.2 -0.2 0.5
v -0.2 0.1 0.4
v -0.2 0.2 0.4
v -0.2 0.2 0.5
v 0.2 -0.2 0.4
v 0.2 -0.2 0.5
v 0.2 0.1 0.4
v 0.2 0.2 0.4
v 0.2 0.2 0.5
v -0.1 0 0.4
v -0.1 0 0.5
v -0.1 0.1 0.4
v -0.1 0.2 0.4
v -0.1 0.2 0.5
v -0.3 -0.4 0.4
v -0.3 -0.4 0.5
v -0.3 -0.2 0.4
v -0.3 -0.2 0.5
v -0.3 0 0.4
v -0.3 0 0.5
v -0.3 0.1 -0.2
v -0.3 0.1 0.1
v -0.3 0.2 -0.2
v -0.3 0.2 0.1
v -0.3 0.2 0.4
v -0.3 0.2 0.5
v -0.4 -0.4 -0.4
v -0.4 -0.4 -0.3
v -0.4 -0.4 -0.2
v -0.4 -0.4 0.4
v -0.4 -0.3 -0.4
v -0.4 -0.3 -0.3
v -0.4 -0.3 -0.2
v -0.4 -0.3 0.2
v -0.4 -0.2 0.2
v -0.4 -0.2 0.4
v -0.4 0 0.2
v -0.4 0 0.4
v -0.4 0.1 -0.4
v -0.4 0.1 -0.3
v -0.4 0.1 -0.2
v -0.4 0.1 0.1
v -0.4 0.1 0.2
v -0.4 0.2 -0.4
v -0.4 0.2 -0.3
v -0.4 0.2 -0.2
v -0.4 0.2 0.1
v -0.4 0.2 0.4
v -0.5 -0.3 -0.5
v -0.5 -0.3 -0.3
v -0.5 -0.3 -0.2
v -0.5 -0.3 0.2
v -0.5 -0.2 0.2
v -0.5 -0.2 0.5
v -0.5 -0.1 -0.5
v -0.5 -0.1 -0.3
v -0.5 -0.1 -0.2
v -0.5 -0.1 -0.1
v -0.5 0 -0.5
v -0.5 0 -0.3
v -0.5 0 -0.2
v -0.5 0 -0.1
v -0.5 0 0.2
v -0.5 0 0.5
v -0.5 0.1 -0.5
v -0.5 0.1 -0.3
v -0.5 0.1 -0.2
v -0.5 0.1 0.2
v 0.5 -0.3 -0.5
v 0.5 -0.1 -0.5
v 0.5 0 -0.5
v 0.5 0.1 -0.5
v 0.3 -0.3 -0.5
v 0.3 -0.1 -0.5
v 0.3 0 -0.5
v 0.3 0.1 -0.5
v 0.2 -0.3 -0.5
v 0.2 -0.2 -0.5
v 0.2 -0.1 -0.5
v 0.2 0 -0.5
v 0.2 0.1 -0.5
v 0.1 -0.2 -0.5
v 0.1 -0.1 -0.5
v -0.1 -0.2 -0.5
v -0.1 -0.1 -0.5
v -0.2 -0.3 -0.5
v -0.2 -0.2 -0.5
v -0.2 -0.1 -0.5
v -0.2 0 -0.5
v -0.2 0.1 -0.5
v -0.3 -0.3 -0.5
v -0.3 -0.1 -0.5
v -0.3 0 -0.5
v -0.3 0.1 -0.5
v -0.5 -0.3 -0.5
v -0.5 -0.1 -0.5
v -0.5 0 -0.5
v -0.5 0.1 -0.5
v 0.4 -0.4 -0.4
v 0.4 -0.3 -0.4
v 0.4 0.1 -0.4
v 0.4 0.2 -0.4
v 0.3 -0.4 -0.4
v 0.3 -0.3 -0.4
v 0.3 0.1 -0.4
v 0.3 0.2 -0.4
v 0.2 -0.4 -0.4
v 0.2 -0.3 -0.4
v 0.2 0.1 -0.4
v 0.2 0.2 -0.4
v -0.2 -0.4 -0.4
v -0.2 -0.3 -0.4
v -0.2 0.1 -0.4
v -0.2 0.2 -0.4
v -0.3 -0.4 -0.4
v -0.3 -0.3 -0.4
v -0.3 0.1 -0.4
v -0.3 0.2 -0.4
v -0.4 -0.4 -0.4
v -0.4 -0.3 -0.4
v -0.4 0.1 -0.4
v -0.4 0.2 -0.4
v 0.4 0.1 0.1
v 0.4 0.2 0.1
v 0.3 0.1 0.1
v 0.3 0.2 0.1
v -0.3 0.1 0.1
v -0.3 0.2 0.1
v -0.4 0.1 0.1
v -0.4 0.2 0.1
v 0.4 0.1 -0.2
v 0.4 0.2 -0.2
v 0.3 0.1 -0.2
v 0.3 0.2 -0.2
v -0.3 0.1 -0.2
v -0.3 0.2 -0.2
v -0.4 0.1 -0.2
v -0.4 0.2 -0.2
v 0.5 -0.3 0.2
v 0.5 -0.2 0.2
v 0.5 0 0.2
v 0.5 0.1 0.2
v 0.4 -0.3 0.2
v 0.4 -0.2 0.2
v 0.4 0 0.2
v 0.4 0.1 0.2
v -0.4 -0.3 0.2
v -0.4 -0.2 0.2
v -0.4 0 0.2
v -0.4 0.1 0.2
v -0.5 -0.3 0.2
v -0.5 -0.2 0.2
v -0.5 0 0.2
v -0.5 0.1 0.2
v 0.4 -0.4 0.4
v 0.4 -0.2 0.4
v 0.4 0 0.4
v 0.4 0.2 0.4
v 0.3 -0.4 0.4
v 0.3 -0.2 0.4
v 0.3 0 0.4
v 0.3 0.2 0.4
v 0.2 -0.2 0.4
v 0.2 0.1 0.4
v 0.2 0.2 0.4
v 0.1 -0.2 0.4
v 0.1 0 0.4
v 0.1 0.1 0.4
v 0.1 0.2 0.4
v -0.1 -0.2 0.4
v -0.1 0 0.4
v -0.1 0.1 0.4
v -0.1 0.2 0.4
v -0.2 -0.2 0.4
v -0.2 0.1 0.4
v -0.2 0.2 0.4
v -0.3 -0.4 0.4
v -0.3 -0.2 0.4
v -0.3 0 0.4
v -0.3 0.2 0.4
v -0.4 -0.4 0.4
v -0.4 -0.2 0.4
v -0.4 0 0.4
v -0.4 0.2 0.4
v 0.5 -0.2 0.5
v 0.5 0 0.5
v 0.3 -0.4 0.5
v 0.3 -0.2 0.5
v 0.3 0 0.5
v 0.3 0.2 0.5
v 0.2 -0.3 0.5
v 0.2 -0.2 0.5
v 0.2 0.2 0.5
v 0.1 -0.4 0.5
v 0.1 -0.3 0.5
v 0.1 -0.2 0.5
v 0.1 0 0.5
v 0.1 0.2 0.5
v -0.1 -0.4 0.5
v -0.1 -0.3 0.5
v -0.1 -0.2 0.5
v -0.1 0 0.5
v -0.1 0.2 0.5
v -0.2 -0.3 0.5
v -0.2 -0.2 0.5
v -0.2 0.2 0.5
v -0.3 -0.4 0.5
v -0.3 -0.2 0.5
v -0.3 0 0.5
v -0.3 0.2 0.5
v -0.5 -0.2 0.5
v -0.5 0 0.5
v 0.4 -0.4 -0.4
v 0.3 -0.4 -0.4
v 0.2 -0.4 -0.4
v -0.2 -0.4 -0.4
v -0.3 -0.4 -0.4
v -0.4 -0.4 -0.4
v 0.4 -0.4 -0.3
v 0.3 -0.4 -0.3
v 0.2 -0.4 -0.3
v -0.2 -0.4 -0.3
v -0.3 -0.4 -0.3
v -0.4 -0.4 -0.3
v 0.4 -0.4 -0.2
v 0.3 -0.4 -0.2
v 0.2 -0.4 -0.2
v -0.2 -0.4 -0.2
v -0.3 -0.4 -0.2
v -0.4 -0.4 -0.2
v 0.3 -0.4 -0.1
v 0.2 -0.4 -0.1
v -0.2 -0.4 -0.1
v -0.3 -0.4 -0.1
v 0.3 -0.4 0.3
v 0.2 -0.4 0.3
v -0.2 -0.4 0.3
v -0.3 -0.4 0.3
v 0.4 -0.4 0.4
v 0.3 -0.4 0.4
v 0.2 -0.4 0.4
v 0.1 -0.4 0.4
v -0.1 -0.4 0.4
v -0.2 -0.4 0.4
v -0.3 -0.4 0.4
v -0.4 -0.4 0.4
v 0.3 -0.4 0.5
v 0.1 -0.4 0.5
v -0.1 -0.4 0.5
v -0.3 -0.4 0.5
v 0.5 -0.3 -0.5
v 0.3 -0.3 -0.5
v 0.2 -0.3 -0.5
v -0.2 -0.3 -0.5
v -0.3 -0.3 -0.5
v -0.5 -0.3 -0.5
v 0.4 -0.3 -0.4
v 0.3 -0.3 -0.4
v 0.2 -0.3 -0.4
v -0.2 -0.3 -0.4
v -0.3 -0.3 -0.4
v -0.4 -0.3 -0.4
v 0.5 -0.3 -0.3
v 0.4 -0.3 -0.3
v -0.4 -0.3 -0.3
v -0.5 -0.3 -0.3
v 0.5 -0.3 -0.2
v 0.4 -0.3 -0.2
v -0.4 -0.3 -0.2
v -0.5 -0.3 -0.2
v 0.5 -0.3 0.2
v 0.4 -0.3 0.2
v -0.4 -0.3 0.2
v -0.5 -0.3 0.2
v 0.5 -0.2 0.2
v 0.4 -0.2 0.2
v -0.4 -0.2 0.2
v -0.5 -0.2 0.2
v 0.4 -0.2 0.4
v 0.3 -0.2 0.4
v -0.3 -0.2 0.4
v -0.4 -0.2 0.4
v 0.5 -0.2 0.5
v 0.3 -0.2 0.5
v -0.3 -0.2 0.5
v -0.5 -0.2 0.5
v 0.1 0 0.4
v -0.1 0 0.4
v 0.1 0 0.5
v -0.1 0 0.5
v 0.2 -0.2 0.4
v 0.1 -0.2 0.4
v -0.1 -0.2 0.4
v -0.2 -0.2 0.4
v 0.2 -0.2 0.5
v 0.1 -0.2 0.5
v -0.1 -0.2 0.5
v -0.2 -0.2 0.5
v 0.5 0 0.2
v 0.4 0 0.2
v -0.4 0 0.2
v -0.5 0 0.2
v 0.4 0 0.4
v 0.3 0 0.4
v -0.3 0 0.4
v -0.4 0 0.4
v 0.5 0 0.5
v 0.3 0 0.5
v -0.3 0 0.5
v -0.5 0 0.5
v 0.5 0.1 -0.5
v 0.3 0.1 -0.5
v 0.2 0.1 -0.5
v -0.2 0.1 -0.5
v -0.3 0.1 -0.5
v -0.5 0.1 -0.5
v 0.4 0.1 -0.4
v 0.3 0.1 -0.4
v 0.2 0.1 -0.4
v -0.2 0.1 -0.4
v -0.3 0.1 -0.4
v -0.4 0.1 -0.4
v 0.5 0.1 -0.3
v 0.4 0.1 -0.3
v -0.4 0.1 -0.3
v -0.5 0.1 -0.3
v 0.5 0.1 -0.2
v 0.4 0.1 -0.2
v 0.3 0.1 -0.2
v -0.3 0.1 -0.2
v -0.4 0.1 -0.2
v -0.5 0.1 -0.2
v 0.4 0.1 0.1
v 0.3 0.1 0.1
v -0.3 0.1 0.1
v -0.4 0.1 0.1
v 0.5 0.1 0.2
v 0.4 0.1 0.2
v -0.4 0.1 0.2
v -0.5 0.1 0.2
v 0.4 0.2 -0.4
v 0.3 0.2 -0.4
v 0.2 0.2 -0.4
v -0.2 0.2 -0.4
v -0.3 0.2 -0.4
v -0.4 0.2 -0.4
v 0.4 0.2 -0.3
v 0.3 0.2 -0.3
v -0.3 0.2 -0.3
v -0.4 0.2 -0.3
v 0.4 0.2 -0.2
v 0.3 0.2 -0.2
v 0.2 0.2 -0.2
v -0.2 0.2 -0.2
v -0.3 0.2 -0.2
v -0.4 0.2 -0.2
v 0.4 0.2 0.1
v 0.3 0.2 0.1
v -0.3 0.2 0.1
v -0.4 0.2 0.1
v 0.1 0.2 0.2
v -0.1 0.2 0.2
v 0.2 0.2 0.3
v 0.1 0.2 0.3
v -0.1 0.2 0.3
v -0.2 0.2 0.3
v 0.4 0.2 0.4
v 0.3 0.2 0.4
v 0.2 0.2 0.4
v 0.1 0.2 0.4
v -0.1 0.2 0.4
v -0.2 0.2 0.4
v -0.3 0.2 0.4
v -0.4 0.2 0.4
v 0.3 0.2 0.5
v 0.2 0.2 0.5
v 0.1 0.2 0.5
v -0.1 0.2 0.5
v -0.2 0.2 0.5
v -0.3 0.2 0.5

# faces
f 5/2/1 4/2/1 3/2/1
f 7/2/1 2/2/1 1/2/1
f 8/4/1 3/4/1 2/4/1
f 8/2/1 2/2/1 7/2/1
f 9/2/1 6/2/1 5/2/1
f 9/4/1 3/4/1 8/4/1
f 9/2/1 5/2/1 3/2/1
f 10/2/1 6/2/1 9/2/1
f 11/4/1 8/4/1 7/4/1
f 11/4/1 9/4/1 8/4/1
f 11/4/1 10/4/1 9/4/1
f 12/4/1 10/4/1 11/4/1
f 13/4/1 10/4/1 12/4/1
f 14/2/1 6/2/1 10/2/1
f 14/4/1 10/4/1 13/4/1
f 15/2/1 6/2/1 14/2/1
f 16/2/1 6/2/1 15/2/1
f 17/2/1 12/2/1 11/2/1
f 18/4/1 13/4/1 12/4/1
f 18/2/1 12/2/1 17/2/1
f 19/2/1 14/2/1 13/2/1
f 19/4/1 13/4/1 18/4/1
f 19/2/1 15/2/1 14/2/1
f 20/2/1 15/2/1 19/2/1
f 25/1/1 22/1/1 21/1/1
f 26/4/1 23/4/1 22/4/1
f 26/1/1 22/1/1 25/1/1
f 27/1/1 24/1/1 23/1/1
f 27/4/1 23/4/1 26/4/1
f 28/1/1 24/1/1 27/1/1
f 29/1/1 24/1/1 28/1/1
f 30/1/1 24/1/1 29/1/1
f 37/2/1 32/2/1 31/2/1
f 38/2/1 34/2/1 33/2/1
f 39/4/1 35/4/1 34/4/1
f 39/2/1 34/2/1 38/2/1
f 40/4/1 35/4/1 39/4/1
f 41/2/1 37/2/1 36/2/1
f 42/2/1 32/2/1 37/2/1
f 42/2/1 37/2/1 41/2/1
f 45/1/1 44/1/1 43/1/1
f 46/1/1 44/1/1 45/1/1
f 51/2/1 50/2/1 49/2/1
f 52/2/1 50/2/1 51/2/1
f 53/2/1 48/2/1 47/2/1
f 54/2/1 48/2/1 53/2/1
f 57/3/1 56/3/1 55/3/1
f 58/3/1 56/3/1 57/3/1
f 59/3/1 56/3/1 58/3/1
f 62/2/1 61/2/1 60/2/1
f 63/2/1 61/2/1 62/2/1
f 64/2/1 61/2/1 63/2/1
f 65/2/2 66/2/2 67/2/2
f 67/2/2 66/2/2 68/2/2
f 68/2/2 66/2/2 69/2/2
f 70/3/2 71/3/2 72/3/2
f 72/3/2 71/3/2 73/3/2
f 73/3/2 71/3/2 74/3/2
f 75/1/2 76/1/2 77/1/2
f 77/1/2 76/1/2 78/1/2
f 81/2/2 82/2/2 83/2/2
f 83/2/2 82/2/2 84/2/2
f 79/2/2 80/2/2 85/2/2
f 85/2/2 80/2/2 86/2/2
f 87/1/2 88/1/2 91/1/2
f 88/4/2 89/4/2 92/4/2
f 91/1/2 88/1/2 92/1/2
f 89/1/2 90/1/2 93/1/2
f 92/4/2 89/4/2 93/4/2
f 93/1/2 90/1/2 94/1/2
f 94/1/2 90/1/2 95/1/2
f 95/1/2 90/1/2 96/1/2
f 97/2/2 98/2/2 103/2/2
f 99/2/2 100/2/2 104/2/2
f 100/4/2 101/4/2 105/4/2
f 104/2/2 100/2/2 105/2/2
f 105/4/2 101/4/2 106/4/2
f 102/2/2 103/2/2 107/2/2
f 103/2/2 98/2/2 108/2/2
f 107/2/2 103/2/2 108/2/2
f 111/2/2 112/2/2 113/2/2
f 109/2/2 110/2/2 115/2/2
f 110/4/2 111/4/2 116/4/2
f 115/2/2 110/2/2 116/2/2
f 113/2/2 114/2/2 117/2/2
f 116/4/2 111/4/2 117/4/2
f 111/2/2 113/2/2 117/2/2
f 117/2/2 114/2/2 118/2/2
f 115/4/2 116/4/2 119/4/2
f 116/4/2 117/4/2 119/4/2
f 117/4/2 118/4/2 119/4/2
f 119/4/2 118/4/2 120/4/2
f 120/4/2 118/4/2 121/4/2
f 118/2/2 114/2/2 122/2/2
f 121/4/2 118/4/2 122/4/2
f 122/2/2 114/2/2 123/2/2
f 123/2/2 114/2/2 124/2/2
f 119/2/2 120/2/2 125/2/2
f 120/4/2 121/4/2 126/4/2
f 125/2/2 120/2/2 126/2/2
f 121/2/2 122/2/2 127/2/2
f 126/4/2 121/4/2 127/4/2
f 122/2/2 123/2/2 127/2/2
f 127/2/2 123/2/2 128/2/2
f 133/2/3 130/2/3 129/2/3
f 134/4/3 131/4/3 130/4/3
f 134/2/3 130/2/3 133/2/3
f 135/2/3 132/2/3 131/2/3
f 135/4/3 131/4/3 134/4/3
f 136/2/3 132/2/3 135/2/3
f 137/4/3 134/4/3 133/4/3
f 137/4/3 135/4/3 134/4/3
f 137/4/3 136/4/3 135/4/3
f 138/4/3 136/4/3 137/4/3
f 139/4/3 136/4/3 138/4/3
f 140/4/3 136/4/3 139/4/3
f 141/4/3 136/4/3 140/4/3
f 142/1/3 138/1/3 137/1/3
f 142/2/3 139/2/3 138/2/3
f 143/4/3 140/4/3 139/4/3
f 143/2/3 139/2/3 142/2/3
f 144/1/3 142/1/3 137/1/3
f 144/1/3 143/1/3 142/1/3
f 145/4/3 140/4/3 143/4/3
f 145/1/3 143/1/3 144/1/3
f 146/1/3 144/1/3 137/1/3
f 147/2/3 145/2/3 144/2/3
f 147/1/3 144/1/3 146/1/3
f 148/4/3 140/4/3 145/4/3
f 148/2/3 145/2/3 147/2/3
f 149/2/3 141/2/3 140/2/3
f 149/4/3 140/4/3 148/4/3
f 150/2/3 141/2/3 149/2/3
f 151/4/3 148/4/3 147/4/3
f 151/4/3 147/4/3 146/4/3
f 151/4/3 150/4/3 149/4/3
f 151/4/3 149/4/3 148/4/3
f 152/4/3 150/4/3 151/4/3
f 153/4/3 150/4/3 152/4/3
f 154/4/3 150/4/3 153/4/3
f 155/2/3 152/2/3 151/2/3
f 156/4/3 153/4/3 152/4/3
f 156/2/3 152/2/3 155/2/3
f 157/2/3 154/2/3 153/2/3
f 157/4/3 153/4/3 156/4/3
f 158/2/3 154/2/3 157/2/3
f 163/1/3 160/1/3 159/1/3
f 164/1/3 160/1/3 163/1/3
f 165/2/3 162/2/3 161/2/3
f 166/2/3 162/2/3 165/2/3
f 167/4/3 164/4/3 163/4/3
f 168/4/3 164/4/3 167/4/3
f 169/4/3 166/4/3 165/4/3
f 170/4/3 166/4/3 169/4/3
f 171/1/3 168/1/3 167/1/3
f 172/1/3 168/1/3 171/1/3
f 173/2/3 170/2/3 169/2/3
f 174/2/3 170/2/3 173/2/3
f 175/4/3 172/4/3 171/4/3
f 176/4/3 172/4/3 175/4/3
f 177/4/3 174/4/3 173/4/3
f 178/4/3 174/4/3 177/4/3
f 179/1/3 176/1/3 175/1/3
f 180/1/3 176/1/3 179/1/3
f 181/2/3 178/2/3 177/2/3
f 182/2/3 178/2/3 181/2/3
f 185/2/3 184/2/3 183/2/3
f 186/2/3 184/2/3 185/2/3
f 189/2/3 188/2/3 187/2/3
f 190/2/3 188/2/3 189/2/3
f 191/4/4 192/4/4 193/4/4
f 193/4/4 192/4/4 194/4/4
f 195/4/4 196/4/4 197/4/4
f 197/4/4 196/4/4 198/4/4
f 199/2/4 200/2/4 203/2/4
f 203/2/4 200/2/4 204/2/4
f 201/2/4 202/2/4 205/2/4
f 205/2/4 202/2/4 206/2/4
f 207/2/4 208/2/4 211/2/4
f 211/2/4 208/2/4 212/2/4
f 209/2/4 210/2/4 213/2/4
f 213/2/4 210/2/4 214/2/4
f 215/1/4 216/1/4 219/1/4
f 219/1/4 216/1/4 220/1/4
f 217/2/4 218/2/4 221/2/4
f 221/2/4 218/2/4 222/2/4
f 223/2/4 224/2/4 226/2/4
f 226/2/4 224/2/4 227/2/4
f 224/3/4 225/3/4 228/3/4
f 227/2/4 224/2/4 228/2/4
f 228/3/4 225/3/4 229/3/4
f 226/2/4 227/2/4 230/2/4
f 230/2/4 227/2/4 231/2/4
f 230/2/4 231/2/4 234/2/4
f 231/2/4 232/2/4 234/2/4
f 232/3/4 233/3/4 235/3/4
f 234/2/4 232/2/4 235/2/4
f 235/3/4 233/3/4 236/3/4
f 237/1/4 238/1/4 241/1/4
f 241/1/4 238/1/4 242/1/4
f 239/2/4 240/2/4 243/2/4
f 243/2/4 240/2/4 244/2/4
f 245/2/4 246/2/4 248/2/4
f 248/2/4 246/2/4 249/2/4
f 247/1/4 248/1/4 251/1/4
f 249/2/4 250/2/4 252/2/4
f 251/1/4 248/1/4 252/1/4
f 248/2/4 249/2/4 252/2/4
f 252/2/4 250/2/4 253/2/4
f 247/1/4 251/1/4 254/1/4
f 251/2/4 252/2/4 255/2/4
f 254/1/4 251/1/4 255/1/4
f 255/2/4 252/2/4 256/2/4
f 254/4/4 255/4/4 259/4/4
f 255/4/4 256/4/4 259/4/4
f 259/4/4 256/4/4 260/4/4
f 260/4/4 256/4/4 261/4/4
f 257/3/4 258/3/4 262/3/4
f 262/3/4 258/3/4 263/3/4
f 260/2/4 261/2/4 264/2/4
f 259/1/4 260/1/4 264/1/4
f 264/2/4 261/2/4 265/2/4
f 259/1/4 264/1/4 267/1/4
f 264/1/4 265/1/4 267/1/4
f 265/2/4 266/2/4 268/2/4
f 267/1/4 265/1/4 268/1/4
f 268/2/4 266/2/4 269/2/4
f 269/2/4 266/2/4 270/2/4
f 268/2/4 269/2/4 271/2/4
f 271/2/4 269/2/4 272/2/4
f 279/1/5 274/1/5 273/1/5
f 280/4/5 275/4/5 274/4/5
f 280/1/5 274/1/5 279/1/5
f 281/1/5 276/1/5 275/1/5
f 281/4/5 275/4/5 280/4/5
f 282/4/5 277/4/5 276/4/5
f 282/1/5 276/1/5 281/1/5
f 283/1/5 278/1/5 277/1/5
f 283/4/5 277/4/5 282/4/5
f 284/1/5 278/1/5 283/1/5
f 285/4/5 282/4/5 281/4/5
f 285/4/5 280/4/5 279/4/5
f 285/4/5 284/4/5 283/4/5
f 285/4/5 283/4/5 282/4/5
f 285/4/5 281/4/5 280/4/5
f 286/4/5 284/4/5 285/4/5
f 287/4/5 284/4/5 286/4/5
f 288/4/5 284/4/5 287/4/5
f 289/4/5 284/4/5 288/4/5
f 290/4/5 284/4/5 289/4/5
f 291/1/5 286/1/5 285/1/5
f 291/4/5 287/4/5 286/4/5
f 292/2/5 288/2/5 287/2/5
f 292/4/5 287/4/5 291/4/5
f 293/4/5 289/4/5 288/4/5
f 293/2/5 288/2/5 292/2/5
f 294/1/5 290/1/5 289/1/5
f 294/4/5 289/4/5 293/4/5
f 295/2/5 293/2/5 292/2/5
f 295/1/5 291/1/5 285/1/5
f 295/2/5 294/2/5 293/2/5
f 295/2/5 292/2/5 291/2/5
f 296/2/5 294/2/5 295/2/5
f 297/2/5 294/2/5 296/2/5
f 298/1/5 290/1/5 294/1/5
f 298/2/5 294/2/5 297/2/5
f 299/1/5 295/1/5 285/1/5
f 299/1/5 296/1/5 295/1/5
f 300/1/5 296/1/5 299/1/5
f 301/2/5 297/2/5 296/2/5
f 301/1/5 296/1/5 300/1/5
f 302/2/5 297/2/5 301/2/5
f 303/2/5 297/2/5 302/2/5
f 304/1/5 298/1/5 297/1/5
f 304/2/5 297/2/5 303/2/5
f 305/1/5 290/1/5 298/1/5
f 305/1/5 298/1/5 304/1/5
f 306/1/5 290/1/5 305/1/5
f 307/1/5 301/1/5 300/1/5
f 307/1/5 302/1/5 301/1/5
f 308/4/5 303/4/5 302/4/5
f 308/1/5 302/1/5 307/1/5
f 309/1/5 304/1/5 303/1/5
f 309/4/5 303/4/5 308/4/5
f 309/1/5 305/1/5 304/1/5
f 310/1/5 305/1/5 309/1/5
f 317/2/5 312/2/5 311/2/5
f 318/4/5 313/4/5 312/4/5
f 318/2/5 312/2/5 317/2/5
f 319/1/5 314/1/5 313/1/5
f 319/4/5 313/4/5 318/4/5
f 320/4/5 315/4/5 314/4/5
f 320/1/5 314/1/5 319/1/5
f 321/2/5 316/2/5 315/2/5
f 321/4/5 315/4/5 320/4/5
f 322/2/5 316/2/5 321/2/5
f 323/2/5 317/2/5 311/2/5
f 324/2/5 317/2/5 323/2/5
f 325/2/5 316/2/5 322/2/5
f 326/2/5 316/2/5 325/2/5
f 327/4/5 324/4/5 323/4/5
f 328/4/5 324/4/5 327/4/5
f 329/4/5 326/4/5 325/4/5
f 330/4/5 326/4/5 329/4/5
f 331/2/5 328/2/5 327/2/5
f 332/2/5 328/2/5 331/2/5
f 333/2/5 330/2/5 329/2/5
f 334/2/5 330/2/5 333/2/5
f 339/2/5 336/2/5 335/2/5
f 342/2/5 338/2/5 337/2/5
f 343/2/5 340/2/5 339/2/5
f 343/2/5 339/2/5 335/2/5
f 344/2/5 340/2/5 343/2/5
f 345/2/5 342/2/5 341/2/5
f 346/2/5 338/2/5 342/2/5
f 346/2/5 342/2/5 345/2/5
f 349/3/5 348/3/5 347/3/5
f 350/3/5 348/3/5 349/3/5
f 351/2/6 352/2/6 355/2/6
f 352/4/6 353/4/6 356/4/6
f 355/2/6 352/2/6 356/2/6
f 353/2/6 354/2/6 357/2/6
f 356/4/6 353/4/6 357/4/6
f 357/2/6 354/2/6 358/2/6
f 359/2/6 360/2/6 363/2/6
f 361/2/6 362/2/6 366/2/6
f 363/2/6 364/2/6 367/2/6
f 359/2/6 363/2/6 367/2/6
f 367/2/6 364/2/6 368/2/6
f 365/2/6 366/2/6 369/2/6
f 366/2/6 362/2/6 370/2/6
f 369/2/6 366/2/6 370/2/6
f 371/2/6 372/2/6 377/2/6
f 372/4/6 373/4/6 378/4/6
f 377/2/6 372/2/6 378/2/6
f 373/2/6 374/2/6 379/2/6
f 378/4/6 373/4/6 379/4/6
f 374/4/6 375/4/6 380/4/6
f 379/2/6 374/2/6 380/2/6
f 375/2/6 376/2/6 381/2/6
f 380/4/6 375/4/6 381/4/6
f 381/2/6 376/2/6 382/2/6
f 371/2/6 377/2/6 383/2/6
f 383/2/6 377/2/6 384/2/6
f 382/2/6 376/2/6 385/2/6
f 385/2/6 376/2/6 386/2/6
f 383/4/6 384/4/6 387/4/6
f 387/4/6 384/4/6 388/4/6
f 385/4/6 386/4/6 391/4/6
f 391/4/6 386/4/6 392/4/6
f 388/2/6 389/2/6 393/2/6
f 387/2/6 388/2/6 393/2/6
f 393/2/6 389/2/6 394/2/6
f 391/2/6 392/2/6 395/2/6
f 390/2/6 391/2/6 395/2/6
f 395/2/6 392/2/6 396/2/6
f 387/2/6 393/2/6 397/2/6
f 397/2/6 393/2/6 398/2/6
f 396/2/6 392/2/6 399/2/6
f 399/2/6 392/2/6 400/2/6
f 401/2/6 402/2/6 407/2/6
f 402/4/6 403/4/6 408/4/6
f 407/2/6 402/2/6 408/2/6
f 405/2/6 406/2/6 409/2/6
f 404/4/6 405/4/6 409/4/6
f 409/2/6 406/2/6 410/2/6
f 407/4/6 408/4/6 411/4/6
f 408/4/6 403/4/6 412/4/6
f 411/4/6 408/4/6 412/4/6
f 403/2/6 404/2/6 413/2/6
f 412/4/6 403/4/6 413/4/6
f 404/4/6 409/4/6 414/4/6
f 413/2/6 404/2/6 414/2/6
f 409/4/6 410/4/6 414/4/6
f 414/4/6 410/4/6 415/4/6
f 415/4/6 410/4/6 416/4/6
f 412/2/6 413/2/6 418/2/6
f 414/2/6 415/2/6 418/2/6
f 413/2/6 414/2/6 418/2/6
f 418/2/6 415/2/6 419/2/6
f 417/2/6 418/2/6 421/2/6
f 419/2/6 420/2/6 421/2/6
f 418/2/6 419/2/6 421/2/6
f 421/2/6 420/2/6 422/2/6
f 417/2/6 421/2/6 423/2/6
f 421/3/6 422/3/6 424/3/6
f 423/2/6 421/2/6 424/2/6
f 422/2/6 420/2/6 425/2/6
f 424/3/6 422/3/6 425/3/6
f 425/2/6 420/2/6 426/2/6
f 417/2/6 423/2/6 427/2/6
f 427/2/6 423/2/6 428/2/6
f 423/3/6 424/3/6 429/3/6
f 428/2/6 423/2/6 429/2/6
f 424/3/6 425/3/6 429/3/6
f 425/3/6 426/3/6 429/3/6
f 429/3/6 426/3/6 430/3/6
f 430/3/6 426/3/6 431/3/6
f 426/2/6 420/2/6 432/2/6
f 431/3/6 426/3/6 432/3/6
f 432/2/6 420/2/6 433/2/6
f 433/2/6 420/2/6 434/2/6
f 428/2/6 429/2/6 435/2/6
f 435/2/6 429/2/6 436/2/6
f 430/3/6 431/3/6 437/3/6
f 437/3/6 431/3/6 438/3/6
f 432/2/6 433/2/6 439/2/6
f 439/2/6 433/2/6 440/2/6
