# MagicaVoxel @ Ephtracy

# group
o 

# material
mtllib SecondaryMedicalKit_LOD1.mtl
usemtl palette

# normals
vn 1 0 0
vn -1 0 0
vn 0 0 -1
vn 0 0 1
vn 0 -1 0
vn 0 1 0

# texcoords
vt 0.974609 0.5
vt 0.982422 0.5

# verts
v 0.3 -0.2 -0.2
v 0.3 -0.2 0.2
v 0.3 -0.1 0
v 0.3 -0.1 0.1
v 0.3 0 -0.1
v 0.3 0 0
v 0.3 0.1 -0.1
v 0.3 0.1 0
v 0.3 0.2 0
v 0.3 0.2 0.1
v 0.3 0.3 -0.2
v 0.3 0.3 0.2
v -0.4 -0.2 -0.2
v -0.4 -0.2 0.2
v -0.4 -0.1 0
v -0.4 -0.1 0.1
v -0.4 0 -0.1
v -0.4 0 0
v -0.4 0.1 -0.1
v -0.4 0.1 0
v -0.4 0.2 0
v -0.4 0.2 0.1
v -0.4 0.3 -0.2
v -0.4 0.3 0.2
v 0.3 -0.2 -0.2
v 0.3 0.3 -0.2
v 0.2 0 -0.2
v 0.2 0.1 -0.2
v 0.1 0 -0.2
v 0.1 0.1 -0.2
v -0.2 0 -0.2
v -0.2 0.1 -0.2
v -0.3 0 -0.2
v -0.3 0.1 -0.2
v -0.4 -0.2 -0.2
v -0.4 0.3 -0.2
v 0.3 -0.2 0.2
v 0.3 0.3 0.2
v 0.1 0 0.2
v 0.1 0.1 0.2
v 0 -0.1 0.2
v 0 0 0.2
v 0 0.1 0.2
v 0 0.2 0.2
v -0.1 -0.1 0.2
v -0.1 0 0.2
v -0.1 0.1 0.2
v -0.1 0.2 0.2
v -0.2 0 0.2
v -0.2 0.1 0.2
v -0.4 -0.2 0.2
v -0.4 0.3 0.2
v 0.3 -0.2 -0.2
v -0.4 -0.2 -0.2
v 0.3 -0.2 0.2
v -0.4 -0.2 0.2
v 0.3 0.3 -0.2
v -0.4 0.3 -0.2
v 0.3 0.3 0.2
v -0.4 0.3 0.2

# faces
f 3/1/1 2/1/1 1/1/1
f 4/1/1 2/1/1 3/1/1
f 5/1/1 3/1/1 1/1/1
f 6/2/1 4/2/1 3/2/1
f 6/1/1 3/1/1 5/1/1
f 7/1/1 5/1/1 1/1/1
f 7/2/1 6/2/1 5/2/1
f 8/2/1 4/2/1 6/2/1
f 8/2/1 6/2/1 7/2/1
f 9/1/1 8/1/1 7/1/1
f 9/2/1 4/2/1 8/2/1
f 10/1/1 2/1/1 4/1/1
f 10/2/1 4/2/1 9/2/1
f 11/1/1 9/1/1 7/1/1
f 11/1/1 7/1/1 1/1/1
f 11/1/1 10/1/1 9/1/1
f 12/1/1 2/1/1 10/1/1
f 12/1/1 10/1/1 11/1/1
f 13/1/2 14/1/2 15/1/2
f 15/1/2 14/1/2 16/1/2
f 13/1/2 15/1/2 17/1/2
f 15/2/2 16/2/2 18/2/2
f 17/1/2 15/1/2 18/1/2
f 13/1/2 17/1/2 19/1/2
f 17/2/2 18/2/2 19/2/2
f 18/2/2 16/2/2 20/2/2
f 19/2/2 18/2/2 20/2/2
f 19/1/2 20/1/2 21/1/2
f 20/2/2 16/2/2 21/2/2
f 16/1/2 14/1/2 22/1/2
f 21/2/2 16/2/2 22/2/2
f 19/1/2 21/1/2 23/1/2
f 13/1/2 19/1/2 23/1/2
f 21/1/2 22/1/2 23/1/2
f 22/1/2 14/1/2 24/1/2
f 23/1/2 22/1/2 24/1/2
f 27/1/3 26/1/3 25/1/3
f 28/1/3 26/1/3 27/1/3
f 29/1/3 27/1/3 25/1/3
f 29/2/3 28/2/3 27/2/3
f 30/1/3 26/1/3 28/1/3
f 30/2/3 28/2/3 29/2/3
f 31/1/3 29/1/3 25/1/3
f 31/1/3 30/1/3 29/1/3
f 32/1/3 26/1/3 30/1/3
f 32/1/3 30/1/3 31/1/3
f 33/1/3 31/1/3 25/1/3
f 33/2/3 32/2/3 31/2/3
f 34/1/3 26/1/3 32/1/3
f 34/2/3 32/2/3 33/2/3
f 35/1/3 33/1/3 25/1/3
f 35/1/3 34/1/3 33/1/3
f 36/1/3 26/1/3 34/1/3
f 36/1/3 34/1/3 35/1/3
f 37/1/4 38/1/4 39/1/4
f 39/1/4 38/1/4 40/1/4
f 37/1/4 39/1/4 41/1/4
f 39/2/4 40/2/4 42/2/4
f 41/1/4 39/1/4 42/1/4
f 40/1/4 38/1/4 43/1/4
f 42/2/4 40/2/4 43/2/4
f 43/1/4 38/1/4 44/1/4
f 41/2/4 42/2/4 45/2/4
f 37/1/4 41/1/4 45/1/4
f 43/2/4 44/2/4 45/2/4
f 42/2/4 43/2/4 45/2/4
f 45/2/4 44/2/4 46/2/4
f 46/2/4 44/2/4 47/2/4
f 44/1/4 38/1/4 48/1/4
f 47/2/4 44/2/4 48/2/4
f 46/2/4 47/2/4 49/2/4
f 45/1/4 46/1/4 49/1/4
f 47/1/4 48/1/4 50/1/4
f 49/2/4 47/2/4 50/2/4
f 37/1/4 45/1/4 51/1/4
f 45/1/4 49/1/4 51/1/4
f 49/1/4 50/1/4 51/1/4
f 48/1/4 38/1/4 52/1/4
f 51/1/4 50/1/4 52/1/4
f 50/1/4 48/1/4 52/1/4
f 55/1/5 54/1/5 53/1/5
f 56/1/5 54/1/5 55/1/5
f 57/1/6 58/1/6 59/1/6
f 59/1/6 58/1/6 60/1/6
