# Blender v2.93.5 OBJ File: 'LaserGun.blend'
# www.blender.org
mtllib LazerGun-2.mtl
o Cube.001_Cube.002
v 0.461950 0.757344 0.120920
v 0.430288 0.945160 0.152582
v 0.461950 0.757344 -0.120920
v 0.430288 0.945160 -0.152582
v 0.703789 0.757344 0.120920
v 0.735451 0.945160 0.152582
v 0.703789 0.757344 -0.120920
v 0.735451 0.945160 -0.152582
v 0.507503 0.809730 0.000000
v 0.466414 0.925009 0.000000
v 0.582869 0.757344 -0.120920
v 0.582869 0.944861 -0.159548
v 0.673949 0.818125 0.000000
v 0.699324 0.925009 0.000000
v 0.582869 0.757344 0.120920
v 0.582869 0.944861 0.159548
v 0.558249 0.998100 0.000000
v 0.604839 0.792941 0.000000
v 0.462144 0.757555 0.060363
v 0.424579 0.946009 -0.079145
v 0.463985 0.837107 -0.088796
v 0.522409 0.757344 -0.120920
v 0.662217 0.946043 -0.158695
v 0.671774 0.837016 -0.119102
v 0.703594 0.757555 -0.060363
v 0.741160 0.946009 0.079145
v 0.701753 0.837107 0.088796
v 0.643329 0.757344 0.120920
v 0.498629 0.966638 0.168480
v 0.462144 0.757555 -0.060363
v 0.463985 0.837107 0.088796
v 0.424579 0.946009 0.079145
v 0.643329 0.757344 -0.120920
v 0.503521 0.946043 -0.158695
v 0.703594 0.757555 0.060363
v 0.741160 0.946009 -0.079145
v 0.522409 0.757344 0.120920
v 0.662217 0.946043 0.158695
v 0.582869 1.015351 0.064006
v 0.582869 1.015351 -0.064006
v 0.632110 0.982190 0.000000
v 0.582869 0.755637 0.061110
v 0.582869 0.755637 -0.061110
v 0.517890 0.870394 0.129959
v 0.582869 0.834603 0.122875
v 0.582869 0.834603 -0.122875
v 0.522474 0.835934 -0.120790
v 0.703224 0.836118 -0.060177
v 0.643264 0.835934 0.120790
v 0.643980 0.755637 -0.061110
v 0.521759 0.755637 -0.061110
v 0.521759 0.755637 0.061110
v 0.518817 1.015346 -0.064053
v 0.646922 1.015346 -0.064053
v 0.646922 1.015346 0.064053
v 0.518817 1.015346 0.064053
v 0.643980 0.755637 0.061110
vt 0.974609 0.542014
vt 0.974609 0.542055
vt 0.974609 0.542014
vt 0.982522 0.527314
vt 0.982544 0.528199
vt 0.982544 0.527314
vt 0.982588 0.527314
vt 0.982566 0.528199
vt 0.982588 0.528199
vt 0.982566 0.525544
vt 0.982588 0.526429
vt 0.982588 0.525544
vt 0.982544 0.525544
vt 0.982522 0.526429
vt 0.982544 0.526429
vt 0.974609 0.541974
vt 0.974609 0.541933
vt 0.974609 0.541933
vt 0.974609 0.541972
vt 0.974609 0.541922
vt 0.974609 0.541931
vt 0.974609 0.542013
vt 0.974609 0.542033
vt 0.974609 0.541987
vt 0.982599 0.525983
vt 0.982576 0.526868
vt 0.982599 0.526868
vt 0.974620 0.545230
vt 0.974598 0.546115
vt 0.974620 0.546115
vt 0.982599 0.518905
vt 0.982576 0.519790
vt 0.982599 0.519790
vt 0.974620 0.538153
vt 0.974598 0.539037
vt 0.974620 0.539037
vt 0.974609 0.541876
vt 0.974609 0.541815
vt 0.974609 0.541850
vt 0.974609 0.541890
vt 0.974609 0.541853
vt 0.974609 0.541828
vt 0.974609 0.541813
vt 0.974620 0.539922
vt 0.974609 0.541809
vt 0.974609 0.541848
vt 0.974609 0.541849
vt 0.974609 0.542055
vt 0.974609 0.541996
vt 0.974609 0.542023
vt 0.982599 0.518020
vt 0.982576 0.518905
vt 0.974609 0.541802
vt 0.974609 0.541843
vt 0.974609 0.541802
vt 0.974609 0.541890
vt 0.982599 0.520675
vt 0.974609 0.541953
vt 0.974609 0.541953
vt 0.974609 0.541890
vt 0.974609 0.541846
vt 0.982599 0.521559
vt 0.982576 0.522444
vt 0.982599 0.522444
vt 0.974609 0.541852
vt 0.974609 0.541829
vt 0.974609 0.541812
vt 0.974609 0.541888
vt 0.974620 0.547000
vt 0.974609 0.541933
vt 0.974609 0.541974
vt 0.974609 0.541974
vt 0.974609 0.541894
vt 0.974609 0.541893
vt 0.982599 0.525098
vt 0.982576 0.525983
vt 0.974609 0.542014
vt 0.974609 0.542053
vt 0.974609 0.542055
vt 0.982599 0.527752
vt 0.974609 0.542012
vt 0.974609 0.541972
vt 0.974609 0.542053
vt 0.974609 0.541891
vt 0.974609 0.541931
vt 0.974609 0.541893
vt 0.982566 0.524660
vt 0.982544 0.524660
vt 0.982522 0.525544
vt 0.982532 0.523329
vt 0.982532 0.522444
vt 0.982588 0.524660
vt 0.982532 0.521559
vt 0.982532 0.524213
vt 0.982532 0.525098
vt 0.982566 0.527314
vt 0.982554 0.527752
vt 0.982576 0.528637
vt 0.974609 0.542055
vt 0.982522 0.528199
vt 0.982566 0.526429
vt 0.974609 0.542053
vt 0.982599 0.528637
vt 0.982576 0.524213
vt 0.982576 0.525098
vt 0.982576 0.523329
vt 0.982576 0.520675
vt 0.982576 0.521559
vt 0.982576 0.517136
vt 0.982576 0.518020
vt 0.982599 0.515366
vt 0.982576 0.515366
vt 0.982576 0.516251
vt 0.982599 0.514481
vt 0.982576 0.514481
vt 0.982599 0.517136
vt 0.974642 0.541692
vt 0.974620 0.541692
vt 0.974620 0.542576
vt 0.974620 0.540807
vt 0.974620 0.543461
vt 0.974642 0.543461
vt 0.974620 0.544346
vt 0.974642 0.545230
vt 0.982599 0.524213
vt 0.974609 0.541933
vt 0.974609 0.542017
vt 0.982522 0.524660
vn 0.0000 -0.9996 0.0285
vn -0.5432 0.7962 0.2664
vn -0.0057 0.8064 0.5914
vn 0.0004 0.8880 0.4598
vn -0.5354 0.6727 0.5107
vn 0.0000 -0.7488 0.6628
vn 0.2683 -0.7362 0.6213
vn 0.0397 -0.3154 0.9481
vn 0.9020 -0.2142 0.3748
vn -0.0397 -0.3154 -0.9481
vn -0.8868 -0.3161 -0.3372
vn -0.8569 0.1910 -0.4788
vn -0.9997 0.0242 -0.0031
vn -0.9997 0.0242 0.0031
vn -0.8569 0.1910 0.4788
vn -0.8868 -0.3161 0.3372
vn 0.0000 -0.0253 -0.9997
vn 0.0000 0.3736 -0.9276
vn -0.4535 -0.3589 -0.8158
vn 0.0000 0.0228 -0.9997
vn 0.0488 -0.3152 -0.9478
vn 0.8989 0.0032 0.4382
vn 0.9279 0.3728 0.0017
vn 0.8208 -0.3599 -0.4436
vn 0.9997 0.0243 -0.0031
vn 0.9366 0.1370 -0.3226
vn 0.9427 -0.2238 -0.2473
vn 0.0000 -0.0253 0.9997
vn 0.0000 0.3736 0.9276
vn 0.4535 -0.3589 0.8158
vn -0.0702 -0.3148 0.9465
vn 0.0000 -0.9996 -0.0285
vn -0.0159 -0.7505 0.6607
vn -0.0321 -0.9995 0.0036
vn -0.0321 -0.9995 -0.0036
vn -0.0159 -0.7505 -0.6607
vn 0.0000 -0.7488 -0.6628
vn 0.0004 0.8047 -0.5937
vn -0.4733 0.7454 -0.4694
vn 0.5689 0.6691 0.4782
vn 0.0131 0.9998 -0.0126
vn -0.0057 0.8064 -0.5914
vn 0.0131 0.9998 0.0126
vn 0.5689 0.6691 -0.4782
vn 0.0004 0.8880 -0.4598
vn 0.0004 0.8047 0.5937
vn -0.5354 0.6727 -0.5107
vn 0.2683 -0.7362 -0.6213
vn -0.0923 -0.3859 0.9179
vn 0.0321 -0.9995 -0.0036
vn -0.3070 0.9511 0.0349
vn -0.0004 0.8047 0.5937
vn 0.1991 0.9243 0.3257
vn -0.5689 0.6691 0.4782
vn -0.1417 -0.8215 0.5524
vn 0.0137 -0.7025 0.7116
vn -0.2650 -0.5501 0.7919
vn 0.0150 -0.3278 0.9446
vn 0.9400 -0.3340 0.0692
vn 0.8837 -0.2352 0.4047
vn 0.0744 -0.3346 -0.9394
vn -0.0150 -0.3278 -0.9446
vn -0.9400 -0.3340 -0.0692
vn -0.8645 -0.3452 -0.3654
vn -0.9400 -0.3340 0.0692
vn -0.8645 -0.3452 0.3654
vn -0.0345 0.0017 -0.9994
vn -0.4799 0.0018 -0.8773
vn -0.0647 -0.5222 -0.8504
vn 0.0422 0.0077 -0.9991
vn 0.0152 -0.3401 -0.9403
vn 0.8822 0.0053 -0.4708
vn 0.8519 -0.5202 -0.0602
vn 0.8645 -0.3452 -0.3654
vn 0.0345 0.0017 0.9994
vn 0.4799 0.0018 0.8773
vn 0.0647 -0.5222 0.8504
vn -0.5696 -0.0881 0.8172
vn 0.0661 -0.0769 0.9948
vn 0.0000 -0.8535 0.5210
vn 0.0321 -0.9995 0.0036
vn -0.1417 -0.8215 -0.5524
vn -0.0003 0.9656 0.2601
vn 0.0057 0.8064 -0.5914
vn -0.0131 0.9998 -0.0126
vn 0.5692 0.6690 0.4779
vn 0.4733 0.7454 -0.4694
vn -0.0004 0.8047 -0.5937
vn 0.4733 0.7454 0.4694
vn 0.5692 0.6690 -0.4779
vn 0.1991 0.9243 -0.3257
vn 0.2680 0.8522 0.4493
vn -0.0003 0.9656 -0.2601
vn -0.5689 0.6691 -0.4782
vn 0.0000 -0.8535 -0.5210
vn 0.0137 -0.7025 -0.7116
vn 0.0025 -0.3712 0.9286
usemtl palette.002
s off
f 57/1/1 5/2/1 28/3/1
f 32/4/2 29/5/2 56/6/2
f 55/7/3 16/8/3 38/9/3
f 40/10/4 41/11/4 54/12/4
f 53/13/5 10/14/5 17/15/5
f 42/16/1 37/17/1 52/18/1
f 43/19/6 9/20/6 51/21/6
f 50/22/7 13/23/7 18/24/7
f 49/25/8 16/26/8 45/27/8
f 48/28/9 14/29/9 13/30/9
f 47/31/10 12/32/10 46/33/10
f 31/34/11 10/35/11 9/36/11
f 31/37/12 9/38/12 19/39/12
f 31/37/13 19/39/13 1/40/13
f 30/41/14 21/42/14 3/43/14
f 9/20/15 21/42/15 30/41/15
f 10/35/16 21/44/16 9/36/16
f 22/45/17 46/46/17 11/47/17
f 21/48/18 22/49/18 3/50/18
f 21/51/19 34/52/19 47/31/19
f 33/53/20 24/54/20 7/55/20
f 46/46/17 33/56/17 11/47/17
f 12/32/21 24/57/21 46/33/21
f 48/58/22 13/23/22 25/59/22
f 24/60/23 25/61/23 7/55/23
f 24/62/24 36/63/24 48/64/24
f 35/65/25 27/66/25 5/67/25
f 13/68/26 27/66/26 35/65/26
f 14/29/27 27/69/27 13/30/27
f 28/70/28 45/71/28 15/72/28
f 27/73/29 28/70/29 5/74/29
f 27/75/30 38/76/30 49/25/30
f 37/77/29 31/78/29 1/79/29
f 45/71/28 37/77/28 15/72/28
f 16/26/31 44/80/31 45/27/31
f 33/81/32 43/19/32 11/82/32
f 7/83/32 50/22/32 33/81/32
f 51/21/33 9/20/33 30/41/33
f 3/84/34 51/21/34 30/41/34
f 22/85/32 43/19/32 51/21/32
f 52/18/35 1/40/35 19/86/35
f 9/20/36 52/18/36 19/86/36
f 9/20/37 42/16/37 52/18/37
f 12/87/38 53/13/38 40/10/38
f 34/88/39 20/89/39 53/13/39
f 54/12/40 14/90/40 36/91/40
f 23/92/41 36/91/41 8/93/41
f 12/87/42 54/12/42 23/92/42
f 26/94/43 38/9/43 6/95/43
f 14/90/44 55/7/44 26/94/44
f 41/11/45 39/96/45 55/7/45
f 56/6/46 16/8/46 39/96/46
f 10/14/47 56/6/47 17/15/47
f 42/16/1 28/3/1 15/72/1
f 13/23/48 57/1/48 18/24/48
f 29/97/49 2/98/49 44/80/49
f 57/1/50 35/99/50 5/2/50
f 32/4/51 2/100/51 29/5/51
f 55/7/52 39/96/52 16/8/52
f 40/10/53 17/101/53 41/11/53
f 53/13/54 20/89/54 10/14/54
f 42/16/1 15/72/1 37/17/1
f 43/19/55 18/24/55 9/20/55
f 50/22/56 25/102/56 13/23/56
f 44/80/57 2/98/57 31/103/57
f 49/25/58 38/76/58 16/26/58
f 26/104/59 6/105/59 27/75/59
f 48/64/60 36/63/60 14/106/60
f 23/107/61 8/108/61 24/62/61
f 47/31/62 34/52/62 12/32/62
f 20/109/63 4/110/63 21/51/63
f 31/111/64 32/112/64 10/113/64
f 31/114/65 2/115/65 32/112/65
f 10/113/66 20/109/66 21/116/66
f 22/117/67 47/118/67 46/119/67
f 21/120/68 47/118/68 22/117/68
f 21/51/69 4/110/69 34/52/69
f 46/119/70 24/121/70 33/122/70
f 12/32/71 23/107/71 24/57/71
f 24/123/72 48/28/72 25/124/72
f 24/62/73 8/108/73 36/63/73
f 14/106/74 26/104/74 27/125/74
f 28/70/75 49/126/75 45/71/75
f 27/73/76 49/126/76 28/70/76
f 27/75/77 6/105/77 38/76/77
f 37/77/78 44/127/78 31/78/78
f 45/71/79 44/127/79 37/77/79
f 43/19/80 50/22/80 18/24/80
f 33/81/32 50/22/32 43/19/32
f 7/83/81 25/102/81 50/22/81
f 3/84/32 22/85/32 51/21/32
f 22/85/32 11/82/32 43/19/32
f 52/18/1 37/17/1 1/40/1
f 9/20/82 18/24/82 42/16/82
f 40/10/83 53/13/83 17/15/83
f 12/87/84 34/88/84 53/13/84
f 34/88/85 4/128/85 20/89/85
f 54/12/86 41/11/86 14/90/86
f 23/92/87 54/12/87 36/91/87
f 12/87/88 40/10/88 54/12/88
f 26/94/89 55/7/89 38/9/89
f 14/90/90 41/11/90 55/7/90
f 41/11/91 17/101/91 39/96/91
f 56/6/92 29/5/92 16/8/92
f 17/15/93 56/6/93 39/96/93
f 10/14/94 32/4/94 56/6/94
f 42/16/1 57/1/1 28/3/1
f 18/24/95 57/1/95 42/16/95
f 13/23/96 35/99/96 57/1/96
f 16/26/97 29/97/97 44/80/97
