# MagicaVoxel @ Ephtracy

# group
o 

# material
mtllib RocketLaucnherAmmo_LOD0.mtl
usemtl palette

# normals
vn -1 0 0
vn 1 0 0
vn 0 0 1
vn 0 0 -1
vn 0 -1 0
vn 0 1 0

# texcoords
vt 0.845703 0.5
vt 0.970703 0.5
vt 0.974609 0.5

# verts
v -0.1 0 0.4
v -0.1 0 0.2
v -0.1 0 0.1
v -0.1 0 -0.1
v -0.1 0 -0.2
v -0.1 0 -0.4
v -0.1 0.1 0.4
v -0.1 0.1 0.2
v -0.1 0.1 0.1
v -0.1 0.1 -0.1
v -0.1 0.1 -0.2
v -0.1 0.1 -0.4
v -0.1 0.4 0.4
v -0.1 0.4 0.3
v -0.1 0.4 0.2
v -0.1 0.4 0.1
v -0.1 0.4 0
v -0.1 0.4 -0.1
v -0.1 0.4 -0.2
v -0.1 0.4 -0.3
v -0.1 0.4 -0.4
v -0.1 0.6 0.3
v -0.1 0.6 0.2
v -0.1 0.6 0
v -0.1 0.6 -0.1
v -0.1 0.6 -0.3
v -0.1 0.6 -0.4
v 0 0.4 0.4
v 0 0.4 0.3
v 0 0.4 0.1
v 0 0.4 0
v 0 0.4 -0.2
v 0 0.4 -0.3
v 0 0.6 0.4
v 0 0.6 0.3
v 0 0.6 0.2
v 0 0.6 0.1
v 0 0.6 0
v 0 0.6 -0.1
v 0 0.6 -0.2
v 0 0.6 -0.3
v 0 0.6 -0.4
v 0 0.7 0.4
v 0 0.7 0.3
v 0 0.7 0.2
v 0 0.7 0.1
v 0 0.7 0
v 0 0.7 -0.1
v 0 0.7 -0.2
v 0 0.7 -0.3
v 0 0.7 -0.4
v 0.2 0 0.3
v 0.2 0 0.2
v 0.2 0 0.1
v 0.2 0 0
v 0.2 0 -0.2
v 0.2 0 -0.3
v 0.2 0 -0.4
v 0.2 0.1 0.3
v 0.2 0.1 0.1
v 0.2 0.1 0
v 0.2 0.1 -0.1
v 0.2 0.1 -0.2
v 0.2 0.1 -0.3
v 0.2 0.1 -0.4
v 0.2 0.2 0.3
v 0.2 0.2 0.2
v 0.2 0.2 0.1
v 0.2 0.2 0
v 0.2 0.2 -0.2
v 0.2 0.2 -0.3
v 0.2 0.3 0.4
v 0.2 0.3 0.3
v 0.2 0.3 0.2
v 0.2 0.3 0.1
v 0.2 0.3 0
v 0.2 0.3 -0.1
v 0.2 0.3 -0.2
v 0.2 0.3 -0.3
v 0.2 0.3 -0.4
v 0.2 0.4 0.4
v 0.2 0.4 0.3
v 0.2 0.4 0.2
v 0.2 0.4 0.1
v 0.2 0.4 0
v 0.2 0.4 -0.2
v 0.2 0.4 -0.3
v 0.2 0.4 -0.4
v 0.2 0.5 0.2
v 0.2 0.5 0.1
v 0.2 0.5 -0.1
v 0.2 0.5 -0.2
v 0.2 0.7 0.4
v 0.2 0.7 0.3
v 0.2 0.7 0.2
v 0.2 0.7 0.1
v 0.2 0.7 -0.1
v 0.2 0.7 -0.2
v 0.2 0.7 -0.3
v 0.2 0.7 -0.4
v 0.2 0.8 0.4
v 0.2 0.8 0.2
v 0.2 0.8 -0.2
v 0.2 0.8 -0.4
v 0.1 0 0.3
v 0.1 0 0.2
v 0.1 0 0
v 0.1 0 -0.1
v 0.1 0 -0.3
v 0.1 0 -0.4
v 0.1 0.1 0.4
v 0.1 0.1 0.3
v 0.1 0.1 0.2
v 0.1 0.1 0.1
v 0.1 0.1 0
v 0.1 0.1 -0.1
v 0.1 0.1 -0.2
v 0.1 0.1 -0.3
v 0.1 0.1 -0.4
v 0.1 0.2 0.3
v 0.1 0.2 0.2
v 0.1 0.2 0.1
v 0.1 0.2 0
v 0.1 0.2 -0.1
v 0.1 0.2 -0.2
v 0.1 0.2 -0.3
v 0.1 0.2 -0.4
v 0.1 0.4 0.4
v 0.1 0.4 0.3
v 0.1 0.4 0.2
v 0.1 0.4 0.1
v 0.1 0.4 0
v 0.1 0.4 -0.1
v 0.1 0.4 -0.2
v 0.1 0.4 -0.3
v 0.1 0.4 -0.4
v 0.1 0.6 0.4
v 0.1 0.6 0.3
v 0.1 0.6 0.2
v 0.1 0.6 0.1
v 0.1 0.6 0
v 0.1 0.6 -0.1
v 0.1 0.6 -0.2
v 0.1 0.6 -0.3
v 0.1 0.6 -0.4
v 0.1 0.7 0.4
v 0.1 0.7 0.3
v 0.1 0.7 0.2
v 0.1 0.7 0.1
v 0.1 0.7 0
v 0.1 0.7 -0.1
v 0.1 0.7 -0.2
v 0.1 0.7 -0.3
v 0.1 0.7 -0.4
v 0.3 0 0.4
v 0.3 0 0.3
v 0.3 0 0.2
v 0.3 0 -0.2
v 0.3 0 -0.3
v 0.3 0 -0.4
v 0.3 0.1 0.4
v 0.3 0.1 0.3
v 0.3 0.1 0.1
v 0.3 0.1 -0.1
v 0.3 0.1 -0.3
v 0.3 0.1 -0.4
v 0.3 0.2 0.3
v 0.3 0.2 0.2
v 0.3 0.2 -0.2
v 0.3 0.2 -0.3
v 0.3 0.3 0.4
v 0.3 0.3 0.3
v 0.3 0.3 0.2
v 0.3 0.3 0.1
v 0.3 0.3 -0.1
v 0.3 0.3 -0.2
v 0.3 0.3 -0.3
v 0.3 0.3 -0.4
v 0.3 0.4 0.4
v 0.3 0.4 0.3
v 0.3 0.4 0.2
v 0.3 0.4 -0.2
v 0.3 0.4 -0.3
v 0.3 0.4 -0.4
v 0.3 0.5 0.2
v 0.3 0.5 0.1
v 0.3 0.5 -0.1
v 0.3 0.5 -0.2
v 0.3 0.7 0.4
v 0.3 0.7 0.3
v 0.3 0.7 0.2
v 0.3 0.7 0.1
v 0.3 0.7 -0.1
v 0.3 0.7 -0.2
v 0.3 0.7 -0.3
v 0.3 0.7 -0.4
v 0.3 0.8 0.4
v 0.3 0.8 0.2
v 0.3 0.8 -0.2
v 0.3 0.8 -0.4
v -0.1 0 0.4
v -0.1 0.1 0.4
v -0.1 0.4 0.4
v 0 0 0.4
v 0 0.1 0.4
v 0 0.4 0.4
v 0 0.6 0.4
v 0 0.7 0.4
v 0.1 0.1 0.4
v 0.1 0.4 0.4
v 0.1 0.6 0.4
v 0.1 0.7 0.4
v 0.2 0.3 0.4
v 0.2 0.4 0.4
v 0.2 0.7 0.4
v 0.2 0.8 0.4
v 0.3 0 0.4
v 0.3 0.1 0.4
v 0.3 0.3 0.4
v 0.3 0.4 0.4
v 0.3 0.7 0.4
v 0.3 0.8 0.4
v -0.1 0.4 0.3
v -0.1 0.6 0.3
v 0 0.4 0.3
v 0 0.6 0.3
v 0.1 0.2 0.3
v 0.1 0.4 0.3
v 0.2 0.1 0.3
v 0.2 0.2 0.3
v 0.2 0.3 0.3
v 0.2 0.4 0.3
v 0.2 0.7 0.3
v 0.3 0.1 0.3
v 0.3 0.2 0.3
v 0.3 0.3 0.3
v 0.3 0.4 0.3
v 0.3 0.7 0.3
v -0.1 0 0.1
v -0.1 0.1 0.1
v -0.1 0.4 0.1
v 0 0 0.1
v 0 0.1 0.1
v 0 0.4 0.1
v 0 0.6 0.1
v 0 0.7 0.1
v 0.1 0.1 0.1
v 0.1 0.2 0.1
v 0.1 0.4 0.1
v 0.1 0.6 0.1
v 0.1 0.7 0.1
v 0.2 0 0.1
v 0.2 0.1 0.1
v 0.2 0.2 0.1
v 0.2 0.3 0.1
v 0.2 0.4 0.1
v -0.1 0.4 0
v -0.1 0.6 0
v 0 0.4 0
v 0 0.6 0
v -0.1 0 -0.2
v -0.1 0.1 -0.2
v -0.1 0.4 -0.2
v 0 0 -0.2
v 0 0.1 -0.2
v 0 0.4 -0.2
v 0 0.6 -0.2
v 0 0.7 -0.2
v 0.1 0.1 -0.2
v 0.1 0.2 -0.2
v 0.1 0.4 -0.2
v 0.1 0.6 -0.2
v 0.1 0.7 -0.2
v 0.2 0 -0.2
v 0.2 0.1 -0.2
v 0.2 0.2 -0.2
v 0.2 0.3 -0.2
v 0.2 0.4 -0.2
v 0.2 0.7 -0.2
v 0.2 0.8 -0.2
v 0.3 0.7 -0.2
v 0.3 0.8 -0.2
v -0.1 0.4 -0.3
v -0.1 0.6 -0.3
v 0 0.4 -0.3
v 0 0.6 -0.3
v 0.1 0 0.3
v 0.1 0.1 0.3
v 0.2 0 0.3
v 0.2 0.1 0.3
v -0.1 0 0.2
v -0.1 0.1 0.2
v -0.1 0.4 0.2
v -0.1 0.6 0.2
v 0 0.2 0.2
v 0 0.4 0.2
v 0 0.6 0.2
v 0 0.7 0.2
v 0.1 0 0.2
v 0.1 0.1 0.2
v 0.1 0.2 0.2
v 0.1 0.4 0.2
v 0.1 0.6 0.2
v 0.1 0.7 0.2
v 0.2 0.2 0.2
v 0.2 0.3 0.2
v 0.2 0.4 0.2
v 0.2 0.7 0.2
v 0.2 0.8 0.2
v 0.3 0.7 0.2
v 0.3 0.8 0.2
v 0.1 0 0
v 0.1 0.1 0
v 0.1 0.2 0
v 0.1 0.4 0
v 0.2 0 0
v 0.2 0.1 0
v 0.2 0.2 0
v 0.2 0.3 0
v 0.2 0.4 0
v -0.1 0 -0.1
v -0.1 0.1 -0.1
v -0.1 0.4 -0.1
v -0.1 0.6 -0.1
v 0 0.2 -0.1
v 0 0.4 -0.1
v 0 0.6 -0.1
v 0 0.7 -0.1
v 0.1 0 -0.1
v 0.1 0.1 -0.1
v 0.1 0.2 -0.1
v 0.1 0.4 -0.1
v 0.1 0.6 -0.1
v 0.1 0.7 -0.1
v 0.1 0 -0.3
v 0.1 0.1 -0.3
v 0.1 0.2 -0.3
v 0.1 0.4 -0.3
v 0.2 0 -0.3
v 0.2 0.1 -0.3
v 0.2 0.2 -0.3
v 0.2 0.3 -0.3
v 0.2 0.4 -0.3
v 0.2 0.7 -0.3
v 0.3 0.1 -0.3
v 0.3 0.2 -0.3
v 0.3 0.3 -0.3
v 0.3 0.4 -0.3
v 0.3 0.7 -0.3
v -0.1 0 -0.4
v -0.1 0.1 -0.4
v -0.1 0.4 -0.4
v -0.1 0.6 -0.4
v 0 0.2 -0.4
v 0 0.4 -0.4
v 0 0.6 -0.4
v 0 0.7 -0.4
v 0.1 0 -0.4
v 0.1 0.1 -0.4
v 0.1 0.2 -0.4
v 0.1 0.4 -0.4
v 0.1 0.6 -0.4
v 0.1 0.7 -0.4
v 0.2 0 -0.4
v 0.2 0.1 -0.4
v 0.2 0.3 -0.4
v 0.2 0.4 -0.4
v 0.2 0.7 -0.4
v 0.2 0.8 -0.4
v 0.3 0 -0.4
v 0.3 0.1 -0.4
v 0.3 0.3 -0.4
v 0.3 0.4 -0.4
v 0.3 0.7 -0.4
v 0.3 0.8 -0.4
v -0.1 0 0.4
v 0 0 0.4
v 0.3 0 0.4
v 0 0 0.3
v 0.1 0 0.3
v 0.2 0 0.3
v 0.3 0 0.3
v -0.1 0 0.2
v 0.1 0 0.2
v 0.2 0 0.2
v 0.3 0 0.2
v -0.1 0 0.1
v 0 0 0.1
v 0.2 0 0.1
v 0 0 0
v 0.1 0 0
v 0.2 0 0
v -0.1 0 -0.1
v 0.1 0 -0.1
v -0.1 0 -0.2
v 0 0 -0.2
v 0.2 0 -0.2
v 0.3 0 -0.2
v 0 0 -0.3
v 0.1 0 -0.3
v 0.2 0 -0.3
v 0.3 0 -0.3
v -0.1 0 -0.4
v 0.1 0 -0.4
v 0.2 0 -0.4
v 0.3 0 -0.4
v 0.1 0.2 0.3
v 0.2 0.2 0.3
v 0.1 0.2 0.2
v 0.2 0.2 0.2
v 0.1 0.2 0.1
v 0.2 0.2 0.1
v 0.1 0.2 0
v 0.2 0.2 0
v 0.1 0.2 -0.2
v 0.2 0.2 -0.2
v 0.1 0.2 -0.3
v 0.2 0.2 -0.3
v 0.2 0.3 0.4
v 0.3 0.3 0.4
v 0.2 0.3 0.3
v 0.3 0.3 0.3
v 0.2 0.3 -0.3
v 0.3 0.3 -0.3
v 0.2 0.3 -0.4
v 0.3 0.3 -0.4
v 0.2 0.7 0.4
v 0.3 0.7 0.4
v 0.2 0.7 0.3
v 0.3 0.7 0.3
v 0.2 0.7 -0.3
v 0.3 0.7 -0.3
v 0.2 0.7 -0.4
v 0.3 0.7 -0.4
v 0.1 0.1 0.4
v 0.3 0.1 0.4
v 0.1 0.1 0.3
v 0.2 0.1 0.3
v 0.3 0.1 0.3
v 0.1 0.1 0.1
v 0.2 0.1 0.1
v 0.1 0.1 0
v 0.2 0.1 0
v 0.1 0.1 -0.2
v 0.2 0.1 -0.2
v 0.1 0.1 -0.3
v 0.2 0.1 -0.3
v 0.3 0.1 -0.3
v 0.2 0.1 -0.4
v 0.3 0.1 -0.4
v -0.1 0.4 0.4
v 0 0.4 0.4
v 0.2 0.4 0.4
v 0.3 0.4 0.4
v -0.1 0.4 0.3
v 0 0.4 0.3
v 0.1 0.4 0.3
v 0.2 0.4 0.3
v 0.3 0.4 0.3
v 0.1 0.4 0.2
v 0.2 0.4 0.2
v -0.1 0.4 0.1
v 0 0.4 0.1
v 0.1 0.4 0.1
v 0.2 0.4 0.1
v -0.1 0.4 0
v 0 0.4 0
v 0.1 0.4 0
v 0.2 0.4 0
v -0.1 0.4 -0.2
v 0 0.4 -0.2
v 0.1 0.4 -0.2
v 0.2 0.4 -0.2
v -0.1 0.4 -0.3
v 0 0.4 -0.3
v 0.1 0.4 -0.3
v 0.2 0.4 -0.3
v 0.3 0.4 -0.3
v 0.2 0.4 -0.4
v 0.3 0.4 -0.4
v -0.1 0.6 0.3
v 0 0.6 0.3
v -0.1 0.6 0.2
v 0 0.6 0.2
v -0.1 0.6 0
v 0 0.6 0
v -0.1 0.6 -0.1
v 0 0.6 -0.1
v -0.1 0.6 -0.3
v 0 0.6 -0.3
v -0.1 0.6 -0.4
v 0 0.6 -0.4
v 0 0.7 0.4
v 0.1 0.7 0.4
v 0 0.7 0.3
v 0.1 0.7 0.3
v 0 0.7 0.2
v 0.1 0.7 0.2
v 0.2 0.7 0.2
v 0.3 0.7 0.2
v 0 0.7 0.1
v 0.1 0.7 0.1
v 0.2 0.7 0.1
v 0.3 0.7 0.1
v 0 0.7 0
v 0.1 0.7 0
v 0 0.7 -0.1
v 0.1 0.7 -0.1
v 0.2 0.7 -0.1
v 0.3 0.7 -0.1
v 0 0.7 -0.2
v 0.1 0.7 -0.2
v 0.2 0.7 -0.2
v 0.3 0.7 -0.2
v 0 0.7 -0.3
v 0.1 0.7 -0.3
v 0 0.7 -0.4
v 0.1 0.7 -0.4
v 0.2 0.8 0.4
v 0.3 0.8 0.4
v 0.2 0.8 0.2
v 0.3 0.8 0.2
v 0.2 0.8 -0.2
v 0.3 0.8 -0.2
v 0.2 0.8 -0.4
v 0.3 0.8 -0.4

# faces
f 7/1/1 2/1/1 1/1/1
f 8/1/1 2/1/1 7/1/1
f 9/1/1 4/1/1 3/1/1
f 10/1/1 4/1/1 9/1/1
f 11/1/1 6/1/1 5/1/1
f 12/1/1 6/1/1 11/1/1
f 13/2/1 8/2/1 7/2/1
f 14/2/1 8/2/1 13/2/1
f 15/2/1 8/2/1 14/2/1
f 16/2/1 10/2/1 9/2/1
f 17/2/1 10/2/1 16/2/1
f 18/2/1 10/2/1 17/2/1
f 19/2/1 12/2/1 11/2/1
f 20/2/1 12/2/1 19/2/1
f 21/2/1 12/2/1 20/2/1
f 22/3/1 15/3/1 14/3/1
f 23/3/1 15/3/1 22/3/1
f 24/3/1 18/3/1 17/3/1
f 25/3/1 18/3/1 24/3/1
f 26/3/1 21/3/1 20/3/1
f 27/3/1 21/3/1 26/3/1
f 34/1/1 29/1/1 28/1/1
f 35/1/1 29/1/1 34/1/1
f 37/1/1 31/1/1 30/1/1
f 38/1/1 31/1/1 37/1/1
f 40/1/1 33/1/1 32/1/1
f 41/1/1 33/1/1 40/1/1
f 43/2/1 35/2/1 34/2/1
f 44/1/1 36/1/1 35/1/1
f 44/2/1 35/2/1 43/2/1
f 45/1/1 36/1/1 44/1/1
f 46/2/1 38/2/1 37/2/1
f 47/1/1 39/1/1 38/1/1
f 47/2/1 38/2/1 46/2/1
f 48/1/1 39/1/1 47/1/1
f 49/2/1 41/2/1 40/2/1
f 50/1/1 42/1/1 41/1/1
f 50/2/1 41/2/1 49/2/1
f 51/1/1 42/1/1 50/1/1
f 59/3/1 53/3/1 52/3/1
f 60/2/1 54/2/1 53/2/1
f 61/2/1 56/2/1 55/2/1
f 62/2/1 56/2/1 61/2/1
f 63/2/1 56/2/1 62/2/1
f 64/2/1 58/2/1 57/2/1
f 65/2/1 58/2/1 64/2/1
f 66/3/1 53/3/1 59/3/1
f 67/2/1 60/2/1 53/2/1
f 67/3/1 53/3/1 66/3/1
f 68/3/1 61/3/1 60/3/1
f 68/2/1 60/2/1 67/2/1
f 68/3/1 62/3/1 61/3/1
f 69/3/1 62/3/1 68/3/1
f 70/2/1 63/2/1 62/2/1
f 70/3/1 64/3/1 63/3/1
f 71/3/1 64/3/1 70/3/1
f 74/2/1 68/2/1 67/2/1
f 75/2/1 68/2/1 74/2/1
f 76/3/1 62/3/1 69/3/1
f 77/2/1 70/2/1 62/2/1
f 77/3/1 62/3/1 76/3/1
f 78/2/1 70/2/1 77/2/1
f 81/2/1 73/2/1 72/2/1
f 82/2/1 73/2/1 81/2/1
f 83/3/1 75/3/1 74/3/1
f 84/3/1 75/3/1 83/3/1
f 85/2/1 77/2/1 76/2/1
f 86/3/1 78/3/1 77/3/1
f 87/2/1 80/2/1 79/2/1
f 88/2/1 80/2/1 87/2/1
f 89/3/1 84/3/1 83/3/1
f 89/2/1 83/2/1 82/2/1
f 90/2/1 85/2/1 84/2/1
f 90/3/1 84/3/1 89/3/1
f 91/3/1 86/3/1 77/3/1
f 91/2/1 85/2/1 90/2/1
f 91/2/1 77/2/1 85/2/1
f 92/2/1 87/2/1 86/2/1
f 92/3/1 86/3/1 91/3/1
f 94/2/1 89/2/1 82/2/1
f 94/2/1 90/2/1 89/2/1
f 95/2/1 90/2/1 94/2/1
f 96/3/1 91/3/1 90/3/1
f 96/2/1 90/2/1 95/2/1
f 97/2/1 92/2/1 91/2/1
f 97/3/1 91/3/1 96/3/1
f 98/2/1 87/2/1 92/2/1
f 98/2/1 92/2/1 97/2/1
f 99/2/1 87/2/1 98/2/1
f 101/2/1 95/2/1 94/2/1
f 101/2/1 94/2/1 93/2/1
f 102/2/1 95/2/1 101/2/1
f 103/2/1 100/2/1 99/2/1
f 103/2/1 99/2/1 98/2/1
f 104/2/1 100/2/1 103/2/1
f 105/1/2 106/1/2 112/1/2
f 112/1/2 106/1/2 113/1/2
f 107/1/2 108/1/2 115/1/2
f 115/1/2 108/1/2 116/1/2
f 109/1/2 110/1/2 118/1/2
f 118/1/2 110/1/2 119/1/2
f 112/2/2 113/2/2 120/2/2
f 111/2/2 112/2/2 120/2/2
f 120/2/2 113/2/2 121/2/2
f 115/2/2 116/2/2 122/2/2
f 114/2/2 115/2/2 122/2/2
f 122/2/2 116/2/2 123/2/2
f 123/2/2 116/2/2 124/2/2
f 118/2/2 119/2/2 125/2/2
f 117/2/2 118/2/2 125/2/2
f 125/2/2 119/2/2 126/2/2
f 126/2/2 119/2/2 127/2/2
f 111/2/2 120/2/2 128/2/2
f 128/2/2 120/2/2 129/2/2
f 123/3/2 124/3/2 132/3/2
f 132/3/2 124/3/2 133/3/2
f 126/3/2 127/3/2 135/3/2
f 135/3/2 127/3/2 136/3/2
f 128/1/2 129/1/2 137/1/2
f 129/2/2 130/2/2 138/2/2
f 137/1/2 129/1/2 138/1/2
f 138/2/2 130/2/2 139/2/2
f 131/1/2 132/1/2 140/1/2
f 132/2/2 133/2/2 141/2/2
f 140/1/2 132/1/2 141/1/2
f 141/2/2 133/2/2 142/2/2
f 134/1/2 135/1/2 143/1/2
f 135/2/2 136/2/2 144/2/2
f 143/1/2 135/1/2 144/1/2
f 144/2/2 136/2/2 145/2/2
f 137/2/2 138/2/2 146/2/2
f 138/1/2 139/1/2 147/1/2
f 146/2/2 138/2/2 147/2/2
f 147/1/2 139/1/2 148/1/2
f 140/2/2 141/2/2 149/2/2
f 141/1/2 142/1/2 150/1/2
f 149/2/2 141/2/2 150/2/2
f 150/1/2 142/1/2 151/1/2
f 143/2/2 144/2/2 152/2/2
f 144/1/2 145/1/2 153/1/2
f 152/2/2 144/2/2 153/2/2
f 153/1/2 145/1/2 154/1/2
f 155/2/2 156/2/2 161/2/2
f 156/3/2 157/3/2 162/3/2
f 161/2/2 156/2/2 162/2/2
f 157/2/2 158/2/2 163/2/2
f 163/2/2 158/2/2 164/2/2
f 159/2/2 160/2/2 165/2/2
f 158/3/2 159/3/2 165/3/2
f 165/2/2 160/2/2 166/2/2
f 162/3/2 157/3/2 167/3/2
f 157/2/2 163/2/2 168/2/2
f 167/3/2 157/3/2 168/3/2
f 164/2/2 158/2/2 169/2/2
f 158/3/2 165/3/2 169/3/2
f 169/3/2 165/3/2 170/3/2
f 167/1/2 168/1/2 172/1/2
f 168/2/2 163/2/2 173/2/2
f 172/1/2 168/1/2 173/1/2
f 163/3/2 164/3/2 174/3/2
f 173/2/2 163/2/2 174/2/2
f 164/2/2 169/2/2 175/2/2
f 174/3/2 164/3/2 175/3/2
f 169/1/2 170/1/2 176/1/2
f 175/2/2 169/2/2 176/2/2
f 176/1/2 170/1/2 177/1/2
f 171/2/2 172/2/2 179/2/2
f 172/1/2 173/1/2 180/1/2
f 179/2/2 172/2/2 180/2/2
f 173/3/2 174/3/2 181/3/2
f 180/1/2 173/1/2 181/1/2
f 176/1/2 177/1/2 182/1/2
f 175/3/2 176/3/2 182/3/2
f 177/2/2 178/2/2 183/2/2
f 182/1/2 177/1/2 183/1/2
f 183/2/2 178/2/2 184/2/2
f 181/3/2 174/3/2 185/3/2
f 180/2/2 181/2/2 185/2/2
f 174/2/2 175/2/2 186/2/2
f 185/3/2 174/3/2 186/3/2
f 175/3/2 182/3/2 187/3/2
f 186/2/2 175/2/2 187/2/2
f 182/2/2 183/2/2 188/2/2
f 187/3/2 182/3/2 188/3/2
f 185/2/2 186/2/2 190/2/2
f 180/2/2 185/2/2 190/2/2
f 190/2/2 186/2/2 191/2/2
f 186/3/2 187/3/2 192/3/2
f 191/2/2 186/2/2 192/2/2
f 187/2/2 188/2/2 193/2/2
f 192/3/2 187/3/2 193/3/2
f 188/2/2 183/2/2 194/2/2
f 193/2/2 188/2/2 194/2/2
f 194/2/2 183/2/2 195/2/2
f 190/2/2 191/2/2 197/2/2
f 189/2/2 190/2/2 197/2/2
f 197/2/2 191/2/2 198/2/2
f 195/2/2 196/2/2 199/2/2
f 194/2/2 195/2/2 199/2/2
f 199/2/2 196/2/2 200/2/2
f 204/1/3 202/1/3 201/1/3
f 205/2/3 203/2/3 202/2/3
f 205/1/3 202/1/3 204/1/3
f 206/2/3 203/2/3 205/2/3
f 209/2/3 205/2/3 204/2/3
f 209/2/3 206/2/3 205/2/3
f 210/1/3 207/1/3 206/1/3
f 210/2/3 206/2/3 209/2/3
f 211/2/3 208/2/3 207/2/3
f 211/1/3 207/1/3 210/1/3
f 212/2/3 208/2/3 211/2/3
f 217/2/3 209/2/3 204/2/3
f 218/2/3 209/2/3 217/2/3
f 219/2/3 214/2/3 213/2/3
f 220/2/3 214/2/3 219/2/3
f 221/2/3 216/2/3 215/2/3
f 222/2/3 216/2/3 221/2/3
f 225/3/3 224/3/3 223/3/3
f 226/3/3 224/3/3 225/3/3
f 230/2/3 228/2/3 227/2/3
f 231/2/3 228/2/3 230/2/3
f 232/2/3 228/2/3 231/2/3
f 234/3/3 230/3/3 229/3/3
f 235/1/3 231/1/3 230/1/3
f 235/3/3 230/3/3 234/3/3
f 236/1/3 231/1/3 235/1/3
f 237/2/3 233/2/3 232/2/3
f 238/2/3 233/2/3 237/2/3
f 242/1/3 240/1/3 239/1/3
f 243/2/3 241/2/3 240/2/3
f 243/1/3 240/1/3 242/1/3
f 244/2/3 241/2/3 243/2/3
f 247/2/3 243/2/3 242/2/3
f 247/2/3 244/2/3 243/2/3
f 248/2/3 244/2/3 247/2/3
f 249/1/3 245/1/3 244/1/3
f 249/2/3 244/2/3 248/2/3
f 250/2/3 246/2/3 245/2/3
f 250/1/3 245/1/3 249/1/3
f 251/2/3 246/2/3 250/2/3
f 252/2/3 247/2/3 242/2/3
f 253/2/3 247/2/3 252/2/3
f 254/2/3 249/2/3 248/2/3
f 255/2/3 249/2/3 254/2/3
f 256/2/3 249/2/3 255/2/3
f 259/3/3 258/3/3 257/3/3
f 260/3/3 258/3/3 259/3/3
f 264/1/3 262/1/3 261/1/3
f 265/2/3 263/2/3 262/2/3
f 265/1/3 262/1/3 264/1/3
f 266/2/3 263/2/3 265/2/3
f 269/2/3 265/2/3 264/2/3
f 269/2/3 266/2/3 265/2/3
f 270/2/3 266/2/3 269/2/3
f 271/1/3 267/1/3 266/1/3
f 271/2/3 266/2/3 270/2/3
f 272/2/3 268/2/3 267/2/3
f 272/1/3 267/1/3 271/1/3
f 273/2/3 268/2/3 272/2/3
f 274/2/3 269/2/3 264/2/3
f 275/2/3 269/2/3 274/2/3
f 276/2/3 271/2/3 270/2/3
f 277/2/3 271/2/3 276/2/3
f 278/2/3 271/2/3 277/2/3
f 281/2/3 280/2/3 279/2/3
f 282/2/3 280/2/3 281/2/3
f 285/3/3 284/3/3 283/3/3
f 286/3/3 284/3/3 285/3/3
f 287/2/4 288/2/4 289/2/4
f 289/2/4 288/2/4 290/2/4
f 292/2/4 293/2/4 295/2/4
f 293/3/4 294/3/4 296/3/4
f 295/2/4 293/2/4 296/2/4
f 296/3/4 294/3/4 297/3/4
f 291/1/4 292/1/4 299/1/4
f 292/2/4 295/2/4 300/2/4
f 299/1/4 292/1/4 300/1/4
f 295/3/4 296/3/4 301/3/4
f 300/2/4 295/2/4 301/2/4
f 296/2/4 297/2/4 302/2/4
f 301/3/4 296/3/4 302/3/4
f 297/1/4 298/1/4 303/1/4
f 302/2/4 297/2/4 303/2/4
f 303/1/4 298/1/4 304/1/4
f 301/2/4 302/2/4 305/2/4
f 305/2/4 302/2/4 306/2/4
f 306/2/4 302/2/4 307/2/4
f 308/2/4 309/2/4 310/2/4
f 310/2/4 309/2/4 311/2/4
f 312/2/4 313/2/4 316/2/4
f 316/2/4 313/2/4 317/2/4
f 314/2/4 315/2/4 318/2/4
f 318/2/4 315/2/4 319/2/4
f 319/2/4 315/2/4 320/2/4
f 322/2/4 323/2/4 325/2/4
f 323/3/4 324/3/4 326/3/4
f 325/2/4 323/2/4 326/2/4
f 326/3/4 324/3/4 327/3/4
f 321/1/4 322/1/4 329/1/4
f 322/2/4 325/2/4 330/2/4
f 329/1/4 322/1/4 330/1/4
f 325/3/4 326/3/4 331/3/4
f 330/2/4 325/2/4 331/2/4
f 326/2/4 327/2/4 332/2/4
f 331/3/4 326/3/4 332/3/4
f 327/1/4 328/1/4 333/1/4
f 332/2/4 327/2/4 333/2/4
f 333/1/4 328/1/4 334/1/4
f 335/2/4 336/2/4 339/2/4
f 339/2/4 336/2/4 340/2/4
f 337/2/4 338/2/4 341/2/4
f 341/2/4 338/2/4 342/2/4
f 342/2/4 338/2/4 343/2/4
f 340/3/4 341/3/4 345/3/4
f 341/1/4 342/1/4 346/1/4
f 345/3/4 341/3/4 346/3/4
f 346/1/4 342/1/4 347/1/4
f 343/2/4 344/2/4 348/2/4
f 348/2/4 344/2/4 349/2/4
f 351/2/4 352/2/4 354/2/4
f 352/3/4 353/3/4 355/3/4
f 354/2/4 352/2/4 355/2/4
f 355/3/4 353/3/4 356/3/4
f 350/1/4 351/1/4 358/1/4
f 351/2/4 354/2/4 359/2/4
f 358/1/4 351/1/4 359/1/4
f 354/3/4 355/3/4 360/3/4
f 359/2/4 354/2/4 360/2/4
f 355/2/4 356/2/4 361/2/4
f 360/3/4 355/3/4 361/3/4
f 356/1/4 357/1/4 362/1/4
f 361/2/4 356/2/4 362/2/4
f 362/1/4 357/1/4 363/1/4
f 364/2/4 365/2/4 370/2/4
f 370/2/4 365/2/4 371/2/4
f 366/2/4 367/2/4 372/2/4
f 372/2/4 367/2/4 373/2/4
f 368/2/4 369/2/4 374/2/4
f 374/2/4 369/2/4 375/2/4
f 379/1/5 377/1/5 376/1/5
f 379/2/5 378/2/5 377/2/5
f 380/2/5 378/2/5 379/2/5
f 381/2/5 378/2/5 380/2/5
f 382/2/5 378/2/5 381/2/5
f 383/1/5 379/1/5 376/1/5
f 383/1/5 380/1/5 379/1/5
f 384/1/5 380/1/5 383/1/5
f 385/3/5 382/3/5 381/3/5
f 386/3/5 382/3/5 385/3/5
f 389/2/5 386/2/5 385/2/5
f 390/1/5 388/1/5 387/1/5
f 390/2/5 389/2/5 388/2/5
f 391/2/5 389/2/5 390/2/5
f 392/2/5 386/2/5 389/2/5
f 392/2/5 389/2/5 391/2/5
f 393/1/5 391/1/5 390/1/5
f 393/1/5 390/1/5 387/1/5
f 394/1/5 391/1/5 393/1/5
f 397/2/5 386/2/5 392/2/5
f 398/2/5 386/2/5 397/2/5
f 399/1/5 396/1/5 395/1/5
f 399/2/5 397/2/5 396/2/5
f 400/2/5 397/2/5 399/2/5
f 401/3/5 398/3/5 397/3/5
f 401/2/5 397/2/5 400/2/5
f 402/3/5 398/3/5 401/3/5
f 403/1/5 400/1/5 399/1/5
f 403/1/5 399/1/5 395/1/5
f 404/1/5 400/1/5 403/1/5
f 405/2/5 402/2/5 401/2/5
f 406/2/5 402/2/5 405/2/5
f 409/2/5 408/2/5 407/2/5
f 410/2/5 408/2/5 409/2/5
f 413/2/5 412/2/5 411/2/5
f 414/2/5 412/2/5 413/2/5
f 417/2/5 416/2/5 415/2/5
f 418/2/5 416/2/5 417/2/5
f 421/2/5 420/2/5 419/2/5
f 422/2/5 420/2/5 421/2/5
f 425/2/5 424/2/5 423/2/5
f 426/2/5 424/2/5 425/2/5
f 429/2/5 428/2/5 427/2/5
f 430/2/5 428/2/5 429/2/5
f 433/2/5 432/2/5 431/2/5
f 434/2/5 432/2/5 433/2/5
f 435/2/6 436/2/6 437/2/6
f 437/2/6 436/2/6 438/2/6
f 438/2/6 436/2/6 439/2/6
f 440/2/6 441/2/6 442/2/6
f 442/2/6 441/2/6 443/2/6
f 444/2/6 445/2/6 446/2/6
f 446/2/6 445/2/6 447/2/6
f 447/2/6 448/2/6 449/2/6
f 449/2/6 448/2/6 450/2/6
f 451/2/6 452/2/6 455/2/6
f 455/2/6 452/2/6 456/2/6
f 453/2/6 454/2/6 458/2/6
f 458/2/6 454/2/6 459/2/6
f 457/2/6 458/2/6 460/2/6
f 460/2/6 458/2/6 461/2/6
f 462/2/6 463/2/6 466/2/6
f 466/2/6 463/2/6 467/2/6
f 464/2/6 465/2/6 468/2/6
f 468/2/6 465/2/6 469/2/6
f 470/2/6 471/2/6 474/2/6
f 474/2/6 471/2/6 475/2/6
f 472/2/6 473/2/6 476/2/6
f 476/2/6 473/2/6 477/2/6
f 477/2/6 478/2/6 479/2/6
f 479/2/6 478/2/6 480/2/6
f 481/3/6 482/3/6 483/3/6
f 483/3/6 482/3/6 484/3/6
f 485/3/6 486/3/6 487/3/6
f 487/3/6 486/3/6 488/3/6
f 489/3/6 490/3/6 491/3/6
f 491/3/6 490/3/6 492/3/6
f 493/2/6 494/2/6 495/2/6
f 495/2/6 494/2/6 496/2/6
f 495/1/6 496/1/6 497/1/6
f 497/1/6 496/1/6 498/1/6
f 499/2/6 500/2/6 503/2/6
f 503/2/6 500/2/6 504/2/6
f 501/2/6 502/2/6 505/2/6
f 505/2/6 502/2/6 506/2/6
f 505/1/6 506/1/6 507/1/6
f 507/1/6 506/1/6 508/1/6
f 503/3/6 504/3/6 509/3/6
f 509/3/6 504/3/6 510/3/6
f 509/2/6 510/2/6 513/2/6
f 513/2/6 510/2/6 514/2/6
f 511/2/6 512/2/6 515/2/6
f 515/2/6 512/2/6 516/2/6
f 515/1/6 516/1/6 517/1/6
f 517/1/6 516/1/6 518/1/6
f 519/2/6 520/2/6 521/2/6
f 521/2/6 520/2/6 522/2/6
f 523/2/6 524/2/6 525/2/6
f 525/2/6 524/2/6 526/2/6
