# MagicaVoxel @ Ephtracy

# group
o 

# material
mtllib Bot_Runner_LOD2-3.mtl
usemtl palette

# normals
vn -1 0 0
vn 1 0 0
vn 0 0 1
vn 0 0 -1
vn 0 -1 0
vn 0 1 0

# texcoords
vt 0.970703 0.5
vt 0.974609 0.5
vt 0.978516 0.5

# verts
v -0.8 3 0.4
v -0.8 3 -0.2
v -0.8 3.2 0.4
v -0.8 3.2 0.2
v -0.8 3.2 -0.1
v -0.8 3.2 -0.2
v -0.8 3.4 0.2
v -0.8 3.4 0.1
v -0.8 3.4 0
v -0.8 3.4 -0.1
v -0.8 3.5 0.1
v -0.8 3.5 0
v -0.7 2.8 0.4
v -0.7 2.8 -0.2
v -0.7 3 0.4
v -0.7 3 -0.2
v -0.7 3.5 0.1
v -0.7 3.5 0
v -0.7 3.6 0.1
v -0.7 3.6 0
v -0.5 2.6 0.4
v -0.5 2.6 -0.2
v -0.5 2.8 0.4
v -0.5 2.8 -0.2
v -0.3 2.9 0.5
v -0.3 2.9 0.4
v -0.3 3 0.5
v -0.3 3 0.4
v -0.3 3 -0.2
v -0.3 3.1 0.4
v -0.3 3.1 -0.2
v -0.1 3 0.5
v -0.1 3 0.4
v -0.1 3 -0.2
v -0.1 3 -0.5
v -0.1 3.1 0.4
v -0.1 3.1 0.3
v -0.1 3.1 -0.2
v -0.1 3.2 0.5
v -0.1 3.2 -0.5
v 0.1 2.9 0.5
v 0.1 2.9 0.4
v 0.1 3 0.5
v 0.1 3 0.4
v 0.4 3 0.4
v 0.4 3 -0.2
v 0.4 3.2 0.4
v 0.4 3.2 -0.2
v 0.4 3.5 0.1
v 0.4 3.5 0
v 0.4 3.6 0.1
v 0.4 3.6 0
v 0.5 3.4 0.1
v 0.5 3.4 0
v 0.5 3.5 0.1
v 0.5 3.5 0
v 0.6 3.2 0.2
v 0.6 3.2 -0.1
v 0.6 3.4 0.2
v 0.6 3.4 0.1
v 0.6 3.4 0
v 0.6 3.4 -0.1
v -0.7 3.2 0.2
v -0.7 3.2 -0.1
v -0.7 3.4 0.2
v -0.7 3.4 0.1
v -0.7 3.4 0
v -0.7 3.4 -0.1
v -0.6 3.4 0.1
v -0.6 3.4 0
v -0.6 3.5 0.1
v -0.6 3.5 0
v -0.5 3 0.4
v -0.5 3 -0.2
v -0.5 3.2 0.4
v -0.5 3.2 -0.2
v -0.5 3.5 0.1
v -0.5 3.5 0
v -0.5 3.6 0.1
v -0.5 3.6 0
v -0.2 2.9 0.5
v -0.2 2.9 0.4
v -0.2 3 0.5
v -0.2 3 0.4
v 0 3 0.5
v 0 3 0.4
v 0 3 -0.2
v 0 3 -0.5
v 0 3.1 0.4
v 0 3.1 0.3
v 0 3.1 -0.2
v 0 3.2 0.5
v 0 3.2 -0.5
v 0.2 2.9 0.5
v 0.2 2.9 0.4
v 0.2 3 0.5
v 0.2 3 0.4
v 0.2 3 -0.2
v 0.2 3.1 0.4
v 0.2 3.1 -0.2
v 0.4 2.6 0.4
v 0.4 2.6 -0.2
v 0.4 2.8 0.4
v 0.4 2.8 -0.2
v 0.6 2.8 0.4
v 0.6 2.8 -0.2
v 0.6 3 0.4
v 0.6 3 -0.2
v 0.6 3.5 0.1
v 0.6 3.5 0
v 0.6 3.6 0.1
v 0.6 3.6 0
v 0.7 3 0.4
v 0.7 3 -0.2
v 0.7 3.2 0.4
v 0.7 3.2 0.2
v 0.7 3.2 -0.1
v 0.7 3.2 -0.2
v 0.7 3.4 0.2
v 0.7 3.4 0.1
v 0.7 3.4 0
v 0.7 3.4 -0.1
v 0.7 3.5 0.1
v 0.7 3.5 0
v -0.3 2.9 0.5
v -0.3 3 0.5
v -0.2 2.9 0.5
v -0.2 3 0.5
v -0.1 3 0.5
v -0.1 3.2 0.5
v 0 3 0.5
v 0 3.2 0.5
v 0.1 2.9 0.5
v 0.1 3 0.5
v 0.2 2.9 0.5
v 0.2 3 0.5
v -0.8 3 0.4
v -0.8 3.2 0.4
v -0.7 2.8 0.4
v -0.7 3 0.4
v -0.5 2.6 0.4
v -0.5 2.8 0.4
v -0.5 3 0.4
v -0.5 3.2 0.4
v -0.4 2.8 0.4
v -0.4 2.9 0.4
v -0.3 2.8 0.4
v -0.3 2.9 0.4
v -0.3 3 0.4
v -0.3 3.1 0.4
v -0.2 2.9 0.4
v -0.2 3 0.4
v -0.2 3.1 0.4
v -0.1 3 0.4
v -0.1 3.1 0.4
v 0 3 0.4
v 0 3.1 0.4
v 0.1 2.9 0.4
v 0.1 3 0.4
v 0.1 3.1 0.4
v 0.2 2.8 0.4
v 0.2 2.9 0.4
v 0.2 3 0.4
v 0.2 3.1 0.4
v 0.3 2.8 0.4
v 0.3 2.9 0.4
v 0.4 2.6 0.4
v 0.4 2.8 0.4
v 0.4 3 0.4
v 0.4 3.2 0.4
v 0.6 2.8 0.4
v 0.6 3 0.4
v 0.7 3 0.4
v 0.7 3.2 0.4
v -0.8 3.2 0.2
v -0.8 3.4 0.2
v -0.7 3.2 0.2
v -0.7 3.4 0.2
v 0.6 3.2 0.2
v 0.6 3.4 0.2
v 0.7 3.2 0.2
v 0.7 3.4 0.2
v -0.8 3.4 0.1
v -0.8 3.5 0.1
v -0.7 3.4 0.1
v -0.7 3.5 0.1
v -0.7 3.6 0.1
v -0.6 3.4 0.1
v -0.6 3.5 0.1
v -0.6 3.6 0.1
v -0.5 3.5 0.1
v -0.5 3.6 0.1
v 0.4 3.5 0.1
v 0.4 3.6 0.1
v 0.5 3.4 0.1
v 0.5 3.5 0.1
v 0.5 3.6 0.1
v 0.6 3.4 0.1
v 0.6 3.5 0.1
v 0.6 3.6 0.1
v 0.7 3.4 0.1
v 0.7 3.5 0.1
v -0.8 3.4 0
v -0.8 3.5 0
v -0.7 3.4 0
v -0.7 3.5 0
v -0.7 3.6 0
v -0.6 3.4 0
v -0.6 3.5 0
v -0.6 3.6 0
v -0.5 3.5 0
v -0.5 3.6 0
v 0.4 3.5 0
v 0.4 3.6 0
v 0.5 3.4 0
v 0.5 3.5 0
v 0.5 3.6 0
v 0.6 3.4 0
v 0.6 3.5 0
v 0.6 3.6 0
v 0.7 3.4 0
v 0.7 3.5 0
v -0.8 3.2 -0.1
v -0.8 3.4 -0.1
v -0.7 3.2 -0.1
v -0.7 3.4 -0.1
v 0.6 3.2 -0.1
v 0.6 3.4 -0.1
v 0.7 3.2 -0.1
v 0.7 3.4 -0.1
v -0.8 3 -0.2
v -0.8 3.2 -0.2
v -0.7 2.8 -0.2
v -0.7 3 -0.2
v -0.5 2.6 -0.2
v -0.5 2.8 -0.2
v -0.5 3 -0.2
v -0.5 3.2 -0.2
v -0.3 3 -0.2
v -0.3 3.1 -0.2
v -0.1 3 -0.2
v -0.1 3.1 -0.2
v 0 3 -0.2
v 0 3.1 -0.2
v 0.2 3 -0.2
v 0.2 3.1 -0.2
v 0.4 2.6 -0.2
v 0.4 2.8 -0.2
v 0.4 3 -0.2
v 0.4 3.2 -0.2
v 0.6 2.8 -0.2
v 0.6 3 -0.2
v 0.7 3 -0.2
v 0.7 3.2 -0.2
v -0.1 3 -0.5
v -0.1 3.2 -0.5
v 0 3 -0.5
v 0 3.2 -0.5
v -0.5 2.6 0.4
v 0.4 2.6 0.4
v -0.3 2.6 0.1
v 0.2 2.6 0.1
v -0.3 2.6 -0.1
v 0.2 2.6 -0.1
v -0.5 2.6 -0.2
v 0.4 2.6 -0.2
v -0.7 2.8 0.4
v -0.5 2.8 0.4
v 0.4 2.8 0.4
v 0.6 2.8 0.4
v -0.7 2.8 -0.2
v -0.5 2.8 -0.2
v 0.4 2.8 -0.2
v 0.6 2.8 -0.2
v -0.3 2.9 0.5
v -0.2 2.9 0.5
v 0.1 2.9 0.5
v 0.2 2.9 0.5
v -0.3 2.9 0.4
v -0.2 2.9 0.4
v 0.1 2.9 0.4
v 0.2 2.9 0.4
v -0.1 3 0.5
v 0 3 0.5
v -0.8 3 0.4
v -0.7 3 0.4
v -0.1 3 0.4
v 0 3 0.4
v 0.6 3 0.4
v 0.7 3 0.4
v -0.8 3 -0.2
v -0.7 3 -0.2
v -0.1 3 -0.2
v 0 3 -0.2
v 0.6 3 -0.2
v 0.7 3 -0.2
v -0.1 3 -0.5
v 0 3 -0.5
v -0.7 3.4 0.1
v -0.6 3.4 0.1
v 0.5 3.4 0.1
v 0.6 3.4 0.1
v -0.7 3.4 0
v -0.6 3.4 0
v 0.5 3.4 0
v 0.6 3.4 0
v -0.6 3.5 0.1
v -0.5 3.5 0.1
v 0.4 3.5 0.1
v 0.5 3.5 0.1
v -0.6 3.5 0
v -0.5 3.5 0
v 0.4 3.5 0
v 0.5 3.5 0
v -0.3 3 0.5
v -0.2 3 0.5
v 0.1 3 0.5
v 0.2 3 0.5
v -0.5 3 0.4
v -0.3 3 0.4
v -0.2 3 0.4
v 0.1 3 0.4
v 0.2 3 0.4
v 0.4 3 0.4
v -0.5 3 -0.2
v -0.3 3 -0.2
v 0.2 3 -0.2
v 0.4 3 -0.2
v -0.3 3.1 0.4
v -0.2 3.1 0.4
v -0.1 3.1 0.4
v 0 3.1 0.4
v 0.1 3.1 0.4
v 0.2 3.1 0.4
v -0.2 3.1 0.3
v -0.1 3.1 0.3
v 0 3.1 0.3
v 0.1 3.1 0.3
v -0.3 3.1 -0.2
v -0.1 3.1 -0.2
v 0 3.1 -0.2
v 0.2 3.1 -0.2
v -0.1 3.2 0.5
v 0 3.2 0.5
v -0.8 3.2 0.4
v -0.5 3.2 0.4
v 0.4 3.2 0.4
v 0.7 3.2 0.4
v -0.8 3.2 0.2
v -0.7 3.2 0.2
v 0.6 3.2 0.2
v 0.7 3.2 0.2
v -0.8 3.2 -0.1
v -0.7 3.2 -0.1
v 0.6 3.2 -0.1
v 0.7 3.2 -0.1
v -0.8 3.2 -0.2
v -0.5 3.2 -0.2
v 0.4 3.2 -0.2
v 0.7 3.2 -0.2
v -0.1 3.2 -0.5
v 0 3.2 -0.5
v -0.8 3.4 0.2
v -0.7 3.4 0.2
v 0.6 3.4 0.2
v 0.7 3.4 0.2
v -0.8 3.4 0.1
v -0.7 3.4 0.1
v 0.6 3.4 0.1
v 0.7 3.4 0.1
v -0.8 3.4 0
v -0.7 3.4 0
v 0.6 3.4 0
v 0.7 3.4 0
v -0.8 3.4 -0.1
v -0.7 3.4 -0.1
v 0.6 3.4 -0.1
v 0.7 3.4 -0.1
v -0.8 3.5 0.1
v -0.7 3.5 0.1
v 0.6 3.5 0.1
v 0.7 3.5 0.1
v -0.8 3.5 0
v -0.7 3.5 0
v 0.6 3.5 0
v 0.7 3.5 0
v -0.7 3.6 0.1
v -0.6 3.6 0.1
v -0.5 3.6 0.1
v 0.4 3.6 0.1
v 0.5 3.6 0.1
v 0.6 3.6 0.1
v -0.7 3.6 0
v -0.6 3.6 0
v -0.5 3.6 0
v 0.4 3.6 0
v 0.5 3.6 0
v 0.6 3.6 0

# faces
f 3/3/1 2/3/1 1/3/1
f 4/3/1 2/3/1 3/3/1
f 5/3/1 2/3/1 4/3/1
f 6/3/1 2/3/1 5/3/1
f 7/3/1 5/3/1 4/3/1
f 8/3/1 5/3/1 7/3/1
f 9/3/1 5/3/1 8/3/1
f 10/3/1 5/3/1 9/3/1
f 11/3/1 9/3/1 8/3/1
f 12/3/1 9/3/1 11/3/1
f 15/3/1 14/3/1 13/3/1
f 16/3/1 14/3/1 15/3/1
f 19/3/1 18/3/1 17/3/1
f 20/3/1 18/3/1 19/3/1
f 23/3/1 22/3/1 21/3/1
f 24/3/1 22/3/1 23/3/1
f 27/2/1 26/2/1 25/2/1
f 28/2/1 26/2/1 27/2/1
f 30/3/1 29/3/1 28/3/1
f 31/3/1 29/3/1 30/3/1
f 36/3/1 33/3/1 32/3/1
f 38/3/1 35/3/1 34/3/1
f 39/3/1 37/3/1 36/3/1
f 39/3/1 38/3/1 37/3/1
f 39/3/1 36/3/1 32/3/1
f 40/3/1 35/3/1 38/3/1
f 40/3/1 38/3/1 39/3/1
f 43/2/1 42/2/1 41/2/1
f 44/2/1 42/2/1 43/2/1
f 47/3/1 46/3/1 45/3/1
f 48/3/1 46/3/1 47/3/1
f 51/2/1 50/2/1 49/2/1
f 52/2/1 50/2/1 51/2/1
f 55/2/1 54/2/1 53/2/1
f 56/2/1 54/2/1 55/2/1
f 59/3/1 58/3/1 57/3/1
f 60/3/1 58/3/1 59/3/1
f 61/3/1 58/3/1 60/3/1
f 62/3/1 58/3/1 61/3/1
f 63/3/2 64/3/2 65/3/2
f 65/3/2 64/3/2 66/3/2
f 66/3/2 64/3/2 67/3/2
f 67/3/2 64/3/2 68/3/2
f 69/2/2 70/2/2 71/2/2
f 71/2/2 70/2/2 72/2/2
f 73/3/2 74/3/2 75/3/2
f 75/3/2 74/3/2 76/3/2
f 77/2/2 78/2/2 79/2/2
f 79/2/2 78/2/2 80/2/2
f 81/2/2 82/2/2 83/2/2
f 83/2/2 82/2/2 84/2/2
f 85/3/2 86/3/2 89/3/2
f 87/3/2 88/3/2 91/3/2
f 89/3/2 90/3/2 92/3/2
f 90/3/2 91/3/2 92/3/2
f 85/3/2 89/3/2 92/3/2
f 91/3/2 88/3/2 93/3/2
f 92/3/2 91/3/2 93/3/2
f 94/2/2 95/2/2 96/2/2
f 96/2/2 95/2/2 97/2/2
f 97/3/2 98/3/2 99/3/2
f 99/3/2 98/3/2 100/3/2
f 101/3/2 102/3/2 103/3/2
f 103/3/2 102/3/2 104/3/2
f 105/3/2 106/3/2 107/3/2
f 107/3/2 106/3/2 108/3/2
f 109/3/2 110/3/2 111/3/2
f 111/3/2 110/3/2 112/3/2
f 113/3/2 114/3/2 115/3/2
f 115/3/2 114/3/2 116/3/2
f 116/3/2 114/3/2 117/3/2
f 117/3/2 114/3/2 118/3/2
f 116/3/2 117/3/2 119/3/2
f 119/3/2 117/3/2 120/3/2
f 120/3/2 117/3/2 121/3/2
f 121/3/2 117/3/2 122/3/2
f 120/3/2 121/3/2 123/3/2
f 123/3/2 121/3/2 124/3/2
f 127/2/3 126/2/3 125/2/3
f 128/2/3 126/2/3 127/2/3
f 131/3/3 130/3/3 129/3/3
f 132/3/3 130/3/3 131/3/3
f 135/2/3 134/2/3 133/2/3
f 136/2/3 134/2/3 135/2/3
f 140/3/3 138/3/3 137/3/3
f 142/3/3 140/3/3 139/3/3
f 143/3/3 138/3/3 140/3/3
f 143/3/3 140/3/3 142/3/3
f 144/3/3 138/3/3 143/3/3
f 145/3/3 142/3/3 141/3/3
f 145/3/3 143/3/3 142/3/3
f 146/3/3 143/3/3 145/3/3
f 147/3/3 145/3/3 141/3/3
f 147/2/3 146/2/3 145/2/3
f 148/3/3 143/3/3 146/3/3
f 148/2/3 146/2/3 147/2/3
f 149/3/3 143/3/3 148/3/3
f 151/3/3 148/3/3 147/3/3
f 152/3/3 150/3/3 149/3/3
f 153/3/3 150/3/3 152/3/3
f 154/3/3 152/3/3 151/3/3
f 154/2/3 153/2/3 152/2/3
f 155/2/3 153/2/3 154/2/3
f 156/3/3 154/3/3 151/3/3
f 158/3/3 151/3/3 147/3/3
f 158/3/3 156/3/3 151/3/3
f 159/2/3 157/2/3 156/2/3
f 159/3/3 156/3/3 158/3/3
f 160/2/3 157/2/3 159/2/3
f 161/3/3 147/3/3 141/3/3
f 161/3/3 158/3/3 147/3/3
f 162/3/3 158/3/3 161/3/3
f 163/3/3 160/3/3 159/3/3
f 164/3/3 160/3/3 163/3/3
f 165/2/3 162/2/3 161/2/3
f 165/3/3 161/3/3 141/3/3
f 166/3/3 163/3/3 162/3/3
f 166/2/3 162/2/3 165/2/3
f 167/3/3 165/3/3 141/3/3
f 167/3/3 166/3/3 165/3/3
f 168/3/3 166/3/3 167/3/3
f 169/3/3 163/3/3 166/3/3
f 169/3/3 166/3/3 168/3/3
f 171/3/3 169/3/3 168/3/3
f 171/3/3 170/3/3 169/3/3
f 172/3/3 170/3/3 171/3/3
f 173/3/3 170/3/3 172/3/3
f 174/3/3 170/3/3 173/3/3
f 177/3/3 176/3/3 175/3/3
f 178/3/3 176/3/3 177/3/3
f 181/3/3 180/3/3 179/3/3
f 182/3/3 180/3/3 181/3/3
f 185/3/3 184/3/3 183/3/3
f 186/3/3 184/3/3 185/3/3
f 188/2/3 186/2/3 185/2/3
f 189/3/3 187/3/3 186/3/3
f 189/2/3 186/2/3 188/2/3
f 190/3/3 187/3/3 189/3/3
f 191/2/3 190/2/3 189/2/3
f 192/2/3 190/2/3 191/2/3
f 196/2/3 194/2/3 193/2/3
f 197/2/3 194/2/3 196/2/3
f 198/2/3 196/2/3 195/2/3
f 199/3/3 197/3/3 196/3/3
f 199/2/3 196/2/3 198/2/3
f 200/3/3 197/3/3 199/3/3
f 201/3/3 199/3/3 198/3/3
f 202/3/3 199/3/3 201/3/3
f 203/3/4 204/3/4 205/3/4
f 205/3/4 204/3/4 206/3/4
f 205/2/4 206/2/4 208/2/4
f 206/3/4 207/3/4 209/3/4
f 208/2/4 206/2/4 209/2/4
f 209/3/4 207/3/4 210/3/4
f 209/2/4 210/2/4 211/2/4
f 211/2/4 210/2/4 212/2/4
f 213/2/4 214/2/4 216/2/4
f 216/2/4 214/2/4 217/2/4
f 215/2/4 216/2/4 218/2/4
f 216/3/4 217/3/4 219/3/4
f 218/2/4 216/2/4 219/2/4
f 219/3/4 217/3/4 220/3/4
f 218/3/4 219/3/4 221/3/4
f 221/3/4 219/3/4 222/3/4
f 223/3/4 224/3/4 225/3/4
f 225/3/4 224/3/4 226/3/4
f 227/3/4 228/3/4 229/3/4
f 229/3/4 228/3/4 230/3/4
f 231/3/4 232/3/4 234/3/4
f 233/3/4 234/3/4 236/3/4
f 234/3/4 232/3/4 237/3/4
f 236/3/4 234/3/4 237/3/4
f 237/3/4 232/3/4 238/3/4
f 235/3/4 236/3/4 239/3/4
f 236/3/4 237/3/4 239/3/4
f 235/3/4 239/3/4 241/3/4
f 239/3/4 240/3/4 241/3/4
f 241/3/4 240/3/4 242/3/4
f 235/3/4 241/3/4 243/3/4
f 235/3/4 243/3/4 245/3/4
f 243/3/4 244/3/4 245/3/4
f 245/3/4 244/3/4 246/3/4
f 235/3/4 245/3/4 247/3/4
f 247/3/4 245/3/4 248/3/4
f 248/3/4 245/3/4 249/3/4
f 248/3/4 249/3/4 251/3/4
f 249/3/4 250/3/4 251/3/4
f 251/3/4 250/3/4 252/3/4
f 252/3/4 250/3/4 253/3/4
f 253/3/4 250/3/4 254/3/4
f 255/3/4 256/3/4 257/3/4
f 257/3/4 256/3/4 258/3/4
f 261/3/5 260/3/5 259/3/5
f 262/3/5 260/3/5 261/3/5
f 263/3/5 261/3/5 259/3/5
f 263/2/5 262/2/5 261/2/5
f 264/3/5 260/3/5 262/3/5
f 264/2/5 262/2/5 263/2/5
f 265/3/5 263/3/5 259/3/5
f 265/3/5 264/3/5 263/3/5
f 266/3/5 260/3/5 264/3/5
f 266/3/5 264/3/5 265/3/5
f 271/3/5 268/3/5 267/3/5
f 272/3/5 268/3/5 271/3/5
f 273/3/5 270/3/5 269/3/5
f 274/3/5 270/3/5 273/3/5
f 279/2/5 276/2/5 275/2/5
f 280/2/5 276/2/5 279/2/5
f 281/2/5 278/2/5 277/2/5
f 282/2/5 278/2/5 281/2/5
f 287/3/5 284/3/5 283/3/5
f 288/3/5 284/3/5 287/3/5
f 291/3/5 286/3/5 285/3/5
f 292/3/5 286/3/5 291/3/5
f 295/3/5 290/3/5 289/3/5
f 296/3/5 290/3/5 295/3/5
f 297/3/5 294/3/5 293/3/5
f 298/3/5 294/3/5 297/3/5
f 303/2/5 300/2/5 299/2/5
f 304/2/5 300/2/5 303/2/5
f 305/2/5 302/2/5 301/2/5
f 306/2/5 302/2/5 305/2/5
f 311/2/5 308/2/5 307/2/5
f 312/2/5 308/2/5 311/2/5
f 313/2/5 310/2/5 309/2/5
f 314/2/5 310/2/5 313/2/5
f 315/2/6 316/2/6 320/2/6
f 320/2/6 316/2/6 321/2/6
f 317/2/6 318/2/6 322/2/6
f 322/2/6 318/2/6 323/2/6
f 319/3/6 320/3/6 325/3/6
f 325/3/6 320/3/6 326/3/6
f 323/3/6 324/3/6 327/3/6
f 327/3/6 324/3/6 328/3/6
f 329/3/6 330/3/6 335/3/6
f 330/2/6 331/2/6 335/2/6
f 335/2/6 331/2/6 336/2/6
f 332/2/6 333/2/6 337/2/6
f 333/3/6 334/3/6 338/3/6
f 337/2/6 333/2/6 338/2/6
f 335/3/6 336/3/6 339/3/6
f 329/3/6 335/3/6 339/3/6
f 339/3/6 336/3/6 340/3/6
f 337/3/6 338/3/6 341/3/6
f 338/3/6 334/3/6 342/3/6
f 341/3/6 338/3/6 342/3/6
f 345/3/6 346/3/6 349/3/6
f 349/3/6 346/3/6 350/3/6
f 347/3/6 348/3/6 351/3/6
f 351/3/6 348/3/6 352/3/6
f 350/3/6 346/3/6 354/3/6
f 347/3/6 351/3/6 355/3/6
f 353/3/6 354/3/6 357/3/6
f 354/3/6 346/3/6 358/3/6
f 357/3/6 354/3/6 358/3/6
f 355/3/6 356/3/6 359/3/6
f 347/3/6 355/3/6 359/3/6
f 359/3/6 356/3/6 360/3/6
f 343/3/6 344/3/6 361/3/6
f 361/3/6 344/3/6 362/3/6
f 363/3/6 364/3/6 367/3/6
f 367/3/6 364/3/6 368/3/6
f 365/3/6 366/3/6 369/3/6
f 369/3/6 366/3/6 370/3/6
f 371/3/6 372/3/6 375/3/6
f 375/3/6 372/3/6 376/3/6
f 373/3/6 374/3/6 377/3/6
f 377/3/6 374/3/6 378/3/6
f 379/3/6 380/3/6 383/3/6
f 383/3/6 380/3/6 384/3/6
f 381/3/6 382/3/6 385/3/6
f 385/3/6 382/3/6 386/3/6
f 387/3/6 388/3/6 393/3/6
f 388/2/6 389/2/6 394/2/6
f 393/3/6 388/3/6 394/3/6
f 394/2/6 389/2/6 395/2/6
f 390/2/6 391/2/6 396/2/6
f 391/3/6 392/3/6 397/3/6
f 396/2/6 391/2/6 397/2/6
f 397/3/6 392/3/6 398/3/6
