# Blender v2.93.5 OBJ File: 'Corridors.blend'
# www.blender.org
mtllib AfterPostWall2Floor.mtl
o Cube.012_Cube.019
v -0.999387 -0.462227 -0.999928
v -1.615096 -0.462227 -1.002047
v -1.615492 -0.096534 -1.000247
v -0.999783 -0.096534 -0.998128
v -1.000179 -0.462227 0.999985
v -1.615888 -0.462227 0.997867
v -0.999783 -0.096534 1.001785
v -1.615492 -0.096534 0.999666
vt 0.199448 0.460408
vt 0.111582 0.460376
vt 0.111582 0.308552
vt 0.199448 0.308584
vt 0.109654 0.308585
vt 0.109654 0.460409
vt 0.021788 0.460376
vt 0.021788 0.308552
vt 0.173612 0.306366
vt 0.021788 0.306623
vt 0.021788 0.021225
vt 0.173612 0.020968
vt 0.506952 0.306634
vt 0.419087 0.306366
vt 0.419087 0.020968
vt 0.506952 0.021236
vt 0.417158 0.306366
vt 0.329294 0.306668
vt 0.329294 0.021270
vt 0.417158 0.020968
vt 0.175541 0.020968
vt 0.327365 0.021225
vt 0.327365 0.306623
vt 0.175541 0.306366
vn 0.0034 0.0049 -1.0000
vn -0.0034 -0.0049 1.0000
vn -1.0000 0.0000 -0.0002
vn 0.0000 -1.0000 0.0000
vn 0.0000 1.0000 0.0000
vn 1.0000 -0.0000 0.0002
usemtl None
s off
f 3/1/1 4/2/1 1/3/1 2/4/1
f 5/5/2 7/6/2 8/7/2 6/8/2
f 3/9/3 2/10/3 6/11/3 8/12/3
f 2/13/4 1/14/4 5/15/4 6/16/4
f 4/17/5 3/18/5 8/19/5 7/20/5
f 1/21/6 4/22/6 7/23/6 5/24/6
