# MagicaVoxel @ Ephtracy

# group
o 

# material
mtllib VerySmallMedicalKit_LOD1.mtl
usemtl palette

# normals
vn 1 0 0
vn -1 0 0
vn 0 0 -1
vn 0 0 1
vn 0 -1 0
vn 0 1 0

# texcoords
vt 0.974609 0.5
vt 0.982422 0.5

# verts
v 0 -0.2 -0.2
v 0 -0.2 0.3
v 0 0.3 -0.2
v 0 0.3 0.3
v -0.3 -0.2 -0.2
v -0.3 -0.2 0.3
v -0.3 -0.1 0
v -0.3 -0.1 0.1
v -0.3 0 -0.1
v -0.3 0 0
v -0.3 0 0.1
v -0.3 0 0.2
v -0.3 0.1 -0.1
v -0.3 0.1 0
v -0.3 0.1 0.1
v -0.3 0.1 0.2
v -0.3 0.2 0
v -0.3 0.2 0.1
v -0.3 0.3 -0.2
v -0.3 0.3 0.3
v 0 -0.2 -0.2
v 0 0.3 -0.2
v -0.3 -0.2 -0.2
v -0.3 0.3 -0.2
v 0 -0.2 0.3
v 0 0.3 0.3
v -0.3 -0.2 0.3
v -0.3 0.3 0.3
v 0 -0.2 -0.2
v -0.3 -0.2 -0.2
v 0 -0.2 0.3
v -0.3 -0.2 0.3
v 0 0.3 -0.2
v -0.3 0.3 -0.2
v 0 0.3 0.3
v -0.3 0.3 0.3

# faces
f 3/1/1 2/1/1 1/1/1
f 4/1/1 2/1/1 3/1/1
f 5/1/2 6/1/2 7/1/2
f 7/1/2 6/1/2 8/1/2
f 5/1/2 7/1/2 9/1/2
f 7/2/2 8/2/2 10/2/2
f 9/1/2 7/1/2 10/1/2
f 8/1/2 6/1/2 11/1/2
f 10/2/2 8/2/2 11/2/2
f 11/1/2 6/1/2 12/1/2
f 9/2/2 10/2/2 13/2/2
f 5/1/2 9/1/2 13/1/2
f 11/2/2 12/2/2 13/2/2
f 10/2/2 11/2/2 13/2/2
f 13/2/2 12/2/2 14/2/2
f 14/2/2 12/2/2 15/2/2
f 12/1/2 6/1/2 16/1/2
f 15/2/2 12/2/2 16/2/2
f 14/2/2 15/2/2 17/2/2
f 13/1/2 14/1/2 17/1/2
f 15/1/2 16/1/2 18/1/2
f 17/2/2 15/2/2 18/2/2
f 5/1/2 13/1/2 19/1/2
f 13/1/2 17/1/2 19/1/2
f 17/1/2 18/1/2 19/1/2
f 16/1/2 6/1/2 20/1/2
f 19/1/2 18/1/2 20/1/2
f 18/1/2 16/1/2 20/1/2
f 23/1/3 22/1/3 21/1/3
f 24/1/3 22/1/3 23/1/3
f 25/1/4 26/1/4 27/1/4
f 27/1/4 26/1/4 28/1/4
f 31/1/5 30/1/5 29/1/5
f 32/1/5 30/1/5 31/1/5
f 33/1/6 34/1/6 35/1/6
f 35/1/6 34/1/6 36/1/6
