# Blender v2.93.5 OBJ File: ''
# www.blender.org
mtllib VerySmallMedicalKit_LOD0.mtl
o VerySmallMedicalKit_LOD0
v 0.126635 -0.126635 -0.126635
v 0.100727 -0.201211 0.200727
v 0.100727 -0.201211 -0.100727
v 0.126635 -0.126635 0.226635
v 0.100000 -0.000000 0.300000
v 0.100000 0.100000 -0.200000
v 0.100727 0.200727 0.301211
v 0.100727 0.301211 -0.100727
v 0.017794 -0.203623 -0.203623
v 0.008878 -0.244391 0.226635
v 0.008878 0.226635 -0.244391
v 0.008878 0.344391 -0.126634
v 0.008878 0.344391 0.226635
v 0.008878 0.226634 0.344391
v -0.117794 -0.203623 -0.203623
v -0.160979 -0.000241 -0.000242
v -0.110297 -0.008878 -0.126635
v -0.160979 0.100241 -0.000242
v -0.160979 0.100241 0.100242
v -0.110297 0.108878 0.226635
v -0.117794 0.303623 -0.203623
v -0.200727 -0.201211 -0.100727
v -0.200000 0.000000 -0.200000
v -0.200000 -0.000000 0.300000
v -0.200000 0.100000 -0.200000
v -0.200000 0.100000 0.300000
v -0.200727 0.200727 -0.201211
v -0.226635 0.226635 -0.126635
v -0.211535 0.194301 -0.000242
v -0.226635 0.226635 0.226635
v -0.200727 0.301211 -0.100727
v 0.100000 0.000000 -0.200000
v -0.108878 0.226635 -0.244391
v 0.008878 -0.244391 -0.126635
v 0.126635 0.226635 -0.126635
v -0.108878 -0.244391 -0.126635
v -0.211535 -0.094301 0.100242
v -0.152947 -0.091763 0.108878
v -0.211535 0.194301 0.100242
v -0.200866 -0.000242 0.200727
v -0.200866 0.100242 -0.100727
v -0.211535 -0.094301 -0.000242
v -0.206279 0.100000 0.000000
v 0.126635 0.226635 0.226635
v -0.108878 -0.244391 0.226635
v -0.200727 -0.201211 0.200727
v -0.108878 0.344391 0.226635
v 0.100000 0.100000 0.300000
v -0.108878 -0.126635 0.344391
v 0.017794 0.303623 0.303623
v -0.108878 0.226634 0.344391
v 0.017794 -0.203623 0.303623
v 0.008878 -0.126634 -0.244391
v 0.100727 -0.100727 -0.201211
v -0.200727 -0.100727 -0.201211
v -0.108878 -0.126634 -0.244391
v -0.226635 -0.126635 -0.126635
v 0.100727 -0.100727 0.301211
v 0.008878 -0.126635 0.344391
v -0.226635 -0.126635 0.226635
v -0.117794 -0.203623 0.303623
v -0.200727 -0.100727 0.301211
v -0.149076 0.108878 -0.126635
v -0.206279 0.100000 0.100000
v -0.200866 0.100242 0.200727
v -0.152947 0.191763 0.108878
v -0.152947 0.191763 -0.008878
v -0.152947 -0.091763 -0.008878
v -0.200866 -0.000242 -0.100727
v -0.206279 0.000000 0.000000
v -0.160979 -0.000241 0.100242
v -0.206279 -0.000000 0.100000
v -0.149076 -0.008878 0.226635
v 0.100727 0.200727 -0.201211
v -0.117794 0.303623 0.303623
v -0.200727 0.200727 0.301211
v 0.017794 0.303623 -0.203623
v -0.108878 0.344391 -0.126634
v 0.100727 0.301211 0.200727
v -0.200727 0.301211 0.200727
v 0.100727 0.301211 0.057708
v 0.126845 0.226635 0.062317
v 0.131714 0.160095 0.058267
v 0.142079 0.100000 0.056442
v 0.126849 -0.126635 0.060340
v 0.113444 0.264602 0.059971
v 0.130477 -0.064067 0.057126
v 0.058323 0.321146 0.049594
v 0.142079 0.048769 0.056155
v 0.142079 -0.000000 0.055882
vt 0.974609 0.500000
vt 0.974609 0.500000
vt 0.974609 0.500000
vt 0.974609 0.500000
vt 0.974609 0.500000
vt 0.974609 0.500000
vt 0.974609 0.500000
vt 0.974609 0.500000
vt 0.974609 0.500000
vt 0.970703 0.500000
vt 0.970703 0.500000
vt 0.970703 0.500000
vt 0.970703 0.500000
vt 0.970703 0.500000
vt 0.974609 0.500000
vt 0.974609 0.500000
vt 0.974609 0.500000
vt 0.974609 0.500000
vt 0.974609 0.500000
vt 0.974609 0.500000
vt 0.974609 0.500000
vt 0.974609 0.500000
vt 0.974609 0.500000
vt 0.974609 0.500000
vt 0.974609 0.500000
vt 0.974609 0.500000
vt 0.974609 0.500000
vt 0.974609 0.500000
vt 0.974609 0.500000
vt 0.974609 0.500000
vt 0.974609 0.500000
vt 0.974609 0.500000
vt 0.974609 0.500000
vt 0.974609 0.500000
vt 0.974609 0.500000
vt 0.982422 0.500000
vt 0.982422 0.500000
vt 0.982422 0.500000
vt 0.982422 0.500000
vt 0.982422 0.500000
vt 0.982422 0.500000
vt 0.982422 0.500000
vt 0.982422 0.500000
vt 0.982422 0.500000
vt 0.982422 0.500000
vt 0.982422 0.500000
vt 0.982422 0.500000
vt 0.974609 0.500000
vt 0.974609 0.500000
vt 0.974609 0.500000
vt 0.974609 0.500000
vt 0.974609 0.500000
vt 0.974609 0.500000
vt 0.974609 0.500000
vt 0.974609 0.500000
vt 0.974609 0.500000
vt 0.974609 0.500000
vt 0.974609 0.500000
vt 0.974609 0.500000
vt 0.974609 0.500000
vt 0.974609 0.500000
vt 0.974609 0.500000
vt 0.974609 0.500000
vt 0.974609 0.500000
vt 0.970703 0.500000
vt 0.970703 0.500000
vt 0.970703 0.500000
vt 0.970703 0.500000
vt 0.970703 0.500000
vt 0.970703 0.500000
vt 0.970703 0.500000
vt 0.970703 0.500000
vt 0.974609 0.500000
vt 0.974609 0.500000
vt 0.974609 0.500000
vt 0.974609 0.500000
vt 0.974609 0.500000
vt 0.974609 0.500000
vt 0.974609 0.500000
vt 0.974609 0.500000
vt 0.974609 0.500000
vt 0.974609 0.500000
vt 0.974609 0.500000
vt 0.974609 0.500000
vt 0.974609 0.500000
vt 0.974609 0.500000
vt 0.974609 0.500000
vt 0.974609 0.500000
vt 0.974609 0.500000
vt 0.974609 0.500000
vt 0.974609 0.500000
vt 0.974609 0.500000
vt 0.974609 0.500000
vt 0.974609 0.500000
vt 0.974609 0.500000
vt 0.974609 0.500000
vt 0.974609 0.500000
vt 0.970703 0.500000
vt 0.970703 0.500000
vt 0.970703 0.500000
vt 0.970703 0.500000
vt 0.974609 0.500000
vt 0.974609 0.500000
vt 0.974609 0.500000
vt 0.974609 0.500000
vt 0.974609 0.500000
vt 0.974609 0.500000
vt 0.974609 0.500000
vt 0.974609 0.500000
vt 0.974609 0.500000
vt 0.974609 0.500000
vt 0.974609 0.500000
vt 0.970703 0.500000
vt 0.974609 0.500000
vt 0.974609 0.500000
vt 0.974609 0.500000
vt 0.974609 0.500000
vt 0.974609 0.500000
vt 0.970703 0.500000
vt 0.974609 0.500000
vn 0.9445 -0.3285 0.0012
vn 0.9457 0.0107 -0.3248
vn 0.9837 0.1629 -0.0760
vn 0.9707 -0.1725 0.1673
vn 0.9868 -0.0000 -0.1621
vn 0.9854 -0.0010 0.1702
vn 0.9927 -0.0086 -0.1199
vn 0.8977 -0.4061 -0.1708
vn 0.9973 0.0729 0.0013
vn 0.9457 -0.0107 0.3248
vn 0.9445 0.3285 -0.0011
vn 0.9446 0.3282 0.0000
vn 0.9444 0.2325 0.2325
vn -0.9444 0.2325 0.2325
vn -0.9962 -0.0874 -0.0000
vn -0.8938 -0.2943 -0.3383
vn -0.9365 0.3328 0.1109
vn -0.9941 0.1084 0.0000
vn -0.9365 -0.3328 -0.1109
vn -0.9941 -0.1084 -0.0000
vn -0.8938 0.2943 0.3383
vn -0.9962 0.0874 0.0000
vn -0.9446 -0.3282 -0.0000
vn -0.9918 0.0827 0.0973
vn -0.9949 -0.1006 -0.0000
vn -0.9468 -0.2660 -0.1812
vn -0.9457 0.0107 -0.3248
vn -0.9701 0.2362 0.0555
vn -0.9946 0.1038 -0.0084
vn -0.9970 0.0557 -0.0537
vn -0.9171 0.3459 0.1984
vn -0.9930 0.0551 -0.1045
vn -0.9972 0.0523 0.0537
vn -0.9999 0.0073 0.0087
vn -1.0000 0.0000 -0.0087
vn -1.0000 0.0000 0.0087
vn -0.9972 -0.0523 -0.0537
vn -0.9999 -0.0073 -0.0087
vn -0.9171 -0.3459 -0.1984
vn -0.9930 -0.0551 0.1045
vn -0.9946 -0.1038 0.0084
vn -0.9970 -0.0557 0.0537
vn -0.9701 -0.2362 -0.0555
vn -0.9457 -0.0107 0.3248
vn -0.9468 0.2660 0.1812
vn -0.9918 -0.0827 -0.0973
vn -0.9949 0.1006 0.0000
vn -0.9446 0.3282 0.0000
vn 0.4222 0.0139 -0.9064
vn 0.4222 -0.0139 -0.9064
vn 0.0000 -0.4680 -0.8837
vn 0.0000 0.3308 -0.9437
vn 0.0000 0.4680 -0.8837
vn 0.0000 -0.3308 -0.9437
vn -0.1970 0.5974 -0.7774
vn 0.0000 0.0000 -1.0000
vn 0.0000 0.0120 -0.9999
vn -0.4222 -0.0139 -0.9064
vn 0.4253 -0.4253 -0.7989
vn 0.6787 -0.6787 -0.2808
vn 0.7047 0.4386 -0.5577
vn 0.4785 0.7977 -0.3670
vn -0.4785 -0.7977 -0.3670
vn -0.7047 -0.4386 -0.5577
vn -0.6787 0.6787 -0.2808
vn -0.4253 0.4253 -0.7989
vn 0.1487 -0.0799 -0.9856
vn 0.0053 -0.0029 -1.0000
vn 0.0048 0.0935 -0.9956
vn 0.1463 0.0107 -0.9892
vn 0.4243 -0.1397 -0.8947
vn 0.2750 0.0000 -0.9614
vn 0.2820 0.0929 0.9549
vn 0.4474 0.0000 0.8943
vn 0.1487 -0.0800 0.9856
vn 0.0053 -0.0029 1.0000
vn 0.0048 0.0935 0.9956
vn 0.1463 0.0107 0.9892
vn 0.4253 -0.4253 0.7989
vn 0.6787 -0.6787 0.2808
vn 0.7047 0.4386 0.5577
vn 0.4785 0.7977 0.3670
vn -0.4785 -0.7977 0.3670
vn -0.7047 -0.4386 0.5577
vn -0.6787 0.6787 0.2808
vn -0.4253 0.4253 0.7989
vn 0.4222 0.0139 0.9064
vn 0.4222 -0.0139 0.9064
vn 0.0000 -0.4680 0.8837
vn 0.0000 0.3308 0.9437
vn 0.0000 0.4680 0.8837
vn 0.0000 -0.3308 0.9437
vn -0.1970 0.5974 0.7774
vn 0.0000 -0.0000 1.0000
vn 0.0000 0.0120 0.9999
vn -0.4222 -0.0139 0.9064
vn 0.0000 -0.8837 -0.4680
vn 0.4255 -0.9050 -0.0000
vn -0.3255 -0.8877 0.3255
vn 0.0000 -0.9914 0.1308
vn 0.3255 -0.8877 -0.3255
vn 0.0000 -0.9914 -0.1308
vn -0.4255 -0.9050 -0.0000
vn 0.0000 -0.8837 0.4680
vn 0.4253 -0.7989 -0.4253
vn 0.6787 -0.2808 -0.6787
vn -0.4785 -0.3670 -0.7977
vn -0.7047 -0.5577 -0.4386
vn 0.7047 -0.5577 0.4386
vn 0.4785 -0.3670 0.7977
vn -0.6787 -0.2808 0.6787
vn -0.4253 -0.7989 0.4253
vn 0.1376 -0.9890 -0.0546
vn 0.0053 -1.0000 -0.0021
vn 0.0049 -0.9978 0.0662
vn 0.0957 -0.9954 -0.0027
vn -0.0433 -0.9991 0.0000
vn -0.0433 0.9991 0.0000
vn 0.0853 0.9958 -0.0339
vn 0.0053 1.0000 -0.0021
vn 0.0049 0.9977 0.0677
vn 0.1677 0.9858 -0.0066
vn 0.4253 0.7989 -0.4253
vn 0.6787 0.2808 -0.6787
vn -0.4785 0.3670 -0.7977
vn -0.7047 0.5577 -0.4386
vn 0.7047 0.5577 0.4386
vn 0.4785 0.3670 0.7977
vn -0.6787 0.2808 0.6787
vn -0.4253 0.7989 0.4253
vn 0.0000 0.8837 -0.4680
vn 0.4255 0.9050 0.0000
vn -0.3255 0.8877 0.3255
vn 0.0000 0.9914 0.1308
vn 0.3255 0.8877 -0.3255
vn 0.0000 0.9914 -0.1308
vn -0.4255 0.9050 0.0000
vn 0.0000 0.8837 0.4680
vn 0.9436 -0.3312 -0.0011
vn 0.9708 -0.1789 -0.1597
vn 0.9868 0.0009 -0.1619
vn 0.9983 -0.0578 0.0013
vn 0.9855 -0.0010 0.1699
vn 0.9723 0.1626 0.1680
vn 0.9973 0.0730 -0.0011
vn 0.9430 0.3329 0.0012
vn 0.9436 -0.3311 -0.0003
vn 0.9983 -0.0579 -0.0011
vn 0.9925 0.0086 0.1223
vn 0.9867 0.0009 -0.1623
vn 0.9854 0.0000 0.1701
vn 0.9720 0.1725 -0.1595
vn 0.9838 -0.1544 0.0907
vn 0.8975 0.4068 0.1705
usemtl palette.001
s off
f 2/1/1 85/2/1 4/3/1
f 32/4/2 1/5/2 54/6/2
f 87/7/3 1/5/3 32/4/3
f 5/8/4 87/7/4 90/9/4
f 89/10/5 32/11/5 6/12/5
f 48/13/6 89/10/6 84/14/6
f 83/15/7 6/16/7 74/17/7
f 35/18/8 83/15/8 74/17/8
f 44/19/9 83/15/9 82/20/9
f 7/21/10 48/22/10 44/19/10
f 8/23/11 82/20/11 35/18/11
f 79/24/12 86/25/12 81/26/12
f 53/27/13 34/28/13 9/29/13
f 13/30/14 14/31/14 50/32/14
f 15/33/14 36/34/14 56/35/14
f 68/36/15 38/37/15 16/38/15
f 16/38/15 38/37/15 71/39/15
f 17/40/16 16/38/16 63/41/16
f 71/39/17 73/42/17 63/41/17
f 16/38/18 71/39/18 63/41/18
f 63/41/19 73/42/19 18/43/19
f 18/43/20 73/42/20 19/44/20
f 19/44/21 73/42/21 20/45/21
f 18/43/22 19/44/22 67/46/22
f 67/46/22 19/44/22 66/47/22
f 75/48/13 51/49/13 47/50/13
f 22/51/23 46/52/23 57/53/23
f 57/53/24 46/52/24 42/54/24
f 42/54/25 46/52/25 37/55/25
f 37/55/26 46/52/26 60/56/26
f 55/57/27 57/53/27 23/58/27
f 57/53/28 42/54/28 23/58/28
f 23/58/29 42/54/29 69/59/29
f 69/59/30 42/54/30 70/60/30
f 60/56/31 62/61/31 72/62/31
f 37/55/32 60/56/32 72/62/32
f 72/62/33 62/61/33 40/63/33
f 40/63/34 62/61/34 24/64/34
f 23/65/35 69/66/35 25/67/35
f 25/67/35 69/66/35 41/68/35
f 40/69/36 24/70/36 65/71/36
f 65/71/36 24/70/36 26/72/36
f 41/73/37 43/74/37 27/75/37
f 25/76/38 41/73/38 27/75/38
f 27/75/39 43/74/39 28/77/39
f 28/77/40 43/74/40 29/78/40
f 65/79/41 26/80/41 39/81/41
f 64/82/42 65/79/42 39/81/42
f 39/81/43 26/80/43 30/83/43
f 30/83/44 26/80/44 76/84/44
f 28/77/45 29/78/45 31/85/45
f 39/81/46 30/83/46 31/85/46
f 29/78/47 39/81/47 31/85/47
f 31/85/48 30/83/48 80/86/48
f 53/27/49 32/4/49 54/6/49
f 11/87/50 74/17/50 6/16/50
f 15/33/51 53/27/51 9/29/51
f 56/35/52 32/4/52 53/27/52
f 56/35/51 53/27/51 15/33/51
f 33/88/53 77/89/53 11/87/53
f 33/88/54 11/87/54 6/16/54
f 21/90/53 77/89/53 33/88/53
f 55/57/55 32/4/55 56/35/55
f 23/65/56 6/12/56 32/11/56
f 23/58/57 32/4/57 55/57/57
f 25/76/54 33/88/54 6/16/54
f 25/67/56 6/12/56 23/65/56
f 27/75/58 33/88/58 25/76/58
f 34/28/59 1/5/59 3/91/59
f 9/29/60 1/5/60 34/28/60
f 77/89/61 8/23/61 35/18/61
f 12/92/62 8/23/62 77/89/62
f 22/51/63 15/33/63 36/34/63
f 57/53/64 15/33/64 22/51/64
f 28/77/65 78/93/65 21/90/65
f 31/85/66 78/93/66 28/77/66
f 37/55/67 71/94/67 38/95/67
f 72/62/68 71/94/68 37/55/68
f 64/82/69 66/96/69 19/97/69
f 39/81/70 66/96/70 64/82/70
f 40/69/71 20/98/71 73/99/71
f 65/71/72 20/98/72 40/69/72
f 17/100/73 63/101/73 69/66/73
f 69/66/74 63/101/74 41/68/74
f 68/102/75 16/103/75 42/54/75
f 42/54/76 16/103/76 70/60/76
f 18/104/77 67/105/77 43/74/77
f 43/74/78 67/105/78 29/78/78
f 2/1/79 4/3/79 10/106/79
f 10/106/80 4/3/80 52/107/80
f 44/19/81 79/24/81 50/32/81
f 50/32/82 79/24/82 13/30/82
f 45/108/83 61/109/83 46/52/83
f 46/52/84 61/109/84 60/56/84
f 75/48/85 47/50/85 30/83/85
f 30/83/86 47/50/86 80/86/86
f 58/110/87 5/8/87 59/111/87
f 48/22/88 7/21/88 14/31/88
f 52/107/89 59/111/89 61/109/89
f 59/111/90 5/8/90 49/112/90
f 61/109/89 59/111/89 49/112/89
f 14/31/91 50/32/91 51/49/91
f 48/22/92 14/31/92 51/49/92
f 51/49/91 50/32/91 75/48/91
f 49/112/93 5/8/93 62/61/93
f 5/113/94 48/13/94 24/70/94
f 62/61/95 5/8/95 24/64/95
f 48/22/92 51/49/92 26/80/92
f 24/70/94 48/13/94 26/72/94
f 26/80/96 51/49/96 76/84/96
f 34/28/97 15/33/97 9/29/97
f 36/34/97 15/33/97 34/28/97
f 2/1/98 34/28/98 3/91/98
f 2/1/99 22/51/99 36/34/99
f 2/1/100 36/34/100 34/28/100
f 10/106/101 22/51/101 2/1/101
f 45/108/102 22/51/102 10/106/102
f 46/52/103 22/51/103 45/108/103
f 52/107/104 45/108/104 10/106/104
f 61/109/104 45/108/104 52/107/104
f 1/5/105 53/27/105 54/6/105
f 9/29/106 53/27/106 1/5/106
f 15/33/107 55/57/107 56/35/107
f 57/53/108 55/57/108 15/33/108
f 58/110/109 52/107/109 4/3/109
f 59/111/110 52/107/110 58/110/110
f 49/112/111 60/56/111 61/109/111
f 62/61/112 60/56/112 49/112/112
f 18/104/113 41/73/113 63/114/113
f 43/74/114 41/73/114 18/104/114
f 20/115/115 64/82/115 19/97/115
f 65/79/116 64/82/116 20/115/116
f 66/96/117 29/78/117 67/105/117
f 39/81/117 29/78/117 66/96/117
f 68/102/118 42/54/118 38/95/118
f 38/95/118 42/54/118 37/55/118
f 17/116/119 69/59/119 16/103/119
f 16/103/120 69/59/120 70/60/120
f 71/94/121 72/62/121 73/117/121
f 73/117/122 72/62/122 40/63/122
f 74/17/123 11/87/123 35/18/123
f 35/18/124 11/87/124 77/89/124
f 33/88/125 27/75/125 21/90/125
f 21/90/126 27/75/126 28/77/126
f 44/19/127 50/32/127 7/21/127
f 7/21/128 50/32/128 14/31/128
f 75/48/129 30/83/129 51/49/129
f 51/49/130 30/83/130 76/84/130
f 77/89/131 21/90/131 12/92/131
f 12/92/131 21/90/131 78/93/131
f 8/23/132 88/118/132 81/26/132
f 78/93/133 31/85/133 79/24/133
f 78/93/134 88/118/134 12/92/134
f 79/24/135 31/85/135 13/30/135
f 13/30/136 31/85/136 47/50/136
f 47/50/137 31/85/137 80/86/137
f 13/30/138 47/50/138 50/32/138
f 50/32/138 47/50/138 75/48/138
f 85/2/139 3/91/139 1/5/139
f 90/9/140 87/7/140 32/4/140
f 84/14/141 89/10/141 6/12/141
f 81/26/12 86/25/12 8/23/12
f 85/2/142 87/7/142 4/3/142
f 90/119/143 89/10/143 5/113/143
f 84/120/144 83/15/144 48/22/144
f 82/20/145 83/15/145 35/18/145
f 82/20/146 86/25/146 44/19/146
f 81/26/132 88/118/132 79/24/132
f 2/1/147 3/91/147 85/2/147
f 87/7/148 85/2/148 1/5/148
f 5/8/149 58/110/149 87/7/149
f 89/10/150 90/119/150 32/11/150
f 48/13/151 5/113/151 89/10/151
f 83/15/152 84/120/152 6/16/152
f 44/19/153 48/22/153 83/15/153
f 8/23/146 86/25/146 82/20/146
f 79/24/12 44/19/12 86/25/12
f 8/23/132 12/92/132 88/118/132
f 78/93/134 79/24/134 88/118/134
f 87/7/154 58/110/154 4/3/154
