# Blender v2.93.5 OBJ File: 'SuperGunAmmo.blend'
# www.blender.org
mtllib SuprGunAmmo_LOD0.mtl
o Cube_Cube.001
v -0.393106 0.290718 0.393308
v -0.300571 0.801854 0.167394
v -0.393106 0.363125 -0.391217
v -0.300571 0.801854 -0.166990
v 0.393106 0.373110 0.393308
v 0.393106 0.373110 -0.392903
v -0.393106 0.026997 0.000202
v -0.393106 0.399328 0.390778
v -0.162404 0.742767 0.000202
v 0.000000 0.026997 -0.392903
v -0.003046 0.771047 -0.389858
v 0.393106 0.026997 0.000202
v 0.393106 0.768812 0.000202
v 0.000000 0.026997 0.393308
v -0.003046 0.771047 0.390262
v 0.000000 0.664450 0.000202
v 0.000000 -0.039065 0.000202
v 0.000000 0.390915 0.527560
v 0.527358 0.390915 0.000202
v 0.000000 0.390915 -0.527156
v -0.527358 0.395647 0.000202
v -0.393108 0.183901 0.196756
v -0.393106 0.587572 0.279202
v -0.196595 0.183901 -0.392987
v 0.199647 0.548777 -0.399092
v 0.393190 0.183901 -0.196393
v 0.399294 0.548777 0.199849
v 0.196595 0.183901 0.393392
v -0.251926 0.792190 0.282451
v -0.393108 0.183901 -0.196352
v -0.393106 0.587572 -0.278798
v 0.196595 0.183901 -0.392987
v -0.251926 0.792190 -0.282046
v 0.393190 0.183901 0.196797
v 0.399294 0.548777 -0.199445
v -0.196595 0.183901 0.393392
v 0.199647 0.548777 0.399496
v 0.000000 0.765566 0.196755
v 0.000000 0.765566 -0.196351
v 0.196553 0.765566 0.000202
v 0.000000 -0.016888 0.196755
v 0.000000 -0.016888 -0.196351
v -0.196553 -0.016888 0.000202
v 0.196553 -0.016888 0.000202
v -0.210374 0.353289 0.420950
v 0.210569 0.361691 0.421340
v 0.000000 0.206317 0.433483
v 0.000000 0.581062 0.429958
v 0.421138 0.361691 0.210771
v 0.421138 0.361691 -0.210367
v 0.433281 0.206317 0.000202
v 0.429756 0.581062 0.000202
v 0.210569 0.361691 -0.420936
v -0.210374 0.353289 -0.420546
v 0.000000 0.206317 -0.433079
v 0.000000 0.581062 -0.429554
v -0.420289 0.353289 -0.209942
v -0.420289 0.353289 0.210346
v -0.430270 0.206317 0.000202
v -0.341094 0.600836 0.000202
v -0.377180 0.587984 0.170409
v -0.225012 0.588211 -0.335985
v 0.196553 0.096133 -0.196351
v -0.196553 0.096133 -0.196351
v -0.196553 0.096133 0.196755
v -0.192961 0.802125 -0.168936
v 0.196553 0.693989 -0.196351
v 0.196553 0.693989 0.196755
v -0.192961 0.802125 0.169340
v 0.196553 0.096133 0.196755
v -0.225012 0.588211 0.336389
v -0.377180 0.587984 -0.170005
vt 0.974588 0.529759
vt 0.974589 0.529662
vt 0.974588 0.529733
vt 0.974586 0.529944
vt 0.974586 0.529856
vt 0.974586 0.529839
vt 0.974589 0.530247
vt 0.974589 0.530132
vt 0.974588 0.530166
vt 0.970806 0.530023
vt 0.970806 0.529981
vt 0.970806 0.529999
vt 0.970805 0.530209
vt 0.970805 0.530100
vt 0.970805 0.530248
vt 0.970807 0.530123
vt 0.970806 0.530193
vt 0.970807 0.530222
vt 0.974582 0.529821
vt 0.974581 0.529917
vt 0.974582 0.529927
vt 0.845730 0.525116
vt 0.845731 0.525184
vt 0.845731 0.525117
vt 0.974582 0.530116
vt 0.974582 0.529981
vt 0.974581 0.530029
vt 0.845736 0.526035
vt 0.845737 0.525980
vt 0.845736 0.525913
vt 0.845733 0.525268
vt 0.845734 0.525283
vt 0.845733 0.525177
vt 0.845731 0.526030
vt 0.845731 0.525975
vt 0.845731 0.525907
vt 0.845738 0.525945
vt 0.845739 0.525902
vt 0.845737 0.525902
vt 0.845731 0.525850
vt 0.845732 0.525826
vt 0.845731 0.525748
vt 0.970809 0.529687
vt 0.970809 0.529562
vt 0.970809 0.529625
vt 0.845733 0.525887
vt 0.845733 0.526001
vt 0.845734 0.525978
vt 0.974590 0.529749
vt 0.974589 0.529791
vt 0.974589 0.529847
vt 0.845734 0.525887
vt 0.845735 0.525997
vt 0.845739 0.525352
vt 0.845738 0.525431
vt 0.845739 0.525455
vt 0.970810 0.530014
vt 0.970809 0.529961
vt 0.970809 0.530024
vt 0.974589 0.530024
vt 0.974589 0.529957
vt 0.974589 0.530014
vt 0.974588 0.529847
vt 0.974587 0.529791
vt 0.974587 0.529912
vt 0.970809 0.529912
vt 0.845738 0.525379
vt 0.845737 0.525321
vt 0.845737 0.525435
vt 0.845736 0.525228
vt 0.845737 0.525099
vt 0.845736 0.525147
vt 0.974586 0.530601
vt 0.974585 0.530531
vt 0.974585 0.530643
vt 0.974588 0.529627
vt 0.974588 0.529687
vt 0.974581 0.530317
vt 0.974582 0.530275
vt 0.974581 0.530214
vt 0.974581 0.530426
vt 0.974581 0.530376
vt 0.974583 0.530250
vt 0.974583 0.530189
vt 0.974582 0.530197
vt 0.845732 0.525723
vt 0.970809 0.530366
vt 0.970810 0.530325
vt 0.970809 0.530263
vt 0.974588 0.530478
vt 0.974588 0.530428
vt 0.974588 0.530366
vt 0.974589 0.530301
vt 0.974590 0.530241
vt 0.970810 0.530247
vt 0.845738 0.525877
vt 0.845739 0.525775
vt 0.845738 0.525798
vt 0.974584 0.529627
vt 0.974585 0.529636
vt 0.974585 0.529562
vt 0.974583 0.529708
vt 0.974584 0.529703
vt 0.974586 0.529714
vt 0.974586 0.529696
vt 0.974586 0.529641
vt 0.845732 0.525907
vt 0.845732 0.526036
vt 0.845730 0.525225
vt 0.845730 0.525200
vt 0.974589 0.530550
vt 0.974589 0.530486
vt 0.974589 0.530586
vt 0.974583 0.530080
vt 0.970809 0.530131
vt 0.970808 0.530062
vt 0.970808 0.530181
vt 0.974586 0.529825
vt 0.974581 0.529562
vt 0.974582 0.529643
vt 0.974582 0.529572
vt 0.974583 0.529817
vt 0.974583 0.529927
vt 0.970804 0.529698
vt 0.970803 0.529821
vt 0.970804 0.529817
vt 0.845730 0.525294
vt 0.845731 0.525295
vt 0.845735 0.525596
vt 0.845735 0.525533
vt 0.845734 0.525621
vt 0.970808 0.530018
vt 0.970808 0.530126
vt 0.970807 0.529992
vt 0.970807 0.530034
vt 0.970806 0.530270
vt 0.970807 0.530347
vt 0.974586 0.530275
vt 0.974585 0.530347
vt 0.974586 0.530406
vt 0.970808 0.530275
vt 0.974583 0.529827
vt 0.974584 0.529794
vt 0.970805 0.529968
vt 0.970805 0.529901
vt 0.970805 0.529827
vt 0.970806 0.530109
vt 0.845734 0.525583
vt 0.974589 0.530031
vt 0.974588 0.530078
vt 0.974590 0.530599
vt 0.974589 0.530486
vt 0.974589 0.530599
vt 0.974586 0.529747
vt 0.845735 0.525187
vt 0.845734 0.525176
vt 0.970806 0.529905
vt 0.970807 0.529839
vt 0.970806 0.529809
vt 0.845739 0.525824
vt 0.845732 0.525851
vt 0.845733 0.525772
vt 0.845737 0.525207
vt 0.845736 0.525265
vt 0.845738 0.525232
vt 0.845739 0.525715
vt 0.974586 0.529973
vt 0.845731 0.526016
vt 0.845732 0.526016
vt 0.845732 0.525907
vt 0.970807 0.530413
vt 0.970807 0.530417
vt 0.970808 0.530471
vt 0.974581 0.529820
vt 0.970803 0.530116
vt 0.970804 0.530080
vt 0.970804 0.529981
vt 0.970805 0.529794
vt 0.974584 0.530270
vt 0.974584 0.530342
vt 0.970810 0.529627
vt 0.970811 0.529749
vt 0.970811 0.529704
vt 0.970810 0.529791
vt 0.845739 0.525321
vt 0.845738 0.525265
vt 0.974588 0.529961
vt 0.974590 0.529981
vt 0.845737 0.525161
vt 0.845737 0.525791
vt 0.845736 0.525787
vt 0.845737 0.525952
vt 0.974588 0.530325
vt 0.845730 0.525619
vt 0.845731 0.525590
vt 0.845731 0.525502
vt 0.974587 0.530131
vt 0.974587 0.530031
vt 0.974587 0.530062
vt 0.974583 0.529640
vt 0.974581 0.529642
vt 0.974583 0.529698
vt 0.974582 0.529710
vt 0.970807 0.530059
vt 0.974585 0.530222
vt 0.974584 0.529901
vt 0.970805 0.529973
vt 0.845738 0.525967
vt 0.845737 0.526068
vt 0.845737 0.525668
vt 0.845738 0.525640
vt 0.845737 0.525552
vt 0.970810 0.530166
vt 0.845735 0.525312
vt 0.970807 0.529944
vt 0.974589 0.530429
vt 0.974590 0.530471
vt 0.974590 0.530351
vt 0.845737 0.525775
vt 0.970804 0.530377
vt 0.970805 0.530419
vt 0.970807 0.530542
vn -0.9334 0.3324 0.1354
vn -0.3160 0.2033 0.9267
vn 0.3774 -0.8457 0.3774
vn -0.0041 0.9963 0.0854
vn 0.6573 0.6174 0.4322
vn 0.3238 0.8890 -0.3238
vn -0.5889 -0.7381 0.3293
vn -0.4461 -0.7758 -0.4461
vn 0.1900 -0.8511 -0.4894
vn 0.3604 -0.4235 0.8311
vn 0.1692 0.1240 0.9777
vn 0.8311 -0.4235 -0.3605
vn 0.9777 0.1240 -0.1692
vn -0.3473 -0.4258 -0.8355
vn -0.3724 0.1841 -0.9096
vn -0.8369 -0.4291 0.3399
vn -0.9282 0.3301 -0.1719
vn -0.8456 0.2367 0.4785
vn -0.9886 0.0767 0.1294
vn -0.9334 0.3324 -0.1354
vn -0.9666 -0.2003 0.1599
vn -0.9823 -0.1648 0.0896
vn -0.9734 -0.1686 -0.1551
vn -0.9666 -0.2003 -0.1599
vn -0.8369 -0.4291 -0.3399
vn -0.4700 0.4031 -0.7852
vn -0.1324 0.3284 -0.9352
vn -0.3160 0.2033 -0.9267
vn -0.1715 -0.2154 -0.9614
vn -0.1651 -0.1714 -0.9713
vn 0.1598 -0.1655 -0.9732
vn 0.1715 -0.2154 -0.9614
vn 0.3605 -0.4235 -0.8311
vn 0.9614 -0.2154 -0.1715
vn 0.9732 -0.1655 -0.1598
vn 0.9732 -0.1655 0.1598
vn 0.9614 -0.2154 0.1715
vn 0.8311 -0.4235 0.3605
vn 0.1715 -0.2154 0.9614
vn 0.1598 -0.1655 0.9732
vn -0.0913 -0.1671 0.9817
vn -0.1715 -0.2154 0.9614
vn -0.3473 -0.4258 0.8355
vn 0.1114 -0.9875 -0.1114
vn 0.4894 -0.8511 -0.1900
vn 0.3774 -0.8457 -0.3774
vn -0.3295 -0.7379 -0.5890
vn -0.5608 -0.6094 -0.5605
vn -0.5889 -0.7381 -0.3293
vn -0.4311 -0.7928 0.4308
vn -0.3295 -0.7379 0.5890
vn -0.4461 -0.7758 0.4461
vn 0.3941 0.8173 0.4204
vn 0.0961 0.9950 0.0267
vn -0.0041 0.9963 -0.0854
vn 0.4293 0.6135 -0.6628
vn 0.5647 0.6019 -0.5647
vn 0.6573 0.6174 -0.4322
vn 0.5647 0.6019 0.5647
vn 0.4293 0.6135 0.6628
vn 0.3238 0.8890 0.3238
vn 0.0961 0.9950 -0.0267
vn 0.3941 0.8173 -0.4204
vn 0.4894 -0.8511 0.1900
vn 0.1114 -0.9875 0.1114
vn 0.1900 -0.8511 0.4894
vn -0.0711 0.3339 0.9399
vn -0.4700 0.4031 0.7852
vn -0.3724 0.1841 0.9096
vn 0.9777 0.1240 0.1692
vn 0.1692 0.1240 -0.9777
vn -0.9869 0.0722 -0.1441
vn -0.8456 0.2367 -0.4785
vn -0.9282 0.3301 0.1719
vn 0.1431 0.1230 -0.9820
vn 0.9820 0.1230 0.1431
vn -0.7678 0.5239 0.3686
vn 0.5700 -0.5918 0.5700
vn 0.3421 0.9394 -0.0212
vn -0.4160 0.8086 0.4160
vn 0.0036 0.9438 0.3306
vn -0.4894 -0.8511 0.1900
vn -0.1114 -0.9875 -0.1114
vn 0.3293 -0.7381 -0.5889
vn 0.1798 0.2040 0.9623
vn 0.9658 0.1885 -0.1779
vn -0.3766 0.1901 -0.9067
vn -0.4879 0.6142 -0.6202
vn -0.7363 0.6684 -0.1056
vn -0.9775 0.1553 -0.1425
vn -0.9718 -0.1691 0.1644
vn -0.9890 0.0034 0.1481
vn -0.9718 -0.1691 -0.1644
vn -0.3587 0.2963 -0.8852
vn -0.2925 0.4282 -0.8550
vn -0.7678 0.5239 -0.3686
vn -0.1780 -0.1721 -0.9689
vn 0.1788 -0.1665 -0.9697
vn 0.7918 0.4064 -0.4558
vn 0.9820 0.1230 -0.1431
vn 0.9697 -0.1665 -0.1788
vn 0.9697 -0.1665 0.1788
vn 0.4558 0.4064 0.7918
vn 0.1431 0.1230 0.9820
vn 0.1788 -0.1665 0.9697
vn -0.1572 0.0230 0.9873
vn -0.1780 -0.1721 0.9689
vn 0.4461 -0.7758 -0.4461
vn 0.5889 -0.7381 -0.3293
vn 0.5700 -0.5918 -0.5700
vn -0.1900 -0.8511 -0.4894
vn -0.3776 -0.8456 -0.3773
vn -0.4894 -0.8511 -0.1900
vn -0.3776 -0.8456 0.3773
vn -0.1900 -0.8511 0.4894
vn -0.1114 -0.9875 0.1114
vn 0.2176 0.9326 0.2880
vn 0.1602 0.9725 -0.1690
vn -0.0155 0.9395 -0.3421
vn 0.4994 0.7079 -0.4994
vn 0.3421 0.9394 0.0212
vn 0.4994 0.7079 0.4994
vn -0.0155 0.9395 0.3421
vn -0.4160 0.8086 -0.4160
vn 0.1602 0.9725 0.1690
vn 0.2176 0.9326 -0.2880
vn 0.0036 0.9438 -0.3306
vn 0.5889 -0.7381 0.3293
vn 0.4461 -0.7758 0.4461
vn 0.3293 -0.7381 0.5889
vn -0.2826 0.4891 0.8252
vn -0.3587 0.2963 0.8852
vn -0.3766 0.1901 0.9067
vn 0.7918 0.4064 0.4558
vn 0.9658 0.1885 0.1779
vn 0.4558 0.4064 -0.7918
vn 0.1798 0.2040 -0.9623
vn -0.9775 0.1553 0.1425
vn -0.7363 0.6684 0.1056
vn -0.4879 0.6142 0.6202
usemtl None
s off
f 72/1/1 4/2/1 31/3/1
f 29/4/2 23/5/2 71/6/2
f 34/7/3 28/8/3 70/9/3
f 69/10/4 2/11/4 29/12/4
f 68/13/5 15/14/5 37/15/5
f 39/16/6 40/17/6 67/18/6
f 65/19/7 14/20/7 36/21/7
f 42/22/8 43/23/8 64/24/8
f 63/25/9 12/26/9 44/27/9
f 46/28/10 18/29/10 47/30/10
f 37/31/11 48/32/11 46/33/11
f 50/34/12 19/35/12 51/36/12
f 35/37/13 52/38/13 50/39/13
f 54/40/14 20/41/14 55/42/14
f 62/43/15 11/44/15 56/45/15
f 58/46/16 21/47/16 59/48/16
f 2/49/17 60/50/17 61/51/17
f 61/52/18 21/47/18 58/53/18
f 23/54/19 58/55/19 8/56/19
f 2/49/20 61/51/20 23/5/20
f 22/57/21 59/58/21 7/59/21
f 1/60/22 58/61/22 22/62/22
f 57/63/23 3/64/23 30/65/23
f 59/58/24 30/66/24 7/59/24
f 21/67/25 57/68/25 59/69/25
f 54/70/26 56/71/26 20/72/26
f 3/73/27 62/74/27 54/75/27
f 31/3/28 33/76/28 62/77/28
f 24/78/29 55/79/29 10/80/29
f 3/81/30 54/82/30 24/78/30
f 53/83/31 6/84/31 32/85/31
f 55/79/32 32/85/32 10/80/32
f 20/41/33 53/86/33 55/42/33
f 26/87/34 51/88/34 12/89/34
f 6/90/35 50/91/35 26/92/35
f 49/93/36 5/94/36 34/7/36
f 51/88/37 34/95/37 12/89/37
f 19/96/38 49/97/38 51/98/38
f 28/99/39 47/100/39 14/101/39
f 5/102/40 46/103/40 28/99/40
f 45/104/41 1/105/41 36/106/41
f 47/100/42 36/106/42 14/101/42
f 18/29/43 45/107/43 47/108/43
f 42/22/44 44/109/44 17/110/44
f 10/111/45 63/112/45 42/113/45
f 32/85/46 26/114/46 63/25/46
f 64/115/47 7/116/47 30/117/47
f 24/118/48 30/65/48 3/64/48
f 10/119/49 64/120/49 24/121/49
f 22/122/50 36/21/50 1/123/50
f 7/124/51 65/125/51 22/126/51
f 43/23/52 41/127/52 65/128/52
f 39/129/53 9/130/53 16/131/53
f 33/132/54 39/16/54 11/133/54
f 4/134/55 66/135/55 33/132/55
f 67/18/56 13/136/56 35/137/56
f 25/138/57 35/139/57 6/140/57
f 11/133/58 67/18/58 25/141/58
f 27/142/59 37/143/59 5/102/59
f 13/144/60 68/145/60 27/146/60
f 40/17/61 38/147/61 68/13/61
f 38/147/62 29/12/62 15/14/62
f 9/130/63 38/148/63 16/131/63
f 70/9/64 14/149/64 41/150/64
f 44/109/65 41/127/65 17/110/65
f 12/151/66 70/152/66 44/153/66
f 71/6/67 8/154/67 45/104/67
f 48/32/68 45/155/68 18/156/68
f 15/157/69 71/158/69 48/159/69
f 52/38/70 27/160/70 49/97/70
f 56/161/71 25/162/71 53/86/71
f 57/68/72 31/163/72 3/164/72
f 21/67/73 72/165/73 57/68/73
f 60/50/74 4/2/74 72/1/74
f 53/83/75 25/138/75 6/84/75
f 49/97/76 27/160/76 5/166/76
f 29/4/77 2/167/77 23/5/77
f 34/7/78 5/94/78 28/8/78
f 68/13/79 38/147/79 15/14/79
f 39/168/80 16/169/80 40/170/80
f 66/171/81 4/172/81 9/173/81
f 65/19/82 41/174/82 14/20/82
f 42/22/83 17/110/83 43/23/83
f 63/175/84 26/176/84 12/177/84
f 37/178/85 15/157/85 48/159/85
f 35/139/86 13/179/86 52/180/86
f 62/43/87 33/181/87 11/44/87
f 2/182/88 9/183/88 60/184/88
f 61/185/89 60/186/89 21/67/89
f 23/54/90 61/185/90 58/55/90
f 22/62/91 58/61/91 59/187/91
f 1/60/92 8/188/92 58/61/92
f 59/187/93 57/63/93 30/65/93
f 54/70/94 62/189/94 56/71/94
f 3/64/95 31/3/95 62/77/95
f 31/3/96 4/2/96 33/76/96
f 24/78/97 54/82/97 55/79/97
f 55/79/98 53/83/98 32/85/98
f 50/39/99 52/190/99 19/191/99
f 6/192/100 35/37/100 50/39/100
f 26/92/101 50/91/101 51/193/101
f 51/193/102 49/93/102 34/7/102
f 46/33/103 48/32/103 18/156/103
f 5/102/104 37/143/104 46/103/104
f 28/99/105 46/103/105 47/100/105
f 45/104/106 8/154/106 1/105/106
f 47/100/107 45/104/107 36/106/107
f 42/194/108 63/195/108 44/196/108
f 10/80/109 32/85/109 63/25/109
f 32/85/110 6/84/110 26/114/110
f 64/197/111 43/198/111 7/199/111
f 24/121/112 64/120/112 30/200/112
f 10/119/113 42/201/113 64/120/113
f 22/122/114 65/19/114 36/21/114
f 7/202/115 43/203/115 65/19/115
f 43/23/116 17/110/116 41/127/116
f 39/16/117 66/135/117 9/204/117
f 33/132/118 66/135/118 39/16/118
f 67/18/119 40/17/119 13/136/119
f 25/138/120 67/205/120 35/139/120
f 11/133/121 39/16/121 67/18/121
f 27/142/122 68/206/122 37/143/122
f 13/144/123 40/207/123 68/145/123
f 40/208/124 16/169/124 38/209/124
f 38/147/125 69/10/125 29/12/125
f 9/204/126 69/10/126 38/147/126
f 9/204/127 2/11/127 69/10/127
f 70/9/128 28/8/128 14/149/128
f 44/210/129 70/211/129 41/212/129
f 12/89/130 34/95/130 70/213/130
f 71/6/131 23/5/131 8/154/131
f 48/32/132 71/214/132 45/155/132
f 15/157/133 29/215/133 71/158/133
f 19/96/134 52/38/134 49/97/134
f 52/216/135 13/217/135 27/218/135
f 20/41/136 56/219/136 53/86/136
f 56/220/137 11/221/137 25/141/137
f 57/68/138 72/165/138 31/163/138
f 21/67/139 60/186/139 72/165/139
f 60/222/140 9/173/140 4/172/140
