# MagicaVoxel @ Ephtracy

# group
o 

# material
mtllib HeavyDoubleShooterBot_LOD2-3.mtl
usemtl palette

# normals
vn 1 0 0
vn -1 0 0
vn 0 0 -1
vn 0 0 1
vn 0 -1 0
vn 0 1 0

# texcoords
vt 0.974609 0.5
vt 0.978516 0.5

# verts
v 1 1.5 -0.5
v 1 1.5 0.5
v 1 2 -0.5
v 1 2 -0.1
v 1 2 0.1
v 1 2 0.5
v 1 2.9 -0.3
v 1 2.9 -0.1
v 1 2.9 0.1
v 1 2.9 0.3
v 1 3.1 -0.1
v 1 3.1 0.1
v 1 3.2 -0.3
v 1 3.2 -0.2
v 1 3.2 0.2
v 1 3.2 0.3
v 1 3.4 -0.2
v 1 3.4 -0.1
v 1 3.4 0.1
v 1 3.4 0.2
v 1 3.5 -0.5
v 1 3.5 0.5
v -0.2 2.2 -0.5
v -0.2 2.2 -0.1
v -0.2 2.2 0.1
v -0.2 2.2 0.5
v -0.2 2.4 -0.1
v -0.2 2.4 0.1
v -0.2 2.6 -0.5
v -0.2 2.6 -0.1
v -0.2 2.6 0.1
v -0.2 2.6 0.5
v -0.4 1.9 -0.5
v -0.4 1.9 -0.1
v -0.4 1.9 0.1
v -0.4 1.9 0.5
v -0.4 2.2 -0.5
v -0.4 2.2 -0.1
v -0.4 2.2 0.1
v -0.4 2.2 0.5
v -0.4 2.4 -0.1
v -0.4 2.4 0.1
v -0.5 1.5 -0.5
v -0.5 1.5 -0.1
v -0.5 1.5 0.1
v -0.5 1.5 0.5
v -0.5 1.9 -0.5
v -0.5 1.9 -0.1
v -0.5 1.9 0.1
v -0.5 1.9 0.5
v -0.6 1.5 -0.1
v -0.6 1.5 0.1
v -0.6 1.9 -0.1
v -0.6 1.9 0.1
v -0.8 3.2 -0.5
v -0.8 3.2 0.5
v -0.8 3.5 -0.5
v -0.8 3.5 0.5
v 0.8 3.2 -0.5
v 0.8 3.2 0.5
v 0.8 3.5 -0.5
v 0.8 3.5 0.5
v 0.6 1.5 -0.1
v 0.6 1.5 0.1
v 0.6 1.9 -0.1
v 0.6 1.9 0.1
v 0.5 1.5 -0.5
v 0.5 1.5 -0.1
v 0.5 1.5 0.1
v 0.5 1.5 0.5
v 0.5 1.9 -0.5
v 0.5 1.9 -0.1
v 0.5 1.9 0.1
v 0.5 1.9 0.5
v 0.4 1.9 -0.5
v 0.4 1.9 -0.1
v 0.4 1.9 0.1
v 0.4 1.9 0.5
v 0.4 2.2 -0.5
v 0.4 2.2 -0.1
v 0.4 2.2 0.1
v 0.4 2.2 0.5
v 0.4 2.4 -0.1
v 0.4 2.4 0.1
v 0.2 2.2 -0.5
v 0.2 2.2 -0.1
v 0.2 2.2 0.1
v 0.2 2.2 0.5
v 0.2 2.4 -0.1
v 0.2 2.4 0.1
v 0.2 2.6 -0.5
v 0.2 2.6 -0.1
v 0.2 2.6 0.1
v 0.2 2.6 0.5
v -1 1.5 -0.5
v -1 1.5 0.5
v -1 2 -0.5
v -1 2 -0.1
v -1 2 0.1
v -1 2 0.5
v -1 2.9 -0.3
v -1 2.9 -0.1
v -1 2.9 0.1
v -1 2.9 0.3
v -1 3.1 -0.1
v -1 3.1 0.1
v -1 3.2 -0.3
v -1 3.2 -0.2
v -1 3.2 0.2
v -1 3.2 0.3
v -1 3.4 -0.2
v -1 3.4 -0.1
v -1 3.4 0.1
v -1 3.4 0.2
v -1 3.5 -0.5
v -1 3.5 0.5
v 1 1.5 -0.5
v 1 2 -0.5
v 1 3.5 -0.5
v 0.9 2 -0.5
v 0.9 2.1 -0.5
v 0.8 1.5 -0.5
v 0.8 2 -0.5
v 0.8 2.1 -0.5
v 0.8 2.7 -0.5
v 0.8 3.2 -0.5
v 0.8 3.5 -0.5
v 0.7 2 -0.5
v 0.7 2.5 -0.5
v 0.7 2.7 -0.5
v 0.7 2.8 -0.5
v 0.6 2.5 -0.5
v 0.6 2.7 -0.5
v 0.6 2.8 -0.5
v 0.6 2.9 -0.5
v 0.5 1.5 -0.5
v 0.5 1.9 -0.5
v 0.4 1.9 -0.5
v 0.4 2.2 -0.5
v 0.4 2.7 -0.5
v 0.4 2.8 -0.5
v 0.3 2.9 -0.5
v 0.3 3 -0.5
v 0.2 2.2 -0.5
v 0.2 2.6 -0.5
v 0.1 2.6 -0.5
v 0.1 2.8 -0.5
v -0.1 2.6 -0.5
v -0.1 2.8 -0.5
v -0.2 2.2 -0.5
v -0.2 2.6 -0.5
v -0.3 2.9 -0.5
v -0.3 3 -0.5
v -0.4 1.9 -0.5
v -0.4 2.2 -0.5
v -0.4 2.7 -0.5
v -0.4 2.8 -0.5
v -0.5 1.5 -0.5
v -0.5 1.9 -0.5
v -0.6 2.5 -0.5
v -0.6 2.7 -0.5
v -0.6 2.8 -0.5
v -0.6 2.9 -0.5
v -0.7 2 -0.5
v -0.7 2.5 -0.5
v -0.7 2.7 -0.5
v -0.7 2.8 -0.5
v -0.8 1.5 -0.5
v -0.8 2 -0.5
v -0.8 2.1 -0.5
v -0.8 2.7 -0.5
v -0.8 3.2 -0.5
v -0.8 3.5 -0.5
v -0.9 2 -0.5
v -0.9 2.1 -0.5
v -1 1.5 -0.5
v -1 2 -0.5
v -1 3.5 -0.5
v 0.6 1.5 0.1
v 0.6 1.9 0.1
v 0.5 1.5 0.1
v 0.5 1.9 0.1
v 0.4 2.2 0.1
v 0.4 2.4 0.1
v 0.2 2.2 0.1
v 0.2 2.4 0.1
v -0.2 2.2 0.1
v -0.2 2.4 0.1
v -0.4 2.2 0.1
v -0.4 2.4 0.1
v -0.5 1.5 0.1
v -0.5 1.9 0.1
v -0.6 1.5 0.1
v -0.6 1.9 0.1
v 0.6 1.5 -0.1
v 0.6 1.9 -0.1
v 0.5 1.5 -0.1
v 0.5 1.9 -0.1
v 0.4 2.2 -0.1
v 0.4 2.4 -0.1
v 0.2 2.2 -0.1
v 0.2 2.4 -0.1
v -0.2 2.2 -0.1
v -0.2 2.4 -0.1
v -0.4 2.2 -0.1
v -0.4 2.4 -0.1
v -0.5 1.5 -0.1
v -0.5 1.9 -0.1
v -0.6 1.5 -0.1
v -0.6 1.9 -0.1
v 1 1.5 0.5
v 1 2 0.5
v 1 3.5 0.5
v 0.9 2 0.5
v 0.9 2.1 0.5
v 0.8 1.5 0.5
v 0.8 2 0.5
v 0.8 2.1 0.5
v 0.8 2.6 0.5
v 0.8 3.2 0.5
v 0.8 3.5 0.5
v 0.7 2 0.5
v 0.7 2.5 0.5
v 0.6 2.8 0.5
v 0.6 3.2 0.5
v 0.5 1.5 0.5
v 0.5 1.9 0.5
v 0.5 2.6 0.5
v 0.5 2.8 0.5
v 0.5 2.9 0.5
v 0.5 3.2 0.5
v 0.4 1.9 0.5
v 0.4 2.2 0.5
v 0.4 2.5 0.5
v 0.4 2.8 0.5
v 0.3 2.9 0.5
v 0.3 3.1 0.5
v 0.2 2.2 0.5
v 0.2 2.6 0.5
v 0.1 2.6 0.5
v 0.1 2.8 0.5
v -0.1 2.6 0.5
v -0.1 2.8 0.5
v -0.2 2.2 0.5
v -0.2 2.6 0.5
v -0.3 2.9 0.5
v -0.3 3.1 0.5
v -0.4 1.9 0.5
v -0.4 2.2 0.5
v -0.4 2.5 0.5
v -0.4 2.8 0.5
v -0.5 1.5 0.5
v -0.5 1.9 0.5
v -0.5 2.6 0.5
v -0.5 2.8 0.5
v -0.5 2.9 0.5
v -0.5 3.2 0.5
v -0.6 2.8 0.5
v -0.6 3.2 0.5
v -0.7 2 0.5
v -0.7 2.5 0.5
v -0.8 1.5 0.5
v -0.8 2 0.5
v -0.8 2.1 0.5
v -0.8 2.6 0.5
v -0.8 3.2 0.5
v -0.8 3.5 0.5
v -0.9 2 0.5
v -0.9 2.1 0.5
v -1 1.5 0.5
v -1 2 0.5
v -1 3.5 0.5
v 1 1.5 -0.5
v 0.8 1.5 -0.5
v 0.5 1.5 -0.5
v -0.5 1.5 -0.5
v -0.8 1.5 -0.5
v -1 1.5 -0.5
v 0.8 1.5 -0.3
v 0.6 1.5 -0.3
v -0.6 1.5 -0.3
v -0.8 1.5 -0.3
v 0.6 1.5 -0.1
v 0.5 1.5 -0.1
v -0.5 1.5 -0.1
v -0.6 1.5 -0.1
v 0.6 1.5 0.1
v 0.5 1.5 0.1
v -0.5 1.5 0.1
v -0.6 1.5 0.1
v 0.8 1.5 0.3
v 0.6 1.5 0.3
v -0.6 1.5 0.3
v -0.8 1.5 0.3
v 1 1.5 0.5
v 0.8 1.5 0.5
v 0.5 1.5 0.5
v -0.5 1.5 0.5
v -0.8 1.5 0.5
v -1 1.5 0.5
v 0.5 1.9 -0.5
v 0.4 1.9 -0.5
v -0.4 1.9 -0.5
v -0.5 1.9 -0.5
v 0.6 1.9 -0.1
v 0.5 1.9 -0.1
v 0.4 1.9 -0.1
v -0.4 1.9 -0.1
v -0.5 1.9 -0.1
v -0.6 1.9 -0.1
v 0.6 1.9 0.1
v 0.5 1.9 0.1
v 0.4 1.9 0.1
v -0.4 1.9 0.1
v -0.5 1.9 0.1
v -0.6 1.9 0.1
v 0.5 1.9 0.5
v 0.4 1.9 0.5
v -0.4 1.9 0.5
v -0.5 1.9 0.5
v 0.4 2.2 -0.5
v 0.2 2.2 -0.5
v -0.2 2.2 -0.5
v -0.4 2.2 -0.5
v 0.4 2.2 -0.1
v 0.2 2.2 -0.1
v -0.2 2.2 -0.1
v -0.4 2.2 -0.1
v 0.4 2.2 0.1
v 0.2 2.2 0.1
v -0.2 2.2 0.1
v -0.4 2.2 0.1
v 0.4 2.2 0.5
v 0.2 2.2 0.5
v -0.2 2.2 0.5
v -0.4 2.2 0.5
v 0.4 2.4 -0.1
v 0.2 2.4 -0.1
v -0.2 2.4 -0.1
v -0.4 2.4 -0.1
v 0.4 2.4 0.1
v 0.2 2.4 0.1
v -0.2 2.4 0.1
v -0.4 2.4 0.1
v 0.2 2.6 -0.5
v 0.1 2.6 -0.5
v -0.1 2.6 -0.5
v -0.2 2.6 -0.5
v 0.2 2.6 -0.1
v 0.1 2.6 -0.1
v -0.1 2.6 -0.1
v -0.2 2.6 -0.1
v 0.2 2.6 0.1
v 0.1 2.6 0.1
v -0.1 2.6 0.1
v -0.2 2.6 0.1
v 0.2 2.6 0.5
v 0.1 2.6 0.5
v -0.1 2.6 0.5
v -0.2 2.6 0.5
v 0.8 3.2 -0.5
v -0.8 3.2 -0.5
v 0.3 3.2 -0.2
v -0.3 3.2 -0.2
v 0.6 3.2 0
v 0.3 3.2 0
v -0.3 3.2 0
v -0.6 3.2 0
v 0.5 3.2 0.1
v 0.3 3.2 0.1
v -0.3 3.2 0.1
v -0.5 3.2 0.1
v 0.3 3.2 0.2
v -0.3 3.2 0.2
v 0.8 3.2 0.5
v 0.6 3.2 0.5
v 0.5 3.2 0.5
v -0.5 3.2 0.5
v -0.6 3.2 0.5
v -0.8 3.2 0.5
v 1 3.5 -0.5
v 0.8 3.5 -0.5
v -0.8 3.5 -0.5
v -1 3.5 -0.5
v 1 3.5 0.5
v 0.8 3.5 0.5
v -0.8 3.5 0.5
v -1 3.5 0.5

# faces
f 3/1/1 2/1/1 1/1/1
f 4/1/1 2/1/1 3/1/1
f 5/1/1 2/1/1 4/1/1
f 6/1/1 2/1/1 5/1/1
f 7/2/1 4/2/1 3/2/1
f 8/1/1 5/1/1 4/1/1
f 8/2/1 4/2/1 7/2/1
f 9/2/1 6/2/1 5/2/1
f 9/1/1 5/1/1 8/1/1
f 10/2/1 6/2/1 9/2/1
f 11/1/1 8/1/1 7/1/1
f 11/1/1 9/1/1 8/1/1
f 11/1/1 10/1/1 9/1/1
f 12/1/1 10/1/1 11/1/1
f 13/2/1 7/2/1 3/2/1
f 13/1/1 11/1/1 7/1/1
f 14/1/1 11/1/1 13/1/1
f 15/1/1 10/1/1 12/1/1
f 16/2/1 6/2/1 10/2/1
f 16/1/1 10/1/1 15/1/1
f 17/1/1 11/1/1 14/1/1
f 17/2/1 14/2/1 13/2/1
f 18/2/1 12/2/1 11/2/1
f 18/1/1 11/1/1 17/1/1
f 19/1/1 15/1/1 12/1/1
f 19/2/1 12/2/1 18/2/1
f 20/2/1 16/2/1 15/2/1
f 20/1/1 15/1/1 19/1/1
f 21/2/1 18/2/1 17/2/1
f 21/2/1 17/2/1 13/2/1
f 21/2/1 20/2/1 19/2/1
f 21/2/1 19/2/1 18/2/1
f 21/2/1 13/2/1 3/2/1
f 22/2/1 6/2/1 16/2/1
f 22/2/1 20/2/1 21/2/1
f 22/2/1 16/2/1 20/2/1
f 27/2/1 24/2/1 23/2/1
f 28/2/1 26/2/1 25/2/1
f 29/2/1 27/2/1 23/2/1
f 30/1/1 28/1/1 27/1/1
f 30/2/1 27/2/1 29/2/1
f 31/2/1 26/2/1 28/2/1
f 31/1/1 28/1/1 30/1/1
f 32/2/1 26/2/1 31/2/1
f 37/2/1 34/2/1 33/2/1
f 38/1/1 35/1/1 34/1/1
f 38/2/1 34/2/1 37/2/1
f 39/2/1 36/2/1 35/2/1
f 39/1/1 35/1/1 38/1/1
f 40/2/1 36/2/1 39/2/1
f 41/1/1 39/1/1 38/1/1
f 42/1/1 39/1/1 41/1/1
f 47/2/1 44/2/1 43/2/1
f 48/2/1 44/2/1 47/2/1
f 49/2/1 46/2/1 45/2/1
f 50/2/1 46/2/1 49/2/1
f 53/1/1 52/1/1 51/1/1
f 54/1/1 52/1/1 53/1/1
f 57/2/1 56/2/1 55/2/1
f 58/2/1 56/2/1 57/2/1
f 59/2/2 60/2/2 61/2/2
f 61/2/2 60/2/2 62/2/2
f 63/1/2 64/1/2 65/1/2
f 65/1/2 64/1/2 66/1/2
f 67/2/2 68/2/2 71/2/2
f 71/2/2 68/2/2 72/2/2
f 69/2/2 70/2/2 73/2/2
f 73/2/2 70/2/2 74/2/2
f 75/2/2 76/2/2 79/2/2
f 76/1/2 77/1/2 80/1/2
f 79/2/2 76/2/2 80/2/2
f 77/2/2 78/2/2 81/2/2
f 80/1/2 77/1/2 81/1/2
f 81/2/2 78/2/2 82/2/2
f 80/1/2 81/1/2 83/1/2
f 83/1/2 81/1/2 84/1/2
f 85/2/2 86/2/2 89/2/2
f 87/2/2 88/2/2 90/2/2
f 85/2/2 89/2/2 91/2/2
f 89/1/2 90/1/2 92/1/2
f 91/2/2 89/2/2 92/2/2
f 90/2/2 88/2/2 93/2/2
f 92/1/2 90/1/2 93/1/2
f 93/2/2 88/2/2 94/2/2
f 95/1/2 96/1/2 97/1/2
f 97/1/2 96/1/2 98/1/2
f 98/1/2 96/1/2 99/1/2
f 99/1/2 96/1/2 100/1/2
f 97/2/2 98/2/2 101/2/2
f 98/1/2 99/1/2 102/1/2
f 101/2/2 98/2/2 102/2/2
f 99/2/2 100/2/2 103/2/2
f 102/1/2 99/1/2 103/1/2
f 103/2/2 100/2/2 104/2/2
f 101/1/2 102/1/2 105/1/2
f 102/1/2 103/1/2 105/1/2
f 103/1/2 104/1/2 105/1/2
f 105/1/2 104/1/2 106/1/2
f 97/2/2 101/2/2 107/2/2
f 101/1/2 105/1/2 107/1/2
f 107/1/2 105/1/2 108/1/2
f 106/1/2 104/1/2 109/1/2
f 104/2/2 100/2/2 110/2/2
f 109/1/2 104/1/2 110/1/2
f 108/1/2 105/1/2 111/1/2
f 107/2/2 108/2/2 111/2/2
f 105/2/2 106/2/2 112/2/2
f 111/1/2 105/1/2 112/1/2
f 106/1/2 109/1/2 113/1/2
f 112/2/2 106/2/2 113/2/2
f 109/2/2 110/2/2 114/2/2
f 113/1/2 109/1/2 114/1/2
f 111/2/2 112/2/2 115/2/2
f 107/2/2 111/2/2 115/2/2
f 113/2/2 114/2/2 115/2/2
f 112/2/2 113/2/2 115/2/2
f 97/2/2 107/2/2 115/2/2
f 110/2/2 100/2/2 116/2/2
f 115/2/2 114/2/2 116/2/2
f 114/2/2 110/2/2 116/2/2
f 120/1/3 118/1/3 117/1/3
f 120/2/3 119/2/3 118/2/3
f 121/2/3 119/2/3 120/2/3
f 122/1/3 120/1/3 117/1/3
f 122/1/3 121/1/3 120/1/3
f 123/1/3 121/1/3 122/1/3
f 124/2/3 119/2/3 121/2/3
f 124/1/3 121/1/3 123/1/3
f 125/2/3 119/2/3 124/2/3
f 126/2/3 119/2/3 125/2/3
f 127/2/3 119/2/3 126/2/3
f 128/2/3 123/2/3 122/2/3
f 128/1/3 124/1/3 123/1/3
f 128/1/3 125/1/3 124/1/3
f 129/1/3 125/1/3 128/1/3
f 130/2/3 126/2/3 125/2/3
f 130/1/3 125/1/3 129/1/3
f 131/2/3 126/2/3 130/2/3
f 132/2/3 129/2/3 128/2/3
f 132/1/3 130/1/3 129/1/3
f 132/1/3 131/1/3 130/1/3
f 133/1/3 131/1/3 132/1/3
f 134/2/3 126/2/3 131/2/3
f 134/1/3 131/1/3 133/1/3
f 135/2/3 126/2/3 134/2/3
f 136/2/3 133/2/3 132/2/3
f 136/2/3 128/2/3 122/2/3
f 136/2/3 132/2/3 128/2/3
f 137/2/3 133/2/3 136/2/3
f 138/2/3 133/2/3 137/2/3
f 139/2/3 133/2/3 138/2/3
f 140/1/3 135/1/3 134/1/3
f 140/2/3 133/2/3 139/2/3
f 140/1/3 134/1/3 133/1/3
f 141/1/3 135/1/3 140/1/3
f 142/2/3 126/2/3 135/2/3
f 142/1/3 135/1/3 141/1/3
f 143/2/3 126/2/3 142/2/3
f 144/2/3 141/2/3 140/2/3
f 144/2/3 140/2/3 139/2/3
f 145/2/3 141/2/3 144/2/3
f 146/2/3 141/2/3 145/2/3
f 147/1/3 143/1/3 142/1/3
f 147/2/3 141/2/3 146/2/3
f 147/1/3 142/1/3 141/1/3
f 148/1/3 147/1/3 146/1/3
f 149/1/3 143/1/3 147/1/3
f 149/1/3 147/1/3 148/1/3
f 151/2/3 149/2/3 148/2/3
f 152/1/3 143/1/3 149/1/3
f 153/2/3 126/2/3 143/2/3
f 153/1/3 143/1/3 152/1/3
f 155/2/3 151/2/3 150/2/3
f 156/2/3 149/2/3 151/2/3
f 156/2/3 151/2/3 155/2/3
f 157/1/3 152/1/3 149/1/3
f 157/2/3 149/2/3 156/2/3
f 159/2/3 156/2/3 155/2/3
f 159/2/3 155/2/3 154/2/3
f 160/2/3 156/2/3 159/2/3
f 160/2/3 159/2/3 158/2/3
f 161/1/3 157/1/3 156/1/3
f 161/2/3 156/2/3 160/2/3
f 162/1/3 152/1/3 157/1/3
f 162/1/3 157/1/3 161/1/3
f 163/2/3 153/2/3 152/2/3
f 163/1/3 152/1/3 162/1/3
f 164/2/3 160/2/3 158/2/3
f 165/1/3 161/1/3 160/1/3
f 165/2/3 160/2/3 164/2/3
f 165/1/3 162/1/3 161/1/3
f 166/1/3 162/1/3 165/1/3
f 167/2/3 163/2/3 162/2/3
f 167/1/3 162/1/3 166/1/3
f 168/2/3 164/2/3 158/2/3
f 169/1/3 166/1/3 165/1/3
f 169/2/3 164/2/3 168/2/3
f 169/1/3 165/1/3 164/1/3
f 170/1/3 166/1/3 169/1/3
f 171/2/3 167/2/3 166/2/3
f 171/1/3 166/1/3 170/1/3
f 172/2/3 163/2/3 167/2/3
f 172/2/3 167/2/3 171/2/3
f 172/2/3 126/2/3 153/2/3
f 172/2/3 153/2/3 163/2/3
f 174/1/3 169/1/3 168/1/3
f 174/1/3 170/1/3 169/1/3
f 175/2/3 171/2/3 170/2/3
f 175/1/3 170/1/3 174/1/3
f 175/2/3 173/2/3 172/2/3
f 175/2/3 172/2/3 171/2/3
f 176/1/3 174/1/3 168/1/3
f 177/2/3 175/2/3 174/2/3
f 177/1/3 174/1/3 176/1/3
f 178/2/3 173/2/3 175/2/3
f 178/2/3 175/2/3 177/2/3
f 181/2/3 180/2/3 179/2/3
f 182/2/3 180/2/3 181/2/3
f 185/2/3 184/2/3 183/2/3
f 186/2/3 184/2/3 185/2/3
f 189/2/3 188/2/3 187/2/3
f 190/2/3 188/2/3 189/2/3
f 193/2/3 192/2/3 191/2/3
f 194/2/3 192/2/3 193/2/3
f 195/2/4 196/2/4 197/2/4
f 197/2/4 196/2/4 198/2/4
f 199/2/4 200/2/4 201/2/4
f 201/2/4 200/2/4 202/2/4
f 203/2/4 204/2/4 205/2/4
f 205/2/4 204/2/4 206/2/4
f 207/2/4 208/2/4 209/2/4
f 209/2/4 208/2/4 210/2/4
f 211/1/4 212/1/4 214/1/4
f 212/2/4 213/2/4 214/2/4
f 214/2/4 213/2/4 215/2/4
f 211/1/4 214/1/4 216/1/4
f 214/1/4 215/1/4 216/1/4
f 216/1/4 215/1/4 217/1/4
f 215/2/4 213/2/4 218/2/4
f 217/1/4 215/1/4 218/1/4
f 218/2/4 213/2/4 219/2/4
f 219/2/4 213/2/4 220/2/4
f 220/2/4 213/2/4 221/2/4
f 216/2/4 217/2/4 222/2/4
f 217/1/4 218/1/4 222/1/4
f 218/1/4 219/1/4 222/1/4
f 222/1/4 219/1/4 223/1/4
f 219/2/4 220/2/4 224/2/4
f 224/2/4 220/2/4 225/2/4
f 216/2/4 222/2/4 226/2/4
f 222/2/4 223/2/4 226/2/4
f 226/2/4 223/2/4 227/2/4
f 223/1/4 219/1/4 228/1/4
f 219/2/4 224/2/4 228/2/4
f 224/1/4 225/1/4 229/1/4
f 228/2/4 224/2/4 229/2/4
f 229/1/4 225/1/4 230/1/4
f 230/1/4 225/1/4 231/1/4
f 227/2/4 223/2/4 232/2/4
f 232/2/4 223/2/4 233/2/4
f 223/1/4 228/1/4 234/1/4
f 233/2/4 223/2/4 234/2/4
f 228/1/4 229/1/4 234/1/4
f 229/1/4 230/1/4 234/1/4
f 234/1/4 230/1/4 235/1/4
f 235/1/4 230/1/4 236/1/4
f 230/2/4 231/2/4 236/2/4
f 236/2/4 231/2/4 237/2/4
f 234/2/4 235/2/4 238/2/4
f 233/2/4 234/2/4 238/2/4
f 238/2/4 235/2/4 239/2/4
f 239/2/4 235/2/4 240/2/4
f 236/1/4 237/1/4 241/1/4
f 240/2/4 235/2/4 241/2/4
f 235/1/4 236/1/4 241/1/4
f 240/1/4 241/1/4 242/1/4
f 241/1/4 237/1/4 243/1/4
f 242/1/4 241/1/4 243/1/4
f 242/2/4 243/2/4 245/2/4
f 243/1/4 237/1/4 246/1/4
f 237/2/4 231/2/4 247/2/4
f 246/1/4 237/1/4 247/1/4
f 244/2/4 245/2/4 249/2/4
f 249/2/4 245/2/4 250/2/4
f 243/1/4 246/1/4 251/1/4
f 250/2/4 245/2/4 251/2/4
f 245/2/4 243/2/4 251/2/4
f 249/2/4 250/2/4 253/2/4
f 248/2/4 249/2/4 253/2/4
f 250/1/4 251/1/4 254/1/4
f 251/1/4 246/1/4 255/1/4
f 254/1/4 251/1/4 255/1/4
f 246/2/4 247/2/4 256/2/4
f 255/1/4 246/1/4 256/1/4
f 247/2/4 231/2/4 257/2/4
f 256/2/4 247/2/4 257/2/4
f 255/1/4 256/1/4 258/1/4
f 254/2/4 255/2/4 258/2/4
f 256/1/4 257/1/4 258/1/4
f 258/1/4 257/1/4 259/1/4
f 252/2/4 253/2/4 260/2/4
f 253/2/4 250/2/4 260/2/4
f 250/1/4 254/1/4 261/1/4
f 260/2/4 250/2/4 261/2/4
f 252/2/4 260/2/4 262/2/4
f 260/1/4 261/1/4 263/1/4
f 262/2/4 260/2/4 263/2/4
f 263/1/4 261/1/4 264/1/4
f 261/1/4 254/1/4 265/1/4
f 264/1/4 261/1/4 265/1/4
f 258/2/4 259/2/4 265/2/4
f 254/2/4 258/2/4 265/2/4
f 265/2/4 259/2/4 266/2/4
f 263/1/4 264/1/4 268/1/4
f 262/1/4 263/1/4 268/1/4
f 265/2/4 266/2/4 269/2/4
f 268/1/4 264/1/4 269/1/4
f 264/2/4 265/2/4 269/2/4
f 266/2/4 267/2/4 269/2/4
f 262/1/4 268/1/4 270/1/4
f 268/2/4 269/2/4 271/2/4
f 270/1/4 268/1/4 271/1/4
f 269/2/4 267/2/4 272/2/4
f 271/2/4 269/2/4 272/2/4
f 279/1/5 274/1/5 273/1/5
f 279/2/5 275/2/5 274/2/5
f 280/2/5 275/2/5 279/2/5
f 281/2/5 277/2/5 276/2/5
f 282/1/5 278/1/5 277/1/5
f 282/2/5 277/2/5 281/2/5
f 283/2/5 275/2/5 280/2/5
f 283/1/5 280/1/5 279/1/5
f 284/2/5 275/2/5 283/2/5
f 285/2/5 281/2/5 276/2/5
f 286/1/5 282/1/5 281/1/5
f 286/2/5 281/2/5 285/2/5
f 287/1/5 283/1/5 279/1/5
f 290/1/5 282/1/5 286/1/5
f 291/1/5 279/1/5 273/1/5
f 291/1/5 287/1/5 279/1/5
f 292/2/5 288/2/5 287/2/5
f 292/1/5 287/1/5 291/1/5
f 293/2/5 290/2/5 289/2/5
f 293/1/5 282/1/5 290/1/5
f 294/1/5 278/1/5 282/1/5
f 294/1/5 282/1/5 293/1/5
f 295/1/5 291/1/5 273/1/5
f 296/2/5 292/2/5 291/2/5
f 296/1/5 291/1/5 295/1/5
f 297/2/5 288/2/5 292/2/5
f 297/2/5 292/2/5 296/2/5
f 298/2/5 293/2/5 289/2/5
f 298/2/5 294/2/5 293/2/5
f 299/1/5 278/1/5 294/1/5
f 299/2/5 294/2/5 298/2/5
f 300/1/5 278/1/5 299/1/5
f 306/2/5 302/2/5 301/2/5
f 307/2/5 302/2/5 306/2/5
f 308/2/5 304/2/5 303/2/5
f 309/2/5 304/2/5 308/2/5
f 311/1/5 307/1/5 306/1/5
f 311/1/5 306/1/5 305/1/5
f 312/1/5 307/1/5 311/1/5
f 313/1/5 307/1/5 312/1/5
f 314/1/5 310/1/5 309/1/5
f 314/1/5 309/1/5 308/1/5
f 315/1/5 310/1/5 314/1/5
f 316/1/5 310/1/5 315/1/5
f 317/2/5 313/2/5 312/2/5
f 318/2/5 313/2/5 317/2/5
f 319/2/5 315/2/5 314/2/5
f 320/2/5 315/2/5 319/2/5
f 325/2/5 322/2/5 321/2/5
f 326/2/5 322/2/5 325/2/5
f 327/2/5 324/2/5 323/2/5
f 328/2/5 324/2/5 327/2/5
f 333/2/5 330/2/5 329/2/5
f 334/2/5 330/2/5 333/2/5
f 335/2/5 332/2/5 331/2/5
f 336/2/5 332/2/5 335/2/5
f 341/1/5 338/1/5 337/1/5
f 342/1/5 338/1/5 341/1/5
f 343/1/5 340/1/5 339/1/5
f 344/1/5 340/1/5 343/1/5
f 349/2/5 346/2/5 345/2/5
f 350/1/5 347/1/5 346/1/5
f 350/2/5 346/2/5 349/2/5
f 351/2/5 348/2/5 347/2/5
f 351/1/5 347/1/5 350/1/5
f 352/2/5 348/2/5 351/2/5
f 353/1/5 350/1/5 349/1/5
f 353/1/5 351/1/5 350/1/5
f 353/1/5 352/1/5 351/1/5
f 354/1/5 352/1/5 353/1/5
f 355/1/5 352/1/5 354/1/5
f 356/1/5 352/1/5 355/1/5
f 357/2/5 354/2/5 353/2/5
f 358/1/5 355/1/5 354/1/5
f 358/2/5 354/2/5 357/2/5
f 359/2/5 356/2/5 355/2/5
f 359/1/5 355/1/5 358/1/5
f 360/2/5 356/2/5 359/2/5
f 361/2/6 362/2/6 363/2/6
f 363/2/6 362/2/6 364/2/6
f 361/2/6 363/2/6 365/2/6
f 363/1/6 364/1/6 366/1/6
f 365/2/6 363/2/6 366/2/6
f 364/2/6 362/2/6 367/2/6
f 366/1/6 364/1/6 367/1/6
f 367/2/6 362/2/6 368/2/6
f 365/1/6 366/1/6 369/1/6
f 366/1/6 367/1/6 369/1/6
f 367/1/6 368/1/6 369/1/6
f 369/1/6 368/1/6 370/1/6
f 370/1/6 368/1/6 371/1/6
f 371/1/6 368/1/6 372/1/6
f 369/2/6 370/2/6 373/2/6
f 370/1/6 371/1/6 373/1/6
f 371/2/6 372/2/6 374/2/6
f 373/1/6 371/1/6 374/1/6
f 361/2/6 365/2/6 375/2/6
f 365/1/6 369/1/6 376/1/6
f 375/2/6 365/2/6 376/2/6
f 369/2/6 373/2/6 377/2/6
f 376/1/6 369/1/6 377/1/6
f 373/2/6 374/2/6 377/2/6
f 374/2/6 372/2/6 378/2/6
f 377/2/6 374/2/6 378/2/6
f 372/1/6 368/1/6 378/1/6
f 368/2/6 362/2/6 379/2/6
f 378/1/6 368/1/6 379/1/6
f 379/2/6 362/2/6 380/2/6
f 381/2/6 382/2/6 385/2/6
f 385/2/6 382/2/6 386/2/6
f 383/2/6 384/2/6 387/2/6
f 387/2/6 384/2/6 388/2/6
