# MagicaVoxel @ Ephtracy

# group
o 

# material
mtllib Hero-7.mtl
usemtl palette

# normals
vn -1 0 0
vn 1 0 0
vn 0 0 1
vn 0 0 -1
vn 0 -1 0
vn 0 1 0

# texcoords
vt 0.943359 0.5
vt 0.970703 0.5
vt 0.974609 0.5

# verts
v -1.5 1.6 0.3
v -1.5 1.6 0.2
v -1.5 1.7 0.4
v -1.5 1.7 0.3
v -1.5 1.7 0.2
v -1.5 1.7 0.1
v -1.5 2.4 0.4
v -1.5 2.4 0.3
v -1.5 2.4 0.2
v -1.5 2.4 0.1
v -1.4 1.3 0.4
v -1.4 1.3 0.1
v -1.4 1.6 0.3
v -1.4 1.6 0.2
v -1.4 1.7 0.5
v -1.4 1.7 0.4
v -1.4 1.7 0.3
v -1.4 1.7 0.2
v -1.4 1.7 0.1
v -1.4 1.7 0
v -1.4 2.4 0.5
v -1.4 2.4 0.4
v -1.4 2.4 0.1
v -1.4 2.4 0
v -1.3 1.4 0.4
v -1.3 1.4 0.1
v -1.3 1.5 0.4
v -1.3 1.5 0.1
v -1.1 1.3 0.4
v -1.1 1.3 0.1
v -1.1 1.4 0.4
v -1.1 1.4 0.1
v -1.1 1.5 0.4
v -1.1 1.5 0.1
v -1.1 1.7 0.5
v -1.1 1.7 0.4
v -1.1 1.7 0.1
v -1.1 1.7 0
v -1.1 2.4 0.5
v -1.1 2.4 0.4
v -1.1 2.4 0.1
v -1.1 2.4 0
v -1 1.7 0.4
v -1 1.7 0.1
v -1 2.4 0.4
v -1 2.4 0.1
v -1.4 1.7 0.5
v -1.4 2.4 0.5
v -1.1 1.7 0.5
v -1.1 2.4 0.5
v -1.5 1.7 0.4
v -1.5 2.4 0.4
v -1.4 1.3 0.4
v -1.4 1.7 0.4
v -1.4 2.4 0.4
v -1.3 1.4 0.4
v -1.3 1.5 0.4
v -1.1 1.3 0.4
v -1.1 1.4 0.4
v -1.1 1.5 0.4
v -1.1 1.7 0.4
v -1.1 2.4 0.4
v -1 1.7 0.4
v -1 2.4 0.4
v -1.5 1.6 0.3
v -1.5 1.7 0.3
v -1.4 1.6 0.3
v -1.4 1.7 0.3
v -1.5 1.6 0.2
v -1.5 1.7 0.2
v -1.4 1.6 0.2
v -1.4 1.7 0.2
v -1.5 1.7 0.1
v -1.5 2.4 0.1
v -1.4 1.3 0.1
v -1.4 1.7 0.1
v -1.4 2.4 0.1
v -1.3 1.4 0.1
v -1.3 1.5 0.1
v -1.1 1.3 0.1
v -1.1 1.4 0.1
v -1.1 1.5 0.1
v -1.1 1.7 0.1
v -1.1 2.4 0.1
v -1 1.7 0.1
v -1 2.4 0.1
v -1.4 1.7 0
v -1.4 2.4 0
v -1.1 1.7 0
v -1.1 2.4 0
v -1.4 1.3 0.4
v -1.1 1.3 0.4
v -1.4 1.3 0.1
v -1.1 1.3 0.1
v -1.3 1.5 0.4
v -1.1 1.5 0.4
v -1.3 1.5 0.1
v -1.1 1.5 0.1
v -1.5 1.6 0.3
v -1.4 1.6 0.3
v -1.5 1.6 0.2
v -1.4 1.6 0.2
v -1.4 1.7 0.5
v -1.1 1.7 0.5
v -1.5 1.7 0.4
v -1.4 1.7 0.4
v -1.1 1.7 0.4
v -1 1.7 0.4
v -1.5 1.7 0.3
v -1.4 1.7 0.3
v -1.5 1.7 0.2
v -1.4 1.7 0.2
v -1.5 1.7 0.1
v -1.4 1.7 0.1
v -1.1 1.7 0.1
v -1 1.7 0.1
v -1.4 1.7 0
v -1.1 1.7 0
v -1.3 1.4 0.4
v -1.1 1.4 0.4
v -1.3 1.4 0.1
v -1.1 1.4 0.1
v -1.4 2.4 0.5
v -1.1 2.4 0.5
v -1.5 2.4 0.4
v -1.4 2.4 0.4
v -1.1 2.4 0.4
v -1 2.4 0.4
v -1.5 2.4 0.3
v -1.4 2.4 0.3
v -1.5 2.4 0.2
v -1.4 2.4 0.2
v -1.5 2.4 0.1
v -1.4 2.4 0.1
v -1.1 2.4 0.1
v -1 2.4 0.1
v -1.4 2.4 0
v -1.1 2.4 0

# faces
f 4/3/1 2/3/1 1/3/1
f 5/3/1 2/3/1 4/3/1
f 7/2/1 4/2/1 3/2/1
f 8/3/1 5/3/1 4/3/1
f 8/2/1 4/2/1 7/2/1
f 9/2/1 6/2/1 5/2/1
f 9/3/1 5/3/1 8/3/1
f 10/2/1 6/2/1 9/2/1
f 13/1/1 12/1/1 11/1/1
f 14/1/1 12/1/1 13/1/1
f 16/1/1 13/1/1 11/1/1
f 17/1/1 13/1/1 16/1/1
f 18/1/1 12/1/1 14/1/1
f 19/1/1 12/1/1 18/1/1
f 21/2/1 16/2/1 15/2/1
f 22/2/1 16/2/1 21/2/1
f 23/2/1 20/2/1 19/2/1
f 24/2/1 20/2/1 23/2/1
f 25/1/2 26/1/2 27/1/2
f 27/1/2 26/1/2 28/1/2
f 29/1/2 30/1/2 31/1/2
f 31/1/2 30/1/2 32/1/2
f 33/1/2 34/1/2 36/1/2
f 36/1/2 34/1/2 37/1/2
f 35/2/2 36/2/2 39/2/2
f 39/2/2 36/2/2 40/2/2
f 37/2/2 38/2/2 41/2/2
f 41/2/2 38/2/2 42/2/2
f 43/2/2 44/2/2 45/2/2
f 45/2/2 44/2/2 46/2/2
f 49/2/3 48/2/3 47/2/3
f 50/2/3 48/2/3 49/2/3
f 54/2/3 52/2/3 51/2/3
f 55/2/3 52/2/3 54/2/3
f 56/1/3 54/1/3 53/1/3
f 57/1/3 54/1/3 56/1/3
f 58/1/3 56/1/3 53/1/3
f 59/1/3 56/1/3 58/1/3
f 60/1/3 54/1/3 57/1/3
f 61/1/3 54/1/3 60/1/3
f 63/2/3 62/2/3 61/2/3
f 64/2/3 62/2/3 63/2/3
f 67/3/3 66/3/3 65/3/3
f 68/3/3 66/3/3 67/3/3
f 69/3/4 70/3/4 71/3/4
f 71/3/4 70/3/4 72/3/4
f 73/2/4 74/2/4 76/2/4
f 76/2/4 74/2/4 77/2/4
f 75/1/4 76/1/4 78/1/4
f 78/1/4 76/1/4 79/1/4
f 75/1/4 78/1/4 80/1/4
f 80/1/4 78/1/4 81/1/4
f 79/1/4 76/1/4 82/1/4
f 82/1/4 76/1/4 83/1/4
f 83/2/4 84/2/4 85/2/4
f 85/2/4 84/2/4 86/2/4
f 87/2/4 88/2/4 89/2/4
f 89/2/4 88/2/4 90/2/4
f 93/1/5 92/1/5 91/1/5
f 94/1/5 92/1/5 93/1/5
f 97/1/5 96/1/5 95/1/5
f 98/1/5 96/1/5 97/1/5
f 101/3/5 100/3/5 99/3/5
f 102/3/5 100/3/5 101/3/5
f 106/2/5 104/2/5 103/2/5
f 107/2/5 104/2/5 106/2/5
f 109/2/5 106/2/5 105/2/5
f 110/2/5 106/2/5 109/2/5
f 113/2/5 112/2/5 111/2/5
f 114/2/5 112/2/5 113/2/5
f 115/2/5 108/2/5 107/2/5
f 116/2/5 108/2/5 115/2/5
f 117/2/5 115/2/5 114/2/5
f 118/2/5 115/2/5 117/2/5
f 119/1/6 120/1/6 121/1/6
f 121/1/6 120/1/6 122/1/6
f 123/2/6 124/2/6 126/2/6
f 126/2/6 124/2/6 127/2/6
f 125/2/6 126/2/6 129/2/6
f 127/2/6 128/2/6 129/2/6
f 126/2/6 127/2/6 129/2/6
f 129/2/6 128/2/6 130/2/6
f 129/3/6 130/3/6 131/3/6
f 130/2/6 128/2/6 132/2/6
f 131/3/6 130/3/6 132/3/6
f 131/2/6 132/2/6 133/2/6
f 132/2/6 128/2/6 134/2/6
f 133/2/6 132/2/6 134/2/6
f 134/2/6 128/2/6 135/2/6
f 135/2/6 128/2/6 136/2/6
f 134/2/6 135/2/6 137/2/6
f 137/2/6 135/2/6 138/2/6
