# Blender v2.93.5 OBJ File: 'fwf.blend'
# www.blender.org
mtllib TeleporterBot_LOD0-0.mtl
o TeleporterBot_LOD0-0
v 1.053573 0.862519 0.000000
v 1.093387 0.981272 -0.200000
v 1.122484 1.096564 -0.200000
v 1.052551 1.187988 -0.500000
v 1.072076 1.148987 0.000000
v 1.059897 1.259081 0.000000
v 1.064665 1.324394 -0.300000
v 1.047340 1.433053 -0.300000
v 1.029101 1.464994 -0.500000
v 0.935470 0.862519 0.100000
v 0.940898 0.820369 0.000000
v 0.942507 1.233426 -0.500000
v 0.927931 1.552932 -0.300000
v 0.723875 1.162597 -0.500000
v 0.723864 1.020998 0.100000
v 0.712264 1.596496 -0.400000
v 0.621596 0.981272 -0.200000
v 0.621945 1.093911 -0.100000
v 0.623047 1.096564 -0.200000
v 0.618609 1.159572 -0.400000
v 0.618532 1.142892 0.000000
v 0.620798 1.196082 -0.100000
v 0.621614 1.211106 -0.200000
v 0.617072 1.325350 -0.300000
v 0.614642 1.330553 -0.400000
v 0.612947 1.435474 -0.300000
v 0.607738 1.465126 -0.500000
v 0.602398 1.583593 -0.600000
v 0.942802 0.964436 0.100000
v 0.718699 0.862519 0.100000
v 0.722051 1.121249 0.100000
v 0.613913 0.979375 0.100000
v 0.614749 1.110648 0.100000
v 1.067481 0.974476 0.000000
v 0.955638 0.957651 0.000000
v 0.952357 1.220574 0.000000
v 0.730973 1.106150 0.000000
v 0.616032 1.255858 0.000000
v 1.069201 1.322337 -0.200000
v 0.942458 1.429687 -0.200000
v 0.617989 1.322337 -0.200000
v 0.613968 1.418546 -0.200000
v 0.939430 1.450440 -0.300000
v 0.720731 1.450588 -0.300000
v 1.041013 1.436168 -0.400000
v 0.923493 1.596496 -0.400000
v 0.611224 1.438603 -0.400000
v 1.089147 1.008087 -0.300000
v 1.067638 0.885524 -0.300000
v 0.734251 0.987521 -0.300000
v 0.961613 1.045137 -0.400000
v 0.946861 1.087089 -0.500000
v 1.049389 1.238351 -0.500000
v 0.724375 1.087089 -0.500000
v 0.614285 1.187988 -0.500000
v 0.722268 1.233426 -0.500000
v 0.613482 1.238351 -0.500000
v 1.035053 1.233426 -0.600000
v 0.907868 1.623708 -0.600000
v 0.715880 1.231347 -0.600000
v 0.609513 1.233426 -0.600000
v 0.721469 0.820369 0.000000
v 0.951182 0.843790 -0.300000
v 0.614538 0.862519 0.000000
v 0.726379 0.843790 -0.300000
v 0.617681 0.885524 -0.300000
v 0.950786 0.908710 -0.400000
v 0.726200 0.908710 -0.400000
v 1.051074 0.979381 0.100000
v 0.722414 0.964436 0.100000
v 0.728345 0.957651 0.000000
v 0.617650 0.974476 0.000000
v 0.971181 0.987521 -0.300000
v 0.621124 1.008087 -0.300000
v 0.730802 1.045137 -0.400000
v 0.945810 1.162597 -0.500000
v 0.932528 1.146004 -0.600000
v 0.717156 1.146004 -0.600000
v 0.930134 1.231347 -0.600000
v 0.945789 1.021003 0.100000
v 1.054435 1.112134 0.100000
v 0.962050 1.106600 0.000000
v 0.942068 1.121249 0.100000
v 0.726908 1.220366 0.000000
v 0.953688 1.352655 -0.200000
v 0.727498 1.352693 -0.200000
v 1.051291 1.417895 -0.200000
v 0.722244 1.429743 -0.200000
v 0.932971 1.473215 -0.400000
v 0.717390 1.473324 -0.400000
v 0.714692 1.552952 -0.300000
v 1.011680 1.584473 -0.600000
v 0.703563 1.623750 -0.600000
vt 0.970703 0.500000
vt 0.970703 0.500000
vt 0.970703 0.500000
vt 0.970703 0.500000
vt 0.970703 0.500000
vt 0.978516 0.500000
vt 0.978516 0.500000
vt 0.978516 0.500000
vt 0.970703 0.500000
vt 0.970703 0.500000
vt 0.978516 0.500000
vt 0.978516 0.500000
vt 0.978516 0.500000
vt 0.978516 0.500000
vt 0.978516 0.500000
vt 0.978516 0.500000
vt 0.978516 0.500000
vt 0.978516 0.500000
vt 0.970703 0.500000
vt 0.970703 0.500000
vt 0.970703 0.500000
vt 0.978516 0.500000
vt 0.970703 0.500000
vt 0.978516 0.500000
vt 0.970703 0.500000
vt 0.970703 0.500000
vt 0.970703 0.500000
vt 0.978516 0.500000
vt 0.970703 0.500000
vt 0.970703 0.500000
vt 0.978516 0.500000
vt 0.978516 0.500000
vt 0.978516 0.500000
vt 0.978516 0.500000
vt 0.978516 0.500000
vt 0.978516 0.500000
vt 0.978516 0.500000
vt 0.978516 0.500000
vt 0.978516 0.500000
vt 0.978516 0.500000
vt 0.978516 0.500000
vt 0.978516 0.500000
vt 0.978516 0.500000
vt 0.978516 0.500000
vt 0.978516 0.500000
vt 0.978516 0.500000
vt 0.970703 0.500000
vt 0.970703 0.500000
vt 0.970703 0.500000
vt 0.970703 0.500000
vt 0.978516 0.500000
vt 0.978516 0.500000
vt 0.978516 0.500000
vt 0.978516 0.500000
vt 0.978516 0.500000
vt 0.978516 0.500000
vt 0.978516 0.500000
vt 0.978516 0.500000
vt 0.978516 0.500000
vt 0.978516 0.500000
vt 0.978516 0.500000
vt 0.978516 0.500000
vt 0.978516 0.500000
vt 0.978516 0.500000
vt 0.978516 0.500000
vt 0.978516 0.500000
vt 0.970703 0.500000
vt 0.970703 0.500000
vt 0.970703 0.500000
vt 0.970703 0.500000
vt 0.970703 0.500000
vt 0.970703 0.500000
vt 0.970703 0.500000
vt 0.970703 0.500000
vt 0.970703 0.500000
vt 0.978516 0.500000
vt 0.978516 0.500000
vt 0.978516 0.500000
vt 0.978516 0.500000
vt 0.970703 0.500000
vt 0.970703 0.500000
vt 0.978516 0.500000
vt 0.970703 0.500000
vt 0.978516 0.500000
vt 0.978516 0.500000
vt 0.974609 0.500000
vt 0.974609 0.500000
vt 0.974609 0.500000
vt 0.978516 0.500000
vt 0.974609 0.500000
vt 0.974609 0.500000
vt 0.978516 0.500000
vt 0.978516 0.500000
vt 0.978516 0.500000
vt 0.978516 0.500000
vt 0.978516 0.500000
vt 0.974609 0.500000
vt 0.978516 0.500000
vt 0.974609 0.500000
vt 0.978516 0.500000
vt 0.974609 0.500000
vt 0.970703 0.500000
vt 0.970703 0.500000
vt 0.970703 0.500000
vt 0.978516 0.500000
vt 0.978516 0.500000
vt 0.970703 0.500000
vt 0.978516 0.500000
vt 0.970703 0.500000
vt 0.970703 0.500000
vt 0.970703 0.500000
vt 0.978516 0.500000
vt 0.970703 0.500000
vt 0.970703 0.500000
vt 0.974609 0.500000
vt 0.974609 0.500000
vt 0.974609 0.500000
vt 0.974609 0.500000
vt 0.970703 0.500000
vt 0.970703 0.500000
vt 0.970703 0.500000
vt 0.970703 0.500000
vt 0.970703 0.500000
vt 0.970703 0.500000
vt 0.978516 0.500000
vt 0.978516 0.500000
vt 0.978516 0.500000
vt 0.978516 0.500000
vt 0.970703 0.500000
vt 0.970703 0.500000
vt 0.970703 0.500000
vt 0.970703 0.500000
vt 0.970703 0.500000
vt 0.970703 0.500000
vt 0.970703 0.500000
vt 0.970703 0.500000
vt 0.974609 0.500000
vt 0.974609 0.500000
vt 0.974609 0.500000
vt 0.974609 0.500000
vt 0.970703 0.500000
vt 0.970703 0.500000
vt 0.970703 0.500000
vt 0.970703 0.500000
vt 0.978516 0.500000
vt 0.978516 0.500000
vt 0.970703 0.500000
vt 0.970703 0.500000
vt 0.970703 0.500000
vt 0.970703 0.500000
vt 0.974609 0.500000
vt 0.974609 0.500000
vt 0.970703 0.500000
vt 0.970703 0.500000
vt 0.978516 0.500000
vt 0.978516 0.500000
vt 0.978516 0.500000
vt 0.978516 0.500000
vt 0.978516 0.500000
vt 0.978516 0.500000
vn 0.9917 -0.1232 0.0370
vn 0.9261 -0.3615 0.1077
vn 0.9811 -0.1722 -0.0878
vn 0.9722 -0.1636 0.1675
vn 0.9649 -0.0813 -0.2497
vn 0.9641 -0.2433 -0.1061
vn 0.9630 -0.2430 0.1165
vn 0.9747 -0.0247 0.2224
vn 0.6099 0.7865 0.0975
vn 0.8008 -0.5939 -0.0776
vn 0.9975 0.0626 -0.0341
vn 0.9936 0.1099 -0.0254
vn 0.9826 -0.1855 -0.0130
vn 0.9966 -0.0686 -0.0466
vn 0.9821 0.1841 -0.0408
vn 0.9776 0.1559 -0.1417
vn 0.9874 0.1574 -0.0151
vn 0.9955 0.0728 -0.0607
vn 0.9854 0.0882 -0.1456
vn 0.9917 0.0888 -0.0925
vn 0.9934 0.0661 -0.0940
vn 0.9931 0.0604 -0.1009
vn 0.9939 -0.0715 0.0841
vn 0.9854 -0.1058 0.1337
vn 0.9862 -0.1372 -0.0930
vn 0.9871 -0.0783 -0.1396
vn 0.9892 0.0461 -0.1390
vn 0.9920 0.0278 -0.1233
vn 0.9810 0.0364 0.1907
vn 0.9795 0.0833 0.1835
vn 0.9930 0.1114 -0.0388
vn 0.9970 0.0766 -0.0109
vn -0.9984 0.0364 -0.0430
vn -0.9968 0.0499 -0.0625
vn -0.9978 0.0547 0.0373
vn -0.9980 0.0337 0.0538
vn -0.9972 -0.0226 0.0708
vn -0.9978 -0.0149 0.0641
vn -0.9961 -0.0180 -0.0861
vn -0.9959 -0.0354 -0.0835
vn -0.9981 -0.0589 0.0200
vn -0.9991 -0.0416 0.0062
vn -0.9996 0.0278 -0.0083
vn -0.9981 0.0593 -0.0177
vn -0.9995 0.0281 0.0122
vn -0.9993 0.0045 -0.0376
vn -0.9996 0.0200 -0.0190
vn -0.9996 -0.0084 0.0266
vn -0.9999 0.0126 -0.0107
vn -0.9999 0.0126 0.0081
vn -0.8109 0.5528 0.1922
vn -0.9993 0.0064 -0.0365
vn -0.9993 0.0046 -0.0363
vn -0.9999 -0.0112 -0.0113
vn -0.9995 -0.0112 -0.0286
vn -0.9994 -0.0341 0.0114
vn -0.9984 0.0568 0.0004
vn -0.9991 -0.0159 0.0387
vn -0.9992 -0.0221 -0.0344
vn -0.9985 -0.0527 -0.0161
vn -0.9992 -0.0326 0.0234
vn -0.9993 -0.0326 -0.0206
vn -0.9999 -0.0145 0.0087
vn -0.9992 -0.0232 0.0330
vn -0.9995 -0.0232 0.0231
vn -0.9991 -0.0417 0.0079
vn -0.9991 -0.0374 0.0223
vn -0.9993 -0.0374 0.0039
vn -0.9987 -0.0316 0.0407
vn -0.9994 -0.0316 0.0162
vn -0.9988 -0.0253 0.0409
vn -0.9993 -0.0253 0.0281
vn -0.9994 -0.0203 0.0293
vn -0.9994 -0.0201 0.0295
vn 0.0000 -0.0000 1.0000
vn 0.0000 0.0000 -1.0000
vn 0.0000 -0.9215 0.3884
vn 0.3498 -0.9352 -0.0553
vn 0.0000 -0.9970 -0.0778
vn 0.3367 -0.9396 -0.0618
vn -0.3656 -0.9275 -0.0784
vn -0.3574 -0.9309 -0.0751
vn 0.0000 -0.8388 -0.5445
vn 0.1364 -0.9881 0.0708
vn 0.1482 -0.9852 0.0859
vn -0.1362 -0.9889 0.0590
vn -0.1501 -0.9877 0.0428
vn 0.1483 -0.8507 -0.5043
vn -0.1560 -0.8582 -0.4891
vn 0.3257 -0.6725 -0.6645
vn 0.0000 -0.9221 -0.3869
vn 0.6400 -0.6703 -0.3756
vn -0.0389 -0.9223 -0.3844
vn -0.5691 -0.6209 -0.5391
vn 0.0000 -0.9865 0.1637
vn 0.0460 -0.9980 0.0426
vn 0.0198 -0.9996 0.0183
vn -0.0452 -0.9987 0.0237
vn -0.0195 -0.9986 0.0500
vn -0.6337 0.7555 0.1666
vn -0.2889 0.7500 0.5950
vn 0.5193 0.6321 0.5751
vn 0.2960 0.9058 0.3033
vn 0.0000 0.7095 0.7047
vn -0.0007 0.7103 0.7039
vn -0.3245 0.9061 0.2715
vn 0.2148 0.6710 0.7097
vn -0.0008 0.8915 0.4531
vn 0.1890 0.7201 0.6676
vn 0.0002 0.9000 0.4359
vn -0.2546 0.9184 0.3028
vn 0.1066 0.9837 0.1449
vn 0.0002 0.9791 0.2032
vn 0.1560 0.9681 0.1962
vn -0.1007 0.9737 0.2045
vn 0.0007 0.9790 0.2041
vn -0.1369 0.9765 0.1667
vn 0.1590 0.9871 0.0207
vn 0.3184 0.9285 0.1909
vn -0.1353 0.9652 0.2240
vn -0.3107 0.9499 0.0351
vn 0.0001 0.9168 0.3994
vn 0.0000 0.9168 0.3992
vn 0.7681 0.5630 0.3049
vn 0.0000 0.9909 0.1348
vn 0.3518 0.9308 0.0992
vn -0.8372 0.5358 0.1094
vn 0.0002 0.9908 0.1350
vn -0.3037 0.7650 0.5680
usemtl palette.045
s off
f 1/1/1 49/2/1 34/3/1
f 34/3/2 49/2/2 2/4/2
f 2/4/3 49/2/3 48/5/3
f 69/6/4 34/7/4 3/8/4
f 48/5/5 4/9/5 3/10/5
f 2/4/6 48/5/6 3/10/6
f 34/7/7 2/11/7 3/8/7
f 69/6/8 3/8/8 81/12/8
f 3/8/9 4/13/9 81/12/9
f 81/12/10 4/13/10 5/14/10
f 5/14/11 4/13/11 53/15/11
f 5/14/12 53/15/12 6/16/12
f 6/16/13 53/15/13 39/17/13
f 39/17/14 53/15/14 7/18/14
f 39/19/15 7/20/15 87/21/15
f 7/18/16 53/15/16 8/22/16
f 87/21/17 7/20/17 8/23/17
f 8/22/18 53/15/18 45/24/18
f 53/25/19 58/26/19 9/27/19
f 45/24/20 53/15/20 9/28/20
f 9/27/21 58/26/21 92/29/21
f 45/30/22 9/27/22 92/29/22
f 10/31/23 11/32/23 29/33/23
f 29/33/24 11/32/24 35/34/24
f 63/35/25 67/36/25 73/37/25
f 73/37/26 67/36/26 51/38/26
f 76/39/27 77/40/27 12/41/27
f 12/41/28 77/40/28 79/42/28
f 80/43/29 82/44/29 83/45/29
f 83/45/30 82/44/30 36/46/30
f 43/47/31 89/48/31 13/49/31
f 13/49/32 89/48/32 46/50/32
f 70/51/33 62/52/33 30/53/33
f 71/54/34 62/52/34 70/51/34
f 50/55/35 68/56/35 65/57/35
f 75/58/36 68/56/36 50/55/36
f 56/59/37 78/60/37 14/61/37
f 60/62/38 78/60/38 56/59/38
f 31/63/39 37/64/39 15/65/39
f 84/66/40 37/64/40 31/63/40
f 91/67/41 90/68/41 44/69/41
f 16/70/42 90/68/42 91/67/42
f 72/71/43 66/72/43 64/73/43
f 17/74/44 66/72/44 72/71/44
f 74/75/45 66/72/45 17/74/45
f 18/76/46 72/77/46 32/78/46
f 18/76/47 17/79/47 72/77/47
f 19/80/48 55/81/48 74/75/48
f 19/82/49 17/79/49 18/76/49
f 19/80/50 74/75/50 17/74/50
f 20/83/51 55/81/51 19/80/51
f 33/84/52 18/76/52 32/78/52
f 21/85/53 18/76/53 33/84/53
f 22/86/54 19/87/54 18/88/54
f 22/89/55 18/76/55 21/85/55
f 22/86/56 20/90/56 19/87/56
f 23/91/57 20/90/57 22/86/57
f 57/92/58 55/93/58 20/94/58
f 38/95/59 22/89/59 21/85/59
f 38/95/60 23/96/60 22/89/60
f 41/97/61 20/90/61 23/91/61
f 41/98/62 23/96/62 38/95/62
f 24/99/63 20/90/63 41/97/63
f 25/100/64 57/92/64 20/94/64
f 25/101/65 20/90/65 24/99/65
f 42/102/66 24/103/66 41/104/66
f 26/105/67 25/100/67 24/106/67
f 26/107/68 24/103/68 42/102/68
f 47/108/69 57/92/69 25/100/69
f 47/108/70 25/100/70 26/105/70
f 27/109/71 61/110/71 57/111/71
f 27/112/72 57/92/72 47/108/72
f 28/113/73 61/110/73 27/109/73
f 28/113/74 27/109/74 47/114/74
f 69/6/75 81/12/75 29/33/75
f 29/33/75 81/12/75 80/43/75
f 10/31/75 29/33/75 30/53/75
f 29/115/75 80/116/75 70/117/75
f 30/53/75 29/33/75 70/51/75
f 80/43/75 83/45/75 15/65/75
f 70/117/75 80/116/75 15/118/75
f 15/65/75 83/45/75 31/63/75
f 70/51/75 15/65/75 32/78/75
f 32/78/75 15/65/75 33/84/75
f 1/1/75 34/3/75 11/119/75
f 11/119/75 34/3/75 35/120/75
f 5/14/75 6/16/75 82/44/75
f 82/44/75 6/16/75 36/46/75
f 62/121/75 71/122/75 64/73/75
f 64/73/75 71/122/75 72/71/75
f 37/64/75 84/66/75 21/85/75
f 21/85/75 84/66/75 38/95/75
f 39/19/75 87/21/75 85/123/75
f 85/123/75 87/21/75 40/124/75
f 85/125/75 40/126/75 86/127/75
f 86/127/75 40/126/75 88/128/75
f 86/129/75 88/130/75 41/104/75
f 41/104/75 88/130/75 42/102/75
f 43/47/75 13/49/75 44/69/75
f 44/69/75 13/49/75 91/67/75
f 89/48/75 45/30/75 46/50/75
f 90/68/75 16/70/75 47/114/75
f 63/131/76 48/5/76 49/2/76
f 73/132/76 48/5/76 63/131/76
f 66/72/76 50/133/76 65/134/76
f 74/75/76 50/133/76 66/72/76
f 68/56/76 51/38/76 67/36/76
f 75/58/76 51/38/76 68/56/76
f 76/39/76 53/15/76 4/13/76
f 76/135/76 4/9/76 52/136/76
f 12/41/76 53/15/76 76/39/76
f 54/137/76 76/138/76 52/139/76
f 14/140/76 76/138/76 54/137/76
f 55/81/76 14/141/76 54/142/76
f 55/93/76 56/59/76 14/61/76
f 57/92/76 56/59/76 55/93/76
f 79/143/76 92/29/76 58/26/76
f 59/144/76 92/29/76 79/143/76
f 78/60/76 79/42/76 77/40/76
f 78/60/76 59/145/76 79/42/76
f 60/62/76 59/145/76 78/60/76
f 93/146/76 59/145/76 60/62/76
f 61/110/76 93/147/76 60/148/76
f 28/113/76 93/147/76 61/110/76
f 10/31/77 30/53/77 11/32/77
f 11/32/77 30/53/77 62/52/77
f 1/1/78 11/119/78 49/2/78
f 11/32/79 62/52/79 63/35/79
f 49/2/80 11/119/80 63/131/80
f 62/121/81 64/73/81 65/134/81
f 63/35/79 62/52/79 65/57/79
f 65/134/82 64/73/82 66/72/82
f 63/35/83 65/57/83 67/36/83
f 67/36/83 65/57/83 68/56/83
f 69/6/84 29/33/84 34/7/84
f 34/7/85 29/33/85 35/34/85
f 70/51/86 32/78/86 71/54/86
f 71/54/87 32/78/87 72/77/87
f 48/5/88 73/132/88 51/149/88
f 50/133/89 74/75/89 75/150/89
f 48/5/90 51/149/90 4/9/90
f 51/151/91 75/152/91 52/139/91
f 4/9/92 51/149/92 52/136/92
f 75/150/93 74/75/93 54/142/93
f 52/139/91 75/152/91 54/137/91
f 54/142/94 74/75/94 55/81/94
f 76/39/95 14/61/95 77/40/95
f 77/40/95 14/61/95 78/60/95
f 53/25/96 12/153/96 58/26/96
f 58/26/97 12/153/97 79/143/97
f 56/154/98 57/111/98 60/148/98
f 60/148/99 57/111/99 61/110/99
f 5/14/100 80/43/100 81/12/100
f 82/44/101 80/43/101 5/14/101
f 37/64/102 33/84/102 15/65/102
f 21/85/103 33/84/103 37/64/103
f 36/46/104 31/63/104 83/45/104
f 84/66/105 31/63/105 36/46/105
f 39/17/106 36/46/106 6/16/106
f 39/17/107 38/95/107 84/66/107
f 39/17/108 84/66/108 36/46/108
f 85/125/109 38/95/109 39/17/109
f 86/127/110 38/95/110 85/125/110
f 41/98/111 38/95/111 86/127/111
f 8/23/112 40/124/112 87/21/112
f 43/155/113 88/128/113 40/126/113
f 43/47/114 40/124/114 8/23/114
f 44/69/115 42/102/115 88/130/115
f 44/156/116 88/128/116 43/155/116
f 26/107/117 42/102/117 44/69/117
f 45/24/118 43/155/118 8/22/118
f 89/157/119 43/155/119 45/24/119
f 90/158/120 26/105/120 44/156/120
f 47/108/121 26/105/121 90/158/121
f 46/50/122 91/67/122 13/49/122
f 16/70/123 91/67/123 46/50/123
f 92/29/124 46/50/124 45/30/124
f 59/145/125 16/159/125 46/160/125
f 59/144/126 46/50/126 92/29/126
f 93/147/127 47/114/127 16/70/127
f 93/146/128 16/159/128 59/145/128
f 28/113/129 47/114/129 93/147/129
