# Blender v2.93.5 OBJ File: 'fwf.blend'
# www.blender.org
mtllib TeleporterBot_LOD0-1.mtl
o TeleporterBot_LOD0-1
v -1.067481 0.974476 0.000000
v -1.067638 0.885524 -0.300000
v -1.053573 0.862519 0.000000
v -1.093387 0.981272 -0.200000
v -1.089147 1.008087 -0.300000
v -1.122484 1.096564 -0.200000
v -1.051074 0.979381 0.100000
v -1.052612 1.186811 -0.500000
v -1.052460 1.189753 -0.500000
v -1.054435 1.112134 0.100000
v -1.072075 1.148987 0.000000
v -1.049389 1.238351 -0.500000
v -1.059897 1.259081 0.000000
v -1.069201 1.322337 -0.200000
v -1.064665 1.324394 -0.300000
v -1.051291 1.417894 -0.200000
v -1.047340 1.433053 -0.300000
v -1.041011 1.436187 -0.400000
v -1.029101 1.464994 -0.500000
v -1.035052 1.233426 -0.600000
v -1.041016 1.436149 -0.400000
v -1.011680 1.584473 -0.600000
v -0.942802 0.964436 0.100000
v -0.940898 0.820369 0.000000
v -0.935470 0.862519 0.100000
v -0.955638 0.957651 0.000000
v -0.971181 0.987521 -0.300000
v -0.950786 0.908710 -0.400000
v -0.951182 0.843790 -0.300000
v -0.961613 1.045137 -0.400000
v -0.942507 1.233426 -0.500000
v -0.932528 1.146004 -0.600000
v -0.945810 1.162597 -0.500000
v -0.930134 1.231347 -0.600000
v -0.942068 1.121249 0.100000
v -0.962050 1.106600 0.000000
v -0.945789 1.021003 0.100000
v -0.952357 1.220574 0.000000
v -0.927931 1.552931 -0.300000
v -0.932971 1.473215 -0.400000
v -0.939430 1.450440 -0.300000
v -0.923493 1.596496 -0.400000
v -0.718699 0.862519 0.100000
v -0.721469 0.820369 0.000000
v -0.722414 0.964436 0.100000
v -0.728345 0.957651 0.000000
v -0.726379 0.843790 -0.300000
v -0.726199 0.908710 -0.400000
v -0.734251 0.987521 -0.300000
v -0.730802 1.045137 -0.400000
v -0.723875 1.162597 -0.500000
v -0.717156 1.146004 -0.600000
v -0.722268 1.233426 -0.500000
v -0.715880 1.231347 -0.600000
v -0.723864 1.020998 0.100000
v -0.730973 1.106150 0.000000
v -0.722051 1.121249 0.100000
v -0.726908 1.220366 0.000000
v -0.720731 1.450588 -0.300000
v -0.717390 1.473324 -0.400000
v -0.714692 1.552952 -0.300000
v -0.712264 1.596496 -0.400000
v -0.614538 0.862519 0.000000
v -0.617681 0.885524 -0.300000
v -0.617650 0.974476 0.000000
v -0.621596 0.981272 -0.200000
v -0.621124 1.008087 -0.300000
v -0.613913 0.979374 0.100000
v -0.621945 1.093911 -0.100000
v -0.614300 1.186811 -0.500000
v -0.623047 1.096564 -0.200000
v -0.618609 1.159572 -0.400000
v -0.614262 1.189753 -0.500000
v -0.614749 1.110648 0.100000
v -0.618532 1.142892 0.000000
v -0.620798 1.196082 -0.100000
v -0.621614 1.211106 -0.200000
v -0.613482 1.238351 -0.500000
v -0.616032 1.255858 0.000000
v -0.617989 1.322337 -0.200000
v -0.617072 1.325350 -0.300000
v -0.614642 1.330553 -0.400000
v -0.613968 1.418546 -0.200000
v -0.612947 1.435474 -0.300000
v -0.611223 1.438622 -0.400000
v -0.609513 1.233426 -0.600000
v -0.607738 1.465126 -0.500000
v -0.611224 1.438584 -0.400000
v -0.602398 1.583593 -0.600000
v -0.942802 0.964436 0.100000
v -1.054435 1.112134 0.100000
v -1.051074 0.979381 0.100000
v -0.945789 1.021003 0.100000
v -0.718699 0.862519 0.100000
v -0.935470 0.862519 0.100000
v -0.722414 0.964436 0.100000
v -0.723864 1.020998 0.100000
v -0.942068 1.121249 0.100000
v -0.722051 1.121249 0.100000
v -0.613913 0.979374 0.100000
v -0.614749 1.110648 0.100000
v -0.940898 0.820369 0.000000
v -1.067481 0.974476 0.000000
v -1.053573 0.862519 0.000000
v -0.955638 0.957651 0.000000
v -0.962050 1.106600 0.000000
v -1.059897 1.259081 0.000000
v -1.072075 1.148987 0.000000
v -0.952357 1.220574 0.000000
v -0.614538 0.862519 0.000000
v -0.728345 0.957651 0.000000
v -0.721469 0.820369 0.000000
v -0.617650 0.974476 0.000000
v -0.618532 1.142892 0.000000
v -0.726908 1.220366 0.000000
v -0.730973 1.106150 0.000000
v -0.616032 1.255858 0.000000
v -0.953688 1.352655 -0.200000
v -1.051291 1.417894 -0.200000
v -1.069201 1.322337 -0.200000
v -0.942458 1.429687 -0.200000
v -0.727498 1.352693 -0.200000
v -0.722244 1.429743 -0.200000
v -0.617989 1.322337 -0.200000
v -0.613968 1.418546 -0.200000
v -0.720731 1.450588 -0.300000
v -0.927931 1.552931 -0.300000
v -0.939430 1.450440 -0.300000
v -0.714692 1.552952 -0.300000
v -0.932971 1.473215 -0.400000
v -1.041016 1.436149 -0.400000
v -1.041011 1.436187 -0.400000
v -0.923493 1.596496 -0.400000
v -0.611223 1.438622 -0.400000
v -0.712264 1.596496 -0.400000
v -0.717390 1.473324 -0.400000
v -0.611224 1.438584 -0.400000
v -1.067638 0.885524 -0.300000
v -1.089147 1.008087 -0.300000
v -0.951182 0.843790 -0.300000
v -0.971181 0.987521 -0.300000
v -0.726379 0.843790 -0.300000
v -0.734251 0.987521 -0.300000
v -0.617681 0.885524 -0.300000
v -0.621124 1.008087 -0.300000
v -0.950786 0.908710 -0.400000
v -0.961613 1.045137 -0.400000
v -0.726199 0.908710 -0.400000
v -0.730802 1.045137 -0.400000
v -1.052612 1.186811 -0.500000
v -1.052460 1.189753 -0.500000
v -0.946861 1.087089 -0.500000
v -1.049389 1.238351 -0.500000
v -0.945810 1.162597 -0.500000
v -0.942507 1.233426 -0.500000
v -0.724375 1.087089 -0.500000
v -0.723875 1.162597 -0.500000
v -0.614300 1.186811 -0.500000
v -0.722268 1.233426 -0.500000
v -0.614262 1.189753 -0.500000
v -0.613482 1.238351 -0.500000
v -1.035052 1.233426 -0.600000
v -1.011680 1.584473 -0.600000
v -0.930134 1.231347 -0.600000
v -0.907868 1.623708 -0.600000
v -0.932528 1.146004 -0.600000
v -0.717156 1.146004 -0.600000
v -0.715880 1.231347 -0.600000
v -0.703563 1.623750 -0.600000
v -0.609513 1.233426 -0.600000
v -0.602398 1.583593 -0.600000
v -0.940898 0.820369 0.000000
v -0.718699 0.862519 0.100000
v -0.935470 0.862519 0.100000
v -0.721469 0.820369 0.000000
v -1.067638 0.885524 -0.300000
v -1.053573 0.862519 0.000000
v -0.951182 0.843790 -0.300000
v -0.726379 0.843790 -0.300000
v -0.614538 0.862519 0.000000
v -0.617681 0.885524 -0.300000
v -0.950786 0.908710 -0.400000
v -0.726199 0.908710 -0.400000
v -1.067481 0.974476 0.000000
v -0.942802 0.964436 0.100000
v -1.051074 0.979381 0.100000
v -0.955638 0.957651 0.000000
v -0.728345 0.957651 0.000000
v -0.613913 0.979374 0.100000
v -0.722414 0.964436 0.100000
v -0.617650 0.974476 0.000000
v -0.961613 1.045137 -0.400000
v -0.971181 0.987521 -0.300000
v -1.089147 1.008087 -0.300000
v -0.730802 1.045137 -0.400000
v -0.621124 1.008087 -0.300000
v -0.734251 0.987521 -0.300000
v -1.052612 1.186811 -0.500000
v -0.946861 1.087089 -0.500000
v -0.724375 1.087089 -0.500000
v -0.614300 1.186811 -0.500000
v -0.932528 1.146004 -0.600000
v -0.723875 1.162597 -0.500000
v -0.945810 1.162597 -0.500000
v -0.717156 1.146004 -0.600000
v -1.035052 1.233426 -0.600000
v -0.942507 1.233426 -0.500000
v -1.049389 1.238351 -0.500000
v -0.930134 1.231347 -0.600000
v -0.715880 1.231347 -0.600000
v -0.613482 1.238351 -0.500000
v -0.722268 1.233426 -0.500000
v -0.609513 1.233426 -0.600000
v -1.054435 1.112134 0.100000
v -0.945789 1.021003 0.100000
v -1.072075 1.148987 0.000000
v -0.962050 1.106600 0.000000
v -0.723864 1.020998 0.100000
v -0.614749 1.110648 0.100000
v -0.730973 1.106150 0.000000
v -0.618532 1.142892 0.000000
v -0.942068 1.121249 0.100000
v -0.722051 1.121249 0.100000
v -0.952357 1.220574 0.000000
v -0.726908 1.220366 0.000000
v -1.059897 1.259081 0.000000
v -1.069201 1.322337 -0.200000
v -0.616032 1.255858 0.000000
v -0.953688 1.352655 -0.200000
v -0.727498 1.352693 -0.200000
v -0.617989 1.322337 -0.200000
v -1.051291 1.417894 -0.200000
v -0.942458 1.429687 -0.200000
v -1.047340 1.433053 -0.300000
v -0.722244 1.429743 -0.200000
v -0.939430 1.450440 -0.300000
v -0.613968 1.418546 -0.200000
v -0.720731 1.450588 -0.300000
v -0.612947 1.435474 -0.300000
v -1.041011 1.436187 -0.400000
v -0.932971 1.473215 -0.400000
v -0.717390 1.473324 -0.400000
v -0.611223 1.438622 -0.400000
v -0.927931 1.552931 -0.300000
v -0.714692 1.552952 -0.300000
v -0.923493 1.596496 -0.400000
v -0.712264 1.596496 -0.400000
v -1.041016 1.436149 -0.400000
v -1.011680 1.584473 -0.600000
v -0.907868 1.623708 -0.600000
v -0.611224 1.438584 -0.400000
v -0.703563 1.623750 -0.600000
v -0.602398 1.583593 -0.600000
vt 0.970703 0.500000
vt 0.970703 0.500000
vt 0.970703 0.500000
vt 0.970703 0.500000
vt 0.970703 0.500000
vt 0.978516 0.500000
vt 0.978516 0.500000
vt 0.978516 0.500000
vt 0.970703 0.500000
vt 0.970703 0.500000
vt 0.978516 0.500000
vt 0.970703 0.500000
vt 0.978516 0.500000
vt 0.978516 0.500000
vt 0.978516 0.500000
vt 0.978516 0.500000
vt 0.978516 0.500000
vt 0.978516 0.500000
vt 0.978516 0.500000
vt 0.970703 0.500000
vt 0.970703 0.500000
vt 0.970703 0.500000
vt 0.978516 0.500000
vt 0.970703 0.500000
vt 0.978516 0.500000
vt 0.970703 0.500000
vt 0.970703 0.500000
vt 0.970703 0.500000
vt 0.978516 0.500000
vt 0.970703 0.500000
vt 0.970703 0.500000
vt 0.970703 0.500000
vt 0.978516 0.500000
vt 0.978516 0.500000
vt 0.978516 0.500000
vt 0.978516 0.500000
vt 0.978516 0.500000
vt 0.978516 0.500000
vt 0.978516 0.500000
vt 0.978516 0.500000
vt 0.978516 0.500000
vt 0.978516 0.500000
vt 0.978516 0.500000
vt 0.978516 0.500000
vt 0.978516 0.500000
vt 0.978516 0.500000
vt 0.978516 0.500000
vt 0.978516 0.500000
vt 0.970703 0.500000
vt 0.970703 0.500000
vt 0.970703 0.500000
vt 0.970703 0.500000
vt 0.978516 0.500000
vt 0.978516 0.500000
vt 0.978516 0.500000
vt 0.978516 0.500000
vt 0.978516 0.500000
vt 0.978516 0.500000
vt 0.978516 0.500000
vt 0.978516 0.500000
vt 0.978516 0.500000
vt 0.978516 0.500000
vt 0.978516 0.500000
vt 0.978516 0.500000
vt 0.978516 0.500000
vt 0.978516 0.500000
vt 0.978516 0.500000
vt 0.978516 0.500000
vt 0.970703 0.500000
vt 0.970703 0.500000
vt 0.970703 0.500000
vt 0.970703 0.500000
vt 0.970703 0.500000
vt 0.970703 0.500000
vt 0.970703 0.500000
vt 0.970703 0.500000
vt 0.970703 0.500000
vt 0.978516 0.500000
vt 0.978516 0.500000
vt 0.978516 0.500000
vt 0.978516 0.500000
vt 0.970703 0.500000
vt 0.970703 0.500000
vt 0.978516 0.500000
vt 0.970703 0.500000
vt 0.970703 0.500000
vt 0.978516 0.500000
vt 0.978516 0.500000
vt 0.974609 0.500000
vt 0.974609 0.500000
vt 0.974609 0.500000
vt 0.978516 0.500000
vt 0.974609 0.500000
vt 0.974609 0.500000
vt 0.978516 0.500000
vt 0.978516 0.500000
vt 0.978516 0.500000
vt 0.978516 0.500000
vt 0.978516 0.500000
vt 0.974609 0.500000
vt 0.978516 0.500000
vt 0.974609 0.500000
vt 0.978516 0.500000
vt 0.974609 0.500000
vt 0.970703 0.500000
vt 0.970703 0.500000
vt 0.970703 0.500000
vt 0.978516 0.500000
vt 0.978516 0.500000
vt 0.970703 0.500000
vt 0.978516 0.500000
vt 0.970703 0.500000
vt 0.970703 0.500000
vt 0.970703 0.500000
vt 0.978516 0.500000
vt 0.970703 0.500000
vt 0.970703 0.500000
vt 0.970703 0.500000
vt 0.978516 0.500000
vt 0.978516 0.500000
vt 0.978516 0.500000
vt 0.978516 0.500000
vt 0.978516 0.500000
vt 0.978516 0.500000
vt 0.974609 0.500000
vt 0.974609 0.500000
vt 0.974609 0.500000
vt 0.978516 0.500000
vt 0.978516 0.500000
vt 0.978516 0.500000
vt 0.974609 0.500000
vt 0.978516 0.500000
vt 0.978516 0.500000
vt 0.978516 0.500000
vt 0.970703 0.500000
vt 0.970703 0.500000
vt 0.970703 0.500000
vt 0.970703 0.500000
vt 0.978516 0.500000
vt 0.978516 0.500000
vt 0.978516 0.500000
vt 0.978516 0.500000
vt 0.970703 0.500000
vt 0.970703 0.500000
vt 0.970703 0.500000
vt 0.970703 0.500000
vt 0.978516 0.500000
vt 0.978516 0.500000
vt 0.978516 0.500000
vt 0.978516 0.500000
vt 0.970703 0.500000
vt 0.970703 0.500000
vt 0.970703 0.500000
vt 0.970703 0.500000
vt 0.978516 0.500000
vt 0.978516 0.500000
vt 0.978516 0.500000
vt 0.978516 0.500000
vt 0.970703 0.500000
vt 0.970703 0.500000
vt 0.970703 0.500000
vt 0.970703 0.500000
vt 0.970703 0.500000
vt 0.970703 0.500000
vt 0.970703 0.500000
vt 0.970703 0.500000
vt 0.970703 0.500000
vt 0.970703 0.500000
vt 0.970703 0.500000
vt 0.970703 0.500000
vt 0.970703 0.500000
vt 0.970703 0.500000
vt 0.970703 0.500000
vt 0.970703 0.500000
vt 0.970703 0.500000
vt 0.970703 0.500000
vt 0.970703 0.500000
vt 0.970703 0.500000
vt 0.970703 0.500000
vt 0.970703 0.500000
vt 0.970703 0.500000
vt 0.970703 0.500000
vt 0.978516 0.500000
vt 0.978516 0.500000
vt 0.978516 0.500000
vt 0.978516 0.500000
vt 0.970703 0.500000
vt 0.970703 0.500000
vt 0.970703 0.500000
vt 0.978516 0.500000
vt 0.978516 0.500000
vt 0.978516 0.500000
vt 0.970703 0.500000
vt 0.978516 0.500000
vt 0.974609 0.500000
vt 0.974609 0.500000
vt 0.974609 0.500000
vt 0.974609 0.500000
vt 0.970703 0.500000
vt 0.970703 0.500000
vt 0.970703 0.500000
vt 0.978516 0.500000
vt 0.978516 0.500000
vt 0.978516 0.500000
vt 0.970703 0.500000
vt 0.978516 0.500000
vt 0.970703 0.500000
vt 0.970703 0.500000
vt 0.970703 0.500000
vt 0.970703 0.500000
vt 0.978516 0.500000
vt 0.978516 0.500000
vt 0.978516 0.500000
vt 0.978516 0.500000
vt 0.978516 0.500000
vt 0.978516 0.500000
vt 0.970703 0.500000
vt 0.970703 0.500000
vt 0.970703 0.500000
vt 0.970703 0.500000
vt 0.978516 0.500000
vt 0.978516 0.500000
vt 0.978516 0.500000
vt 0.978516 0.500000
vt 0.970703 0.500000
vt 0.970703 0.500000
vt 0.970703 0.500000
vt 0.978516 0.500000
vt 0.970703 0.500000
vt 0.970703 0.500000
vt 0.970703 0.500000
vt 0.970703 0.500000
vt 0.978516 0.500000
vt 0.970703 0.500000
vt 0.978516 0.500000
vt 0.978516 0.500000
vt 0.978516 0.500000
vt 0.978516 0.500000
vt 0.978516 0.500000
vt 0.978516 0.500000
vt 0.978516 0.500000
vt 0.978516 0.500000
vt 0.978516 0.500000
vt 0.978516 0.500000
vt 0.970703 0.500000
vt 0.970703 0.500000
vt 0.970703 0.500000
vt 0.970703 0.500000
vt 0.970703 0.500000
vt 0.970703 0.500000
vt 0.970703 0.500000
vt 0.974609 0.500000
vt 0.974609 0.500000
vt 0.974609 0.500000
vt 0.970703 0.500000
vt 0.970703 0.500000
vt 0.974609 0.500000
vt 0.970703 0.500000
vt 0.978516 0.500000
vt 0.978516 0.500000
vt 0.978516 0.500000
vt 0.978516 0.500000
vt 0.970703 0.500000
vt 0.970703 0.500000
vt 0.970703 0.500000
vt 0.970703 0.500000
vt 0.970703 0.500000
vt 0.970703 0.500000
vt 0.970703 0.500000
vt 0.970703 0.500000
vt 0.978516 0.500000
vt 0.978516 0.500000
vt 0.978516 0.500000
vt 0.978516 0.500000
vt 0.978516 0.500000
vt 0.978516 0.500000
vt 0.978516 0.500000
vt 0.978516 0.500000
vt 0.978516 0.500000
vt 0.978516 0.500000
vt 0.978516 0.500000
vt 0.978516 0.500000
vt 0.978516 0.500000
vt 0.978516 0.500000
vt 0.978516 0.500000
vt 0.978516 0.500000
vt 0.978516 0.500000
vt 0.978516 0.500000
vt 0.970703 0.500000
vt 0.970703 0.500000
vt 0.970703 0.500000
vt 0.978516 0.500000
vt 0.978516 0.500000
vt 0.978516 0.500000
vt 0.970703 0.500000
vt 0.970703 0.500000
vt 0.970703 0.500000
vt 0.970703 0.500000
vt 0.978516 0.500000
vt 0.970703 0.500000
vt 0.978516 0.500000
vt 0.978516 0.500000
vt 0.978516 0.500000
vt 0.978516 0.500000
vt 0.978516 0.500000
vt 0.978516 0.500000
vt 0.970703 0.500000
vt 0.970703 0.500000
vt 0.970703 0.500000
vt 0.970703 0.500000
vt 0.970703 0.500000
vt 0.970703 0.500000
vt 0.978516 0.500000
vt 0.978516 0.500000
vt 0.978516 0.500000
vt 0.970703 0.500000
vt 0.970703 0.500000
vt 0.970703 0.500000
vt 0.978516 0.500000
vt 0.970703 0.500000
vn -0.9917 -0.1232 0.0370
vn -0.9261 -0.3615 0.1077
vn -0.9811 -0.1722 -0.0878
vn -0.9722 -0.1636 0.1675
vn -0.9650 -0.0818 -0.2493
vn -0.9641 -0.2433 -0.1061
vn -0.9630 -0.2430 0.1165
vn -0.9759 0.0504 -0.2122
vn -0.9747 -0.0247 0.2224
vn -0.6157 0.7817 0.0991
vn -0.7969 -0.5988 -0.0801
vn -0.9974 0.0630 -0.0340
vn -0.9936 0.1099 -0.0254
vn -0.9826 -0.1855 -0.0130
vn -0.9966 -0.0686 -0.0466
vn -0.9821 0.1841 -0.0408
vn -0.9776 0.1559 -0.1417
vn -0.9874 0.1574 -0.0151
vn -0.9955 0.0728 -0.0607
vn -0.9854 0.0882 -0.1456
vn -0.9917 0.0888 -0.0925
vn 0.9892 -0.1194 0.0847
vn -0.9934 0.0661 -0.0940
vn -0.9931 0.0603 -0.1009
vn -0.9939 -0.0715 0.0841
vn -0.9854 -0.1058 0.1337
vn -0.9862 -0.1372 -0.0930
vn -0.9871 -0.0783 -0.1396
vn -0.9892 0.0461 -0.1390
vn -0.9920 0.0278 -0.1233
vn -0.9810 0.0364 0.1907
vn -0.9795 0.0833 0.1835
vn -0.9930 0.1114 -0.0388
vn -0.9970 0.0767 -0.0109
vn 0.9984 0.0364 -0.0430
vn 0.9968 0.0499 -0.0625
vn 0.9978 0.0547 0.0373
vn 0.9980 0.0337 0.0538
vn 0.9972 -0.0226 0.0708
vn 0.9978 -0.0149 0.0641
vn 0.9961 -0.0180 -0.0861
vn 0.9959 -0.0354 -0.0835
vn 0.9981 -0.0589 0.0200
vn 0.9991 -0.0416 0.0062
vn 0.9996 0.0278 -0.0083
vn 0.9981 0.0593 -0.0177
vn 0.9995 0.0281 0.0122
vn 0.9993 0.0045 -0.0376
vn 0.9996 0.0200 -0.0190
vn 0.9996 -0.0084 0.0266
vn 0.9999 0.0126 -0.0107
vn 0.9999 0.0126 0.0081
vn 0.8869 0.4346 0.1566
vn 0.9991 -0.0128 0.0396
vn 0.9993 0.0064 -0.0365
vn 0.9993 0.0046 -0.0363
vn 0.9999 -0.0112 -0.0113
vn 0.9995 -0.0112 -0.0286
vn 0.9994 -0.0341 0.0114
vn 0.9984 0.0567 0.0004
vn 0.9991 -0.0160 0.0386
vn 0.9992 -0.0221 -0.0344
vn 0.9985 -0.0527 -0.0161
vn 0.9992 -0.0326 0.0234
vn 0.9993 -0.0326 -0.0206
vn 0.9999 -0.0145 0.0087
vn 0.9992 -0.0232 0.0330
vn 0.9995 -0.0232 0.0231
vn 0.9991 -0.0418 0.0079
vn 0.9991 -0.0374 0.0223
vn 0.9993 -0.0374 0.0039
vn 0.9987 -0.0316 0.0407
vn 0.9994 -0.0316 0.0162
vn 0.9988 -0.0253 0.0409
vn 0.9993 -0.0253 0.0281
vn -0.9990 0.0351 -0.0261
vn 0.9994 -0.0203 0.0293
vn 0.9994 -0.0201 0.0295
vn -0.0000 -0.0000 1.0000
vn 0.0006 -0.0008 -1.0000
vn 0.0000 -0.0007 -1.0000
vn 0.0000 0.0000 -1.0000
vn 0.0000 -0.9215 0.3884
vn -0.3498 -0.9352 -0.0553
vn 0.0000 -0.9970 -0.0778
vn -0.3367 -0.9396 -0.0618
vn 0.3656 -0.9275 -0.0784
vn 0.3574 -0.9309 -0.0751
vn 0.0000 -0.8388 -0.5445
vn -0.1364 -0.9881 0.0708
vn -0.1482 -0.9852 0.0859
vn 0.1362 -0.9889 0.0590
vn 0.1501 -0.9877 0.0428
vn -0.1483 -0.8507 -0.5043
vn 0.1560 -0.8582 -0.4891
vn -0.3234 -0.6755 -0.6627
vn 0.0000 -0.9221 -0.3868
vn -0.6356 -0.6740 -0.3765
vn 0.0389 -0.9223 -0.3844
vn 0.0000 -0.9221 -0.3869
vn 0.5657 -0.6244 -0.5387
vn 0.0000 -0.9865 0.1637
vn -0.0460 -0.9980 0.0426
vn -0.0198 -0.9996 0.0183
vn 0.0452 -0.9987 0.0236
vn 0.0195 -0.9986 0.0500
vn 0.6337 0.7555 0.1666
vn 0.2889 0.7500 0.5950
vn -0.5193 0.6321 0.5751
vn -0.2960 0.9058 0.3033
vn 0.0000 0.7095 0.7047
vn 0.0007 0.7103 0.7039
vn 0.3245 0.9061 0.2715
vn -0.2148 0.6710 0.7097
vn 0.0008 0.8915 0.4531
vn -0.1890 0.7201 0.6676
vn -0.0002 0.9000 0.4359
vn 0.2546 0.9184 0.3028
vn -0.1066 0.9837 0.1449
vn -0.0002 0.9791 0.2032
vn -0.1560 0.9681 0.1962
vn 0.1007 0.9737 0.2045
vn -0.0007 0.9790 0.2041
vn 0.1369 0.9765 0.1667
vn -0.1590 0.9871 0.0209
vn -0.3182 0.9286 0.1909
vn 0.1353 0.9652 0.2240
vn 0.3105 0.9499 0.0353
vn -0.0001 0.9168 0.3994
vn 0.0000 0.9168 0.3992
vn -0.7682 0.5630 0.3049
vn 0.0000 0.9909 0.1348
vn -0.3518 0.9308 0.0992
vn 0.8373 0.5357 0.1094
vn -0.0002 0.9908 0.1350
vn 0.3036 0.7650 0.5680
usemtl palette.046
s off
f 1/1/1 2/2/1 3/3/1
f 4/4/2 2/2/2 1/1/2
f 5/5/3 2/2/3 4/4/3
f 6/6/4 1/7/4 7/8/4
f 6/9/5 8/10/5 5/5/5
f 6/9/6 5/5/6 4/4/6
f 6/6/7 4/11/7 1/7/7
f 9/12/8 8/10/8 6/9/8
f 10/13/9 6/6/9 7/8/9
f 10/13/10 9/14/10 6/6/10
f 11/15/11 9/14/11 10/13/11
f 12/16/12 9/14/12 11/15/12
f 13/17/13 12/16/13 11/15/13
f 14/18/14 12/16/14 13/17/14
f 15/19/15 12/16/15 14/18/15
f 16/20/16 15/21/16 14/22/16
f 17/23/17 12/16/17 15/19/17
f 17/24/18 15/21/18 16/20/18
f 18/25/19 12/16/19 17/23/19
f 19/26/20 20/27/20 12/28/20
f 19/29/21 12/16/21 18/25/21
f 21/30/22 19/26/22 18/31/22
f 22/32/23 20/27/23 19/26/23
f 22/32/24 19/26/24 21/30/24
f 23/33/25 24/34/25 25/35/25
f 26/36/26 24/34/26 23/33/26
f 27/37/27 28/38/27 29/39/27
f 30/40/28 28/38/28 27/37/28
f 31/41/29 32/42/29 33/43/29
f 34/44/30 32/42/30 31/41/30
f 35/45/31 36/46/31 37/47/31
f 38/48/32 36/46/32 35/45/32
f 39/49/33 40/50/33 41/51/33
f 42/52/34 40/50/34 39/49/34
f 43/53/35 44/54/35 45/55/35
f 45/55/36 44/54/36 46/56/36
f 47/57/37 48/58/37 49/59/37
f 49/59/38 48/58/38 50/60/38
f 51/61/39 52/62/39 53/63/39
f 53/63/40 52/62/40 54/64/40
f 55/65/41 56/66/41 57/67/41
f 57/67/42 56/66/42 58/68/42
f 59/69/43 60/70/43 61/71/43
f 61/71/44 60/70/44 62/72/44
f 63/73/45 64/74/45 65/75/45
f 65/75/46 64/74/46 66/76/46
f 66/76/47 64/74/47 67/77/47
f 68/78/48 65/79/48 69/80/48
f 65/79/49 66/81/49 69/80/49
f 67/77/50 70/82/50 71/83/50
f 69/80/51 66/81/51 71/84/51
f 66/76/52 67/77/52 71/83/52
f 71/83/53 70/82/53 72/85/53
f 72/85/54 70/82/54 73/86/54
f 68/78/55 69/80/55 74/87/55
f 74/87/56 69/80/56 75/88/56
f 69/89/57 71/90/57 76/91/57
f 75/88/58 69/80/58 76/92/58
f 71/90/59 72/93/59 76/91/59
f 76/91/60 72/93/60 77/94/60
f 72/95/61 73/96/61 78/97/61
f 75/88/62 76/92/62 79/98/62
f 76/92/63 77/99/63 79/98/63
f 77/94/64 72/93/64 80/100/64
f 79/98/65 77/99/65 80/101/65
f 80/100/66 72/93/66 81/102/66
f 72/95/67 78/97/67 82/103/67
f 81/102/68 72/93/68 82/104/68
f 80/105/69 81/106/69 83/107/69
f 81/108/70 82/103/70 84/109/70
f 83/107/71 81/106/71 84/110/71
f 82/103/72 78/97/72 85/111/72
f 84/109/73 82/103/73 85/111/73
f 78/112/74 86/113/74 87/114/74
f 85/111/75 78/97/75 87/115/75
f 85/116/76 87/114/76 88/117/76
f 87/114/77 86/113/77 89/118/77
f 88/117/78 87/114/78 89/118/78
f 90/119/79 91/120/79 92/121/79
f 93/122/79 91/120/79 90/119/79
f 94/123/79 90/119/79 95/124/79
f 96/125/79 93/126/79 90/127/79
f 96/128/79 90/119/79 94/123/79
f 97/129/79 98/130/79 93/122/79
f 97/131/79 93/126/79 96/125/79
f 99/132/79 98/130/79 97/129/79
f 100/133/79 97/129/79 96/128/79
f 101/134/79 97/129/79 100/133/79
f 102/135/79 103/136/79 104/137/79
f 105/138/79 103/136/79 102/135/79
f 106/139/79 107/140/79 108/141/79
f 109/142/79 107/140/79 106/139/79
f 110/143/79 111/144/79 112/145/79
f 113/146/79 111/144/79 110/143/79
f 114/147/79 115/148/79 116/149/79
f 117/150/79 115/148/79 114/147/79
f 118/151/79 119/152/79 120/153/79
f 121/154/79 119/152/79 118/151/79
f 122/155/79 121/156/79 118/157/79
f 123/158/79 121/156/79 122/155/79
f 124/159/79 123/160/79 122/161/79
f 125/162/79 123/160/79 124/159/79
f 126/163/79 127/164/79 128/165/79
f 129/166/79 127/164/79 126/163/79
f 130/167/80 131/168/80 132/169/80
f 133/170/79 131/168/79 130/167/79
f 134/171/79 135/172/79 136/173/79
f 137/174/81 135/172/81 134/171/81
f 138/175/82 139/176/82 140/177/82
f 140/177/82 139/176/82 141/178/82
f 142/179/82 143/180/82 144/181/82
f 144/181/82 143/180/82 145/182/82
f 146/183/82 147/184/82 148/185/82
f 148/185/82 147/184/82 149/186/82
f 150/187/82 151/188/82 152/189/82
f 151/190/82 153/191/82 154/192/82
f 152/189/82 151/188/82 154/193/82
f 154/192/82 153/191/82 155/194/82
f 152/195/82 154/196/82 156/197/82
f 156/197/82 154/196/82 157/198/82
f 156/199/82 157/200/82 158/201/82
f 157/202/82 159/203/82 160/204/82
f 158/201/82 157/200/82 160/205/82
f 160/204/82 159/203/82 161/206/82
f 162/207/82 163/208/82 164/209/82
f 164/209/82 163/208/82 165/210/82
f 166/211/82 164/212/82 167/213/82
f 164/212/82 165/214/82 167/213/82
f 167/213/82 165/214/82 168/215/82
f 168/215/82 165/214/82 169/216/82
f 168/217/82 169/218/82 170/219/82
f 170/219/82 169/218/82 171/220/82
f 172/221/83 173/222/83 174/223/83
f 175/224/83 173/222/83 172/221/83
f 176/225/84 172/226/84 177/227/84
f 178/228/85 175/224/85 172/221/85
f 178/229/86 172/226/86 176/225/86
f 179/230/87 180/231/87 175/232/87
f 179/233/85 175/224/85 178/228/85
f 181/234/88 180/231/88 179/230/88
f 182/235/89 179/233/89 178/228/89
f 183/236/89 179/233/89 182/235/89
f 184/237/90 185/238/90 186/239/90
f 187/240/91 185/238/91 184/237/91
f 188/241/92 189/242/92 190/243/92
f 191/244/93 189/242/93 188/241/93
f 192/245/94 193/246/94 194/247/94
f 195/248/95 196/249/95 197/250/95
f 198/251/96 192/245/96 194/247/96
f 199/252/97 195/253/97 192/254/97
f 199/255/98 192/245/98 198/251/98
f 200/256/99 196/249/99 195/248/99
f 200/257/100 195/253/100 199/252/100
f 201/258/101 196/249/101 200/256/101
f 202/259/102 203/260/102 204/261/102
f 205/262/102 203/260/102 202/259/102
f 206/263/103 207/264/103 208/265/103
f 209/266/104 207/264/104 206/263/104
f 210/267/105 211/268/105 212/269/105
f 213/270/106 211/268/106 210/267/106
f 214/271/107 215/272/107 216/273/107
f 216/273/108 215/272/108 217/274/108
f 218/275/109 219/276/109 220/277/109
f 220/277/110 219/276/110 221/278/110
f 222/279/111 223/280/111 224/281/111
f 224/281/112 223/280/112 225/282/112
f 226/283/113 224/281/113 227/284/113
f 225/282/114 228/285/114 227/284/114
f 224/281/115 225/282/115 227/284/115
f 227/284/116 228/285/116 229/286/116
f 229/286/117 228/285/117 230/287/117
f 230/287/118 228/285/118 231/288/118
f 232/289/119 233/290/119 234/291/119
f 233/292/120 235/293/120 236/294/120
f 234/291/121 233/290/121 236/295/121
f 235/296/122 237/297/122 238/298/122
f 236/294/123 235/293/123 238/299/123
f 238/298/124 237/297/124 239/300/124
f 234/301/125 236/294/125 240/302/125
f 240/302/126 236/294/126 241/303/126
f 238/299/127 239/304/127 242/305/127
f 242/305/128 239/304/128 243/306/128
f 244/307/129 245/308/129 246/309/129
f 246/309/130 245/308/130 247/310/130
f 248/311/131 246/309/131 249/312/131
f 246/313/132 247/314/132 250/315/132
f 249/312/133 246/309/133 250/316/133
f 247/310/134 251/317/134 252/318/134
f 250/315/135 247/314/135 252/319/135
f 252/318/136 251/317/136 253/320/136
