# MagicaVoxel @ Ephtracy

# group
o 

# material
mtllib Laser_Orientator_LOD2-1.mtl
usemtl palette

# normals
vn 1 0 0
vn -1 0 0
vn 0 0 -1
vn 0 0 1
vn 0 -1 0
vn 0 1 0

# texcoords
vt 0.974609 0.5
vt 0.978516 0.5

# verts
v 0.5 1.5 -0.9
v 0.5 1.5 0.9
v 0.5 1.9 -0.9
v 0.5 1.9 0.9
v 0.5 2 -0.9
v 0.5 2 0.9
v 0.5 2.3 -0.9
v 0.5 2.3 0.9
v -0.6 1.5 -0.9
v -0.6 1.5 0.9
v -0.6 1.9 -0.9
v -0.6 1.9 0.9
v -0.6 2 -0.9
v -0.6 2 0.9
v -0.6 2.3 -0.9
v -0.6 2.3 0.9
v 0.5 1.5 -0.9
v 0.5 1.9 -0.9
v 0.5 2 -0.9
v 0.5 2.3 -0.9
v 0.1 1.5 -0.9
v 0.1 1.9 -0.9
v 0.1 2 -0.9
v 0.1 2.3 -0.9
v 0 1.5 -0.9
v 0 2.3 -0.9
v -0.1 1.5 -0.9
v -0.1 2.3 -0.9
v -0.2 1.5 -0.9
v -0.2 1.9 -0.9
v -0.2 2 -0.9
v -0.2 2.3 -0.9
v -0.6 1.5 -0.9
v -0.6 1.9 -0.9
v -0.6 2 -0.9
v -0.6 2.3 -0.9
v 0.5 1.5 0.9
v 0.5 1.9 0.9
v 0.5 2 0.9
v 0.5 2.3 0.9
v 0.2 2 0.9
v 0.2 2.3 0.9
v 0.1 1.7 0.9
v 0.1 1.9 0.9
v 0 1.5 0.9
v 0 1.7 0.9
v -0.1 1.5 0.9
v -0.1 1.7 0.9
v -0.2 1.7 0.9
v -0.2 1.9 0.9
v -0.3 2 0.9
v -0.3 2.3 0.9
v -0.6 1.5 0.9
v -0.6 1.9 0.9
v -0.6 2 0.9
v -0.6 2.3 0.9
v 0.5 1.5 -0.9
v 0.1 1.5 -0.9
v 0 1.5 -0.9
v -0.1 1.5 -0.9
v -0.2 1.5 -0.9
v -0.6 1.5 -0.9
v 0.2 1.5 -0.1
v 0.1 1.5 -0.1
v 0 1.5 -0.1
v -0.1 1.5 -0.1
v -0.2 1.5 -0.1
v -0.3 1.5 -0.1
v 0.3 1.5 0
v 0.2 1.5 0
v 0.1 1.5 0
v 0 1.5 0
v -0.1 1.5 0
v -0.2 1.5 0
v -0.3 1.5 0
v -0.4 1.5 0
v 0.2 1.5 0.1
v 0.1 1.5 0.1
v -0.2 1.5 0.1
v -0.3 1.5 0.1
v 0.3 1.5 0.5
v 0.2 1.5 0.5
v -0.3 1.5 0.5
v -0.4 1.5 0.5
v 0.5 1.5 0.9
v 0 1.5 0.9
v -0.1 1.5 0.9
v -0.6 1.5 0.9
v 0.5 2.3 -0.9
v 0.1 2.3 -0.9
v 0 2.3 -0.9
v -0.1 2.3 -0.9
v -0.2 2.3 -0.9
v -0.6 2.3 -0.9
v 0 2.3 -0.6
v -0.1 2.3 -0.6
v 0.1 2.3 -0.3
v 0 2.3 -0.3
v -0.1 2.3 -0.3
v -0.2 2.3 -0.3
v 0.2 2.3 0.8
v 0 2.3 0.8
v -0.1 2.3 0.8
v -0.3 2.3 0.8
v 0.5 2.3 0.9
v 0.2 2.3 0.9
v -0.3 2.3 0.9
v -0.6 2.3 0.9

# faces
f 3/2/1 2/2/1 1/2/1
f 4/2/1 2/2/1 3/2/1
f 5/1/1 4/1/1 3/1/1
f 6/1/1 4/1/1 5/1/1
f 7/2/1 6/2/1 5/2/1
f 8/2/1 6/2/1 7/2/1
f 9/2/2 10/2/2 11/2/2
f 11/2/2 10/2/2 12/2/2
f 11/1/2 12/1/2 13/1/2
f 13/1/2 12/1/2 14/1/2
f 13/2/2 14/2/2 15/2/2
f 15/2/2 14/2/2 16/2/2
f 21/2/3 18/2/3 17/2/3
f 22/1/3 19/1/3 18/1/3
f 22/2/3 18/2/3 21/2/3
f 23/2/3 20/2/3 19/2/3
f 23/1/3 19/1/3 22/1/3
f 24/2/3 20/2/3 23/2/3
f 25/1/3 22/1/3 21/1/3
f 25/1/3 23/1/3 22/1/3
f 25/1/3 24/1/3 23/1/3
f 26/1/3 24/1/3 25/1/3
f 27/2/3 26/2/3 25/2/3
f 28/2/3 26/2/3 27/2/3
f 29/1/3 28/1/3 27/1/3
f 30/1/3 28/1/3 29/1/3
f 31/1/3 28/1/3 30/1/3
f 32/1/3 28/1/3 31/1/3
f 33/2/3 30/2/3 29/2/3
f 34/1/3 31/1/3 30/1/3
f 34/2/3 30/2/3 33/2/3
f 35/2/3 32/2/3 31/2/3
f 35/1/3 31/1/3 34/1/3
f 36/2/3 32/2/3 35/2/3
f 38/1/4 39/1/4 41/1/4
f 39/2/4 40/2/4 41/2/4
f 41/2/4 40/2/4 42/2/4
f 37/2/4 38/2/4 43/2/4
f 38/1/4 41/1/4 44/1/4
f 43/2/4 38/2/4 44/2/4
f 41/1/4 42/1/4 44/1/4
f 37/2/4 43/2/4 45/2/4
f 43/1/4 44/1/4 46/1/4
f 45/2/4 43/2/4 46/2/4
f 45/1/4 46/1/4 47/1/4
f 46/1/4 44/1/4 48/1/4
f 47/1/4 46/1/4 48/1/4
f 47/2/4 48/2/4 49/2/4
f 48/1/4 44/1/4 49/1/4
f 44/1/4 42/1/4 50/1/4
f 49/1/4 44/1/4 50/1/4
f 50/1/4 42/1/4 51/1/4
f 51/1/4 42/1/4 52/1/4
f 47/2/4 49/2/4 53/2/4
f 49/2/4 50/2/4 53/2/4
f 50/1/4 51/1/4 54/1/4
f 53/2/4 50/2/4 54/2/4
f 51/2/4 52/2/4 55/2/4
f 54/1/4 51/1/4 55/1/4
f 55/2/4 52/2/4 56/2/4
f 63/2/5 58/2/5 57/2/5
f 64/1/5 59/1/5 58/1/5
f 64/2/5 58/2/5 63/2/5
f 65/2/5 60/2/5 59/2/5
f 65/1/5 59/1/5 64/1/5
f 66/1/5 61/1/5 60/1/5
f 66/2/5 60/2/5 65/2/5
f 67/2/5 62/2/5 61/2/5
f 67/1/5 61/1/5 66/1/5
f 68/2/5 62/2/5 67/2/5
f 69/2/5 63/2/5 57/2/5
f 70/1/5 66/1/5 65/1/5
f 70/2/5 63/2/5 69/2/5
f 70/1/5 64/1/5 63/1/5
f 70/1/5 68/1/5 67/1/5
f 70/1/5 67/1/5 66/1/5
f 70/1/5 65/1/5 64/1/5
f 71/1/5 68/1/5 70/1/5
f 72/1/5 68/1/5 71/1/5
f 73/1/5 68/1/5 72/1/5
f 74/1/5 68/1/5 73/1/5
f 75/2/5 62/2/5 68/2/5
f 75/1/5 68/1/5 74/1/5
f 76/2/5 62/2/5 75/2/5
f 77/1/5 70/1/5 69/1/5
f 77/1/5 71/1/5 70/1/5
f 78/2/5 72/2/5 71/2/5
f 78/1/5 71/1/5 77/1/5
f 79/2/5 74/2/5 73/2/5
f 79/1/5 76/1/5 75/1/5
f 79/1/5 75/1/5 74/1/5
f 80/1/5 76/1/5 79/1/5
f 81/2/5 69/2/5 57/2/5
f 81/1/5 77/1/5 69/1/5
f 82/2/5 78/2/5 77/2/5
f 82/1/5 77/1/5 81/1/5
f 83/1/5 76/1/5 80/1/5
f 83/2/5 80/2/5 79/2/5
f 84/2/5 62/2/5 76/2/5
f 84/1/5 76/1/5 83/1/5
f 85/2/5 81/2/5 57/2/5
f 85/2/5 82/2/5 81/2/5
f 86/2/5 78/2/5 82/2/5
f 86/2/5 82/2/5 85/2/5
f 86/2/5 72/2/5 78/2/5
f 86/1/5 73/1/5 72/1/5
f 87/2/5 79/2/5 73/2/5
f 87/1/5 73/1/5 86/1/5
f 87/2/5 83/2/5 79/2/5
f 87/2/5 84/2/5 83/2/5
f 88/2/5 62/2/5 84/2/5
f 88/2/5 84/2/5 87/2/5
f 90/1/6 91/1/6 95/1/6
f 91/2/6 92/2/6 95/2/6
f 92/1/6 93/1/6 96/1/6
f 95/2/6 92/2/6 96/2/6
f 89/2/6 90/2/6 97/2/6
f 90/1/6 95/1/6 97/1/6
f 95/1/6 96/1/6 97/1/6
f 97/1/6 96/1/6 98/1/6
f 96/1/6 93/1/6 99/1/6
f 98/1/6 96/1/6 99/1/6
f 93/2/6 94/2/6 100/2/6
f 99/1/6 93/1/6 100/1/6
f 97/2/6 98/2/6 101/2/6
f 89/2/6 97/2/6 101/2/6
f 98/1/6 99/1/6 102/1/6
f 101/2/6 98/2/6 102/2/6
f 99/2/6 100/2/6 103/2/6
f 102/1/6 99/1/6 103/1/6
f 100/2/6 94/2/6 104/2/6
f 103/2/6 100/2/6 104/2/6
f 89/2/6 101/2/6 105/2/6
f 102/1/6 103/1/6 106/1/6
f 105/2/6 101/2/6 106/2/6
f 101/1/6 102/1/6 106/1/6
f 103/1/6 104/1/6 106/1/6
f 104/2/6 94/2/6 107/2/6
f 106/1/6 104/1/6 107/1/6
f 107/2/6 94/2/6 108/2/6
