# MagicaVoxel @ Ephtracy

# group
o 

# material
mtllib rocketlauncher.mtl
usemtl palette

# normals
vn -1 0 0
vn 1 0 0
vn 0 0 1
vn 0 0 -1
vn 0 -1 0
vn 0 1 0

# texcoords
vt 0.939453 0.5
vt 0.970703 0.5
vt 0.974609 0.5
vt 0.978516 0.5
vt 0.982422 0.5
vt 0.986328 0.5
vt 0.990234 0.5
vt 0.994141 0.5

# verts
v -0.7 0.2 0.3
v -0.7 0.2 0.2
v -0.7 0.2 -0.1
v -0.7 0.2 -0.2
v -0.7 0.3 0.3
v -0.7 0.3 0.2
v -0.7 0.3 -0.1
v -0.7 0.3 -0.2
v -0.6 0.2 0.2
v -0.6 0.2 -0.1
v -0.6 0.3 0.2
v -0.6 0.3 -0.1
v -0.6 0.4 0.2
v -0.6 0.4 -0.1
v -0.5 0.1 0.1
v -0.5 0.1 0
v -0.5 0.2 0.1
v -0.5 0.2 0
v -0.5 0.4 0.1
v -0.5 0.4 0
v -0.5 0.5 0.1
v -0.5 0.5 0
v -0.4 0.3 0.3
v -0.4 0.3 0.2
v -0.4 0.3 -0.1
v -0.4 0.3 -0.2
v -0.4 0.4 0.2
v -0.4 0.4 -0.1
v -0.4 0.5 0.3
v -0.4 0.5 0.2
v -0.4 0.5 -0.1
v -0.4 0.5 -0.2
v -0.3 0.1 0.2
v -0.3 0.1 0.1
v -0.3 0.1 0
v -0.3 0.1 -0.1
v -0.3 0.2 0.2
v -0.3 0.2 0.1
v -0.3 0.2 0
v -0.3 0.2 -0.1
v -0.3 0.4 0.2
v -0.3 0.4 0.1
v -0.3 0.4 0
v -0.3 0.4 -0.1
v -0.3 0.5 0.2
v -0.3 0.5 0.1
v -0.3 0.5 0
v -0.3 0.5 -0.1
v -0.3 0.6 0.2
v -0.3 0.6 0.1
v -0.3 0.6 0
v -0.3 0.6 -0.1
v -0.2 0 0.1
v -0.2 0 0
v -0.2 0.1 0.1
v -0.2 0.1 0
v 0.3 0.2 0.2
v 0.3 0.2 0.1
v 0.3 0.3 0.2
v 0.3 0.3 0.1
v 0.3 0.4 0.3
v 0.3 0.4 0.2
v 0.3 0.5 0.3
v 0.3 0.5 0.2
v 0.4 0.2 0.3
v 0.4 0.2 0.2
v 0.4 0.3 0.3
v 0.4 0.3 0.2
v -0.2 0.5 0.2
v -0.2 0.5 0.1
v -0.2 0.5 0
v -0.2 0.5 -0.1
v -0.2 0.6 0.2
v -0.2 0.6 0.1
v -0.2 0.6 0
v -0.2 0.6 -0.1
v -0.1 0.2 0.3
v -0.1 0.2 0.2
v -0.1 0.3 0.3
v -0.1 0.3 0.2
v 0 0.2 0.2
v 0 0.2 0.1
v 0 0.3 0.2
v 0 0.3 0.1
v 0 0.4 0.3
v 0 0.4 0.2
v 0 0.5 0.3
v 0 0.5 0.2
v 0.1 0 0.1
v 0.1 0 0
v 0.1 0.1 0.1
v 0.1 0.1 0
v 0.2 0.2 -0.1
v 0.2 0.2 -0.2
v 0.2 0.3 -0.1
v 0.2 0.3 -0.2
v 0.4 0.4 0.2
v 0.4 0.4 0.1
v 0.4 0.4 0
v 0.4 0.4 -0.1
v 0.4 0.5 0.2
v 0.4 0.5 0.1
v 0.4 0.5 0
v 0.4 0.5 -0.1
v 0.5 0.1 0.2
v 0.5 0.1 0.1
v 0.5 0.1 0
v 0.5 0.1 -0.1
v 0.5 0.2 0.3
v 0.5 0.2 0.2
v 0.5 0.2 0.1
v 0.5 0.2 0
v 0.5 0.2 -0.1
v 0.5 0.3 0.3
v 0.5 0.3 0.2
v 0.5 0.4 0.3
v 0.5 0.4 0.2
v 0.5 0.4 0.1
v 0.5 0.4 0
v 0.5 0.4 -0.1
v 0.5 0.4 -0.2
v 0.5 0.5 0.3
v 0.5 0.5 0.2
v 0.5 0.5 0.1
v 0.5 0.5 0
v 0.5 0.5 -0.1
v 0.5 0.5 -0.2
v 0.6 0.2 0.2
v 0.6 0.2 0.1
v 0.6 0.2 0
v 0.6 0.2 -0.1
v 0.6 0.3 0.3
v 0.6 0.3 0.2
v 0.6 0.3 0.1
v 0.6 0.3 0
v 0.6 0.3 -0.1
v 0.6 0.3 -0.2
v 0.6 0.4 0.3
v 0.6 0.4 0.2
v 0.6 0.4 -0.1
v 0.6 0.4 -0.2
v -0.7 0.2 0.3
v -0.7 0.3 0.3
v -0.4 0.2 0.3
v -0.4 0.3 0.3
v -0.4 0.5 0.3
v -0.3 0.3 0.3
v -0.3 0.4 0.3
v -0.2 0.2 0.3
v -0.2 0.3 0.3
v -0.2 0.4 0.3
v -0.2 0.5 0.3
v -0.1 0.2 0.3
v -0.1 0.3 0.3
v -0.1 0.5 0.3
v 0 0.3 0.3
v 0 0.4 0.3
v 0 0.5 0.3
v 0.3 0.3 0.3
v 0.3 0.4 0.3
v 0.3 0.5 0.3
v 0.4 0.2 0.3
v 0.4 0.3 0.3
v 0.4 0.4 0.3
v 0.4 0.5 0.3
v 0.5 0.2 0.3
v 0.5 0.3 0.3
v 0.5 0.4 0.3
v 0.5 0.5 0.3
v 0.6 0.3 0.3
v 0.6 0.4 0.3
v -0.6 0.3 0.2
v -0.6 0.4 0.2
v -0.4 0.3 0.2
v -0.4 0.4 0.2
v -0.3 0.1 0.2
v -0.3 0.2 0.2
v -0.3 0.5 0.2
v -0.3 0.6 0.2
v -0.2 0.1 0.2
v -0.2 0.2 0.2
v -0.2 0.5 0.2
v -0.2 0.6 0.2
v -0.1 0.1 0.2
v -0.1 0.2 0.2
v -0.1 0.3 0.2
v 0 0.1 0.2
v 0 0.2 0.2
v 0 0.3 0.2
v 0 0.4 0.2
v 0 0.5 0.2
v 0.1 0.1 0.2
v 0.1 0.2 0.2
v 0.2 0.1 0.2
v 0.2 0.2 0.2
v 0.3 0.1 0.2
v 0.3 0.2 0.2
v 0.3 0.3 0.2
v 0.3 0.4 0.2
v 0.3 0.5 0.2
v 0.4 0.1 0.2
v 0.4 0.2 0.2
v 0.4 0.3 0.2
v 0.5 0.1 0.2
v 0.5 0.2 0.2
v 0.5 0.3 0.2
v 0.6 0.2 0.2
v 0.6 0.3 0.2
v -0.5 0.1 0.1
v -0.5 0.2 0.1
v -0.5 0.4 0.1
v -0.5 0.5 0.1
v -0.3 0.1 0.1
v -0.3 0.2 0.1
v -0.3 0.4 0.1
v -0.3 0.5 0.1
v -0.2 0 0.1
v -0.2 0.1 0.1
v -0.1 0 0.1
v -0.1 0.1 0.1
v 0 0.1 0.1
v 0 0.2 0.1
v 0 0.3 0.1
v 0.1 0 0.1
v 0.1 0.1 0.1
v 0.1 0.2 0.1
v 0.2 0.2 0.1
v 0.3 0.2 0.1
v 0.3 0.3 0.1
v 0.4 0.4 0.1
v 0.4 0.5 0.1
v 0.5 0.4 0.1
v 0.5 0.5 0.1
v -0.3 0.5 0
v -0.3 0.6 0
v -0.2 0.5 0
v -0.2 0.6 0
v -0.7 0.2 -0.1
v -0.7 0.3 -0.1
v -0.6 0.2 -0.1
v -0.6 0.3 -0.1
v -0.4 0.4 -0.1
v -0.4 0.5 -0.1
v -0.3 0.4 -0.1
v -0.3 0.5 -0.1
v 0.4 0.4 -0.1
v 0.4 0.5 -0.1
v 0.5 0.4 -0.1
v 0.5 0.5 -0.1
v -0.7 0.2 0.2
v -0.7 0.3 0.2
v -0.6 0.2 0.2
v -0.6 0.3 0.2
v -0.4 0.4 0.2
v -0.4 0.5 0.2
v -0.3 0.4 0.2
v -0.3 0.5 0.2
v 0.4 0.4 0.2
v 0.4 0.5 0.2
v 0.5 0.4 0.2
v 0.5 0.5 0.2
v -0.3 0.5 0.1
v -0.3 0.6 0.1
v -0.2 0.5 0.1
v -0.2 0.6 0.1
v -0.5 0.1 0
v -0.5 0.2 0
v -0.5 0.4 0
v -0.5 0.5 0
v -0.3 0.1 0
v -0.3 0.2 0
v -0.3 0.4 0
v -0.3 0.5 0
v -0.2 0 0
v -0.2 0.1 0
v -0.1 0 0
v -0.1 0.1 0
v 0 0.1 0
v 0.1 0 0
v 0.1 0.1 0
v 0.4 0.4 0
v 0.4 0.5 0
v 0.5 0.4 0
v 0.5 0.5 0
v -0.6 0.3 -0.1
v -0.6 0.4 -0.1
v -0.4 0.3 -0.1
v -0.4 0.4 -0.1
v -0.3 0.1 -0.1
v -0.3 0.2 -0.1
v -0.3 0.5 -0.1
v -0.3 0.6 -0.1
v -0.2 0.1 -0.1
v -0.2 0.2 -0.1
v -0.2 0.5 -0.1
v -0.2 0.6 -0.1
v -0.1 0.1 -0.1
v -0.1 0.2 -0.1
v 0 0.1 -0.1
v 0 0.2 -0.1
v 0.1 0.1 -0.1
v 0.1 0.2 -0.1
v 0.2 0.1 -0.1
v 0.2 0.2 -0.1
v 0.2 0.3 -0.1
v 0.3 0.1 -0.1
v 0.3 0.2 -0.1
v 0.3 0.3 -0.1
v 0.4 0.1 -0.1
v 0.4 0.2 -0.1
v 0.5 0.1 -0.1
v 0.5 0.2 -0.1
v 0.5 0.3 -0.1
v 0.6 0.2 -0.1
v 0.6 0.3 -0.1
v -0.7 0.2 -0.2
v -0.7 0.3 -0.2
v -0.4 0.2 -0.2
v -0.4 0.3 -0.2
v -0.4 0.5 -0.2
v -0.3 0.3 -0.2
v -0.3 0.4 -0.2
v -0.2 0.2 -0.2
v -0.2 0.3 -0.2
v -0.2 0.4 -0.2
v -0.2 0.5 -0.2
v -0.1 0.2 -0.2
v -0.1 0.5 -0.2
v 0 0.3 -0.2
v 0 0.4 -0.2
v 0 0.5 -0.2
v 0.2 0.2 -0.2
v 0.2 0.3 -0.2
v 0.3 0.3 -0.2
v 0.3 0.4 -0.2
v 0.3 0.5 -0.2
v 0.4 0.4 -0.2
v 0.4 0.5 -0.2
v 0.5 0.4 -0.2
v 0.5 0.5 -0.2
v 0.6 0.3 -0.2
v 0.6 0.4 -0.2
v -0.2 0 0.1
v -0.1 0 0.1
v 0.1 0 0.1
v -0.2 0 0
v -0.1 0 0
v 0.1 0 0
v -0.3 0.1 0.2
v -0.2 0.1 0.2
v -0.1 0.1 0.2
v 0 0.1 0.2
v 0.1 0.1 0.2
v 0.2 0.1 0.2
v 0.3 0.1 0.2
v 0.4 0.1 0.2
v 0.5 0.1 0.2
v -0.5 0.1 0.1
v -0.3 0.1 0.1
v -0.2 0.1 0.1
v -0.1 0.1 0.1
v 0 0.1 0.1
v 0.1 0.1 0.1
v 0.2 0.1 0.1
v 0.3 0.1 0.1
v 0.4 0.1 0.1
v 0.5 0.1 0.1
v -0.5 0.1 0
v -0.3 0.1 0
v -0.2 0.1 0
v -0.1 0.1 0
v 0 0.1 0
v 0.1 0.1 0
v 0.2 0.1 0
v 0.3 0.1 0
v 0.4 0.1 0
v 0.5 0.1 0
v -0.3 0.1 -0.1
v -0.2 0.1 -0.1
v -0.1 0.1 -0.1
v 0 0.1 -0.1
v 0.1 0.1 -0.1
v 0.2 0.1 -0.1
v 0.3 0.1 -0.1
v 0.4 0.1 -0.1
v 0.5 0.1 -0.1
v -0.7 0.2 0.3
v -0.4 0.2 0.3
v -0.2 0.2 0.3
v -0.1 0.2 0.3
v 0.4 0.2 0.3
v 0.5 0.2 0.3
v -0.7 0.2 0.2
v -0.6 0.2 0.2
v -0.4 0.2 0.2
v -0.3 0.2 0.2
v -0.2 0.2 0.2
v -0.1 0.2 0.2
v 0.4 0.2 0.2
v 0.5 0.2 0.2
v 0.6 0.2 0.2
v -0.5 0.2 0.1
v -0.3 0.2 0.1
v 0.5 0.2 0.1
v 0.6 0.2 0.1
v -0.5 0.2 0
v -0.3 0.2 0
v 0.5 0.2 0
v 0.6 0.2 0
v -0.7 0.2 -0.1
v -0.6 0.2 -0.1
v -0.4 0.2 -0.1
v -0.3 0.2 -0.1
v -0.2 0.2 -0.1
v -0.1 0.2 -0.1
v 0 0.2 -0.1
v 0.1 0.2 -0.1
v 0.2 0.2 -0.1
v 0.5 0.2 -0.1
v 0.6 0.2 -0.1
v -0.7 0.2 -0.2
v -0.4 0.2 -0.2
v -0.2 0.2 -0.2
v -0.1 0.2 -0.2
v 0.2 0.2 -0.2
v -0.1 0.3 0.3
v 0 0.3 0.3
v 0.3 0.3 0.3
v 0.4 0.3 0.3
v 0.5 0.3 0.3
v 0.6 0.3 0.3
v -0.1 0.3 0.2
v 0 0.3 0.2
v 0.3 0.3 0.2
v 0.4 0.3 0.2
v 0.5 0.3 0.2
v 0.6 0.3 0.2
v 0 0.3 0.1
v 0.3 0.3 0.1
v 0.2 0.3 -0.1
v 0.3 0.3 -0.1
v 0.5 0.3 -0.1
v 0.6 0.3 -0.1
v 0.2 0.3 -0.2
v 0.3 0.3 -0.2
v 0.6 0.3 -0.2
v 0 0.2 0.2
v 0.1 0.2 0.2
v 0.2 0.2 0.2
v 0.3 0.2 0.2
v 0 0.2 0.1
v 0.1 0.2 0.1
v 0.2 0.2 0.1
v 0.3 0.2 0.1
v -0.7 0.3 0.3
v -0.4 0.3 0.3
v -0.7 0.3 0.2
v -0.6 0.3 0.2
v -0.4 0.3 0.2
v -0.7 0.3 -0.1
v -0.6 0.3 -0.1
v -0.4 0.3 -0.1
v -0.7 0.3 -0.2
v -0.4 0.3 -0.2
v 0 0.4 0.3
v 0.3 0.4 0.3
v 0.5 0.4 0.3
v 0.6 0.4 0.3
v -0.6 0.4 0.2
v -0.4 0.4 0.2
v -0.3 0.4 0.2
v 0 0.4 0.2
v 0.3 0.4 0.2
v 0.4 0.4 0.2
v 0.5 0.4 0.2
v 0.6 0.4 0.2
v -0.5 0.4 0.1
v -0.3 0.4 0.1
v 0.4 0.4 0.1
v 0.5 0.4 0.1
v -0.5 0.4 0
v -0.3 0.4 0
v 0.4 0.4 0
v 0.5 0.4 0
v -0.6 0.4 -0.1
v -0.4 0.4 -0.1
v -0.3 0.4 -0.1
v 0.4 0.4 -0.1
v 0.5 0.4 -0.1
v 0.6 0.4 -0.1
v 0.5 0.4 -0.2
v 0.6 0.4 -0.2
v -0.4 0.5 0.3
v -0.2 0.5 0.3
v -0.1 0.5 0.3
v 0 0.5 0.3
v 0.3 0.5 0.3
v 0.4 0.5 0.3
v 0.5 0.5 0.3
v -0.4 0.5 0.2
v -0.3 0.5 0.2
v -0.2 0.5 0.2
v -0.1 0.5 0.2
v 0 0.5 0.2
v 0.3 0.5 0.2
v 0.4 0.5 0.2
v 0.5 0.5 0.2
v -0.5 0.5 0.1
v -0.3 0.5 0.1
v -0.2 0.5 0.1
v -0.1 0.5 0.1
v 0 0.5 0.1
v 0.3 0.5 0.1
v 0.4 0.5 0.1
v 0.5 0.5 0.1
v -0.5 0.5 0
v -0.3 0.5 0
v -0.2 0.5 0
v -0.1 0.5 0
v 0 0.5 0
v 0.3 0.5 0
v 0.4 0.5 0
v 0.5 0.5 0
v -0.4 0.5 -0.1
v -0.3 0.5 -0.1
v -0.2 0.5 -0.1
v -0.1 0.5 -0.1
v 0 0.5 -0.1
v 0.3 0.5 -0.1
v 0.4 0.5 -0.1
v 0.5 0.5 -0.1
v -0.4 0.5 -0.2
v -0.2 0.5 -0.2
v -0.1 0.5 -0.2
v 0 0.5 -0.2
v 0.3 0.5 -0.2
v 0.4 0.5 -0.2
v 0.5 0.5 -0.2
v -0.3 0.6 0.2
v -0.2 0.6 0.2
v -0.3 0.6 0.1
v -0.2 0.6 0.1
v -0.3 0.6 0
v -0.2 0.6 0
v -0.3 0.6 -0.1
v -0.2 0.6 -0.1

# faces
f 5/5/1 2/5/1 1/5/1
f 6/5/1 2/5/1 5/5/1
f 7/5/1 4/5/1 3/5/1
f 8/5/1 4/5/1 7/5/1
f 11/4/1 10/4/1 9/4/1
f 12/4/1 10/4/1 11/4/1
f 13/4/1 12/4/1 11/4/1
f 14/4/1 12/4/1 13/4/1
f 17/7/1 16/7/1 15/7/1
f 18/7/1 16/7/1 17/7/1
f 21/7/1 20/7/1 19/7/1
f 22/7/1 20/7/1 21/7/1
f 27/5/1 24/5/1 23/5/1
f 28/5/1 26/5/1 25/5/1
f 29/5/1 27/5/1 23/5/1
f 30/5/1 27/5/1 29/5/1
f 31/5/1 26/5/1 28/5/1
f 32/5/1 26/5/1 31/5/1
f 37/4/1 34/4/1 33/4/1
f 38/4/1 34/4/1 37/4/1
f 39/4/1 36/4/1 35/4/1
f 40/4/1 36/4/1 39/4/1
f 45/5/1 42/5/1 41/5/1
f 46/5/1 42/5/1 45/5/1
f 47/5/1 44/5/1 43/5/1
f 48/5/1 44/5/1 47/5/1
f 49/1/1 46/1/1 45/1/1
f 50/1/1 46/1/1 49/1/1
f 51/1/1 48/1/1 47/1/1
f 52/1/1 48/1/1 51/1/1
f 55/1/1 54/1/1 53/1/1
f 56/1/1 54/1/1 55/1/1
f 59/4/1 58/4/1 57/4/1
f 60/4/1 58/4/1 59/4/1
f 63/6/1 62/6/1 61/6/1
f 64/6/1 62/6/1 63/6/1
f 67/3/1 66/3/1 65/3/1
f 68/3/1 66/3/1 67/3/1
f 69/1/2 70/1/2 73/1/2
f 73/1/2 70/1/2 74/1/2
f 71/1/2 72/1/2 75/1/2
f 75/1/2 72/1/2 76/1/2
f 77/2/2 78/2/2 79/2/2
f 79/2/2 78/2/2 80/2/2
f 81/4/2 82/4/2 83/4/2
f 83/4/2 82/4/2 84/4/2
f 85/6/2 86/6/2 87/6/2
f 87/6/2 86/6/2 88/6/2
f 89/4/2 90/4/2 91/4/2
f 91/4/2 90/4/2 92/4/2
f 93/6/2 94/6/2 95/6/2
f 95/6/2 94/6/2 96/6/2
f 97/1/2 98/1/2 101/1/2
f 101/1/2 98/1/2 102/1/2
f 99/1/2 100/1/2 103/1/2
f 103/1/2 100/1/2 104/1/2
f 105/3/2 106/3/2 110/3/2
f 106/4/2 107/4/2 111/4/2
f 110/3/2 106/3/2 111/3/2
f 107/3/2 108/3/2 112/3/2
f 111/4/2 107/4/2 112/4/2
f 112/3/2 108/3/2 113/3/2
f 109/3/2 110/3/2 114/3/2
f 114/3/2 110/3/2 115/3/2
f 116/3/2 117/3/2 122/3/2
f 122/3/2 117/3/2 123/3/2
f 118/6/2 119/6/2 124/6/2
f 124/6/2 119/6/2 125/6/2
f 120/3/2 121/3/2 126/3/2
f 126/3/2 121/3/2 127/3/2
f 128/8/2 129/8/2 133/8/2
f 129/6/2 130/6/2 134/6/2
f 133/8/2 129/8/2 134/8/2
f 130/8/2 131/8/2 135/8/2
f 134/6/2 130/6/2 135/6/2
f 135/8/2 131/8/2 136/8/2
f 132/6/2 133/6/2 138/6/2
f 133/2/2 134/2/2 139/2/2
f 138/6/2 133/6/2 139/6/2
f 134/2/2 135/2/2 139/2/2
f 135/2/2 136/2/2 139/2/2
f 136/6/2 137/6/2 140/6/2
f 139/2/2 136/2/2 140/2/2
f 140/6/2 137/6/2 141/6/2
f 144/5/3 143/5/3 142/5/3
f 145/5/3 143/5/3 144/5/3
f 147/4/3 145/4/3 144/4/3
f 147/5/3 146/5/3 145/5/3
f 148/5/3 146/5/3 147/5/3
f 149/4/3 147/4/3 144/4/3
f 150/2/3 148/2/3 147/2/3
f 150/4/3 147/4/3 149/4/3
f 151/5/3 146/5/3 148/5/3
f 151/2/3 148/2/3 150/2/3
f 152/5/3 146/5/3 151/5/3
f 153/2/3 150/2/3 149/2/3
f 153/2/3 151/2/3 150/2/3
f 153/2/3 152/2/3 151/2/3
f 154/2/3 152/2/3 153/2/3
f 155/2/3 152/2/3 154/2/3
f 156/6/3 155/6/3 154/6/3
f 157/6/3 155/6/3 156/6/3
f 158/6/3 155/6/3 157/6/3
f 159/5/3 157/5/3 156/5/3
f 160/5/3 157/5/3 159/5/3
f 163/6/3 160/6/3 159/6/3
f 163/6/3 161/6/3 160/6/3
f 164/6/3 161/6/3 163/6/3
f 165/6/3 161/6/3 164/6/3
f 166/3/3 163/3/3 162/3/3
f 167/6/3 164/6/3 163/6/3
f 167/3/3 163/3/3 166/3/3
f 168/3/3 165/3/3 164/3/3
f 168/6/3 164/6/3 167/6/3
f 169/3/3 165/3/3 168/3/3
f 170/6/3 168/6/3 167/6/3
f 171/6/3 168/6/3 170/6/3
f 174/4/3 173/4/3 172/4/3
f 175/4/3 173/4/3 174/4/3
f 180/4/3 177/4/3 176/4/3
f 181/4/3 177/4/3 180/4/3
f 182/1/3 179/1/3 178/1/3
f 183/1/3 179/1/3 182/1/3
f 184/3/3 181/3/3 180/3/3
f 185/3/3 181/3/3 184/3/3
f 187/4/3 185/4/3 184/4/3
f 187/4/3 186/4/3 185/4/3
f 188/4/3 186/4/3 187/4/3
f 189/4/3 186/4/3 188/4/3
f 192/3/3 188/3/3 187/3/3
f 193/3/3 188/3/3 192/3/3
f 194/1/3 193/1/3 192/1/3
f 195/1/3 193/1/3 194/1/3
f 196/3/3 195/3/3 194/3/3
f 197/3/3 195/3/3 196/3/3
f 199/3/3 191/3/3 190/3/3
f 200/3/3 191/3/3 199/3/3
f 201/4/3 198/4/3 197/4/3
f 201/4/3 197/4/3 196/4/3
f 202/4/3 198/4/3 201/4/3
f 203/4/3 198/4/3 202/4/3
f 204/3/3 202/3/3 201/3/3
f 205/3/3 202/3/3 204/3/3
f 207/8/3 206/8/3 205/8/3
f 208/8/3 206/8/3 207/8/3
f 213/7/3 210/7/3 209/7/3
f 214/7/3 210/7/3 213/7/3
f 215/7/3 212/7/3 211/7/3
f 216/7/3 212/7/3 215/7/3
f 219/1/3 218/1/3 217/1/3
f 220/1/3 218/1/3 219/1/3
f 221/4/3 220/4/3 219/4/3
f 224/4/3 221/4/3 219/4/3
f 225/4/3 221/4/3 224/4/3
f 226/2/3 223/2/3 222/2/3
f 227/2/3 223/2/3 226/2/3
f 228/2/3 223/2/3 227/2/3
f 229/2/3 223/2/3 228/2/3
f 232/6/3 231/6/3 230/6/3
f 233/6/3 231/6/3 232/6/3
f 236/1/3 235/1/3 234/1/3
f 237/1/3 235/1/3 236/1/3
f 240/5/3 239/5/3 238/5/3
f 241/5/3 239/5/3 240/5/3
f 244/5/3 243/5/3 242/5/3
f 245/5/3 243/5/3 244/5/3
f 248/3/3 247/3/3 246/3/3
f 249/3/3 247/3/3 248/3/3
f 250/5/4 251/5/4 252/5/4
f 252/5/4 251/5/4 253/5/4
f 254/5/4 255/5/4 256/5/4
f 256/5/4 255/5/4 257/5/4
f 258/3/4 259/3/4 260/3/4
f 260/3/4 259/3/4 261/3/4
f 262/1/4 263/1/4 264/1/4
f 264/1/4 263/1/4 265/1/4
f 266/7/4 267/7/4 270/7/4
f 270/7/4 267/7/4 271/7/4
f 268/7/4 269/7/4 272/7/4
f 272/7/4 269/7/4 273/7/4
f 274/1/4 275/1/4 276/1/4
f 276/1/4 275/1/4 277/1/4
f 276/4/4 277/4/4 278/4/4
f 276/4/4 278/4/4 279/4/4
f 279/4/4 278/4/4 280/4/4
f 281/6/4 282/6/4 283/6/4
f 283/6/4 282/6/4 284/6/4
f 285/4/4 286/4/4 287/4/4
f 287/4/4 286/4/4 288/4/4
f 289/4/4 290/4/4 293/4/4
f 293/4/4 290/4/4 294/4/4
f 291/1/4 292/1/4 295/1/4
f 295/1/4 292/1/4 296/1/4
f 293/3/4 294/3/4 297/3/4
f 297/3/4 294/3/4 298/3/4
f 297/4/4 298/4/4 299/4/4
f 299/4/4 298/4/4 300/4/4
f 299/3/4 300/3/4 301/3/4
f 301/3/4 300/3/4 302/3/4
f 301/1/4 302/1/4 303/1/4
f 303/1/4 302/1/4 304/1/4
f 303/3/4 304/3/4 306/3/4
f 304/4/4 305/4/4 307/4/4
f 306/3/4 304/3/4 307/3/4
f 307/4/4 305/4/4 308/4/4
f 306/4/4 307/4/4 309/4/4
f 307/4/4 308/4/4 309/4/4
f 309/4/4 308/4/4 310/4/4
f 309/3/4 310/3/4 311/3/4
f 310/4/4 308/4/4 312/4/4
f 311/3/4 310/3/4 312/3/4
f 312/4/4 308/4/4 313/4/4
f 312/8/4 313/8/4 314/8/4
f 314/8/4 313/8/4 315/8/4
f 316/5/4 317/5/4 318/5/4
f 318/5/4 317/5/4 319/5/4
f 318/4/4 319/4/4 321/4/4
f 319/5/4 320/5/4 321/5/4
f 321/5/4 320/5/4 322/5/4
f 318/4/4 321/4/4 323/4/4
f 321/2/4 322/2/4 324/2/4
f 323/4/4 321/4/4 324/4/4
f 322/5/4 320/5/4 325/5/4
f 324/2/4 322/2/4 325/2/4
f 325/5/4 320/5/4 326/5/4
f 323/2/4 324/2/4 327/2/4
f 324/2/4 325/2/4 327/2/4
f 325/2/4 326/2/4 327/2/4
f 327/2/4 326/2/4 328/2/4
f 327/6/4 328/6/4 329/6/4
f 329/6/4 328/6/4 330/6/4
f 330/6/4 328/6/4 331/6/4
f 327/6/4 329/6/4 332/6/4
f 329/3/4 330/3/4 333/3/4
f 332/6/4 329/6/4 333/6/4
f 333/3/4 330/3/4 334/3/4
f 330/5/4 331/5/4 335/5/4
f 334/3/4 330/3/4 335/3/4
f 335/5/4 331/5/4 336/5/4
f 334/6/4 335/6/4 337/6/4
f 335/6/4 336/6/4 337/6/4
f 337/6/4 336/6/4 338/6/4
f 334/6/4 337/6/4 339/6/4
f 337/3/4 338/3/4 339/3/4
f 339/3/4 338/3/4 340/3/4
f 334/6/4 339/6/4 341/6/4
f 341/6/4 339/6/4 342/6/4
f 346/1/5 344/1/5 343/1/5
f 347/4/5 345/4/5 344/4/5
f 347/1/5 344/1/5 346/1/5
f 348/4/5 345/4/5 347/4/5
f 359/4/5 350/4/5 349/4/5
f 360/3/5 351/3/5 350/3/5
f 360/4/5 350/4/5 359/4/5
f 361/4/5 352/4/5 351/4/5
f 361/3/5 351/3/5 360/3/5
f 362/3/5 353/3/5 352/3/5
f 362/4/5 352/4/5 361/4/5
f 363/1/5 354/1/5 353/1/5
f 363/3/5 353/3/5 362/3/5
f 364/3/5 355/3/5 354/3/5
f 364/1/5 354/1/5 363/1/5
f 365/4/5 356/4/5 355/4/5
f 365/3/5 355/3/5 364/3/5
f 366/3/5 357/3/5 356/3/5
f 366/4/5 356/4/5 365/4/5
f 367/3/5 357/3/5 366/3/5
f 368/7/5 359/7/5 358/7/5
f 368/7/5 360/7/5 359/7/5
f 369/7/5 360/7/5 368/7/5
f 370/7/5 360/7/5 369/7/5
f 373/5/5 365/5/5 364/5/5
f 373/5/5 364/5/5 363/5/5
f 374/5/5 365/5/5 373/5/5
f 375/8/5 366/8/5 365/8/5
f 375/5/5 365/5/5 374/5/5
f 376/4/5 367/4/5 366/4/5
f 376/8/5 366/8/5 375/8/5
f 377/4/5 367/4/5 376/4/5
f 378/4/5 370/4/5 369/4/5
f 379/3/5 371/3/5 370/3/5
f 379/4/5 370/4/5 378/4/5
f 380/4/5 372/4/5 371/4/5
f 380/3/5 371/3/5 379/3/5
f 381/3/5 373/3/5 372/3/5
f 381/4/5 372/4/5 380/4/5
f 382/1/5 374/1/5 373/1/5
f 382/3/5 373/3/5 381/3/5
f 383/3/5 375/3/5 374/3/5
f 383/1/5 374/1/5 382/1/5
f 384/4/5 376/4/5 375/4/5
f 384/3/5 375/3/5 383/3/5
f 385/3/5 377/3/5 376/3/5
f 385/4/5 376/4/5 384/4/5
f 386/3/5 377/3/5 385/3/5
f 393/5/5 388/5/5 387/5/5
f 394/5/5 388/5/5 393/5/5
f 395/4/5 389/4/5 388/4/5
f 395/5/5 388/5/5 394/5/5
f 396/4/5 389/4/5 395/4/5
f 397/2/5 390/2/5 389/2/5
f 397/4/5 389/4/5 396/4/5
f 398/2/5 390/2/5 397/2/5
f 399/3/5 392/3/5 391/3/5
f 400/3/5 392/3/5 399/3/5
f 402/4/5 396/4/5 395/4/5
f 402/4/5 395/4/5 394/4/5
f 403/4/5 396/4/5 402/4/5
f 404/8/5 401/8/5 400/8/5
f 405/8/5 401/8/5 404/8/5
f 406/4/5 402/4/5 394/4/5
f 408/6/5 405/6/5 404/6/5
f 409/6/5 405/6/5 408/6/5
f 411/4/5 407/4/5 406/4/5
f 411/4/5 406/4/5 394/4/5
f 412/4/5 407/4/5 411/4/5
f 413/4/5 407/4/5 412/4/5
f 419/8/5 409/8/5 408/8/5
f 420/8/5 409/8/5 419/8/5
f 421/5/5 411/5/5 410/5/5
f 421/5/5 412/5/5 411/5/5
f 422/4/5 413/4/5 412/4/5
f 422/5/5 412/5/5 421/5/5
f 422/4/5 414/4/5 413/4/5
f 423/2/5 415/2/5 414/2/5
f 423/4/5 414/4/5 422/4/5
f 424/6/5 418/6/5 417/6/5
f 424/2/5 415/2/5 423/2/5
f 424/6/5 417/6/5 416/6/5
f 424/6/5 416/6/5 415/6/5
f 425/6/5 418/6/5 424/6/5
f 432/6/5 427/6/5 426/6/5
f 433/5/5 428/5/5 427/5/5
f 433/6/5 427/6/5 432/6/5
f 434/6/5 429/6/5 428/6/5
f 434/5/5 428/5/5 433/5/5
f 435/6/5 429/6/5 434/6/5
f 436/6/5 431/6/5 430/6/5
f 437/6/5 431/6/5 436/6/5
f 438/2/5 434/2/5 433/2/5
f 439/2/5 434/2/5 438/2/5
f 444/3/5 441/3/5 440/3/5
f 445/6/5 443/6/5 442/6/5
f 445/3/5 441/3/5 444/3/5
f 445/6/5 442/6/5 441/6/5
f 446/6/5 443/6/5 445/6/5
f 447/3/6 448/3/6 451/3/6
f 448/1/6 449/1/6 452/1/6
f 451/3/6 448/3/6 452/3/6
f 449/3/6 450/3/6 453/3/6
f 452/1/6 449/1/6 453/1/6
f 453/3/6 450/3/6 454/3/6
f 455/5/6 456/5/6 457/5/6
f 457/5/6 456/5/6 458/5/6
f 458/5/6 456/5/6 459/5/6
f 460/5/6 461/5/6 463/5/6
f 461/5/6 462/5/6 463/5/6
f 463/5/6 462/5/6 464/5/6
f 465/5/6 466/5/6 472/5/6
f 472/5/6 466/5/6 473/5/6
f 467/6/6 468/6/6 475/6/6
f 475/6/6 468/6/6 476/6/6
f 470/4/6 471/4/6 477/4/6
f 469/4/6 470/4/6 477/4/6
f 477/4/6 471/4/6 478/4/6
f 474/3/6 475/3/6 479/3/6
f 475/2/6 476/2/6 480/2/6
f 479/3/6 475/3/6 480/3/6
f 469/4/6 477/4/6 481/4/6
f 480/2/6 476/2/6 484/2/6
f 481/4/6 482/4/6 485/4/6
f 469/4/6 481/4/6 485/4/6
f 485/4/6 482/4/6 486/4/6
f 486/4/6 482/4/6 487/4/6
f 483/3/6 484/3/6 488/3/6
f 484/2/6 476/2/6 489/2/6
f 488/3/6 484/3/6 489/3/6
f 489/2/6 476/2/6 490/2/6
f 489/6/6 490/6/6 491/6/6
f 491/6/6 490/6/6 492/6/6
f 493/5/6 494/5/6 500/5/6
f 500/5/6 494/5/6 501/5/6
f 494/2/6 495/2/6 502/2/6
f 501/5/6 494/5/6 502/5/6
f 495/6/6 496/6/6 503/6/6
f 502/2/6 495/2/6 503/2/6
f 503/6/6 496/6/6 504/6/6
f 497/6/6 498/6/6 505/6/6
f 498/3/6 499/3/6 506/3/6
f 505/6/6 498/6/6 506/6/6
f 506/3/6 499/3/6 507/3/6
f 502/3/6 503/3/6 510/3/6
f 503/1/6 504/1/6 511/1/6
f 510/3/6 503/3/6 511/3/6
f 504/3/6 505/3/6 512/3/6
f 511/1/6 504/1/6 512/1/6
f 505/1/6 506/1/6 513/1/6
f 512/3/6 505/3/6 513/3/6
f 513/1/6 506/1/6 514/1/6
f 509/7/6 510/7/6 516/7/6
f 508/7/6 509/7/6 516/7/6
f 516/7/6 510/7/6 517/7/6
f 510/6/6 511/6/6 518/6/6
f 517/7/6 510/7/6 518/7/6
f 511/6/6 512/6/6 518/6/6
f 518/6/6 512/6/6 519/6/6
f 512/1/6 513/1/6 520/1/6
f 519/6/6 512/6/6 520/6/6
f 514/6/6 515/6/6 521/6/6
f 520/1/6 513/1/6 521/1/6
f 513/6/6 514/6/6 521/6/6
f 521/6/6 515/6/6 522/6/6
f 522/6/6 515/6/6 523/6/6
f 518/3/6 519/3/6 526/3/6
f 519/1/6 520/1/6 527/1/6
f 526/3/6 519/3/6 527/3/6
f 520/3/6 521/3/6 528/3/6
f 527/1/6 520/1/6 528/1/6
f 521/1/6 522/1/6 529/1/6
f 528/3/6 521/3/6 529/3/6
f 529/1/6 522/1/6 530/1/6
f 525/5/6 526/5/6 532/5/6
f 524/5/6 525/5/6 532/5/6
f 526/2/6 527/2/6 533/2/6
f 532/5/6 526/5/6 533/5/6
f 527/6/6 528/6/6 534/6/6
f 533/2/6 527/2/6 534/2/6
f 528/5/6 529/5/6 535/5/6
f 534/6/6 528/6/6 535/6/6
f 529/6/6 530/6/6 536/6/6
f 535/5/6 529/5/6 536/5/6
f 530/3/6 531/3/6 537/3/6
f 536/6/6 530/6/6 537/6/6
f 537/3/6 531/3/6 538/3/6
f 539/1/6 540/1/6 541/1/6
f 541/1/6 540/1/6 542/1/6
f 543/1/6 544/1/6 545/1/6
f 545/1/6 544/1/6 546/1/6
