# MagicaVoxel @ Ephtracy

# group
o 

# material
mtllib FlyingDroneBot_LOD1-0.mtl
usemtl palette

# normals
vn -1 0 0
vn 1 0 0
vn 0 0 1
vn 0 0 -1
vn 0 -1 0
vn 0 1 0

# texcoords
vt 0.970703 0.5
vt 0.974609 0.5
vt 0.978516 0.5

# verts
v 0 0 0.5
v 0 0 0
v 0 0 -0.1
v 0 0 -0.2
v 0 0.1 0.4
v 0 0.1 0.2
v 0 0.1 0
v 0 0.1 -0.1
v 0 0.1 -0.2
v 0 0.1 -0.3
v 0 0.2 0.5
v 0 0.2 0.4
v 0 0.2 0.2
v 0 0.2 0.1
v 0 0.2 0
v 0 0.2 -0.1
v 0 0.2 -0.3
v 0 0.2 -0.4
v 0 0.3 -0.2
v 0 0.3 -0.4
v 0 0.4 0.5
v 0 0.4 0.4
v 0 0.4 0.2
v 0 0.4 0.1
v 0 0.5 0.4
v 0 0.5 0.2
v 0 0.5 -0.2
v 0 0.6 0.5
v 0 0.6 0.2
v 0.1 0.2 0.5
v 0.1 0.2 0.4
v 0.1 0.2 0.2
v 0.1 0.3 -0.2
v 0.1 0.3 -0.4
v 0.1 0.4 0.5
v 0.1 0.4 0.4
v 0.1 0.4 0.2
v 0.1 0.5 -0.2
v 0.1 0.5 -0.4
v 0.2 0 0.3
v 0.2 0 0.1
v 0.2 0 -0.2
v 0.2 0 -0.5
v 0.2 0.1 0.3
v 0.2 0.1 0.1
v 0.2 0.2 -0.2
v 0.2 0.2 -0.4
v 0.2 0.3 -0.4
v 0.2 0.5 0.5
v 0.2 0.5 0.3
v 0.2 0.5 0.1
v 0.2 0.5 -0.4
v 0.2 0.6 0.5
v 0.2 0.6 0.1
v 0.2 0.6 -0.5
v 0.3 0 0.5
v 0.3 0 0.3
v 0.3 0.1 0.5
v 0.3 0.1 0.4
v 0.3 0.1 0.3
v 0.3 0.6 0.5
v 0.3 0.6 0.1
v 0.3 0.6 -0.5
v 0.3 0.7 0.5
v 0.3 0.7 0.1
v 0.3 0.7 -0.3
v 0.3 0.8 0.1
v 0.3 0.8 -0.3
v 0.3 0.8 -0.5
v 0.4 0.1 0.5
v 0.4 0.1 0.4
v 0.4 0.2 0.5
v 0.4 0.2 0.4
v 0.4 0.7 0.3
v 0.4 0.7 0.1
v 0.4 0.8 0.3
v 0.4 0.8 0.1
v 0.4 0.8 0
v 0.4 0.8 -0.3
v 0.4 0.8 -0.5
v 0.4 0.9 0
v 0.4 0.9 -0.5
v 0.5 0 0.1
v 0.5 0 -0.1
v 0.5 0.1 0.1
v 0.5 0.1 -0.1
v 0.5 0.2 0.5
v 0.5 0.2 0.4
v 0.5 0.5 0.5
v 0.5 0.5 0.4
v 0.5 0.7 0.5
v 0.5 0.7 0.3
v 0.5 0.8 0.3
v 0.5 0.8 0
v 0.5 0.9 0
v 0.5 0.9 -0.5
v 0.5 1 0.5
v 0.5 1 -0.5
v 0.6 0 0.3
v 0.6 0 0.2
v 0.6 0 -0.2
v 0.6 0 -0.3
v 0.6 0.1 0.3
v 0.6 0.1 0.2
v 0.6 0.1 -0.2
v 0.6 0.1 -0.3
v 0.7 0 0.5
v 0.7 0 0.3
v 0.7 0 -0.3
v 0.7 0 -0.5
v 0.7 0.1 0.4
v 0.7 0.1 0.3
v 0.7 0.1 -0.3
v 0.7 0.1 -0.4
v 0.7 0.5 0.5
v 0.7 0.5 0.4
v 0.7 0.5 -0.4
v 0.7 0.5 -0.5
v 0.7 0.6 0.5
v 0.7 0.6 0.4
v 0.7 0.6 -0.4
v 0.7 0.6 -0.5
v 0.7 0.9 0.5
v 0.7 0.9 0.4
v 0.7 0.9 -0.4
v 0.7 0.9 -0.5
v 0.1 0 0.5
v 0.1 0 0
v 0.1 0.1 0.5
v 0.1 0.1 0
v 0.1 0.1 -0.2
v 0.1 0.1 -0.3
v 0.1 0.2 -0.2
v 0.1 0.2 -0.3
v 0.1 0.5 0.5
v 0.1 0.5 0.3
v 0.1 0.5 0.2
v 0.1 0.6 0.5
v 0.1 0.6 0.2
v 0.2 0.1 0.5
v 0.2 0.1 0.4
v 0.2 0.2 0.5
v 0.2 0.2 0.4
v 0.3 0.1 -0.4
v 0.3 0.1 -0.5
v 0.3 0.2 0.5
v 0.3 0.2 0.4
v 0.3 0.2 -0.4
v 0.3 0.2 -0.5
v 0.3 0.3 0.5
v 0.3 0.3 0.4
v 0.4 0 0.2
v 0.4 0 0.1
v 0.4 0 -0.1
v 0.4 0 -0.2
v 0.4 0.1 0.2
v 0.4 0.1 0.1
v 0.4 0.1 -0.1
v 0.4 0.1 -0.2
v 0.4 0.3 0.5
v 0.4 0.3 0.4
v 0.4 0.6 0.5
v 0.4 0.6 0.4
v 0.5 0 0.4
v 0.5 0 0.2
v 0.5 0 -0.2
v 0.5 0 -0.4
v 0.5 0.1 0.4
v 0.5 0.1 0.2
v 0.5 0.1 -0.2
v 0.5 0.1 -0.4
v 0.6 0 0.5
v 0.6 0 0.4
v 0.6 0 -0.4
v 0.6 0 -0.5
v 0.6 0.1 0.4
v 0.6 0.1 -0.4
v 0.6 0.1 -0.5
v 0.6 0.2 -0.4
v 0.6 0.2 -0.5
v 0.6 0.5 0.5
v 0.6 0.5 0.4
v 0.6 0.6 0.5
v 0.6 0.6 0.4
v 0.6 0.9 0.5
v 0.6 0.9 0.4
v 0.6 0.9 -0.4
v 0.6 0.9 -0.5
v 0.7 0.1 0.2
v 0.7 0.1 0.1
v 0.7 0.1 -0.1
v 0.7 0.1 -0.2
v 0.7 0.5 0.4
v 0.7 0.5 0.2
v 0.7 0.5 -0.2
v 0.7 0.5 -0.4
v 0.7 0.6 0.4
v 0.7 0.6 0.2
v 0.7 0.6 0.1
v 0.7 0.6 -0.1
v 0.7 0.6 -0.2
v 0.7 0.6 -0.4
v 0.7 0.7 0.2
v 0.7 0.7 0.1
v 0.7 0.7 -0.1
v 0.7 0.7 -0.2
v 0.7 0.9 0.1
v 0.7 0.9 -0.1
v 0.8 0 0.5
v 0.8 0 0.2
v 0.8 0 0.1
v 0.8 0 -0.1
v 0.8 0 -0.2
v 0.8 0 -0.5
v 0.8 0.5 0.5
v 0.8 0.5 0.2
v 0.8 0.5 -0.2
v 0.8 0.5 -0.5
v 0.8 0.6 0.5
v 0.8 0.6 0.2
v 0.8 0.6 0.1
v 0.8 0.6 -0.1
v 0.8 0.6 -0.2
v 0.8 0.6 -0.5
v 0.8 0.7 0.2
v 0.8 0.7 0.1
v 0.8 0.7 -0.1
v 0.8 0.7 -0.2
v 0.8 0.9 0.1
v 0.8 0.9 -0.1
v 0.8 1 0.5
v 0.8 1 -0.5
v 0 0 0.5
v 0 0.2 0.5
v 0 0.4 0.5
v 0 0.6 0.5
v 0.1 0 0.5
v 0.1 0.1 0.5
v 0.1 0.2 0.5
v 0.1 0.4 0.5
v 0.1 0.5 0.5
v 0.1 0.6 0.5
v 0.2 0.1 0.5
v 0.2 0.2 0.5
v 0.2 0.4 0.5
v 0.2 0.5 0.5
v 0.2 0.6 0.5
v 0.3 0 0.5
v 0.3 0.1 0.5
v 0.3 0.2 0.5
v 0.3 0.3 0.5
v 0.3 0.5 0.5
v 0.3 0.6 0.5
v 0.3 0.7 0.5
v 0.4 0.1 0.5
v 0.4 0.2 0.5
v 0.4 0.3 0.5
v 0.4 0.6 0.5
v 0.5 0.2 0.5
v 0.5 0.5 0.5
v 0.5 0.7 0.5
v 0.5 1 0.5
v 0.6 0 0.5
v 0.6 0.5 0.5
v 0.6 0.6 0.5
v 0.6 0.9 0.5
v 0.7 0 0.5
v 0.7 0.5 0.5
v 0.7 0.6 0.5
v 0.7 0.9 0.5
v 0.8 0 0.5
v 0.8 0.5 0.5
v 0.8 0.6 0.5
v 0.8 1 0.5
v 0.2 0.1 0.4
v 0.2 0.2 0.4
v 0.3 0.1 0.4
v 0.3 0.2 0.4
v 0.3 0.3 0.4
v 0.4 0.1 0.4
v 0.4 0.2 0.4
v 0.4 0.3 0.4
v 0.4 0.6 0.4
v 0.5 0.2 0.4
v 0.5 0.5 0.4
v 0.6 0.1 0.4
v 0.6 0.5 0.4
v 0.6 0.6 0.4
v 0.6 0.9 0.4
v 0.7 0.1 0.4
v 0.7 0.5 0.4
v 0.7 0.6 0.4
v 0.7 0.9 0.4
v 0.2 0 0.3
v 0.2 0.1 0.3
v 0.3 0 0.3
v 0.3 0.1 0.3
v 0.4 0.7 0.3
v 0.4 0.8 0.3
v 0.5 0.7 0.3
v 0.5 0.8 0.3
v 0.6 0 0.3
v 0.6 0.1 0.3
v 0.7 0 0.3
v 0.7 0.1 0.3
v 0 0.2 0.2
v 0 0.4 0.2
v 0.1 0.2 0.2
v 0.1 0.4 0.2
v 0.3 0.7 0.1
v 0.3 0.8 0.1
v 0.4 0.7 0.1
v 0.4 0.8 0.1
v 0.5 0 0.1
v 0.5 0.1 0.1
v 0.7 0.1 0.1
v 0.7 0.6 0.1
v 0.8 0 0.1
v 0.8 0.6 0.1
v 0.4 0.8 0
v 0.4 0.9 0
v 0.5 0.8 0
v 0.5 0.9 0
v 0 0 -0.1
v 0 0.1 -0.1
v 0.2 0 -0.1
v 0.2 0.1 -0.1
v 0.4 0 -0.1
v 0.4 0.1 -0.1
v 0.7 0.7 -0.1
v 0.7 0.9 -0.1
v 0.8 0.7 -0.1
v 0.8 0.9 -0.1
v 0.4 0 -0.2
v 0.4 0.1 -0.2
v 0.5 0 -0.2
v 0.5 0.1 -0.2
v 0.6 0 -0.2
v 0.6 0.1 -0.2
v 0.7 0.1 -0.2
v 0.7 0.5 -0.2
v 0.7 0.6 -0.2
v 0.7 0.7 -0.2
v 0.8 0 -0.2
v 0.8 0.5 -0.2
v 0.8 0.6 -0.2
v 0.8 0.7 -0.2
v 0.5 0 -0.4
v 0.5 0.1 -0.4
v 0.6 0 -0.4
v 0.6 0.1 -0.4
v 0.5 0 0.4
v 0.5 0.1 0.4
v 0.6 0 0.4
v 0.6 0.1 0.4
v 0 0.5 0.2
v 0 0.6 0.2
v 0.1 0.5 0.2
v 0.1 0.6 0.2
v 0.4 0 0.2
v 0.4 0.1 0.2
v 0.5 0 0.2
v 0.5 0.1 0.2
v 0.6 0 0.2
v 0.6 0.1 0.2
v 0.7 0.1 0.2
v 0.7 0.5 0.2
v 0.7 0.6 0.2
v 0.7 0.7 0.2
v 0.8 0 0.2
v 0.8 0.5 0.2
v 0.8 0.6 0.2
v 0.8 0.7 0.2
v 0.2 0 0.1
v 0.2 0.1 0.1
v 0.4 0 0.1
v 0.4 0.1 0.1
v 0.7 0.7 0.1
v 0.7 0.9 0.1
v 0.8 0.7 0.1
v 0.8 0.9 0.1
v 0 0 0
v 0 0.1 0
v 0.1 0 0
v 0.1 0.1 0
v 0.5 0 -0.1
v 0.5 0.1 -0.1
v 0.7 0.1 -0.1
v 0.7 0.6 -0.1
v 0.8 0 -0.1
v 0.8 0.6 -0.1
v 0 0 -0.2
v 0 0.1 -0.2
v 0 0.3 -0.2
v 0 0.5 -0.2
v 0.1 0.1 -0.2
v 0.1 0.2 -0.2
v 0.1 0.3 -0.2
v 0.1 0.5 -0.2
v 0.2 0 -0.2
v 0.2 0.2 -0.2
v 0 0.1 -0.3
v 0 0.2 -0.3
v 0.1 0.1 -0.3
v 0.1 0.2 -0.3
v 0.6 0 -0.3
v 0.6 0.1 -0.3
v 0.7 0 -0.3
v 0.7 0.1 -0.3
v 0 0.2 -0.4
v 0 0.3 -0.4
v 0.1 0.3 -0.4
v 0.1 0.5 -0.4
v 0.2 0.2 -0.4
v 0.2 0.3 -0.4
v 0.2 0.5 -0.4
v 0.3 0.1 -0.4
v 0.3 0.2 -0.4
v 0.6 0.1 -0.4
v 0.6 0.2 -0.4
v 0.6 0.9 -0.4
v 0.7 0.1 -0.4
v 0.7 0.5 -0.4
v 0.7 0.6 -0.4
v 0.7 0.9 -0.4
v 0.2 0 -0.5
v 0.2 0.6 -0.5
v 0.3 0.1 -0.5
v 0.3 0.2 -0.5
v 0.3 0.6 -0.5
v 0.3 0.8 -0.5
v 0.4 0.8 -0.5
v 0.4 0.9 -0.5
v 0.5 0.9 -0.5
v 0.5 1 -0.5
v 0.6 0 -0.5
v 0.6 0.1 -0.5
v 0.6 0.2 -0.5
v 0.6 0.9 -0.5
v 0.7 0 -0.5
v 0.7 0.5 -0.5
v 0.7 0.6 -0.5
v 0.7 0.9 -0.5
v 0.8 0 -0.5
v 0.8 0.5 -0.5
v 0.8 0.6 -0.5
v 0.8 1 -0.5
v 0 0 0.5
v 0.1 0 0.5
v 0.3 0 0.5
v 0.6 0 0.5
v 0.7 0 0.5
v 0.8 0 0.5
v 0.5 0 0.4
v 0.6 0 0.4
v 0.2 0 0.3
v 0.3 0 0.3
v 0.6 0 0.3
v 0.7 0 0.3
v 0.4 0 0.2
v 0.5 0 0.2
v 0.6 0 0.2
v 0.8 0 0.2
v 0.2 0 0.1
v 0.4 0 0.1
v 0.5 0 0.1
v 0.8 0 0.1
v 0 0 0
v 0.1 0 0
v 0 0 -0.1
v 0.2 0 -0.1
v 0.4 0 -0.1
v 0.5 0 -0.1
v 0.8 0 -0.1
v 0 0 -0.2
v 0.2 0 -0.2
v 0.4 0 -0.2
v 0.5 0 -0.2
v 0.6 0 -0.2
v 0.8 0 -0.2
v 0.6 0 -0.3
v 0.7 0 -0.3
v 0.5 0 -0.4
v 0.6 0 -0.4
v 0.2 0 -0.5
v 0.6 0 -0.5
v 0.7 0 -0.5
v 0.8 0 -0.5
v 0.1 0.1 0.5
v 0.2 0.1 0.5
v 0.2 0.1 0.4
v 0.3 0.1 0.4
v 0.5 0.1 0.4
v 0.6 0.1 0.4
v 0.7 0.1 0.4
v 0.2 0.1 0.3
v 0.3 0.1 0.3
v 0.6 0.1 0.3
v 0.7 0.1 0.3
v 0.4 0.1 0.2
v 0.5 0.1 0.2
v 0.6 0.1 0.2
v 0.7 0.1 0.2
v 0.2 0.1 0.1
v 0.4 0.1 0.1
v 0.5 0.1 0.1
v 0.7 0.1 0.1
v 0 0.1 0
v 0.1 0.1 0
v 0 0.1 -0.1
v 0.2 0.1 -0.1
v 0.4 0.1 -0.1
v 0.5 0.1 -0.1
v 0.7 0.1 -0.1
v 0 0.1 -0.2
v 0.1 0.1 -0.2
v 0.4 0.1 -0.2
v 0.5 0.1 -0.2
v 0.6 0.1 -0.2
v 0.7 0.1 -0.2
v 0 0.1 -0.3
v 0.1 0.1 -0.3
v 0.6 0.1 -0.3
v 0.7 0.1 -0.3
v 0.5 0.1 -0.4
v 0.6 0.1 -0.4
v 0.7 0.1 -0.4
v 0.2 0.2 0.5
v 0.3 0.2 0.5
v 0.2 0.2 0.4
v 0.3 0.2 0.4
v 0.1 0.2 -0.2
v 0.2 0.2 -0.2
v 0 0.2 -0.3
v 0.1 0.2 -0.3
v 0 0.2 -0.4
v 0.2 0.2 -0.4
v 0.3 0.2 -0.4
v 0.6 0.2 -0.4
v 0.3 0.2 -0.5
v 0.6 0.2 -0.5
v 0.3 0.3 0.5
v 0.4 0.3 0.5
v 0.3 0.3 0.4
v 0.4 0.3 0.4
v 0 0.4 0.5
v 0.1 0.4 0.5
v 0 0.4 0.4
v 0.1 0.4 0.4
v 0 0.4 0.2
v 0.1 0.4 0.2
v 0.4 0.6 0.5
v 0.6 0.6 0.5
v 0.7 0.6 0.5
v 0.8 0.6 0.5
v 0.4 0.6 0.4
v 0.6 0.6 0.4
v 0.7 0.6 0.4
v 0.7 0.6 0.2
v 0.8 0.6 0.2
v 0.7 0.6 -0.2
v 0.8 0.6 -0.2
v 0.7 0.6 -0.4
v 0.7 0.6 -0.5
v 0.8 0.6 -0.5
v 0.7 0.7 0.2
v 0.8 0.7 0.2
v 0.7 0.7 0.1
v 0.8 0.7 0.1
v 0.7 0.7 -0.1
v 0.8 0.7 -0.1
v 0.7 0.7 -0.2
v 0.8 0.7 -0.2
v 0.6 0.9 0.5
v 0.7 0.9 0.5
v 0.6 0.9 0.4
v 0.7 0.9 0.4
v 0.7 0.9 0.1
v 0.8 0.9 0.1
v 0.7 0.9 -0.1
v 0.8 0.9 -0.1
v 0.6 0.9 -0.4
v 0.7 0.9 -0.4
v 0.6 0.9 -0.5
v 0.7 0.9 -0.5
v 0.3 0.1 0.5
v 0.4 0.1 0.5
v 0.3 0.1 0.4
v 0.4 0.1 0.4
v 0.3 0.1 -0.4
v 0.6 0.1 -0.4
v 0.3 0.1 -0.5
v 0.6 0.1 -0.5
v 0 0.2 0.5
v 0.1 0.2 0.5
v 0.4 0.2 0.5
v 0.5 0.2 0.5
v 0 0.2 0.4
v 0.1 0.2 0.4
v 0.4 0.2 0.4
v 0.5 0.2 0.4
v 0 0.2 0.2
v 0.1 0.2 0.2
v 0 0.3 -0.2
v 0.1 0.3 -0.2
v 0 0.3 -0.4
v 0.1 0.3 -0.4
v 0.1 0.5 0.5
v 0.2 0.5 0.5
v 0.5 0.5 0.5
v 0.6 0.5 0.5
v 0.7 0.5 0.5
v 0.8 0.5 0.5
v 0.5 0.5 0.4
v 0.6 0.5 0.4
v 0.7 0.5 0.4
v 0.1 0.5 0.3
v 0.2 0.5 0.3
v 0 0.5 0.2
v 0.1 0.5 0.2
v 0.7 0.5 0.2
v 0.8 0.5 0.2
v 0.2 0.5 0.1
v 0 0.5 -0.2
v 0.1 0.5 -0.2
v 0.7 0.5 -0.2
v 0.8 0.5 -0.2
v 0.1 0.5 -0.4
v 0.2 0.5 -0.4
v 0.7 0.5 -0.4
v 0.7 0.5 -0.5
v 0.8 0.5 -0.5
v 0 0.6 0.5
v 0.1 0.6 0.5
v 0.2 0.6 0.5
v 0.3 0.6 0.5
v 0 0.6 0.2
v 0.1 0.6 0.2
v 0.2 0.6 0.1
v 0.3 0.6 0.1
v 0.7 0.6 0.1
v 0.8 0.6 0.1
v 0.7 0.6 -0.1
v 0.8 0.6 -0.1
v 0.2 0.6 -0.5
v 0.3 0.6 -0.5
v 0.3 0.7 0.5
v 0.5 0.7 0.5
v 0.4 0.7 0.3
v 0.5 0.7 0.3
v 0.3 0.7 0.1
v 0.4 0.7 0.1
v 0.4 0.8 0.3
v 0.5 0.8 0.3
v 0.3 0.8 0.1
v 0.4 0.8 0.1
v 0.4 0.8 0
v 0.5 0.8 0
v 0.3 0.8 -0.3
v 0.4 0.8 -0.3
v 0.3 0.8 -0.5
v 0.4 0.8 -0.5
v 0.4 0.9 0
v 0.5 0.9 0
v 0.4 0.9 -0.5
v 0.5 0.9 -0.5
v 0.5 1 0.5
v 0.8 1 0.5
v 0.5 1 -0.5
v 0.8 1 -0.5

# faces
f 5/3/1 2/3/1 1/3/1
f 6/3/1 2/3/1 5/3/1
f 7/3/1 2/3/1 6/3/1
f 8/2/1 4/2/1 3/2/1
f 9/2/1 4/2/1 8/2/1
f 11/3/1 5/3/1 1/3/1
f 12/2/1 6/2/1 5/2/1
f 12/3/1 5/3/1 11/3/1
f 13/3/1 7/3/1 6/3/1
f 13/2/1 6/2/1 12/2/1
f 14/3/1 7/3/1 13/3/1
f 15/2/1 8/2/1 7/2/1
f 15/3/1 7/3/1 14/3/1
f 16/3/1 9/3/1 8/3/1
f 16/2/1 8/2/1 15/2/1
f 17/2/1 10/2/1 9/2/1
f 19/2/1 18/2/1 17/2/1
f 19/2/1 17/2/1 9/2/1
f 19/3/1 16/3/1 15/3/1
f 19/3/1 15/3/1 14/3/1
f 19/3/1 9/3/1 16/3/1
f 20/2/1 18/2/1 19/2/1
f 23/2/1 14/2/1 13/2/1
f 24/3/1 19/3/1 14/3/1
f 24/2/1 14/2/1 23/2/1
f 25/3/1 22/3/1 21/3/1
f 25/2/1 23/2/1 22/2/1
f 26/3/1 24/3/1 23/3/1
f 26/2/1 23/2/1 25/2/1
f 27/3/1 19/3/1 24/3/1
f 27/3/1 24/3/1 26/3/1
f 28/3/1 26/3/1 25/3/1
f 28/3/1 25/3/1 21/3/1
f 29/3/1 26/3/1 28/3/1
f 35/3/1 31/3/1 30/3/1
f 36/2/1 32/2/1 31/2/1
f 36/3/1 31/3/1 35/3/1
f 37/2/1 32/2/1 36/2/1
f 38/3/1 34/3/1 33/3/1
f 39/3/1 34/3/1 38/3/1
f 44/3/1 41/3/1 40/3/1
f 45/3/1 41/3/1 44/3/1
f 46/3/1 43/3/1 42/3/1
f 47/3/1 43/3/1 46/3/1
f 48/3/1 43/3/1 47/3/1
f 52/3/1 43/3/1 48/3/1
f 53/2/1 51/2/1 50/2/1
f 53/2/1 50/2/1 49/2/1
f 54/3/1 52/3/1 51/3/1
f 54/2/1 51/2/1 53/2/1
f 55/3/1 43/3/1 52/3/1
f 55/3/1 52/3/1 54/3/1
f 58/3/1 57/3/1 56/3/1
f 59/3/1 57/3/1 58/3/1
f 60/3/1 57/3/1 59/3/1
f 64/3/1 62/3/1 61/3/1
f 64/3/1 63/3/1 62/3/1
f 65/3/1 63/3/1 64/3/1
f 66/3/1 63/3/1 65/3/1
f 67/2/1 66/2/1 65/2/1
f 68/3/1 63/3/1 66/3/1
f 68/2/1 66/2/1 67/2/1
f 69/3/1 63/3/1 68/3/1
f 72/3/1 71/3/1 70/3/1
f 73/3/1 71/3/1 72/3/1
f 76/2/1 75/2/1 74/2/1
f 77/2/1 75/2/1 76/2/1
f 81/3/1 80/3/1 79/3/1
f 81/3/1 79/3/1 78/3/1
f 82/3/1 80/3/1 81/3/1
f 85/3/1 84/3/1 83/3/1
f 86/3/1 84/3/1 85/3/1
f 89/3/1 88/3/1 87/3/1
f 90/3/1 88/3/1 89/3/1
f 93/3/1 92/3/1 91/3/1
f 95/3/1 94/3/1 93/3/1
f 97/3/1 95/3/1 93/3/1
f 97/3/1 96/3/1 95/3/1
f 97/3/1 93/3/1 91/3/1
f 98/3/1 96/3/1 97/3/1
f 103/3/1 100/3/1 99/3/1
f 104/3/1 100/3/1 103/3/1
f 105/3/1 102/3/1 101/3/1
f 106/3/1 102/3/1 105/3/1
f 111/3/1 108/3/1 107/3/1
f 112/3/1 108/3/1 111/3/1
f 113/3/1 110/3/1 109/3/1
f 114/3/1 110/3/1 113/3/1
f 115/3/1 111/3/1 107/3/1
f 116/3/1 111/3/1 115/3/1
f 117/3/1 110/3/1 114/3/1
f 118/3/1 110/3/1 117/3/1
f 123/3/1 120/3/1 119/3/1
f 124/3/1 120/3/1 123/3/1
f 125/3/1 122/3/1 121/3/1
f 126/3/1 122/3/1 125/3/1
f 127/3/2 128/3/2 129/3/2
f 129/3/2 128/3/2 130/3/2
f 131/2/2 132/2/2 133/2/2
f 133/2/2 132/2/2 134/2/2
f 135/3/2 136/3/2 138/3/2
f 136/3/2 137/3/2 138/3/2
f 138/3/2 137/3/2 139/3/2
f 140/2/2 141/2/2 142/2/2
f 142/2/2 141/2/2 143/2/2
f 144/3/2 145/3/2 148/3/2
f 148/3/2 145/3/2 149/3/2
f 146/3/2 147/3/2 150/3/2
f 150/3/2 147/3/2 151/3/2
f 152/3/2 153/3/2 156/3/2
f 156/3/2 153/3/2 157/3/2
f 154/3/2 155/3/2 158/3/2
f 158/3/2 155/3/2 159/3/2
f 160/3/2 161/3/2 162/3/2
f 162/3/2 161/3/2 163/3/2
f 164/3/2 165/3/2 168/3/2
f 168/3/2 165/3/2 169/3/2
f 166/3/2 167/3/2 170/3/2
f 170/3/2 167/3/2 171/3/2
f 172/3/2 173/3/2 176/3/2
f 174/3/2 175/3/2 177/3/2
f 177/3/2 175/3/2 178/3/2
f 172/3/2 176/3/2 181/3/2
f 181/3/2 176/3/2 182/3/2
f 183/3/2 184/3/2 185/3/2
f 185/3/2 184/3/2 186/3/2
f 179/3/2 180/3/2 187/3/2
f 187/3/2 180/3/2 188/3/2
f 189/2/2 190/2/2 194/2/2
f 191/2/2 192/2/2 195/2/2
f 193/2/2 194/2/2 197/2/2
f 194/2/2 190/2/2 198/2/2
f 197/2/2 194/2/2 198/2/2
f 198/2/2 190/2/2 199/2/2
f 195/2/2 196/2/2 200/2/2
f 191/2/2 195/2/2 200/2/2
f 200/2/2 196/2/2 201/2/2
f 201/2/2 196/2/2 202/2/2
f 198/2/2 199/2/2 203/2/2
f 200/2/2 201/2/2 203/2/2
f 199/2/2 200/2/2 203/2/2
f 203/2/2 201/2/2 204/2/2
f 204/2/2 201/2/2 205/2/2
f 205/2/2 201/2/2 206/2/2
f 204/2/2 205/2/2 207/2/2
f 207/2/2 205/2/2 208/2/2
f 209/3/2 210/3/2 215/3/2
f 215/3/2 210/3/2 216/3/2
f 213/3/2 214/3/2 217/3/2
f 217/3/2 214/3/2 218/3/2
f 211/3/2 212/3/2 221/3/2
f 221/3/2 212/3/2 222/3/2
f 219/3/2 220/3/2 225/3/2
f 223/3/2 224/3/2 228/3/2
f 225/3/2 226/3/2 229/3/2
f 227/3/2 228/3/2 230/3/2
f 225/3/2 229/3/2 231/3/2
f 229/3/2 230/3/2 231/3/2
f 219/3/2 225/3/2 231/3/2
f 230/3/2 228/3/2 232/3/2
f 231/3/2 230/3/2 232/3/2
f 228/3/2 224/3/2 232/3/2
f 237/3/3 234/3/3 233/3/3
f 238/3/3 234/3/3 237/3/3
f 239/3/3 234/3/3 238/3/3
f 240/3/3 236/3/3 235/3/3
f 241/3/3 236/3/3 240/3/3
f 242/3/3 236/3/3 241/3/3
f 243/2/3 239/2/3 238/2/3
f 244/3/3 240/3/3 239/3/3
f 244/2/3 239/2/3 243/2/3
f 245/2/3 241/2/3 240/2/3
f 245/3/3 240/3/3 244/3/3
f 246/2/3 241/2/3 245/2/3
f 250/3/3 245/3/3 244/3/3
f 250/3/3 246/3/3 245/3/3
f 251/3/3 246/3/3 250/3/3
f 252/2/3 247/2/3 246/2/3
f 252/3/3 246/3/3 251/3/3
f 253/2/3 247/2/3 252/2/3
f 255/3/3 249/3/3 248/3/3
f 257/3/3 253/3/3 252/3/3
f 257/3/3 254/3/3 253/3/3
f 257/3/3 252/3/3 251/3/3
f 258/3/3 254/3/3 257/3/3
f 259/3/3 256/3/3 255/3/3
f 261/3/3 254/3/3 258/3/3
f 263/3/3 260/3/3 259/3/3
f 263/3/3 255/3/3 248/3/3
f 263/3/3 259/3/3 255/3/3
f 264/3/3 260/3/3 263/3/3
f 265/3/3 262/3/3 261/3/3
f 265/3/3 261/3/3 258/3/3
f 266/3/3 262/3/3 265/3/3
f 270/3/3 262/3/3 266/3/3
f 271/3/3 268/3/3 267/3/3
f 272/3/3 268/3/3 271/3/3
f 273/3/3 270/3/3 269/3/3
f 274/3/3 262/3/3 270/3/3
f 274/3/3 270/3/3 273/3/3
f 277/2/3 276/2/3 275/2/3
f 278/2/3 276/2/3 277/2/3
f 280/2/3 278/2/3 277/2/3
f 280/2/3 279/2/3 278/2/3
f 281/2/3 279/2/3 280/2/3
f 282/2/3 279/2/3 281/2/3
f 284/2/3 283/2/3 282/2/3
f 284/2/3 282/2/3 281/2/3
f 285/2/3 283/2/3 284/2/3
f 287/2/3 283/2/3 285/2/3
f 288/2/3 283/2/3 287/2/3
f 290/2/3 287/2/3 286/2/3
f 290/2/3 289/2/3 288/2/3
f 290/2/3 288/2/3 287/2/3
f 291/2/3 289/2/3 290/2/3
f 292/2/3 289/2/3 291/2/3
f 293/2/3 289/2/3 292/2/3
f 296/3/3 295/3/3 294/3/3
f 297/3/3 295/3/3 296/3/3
f 300/2/3 299/2/3 298/2/3
f 301/2/3 299/2/3 300/2/3
f 304/3/3 303/3/3 302/3/3
f 305/3/3 303/3/3 304/3/3
f 308/2/3 307/2/3 306/2/3
f 309/2/3 307/2/3 308/2/3
f 312/2/3 311/2/3 310/2/3
f 313/2/3 311/2/3 312/2/3
f 316/3/3 315/3/3 314/3/3
f 318/3/3 316/3/3 314/3/3
f 318/3/3 317/3/3 316/3/3
f 319/3/3 317/3/3 318/3/3
f 322/3/3 321/3/3 320/3/3
f 323/3/3 321/3/3 322/3/3
f 326/2/3 325/2/3 324/2/3
f 327/2/3 325/2/3 326/2/3
f 328/3/3 327/3/3 326/3/3
f 329/3/3 327/3/3 328/3/3
f 332/3/3 331/3/3 330/3/3
f 333/3/3 331/3/3 332/3/3
f 336/3/3 335/3/3 334/3/3
f 337/3/3 335/3/3 336/3/3
f 340/3/3 339/3/3 338/3/3
f 344/3/3 340/3/3 338/3/3
f 344/3/3 341/3/3 340/3/3
f 345/3/3 341/3/3 344/3/3
f 346/3/3 343/3/3 342/3/3
f 347/3/3 343/3/3 346/3/3
f 350/3/3 349/3/3 348/3/3
f 351/3/3 349/3/3 350/3/3
f 352/3/4 353/3/4 354/3/4
f 354/3/4 353/3/4 355/3/4
f 356/3/4 357/3/4 358/3/4
f 358/3/4 357/3/4 359/3/4
f 360/3/4 361/3/4 362/3/4
f 362/3/4 361/3/4 363/3/4
f 364/3/4 365/3/4 366/3/4
f 366/3/4 367/3/4 370/3/4
f 364/3/4 366/3/4 370/3/4
f 370/3/4 367/3/4 371/3/4
f 368/3/4 369/3/4 372/3/4
f 372/3/4 369/3/4 373/3/4
f 374/3/4 375/3/4 376/3/4
f 376/3/4 375/3/4 377/3/4
f 378/3/4 379/3/4 380/3/4
f 380/3/4 379/3/4 381/3/4
f 382/3/4 383/3/4 384/3/4
f 384/3/4 383/3/4 385/3/4
f 386/3/4 387/3/4 388/3/4
f 386/3/4 388/3/4 390/3/4
f 388/3/4 389/3/4 390/3/4
f 390/3/4 389/3/4 391/3/4
f 392/2/4 393/2/4 396/2/4
f 394/3/4 395/3/4 398/3/4
f 398/3/4 395/3/4 399/3/4
f 396/2/4 397/2/4 400/2/4
f 392/2/4 396/2/4 400/2/4
f 400/2/4 397/2/4 401/2/4
f 402/2/4 403/2/4 404/2/4
f 404/2/4 403/2/4 405/2/4
f 406/3/4 407/3/4 408/3/4
f 408/3/4 407/3/4 409/3/4
f 410/2/4 411/2/4 412/2/4
f 410/2/4 412/2/4 414/2/4
f 412/3/4 413/3/4 415/3/4
f 414/2/4 412/2/4 415/2/4
f 415/3/4 413/3/4 416/3/4
f 417/2/4 418/2/4 419/2/4
f 419/2/4 418/2/4 420/2/4
f 419/2/4 420/2/4 422/2/4
f 420/2/4 421/2/4 422/2/4
f 422/2/4 421/2/4 423/2/4
f 423/2/4 421/2/4 424/2/4
f 424/2/4 421/2/4 425/2/4
f 426/3/4 427/3/4 428/3/4
f 428/3/4 427/3/4 429/3/4
f 429/3/4 427/3/4 430/3/4
f 430/3/4 431/3/4 432/3/4
f 429/3/4 430/3/4 432/3/4
f 432/3/4 433/3/4 434/3/4
f 426/3/4 428/3/4 436/3/4
f 436/3/4 428/3/4 437/3/4
f 434/3/4 435/3/4 438/3/4
f 429/3/4 432/3/4 438/3/4
f 432/3/4 434/3/4 438/3/4
f 438/3/4 435/3/4 439/3/4
f 439/3/4 435/3/4 443/3/4
f 440/3/4 441/3/4 444/3/4
f 444/3/4 441/3/4 445/3/4
f 442/3/4 443/3/4 446/3/4
f 443/3/4 435/3/4 447/3/4
f 446/3/4 443/3/4 447/3/4
f 454/3/5 451/3/5 450/3/5
f 455/3/5 451/3/5 454/3/5
f 457/3/5 454/3/5 450/3/5
f 459/3/5 453/3/5 452/3/5
f 460/3/5 457/3/5 456/3/5
f 460/3/5 454/3/5 457/3/5
f 461/3/5 454/3/5 460/3/5
f 462/3/5 459/3/5 458/3/5
f 463/3/5 453/3/5 459/3/5
f 463/3/5 459/3/5 462/3/5
f 464/3/5 460/3/5 456/3/5
f 465/3/5 460/3/5 464/3/5
f 468/3/5 449/3/5 448/3/5
f 469/3/5 449/3/5 468/3/5
f 473/3/5 467/3/5 466/3/5
f 474/3/5 467/3/5 473/3/5
f 475/2/5 471/2/5 470/2/5
f 476/3/5 472/3/5 471/3/5
f 476/2/5 471/2/5 475/2/5
f 477/3/5 472/3/5 476/3/5
f 481/3/5 480/3/5 479/3/5
f 482/3/5 480/3/5 481/3/5
f 483/3/5 478/3/5 477/3/5
f 483/3/5 477/3/5 476/3/5
f 485/3/5 483/3/5 476/3/5
f 485/3/5 484/3/5 483/3/5
f 486/3/5 484/3/5 485/3/5
f 487/3/5 480/3/5 482/3/5
f 488/3/5 480/3/5 487/3/5
f 491/2/5 490/2/5 489/2/5
f 496/2/5 491/2/5 489/2/5
f 496/2/5 492/2/5 491/2/5
f 497/2/5 492/2/5 496/2/5
f 498/2/5 495/2/5 494/2/5
f 498/2/5 494/2/5 493/2/5
f 499/2/5 495/2/5 498/2/5
f 501/2/5 498/2/5 493/2/5
f 502/2/5 498/2/5 501/2/5
f 504/2/5 496/2/5 489/2/5
f 505/2/5 503/2/5 502/2/5
f 505/2/5 501/2/5 500/2/5
f 505/2/5 502/2/5 501/2/5
f 506/2/5 503/2/5 505/2/5
f 507/2/5 503/2/5 506/2/5
f 509/2/5 504/2/5 489/2/5
f 509/2/5 505/2/5 504/2/5
f 509/2/5 506/2/5 505/2/5
f 510/2/5 509/2/5 508/2/5
f 511/2/5 506/2/5 509/2/5
f 511/2/5 509/2/5 510/2/5
f 512/2/5 506/2/5 511/2/5
f 513/2/5 506/2/5 512/2/5
f 517/2/5 514/2/5 513/2/5
f 517/2/5 513/2/5 512/2/5
f 518/2/5 514/2/5 517/2/5
f 519/2/5 514/2/5 518/2/5
f 520/2/5 514/2/5 519/2/5
f 521/2/5 516/2/5 515/2/5
f 522/2/5 516/2/5 521/2/5
f 523/2/5 519/2/5 518/2/5
f 525/2/5 524/2/5 523/2/5
f 525/2/5 523/2/5 518/2/5
f 526/2/5 524/2/5 525/2/5
f 527/2/5 524/2/5 526/2/5
f 530/3/5 529/3/5 528/3/5
f 531/3/5 529/3/5 530/3/5
f 535/2/5 533/2/5 532/2/5
f 536/2/5 535/2/5 534/2/5
f 537/2/5 533/2/5 535/2/5
f 537/2/5 535/2/5 536/2/5
f 540/3/5 539/3/5 538/3/5
f 541/3/5 539/3/5 540/3/5
f 544/3/5 543/3/5 542/3/5
f 545/3/5 543/3/5 544/3/5
f 548/3/5 547/3/5 546/3/5
f 549/3/5 547/3/5 548/3/5
f 550/2/5 549/2/5 548/2/5
f 551/2/5 549/2/5 550/2/5
f 556/3/5 553/3/5 552/3/5
f 557/3/5 553/3/5 556/3/5
f 558/3/5 555/3/5 554/3/5
f 559/3/5 555/3/5 558/3/5
f 560/3/5 555/3/5 559/3/5
f 563/3/5 562/3/5 561/3/5
f 564/3/5 562/3/5 563/3/5
f 565/3/5 562/3/5 564/3/5
f 568/3/5 567/3/5 566/3/5
f 569/3/5 567/3/5 568/3/5
f 572/3/5 571/3/5 570/3/5
f 573/3/5 571/3/5 572/3/5
f 576/3/5 575/3/5 574/3/5
f 577/3/5 575/3/5 576/3/5
f 580/3/5 579/3/5 578/3/5
f 581/3/5 579/3/5 580/3/5
f 584/3/5 583/3/5 582/3/5
f 585/3/5 583/3/5 584/3/5
f 586/3/6 587/3/6 588/3/6
f 588/3/6 587/3/6 589/3/6
f 590/3/6 591/3/6 592/3/6
f 592/3/6 591/3/6 593/3/6
f 594/3/6 595/3/6 598/3/6
f 598/3/6 595/3/6 599/3/6
f 596/3/6 597/3/6 600/3/6
f 600/3/6 597/3/6 601/3/6
f 598/2/6 599/2/6 602/2/6
f 602/2/6 599/2/6 603/2/6
f 604/2/6 605/2/6 606/2/6
f 606/2/6 605/2/6 607/2/6
f 610/3/6 611/3/6 614/3/6
f 614/3/6 611/3/6 615/3/6
f 612/3/6 613/3/6 616/3/6
f 608/2/6 609/2/6 617/2/6
f 617/2/6 609/2/6 618/2/6
f 617/3/6 618/3/6 620/3/6
f 616/3/6 613/3/6 621/3/6
f 621/3/6 613/3/6 622/3/6
f 619/3/6 620/3/6 623/3/6
f 620/3/6 618/3/6 623/3/6
f 619/3/6 623/3/6 624/3/6
f 624/3/6 623/3/6 625/3/6
f 625/3/6 623/3/6 628/3/6
f 628/3/6 623/3/6 629/3/6
f 626/3/6 627/3/6 630/3/6
f 630/3/6 627/3/6 631/3/6
f 631/3/6 627/3/6 632/3/6
f 633/3/6 634/3/6 637/3/6
f 637/3/6 634/3/6 638/3/6
f 635/2/6 636/2/6 639/2/6
f 639/2/6 636/2/6 640/2/6
f 641/3/6 642/3/6 643/3/6
f 643/3/6 642/3/6 644/3/6
f 639/3/6 640/3/6 645/3/6
f 645/3/6 640/3/6 646/3/6
f 647/3/6 648/3/6 649/3/6
f 649/3/6 648/3/6 650/3/6
f 647/3/6 649/3/6 651/3/6
f 651/3/6 649/3/6 652/3/6
f 653/2/6 654/2/6 656/2/6
f 656/2/6 654/2/6 657/2/6
f 655/2/6 656/2/6 657/2/6
f 657/2/6 654/2/6 658/2/6
f 655/2/6 657/2/6 659/2/6
f 659/2/6 657/2/6 660/2/6
f 659/3/6 660/3/6 661/3/6
f 661/3/6 660/3/6 662/3/6
f 663/3/6 664/3/6 665/3/6
f 665/3/6 664/3/6 666/3/6
f 667/3/6 668/3/6 669/3/6
f 669/3/6 668/3/6 670/3/6
