# Blender v2.93.5 OBJ File: 'fwf.blend'
# www.blender.org
mtllib SmallMedicalKit_LOD0.mtl
o SmallMedicalKit_LOD0
v 0.204343 -0.204343 -0.102606
v 0.228086 -0.085354 0.004882
v 0.206347 0.000477 0.000477
v 0.206347 0.000477 0.099523
v 0.208876 0.099523 0.000477
v 0.208876 0.099523 0.099523
v 0.247463 0.220180 0.220180
v 0.225166 0.203003 0.305006
v 0.205974 0.304343 -0.102606
v 0.205974 0.304343 0.202606
v 0.120180 -0.233634 -0.120180
v 0.160299 -0.160299 -0.160299
v 0.160299 -0.160299 0.260299
v 0.147637 0.001205 0.001205
v 0.147637 0.001205 0.098795
v 0.167576 0.260299 -0.160299
v 0.128520 0.220224 0.333706
v -0.101420 -0.001001 0.200151
v -0.100368 -0.000000 0.299371
v -0.101741 0.101001 0.203002
v -0.101367 0.203003 0.303993
v 0.111293 -0.001001 0.305006
v 0.000368 -0.000000 0.300000
v -0.220810 -0.120224 -0.233706
v -0.260299 -0.160299 -0.160299
v -0.220180 -0.233634 0.220158
v -0.203003 -0.205006 0.304825
v -0.262816 -0.077035 0.007655
v -0.262816 -0.077035 0.092345
v -0.247637 0.001205 0.001205
v -0.247637 0.001205 0.098795
v -0.249295 0.098795 0.001205
v -0.249295 0.098795 0.098795
v -0.267576 0.260299 -0.160299
v -0.203962 0.305006 -0.205006
v -0.267576 0.260299 0.260299
v -0.203962 0.305006 0.305006
v -0.304343 -0.204344 0.202606
v -0.334614 -0.120180 -0.120180
v -0.334614 -0.120180 0.220180
v -0.309070 -0.103003 -0.205006
v -0.320290 -0.000000 0.300000
v -0.329975 0.100000 -0.200000
v -0.308876 0.099523 0.099523
v -0.325166 0.203004 -0.205006
v -0.330122 0.185354 0.004882
v -0.347463 0.220180 0.220180
v -0.305974 0.304343 0.202606
v 0.120810 -0.120224 -0.233706
v 0.220290 0.000000 -0.200000
v 0.229975 0.100000 -0.200000
v 0.103962 0.305006 -0.205006
v -0.320290 0.000000 -0.200000
v 0.120193 0.333634 -0.120180
v -0.347463 0.220180 -0.120180
v -0.305974 0.304343 -0.102606
v 0.162816 -0.077035 0.092345
v 0.228086 -0.085354 0.095118
v 0.149295 0.098795 0.098795
v 0.230122 0.185354 0.095118
v 0.164310 0.177035 0.092345
v -0.306347 0.000477 0.099523
v -0.264310 0.177035 0.092345
v 0.162816 -0.077035 0.007655
v 0.149295 0.098795 0.001205
v -0.306347 0.000477 0.000477
v -0.308876 0.099523 0.000477
v 0.204343 -0.237529 0.202606
v 0.120180 -0.233634 0.220180
v 0.001420 -0.001001 0.203000
v 0.007256 -0.120180 0.216580
v -0.234361 0.106727 0.220180
v -0.220193 0.333634 0.220180
v 0.209070 -0.103004 0.305006
v 0.220290 -0.000000 0.300000
v 0.229975 0.100000 0.300000
v 0.001001 -0.103004 0.303961
v 0.103003 -0.205006 0.305006
v 0.103962 0.305006 0.304843
v 0.001367 0.203003 0.297421
v -0.101001 -0.103004 0.297424
v -0.211293 -0.001001 0.305006
v -0.215702 0.101001 0.305006
v -0.228520 0.220224 0.333706
v -0.329975 0.100000 0.300000
v -0.203003 -0.205006 -0.205006
v 0.103003 -0.205006 -0.205006
v -0.220180 -0.233634 -0.120180
v -0.304343 -0.237529 -0.102606
v 0.234613 -0.120180 -0.120180
v 0.209070 -0.103003 -0.205006
v 0.234613 -0.120180 0.220180
v 0.120810 -0.120224 0.333706
v -0.220810 -0.120224 0.333690
v -0.260299 -0.160299 0.260299
v -0.309070 -0.103004 0.305006
v 0.115702 0.101001 0.305006
v 0.001741 0.101001 0.200150
v 0.134361 0.106727 0.220180
v 0.000873 0.100000 0.299370
v -0.100873 0.100000 0.300000
v 0.164310 0.177035 0.007655
v 0.230122 0.185354 0.004882
v -0.264310 0.177035 0.007655
v -0.330122 0.185354 0.095118
v -0.107399 0.220180 0.216617
v 0.007399 0.220180 0.203480
v -0.328086 -0.085354 0.004882
v -0.328086 -0.085354 0.095118
v -0.107256 -0.120180 0.203480
v 0.129411 -0.006727 0.220180
v -0.229411 -0.006727 0.220180
v 0.225166 0.203004 -0.205006
v 0.128520 0.220224 -0.233706
v 0.247463 0.220180 -0.120180
v -0.228520 0.220224 -0.233706
v 0.167576 0.260299 0.260299
v -0.325166 0.203003 0.305006
v -0.220193 0.333634 -0.120180
v 0.120193 0.333634 0.220157
v -0.049365 -0.120224 -0.256926
v -0.049264 -0.041984 -0.270428
v -0.046964 0.196463 -0.264077
v -0.048485 0.074679 -0.269554
vt 0.974609 0.500000
vt 0.974609 0.500000
vt 0.974609 0.500000
vt 0.974609 0.500000
vt 0.974609 0.500000
vt 0.974609 0.500000
vt 0.974609 0.500000
vt 0.974609 0.500000
vt 0.974609 0.500000
vt 0.974609 0.500000
vt 0.974609 0.500000
vt 0.974609 0.500000
vt 0.970703 0.500000
vt 0.970703 0.500000
vt 0.970703 0.500000
vt 0.970703 0.500000
vt 0.970703 0.500000
vt 0.970703 0.500000
vt 0.970703 0.500000
vt 0.970703 0.500000
vt 0.974609 0.500000
vt 0.974609 0.500000
vt 0.974609 0.500000
vt 0.974609 0.500000
vt 0.974609 0.500000
vt 0.974609 0.500000
vt 0.974609 0.500000
vt 0.974609 0.500000
vt 0.974609 0.500000
vt 0.974609 0.500000
vt 0.974609 0.500000
vt 0.974609 0.500000
vt 0.974609 0.500000
vt 0.974609 0.500000
vt 0.974609 0.500000
vt 0.974609 0.500000
vt 0.974609 0.500000
vt 0.974609 0.500000
vt 0.974609 0.500000
vt 0.974609 0.500000
vt 0.982422 0.500000
vt 0.982422 0.500000
vt 0.982422 0.500000
vt 0.982422 0.500000
vt 0.982422 0.500000
vt 0.982422 0.500000
vt 0.982422 0.500000
vt 0.982422 0.500000
vt 0.974609 0.500000
vt 0.974609 0.500000
vt 0.974609 0.500000
vt 0.974609 0.500000
vt 0.974609 0.500000
vt 0.974609 0.500000
vt 0.974609 0.500000
vt 0.974609 0.500000
vt 0.974609 0.500000
vt 0.974609 0.500000
vt 0.974609 0.500000
vt 0.974609 0.500000
vt 0.974609 0.500000
vt 0.974609 0.500000
vt 0.974609 0.500000
vt 0.974609 0.500000
vt 0.970703 0.500000
vt 0.970703 0.500000
vt 0.970703 0.500000
vt 0.970703 0.500000
vt 0.970703 0.500000
vt 0.970703 0.500000
vt 0.970703 0.500000
vt 0.970703 0.500000
vt 0.974609 0.500000
vt 0.974609 0.500000
vt 0.974609 0.500000
vt 0.974609 0.500000
vt 0.974609 0.500000
vt 0.974609 0.500000
vt 0.974609 0.500000
vt 0.974609 0.500000
vt 0.974609 0.500000
vt 0.974609 0.500000
vt 0.974609 0.500000
vt 0.974609 0.500000
vt 0.974609 0.500000
vt 0.974609 0.500000
vt 0.974609 0.500000
vt 0.974609 0.500000
vt 0.982422 0.500000
vt 0.982422 0.500000
vt 0.982422 0.500000
vt 0.982422 0.500000
vt 0.982422 0.500000
vt 0.982422 0.500000
vt 0.982422 0.500000
vt 0.982422 0.500000
vt 0.974609 0.500000
vt 0.974609 0.500000
vt 0.974609 0.500000
vt 0.974609 0.500000
vt 0.974609 0.500000
vt 0.974609 0.500000
vt 0.974609 0.500000
vt 0.974609 0.500000
vt 0.974609 0.500000
vt 0.974609 0.500000
vt 0.974609 0.500000
vt 0.974609 0.500000
vt 0.974609 0.500000
vt 0.974609 0.500000
vt 0.974609 0.500000
vt 0.974609 0.500000
vt 0.974609 0.500000
vt 0.974609 0.500000
vt 0.974609 0.500000
vt 0.974609 0.500000
vt 0.970703 0.500000
vt 0.970703 0.500000
vt 0.970703 0.500000
vt 0.970703 0.500000
vt 0.970703 0.500000
vt 0.970703 0.500000
vt 0.970703 0.500000
vt 0.970703 0.500000
vt 0.974609 0.500000
vt 0.974609 0.500000
vt 0.974609 0.500000
vt 0.974609 0.500000
vt 0.974609 0.500000
vt 0.974609 0.500000
vt 0.974609 0.500000
vt 0.974609 0.500000
vt 0.974609 0.500000
vt 0.974609 0.500000
vt 0.974609 0.500000
vt 0.974609 0.500000
vt 0.974609 0.500000
vt 0.974609 0.500000
vt 0.974609 0.500000
vt 0.970703 0.500000
vt 0.970703 0.500000
vt 0.974609 0.500000
vt 0.974609 0.500000
vt 0.970703 0.500000
vt 0.974609 0.500000
vt 0.974609 0.500000
vt 0.970703 0.500000
vt 0.974609 0.500000
vt 0.974609 0.500000
vt 0.974609 0.500000
vt 0.970703 0.500000
vt 0.970703 0.500000
vt 0.974609 0.500000
vt 0.974609 0.500000
vt 0.974609 0.500000
vt 0.970703 0.500000
vt 0.974609 0.500000
vt 0.974609 0.500000
vt 0.970703 0.500000
vt 0.974609 0.500000
vt 0.974609 0.500000
vt 0.974609 0.500000
vt 0.970703 0.500000
vt 0.970703 0.500000
vt 0.974609 0.500000
vt 0.974609 0.500000
vt 0.982422 0.500000
vt 0.982422 0.500000
vt 0.982422 0.500000
vt 0.982422 0.500000
vt 0.982422 0.500000
vt 0.982422 0.500000
vt 0.982422 0.500000
vt 0.982422 0.500000
vt 0.982422 0.500000
vt 0.982422 0.500000
vt 0.982422 0.500000
vt 0.982422 0.500000
vt 0.974609 0.500000
vt 0.974609 0.500000
vt 0.974609 0.500000
vt 0.974609 0.500000
vt 0.974609 0.500000
vt 0.974609 0.500000
vt 0.974609 0.500000
vt 0.974609 0.500000
vn 0.9378 -0.3451 -0.0375
vn 0.9955 -0.0645 0.0699
vn 0.9880 -0.1542 0.0000
vn 0.9659 -0.2319 -0.1150
vn 0.9487 -0.0886 -0.3036
vn 0.9916 0.1287 0.0159
vn 0.9664 0.2482 0.0666
vn 0.8970 0.3994 0.1893
vn 0.9695 0.2446 0.0175
vn 0.9914 -0.1114 -0.0692
vn 0.9930 -0.0962 0.0693
vn 0.9942 -0.0254 0.1046
vn 0.9973 -0.0255 -0.0694
vn 0.9899 -0.0959 -0.1040
vn 0.9932 0.0515 0.1046
vn 0.8902 -0.4313 -0.1466
vn 0.9677 -0.2430 0.0665
vn 0.9645 -0.2439 -0.1009
vn 0.9773 -0.1960 -0.0809
vn 0.9650 0.0324 0.2602
vn 0.8908 0.3906 0.2323
vn 0.9910 -0.0186 -0.1322
vn 0.9800 0.1989 0.0000
vn 0.8969 0.4422 0.0000
vn 0.9151 -0.2878 -0.2824
vn 0.5089 -0.6104 -0.6070
vn 0.7300 -0.5890 0.3466
vn 0.7308 -0.3516 0.5851
vn 0.9817 0.1904 0.0000
vn 0.9999 -0.0170 -0.0000
vn 0.9821 -0.1885 -0.0000
vn 0.6986 0.4026 -0.5915
vn 0.6901 0.6354 -0.3465
vn 0.4778 0.6388 0.6030
vn 0.8881 0.3562 0.2906
vn 0.9971 -0.0504 -0.0572
vn 0.9999 -0.0059 -0.0105
vn 0.9988 0.0484 -0.0084
vn 0.9977 0.0074 -0.0674
vn 0.9765 0.0426 -0.2114
vn 0.9764 0.0422 -0.2119
vn -0.9765 0.0426 -0.2114
vn -0.9764 0.0422 -0.2119
vn -0.9966 -0.0557 -0.0604
vn -0.9999 -0.0066 -0.0108
vn -0.9988 0.0477 -0.0082
vn -0.9980 0.0036 -0.0634
vn -0.9151 -0.2878 -0.2824
vn -0.5089 -0.6104 -0.6070
vn -0.7296 -0.5892 0.3472
vn -0.7301 -0.3526 0.5854
vn -0.9817 0.1904 0.0000
vn -0.9999 -0.0170 -0.0000
vn -0.9821 -0.1885 -0.0000
vn -0.6986 0.4026 -0.5915
vn -0.6901 0.6354 -0.3465
vn -0.4780 0.6387 0.6030
vn -0.8885 0.3555 0.2900
vn -0.9689 -0.2459 0.0267
vn -0.9944 -0.0767 0.0733
vn -0.9807 -0.1957 0.0000
vn -0.9410 -0.3101 -0.1355
vn -0.9487 -0.0886 -0.3036
vn -0.9916 0.1287 0.0159
vn -0.9664 0.2482 0.0666
vn -0.8970 0.3994 0.1893
vn -0.9695 0.2446 0.0175
vn -0.9914 -0.1114 -0.0692
vn -0.9930 -0.0962 0.0693
vn -0.9942 -0.0254 0.1046
vn -0.9973 -0.0255 -0.0694
vn -0.9899 -0.0959 -0.1040
vn -0.9932 0.0515 0.1047
vn -0.8902 -0.4313 -0.1466
vn -0.9677 -0.2430 0.0665
vn -0.9645 -0.2439 -0.1009
vn -0.9773 -0.1960 -0.0809
vn -0.9650 0.0324 0.2602
vn -0.8908 0.3906 0.2323
vn -0.9910 -0.0186 -0.1322
vn -0.9800 0.1989 0.0000
vn -0.8969 0.4422 0.0000
vn 0.3070 0.0128 -0.9516
vn 0.2790 -0.0336 -0.9597
vn -0.1323 -0.1684 -0.9768
vn -0.0814 0.4884 -0.8688
vn -0.2765 0.1617 -0.9473
vn -0.2502 0.0089 -0.9682
vn -0.2486 0.0200 -0.9684
vn -0.2448 -0.0646 -0.9674
vn -0.2418 -0.0234 -0.9700
vn -0.2790 -0.0336 -0.9597
vn 0.2926 -0.2952 -0.9095
vn 0.6053 -0.6105 -0.5107
vn 0.5678 0.4269 -0.7038
vn 0.3542 0.6145 -0.7049
vn -0.1487 -0.5360 -0.8310
vn -0.5643 -0.2628 -0.7826
vn -0.5760 0.6461 -0.5008
vn -0.2971 0.3333 -0.8948
vn 0.0505 0.0639 -0.9967
vn 0.0124 -0.0003 -0.9999
vn 0.0134 0.0847 -0.9963
vn 0.0129 -0.0544 -0.9984
vn 0.0122 -0.0002 -0.9999
vn 0.0536 -0.0923 -0.9943
vn -0.0540 0.0924 -0.9943
vn -0.0124 -0.0002 -0.9999
vn -0.0130 0.0545 -0.9984
vn -0.0132 -0.0847 -0.9963
vn -0.0122 -0.0003 -0.9999
vn -0.0500 -0.0635 -0.9967
vn 0.0505 0.0639 0.9967
vn 0.0124 -0.0003 0.9999
vn 0.0134 0.0847 0.9963
vn 0.0129 -0.0544 0.9984
vn 0.0122 -0.0002 0.9999
vn 0.0536 -0.0923 0.9943
vn -0.0540 0.0924 0.9943
vn -0.0124 -0.0002 0.9999
vn -0.0130 0.0545 0.9984
vn -0.0132 -0.0847 0.9963
vn -0.0122 -0.0003 0.9999
vn -0.0500 -0.0635 0.9967
vn 0.1919 -0.1936 0.9621
vn 0.6053 -0.6105 0.5107
vn 0.5678 0.4269 0.7038
vn 0.3541 0.6146 0.7049
vn -0.1328 0.0058 0.9911
vn -0.1505 0.0281 0.9882
vn -0.1130 0.1070 0.9878
vn 0.0961 -0.0324 0.9949
vn -0.0263 0.0280 0.9993
vn -0.0965 0.0325 0.9948
vn 0.0260 -0.0278 0.9993
vn 0.1130 -0.1075 0.9878
vn 0.1557 -0.0271 0.9874
vn 0.1287 0.0056 0.9917
vn -0.3566 -0.5911 0.7235
vn -0.5866 -0.3622 0.7244
vn -0.5760 0.6461 0.5008
vn -0.2971 0.3333 0.8948
vn 0.3070 0.0128 0.9516
vn 0.0459 -0.0044 0.9989
vn 0.0424 0.2370 0.9706
vn 0.0433 -0.0465 0.9980
vn 0.0437 -0.0019 0.9990
vn 0.2341 -0.2513 0.9392
vn -0.2064 0.2134 0.9549
vn -0.2676 -0.2581 0.9283
vn -0.0447 0.0381 0.9983
vn -0.4132 0.1840 0.8919
vn -0.0457 -0.2292 0.9723
vn -0.0912 0.0193 0.9956
vn -0.0639 -0.0537 0.9965
vn 0.0632 -0.1356 0.9887
vn 0.0916 -0.0194 0.9956
vn -0.0006 0.0730 0.9973
vn 0.4495 -0.2019 0.8702
vn 0.0473 0.2301 0.9720
vn 0.0432 -0.0385 0.9983
vn 0.1686 -0.3471 0.9226
vn 0.1955 -0.2096 0.9580
vn 0.0005 0.3205 0.9472
vn -0.2560 0.2454 0.9350
vn -0.0459 -0.0020 0.9989
vn -0.0454 0.0436 0.9980
vn -0.0404 -0.2380 0.9704
vn -0.0437 -0.0042 0.9990
vn -0.2790 -0.0336 0.9597
vn 0.0000 -0.9475 -0.3198
vn 0.3458 -0.9328 -0.1014
vn 0.0343 -0.9978 -0.0571
vn 0.0000 -0.9999 -0.0121
vn -0.0343 -0.9978 0.0571
vn -0.0000 -0.9999 0.0121
vn -0.3458 -0.9328 0.1014
vn -0.0000 -0.9475 0.3198
vn -0.0002 -0.9473 0.3203
vn 0.2677 -0.9255 -0.2680
vn 0.6055 -0.5149 -0.6068
vn -0.3342 -0.7400 -0.5837
vn -0.5792 -0.7472 -0.3257
vn 0.5792 -0.7472 0.3257
vn 0.3342 -0.7400 0.5837
vn -0.6055 -0.5148 0.6069
vn -0.2677 -0.9255 0.2680
vn 0.0515 -0.9971 -0.0560
vn 0.0092 -0.9999 -0.0100
vn -0.0444 -0.9990 -0.0099
vn -0.0115 -0.9978 -0.0648
vn 0.1254 -0.9921 -0.0000
vn -0.1254 -0.9921 -0.0000
vn -0.0207 -0.9832 -0.1811
vn -0.0123 -0.9813 -0.1921
vn 0.1264 0.9920 0.0000
vn -0.1264 0.9920 0.0000
vn 0.0219 0.9813 -0.1913
vn 0.0116 0.9835 -0.1806
vn 0.0521 0.9971 -0.0562
vn 0.0095 0.9999 -0.0102
vn -0.0462 0.9989 -0.0096
vn -0.0123 0.9978 -0.0647
vn 0.2421 0.9366 -0.2533
vn 0.5785 0.5461 -0.6059
vn -0.3062 0.7576 -0.5765
vn -0.5445 0.7826 -0.3016
vn 0.5445 0.7826 0.3016
vn 0.3062 0.7576 0.5765
vn -0.5785 0.5461 0.6059
vn -0.2421 0.9366 0.2533
vn 0.0000 0.9475 -0.3198
vn 0.3231 0.9464 0.0000
vn -0.2276 0.8958 0.3818
vn 0.0000 0.9959 0.0904
vn 0.2277 0.8957 -0.3819
vn -0.0000 0.9959 -0.0904
vn -0.3231 0.9464 0.0000
vn 0.0000 0.9473 0.3202
vn 0.0002 0.9475 0.3197
vn 0.1848 -0.1176 -0.9757
vn 0.1333 -0.1687 -0.9766
vn 0.1132 -0.5466 -0.8297
vn 0.2387 0.0407 -0.9703
vn 0.1139 0.3480 -0.9305
vn 0.2520 0.0056 -0.9677
vn -0.1126 -0.5442 -0.8313
vn -0.1589 0.0463 -0.9862
vn 0.2417 0.0713 -0.9677
vn -0.0111 0.4898 -0.8717
vn 0.0157 -0.3236 -0.9461
vn 0.2443 -0.0237 -0.9694
usemtl palette.003
s off
f 90/1/1 68/2/1 1/3/1
f 2/4/2 68/2/2 90/1/2
f 58/5/3 68/2/3 2/4/3
f 92/6/4 68/2/4 58/5/4
f 50/7/5 90/1/5 91/8/5
f 50/7/6 2/4/6 90/1/6
f 3/9/7 2/4/7 50/7/7
f 4/10/8 74/11/8 92/6/8
f 4/10/9 92/6/9 58/5/9
f 75/12/10 74/11/10 4/10/10
f 51/13/11 3/14/11 50/15/11
f 5/16/12 3/14/12 51/13/12
f 6/17/13 75/18/13 4/19/13
f 76/20/14 75/18/14 6/17/14
f 113/21/15 5/22/15 51/23/15
f 115/24/16 5/22/16 113/21/16
f 103/25/17 5/22/17 115/24/17
f 60/26/18 76/27/18 6/28/18
f 7/29/19 76/27/19 60/26/19
f 8/30/20 76/27/20 7/29/20
f 9/31/21 103/25/21 115/24/21
f 9/31/22 7/29/22 60/26/22
f 9/31/23 60/26/23 103/25/23
f 10/32/24 7/29/24 9/31/24
f 49/33/25 11/34/25 87/35/25
f 12/36/26 11/34/26 49/33/26
f 13/37/27 78/38/27 69/39/27
f 93/40/28 78/38/28 13/37/28
f 14/41/29 57/42/29 64/43/29
f 15/44/29 57/42/29 14/41/29
f 65/45/30 15/44/30 14/41/30
f 59/46/30 15/44/30 65/45/30
f 102/47/31 59/46/31 65/45/31
f 61/48/31 59/46/31 102/47/31
f 52/49/32 16/50/32 114/51/32
f 54/52/33 16/50/33 52/49/33
f 120/53/34 17/54/34 117/55/34
f 79/56/35 17/54/35 120/53/35
f 18/57/36 81/58/36 110/59/36
f 19/60/37 81/58/37 18/57/37
f 106/61/38 101/62/38 20/63/38
f 21/64/39 101/62/39 106/61/39
f 72/65/40 82/66/40 112/67/40
f 83/68/41 82/66/41 72/65/41
f 111/69/42 22/70/42 99/71/42
f 99/71/43 22/70/43 97/72/43
f 71/73/44 77/74/44 70/75/44
f 70/75/45 77/74/45 23/76/45
f 98/77/46 100/78/46 107/79/46
f 107/79/47 100/78/47 80/80/47
f 86/81/48 88/82/48 24/83/48
f 24/83/49 88/82/49 25/84/49
f 26/85/50 27/86/50 95/87/50
f 95/87/51 27/86/51 94/88/51
f 28/89/52 29/90/52 30/91/52
f 30/91/52 29/90/52 31/92/52
f 30/91/53 31/92/53 32/93/53
f 32/93/53 31/92/53 33/94/53
f 32/93/54 33/94/54 104/95/54
f 104/95/54 33/94/54 63/96/54
f 116/97/55 34/98/55 35/99/55
f 35/99/56 34/98/56 119/100/56
f 36/101/57 84/102/57 73/103/57
f 73/103/58 84/102/58 37/104/58
f 89/105/59 38/106/59 39/107/59
f 39/107/60 38/106/60 108/108/60
f 108/108/61 38/106/61 109/109/61
f 109/109/62 38/106/62 40/110/62
f 41/111/63 39/107/63 53/112/63
f 39/107/64 108/108/64 53/112/64
f 53/112/65 108/108/65 66/113/65
f 40/110/66 96/114/66 62/115/66
f 109/109/67 40/110/67 62/115/67
f 62/115/68 96/114/68 42/116/68
f 53/117/69 66/118/69 43/119/69
f 43/119/70 66/118/70 67/120/70
f 62/121/71 42/122/71 44/123/71
f 44/123/72 42/122/72 85/124/72
f 43/125/73 67/126/73 45/127/73
f 45/127/74 67/126/74 55/128/74
f 55/128/75 67/126/75 46/129/75
f 44/130/76 85/131/76 105/132/76
f 105/132/77 85/131/77 47/133/77
f 47/133/78 85/131/78 118/134/78
f 55/128/79 46/129/79 56/135/79
f 105/132/80 47/133/80 56/135/80
f 46/129/81 105/132/81 56/135/81
f 56/135/82 47/133/82 48/136/82
f 49/33/83 50/7/83 91/8/83
f 114/51/84 113/21/84 51/23/84
f 24/83/85 122/137/85 121/138/85
f 116/97/86 35/99/86 123/139/86
f 122/137/87 24/83/87 41/111/87
f 53/117/88 124/140/88 122/141/88
f 53/112/89 122/137/89 41/111/89
f 116/97/90 124/142/90 43/125/90
f 43/119/91 124/140/91 53/117/91
f 45/127/92 116/97/92 43/125/92
f 11/34/93 90/1/93 1/3/93
f 12/36/94 90/1/94 11/34/94
f 16/50/95 9/31/95 115/24/95
f 54/52/96 9/31/96 16/50/96
f 89/105/97 25/84/97 88/82/97
f 39/107/98 25/84/98 89/105/98
f 55/128/99 119/100/99 34/98/99
f 56/135/100 119/100/100 55/128/100
f 57/143/101 4/10/101 58/5/101
f 15/144/102 6/17/102 4/19/102
f 15/145/103 4/10/103 57/143/103
f 59/146/104 60/26/104 6/28/104
f 59/147/105 6/17/105 15/144/105
f 61/148/106 60/26/106 59/146/106
f 109/109/107 31/149/107 29/150/107
f 62/121/108 33/151/108 31/152/108
f 62/115/109 31/149/109 109/109/109
f 44/130/110 63/153/110 33/154/110
f 44/123/111 33/151/111 62/121/111
f 105/132/112 63/153/112 44/130/112
f 2/4/113 3/9/113 64/155/113
f 3/14/114 5/16/114 14/156/114
f 64/155/115 3/9/115 14/157/115
f 5/22/116 103/25/116 65/158/116
f 14/156/117 5/16/117 65/159/117
f 65/158/118 103/25/118 102/160/118
f 28/161/119 30/162/119 108/108/119
f 30/163/120 32/164/120 66/118/120
f 108/108/121 30/162/121 66/113/121
f 32/165/122 104/166/122 67/126/122
f 66/118/123 32/164/123 67/120/123
f 67/126/124 104/166/124 46/129/124
f 68/2/125 92/6/125 69/39/125
f 69/39/126 92/6/126 13/37/126
f 7/29/127 10/32/127 117/55/127
f 117/55/128 10/32/128 120/53/128
f 111/167/129 99/168/129 70/169/129
f 70/169/130 99/168/130 98/170/130
f 71/171/131 70/169/131 110/172/131
f 98/170/132 107/173/132 110/172/132
f 70/169/133 98/170/133 110/172/133
f 110/172/134 107/173/134 18/174/134
f 18/174/135 107/173/135 20/175/135
f 20/175/136 107/173/136 106/176/136
f 18/174/137 20/175/137 112/177/137
f 112/177/138 20/175/138 72/178/138
f 26/85/139 95/87/139 38/106/139
f 38/106/140 95/87/140 40/110/140
f 36/101/141 73/103/141 47/133/141
f 47/133/142 73/103/142 48/136/142
f 74/11/143 75/12/143 93/40/143
f 75/18/144 76/20/144 22/70/144
f 93/40/145 75/12/145 22/179/145
f 76/27/146 8/30/146 97/180/146
f 22/70/147 76/20/147 97/72/147
f 97/180/148 8/30/148 17/54/148
f 93/40/149 22/179/149 77/74/149
f 78/38/150 93/40/150 77/74/150
f 77/74/151 22/179/151 23/76/151
f 17/54/152 79/56/152 100/78/152
f 97/180/153 17/54/153 100/78/153
f 100/78/154 79/56/154 80/80/154
f 78/38/155 77/74/155 81/58/155
f 80/80/156 79/56/156 21/64/156
f 81/58/157 19/60/157 27/86/157
f 78/38/158 81/58/158 27/86/158
f 27/86/159 19/60/159 94/88/159
f 94/88/160 19/60/160 82/181/160
f 101/62/161 21/64/161 83/182/161
f 21/64/162 79/56/162 84/102/162
f 83/182/163 21/64/163 84/102/163
f 84/102/164 79/56/164 37/104/164
f 94/88/165 82/181/165 96/114/165
f 82/66/166 83/68/166 42/122/166
f 96/114/167 82/181/167 42/116/167
f 83/182/168 84/102/168 85/131/168
f 42/122/169 83/68/169 85/124/169
f 85/131/170 84/102/170 118/134/170
f 11/34/171 86/81/171 87/35/171
f 88/82/171 86/81/171 11/34/171
f 68/2/172 11/34/172 1/3/172
f 68/2/173 89/105/173 88/82/173
f 68/2/174 88/82/174 11/34/174
f 69/39/175 89/105/175 68/2/175
f 26/85/176 89/105/176 69/39/176
f 38/106/177 89/105/177 26/85/177
f 78/38/178 26/85/178 69/39/178
f 27/86/179 26/85/179 78/38/179
f 90/1/180 49/33/180 91/8/180
f 12/36/181 49/33/181 90/1/181
f 25/84/182 41/111/182 24/83/182
f 39/107/183 41/111/183 25/84/183
f 74/11/184 13/37/184 92/6/184
f 93/40/185 13/37/185 74/11/185
f 94/88/186 40/110/186 95/87/186
f 96/114/187 40/110/187 94/88/187
f 97/180/188 98/77/188 99/183/188
f 100/78/189 98/77/189 97/180/189
f 101/62/190 72/184/190 20/63/190
f 83/182/191 72/184/191 101/62/191
f 60/26/192 102/160/192 103/25/192
f 61/148/192 102/160/192 60/26/192
f 63/153/193 46/129/193 104/166/193
f 105/132/193 46/129/193 63/153/193
f 80/80/194 106/61/194 107/79/194
f 21/64/195 106/61/195 80/80/195
f 2/4/196 64/155/196 58/5/196
f 58/5/196 64/155/196 57/143/196
f 28/161/197 108/108/197 29/150/197
f 29/150/197 108/108/197 109/109/197
f 71/73/198 110/59/198 77/74/198
f 77/74/199 110/59/199 81/58/199
f 111/185/200 70/75/200 22/179/200
f 22/179/201 70/75/201 23/76/201
f 18/57/202 112/186/202 19/60/202
f 19/60/203 112/186/203 82/181/203
f 113/21/204 114/51/204 115/24/204
f 115/24/205 114/51/205 16/50/205
f 116/97/206 45/127/206 34/98/206
f 34/98/207 45/127/207 55/128/207
f 7/29/208 117/55/208 8/30/208
f 8/30/209 117/55/209 17/54/209
f 36/101/210 47/133/210 84/102/210
f 84/102/211 47/133/211 118/134/211
f 52/49/212 35/99/212 54/52/212
f 54/52/212 35/99/212 119/100/212
f 9/31/213 54/52/213 10/32/213
f 119/100/214 56/135/214 10/32/214
f 54/52/215 119/100/215 10/32/215
f 10/32/216 56/135/216 120/53/216
f 120/53/217 56/135/217 73/103/217
f 73/103/218 56/135/218 48/136/218
f 120/53/219 73/103/219 79/56/219
f 79/56/220 73/103/220 37/104/220
f 123/139/221 114/51/221 51/23/221
f 122/137/222 49/33/222 121/138/222
f 86/81/223 121/138/223 49/33/223
f 124/142/224 123/139/224 51/23/224
f 123/139/225 52/49/225 114/51/225
f 124/140/226 50/15/226 122/141/226
f 24/83/227 121/138/227 86/81/227
f 116/97/228 123/139/228 124/142/228
f 122/137/229 50/7/229 49/33/229
f 123/139/230 35/99/230 52/49/230
f 86/81/231 49/33/231 87/35/231
f 124/140/232 51/13/232 50/15/232
