# Blender v2.93.5 OBJ File: 'SuperGun.blend'
# www.blender.org
mtllib SuperGun-0.mtl
o Cube.001_Cube.002
v -0.194313 1.550120 0.885688
v -0.194024 1.620181 0.273764
v 0.192197 1.620181 0.885688
v 0.192486 1.550120 0.273764
v 0.192415 1.608565 0.273764
v -0.259418 1.619189 0.579725
v -0.000913 1.480962 -0.081217
v -0.000913 1.551699 -0.081217
v -0.000913 1.465569 1.240667
v -0.000913 1.627750 0.579726
v -0.000913 1.598167 0.579726
v 0.257722 1.572899 0.579725
v -0.258137 1.549754 0.739776
v -0.194242 1.608565 0.885688
v -0.258041 1.607617 0.419675
v -0.194350 1.561827 0.273764
v 0.109634 1.576647 0.078171
v 0.192523 1.561827 0.885688
v 0.109671 1.507769 1.081280
v -0.111461 1.576647 1.081280
v -0.258138 1.549754 0.419675
v -0.258041 1.607617 0.739776
v -0.111461 1.576647 0.078171
v 0.256310 1.549754 0.739776
v 0.255926 1.619189 0.419675
v -0.000913 1.627750 0.814285
v -0.000913 1.627750 0.345167
v 0.109165 1.652715 0.579725
v -0.110992 1.652715 0.579725
v -0.000913 1.598167 0.814285
v -0.000913 1.598167 0.345167
v -0.111179 1.551380 0.579725
v 0.109352 1.551380 0.579725
v -0.000913 1.537863 1.240667
v -0.259582 1.561326 0.579725
v -0.111501 1.519154 0.078171
v 0.109675 1.519154 0.078171
v 0.256359 1.561326 0.419675
v 0.109659 1.564978 1.081280
v -0.111502 1.519154 1.081280
v 0.103310 1.554068 0.393624
v -0.105137 1.554068 0.393624
v -0.105137 1.554068 0.765827
v -0.104477 1.655930 0.393624
v 0.102650 1.655930 0.393624
v 0.102650 1.655930 0.765827
v -0.104477 1.655930 0.765827
v 0.103310 1.554068 0.765827
v 0.256214 1.607617 0.739776
vt 0.978516 0.561321
vt 0.978516 0.554342
vt 0.978518 0.561445
vt 0.982456 0.626059
vt 0.982456 0.620067
vt 0.982458 0.626071
vt 0.978571 0.531503
vt 0.978578 0.531451
vt 0.978580 0.538231
vt 0.982414 0.605915
vt 0.982420 0.605856
vt 0.982422 0.612632
vt 0.978536 0.535682
vt 0.978538 0.544863
vt 0.978531 0.537724
vt 0.978521 0.529570
vt 0.978530 0.530543
vt 0.978526 0.533843
vt 0.982411 0.593732
vt 0.982409 0.601643
vt 0.982404 0.597761
vt 0.982444 0.610097
vt 0.982447 0.619277
vt 0.982439 0.612169
vt 0.982430 0.604012
vt 0.982439 0.604957
vt 0.982435 0.608272
vt 0.978568 0.519324
vt 0.978567 0.527244
vt 0.978562 0.523347
vt 0.982458 0.595373
vt 0.982457 0.590488
vt 0.982459 0.590503
vt 0.982457 0.595361
vt 0.982456 0.615602
vt 0.982455 0.610702
vt 0.982457 0.610714
vt 0.982457 0.615614
vt 0.982457 0.620079
vt 0.982457 0.601350
vt 0.978516 0.568077
vt 0.978518 0.568230
vt 0.978516 0.549120
vt 0.978518 0.549235
vt 0.978515 0.559038
vt 0.978514 0.552140
vt 0.978515 0.552003
vt 0.978514 0.545379
vt 0.978516 0.545206
vt 0.982457 0.630944
vt 0.982459 0.630959
vt 0.978563 0.530548
vt 0.978557 0.525407
vt 0.978555 0.516248
vt 0.978547 0.516079
vt 0.978562 0.518044
vt 0.982425 0.609176
vt 0.982429 0.612725
vt 0.982424 0.604062
vt 0.982422 0.597295
vt 0.982433 0.599817
vt 0.982439 0.617472
vt 0.982433 0.616190
vt 0.982405 0.604953
vt 0.982399 0.599814
vt 0.982397 0.590656
vt 0.982389 0.590488
vt 0.982405 0.592454
vt 0.978517 0.534749
vt 0.978520 0.538319
vt 0.978515 0.529648
vt 0.978513 0.522884
vt 0.978524 0.525405
vt 0.978530 0.543045
vt 0.978525 0.541773
vt 0.982411 0.610092
vt 0.982422 0.619451
vt 0.982419 0.600744
vt 0.978569 0.535688
vt 0.978580 0.545048
vt 0.978576 0.526341
vt 0.978514 0.564345
vt 0.978516 0.564209
vt 0.982456 0.605806
vt 0.982457 0.605818
vt 0.982455 0.601338
vt 0.978513 0.559170
vt 0.978546 0.545041
vt 0.982415 0.597194
vt 0.982455 0.619458
vt 0.978572 0.522789
vt 0.978518 0.545206
vt 0.978518 0.554467
vt 0.982422 0.590488
vt 0.978513 0.516079
vt 0.978516 0.568265
vn 0.9209 0.0007 -0.3899
vn -0.9209 0.0007 0.3899
vn 0.2774 -0.9498 -0.1450
vn -0.1887 0.9534 0.2354
vn -0.1293 0.9520 0.2774
vn -0.2211 0.9749 0.0246
vn -0.2992 0.9542 0.0060
vn 0.4237 -0.9012 -0.0912
vn 0.3906 -0.9206 -0.0006
vn 0.0501 -0.9986 -0.0161
vn -0.8216 0.0000 -0.5701
vn -0.8217 0.0006 -0.5700
vn -1.0000 0.0028 0.0088
vn -1.0000 0.0017 0.0091
vn -0.9162 0.0015 0.4008
vn -0.9208 0.0007 -0.3901
vn 0.8216 0.0000 -0.5701
vn 0.9167 0.0069 -0.3995
vn 0.9208 0.0002 0.3901
vn 0.8216 0.0000 0.5700
vn -0.8216 0.0000 0.5701
vn -0.3897 -0.9210 0.0000
vn -0.0489 -0.9631 0.2647
vn 0.1061 -0.9881 0.1115
vn -0.0667 -0.9952 0.0714
vn 0.0152 -0.9970 -0.0759
vn 0.4237 -0.9012 0.0912
vn 0.0300 -0.9995 -0.0106
vn -0.0667 -0.9952 -0.0714
vn 0.3906 -0.9206 0.0006
vn 0.2626 0.9649 0.0000
vn -0.0310 0.9840 -0.1755
vn -0.0627 0.9683 -0.2420
vn 0.4592 0.8547 0.2420
vn 0.2583 0.9489 -0.1815
vn -0.1466 0.9586 -0.2442
vn 0.3079 0.9499 0.0533
vn 0.4653 0.8660 -0.1835
vn -0.2211 0.9749 -0.0246
vn 0.0458 0.9775 0.2061
vn -0.2992 0.9542 -0.0060
vn -0.0635 -0.9530 -0.2964
vn -0.0259 -0.9996 0.0136
vn -0.8216 0.0006 0.5700
vn 0.9163 0.0015 0.4005
vn 0.8217 0.0006 -0.5700
vn -0.9163 0.0015 -0.4005
vn -1.0000 0.0028 -0.0088
vn -0.9159 0.0051 -0.4014
vn 0.9159 0.0051 0.4014
vn -0.0152 -0.9970 0.0759
vn -0.3179 0.9388 0.1329
vn 0.0573 0.9769 0.2059
vn -0.2626 0.9649 0.0000
vn -0.2197 0.9729 -0.0722
vn -0.0347 -0.9543 -0.2968
vn 0.3897 -0.9210 0.0000
vn 0.1432 -0.9872 0.0702
vn 0.9999 0.0075 -0.0091
vn -0.9162 0.0011 0.4006
vn -0.9209 0.0051 -0.3899
vn 0.9160 0.0011 -0.4011
vn 0.8216 0.0002 0.5700
vn 0.9208 0.0051 0.3900
vn -0.3906 -0.9206 -0.0006
vn -0.4237 -0.9012 0.0912
vn 0.0370 -0.9975 0.0604
vn 0.0259 -0.9996 -0.0136
vn -0.2340 -0.9658 0.1116
vn 0.0489 -0.9631 0.2647
vn -0.1061 -0.9881 -0.1115
vn 0.0259 -0.9996 0.0136
vn 0.2211 0.9749 0.0246
vn 0.1466 0.9586 -0.2442
vn -0.3079 0.9499 -0.0533
vn 0.2317 0.9727 0.0087
vn 0.1887 0.9534 -0.2354
vn 0.0310 0.9840 -0.1755
vn 0.0132 0.9609 0.2767
vn 0.2992 0.9542 -0.0060
vn 0.1466 0.9586 0.2442
vn 0.2211 0.9749 -0.0246
vn -0.2197 0.9729 0.0722
vn -0.4344 -0.8924 -0.1222
vn -0.3906 -0.9206 0.0006
vn 0.1421 -0.9798 -0.1404
vn -0.9208 0.0011 0.3900
vn 1.0000 0.0017 0.0091
vn 0.9208 0.0011 -0.3900
vn -1.0000 0.0017 -0.0091
usemtl None
s off
f 17/1/1 5/2/1 37/3/1
f 20/4/2 14/5/2 40/6/2
f 48/7/3 18/8/3 19/9/3
f 47/10/4 14/11/4 20/12/4
f 26/13/5 39/14/5 46/15/5
f 45/16/6 10/17/6 28/18/6
f 15/19/7 29/20/7 44/21/7
f 30/22/8 40/23/8 43/24/8
f 42/25/9 11/26/9 32/27/9
f 38/28/10 33/29/10 41/30/10
f 36/31/11 8/32/11 7/33/11
f 23/34/12 8/32/12 36/31/12
f 22/35/13 6/36/13 35/37/13
f 22/35/14 35/37/14 13/38/14
f 1/39/15 22/35/15 13/38/15
f 16/40/16 23/34/16 36/31/16
f 8/41/17 37/3/17 7/42/17
f 5/2/18 25/43/18 38/44/18
f 18/45/19 39/46/19 19/47/19
f 19/47/20 34/48/20 9/49/20
f 34/50/21 40/6/21 9/51/21
f 41/30/22 11/52/22 31/53/22
f 37/54/23 31/53/23 7/55/23
f 4/56/24 41/30/24 37/54/24
f 21/57/25 32/27/25 35/58/25
f 16/59/26 42/25/26 21/57/26
f 36/60/27 31/61/27 42/25/27
f 43/24/28 1/62/28 13/63/28
f 32/27/29 13/63/29 35/58/29
f 11/26/30 43/24/30 32/27/30
f 44/21/31 10/64/31 27/65/31
f 23/66/32 27/65/32 8/67/32
f 2/68/33 44/21/33 23/66/33
f 25/69/34 28/18/34 12/70/34
f 5/71/35 45/16/35 25/69/35
f 17/72/36 27/73/36 45/16/36
f 46/15/37 3/74/37 49/75/37
f 28/18/38 49/75/38 12/70/38
f 10/17/39 46/15/39 28/18/39
f 26/76/40 20/12/40 34/77/40
f 10/64/31 47/10/31 26/76/31
f 29/20/41 22/78/41 47/10/41
f 30/79/42 19/9/42 9/80/42
f 11/52/22 48/7/22 30/79/22
f 33/29/43 24/81/43 48/7/43
f 34/50/44 20/4/44 40/6/44
f 49/82/45 18/45/45 24/83/45
f 8/41/46 17/1/46 37/3/46
f 15/84/47 16/40/47 21/85/47
f 6/36/48 15/84/48 35/37/48
f 15/84/49 2/86/49 16/40/49
f 49/82/50 3/87/50 18/45/50
f 48/7/51 24/81/51 18/8/51
f 47/10/52 22/78/52 14/11/52
f 26/13/53 34/88/53 39/14/53
f 45/16/54 27/73/54 10/17/54
f 15/19/55 6/89/55 29/20/55
f 30/22/56 9/90/56 40/23/56
f 42/25/57 31/61/57 11/26/57
f 38/28/58 12/91/58 33/29/58
f 38/44/59 25/43/59 12/92/59
f 1/39/60 14/5/60 22/35/60
f 16/40/61 2/86/61 23/34/61
f 4/93/62 5/2/62 38/44/62
f 19/47/63 39/46/63 34/48/63
f 18/45/64 3/87/64 39/46/64
f 41/30/65 33/29/65 11/52/65
f 37/54/66 41/30/66 31/53/66
f 4/56/67 38/28/67 41/30/67
f 21/57/68 42/25/68 32/27/68
f 16/59/69 36/60/69 42/25/69
f 36/60/70 7/94/70 31/61/70
f 43/24/71 40/23/71 1/62/71
f 32/27/72 43/24/72 13/63/72
f 11/26/57 30/22/57 43/24/57
f 44/21/73 29/20/73 10/64/73
f 23/66/74 44/21/74 27/65/74
f 2/68/75 15/19/75 44/21/75
f 25/69/76 45/16/76 28/18/76
f 5/71/77 17/72/77 45/16/77
f 17/72/78 8/95/78 27/73/78
f 46/15/79 39/14/79 3/74/79
f 28/18/80 46/15/80 49/75/80
f 10/17/54 26/13/54 46/15/54
f 26/76/81 47/10/81 20/12/81
f 10/64/82 29/20/82 47/10/82
f 29/20/83 6/89/83 22/78/83
f 30/79/84 48/7/84 19/9/84
f 11/52/85 33/29/85 48/7/85
f 33/29/86 12/91/86 24/81/86
f 40/6/87 14/5/87 1/39/87
f 12/96/88 49/82/88 24/83/88
f 37/3/89 5/2/89 4/93/89
f 35/37/90 15/84/90 21/85/90
