# Blender v2.93.5 OBJ File: 'MediumRock3.blend'
# www.blender.org
mtllib MediumRock3.mtl
o Cube
v 0.764642 1.113879 -0.669126
v 1.151424 0.106919 -1.053741
v 0.316290 1.049421 0.586019
v 0.506944 0.232601 0.905255
v -0.361326 1.077043 -0.826265
v -0.772497 0.158245 -1.002343
v -0.715376 1.097658 0.627420
v -0.696822 0.093706 0.669868
v -1.059481 0.058891 -0.028611
v 0.617272 1.188380 0.189007
v -0.756323 1.086714 -0.072885
v 1.163863 -0.091304 0.042812
v 0.087110 0.206448 -1.149400
v -0.072988 1.067759 0.738160
v -0.149248 0.186553 1.033838
v 0.278964 1.095964 -0.850477
v -0.007050 -0.303975 0.009676
v 0.014703 1.231484 0.089110
v 1.102751 0.836006 -1.053549
v -0.647692 0.791998 0.798204
v 0.601578 0.773247 1.035065
v -0.791012 0.774516 -1.108028
v 1.238413 0.625542 0.154229
v -1.178365 0.581276 -0.077949
v 0.077722 0.806391 -1.162115
v -0.056275 0.841892 1.114806
vt 0.227498 0.267841
vt 0.266110 0.422683
vt 0.121759 0.427198
vt 0.088595 0.294730
vt 0.001824 0.293620
vt 0.073477 0.410093
vt 0.253090 0.500430
vt 0.415216 0.326354
vt 0.467346 0.404691
vt 0.645159 0.226343
vt 0.650866 0.469758
vt 0.499067 0.324820
vt 0.470993 0.187018
vt 0.172534 0.001824
vt 0.196611 0.143210
vt 0.113636 0.210435
vt 0.006122 0.153662
vt 0.467346 0.223262
vt 0.411812 0.192829
vt 0.368247 0.095277
vt 0.431532 0.012190
vt 0.909693 0.245732
vt 0.883230 0.469758
vt 0.615087 0.608366
vt 0.680906 0.637744
vt 0.680906 0.748558
vt 0.586666 0.821180
vt 0.877970 0.065178
vt 0.676758 0.001824
vt 0.072113 0.915760
vt 0.009457 0.827413
vt 0.001824 0.692945
vt 0.060220 0.733326
vt 0.538599 0.074603
vt 0.735527 0.880991
vt 0.852611 0.898286
vt 0.837965 0.998176
vt 0.698341 0.986921
vt 0.202499 0.908679
vt 0.186204 0.728145
vt 0.470993 0.648558
vt 0.474510 0.806726
vt 0.705760 0.473405
vt 0.852611 0.490993
vt 0.836432 0.668384
vt 0.684553 0.648782
vt 0.049766 0.518220
vt 0.202499 0.504077
vt 0.618495 0.914429
vt 0.489317 0.908129
vt 0.475266 0.512098
vt 0.609326 0.473405
vn -0.1013 0.9889 0.1085
vn -0.2513 0.6748 0.6939
vn -0.6371 0.7436 -0.2029
vn 0.1483 -0.8835 0.4442
vn 0.5277 0.7587 0.3821
vn 0.0940 0.7806 -0.6179
vn 0.6711 0.7395 0.0525
vn 0.0653 -0.9527 -0.2969
vn -0.8663 0.4303 0.2536
vn -0.1023 0.9869 -0.1245
vn 0.0500 0.9933 -0.1046
vn -0.1715 -0.9387 -0.2990
vn -0.0597 0.7377 -0.6725
vn -0.2336 -0.9213 0.3109
vn 0.1749 0.8684 0.4640
vn 0.0748 0.9501 0.3027
vn 0.1503 -0.1944 0.9693
vn -0.1105 -0.0988 -0.9890
vn -0.8614 -0.0817 0.5014
vn 0.9977 -0.0127 -0.0664
vn 0.0971 -0.0051 -0.9953
vn 0.7539 -0.2202 0.6190
vn -0.9287 -0.1578 -0.3356
vn -0.5039 -0.0801 0.8601
usemtl Material
s off
f 18/1/1 11/2/1 7/3/1 14/4/1
f 26/5/2 14/4/2 7/3/2 20/6/2
f 24/7/3 11/2/3 5/8/3 22/9/3
f 17/10/4 12/11/4 4/12/4 15/13/4
f 23/14/5 10/15/5 3/16/5 21/17/5
f 25/18/6 16/19/6 1/20/6 19/21/6
f 19/21/7 1/20/7 10/15/7 23/14/7
f 13/22/8 2/23/8 12/11/8 17/10/8
f 20/24/9 7/25/9 11/26/9 24/27/9
f 16/19/10 5/8/10 11/2/10 18/1/10
f 1/20/11 16/19/11 18/1/11 10/15/11
f 6/28/12 13/22/12 17/10/12 9/29/12
f 22/30/13 5/31/13 16/32/13 25/33/13
f 9/29/14 17/10/14 15/13/14 8/34/14
f 21/17/15 3/16/15 14/4/15 26/5/15
f 10/15/16 18/1/16 14/4/16 3/16/16
f 4/35/17 21/36/17 26/37/17 15/38/17
f 6/39/18 22/30/18 25/33/18 13/40/18
f 8/41/19 20/24/19 24/27/19 9/42/19
f 2/43/20 19/44/20 23/45/20 12/46/20
f 13/40/21 25/33/21 19/47/21 2/48/21
f 12/46/22 23/45/22 21/36/22 4/35/22
f 9/42/23 24/27/23 22/49/23 6/50/23
f 15/51/24 26/52/24 20/24/24 8/41/24
