# Blender v2.93.5 OBJ File: ''
# www.blender.org
mtllib untitled.mtl
o Сфера_Сфера.002
v 0.000000 0.980785 -0.195090
v 0.000000 0.831470 -0.555570
v 0.000000 0.555570 -0.831470
v 0.000000 0.195090 -0.980785
v 0.000000 -0.555570 -0.831470
v 0.000000 -0.831470 -0.555570
v 0.074658 0.980785 -0.180240
v 0.212608 0.831470 -0.513280
v 0.318190 0.555570 -0.768178
v 0.375330 0.195090 -0.906127
v 0.375330 -0.195090 -0.906127
v 0.318190 -0.555570 -0.768178
v 0.212608 -0.831470 -0.513280
v 0.074658 -0.980785 -0.180240
v 0.137950 0.980785 -0.137950
v 0.392848 0.831470 -0.392847
v 0.587938 0.555570 -0.587938
v 0.693520 0.195090 -0.693520
v 0.693520 -0.195090 -0.693520
v 0.587938 -0.555570 -0.587938
v 0.392848 -0.831470 -0.392847
v 0.137950 -0.980785 -0.137950
v 0.180240 0.980785 -0.074658
v 0.513280 0.831470 -0.212607
v 0.768178 0.555570 -0.318190
v 0.906127 0.195090 -0.375330
v 0.906127 -0.195090 -0.375330
v 0.768178 -0.555570 -0.318190
v 0.513280 -0.831470 -0.212607
v 0.180240 -0.980785 -0.074658
v 0.195090 0.980785 0.000000
v 0.555570 0.831470 0.000000
v 0.831469 0.555570 0.000000
v 0.980785 0.195090 0.000000
v 0.980785 -0.195090 0.000000
v 0.831469 -0.555570 0.000000
v 0.555570 -0.831470 0.000000
v 0.195090 -0.980785 0.000000
v 0.180240 0.980785 0.074658
v 0.513280 0.831470 0.212608
v 0.768178 0.555570 0.318190
v 0.906127 0.195090 0.375330
v 0.906127 -0.195090 0.375330
v 0.768178 -0.555570 0.318190
v 0.513280 -0.831470 0.212608
v 0.180240 -0.980785 0.074658
v 0.137950 0.980785 0.137950
v 0.392847 0.831470 0.392847
v 0.587938 0.555570 0.587938
v 0.693520 0.195090 0.693520
v 0.693520 -0.195090 0.693520
v 0.587938 -0.555570 0.587938
v 0.392847 -0.831470 0.392847
v 0.137950 -0.980785 0.137950
v 0.074658 0.980785 0.180240
v 0.212607 0.831470 0.513280
v 0.318190 0.555570 0.768178
v 0.375330 0.195090 0.906127
v 0.375330 -0.195090 0.906127
v 0.318190 -0.555570 0.768178
v 0.212607 -0.831470 0.513280
v 0.074658 -0.980785 0.180240
v 0.000000 0.980785 0.195090
v -0.000000 0.831470 0.555570
v -0.000000 0.555570 0.831469
v -0.000000 0.195090 0.980785
v -0.000000 -0.195090 0.980785
v -0.000000 -0.555570 0.831469
v -0.000000 -0.831470 0.555570
v -0.000000 -0.980785 0.195090
v -0.074658 0.980785 0.180240
v -0.212608 0.831470 0.513280
v -0.318189 0.555570 0.768177
v -0.375330 0.195090 0.906127
v -0.375330 -0.195090 0.906127
v -0.318190 -0.555570 0.768178
v -0.212608 -0.831470 0.513280
v -0.074658 -0.980785 0.180240
v -0.137950 0.980785 0.137950
v -0.392847 0.831470 0.392847
v -0.587937 0.555570 0.587938
v -0.693520 0.195090 0.693520
v -0.693520 -0.195090 0.693520
v -0.587938 -0.555570 0.587938
v -0.392847 -0.831470 0.392847
v -0.137950 -0.980785 0.137950
v -0.000000 1.000000 0.000000
v -0.180240 0.980785 0.074658
v -0.513280 0.831470 0.212607
v -0.768177 0.555570 0.318190
v -0.906127 0.195090 0.375330
v -0.906127 -0.195090 0.375330
v -0.768177 -0.555570 0.318190
v -0.513280 -0.831470 0.212607
v -0.180240 -0.980785 0.074658
v -0.195090 0.980785 0.000000
v -0.555570 0.831470 -0.000000
v -0.831469 0.555570 0.000000
v -0.980785 0.195090 -0.000000
v -0.980785 -0.195090 -0.000000
v -0.831469 -0.555570 0.000000
v -0.555570 -0.831470 -0.000000
v -0.195090 -0.980785 0.000000
v -0.180240 0.980785 -0.074658
v -0.513280 0.831470 -0.212607
v -0.768177 0.555570 -0.318189
v -0.906127 0.195090 -0.375330
v -0.906127 -0.195090 -0.375330
v -0.768177 -0.555570 -0.318189
v -0.513280 -0.831470 -0.212607
v -0.180240 -0.980785 -0.074658
v -0.137950 0.980785 -0.137950
v -0.392847 0.831470 -0.392847
v -0.587937 0.555570 -0.587937
v -0.693519 0.195090 -0.693520
v -0.693519 -0.195090 -0.693520
v -0.587937 -0.555570 -0.587937
v -0.392847 -0.831470 -0.392847
v -0.137950 -0.980785 -0.137950
v -0.074658 0.980785 -0.180240
v -0.212607 0.831470 -0.513279
v -0.318189 0.555570 -0.768177
v -0.375330 0.195090 -0.906127
v -0.375330 -0.195090 -0.906127
v -0.318189 -0.555570 -0.768177
v -0.212607 -0.831470 -0.513279
v -0.074658 -0.980785 -0.180240
v 0.000000 -0.195090 -0.980785
v 0.000000 -0.980785 -0.195090
v 0.000000 -1.000000 0.000000
vt 1.000000 1.000000
vt 0.000000 1.000000
vt 0.000000 0.000000
vt 1.000000 0.000000
vt 0.000000 0.000000
vt 1.000000 0.000000
vt 1.000000 1.000000
vt 0.000000 1.000000
vt 1.000000 1.000000
vt 0.000000 1.000000
vt 0.000000 0.000000
vt 1.000000 0.000000
vt 0.000000 0.000000
vt 0.000000 0.000000
vt 1.000000 1.000000
vt 1.000000 1.000000
vt 0.000000 1.000000
vt 0.000000 0.000000
vt 1.000000 0.000000
vt 0.000000 0.000000
vt 1.000000 0.000000
vt 1.000000 1.000000
vt 0.000000 1.000000
vt 1.000000 1.000000
vt 0.000000 1.000000
vt 0.000000 0.000000
vt 1.000000 0.000000
vt 1.000000 1.000000
vt 0.000000 1.000000
vt 0.000000 0.000000
vt 1.000000 0.000000
vt 1.000000 1.000000
vt 0.000000 1.000000
vt 0.000000 0.000000
vt 1.000000 0.000000
vt 1.000000 1.000000
vt 0.000000 1.000000
vt 0.000000 0.000000
vt 1.000000 0.000000
vt 1.000000 0.000000
vt 1.000000 1.000000
vt 0.000000 0.000000
vt 1.000000 1.000000
vt 0.000000 1.000000
vt 0.000000 0.000000
vt 1.000000 0.000000
vt 1.000000 1.000000
vt 0.000000 1.000000
vt 1.000000 0.000000
vt 1.000000 1.000000
vt 0.000000 1.000000
vt 0.000000 0.000000
vt 1.000000 0.000000
vt 1.000000 1.000000
vt 0.000000 1.000000
vt 0.000000 0.000000
vt 1.000000 0.000000
vt 1.000000 1.000000
vt 0.000000 1.000000
vt 0.000000 0.000000
vt 1.000000 0.000000
vt 1.000000 1.000000
vt 0.000000 1.000000
vt 0.000000 0.000000
vt 1.000000 0.000000
vt 1.000000 1.000000
vt 0.000000 1.000000
vt 0.000000 0.000000
vt 1.000000 0.000000
vt 1.000000 1.000000
vt 0.000000 1.000000
vt 0.000000 0.000000
vt 1.000000 0.000000
vt 1.000000 1.000000
vt 0.000000 1.000000
vt 0.000000 0.000000
vt 1.000000 0.000000
vt 1.000000 1.000000
vt 0.000000 1.000000
vt 0.000000 0.000000
vt 1.000000 0.000000
vt 1.000000 1.000000
vt 0.000000 1.000000
vt 0.000000 0.000000
vt 1.000000 0.000000
vt 1.000000 1.000000
vt 1.000000 1.000000
vt 0.000000 1.000000
vt 0.000000 0.000000
vt 1.000000 0.000000
vt 1.000000 1.000000
vt 0.000000 1.000000
vt 0.000000 0.000000
vt 1.000000 0.000000
vt 0.000000 0.000000
vt 1.000000 1.000000
vt 0.000000 1.000000
vt 0.000000 0.000000
vt 1.000000 0.000000
vt 1.000000 1.000000
vt 0.000000 1.000000
vt 0.000000 0.000000
vt 1.000000 0.000000
vt 1.000000 1.000000
vt 0.000000 1.000000
vt 0.000000 0.000000
vt 1.000000 0.000000
vt 1.000000 1.000000
vt 0.000000 1.000000
vt 0.000000 0.000000
vt 1.000000 0.000000
vt 1.000000 1.000000
vt 0.000000 1.000000
vt 0.000000 0.000000
vt 1.000000 0.000000
vt 1.000000 1.000000
vt 1.000000 1.000000
vt 0.000000 1.000000
vt 0.000000 0.000000
vt 1.000000 0.000000
vt 0.000000 0.000000
vt 1.000000 1.000000
vt 0.000000 1.000000
vt 0.000000 0.000000
vt 1.000000 0.000000
vt 1.000000 1.000000
vt 0.000000 1.000000
vt 0.000000 0.000000
vt 1.000000 0.000000
vt 1.000000 1.000000
vt 0.000000 1.000000
vt 0.000000 0.000000
vt 1.000000 0.000000
vt 1.000000 1.000000
vt 0.000000 1.000000
vt 0.000000 0.000000
vt 1.000000 0.000000
vt 1.000000 1.000000
vt 0.000000 1.000000
vt 0.000000 0.000000
vt 1.000000 0.000000
vt 1.000000 1.000000
vt 0.000000 1.000000
vt 0.000000 0.000000
vt 1.000000 0.000000
vt 1.000000 1.000000
vt 0.000000 1.000000
vt 0.000000 0.000000
vt 1.000000 0.000000
vt 1.000000 1.000000
vt 0.000000 0.000000
vt 1.000000 1.000000
vt 0.000000 1.000000
vt 0.000000 0.000000
vt 1.000000 0.000000
vt 1.000000 1.000000
vt 0.000000 1.000000
vt 0.000000 0.000000
vt 1.000000 0.000000
vt 1.000000 1.000000
vt 0.000000 1.000000
vt 0.000000 0.000000
vt 1.000000 0.000000
vt 1.000000 1.000000
vt 0.000000 1.000000
vt 0.000000 0.000000
vt 1.000000 0.000000
vt 1.000000 1.000000
vt 0.000000 1.000000
vt 0.000000 0.000000
vt 1.000000 0.000000
vt 1.000000 1.000000
vt 0.000000 1.000000
vt 0.000000 0.000000
vt 1.000000 0.000000
vt 0.000000 0.000000
vt 1.000000 1.000000
vt 1.000000 1.000000
vt 0.000000 1.000000
vt 0.000000 0.000000
vt 1.000000 0.000000
vt 1.000000 1.000000
vt 0.000000 1.000000
vt 0.000000 0.000000
vt 1.000000 0.000000
vt 1.000000 1.000000
vt 0.000000 1.000000
vt 0.000000 0.000000
vt 1.000000 0.000000
vt 1.000000 1.000000
vt 0.000000 1.000000
vt 0.000000 0.000000
vt 1.000000 0.000000
vt 1.000000 1.000000
vt 0.000000 1.000000
vt 0.000000 0.000000
vt 1.000000 0.000000
vt 1.000000 1.000000
vt 0.000000 1.000000
vt 0.000000 0.000000
vt 1.000000 0.000000
vt 1.000000 1.000000
vt 0.000000 0.000000
vt 1.000000 1.000000
vt 0.000000 1.000000
vt 0.000000 0.000000
vt 1.000000 0.000000
vt 1.000000 1.000000
vt 0.000000 1.000000
vt 0.000000 0.000000
vt 1.000000 0.000000
vt 1.000000 1.000000
vt 0.000000 1.000000
vt 0.000000 0.000000
vt 1.000000 0.000000
vt 1.000000 1.000000
vt 0.000000 1.000000
vt 0.000000 0.000000
vt 1.000000 0.000000
vt 1.000000 1.000000
vt 0.000000 1.000000
vt 0.000000 0.000000
vt 1.000000 0.000000
vt 1.000000 1.000000
vt 0.000000 1.000000
vt 0.000000 0.000000
vt 1.000000 0.000000
vt 1.000000 1.000000
vt 0.000000 0.000000
vt 1.000000 1.000000
vt 0.000000 1.000000
vt 0.000000 0.000000
vt 1.000000 0.000000
vt 1.000000 1.000000
vt 0.000000 1.000000
vt 0.000000 0.000000
vt 1.000000 0.000000
vt 1.000000 1.000000
vt 0.000000 1.000000
vt 0.000000 0.000000
vt 1.000000 0.000000
vt 1.000000 1.000000
vt 0.000000 1.000000
vt 0.000000 0.000000
vt 1.000000 0.000000
vt 1.000000 1.000000
vt 0.000000 1.000000
vt 0.000000 0.000000
vt 1.000000 0.000000
vt 1.000000 1.000000
vt 0.000000 1.000000
vt 0.000000 0.000000
vt 1.000000 0.000000
vt 1.000000 1.000000
vt 0.000000 1.000000
vt 0.000000 0.000000
vt 1.000000 0.000000
vt 1.000000 1.000000
vt 1.000000 1.000000
vt 0.000000 1.000000
vt 0.000000 0.000000
vt 1.000000 0.000000
vt 1.000000 1.000000
vt 0.000000 1.000000
vt 0.000000 0.000000
vt 1.000000 0.000000
vt 0.000000 0.000000
vt 1.000000 1.000000
vt 0.000000 1.000000
vt 0.000000 0.000000
vt 1.000000 0.000000
vt 1.000000 1.000000
vt 0.000000 1.000000
vt 0.000000 0.000000
vt 1.000000 0.000000
vt 1.000000 1.000000
vt 0.000000 1.000000
vt 0.000000 0.000000
vt 1.000000 0.000000
vt 1.000000 1.000000
vt 0.000000 1.000000
vt 0.000000 0.000000
vt 1.000000 0.000000
vt 1.000000 1.000000
vt 0.000000 1.000000
vt 0.000000 0.000000
vt 1.000000 0.000000
vt 1.000000 1.000000
vt 0.000000 1.000000
vt 0.000000 0.000000
vt 1.000000 0.000000
vt 1.000000 1.000000
vt 0.000000 1.000000
vt 0.000000 0.000000
vt 1.000000 0.000000
vt 0.000000 0.000000
vt 1.000000 1.000000
vt 0.000000 1.000000
vt 0.000000 0.000000
vt 1.000000 0.000000
vt 1.000000 1.000000
vt 0.000000 1.000000
vt 0.000000 0.000000
vt 1.000000 0.000000
vt 1.000000 1.000000
vt 1.000000 1.000000
vt 0.000000 1.000000
vt 0.000000 0.000000
vt 1.000000 0.000000
vt 1.000000 1.000000
vt 0.000000 1.000000
vt 0.000000 0.000000
vt 1.000000 0.000000
vt 1.000000 1.000000
vt 0.000000 1.000000
vt 0.000000 0.000000
vt 1.000000 0.000000
vt 0.000000 0.000000
vt 1.000000 1.000000
vt 0.000000 1.000000
vt 0.000000 0.000000
vt 1.000000 0.000000
vt 1.000000 1.000000
vt 0.000000 1.000000
vt 0.000000 0.000000
vt 1.000000 0.000000
vt 1.000000 1.000000
vt 0.000000 1.000000
vt 0.000000 0.000000
vt 1.000000 0.000000
vt 1.000000 1.000000
vt 0.000000 1.000000
vt 0.000000 0.000000
vt 1.000000 0.000000
vt 1.000000 1.000000
vt 1.000000 1.000000
vt 0.000000 1.000000
vt 0.000000 0.000000
vt 1.000000 0.000000
vt 1.000000 1.000000
vt 0.000000 1.000000
vt 0.000000 0.000000
vt 1.000000 0.000000
vt 1.000000 1.000000
vt 0.000000 1.000000
vt 0.000000 0.000000
vt 1.000000 0.000000
vt 0.000000 0.000000
vt 1.000000 1.000000
vt 0.000000 1.000000
vt 0.000000 0.000000
vt 1.000000 0.000000
vt 1.000000 1.000000
vt 0.000000 1.000000
vt 0.000000 0.000000
vt 1.000000 0.000000
vt 1.000000 1.000000
vt 0.000000 1.000000
vt 0.000000 0.000000
vt 1.000000 0.000000
vt 1.000000 1.000000
vt 0.000000 1.000000
vt 0.000000 0.000000
vt 1.000000 0.000000
vt 1.000000 1.000000
vt 0.000000 1.000000
vt 0.000000 0.000000
vt 1.000000 0.000000
vt 1.000000 1.000000
vt 1.000000 1.000000
vt 0.000000 1.000000
vt 0.000000 0.000000
vt 1.000000 0.000000
vt 1.000000 1.000000
vt 0.000000 1.000000
vt 0.000000 0.000000
vt 1.000000 0.000000
vt 1.000000 1.000000
vt 0.000000 1.000000
vt 0.000000 0.000000
vt 1.000000 0.000000
vt 1.000000 1.000000
vt 0.000000 1.000000
vt 0.000000 0.000000
vt 1.000000 0.000000
vt 1.000000 1.000000
vt 0.000000 1.000000
vt 0.000000 0.000000
vt 1.000000 0.000000
vt 1.000000 1.000000
vt 0.000000 1.000000
vt 0.000000 0.000000
vt 1.000000 0.000000
vt 1.000000 1.000000
vt 0.000000 1.000000
vt 0.000000 0.000000
vt 1.000000 0.000000
vt 1.000000 1.000000
vt 0.000000 0.000000
vt 1.000000 1.000000
vt 0.000000 1.000000
vt 0.000000 0.000000
vt 1.000000 0.000000
vt 1.000000 1.000000
vt 0.000000 1.000000
vt 0.000000 0.000000
vt 1.000000 0.000000
vt 1.000000 1.000000
vt 0.000000 1.000000
vt 0.000000 0.000000
vt 1.000000 0.000000
vt 1.000000 1.000000
vt 0.000000 1.000000
vt 0.000000 0.000000
vt 1.000000 0.000000
vt 1.000000 1.000000
vt 0.000000 1.000000
vt 0.000000 0.000000
vt 1.000000 0.000000
vt 1.000000 1.000000
vt 0.000000 1.000000
vt 0.000000 0.000000
vt 1.000000 0.000000
vt 1.000000 1.000000
vt 0.000000 0.000000
vt 1.000000 1.000000
vt 0.000000 1.000000
vt 0.000000 0.000000
vt 1.000000 0.000000
vt 1.000000 1.000000
vt 0.000000 1.000000
vt 0.000000 0.000000
vt 1.000000 0.000000
vt 1.000000 1.000000
vt 0.000000 1.000000
vt 0.000000 0.000000
vt 1.000000 0.000000
vt 1.000000 1.000000
vt 0.000000 1.000000
vt 0.000000 0.000000
vt 1.000000 0.000000
vt 1.000000 1.000000
vt 1.000000 1.000000
vt 0.000000 1.000000
vt 0.000000 0.000000
vt 1.000000 0.000000
vt 0.000000 0.000000
vt 0.000000 0.000000
vt 1.000000 1.000000
vt 1.000000 1.000000
vt 0.000000 1.000000
vt 0.000000 0.000000
vt 1.000000 0.000000
vt 0.000000 1.000000
vt 0.000000 0.000000
vt 1.000000 0.000000
vt 1.000000 1.000000
vt 0.000000 0.000000
vt 0.000000 0.000000
vt 1.000000 1.000000
vt 0.000000 1.000000
vt 0.000000 0.000000
vt 1.000000 0.000000
vt 0.000000 0.000000
vt 1.000000 0.000000
vt 1.000000 1.000000
vt 0.000000 1.000000
vt 0.000000 1.000000
vt 0.000000 0.000000
vt 1.000000 0.000000
vt 1.000000 1.000000
vt 0.000000 1.000000
vt 0.000000 0.000000
vt 1.000000 0.000000
vt 0.000000 1.000000
vt 1.000000 0.000000
vt 1.000000 1.000000
vt 1.000000 1.000000
vt 1.000000 1.000000
vt 0.000000 1.000000
vt 0.000000 0.000000
vt 1.000000 0.000000
vn 0.5147 -0.3764 -0.7703
vn -0.1393 0.7002 -0.7002
vn 0.0759 0.9212 -0.3816
vn 0.0195 -0.9950 -0.0980
vn 0.5556 0.0000 -0.8315
vn -0.1393 -0.7002 -0.7002
vn 0.1393 0.7002 -0.7002
vn 0.1393 -0.7002 -0.7002
vn 0.1807 0.3764 -0.9087
vn 0.3235 0.9212 -0.2161
vn 0.0555 0.9950 -0.0831
vn 0.2161 -0.9212 -0.3235
vn 0.2161 0.9212 -0.3235
vn 0.3966 0.7002 -0.5936
vn 0.8315 0.0000 -0.5556
vn 0.1807 -0.3764 -0.9087
vn 0.3966 -0.7002 -0.5936
vn 0.5936 -0.7002 -0.3966
vn 0.7703 -0.3764 -0.5147
vn 0.5936 0.7002 -0.3966
vn 0.9808 0.0000 -0.1951
vn 0.3816 0.9212 -0.0759
vn 0.0831 0.9950 -0.0555
vn 0.3235 -0.9212 -0.2161
vn 0.9087 0.3764 -0.1807
vn 0.0555 -0.9950 -0.0831
vn 0.7002 -0.7002 -0.1393
vn 0.9087 -0.3764 -0.1807
vn 0.7002 0.7002 -0.1393
vn 0.9808 0.0000 0.1951
vn 0.3816 -0.9212 -0.0759
vn 0.0980 0.9950 -0.0195
vn 0.9087 0.3764 0.1807
vn 0.0831 -0.9950 -0.0555
vn 0.3816 0.9212 0.0759
vn 0.7002 -0.7002 0.1393
vn 0.9087 -0.3764 0.1807
vn 0.7002 0.7002 0.1393
vn 0.8315 0.0000 0.5556
vn 0.3816 -0.9212 0.0759
vn 0.7703 0.3764 0.5147
vn 0.0980 0.9950 0.0195
vn 0.0980 -0.9950 -0.0195
vn 0.3235 0.9212 0.2161
vn 0.5936 -0.7002 0.3966
vn 0.7703 -0.3764 0.5147
vn 0.5936 0.7002 0.3966
vn 0.5556 0.0000 0.8315
vn 0.5147 0.3764 0.7703
vn 0.0980 -0.9950 0.0195
vn 0.0831 0.9950 0.0555
vn 0.2161 0.9212 0.3235
vn 0.3235 -0.9212 0.2161
vn 0.5147 -0.3764 0.7703
vn 0.3966 0.7002 0.5936
vn 0.1951 0.0000 0.9808
vn 0.3966 -0.7002 0.5936
vn 0.0555 0.9950 0.0831
vn 0.0831 -0.9950 0.0555
vn 0.0759 0.9212 0.3816
vn 0.2161 -0.9212 0.3235
vn 0.1807 0.3764 0.9087
vn 0.1393 0.7002 0.7002
vn -0.1951 0.0000 0.9808
vn 0.1393 -0.7002 0.7002
vn 0.0195 0.9950 0.0980
vn 0.0555 -0.9950 0.0831
vn -0.0759 0.9212 0.3816
vn 0.1807 -0.3764 0.9087
vn -0.1807 0.3764 0.9087
vn 0.0759 -0.9212 0.3816
vn -0.1393 0.7002 0.7002
vn -0.5556 0.0000 0.8315
vn -0.1393 -0.7002 0.7002
vn -0.0195 0.9950 0.0980
vn -0.2161 0.9212 0.3235
vn -0.1807 -0.3764 0.9087
vn 0.0195 -0.9950 0.0980
vn -0.0759 -0.9212 0.3816
vn -0.5147 0.3764 0.7703
vn -0.5147 -0.3764 0.7703
vn -0.3966 0.7002 0.5936
vn -0.8315 0.0000 0.5556
vn -0.3966 -0.7002 0.5936
vn -0.3235 0.9212 0.2161
vn -0.0195 -0.9950 0.0980
vn -0.2161 -0.9212 0.3235
vn -0.7703 0.3764 0.5147
vn -0.0555 0.9950 0.0831
vn -0.7703 -0.3764 0.5147
vn -0.5936 0.7002 0.3966
vn -0.9808 0.0000 0.1951
vn -0.0555 -0.9950 0.0831
vn -0.3816 0.9212 0.0759
vn -0.3235 -0.9212 0.2161
vn -0.9087 0.3764 0.1807
vn -0.5936 -0.7002 0.3966
vn -0.0831 0.9950 0.0555
vn -0.7002 0.7002 0.1393
vn -0.9808 0.0000 -0.1951
vn -0.9087 -0.3764 0.1807
vn -0.0831 -0.9950 0.0555
vn -0.7002 0.7002 -0.1393
vn -0.3816 -0.9212 0.0759
vn -0.9087 0.3764 -0.1807
vn -0.7002 -0.7002 0.1393
vn -0.3816 0.9212 -0.0759
vn -0.0980 0.9950 0.0195
vn -0.8315 0.0000 -0.5556
vn -0.7002 -0.7002 -0.1393
vn -0.9087 -0.3764 -0.1807
vn -0.5936 0.7002 -0.3966
vn -0.3816 -0.9212 -0.0759
vn -0.7703 0.3764 -0.5147
vn -0.3235 0.9212 -0.2161
vn -0.0980 0.9950 -0.0195
vn -0.0980 -0.9950 0.0195
vn -0.5556 0.0000 -0.8315
vn -0.5936 -0.7002 -0.3966
vn -0.7703 -0.3764 -0.5147
vn -0.2161 0.9212 -0.3235
vn -0.3235 -0.9212 -0.2161
vn -0.5147 0.3764 -0.7703
vn -0.0831 0.9950 -0.0555
vn -0.0980 -0.9950 -0.0195
vn -0.1951 -0.0000 -0.9808
vn -0.3966 -0.7002 -0.5936
vn -0.5147 -0.3764 -0.7703
vn -0.3966 0.7002 -0.5936
vn -0.0555 0.9950 -0.0831
vn -0.2161 -0.9212 -0.3235
vn -0.0831 -0.9950 -0.0555
vn -0.0195 -0.9950 -0.0980
vn -0.1807 -0.3764 -0.9087
vn -0.0759 -0.9212 -0.3816
vn -0.0195 0.9950 -0.0980
vn -0.0555 -0.9950 -0.0831
vn 0.7703 0.3764 -0.5147
vn -0.1807 0.3764 -0.9087
vn 0.0759 -0.9212 -0.3816
vn 0.5147 0.3764 -0.7703
vn -0.0759 0.9212 -0.3816
vn 0.0195 0.9950 -0.0980
vn 0.1951 -0.0000 -0.9808
usemtl None
s off
f 20/1/1 12/2/1 11/3/1 19/4/1
f 121/5/2 2/6/2 3/7/2 122/8/2
f 8/9/3 2/10/3 1/11/3 7/12/3
f 130/13/4 129/14/4 14/15/4
f 19/16/5 11/17/5 10/18/5 18/19/5
f 125/20/6 5/21/6 6/22/6 126/23/6
f 9/24/7 3/25/7 2/26/7 8/27/7
f 13/28/8 6/29/8 5/30/8 12/31/8
f 10/32/9 4/33/9 3/34/9 9/35/9
f 24/36/10 16/37/10 15/38/10 23/39/10
f 87/40/11 15/41/11 7/42/11
f 22/43/12 14/44/12 13/45/12 21/46/12
f 16/47/13 8/48/13 7/42/13 15/49/13
f 17/50/14 9/51/14 8/52/14 16/53/14
f 27/54/15 19/55/15 18/56/15 26/57/15
f 12/58/16 5/59/16 128/60/16 11/61/16
f 21/62/17 13/63/17 12/64/17 20/65/17
f 29/66/18 21/67/18 20/68/18 28/69/18
f 28/70/19 20/71/19 19/72/19 27/73/19
f 25/74/20 17/75/20 16/76/20 24/77/20
f 35/78/21 27/79/21 26/80/21 34/81/21
f 32/82/22 24/83/22 23/84/22 31/85/22
f 87/40/23 23/86/23 15/38/23
f 30/87/24 22/88/24 21/89/24 29/90/24
f 34/91/25 26/92/25 25/93/25 33/94/25
f 130/13/26 14/95/26 22/43/26
f 37/96/27 29/97/27 28/98/27 36/99/27
f 36/100/28 28/101/28 27/102/28 35/103/28
f 33/104/29 25/105/29 24/106/29 32/107/29
f 43/108/30 35/109/30 34/110/30 42/111/30
f 38/112/31 30/113/31 29/114/31 37/115/31
f 87/40/32 31/116/32 23/84/32
f 42/117/33 34/118/33 33/119/33 41/120/33
f 130/13/34 22/121/34 30/87/34
f 40/122/35 32/123/35 31/124/35 39/125/35
f 45/126/36 37/127/36 36/128/36 44/129/36
f 44/130/37 36/131/37 35/132/37 43/133/37
f 41/134/38 33/135/38 32/136/38 40/137/38
f 51/138/39 43/139/39 42/140/39 50/141/39
f 46/142/40 38/143/40 37/144/40 45/145/40
f 50/146/41 42/147/41 41/148/41 49/149/41
f 87/40/42 39/150/42 31/124/42
f 130/13/43 30/151/43 38/112/43
f 48/152/44 40/153/44 39/154/44 47/155/44
f 53/156/45 45/157/45 44/158/45 52/159/45
f 52/160/46 44/161/46 43/162/46 51/163/46
f 49/164/47 41/165/47 40/166/47 48/167/47
f 59/168/48 51/169/48 50/170/48 58/171/48
f 58/172/49 50/173/49 49/174/49 57/175/49
f 130/13/50 38/176/50 46/142/50
f 87/40/51 47/177/51 39/154/51
f 56/178/52 48/179/52 47/180/52 55/181/52
f 54/182/53 46/183/53 45/184/53 53/185/53
f 60/186/54 52/187/54 51/188/54 59/189/54
f 57/190/55 49/191/55 48/192/55 56/193/55
f 67/194/56 59/195/56 58/196/56 66/197/56
f 61/198/57 53/199/57 52/200/57 60/201/57
f 87/40/58 55/202/58 47/180/58
f 130/13/59 46/203/59 54/182/59
f 64/204/60 56/205/60 55/206/60 63/207/60
f 62/208/61 54/209/61 53/210/61 61/211/61
f 66/212/62 58/213/62 57/214/62 65/215/62
f 65/216/63 57/217/63 56/218/63 64/219/63
f 75/220/64 67/221/64 66/222/64 74/223/64
f 69/224/65 61/225/65 60/226/65 68/227/65
f 87/40/66 63/228/66 55/206/66
f 130/13/67 54/229/67 62/208/67
f 72/230/68 64/231/68 63/232/68 71/233/68
f 68/234/69 60/235/69 59/236/69 67/237/69
f 74/238/70 66/239/70 65/240/70 73/241/70
f 70/242/71 62/243/71 61/244/71 69/245/71
f 73/246/72 65/247/72 64/248/72 72/249/72
f 83/250/73 75/251/73 74/252/73 82/253/73
f 77/254/74 69/255/74 68/256/74 76/257/74
f 87/40/75 71/258/75 63/232/75
f 80/259/76 72/260/76 71/261/76 79/262/76
f 76/263/77 68/264/77 67/265/77 75/266/77
f 130/13/78 62/267/78 70/242/78
f 78/268/79 70/269/79 69/270/79 77/271/79
f 82/272/80 74/273/80 73/274/80 81/275/80
f 84/276/81 76/277/81 75/278/81 83/279/81
f 81/280/82 73/281/82 72/282/82 80/283/82
f 92/284/83 83/285/83 82/286/83 91/287/83
f 85/288/84 77/289/84 76/290/84 84/291/84
f 89/292/85 80/293/85 79/294/85 88/295/85
f 130/13/86 70/296/86 78/268/86
f 86/297/87 78/298/87 77/299/87 85/300/87
f 91/301/88 82/302/88 81/303/88 90/304/88
f 87/40/89 79/305/89 71/261/89
f 93/306/90 84/307/90 83/308/90 92/309/90
f 90/310/91 81/311/91 80/312/91 89/313/91
f 100/314/92 92/315/92 91/316/92 99/317/92
f 130/13/93 78/318/93 86/297/93
f 97/319/94 89/320/94 88/321/94 96/322/94
f 95/323/95 86/324/95 85/325/95 94/326/95
f 99/327/96 91/328/96 90/329/96 98/330/96
f 94/331/97 85/332/97 84/333/97 93/334/97
f 87/40/98 88/335/98 79/294/98
f 98/336/99 90/337/99 89/338/99 97/339/99
f 108/340/100 100/341/100 99/342/100 107/343/100
f 101/344/101 93/345/101 92/346/101 100/347/101
f 130/13/102 86/348/102 95/323/102
f 106/349/103 98/350/103 97/351/103 105/352/103
f 103/353/104 95/354/104 94/355/104 102/356/104
f 107/357/105 99/358/105 98/359/105 106/360/105
f 102/361/106 94/362/106 93/363/106 101/364/106
f 105/365/107 97/366/107 96/367/107 104/368/107
f 87/40/108 96/369/108 88/321/108
f 116/370/109 108/371/109 107/372/109 115/373/109
f 110/374/110 102/375/110 101/376/110 109/377/110
f 109/378/111 101/379/111 100/380/111 108/381/111
f 114/382/112 106/383/112 105/384/112 113/385/112
f 111/386/113 103/387/113 102/388/113 110/389/113
f 115/390/114 107/391/114 106/392/114 114/393/114
f 113/394/115 105/395/115 104/396/115 112/397/115
f 87/40/116 104/398/116 96/367/116
f 130/13/117 95/399/117 103/353/117
f 124/400/118 116/401/118 115/402/118 123/403/118
f 118/404/119 110/405/119 109/406/119 117/407/119
f 117/408/120 109/409/120 108/410/120 116/411/120
f 121/412/121 113/413/121 112/414/121 120/415/121
f 119/416/122 111/417/122 110/418/122 118/419/122
f 123/420/123 115/421/123 114/422/123 122/423/123
f 87/40/124 112/424/124 104/396/124
f 130/13/125 103/425/125 111/386/125
f 128/426/126 124/427/126 123/428/126 4/429/126
f 126/430/127 118/431/127 117/432/127 125/433/127
f 125/434/128 117/435/128 116/436/128 124/437/128
f 122/438/129 114/439/129 113/440/129 121/441/129
f 87/40/130 120/442/130 112/414/130
f 127/443/131 119/444/131 118/445/131 126/446/131
f 130/13/132 111/447/132 119/416/132
f 130/13/133 127/448/133 129/449/133
f 5/450/134 125/451/134 124/452/134 128/453/134
f 129/449/135 127/454/135 126/455/135 6/456/135
f 87/40/136 1/457/136 120/458/136
f 130/13/137 119/459/137 127/443/137
f 26/460/138 18/461/138 17/462/138 25/463/138
f 122/464/139 3/465/139 4/466/139 123/467/139
f 14/15/140 129/468/140 6/469/140 13/470/140
f 18/471/141 10/472/141 9/473/141 17/474/141
f 121/475/142 120/458/142 1/476/142 2/477/142
f 87/40/143 7/478/143 1/11/143
f 11/479/144 128/480/144 4/481/144 10/482/144
