# MagicaVoxel @ Ephtracy

# group
o 

# material
mtllib HeavyDoubleShooterBot_LOD0-2.mtl
usemtl palette

# normals
vn 1 0 0
vn -1 0 0
vn 0 0 -1
vn 0 0 1
vn 0 -1 0
vn 0 1 0

# texcoords
vt 0.970703 0.5
vt 0.974609 0.5
vt 0.978516 0.5

# verts
v 0.4 3.3 -0.3
v 0.4 3.3 0
v 0.4 3.4 -0.3
v 0.4 3.4 -0.1
v 0.4 3.4 0
v 0.4 3.4 0.4
v 0.4 3.5 0.1
v 0.4 3.5 0.4
v 0.4 3.6 -0.3
v 0.4 3.6 -0.1
v 0.4 3.6 0.1
v 0.4 3.6 0.4
v 0.4 3.7 -0.3
v 0.4 3.7 -0.1
v 0.4 3.7 0.1
v 0.4 3.7 0.4
v 0.4 4 -0.3
v 0.4 4 -0.1
v 0.4 4 0.1
v 0.4 4 0.3
v 0.4 4.1 0.3
v 0.4 4.1 0.4
v 0.3 3.3 -0.4
v 0.3 3.3 -0.3
v 0.3 3.3 0
v 0.3 3.3 0.1
v 0.3 3.3 0.2
v 0.3 3.4 -0.4
v 0.3 3.4 -0.3
v 0.3 3.4 0
v 0.3 3.4 0.1
v 0.3 3.4 0.2
v 0.3 3.6 -0.4
v 0.3 3.6 -0.3
v 0.3 3.6 -0.1
v 0.3 3.6 0.1
v 0.3 3.6 0.3
v 0.3 3.7 -0.4
v 0.3 3.7 -0.3
v 0.3 3.7 -0.1
v 0.3 3.7 0.1
v 0.3 3.7 0.3
v 0.3 4 -0.3
v 0.3 4 -0.1
v 0.3 4 0.1
v 0.3 4 0.3
v 0.3 4.1 -0.4
v 0.3 4.1 -0.1
v 0.3 4.1 0.1
v 0.3 4.1 0.3
v 0.2 3.3 0.2
v 0.2 3.3 0.4
v 0.2 3.4 0.2
v 0.2 3.4 0.3
v 0.2 3.4 0.4
v 0.2 3.5 0.3
v 0.2 3.5 0.4
v 0.2 3.8 0.3
v 0.2 3.8 0.4
v -0.1 3.3 -0.1
v -0.1 3.3 0.1
v -0.1 3.4 -0.1
v -0.1 3.4 0.1
v -0.1 3.4 0.3
v -0.1 3.4 0.4
v -0.1 3.5 0.3
v -0.1 3.5 0.4
v -0.1 3.7 -0.4
v -0.1 3.7 -0.3
v -0.1 3.9 0.3
v -0.1 3.9 0.4
v -0.1 4 -0.3
v -0.1 4 -0.1
v -0.1 4 0.1
v -0.1 4 0.3
v -0.1 4 0.4
v -0.1 4.1 -0.4
v -0.1 4.1 -0.1
v -0.1 4.1 0.1
v -0.1 4.1 0.4
v -0.2 4 -0.1
v -0.2 4 0.1
v -0.2 4.1 -0.1
v -0.2 4.1 0.1
v -0.3 3.5 0.3
v -0.3 3.5 0.4
v -0.3 3.6 0.3
v -0.3 3.6 0.4
v -0.3 3.7 0.3
v -0.3 3.7 0.4
v -0.3 3.8 0.3
v -0.3 3.8 0.4
v -0.3 3.9 0.3
v -0.3 3.9 0.4
v -0.3 4 0.3
v -0.3 4 0.4
v 0.3 3.5 0.3
v 0.3 3.5 0.4
v 0.3 3.6 0.3
v 0.3 3.6 0.4
v 0.3 3.7 0.3
v 0.3 3.7 0.4
v 0.3 3.8 0.3
v 0.3 3.8 0.4
v 0.3 3.9 0.3
v 0.3 3.9 0.4
v 0.3 4 0.3
v 0.3 4 0.4
v 0.2 4 -0.1
v 0.2 4 0.1
v 0.2 4.1 -0.1
v 0.2 4.1 0.1
v 0.1 3.3 -0.1
v 0.1 3.3 0.1
v 0.1 3.4 -0.1
v 0.1 3.4 0.1
v 0.1 3.4 0.3
v 0.1 3.4 0.4
v 0.1 3.5 0.3
v 0.1 3.5 0.4
v 0.1 3.7 -0.4
v 0.1 3.7 -0.3
v 0.1 3.9 0.3
v 0.1 3.9 0.4
v 0.1 4 -0.3
v 0.1 4 -0.1
v 0.1 4 0.1
v 0.1 4 0.3
v 0.1 4 0.4
v 0.1 4.1 -0.4
v 0.1 4.1 -0.1
v 0.1 4.1 0.1
v 0.1 4.1 0.4
v -0.2 3.3 0.2
v -0.2 3.3 0.4
v -0.2 3.4 0.2
v -0.2 3.4 0.3
v -0.2 3.4 0.4
v -0.2 3.5 0.3
v -0.2 3.5 0.4
v -0.2 3.8 0.3
v -0.2 3.8 0.4
v -0.3 3.3 -0.4
v -0.3 3.3 -0.3
v -0.3 3.3 0
v -0.3 3.3 0.1
v -0.3 3.3 0.2
v -0.3 3.4 -0.4
v -0.3 3.4 -0.3
v -0.3 3.4 0
v -0.3 3.4 0.1
v -0.3 3.4 0.2
v -0.3 3.6 -0.4
v -0.3 3.6 -0.3
v -0.3 3.6 -0.1
v -0.3 3.6 0.1
v -0.3 3.6 0.3
v -0.3 3.7 -0.4
v -0.3 3.7 -0.3
v -0.3 3.7 -0.1
v -0.3 3.7 0.1
v -0.3 3.7 0.3
v -0.3 4 -0.3
v -0.3 4 -0.1
v -0.3 4 0.1
v -0.3 4 0.3
v -0.3 4.1 -0.4
v -0.3 4.1 -0.1
v -0.3 4.1 0.1
v -0.3 4.1 0.3
v -0.4 3.3 -0.3
v -0.4 3.3 0
v -0.4 3.4 -0.3
v -0.4 3.4 -0.1
v -0.4 3.4 0
v -0.4 3.4 0.4
v -0.4 3.5 0.1
v -0.4 3.5 0.4
v -0.4 3.6 -0.3
v -0.4 3.6 -0.1
v -0.4 3.6 0.1
v -0.4 3.6 0.4
v -0.4 3.7 -0.3
v -0.4 3.7 -0.1
v -0.4 3.7 0.1
v -0.4 3.7 0.4
v -0.4 4 -0.3
v -0.4 4 -0.1
v -0.4 4 0.1
v -0.4 4 0.3
v -0.4 4.1 0.3
v -0.4 4.1 0.4
v 0.3 3.3 -0.4
v 0.3 3.4 -0.4
v 0.3 3.6 -0.4
v 0.3 3.7 -0.4
v 0.3 4.1 -0.4
v 0.1 3.4 -0.4
v 0.1 3.6 -0.4
v 0.1 3.7 -0.4
v 0.1 4.1 -0.4
v -0.1 3.4 -0.4
v -0.1 3.6 -0.4
v -0.1 3.7 -0.4
v -0.1 4.1 -0.4
v -0.3 3.3 -0.4
v -0.3 3.4 -0.4
v -0.3 3.6 -0.4
v -0.3 3.7 -0.4
v -0.3 4.1 -0.4
v 0.4 3.3 -0.3
v 0.4 3.4 -0.3
v 0.4 3.6 -0.3
v 0.4 3.7 -0.3
v 0.4 4 -0.3
v 0.3 3.3 -0.3
v 0.3 3.4 -0.3
v 0.3 3.6 -0.3
v 0.3 3.7 -0.3
v 0.3 4 -0.3
v 0.1 3.6 -0.3
v 0.1 3.7 -0.3
v 0.1 4 -0.3
v -0.1 3.6 -0.3
v -0.1 3.7 -0.3
v -0.1 4 -0.3
v -0.3 3.3 -0.3
v -0.3 3.4 -0.3
v -0.3 3.6 -0.3
v -0.3 3.7 -0.3
v -0.3 4 -0.3
v -0.4 3.3 -0.3
v -0.4 3.4 -0.3
v -0.4 3.6 -0.3
v -0.4 3.7 -0.3
v -0.4 4 -0.3
v 0.2 4 0.1
v 0.2 4.1 0.1
v 0.1 3.3 0.1
v 0.1 3.4 0.1
v 0.1 4 0.1
v 0.1 4.1 0.1
v -0.1 3.3 0.1
v -0.1 3.4 0.1
v -0.1 4 0.1
v -0.1 4.1 0.1
v -0.2 4 0.1
v -0.2 4.1 0.1
v 0.4 4 0.3
v 0.4 4.1 0.3
v 0.3 4 0.3
v 0.3 4.1 0.3
v -0.3 4 0.3
v -0.3 4.1 0.3
v -0.4 4 0.3
v -0.4 4.1 0.3
v 0.2 4 -0.1
v 0.2 4.1 -0.1
v 0.1 3.3 -0.1
v 0.1 3.4 -0.1
v 0.1 4 -0.1
v 0.1 4.1 -0.1
v -0.1 3.3 -0.1
v -0.1 3.4 -0.1
v -0.1 4 -0.1
v -0.1 4.1 -0.1
v -0.2 4 -0.1
v -0.2 4.1 -0.1
v 0.4 3.3 0
v 0.4 3.4 0
v 0.3 3.3 0
v 0.3 3.4 0
v -0.3 3.3 0
v -0.3 3.4 0
v -0.4 3.3 0
v -0.4 3.4 0
v 0.3 3.3 0.2
v 0.3 3.4 0.2
v 0.2 3.3 0.2
v 0.2 3.4 0.2
v -0.2 3.3 0.2
v -0.2 3.4 0.2
v -0.3 3.3 0.2
v -0.3 3.4 0.2
v 0.3 3.5 0.3
v 0.3 3.6 0.3
v 0.3 3.7 0.3
v 0.3 3.8 0.3
v 0.3 3.9 0.3
v 0.3 4 0.3
v 0.2 3.5 0.3
v 0.2 3.8 0.3
v 0.1 3.4 0.3
v 0.1 3.5 0.3
v 0.1 3.9 0.3
v 0.1 4 0.3
v -0.1 3.4 0.3
v -0.1 3.5 0.3
v -0.1 3.9 0.3
v -0.1 4 0.3
v -0.2 3.5 0.3
v -0.2 3.8 0.3
v -0.3 3.5 0.3
v -0.3 3.6 0.3
v -0.3 3.7 0.3
v -0.3 3.8 0.3
v -0.3 3.9 0.3
v -0.3 4 0.3
v 0.4 3.4 0.4
v 0.4 3.5 0.4
v 0.4 3.6 0.4
v 0.4 3.7 0.4
v 0.4 4.1 0.4
v 0.3 3.5 0.4
v 0.3 3.6 0.4
v 0.3 3.7 0.4
v 0.3 3.8 0.4
v 0.3 3.9 0.4
v 0.3 4 0.4
v 0.2 3.3 0.4
v 0.2 3.4 0.4
v 0.2 3.5 0.4
v 0.2 3.8 0.4
v 0.1 3.4 0.4
v 0.1 3.5 0.4
v 0.1 3.9 0.4
v 0.1 4 0.4
v 0.1 4.1 0.4
v -0.1 3.4 0.4
v -0.1 3.5 0.4
v -0.1 3.9 0.4
v -0.1 4 0.4
v -0.1 4.1 0.4
v -0.2 3.3 0.4
v -0.2 3.4 0.4
v -0.2 3.5 0.4
v -0.2 3.8 0.4
v -0.3 3.5 0.4
v -0.3 3.6 0.4
v -0.3 3.7 0.4
v -0.3 3.8 0.4
v -0.3 3.9 0.4
v -0.3 4 0.4
v -0.4 3.4 0.4
v -0.4 3.5 0.4
v -0.4 3.6 0.4
v -0.4 3.7 0.4
v -0.4 4.1 0.4
v 0.3 3.3 -0.4
v -0.3 3.3 -0.4
v 0.4 3.3 -0.3
v 0.3 3.3 -0.3
v -0.3 3.3 -0.3
v -0.4 3.3 -0.3
v 0.3 3.3 -0.1
v 0.1 3.3 -0.1
v -0.1 3.3 -0.1
v -0.3 3.3 -0.1
v 0.4 3.3 0
v 0.3 3.3 0
v -0.3 3.3 0
v -0.4 3.3 0
v 0.3 3.3 0.1
v 0.2 3.3 0.1
v 0.1 3.3 0.1
v -0.1 3.3 0.1
v -0.2 3.3 0.1
v -0.3 3.3 0.1
v 0.3 3.3 0.2
v 0.2 3.3 0.2
v -0.2 3.3 0.2
v -0.3 3.3 0.2
v 0.1 3.3 0.3
v -0.1 3.3 0.3
v 0.2 3.3 0.4
v -0.2 3.3 0.4
v 0.1 3.4 -0.1
v -0.1 3.4 -0.1
v 0.4 3.4 0
v 0.3 3.4 0
v -0.3 3.4 0
v -0.4 3.4 0
v 0.3 3.4 0.1
v 0.1 3.4 0.1
v -0.1 3.4 0.1
v -0.3 3.4 0.1
v 0.3 3.4 0.2
v 0.2 3.4 0.2
v -0.2 3.4 0.2
v -0.3 3.4 0.2
v 0.3 3.4 0.3
v 0.2 3.4 0.3
v -0.2 3.4 0.3
v -0.3 3.4 0.3
v 0.4 3.4 0.4
v 0.2 3.4 0.4
v -0.2 3.4 0.4
v -0.4 3.4 0.4
v 0.3 3.7 -0.4
v 0.1 3.7 -0.4
v -0.1 3.7 -0.4
v -0.3 3.7 -0.4
v 0.4 3.7 -0.3
v 0.3 3.7 -0.3
v 0.1 3.7 -0.3
v -0.1 3.7 -0.3
v -0.3 3.7 -0.3
v -0.4 3.7 -0.3
v 0.4 3.7 -0.1
v 0.3 3.7 -0.1
v -0.3 3.7 -0.1
v -0.4 3.7 -0.1
v 0.4 3.7 0.1
v 0.3 3.7 0.1
v -0.3 3.7 0.1
v -0.4 3.7 0.1
v 0.3 3.7 0.3
v -0.3 3.7 0.3
v 0.4 3.7 0.4
v 0.3 3.7 0.4
v -0.3 3.7 0.4
v -0.4 3.7 0.4
v 0.3 3.8 0.3
v 0.2 3.8 0.3
v -0.2 3.8 0.3
v -0.3 3.8 0.3
v 0.3 3.8 0.4
v 0.2 3.8 0.4
v -0.2 3.8 0.4
v -0.3 3.8 0.4
v 0.3 4 0.3
v 0.1 4 0.3
v -0.1 4 0.3
v -0.3 4 0.3
v 0.3 4 0.4
v 0.1 4 0.4
v -0.1 4 0.4
v -0.3 4 0.4
v 0.1 3.4 0.3
v -0.1 3.4 0.3
v 0.1 3.4 0.4
v -0.1 3.4 0.4
v 0.3 3.5 0.3
v 0.2 3.5 0.3
v -0.2 3.5 0.3
v -0.3 3.5 0.3
v 0.3 3.5 0.4
v 0.2 3.5 0.4
v -0.2 3.5 0.4
v -0.3 3.5 0.4
v 0.3 3.6 -0.4
v 0.1 3.6 -0.4
v -0.1 3.6 -0.4
v -0.3 3.6 -0.4
v 0.4 3.6 -0.3
v 0.3 3.6 -0.3
v 0.1 3.6 -0.3
v -0.1 3.6 -0.3
v -0.3 3.6 -0.3
v -0.4 3.6 -0.3
v 0.4 3.6 -0.1
v 0.3 3.6 -0.1
v -0.3 3.6 -0.1
v -0.4 3.6 -0.1
v 0.4 3.6 0.1
v 0.3 3.6 0.1
v -0.3 3.6 0.1
v -0.4 3.6 0.1
v 0.3 3.6 0.3
v -0.3 3.6 0.3
v 0.4 3.6 0.4
v 0.3 3.6 0.4
v -0.3 3.6 0.4
v -0.4 3.6 0.4
v 0.3 3.9 0.3
v 0.1 3.9 0.3
v -0.1 3.9 0.3
v -0.3 3.9 0.3
v 0.3 3.9 0.4
v 0.1 3.9 0.4
v -0.1 3.9 0.4
v -0.3 3.9 0.4
v 0.4 4 -0.3
v 0.3 4 -0.3
v 0.1 4 -0.3
v -0.1 4 -0.3
v -0.3 4 -0.3
v -0.4 4 -0.3
v 0.4 4 -0.1
v 0.3 4 -0.1
v 0.2 4 -0.1
v 0.1 4 -0.1
v -0.1 4 -0.1
v -0.2 4 -0.1
v -0.3 4 -0.1
v -0.4 4 -0.1
v 0.4 4 0.1
v 0.3 4 0.1
v 0.2 4 0.1
v 0.1 4 0.1
v -0.1 4 0.1
v -0.2 4 0.1
v -0.3 4 0.1
v -0.4 4 0.1
v 0.4 4 0.3
v 0.3 4 0.3
v 0.1 4 0.3
v -0.1 4 0.3
v -0.3 4 0.3
v -0.4 4 0.3
v 0.3 4.1 -0.4
v 0.1 4.1 -0.4
v -0.1 4.1 -0.4
v -0.3 4.1 -0.4
v 0.3 4.1 -0.1
v 0.2 4.1 -0.1
v 0.1 4.1 -0.1
v -0.1 4.1 -0.1
v -0.2 4.1 -0.1
v -0.3 4.1 -0.1
v 0.3 4.1 0.1
v 0.2 4.1 0.1
v 0.1 4.1 0.1
v -0.1 4.1 0.1
v -0.2 4.1 0.1
v -0.3 4.1 0.1
v 0.4 4.1 0.3
v 0.3 4.1 0.3
v -0.3 4.1 0.3
v -0.4 4.1 0.3
v 0.4 4.1 0.4
v 0.1 4.1 0.4
v -0.1 4.1 0.4
v -0.4 4.1 0.4

# faces
f 3/1/1 2/1/1 1/1/1
f 4/1/1 2/1/1 3/1/1
f 5/1/1 2/1/1 4/1/1
f 7/1/1 5/1/1 4/1/1
f 7/1/1 6/1/1 5/1/1
f 8/1/1 6/1/1 7/1/1
f 9/3/1 4/3/1 3/3/1
f 10/1/1 7/1/1 4/1/1
f 10/3/1 4/3/1 9/3/1
f 11/3/1 8/3/1 7/3/1
f 11/1/1 7/1/1 10/1/1
f 12/3/1 8/3/1 11/3/1
f 17/3/1 14/3/1 13/3/1
f 18/1/1 15/1/1 14/1/1
f 18/3/1 14/3/1 17/3/1
f 19/3/1 16/3/1 15/3/1
f 19/1/1 15/1/1 18/1/1
f 20/3/1 16/3/1 19/3/1
f 21/3/1 16/3/1 20/3/1
f 22/3/1 16/3/1 21/3/1
f 28/1/1 24/1/1 23/1/1
f 29/1/1 24/1/1 28/1/1
f 30/1/1 26/1/1 25/1/1
f 31/3/1 27/3/1 26/3/1
f 31/1/1 26/1/1 30/1/1
f 32/3/1 27/3/1 31/3/1
f 33/3/1 29/3/1 28/3/1
f 34/3/1 29/3/1 33/3/1
f 39/2/1 36/2/1 35/2/1
f 39/2/1 35/2/1 34/2/1
f 39/2/1 37/2/1 36/2/1
f 40/2/1 37/2/1 39/2/1
f 41/2/1 37/2/1 40/2/1
f 42/2/1 37/2/1 41/2/1
f 43/3/1 39/3/1 38/3/1
f 47/3/1 43/3/1 38/3/1
f 47/3/1 44/3/1 43/3/1
f 48/1/1 45/1/1 44/1/1
f 48/3/1 44/3/1 47/3/1
f 49/3/1 46/3/1 45/3/1
f 49/1/1 45/1/1 48/1/1
f 50/3/1 46/3/1 49/3/1
f 53/1/1 52/1/1 51/1/1
f 54/1/1 52/1/1 53/1/1
f 55/1/1 52/1/1 54/1/1
f 58/3/1 57/3/1 56/3/1
f 59/3/1 57/3/1 58/3/1
f 62/1/1 61/1/1 60/1/1
f 63/1/1 61/1/1 62/1/1
f 66/1/1 65/1/1 64/1/1
f 67/1/1 65/1/1 66/1/1
f 70/3/1 67/3/1 66/3/1
f 71/3/1 67/3/1 70/3/1
f 72/3/1 69/3/1 68/3/1
f 77/3/1 72/3/1 68/3/1
f 77/3/1 73/3/1 72/3/1
f 78/3/1 73/3/1 77/3/1
f 79/3/1 76/3/1 75/3/1
f 79/3/1 75/3/1 74/3/1
f 80/3/1 76/3/1 79/3/1
f 83/1/1 82/1/1 81/1/1
f 84/1/1 82/1/1 83/1/1
f 87/3/1 86/3/1 85/3/1
f 88/3/1 86/3/1 87/3/1
f 91/3/1 90/3/1 89/3/1
f 92/3/1 90/3/1 91/3/1
f 95/3/1 94/3/1 93/3/1
f 96/3/1 94/3/1 95/3/1
f 97/3/2 98/3/2 99/3/2
f 99/3/2 98/3/2 100/3/2
f 101/3/2 102/3/2 103/3/2
f 103/3/2 102/3/2 104/3/2
f 105/3/2 106/3/2 107/3/2
f 107/3/2 106/3/2 108/3/2
f 109/1/2 110/1/2 111/1/2
f 111/1/2 110/1/2 112/1/2
f 113/1/2 114/1/2 115/1/2
f 115/1/2 114/1/2 116/1/2
f 117/1/2 118/1/2 119/1/2
f 119/1/2 118/1/2 120/1/2
f 119/3/2 120/3/2 123/3/2
f 123/3/2 120/3/2 124/3/2
f 121/3/2 122/3/2 125/3/2
f 121/3/2 125/3/2 130/3/2
f 125/3/2 126/3/2 130/3/2
f 130/3/2 126/3/2 131/3/2
f 128/3/2 129/3/2 132/3/2
f 127/3/2 128/3/2 132/3/2
f 132/3/2 129/3/2 133/3/2
f 134/1/2 135/1/2 136/1/2
f 136/1/2 135/1/2 137/1/2
f 137/1/2 135/1/2 138/1/2
f 139/3/2 140/3/2 141/3/2
f 141/3/2 140/3/2 142/3/2
f 143/1/2 144/1/2 148/1/2
f 148/1/2 144/1/2 149/1/2
f 145/1/2 146/1/2 150/1/2
f 146/3/2 147/3/2 151/3/2
f 150/1/2 146/1/2 151/1/2
f 151/3/2 147/3/2 152/3/2
f 148/3/2 149/3/2 153/3/2
f 153/3/2 149/3/2 154/3/2
f 155/2/2 156/2/2 159/2/2
f 154/2/2 155/2/2 159/2/2
f 156/2/2 157/2/2 159/2/2
f 159/2/2 157/2/2 160/2/2
f 160/2/2 157/2/2 161/2/2
f 161/2/2 157/2/2 162/2/2
f 158/3/2 159/3/2 163/3/2
f 158/3/2 163/3/2 167/3/2
f 163/3/2 164/3/2 167/3/2
f 164/1/2 165/1/2 168/1/2
f 167/3/2 164/3/2 168/3/2
f 165/3/2 166/3/2 169/3/2
f 168/1/2 165/1/2 169/1/2
f 169/3/2 166/3/2 170/3/2
f 171/1/2 172/1/2 173/1/2
f 173/1/2 172/1/2 174/1/2
f 174/1/2 172/1/2 175/1/2
f 174/1/2 175/1/2 177/1/2
f 175/1/2 176/1/2 177/1/2
f 177/1/2 176/1/2 178/1/2
f 173/3/2 174/3/2 179/3/2
f 174/1/2 177/1/2 180/1/2
f 179/3/2 174/3/2 180/3/2
f 177/3/2 178/3/2 181/3/2
f 180/1/2 177/1/2 181/1/2
f 181/3/2 178/3/2 182/3/2
f 183/3/2 184/3/2 187/3/2
f 184/1/2 185/1/2 188/1/2
f 187/3/2 184/3/2 188/3/2
f 185/3/2 186/3/2 189/3/2
f 188/1/2 185/1/2 189/1/2
f 189/3/2 186/3/2 190/3/2
f 190/3/2 186/3/2 191/3/2
f 191/3/2 186/3/2 192/3/2
f 198/1/3 194/1/3 193/1/3
f 198/3/3 195/3/3 194/3/3
f 199/3/3 195/3/3 198/3/3
f 200/3/3 197/3/3 196/3/3
f 201/3/3 197/3/3 200/3/3
f 202/1/3 199/1/3 198/1/3
f 202/1/3 198/1/3 193/1/3
f 203/1/3 199/1/3 202/1/3
f 206/1/3 202/1/3 193/1/3
f 207/3/3 203/3/3 202/3/3
f 207/1/3 202/1/3 206/1/3
f 208/3/3 203/3/3 207/3/3
f 209/3/3 205/3/3 204/3/3
f 210/3/3 205/3/3 209/3/3
f 216/1/3 212/1/3 211/1/3
f 217/3/3 213/3/3 212/3/3
f 217/1/3 212/1/3 216/1/3
f 218/3/3 213/3/3 217/3/3
f 219/3/3 215/3/3 214/3/3
f 220/3/3 215/3/3 219/3/3
f 221/2/3 219/2/3 218/2/3
f 222/2/3 219/2/3 221/2/3
f 224/2/3 222/2/3 221/2/3
f 224/2/3 223/2/3 222/2/3
f 225/2/3 223/2/3 224/2/3
f 226/2/3 223/2/3 225/2/3
f 229/2/3 225/2/3 224/2/3
f 230/2/3 225/2/3 229/2/3
f 232/1/3 228/1/3 227/1/3
f 233/3/3 229/3/3 228/3/3
f 233/1/3 228/1/3 232/1/3
f 234/3/3 229/3/3 233/3/3
f 235/3/3 231/3/3 230/3/3
f 236/3/3 231/3/3 235/3/3
f 241/3/3 238/3/3 237/3/3
f 242/3/3 238/3/3 241/3/3
f 243/3/3 240/3/3 239/3/3
f 244/3/3 240/3/3 243/3/3
f 247/3/3 246/3/3 245/3/3
f 248/3/3 246/3/3 247/3/3
f 251/3/3 250/3/3 249/3/3
f 252/3/3 250/3/3 251/3/3
f 255/3/3 254/3/3 253/3/3
f 256/3/3 254/3/3 255/3/3
f 257/3/4 258/3/4 261/3/4
f 261/3/4 258/3/4 262/3/4
f 259/3/4 260/3/4 263/3/4
f 263/3/4 260/3/4 264/3/4
f 265/3/4 266/3/4 267/3/4
f 267/3/4 266/3/4 268/3/4
f 269/1/4 270/1/4 271/1/4
f 271/1/4 270/1/4 272/1/4
f 273/1/4 274/1/4 275/1/4
f 275/1/4 274/1/4 276/1/4
f 277/3/4 278/3/4 279/3/4
f 279/3/4 278/3/4 280/3/4
f 281/3/4 282/3/4 283/3/4
f 283/3/4 282/3/4 284/3/4
f 285/2/4 286/2/4 291/2/4
f 286/2/4 287/2/4 291/2/4
f 287/2/4 288/2/4 291/2/4
f 291/2/4 288/2/4 292/2/4
f 289/2/4 290/2/4 295/2/4
f 295/2/4 290/2/4 296/2/4
f 293/2/4 294/2/4 297/2/4
f 294/2/4 295/2/4 297/2/4
f 295/2/4 296/2/4 297/2/4
f 297/2/4 296/2/4 298/2/4
f 298/2/4 296/2/4 299/2/4
f 299/2/4 296/2/4 300/2/4
f 301/2/4 302/2/4 303/2/4
f 303/2/4 302/2/4 304/2/4
f 304/2/4 302/2/4 305/2/4
f 305/2/4 302/2/4 306/2/4
f 299/2/4 300/2/4 307/2/4
f 307/2/4 300/2/4 308/2/4
f 309/1/4 310/1/4 314/1/4
f 310/3/4 311/3/4 314/3/4
f 314/3/4 311/3/4 315/3/4
f 312/3/4 313/3/4 316/3/4
f 316/3/4 313/3/4 317/3/4
f 317/3/4 313/3/4 318/3/4
f 318/3/4 313/3/4 319/3/4
f 309/1/4 314/1/4 321/1/4
f 321/1/4 314/1/4 322/1/4
f 317/3/4 318/3/4 323/3/4
f 321/1/4 322/1/4 324/1/4
f 320/1/4 321/1/4 324/1/4
f 322/3/4 323/3/4 325/3/4
f 324/1/4 322/1/4 325/1/4
f 323/3/4 318/3/4 326/3/4
f 325/3/4 323/3/4 326/3/4
f 319/3/4 313/3/4 327/3/4
f 327/3/4 313/3/4 328/3/4
f 320/1/4 324/1/4 329/1/4
f 320/1/4 329/1/4 334/1/4
f 329/1/4 330/1/4 334/1/4
f 334/1/4 330/1/4 335/1/4
f 330/3/4 331/3/4 336/3/4
f 335/1/4 330/1/4 336/1/4
f 336/3/4 331/3/4 337/3/4
f 335/1/4 336/1/4 338/1/4
f 337/3/4 331/3/4 341/3/4
f 341/3/4 331/3/4 342/3/4
f 332/3/4 333/3/4 343/3/4
f 335/1/4 338/1/4 344/1/4
f 338/3/4 339/3/4 345/3/4
f 344/1/4 338/1/4 345/1/4
f 345/3/4 339/3/4 346/3/4
f 341/3/4 342/3/4 347/3/4
f 342/3/4 343/3/4 347/3/4
f 340/3/4 341/3/4 347/3/4
f 343/3/4 333/3/4 348/3/4
f 347/3/4 343/3/4 348/3/4
f 352/1/5 350/1/5 349/1/5
f 353/1/5 350/1/5 352/1/5
f 355/1/5 352/1/5 351/1/5
f 355/3/5 353/3/5 352/3/5
f 356/3/5 353/3/5 355/3/5
f 357/3/5 353/3/5 356/3/5
f 358/1/5 354/1/5 353/1/5
f 358/3/5 353/3/5 357/3/5
f 359/1/5 355/1/5 351/1/5
f 359/1/5 356/1/5 355/1/5
f 360/1/5 356/1/5 359/1/5
f 361/1/5 354/1/5 358/1/5
f 361/1/5 358/1/5 357/1/5
f 362/1/5 354/1/5 361/1/5
f 363/1/5 356/1/5 360/1/5
f 364/1/5 356/1/5 363/1/5
f 365/1/5 356/1/5 364/1/5
f 366/1/5 361/1/5 357/1/5
f 367/1/5 361/1/5 366/1/5
f 368/1/5 361/1/5 367/1/5
f 369/3/5 364/3/5 363/3/5
f 370/1/5 365/1/5 364/1/5
f 370/3/5 364/3/5 369/3/5
f 371/1/5 367/1/5 366/1/5
f 371/3/5 368/3/5 367/3/5
f 372/3/5 368/3/5 371/3/5
f 373/3/5 366/3/5 365/3/5
f 373/1/5 365/1/5 370/1/5
f 374/1/5 371/1/5 366/1/5
f 374/3/5 366/3/5 373/3/5
f 375/1/5 373/1/5 370/1/5
f 375/1/5 374/1/5 373/1/5
f 376/1/5 371/1/5 374/1/5
f 376/1/5 374/1/5 375/1/5
f 383/1/5 380/1/5 379/1/5
f 384/2/5 378/2/5 377/2/5
f 385/2/5 378/2/5 384/2/5
f 386/1/5 382/1/5 381/1/5
f 387/1/5 383/1/5 379/1/5
f 390/1/5 382/1/5 386/1/5
f 391/3/5 388/3/5 387/3/5
f 391/1/5 387/1/5 379/1/5
f 392/3/5 388/3/5 391/3/5
f 393/3/5 390/3/5 389/3/5
f 394/1/5 382/1/5 390/1/5
f 394/3/5 390/3/5 393/3/5
f 395/1/5 392/1/5 391/1/5
f 395/1/5 391/1/5 379/1/5
f 396/1/5 392/1/5 395/1/5
f 397/1/5 394/1/5 393/1/5
f 398/1/5 382/1/5 394/1/5
f 398/1/5 394/1/5 397/1/5
f 404/3/5 400/3/5 399/3/5
f 405/3/5 400/3/5 404/3/5
f 406/3/5 402/3/5 401/3/5
f 407/3/5 402/3/5 406/3/5
f 409/3/5 404/3/5 403/3/5
f 410/3/5 404/3/5 409/3/5
f 411/3/5 408/3/5 407/3/5
f 412/3/5 408/3/5 411/3/5
f 413/1/5 410/1/5 409/1/5
f 414/1/5 410/1/5 413/1/5
f 415/1/5 412/1/5 411/1/5
f 416/1/5 412/1/5 415/1/5
f 417/3/5 414/3/5 413/3/5
f 418/3/5 416/3/5 415/3/5
f 419/3/5 417/3/5 413/3/5
f 420/3/5 417/3/5 419/3/5
f 421/3/5 416/3/5 418/3/5
f 422/3/5 416/3/5 421/3/5
f 427/3/5 424/3/5 423/3/5
f 428/3/5 424/3/5 427/3/5
f 429/3/5 426/3/5 425/3/5
f 430/3/5 426/3/5 429/3/5
f 435/3/5 432/3/5 431/3/5
f 436/3/5 432/3/5 435/3/5
f 437/3/5 434/3/5 433/3/5
f 438/3/5 434/3/5 437/3/5
f 439/1/6 440/1/6 441/1/6
f 441/1/6 440/1/6 442/1/6
f 443/1/6 444/1/6 447/1/6
f 447/1/6 444/1/6 448/1/6
f 445/1/6 446/1/6 449/1/6
f 449/1/6 446/1/6 450/1/6
f 451/3/6 452/3/6 456/3/6
f 452/1/6 453/1/6 457/1/6
f 456/3/6 452/3/6 457/3/6
f 453/3/6 454/3/6 458/3/6
f 457/1/6 453/1/6 458/1/6
f 458/3/6 454/3/6 459/3/6
f 455/3/6 456/3/6 461/3/6
f 461/3/6 456/3/6 462/3/6
f 459/3/6 460/3/6 463/3/6
f 463/3/6 460/3/6 464/3/6
f 461/1/6 462/1/6 465/1/6
f 465/1/6 462/1/6 466/1/6
f 463/1/6 464/1/6 467/1/6
f 467/1/6 464/1/6 468/1/6
f 465/3/6 466/3/6 469/3/6
f 467/3/6 468/3/6 470/3/6
f 465/3/6 469/3/6 471/3/6
f 471/3/6 469/3/6 472/3/6
f 470/3/6 468/3/6 473/3/6
f 473/3/6 468/3/6 474/3/6
f 475/3/6 476/3/6 479/3/6
f 479/3/6 476/3/6 480/3/6
f 477/3/6 478/3/6 481/3/6
f 481/3/6 478/3/6 482/3/6
f 483/3/6 484/3/6 489/3/6
f 489/3/6 484/3/6 490/3/6
f 485/2/6 486/2/6 492/2/6
f 492/2/6 486/2/6 493/2/6
f 487/3/6 488/3/6 495/3/6
f 495/3/6 488/3/6 496/3/6
f 489/1/6 490/1/6 497/1/6
f 497/1/6 490/1/6 498/1/6
f 493/2/6 494/2/6 499/2/6
f 491/2/6 492/2/6 499/2/6
f 492/2/6 493/2/6 499/2/6
f 499/2/6 494/2/6 500/2/6
f 500/2/6 494/2/6 501/2/6
f 501/2/6 494/2/6 502/2/6
f 495/1/6 496/1/6 503/1/6
f 503/1/6 496/1/6 504/1/6
f 497/3/6 498/3/6 505/3/6
f 505/3/6 498/3/6 506/3/6
f 500/2/6 501/2/6 507/2/6
f 507/2/6 501/2/6 508/2/6
f 503/3/6 504/3/6 509/3/6
f 509/3/6 504/3/6 510/3/6
f 511/3/6 512/3/6 515/3/6
f 515/3/6 512/3/6 516/3/6
f 516/3/6 512/3/6 517/3/6
f 513/3/6 514/3/6 518/3/6
f 518/3/6 514/3/6 519/3/6
f 519/3/6 514/3/6 520/3/6
f 515/1/6 516/1/6 521/1/6
f 521/1/6 516/1/6 522/1/6
f 519/1/6 520/1/6 525/1/6
f 525/1/6 520/1/6 526/1/6
f 522/3/6 523/3/6 528/3/6
f 521/3/6 522/3/6 528/3/6
f 525/3/6 526/3/6 529/3/6
f 524/3/6 525/3/6 529/3/6
f 527/3/6 528/3/6 531/3/6
f 528/3/6 523/3/6 532/3/6
f 531/3/6 528/3/6 532/3/6
f 524/3/6 529/3/6 533/3/6
f 529/3/6 530/3/6 533/3/6
f 533/3/6 530/3/6 534/3/6
