# Blender v2.93.5 OBJ File: 'Collapser.blend'
# www.blender.org
mtllib CollapserAmmo_LOD0.mtl
o Cube_Cube.001
v -0.150132 0.107586 0.389450
v -0.157367 0.836682 0.416004
v -0.157367 0.124542 -0.392804
v -0.157367 0.887549 -0.406937
v 0.345698 0.294061 0.338302
v 0.388917 0.887549 0.406937
v 0.345698 0.294061 -0.338302
v 0.388917 0.887549 -0.406937
v -0.043211 0.106502 0.000000
v -0.242251 0.429745 0.440489
v -0.044385 0.947353 0.000000
v -0.242251 0.531479 -0.440489
v 0.000000 0.116052 -0.289198
v 0.000000 0.887549 -0.406937
v 0.322304 0.531479 -0.427824
v 0.484283 0.161712 0.000000
v 0.558953 0.966631 0.000000
v 0.322304 0.531479 0.427824
v 0.000000 0.124542 0.332063
v 0.000000 0.887549 0.406937
v 0.000000 0.531479 0.501950
v 0.475620 0.542098 0.000000
v 0.000000 0.531479 -0.501950
v -0.329492 0.531479 0.000000
v -0.201279 0.108982 0.203468
v -0.185662 0.633213 0.442299
v -0.175722 0.887549 -0.203468
v -0.185662 0.328010 -0.434054
v 0.202909 0.887549 -0.423953
v 0.441876 0.177852 -0.199456
v 0.508429 0.930197 0.203468
v 0.208312 0.152511 0.281260
v -0.201279 0.108982 -0.203468
v -0.164602 0.243232 0.418765
v -0.175722 0.887549 0.203468
v -0.157367 0.734947 -0.434137
v 0.208312 0.152511 -0.281260
v 0.339263 0.734947 -0.413022
v 0.441876 0.177852 0.199456
v 0.508429 0.930197 -0.203468
v 0.339263 0.734947 0.413022
v 0.202909 0.887549 0.423953
v 0.000000 0.930025 0.203468
v 0.000000 0.930025 -0.203468
v 0.269879 1.055004 0.000000
v 0.000000 0.099071 0.203468
v 0.247997 0.152667 0.000000
v 0.178284 0.531479 0.504621
v 0.000000 0.277143 0.393836
v 0.000000 0.734947 0.445775
v 0.406056 0.536587 0.203468
v 0.406056 0.536587 -0.203468
v 0.453512 0.347058 0.000000
v 0.588960 0.786575 0.000000
v 0.178284 0.531479 -0.504621
v 0.000000 0.277143 -0.393836
v 0.000000 0.734947 -0.445775
v -0.402713 0.531479 -0.203468
v -0.402713 0.531479 0.203468
v -0.313360 0.328010 0.000000
v -0.291625 0.684080 0.000000
v -0.274265 0.734947 0.203468
v -0.332647 0.328010 0.203468
v -0.332647 0.328010 -0.203468
v 0.178284 0.277143 -0.367773
v 0.486098 0.760933 -0.203468
v 0.406014 0.339968 -0.201430
v 0.406014 0.339968 0.201430
v 0.184440 0.734947 0.474069
v 0.178284 0.277143 0.367773
v 0.259621 0.966631 -0.203468
v 0.259621 0.966631 0.203468
v 0.486098 0.760933 0.203468
v 0.184440 0.734947 -0.474069
v -0.274265 0.734947 -0.203468
v -0.181173 0.809997 0.000000
v 0.000000 0.378878 0.483274
v 0.000000 0.378878 -0.483274
v 0.178284 0.378878 -0.463765
v 0.178284 0.378878 0.463765
v -0.181173 0.189370 0.000000
vt 0.974689 0.528604
vt 0.974689 0.528562
vt 0.974689 0.528556
vt 0.970840 0.522359
vt 0.970840 0.522397
vt 0.970840 0.522394
vt 0.970839 0.522398
vt 0.970839 0.522359
vt 0.970839 0.522357
vt 0.970839 0.522596
vt 0.970839 0.522544
vt 0.970839 0.522593
vt 0.845775 0.519909
vt 0.845775 0.519903
vt 0.845775 0.519903
vt 0.974690 0.528798
vt 0.974690 0.528768
vt 0.974690 0.528755
vt 0.974690 0.528911
vt 0.974690 0.528844
vt 0.974690 0.528891
vt 0.974689 0.528890
vt 0.974689 0.528844
vt 0.974689 0.528909
vt 0.974691 0.528829
vt 0.974691 0.528859
vt 0.974691 0.528864
vt 0.970839 0.522582
vt 0.970840 0.522544
vt 0.970840 0.522578
vt 0.974690 0.528598
vt 0.974690 0.528566
vt 0.974690 0.528595
vt 0.845775 0.519880
vt 0.845775 0.519874
vt 0.845775 0.519874
vt 0.970839 0.522491
vt 0.970839 0.522439
vt 0.970839 0.522488
vt 0.974691 0.528675
vt 0.974691 0.528643
vt 0.974691 0.528697
vt 0.974691 0.528678
vt 0.974691 0.528637
vt 0.974691 0.528671
vt 0.974691 0.528555
vt 0.974691 0.528590
vt 0.974690 0.528602
vt 0.974690 0.528551
vt 0.974690 0.528554
vt 0.974690 0.528694
vt 0.974689 0.528648
vt 0.974690 0.528648
vt 0.970838 0.522499
vt 0.970838 0.522453
vt 0.970838 0.522496
vt 0.845775 0.519882
vt 0.845775 0.519875
vt 0.845775 0.519881
vt 0.974689 0.528753
vt 0.974689 0.528697
vt 0.974689 0.528692
vt 0.845764 0.518998
vt 0.845764 0.518991
vt 0.845764 0.518992
vt 0.974690 0.528748
vt 0.974690 0.528697
vt 0.974690 0.528564
vt 0.974690 0.528605
vt 0.845764 0.518985
vt 0.845775 0.519866
vt 0.845775 0.519874
vt 0.845775 0.519873
vt 0.974691 0.528725
vt 0.974691 0.528693
vt 0.974691 0.528729
vt 0.974691 0.528697
vt 0.974691 0.528725
vt 0.974691 0.528641
vt 0.845775 0.519881
vt 0.845775 0.519881
vt 0.970839 0.522541
vt 0.970839 0.522488
vt 0.970839 0.522542
vt 0.970839 0.522541
vt 0.970839 0.522479
vt 0.970839 0.522437
vt 0.970839 0.522432
vt 0.974690 0.528685
vt 0.974690 0.528680
vt 0.974690 0.528689
vt 0.974690 0.528591
vt 0.970839 0.522390
vt 0.845775 0.519868
vt 0.970840 0.522624
vt 0.970839 0.522628
vt 0.970839 0.522632
vt 0.970839 0.522587
vt 0.974691 0.528888
vt 0.974691 0.528919
vt 0.974691 0.528918
vt 0.974691 0.528833
vt 0.974691 0.528889
vt 0.974691 0.528883
vt 0.974691 0.528918
vt 0.845775 0.519900
vt 0.845775 0.519903
vt 0.845775 0.519905
vt 0.974690 0.528934
vt 0.974690 0.528798
vt 0.974690 0.528938
vt 0.974690 0.528890
vt 0.974690 0.528937
vt 0.970839 0.522684
vt 0.970839 0.522640
vt 0.970839 0.522637
vt 0.970839 0.522732
vt 0.970839 0.522686
vt 0.970839 0.522738
vt 0.970839 0.522689
vt 0.970839 0.522546
vt 0.970839 0.522591
vt 0.845775 0.519896
vt 0.974690 0.528797
vt 0.974690 0.528751
vt 0.974690 0.528751
vt 0.974689 0.528780
vt 0.974689 0.528799
vt 0.974691 0.528745
vt 0.974691 0.528779
vt 0.970839 0.522397
vt 0.970839 0.522351
vt 0.845775 0.519868
vt 0.845775 0.519868
vt 0.970839 0.522400
vt 0.970840 0.522443
vt 0.970840 0.522440
vt 0.970839 0.522436
vt 0.970840 0.522354
vt 0.970839 0.522389
vt 0.974689 0.528600
vt 0.845775 0.519869
vt 0.845775 0.519868
vt 0.970838 0.522407
vt 0.970838 0.522404
vt 0.974691 0.528887
vt 0.974690 0.528751
vt 0.845775 0.519897
vt 0.845764 0.519019
vt 0.974690 0.528741
vt 0.974689 0.528608
vt 0.970840 0.522363
vt 0.974690 0.528919
vt 0.970839 0.522550
vt 0.845775 0.519910
vt 0.970838 0.522689
vt 0.970838 0.522644
vt 0.970838 0.522644
vt 0.970840 0.522659
vt 0.974690 0.528551
vt 0.970839 0.522444
vt 0.845775 0.519880
vt 0.845775 0.519897
vt 0.845775 0.519903
vt 0.845775 0.519875
vt 0.974689 0.528749
vt 0.974689 0.528700
vt 0.970839 0.522497
vt 0.970838 0.522493
vt 0.970838 0.522448
vt 0.970838 0.522401
vt 0.970839 0.522405
vt 0.845775 0.519867
vt 0.970839 0.522470
vt 0.970839 0.522440
vt 0.845775 0.519880
vt 0.974690 0.528743
vt 0.845775 0.519867
vt 0.970839 0.522553
vt 0.845775 0.519910
vt 0.974690 0.528892
vt 0.974690 0.528885
vt 0.974690 0.528887
vt 0.974690 0.528840
vt 0.974690 0.528938
vt 0.974690 0.528794
vt 0.974690 0.528792
vt 0.845775 0.519897
vt 0.974690 0.528799
vt 0.970838 0.522598
vt 0.845775 0.519894
vt 0.970839 0.522766
vt 0.970839 0.522769
vt 0.970839 0.522720
vt 0.970839 0.522813
vt 0.845775 0.519909
vn -0.8891 0.0803 -0.4506
vn 0.3549 0.2527 -0.9001
vn 0.8085 -0.2417 0.5366
vn -0.1330 0.9433 0.3041
vn -0.3014 0.8800 -0.3670
vn 0.0991 -0.9945 -0.0347
vn 0.0225 -0.9993 -0.0296
vn 0.1132 -0.9935 -0.0154
vn 0.1051 -0.2572 0.9606
vn -0.1470 0.2440 0.9586
vn 0.9156 -0.0044 0.4020
vn 0.9683 -0.1098 -0.2245
vn 0.8921 -0.1177 -0.4362
vn 0.4885 -0.2653 -0.8312
vn -0.2240 -0.1184 -0.9674
vn -0.0715 0.2460 -0.9666
vn -0.8178 -0.2439 -0.5213
vn -0.9925 -0.0787 -0.0941
vn -0.8262 0.5335 -0.1812
vn -0.8090 0.5107 -0.2911
vn -0.7437 0.4695 0.4759
vn -0.6844 -0.6525 -0.3254
vn -0.7771 -0.4661 0.4230
vn -0.8337 -0.5000 -0.2344
vn -0.6844 -0.6525 0.3254
vn -0.9925 -0.0787 0.0941
vn -0.2438 0.1317 -0.9608
vn 0.4633 -0.4827 -0.7432
vn 0.1269 -0.5448 -0.8289
vn 0.1051 -0.2572 -0.9606
vn 0.8989 -0.3207 -0.2986
vn 0.9359 -0.0527 -0.3482
vn 0.8085 -0.2417 -0.5366
vn 0.9680 0.1607 -0.1928
vn 0.8740 0.1879 -0.4482
vn 0.9156 -0.0044 -0.4020
vn 0.8740 0.1879 0.4482
vn 0.9680 0.1607 0.1928
vn 0.9683 -0.1098 0.2245
vn -0.0148 0.1489 0.9887
vn 0.4673 0.1174 0.8763
vn 0.3549 0.2527 0.9001
vn 0.2679 -0.5050 0.8205
vn 0.4885 -0.2653 0.8312
vn 0.3687 -0.3488 0.8616
vn -0.1969 -0.1191 0.9732
vn 0.1726 -0.9850 -0.0067
vn 0.0001 -0.9966 -0.0819
vn -0.0492 -0.9985 -0.0260
vn 0.0000 0.9789 -0.2044
vn 0.2840 0.9291 -0.2369
vn 0.1391 0.9497 -0.2807
vn -0.1330 0.9433 -0.3041
vn 0.1391 0.9497 0.2807
vn 0.2840 0.9291 0.2369
vn -0.3014 0.8800 0.3670
vn -0.2914 0.9364 0.1955
vn 0.1763 -0.9656 0.1913
vn 0.2803 -0.9553 -0.0944
vn 0.1132 -0.9935 0.0154
vn -0.0239 0.2466 0.9688
vn 0.9359 -0.0527 0.3482
vn 0.8989 -0.3207 0.2986
vn 0.8921 -0.1177 0.4362
vn 0.4673 0.1174 -0.8763
vn -0.0148 0.1489 -0.9887
vn -0.1470 0.2440 -0.9586
vn -0.7339 0.4633 -0.4968
vn -0.8090 0.5107 0.2911
vn -0.8262 0.5335 0.1812
vn 0.2423 -0.6406 0.7287
vn 0.1057 -0.6824 -0.7233
vn -0.7949 -0.3855 0.4686
vn -0.0182 -0.6602 -0.7509
vn 0.1057 -0.6824 0.7233
vn -0.2717 0.0670 0.9600
vn -0.4798 -0.7988 0.3630
vn -0.9524 -0.1579 0.2607
vn -0.4798 -0.7988 -0.3630
vn -0.8377 0.5409 -0.0756
vn 0.0911 0.0101 -0.9958
vn 0.8669 -0.1144 0.4852
vn 0.3209 -0.6051 0.7287
vn -0.0171 0.9788 0.2043
vn -0.1387 0.9837 -0.1140
vn -0.0482 -0.9798 0.1941
vn 0.0381 -0.9953 -0.0886
vn -0.0149 -0.1215 0.9925
vn -0.0792 0.3197 0.9442
vn 0.9364 -0.0392 0.3487
vn 0.9463 -0.0036 -0.3234
vn 0.9512 0.1585 -0.2646
vn 0.4579 -0.2299 -0.8588
vn -0.2447 -0.0986 -0.9646
vn 0.0000 0.1755 -0.9845
vn -0.7963 -0.2742 -0.5391
vn -0.8951 -0.3082 -0.3221
vn -0.6874 0.6846 -0.2425
vn -0.9703 0.2408 0.0226
vn -0.8234 0.5317 0.1984
vn -0.8548 -0.5127 -0.0810
vn -0.8456 -0.2912 0.4475
vn -0.8225 -0.2207 -0.5243
vn -0.8548 -0.5127 0.0810
vn -0.8951 -0.3082 0.3221
vn -0.0711 0.2655 -0.9615
vn 0.1626 -0.1743 -0.9712
vn 0.1987 -0.5261 -0.8269
vn 0.1217 -0.5407 -0.8324
vn -0.0149 -0.1215 -0.9925
vn 0.8407 -0.3898 -0.3759
vn 0.8011 -0.2858 -0.5259
vn 0.8669 -0.1144 -0.4852
vn 0.9505 0.2074 -0.2314
vn 0.9364 -0.0392 -0.3487
vn 0.9505 0.2074 0.2314
vn 0.9463 -0.0036 0.3234
vn -0.1463 0.2633 0.9536
vn 0.3666 0.0371 0.9297
vn 0.0911 0.0101 0.9958
vn 0.1343 -0.3718 0.9185
vn 0.1987 -0.5261 0.8269
vn 0.4579 -0.2299 0.8588
vn 0.1849 -0.1887 0.9645
vn 0.1565 -0.9874 -0.0215
vn 0.3209 -0.6051 -0.7287
vn -0.2329 0.9634 -0.1328
vn -0.2349 0.9718 -0.0212
vn 0.1328 0.9066 -0.4005
vn 0.0315 0.9382 -0.3446
vn -0.0171 0.9788 -0.2043
vn 0.0315 0.9382 0.3446
vn 0.1328 0.9066 0.4005
vn -0.1387 0.9837 0.1140
vn -0.2278 0.9423 0.2452
vn -0.2329 0.9634 0.1328
vn 0.1565 -0.9874 0.0215
vn 0.0381 -0.9953 0.0886
vn -0.1617 0.2626 0.9512
vn 0.8011 -0.2858 0.5259
vn 0.8407 -0.3898 0.3759
vn 0.9512 0.1585 0.2646
vn 0.3666 0.0371 -0.9297
vn -0.1463 0.2633 -0.9536
vn -0.0792 0.3197 -0.9442
vn -0.8321 0.3603 -0.4217
vn -0.9703 0.2408 -0.0226
vn -0.6874 0.6846 0.2425
vn -0.7480 0.6561 0.1002
vn -0.0955 0.1406 0.9854
vn -0.8957 0.1773 0.4078
vn -0.7480 0.6561 -0.1002
vn -0.2109 -0.1993 0.9570
vn 0.1937 -0.6733 0.7136
vn 0.0819 -0.6580 -0.7485
vn 0.1937 -0.6733 -0.7136
vn 0.0819 -0.6580 0.7485
vn -0.7663 0.2077 0.6080
usemtl None
s off
f 75/1/1 4/2/1 36/3/1
f 29/4/2 38/5/2 74/6/2
f 73/7/3 6/8/3 41/9/3
f 43/10/4 42/11/4 72/12/4
f 71/13/5 11/14/5 45/15/5
f 25/16/6 19/17/6 1/18/6
f 13/19/7 9/20/7 33/21/7
f 30/22/8 47/23/8 37/24/8
f 48/25/9 77/26/9 80/27/9
f 69/28/10 20/29/10 50/30/10
f 51/31/11 5/32/11 68/33/11
f 67/34/12 22/35/12 53/36/12
f 40/37/13 54/38/13 66/39/13
f 79/40/14 15/41/14 7/42/14
f 28/43/15 23/44/15 78/45/15
f 36/3/16 14/46/16 57/47/16
f 64/48/17 12/49/17 28/50/17
f 63/51/18 24/52/18 60/53/18
f 35/54/19 76/55/19 62/56/19
f 62/57/20 24/58/20 59/59/20
f 26/60/21 62/61/21 59/62/21
f 25/63/22 60/64/22 81/65/22
f 34/66/23 63/51/23 25/67/23
f 64/48/24 3/68/24 33/69/24
f 60/64/25 33/70/25 81/65/25
f 24/52/26 64/48/26 60/53/26
f 36/71/27 23/72/27 12/73/27
f 3/74/28 56/75/28 13/76/28
f 13/76/29 65/77/29 37/78/29
f 78/45/30 55/79/30 79/40/30
f 66/80/31 22/35/31 52/81/31
f 38/82/32 52/83/32 15/84/32
f 8/85/33 66/39/33 38/82/33
f 30/86/34 53/87/34 16/88/34
f 7/42/35 67/89/35 30/90/35
f 7/42/36 52/91/36 67/89/36
f 68/33/37 5/32/37 39/92/37
f 53/87/38 39/93/38 16/88/38
f 22/35/39 68/94/39 53/36/39
f 69/28/40 21/95/40 48/96/40
f 18/97/41 69/28/41 48/96/41
f 41/98/42 42/11/42 69/28/42
f 70/99/43 19/100/43 32/101/43
f 18/102/44 80/27/44 5/103/44
f 49/104/45 1/105/45 19/100/45
f 21/106/46 10/107/46 77/108/46
f 37/24/47 9/20/47 13/19/47
f 13/19/48 33/21/48 3/109/48
f 9/20/49 46/110/49 25/16/49
f 4/111/50 44/112/50 14/113/50
f 40/114/51 45/115/51 17/116/51
f 8/117/52 71/118/52 40/114/52
f 29/119/53 44/120/53 71/118/53
f 72/12/54 6/121/54 31/122/54
f 45/115/55 31/122/55 17/116/55
f 11/14/56 72/123/56 45/15/56
f 43/124/57 2/125/57 20/126/57
f 46/110/58 32/127/58 19/17/58
f 9/20/59 32/127/59 46/110/59
f 47/23/60 39/128/60 32/127/60
f 20/129/61 2/125/61 50/130/61
f 51/131/62 41/9/62 18/132/62
f 22/35/63 73/133/63 51/134/63
f 54/38/64 31/135/64 73/7/64
f 74/6/65 15/136/65 55/137/65
f 23/138/66 74/6/66 55/137/66
f 14/139/67 74/6/67 57/140/67
f 75/1/68 12/49/68 58/141/68
f 24/58/69 75/142/69 58/143/69
f 76/55/70 27/144/70 75/145/70
f 77/26/71 34/146/71 49/104/71
f 56/75/72 79/40/72 65/77/72
f 10/147/73 63/51/73 34/66/73
f 28/43/74 78/45/74 56/75/74
f 80/27/75 49/104/75 70/99/75
f 21/106/76 26/148/76 10/107/76
f 81/65/77 33/70/77 9/149/77
f 34/66/78 25/67/78 1/150/78
f 25/63/79 81/65/79 9/149/79
f 75/1/80 27/151/80 4/2/80
f 29/4/81 8/152/81 38/5/81
f 73/7/82 31/135/82 6/8/82
f 32/101/83 39/153/83 5/103/83
f 43/10/84 20/154/84 42/11/84
f 71/13/85 44/155/85 11/14/85
f 25/16/86 46/110/86 19/17/86
f 30/156/87 16/157/87 47/158/87
f 48/96/88 21/95/88 77/159/88
f 69/28/89 42/11/89 20/29/89
f 51/31/90 18/160/90 5/32/90
f 67/34/91 52/81/91 22/35/91
f 40/37/92 17/161/92 54/38/92
f 79/40/93 55/79/93 15/41/93
f 28/162/94 12/73/94 23/72/94
f 36/3/95 4/2/95 14/46/95
f 64/48/96 58/141/96 12/49/96
f 63/51/97 59/62/97 24/52/97
f 35/163/98 11/14/98 76/164/98
f 62/57/99 61/165/99 24/58/99
f 2/166/100 35/167/100 62/61/100
f 25/168/101 63/169/101 60/170/101
f 10/147/102 59/62/102 63/51/102
f 64/48/103 28/50/103 3/68/103
f 60/170/104 64/171/104 33/172/104
f 24/52/105 58/141/105 64/48/105
f 36/71/106 57/173/106 23/72/106
f 3/74/107 28/43/107 56/75/107
f 37/78/108 65/77/108 7/42/108
f 13/76/109 56/75/109 65/77/109
f 78/174/110 23/138/110 55/137/110
f 66/39/111 54/38/111 22/175/111
f 38/82/112 66/39/112 52/83/112
f 8/85/113 40/37/113 66/39/113
f 30/176/114 67/34/114 53/36/114
f 7/42/115 15/177/115 52/91/115
f 53/36/116 68/94/116 39/178/116
f 22/35/117 51/134/117 68/94/117
f 69/28/118 50/30/118 21/95/118
f 18/97/119 41/98/119 69/28/119
f 41/98/120 6/179/120 42/11/120
f 70/99/121 49/104/121 19/100/121
f 5/103/122 70/99/122 32/101/122
f 18/102/123 48/25/123 80/27/123
f 49/104/124 34/146/124 1/105/124
f 37/24/125 47/23/125 9/20/125
f 7/42/126 30/90/126 37/78/126
f 44/155/127 27/180/127 11/14/127
f 4/111/128 27/181/128 44/112/128
f 40/182/129 71/183/129 45/184/129
f 8/117/130 29/119/130 71/118/130
f 29/185/131 14/113/131 44/112/131
f 72/12/132 42/11/132 6/121/132
f 45/184/133 72/186/133 31/187/133
f 11/14/134 43/188/134 72/123/134
f 43/124/135 35/189/135 2/125/135
f 11/14/136 35/163/136 43/188/136
f 9/20/137 47/23/137 32/127/137
f 47/158/138 16/157/138 39/190/138
f 21/106/139 50/191/139 26/148/139
f 51/131/140 73/7/140 41/9/140
f 22/175/141 54/38/141 73/7/141
f 54/38/142 17/161/142 31/135/142
f 74/6/143 38/5/143 15/136/143
f 23/138/144 57/140/144 74/6/144
f 14/139/145 29/4/145 74/6/145
f 75/1/146 36/3/146 12/49/146
f 24/58/147 61/165/147 75/142/147
f 76/164/148 11/14/148 27/180/148
f 61/192/149 76/193/149 75/194/149
f 50/130/150 2/125/150 26/60/150
f 26/60/151 2/166/151 62/61/151
f 62/195/152 76/193/152 61/192/152
f 77/108/153 10/107/153 34/196/153
f 5/103/154 80/27/154 70/99/154
f 56/75/155 78/45/155 79/40/155
f 65/77/156 79/40/156 7/42/156
f 80/27/157 77/26/157 49/104/157
f 10/147/158 26/60/158 59/62/158
