# MagicaVoxel @ Ephtracy

# group
o 

# material
mtllib Bot_Runner_LOD1-0.mtl
usemtl palette

# normals
vn -1 0 0
vn 1 0 0
vn 0 0 1
vn 0 0 -1
vn 0 -1 0
vn 0 1 0

# texcoords
vt 0.970703 0.5
vt 0.974609 0.5
vt 0.978516 0.5

# verts
v 0 1.7 -0.8
v 0 1.7 -1.1
v 0 1.8 -0.6
v 0 1.8 -0.8
v 0 2.1 -1.1
v 0 2.1 -1.2
v 0 2.4 -0.6
v 0 2.4 -1.2
v 0.1 1.4 -0.7
v 0.1 1.4 -0.8
v 0.1 1.5 -0.6
v 0.1 1.5 -0.7
v 0.1 1.6 -0.8
v 0.1 1.6 -1
v 0.1 1.7 -0.8
v 0.1 1.7 -1
v 0.1 1.8 -0.6
v 0.1 1.8 -0.7
v 0.1 1.8 -0.8
v 0.1 2.4 -0.6
v 0.1 2.4 -1.2
v 0.1 2.6 -0.6
v 0.1 2.6 -1.2
v 0.4 1.5 -0.8
v 0.4 1.5 -1
v 0.4 1.6 -0.8
v 0.4 1.6 -1
v 0.1 1.7 -1
v 0.1 1.7 -1.1
v 0.1 2.1 -1.1
v 0.1 2.1 -1.2
v 0.1 2.3 -1
v 0.1 2.3 -1.2
v 0.4 1.4 -0.7
v 0.4 1.4 -0.8
v 0.4 1.5 -0.7
v 0.4 1.5 -0.8
v 0.4 2.3 -1
v 0.4 2.3 -1.2
v 0.4 2.6 -1
v 0.4 2.6 -1.2
v 0.5 1.5 -0.6
v 0.5 1.5 -1
v 0.5 2.1 -0.6
v 0.5 2.1 -1
v 0.6 2.1 -0.6
v 0.6 2.1 -1
v 0.6 2.6 -0.6
v 0.6 2.6 -1
v 0 1.8 -0.6
v 0 2.4 -0.6
v 0.1 1.5 -0.6
v 0.1 1.8 -0.6
v 0.1 2.4 -0.6
v 0.1 2.6 -0.6
v 0.2 1.8 -0.6
v 0.2 2.4 -0.6
v 0.4 1.8 -0.6
v 0.4 2.4 -0.6
v 0.5 1.5 -0.6
v 0.5 2.1 -0.6
v 0.6 2.1 -0.6
v 0.6 2.6 -0.6
v 0.1 1.4 -0.7
v 0.1 1.5 -0.7
v 0.4 1.4 -0.7
v 0.4 1.5 -0.7
v 0 1.7 -0.8
v 0 1.8 -0.8
v 0.1 1.7 -0.8
v 0.1 1.8 -0.8
v 0.1 1.4 -0.8
v 0.1 1.6 -0.8
v 0.4 1.4 -0.8
v 0.4 1.5 -0.8
v 0.4 1.6 -0.8
v 0.1 1.6 -1
v 0.1 1.7 -1
v 0.1 2.3 -1
v 0.2 2.3 -1
v 0.3 2.3 -1
v 0.4 1.5 -1
v 0.4 1.6 -1
v 0.4 2.3 -1
v 0.4 2.6 -1
v 0.5 1.5 -1
v 0.5 2.1 -1
v 0.6 2.1 -1
v 0.6 2.6 -1
v 0 1.7 -1.1
v 0 2.1 -1.1
v 0.1 1.7 -1.1
v 0.1 2.1 -1.1
v 0 2.1 -1.2
v 0 2.4 -1.2
v 0.1 2.1 -1.2
v 0.1 2.3 -1.2
v 0.1 2.4 -1.2
v 0.1 2.6 -1.2
v 0.2 2.3 -1.2
v 0.2 2.6 -1.2
v 0.3 2.3 -1.2
v 0.3 2.6 -1.2
v 0.4 2.3 -1.2
v 0.4 2.6 -1.2
v 0.1 1.4 -0.7
v 0.4 1.4 -0.7
v 0.1 1.4 -0.8
v 0.4 1.4 -0.8
v 0.1 1.5 -0.6
v 0.5 1.5 -0.6
v 0.1 1.5 -0.7
v 0.4 1.5 -0.7
v 0.4 1.5 -0.8
v 0.4 1.5 -1
v 0.5 1.5 -1
v 0.1 1.6 -0.8
v 0.4 1.6 -0.8
v 0.1 1.6 -1
v 0.4 1.6 -1
v 0 1.7 -0.8
v 0.1 1.7 -0.8
v 0.1 1.7 -1
v 0 1.7 -1.1
v 0.1 1.7 -1.1
v 0 1.8 -0.6
v 0.1 1.8 -0.6
v 0.1 1.8 -0.7
v 0 1.8 -0.8
v 0.1 1.8 -0.8
v 0.5 2.1 -0.6
v 0.6 2.1 -0.6
v 0.5 2.1 -1
v 0.6 2.1 -1
v 0 2.1 -1.1
v 0.1 2.1 -1.1
v 0 2.1 -1.2
v 0.1 2.1 -1.2
v 0.1 2.3 -1
v 0.2 2.3 -1
v 0.3 2.3 -1
v 0.4 2.3 -1
v 0.1 2.3 -1.2
v 0.2 2.3 -1.2
v 0.3 2.3 -1.2
v 0.4 2.3 -1.2
v 0 2.4 -0.6
v 0.1 2.4 -0.6
v 0 2.4 -1.2
v 0.1 2.4 -1.2
v 0.1 2.6 -0.6
v 0.6 2.6 -0.6
v 0.2 2.6 -0.7
v 0.3 2.6 -0.7
v 0.4 2.6 -1
v 0.6 2.6 -1
v 0.1 2.6 -1.2
v 0.2 2.6 -1.2
v 0.3 2.6 -1.2
v 0.4 2.6 -1.2

# faces
f 4/3/1 2/3/1 1/3/1
f 5/3/1 2/3/1 4/3/1
f 5/3/1 4/3/1 3/3/1
f 7/3/1 5/3/1 3/3/1
f 7/3/1 6/3/1 5/3/1
f 8/3/1 6/3/1 7/3/1
f 12/2/1 10/2/1 9/2/1
f 13/2/1 10/2/1 12/2/1
f 15/2/1 13/2/1 12/2/1
f 15/2/1 14/2/1 13/2/1
f 16/2/1 14/2/1 15/2/1
f 17/3/1 12/3/1 11/3/1
f 18/2/1 15/2/1 12/2/1
f 18/3/1 12/3/1 17/3/1
f 19/2/1 15/2/1 18/2/1
f 22/3/1 21/3/1 20/3/1
f 23/3/1 21/3/1 22/3/1
f 26/3/1 25/3/1 24/3/1
f 27/3/1 25/3/1 26/3/1
f 28/3/2 29/3/2 30/3/2
f 28/3/2 30/3/2 32/3/2
f 30/3/2 31/3/2 32/3/2
f 32/3/2 31/3/2 33/3/2
f 34/2/2 35/2/2 36/2/2
f 36/2/2 35/2/2 37/2/2
f 38/3/2 39/3/2 40/3/2
f 40/3/2 39/3/2 41/3/2
f 42/3/2 43/3/2 44/3/2
f 44/3/2 43/3/2 45/3/2
f 46/3/2 47/3/2 48/3/2
f 48/3/2 47/3/2 49/3/2
f 53/3/3 51/3/3 50/3/3
f 54/3/3 51/3/3 53/3/3
f 56/3/3 53/3/3 52/3/3
f 56/3/3 55/3/3 54/3/3
f 56/3/3 54/3/3 53/3/3
f 57/3/3 55/3/3 56/3/3
f 58/3/3 56/3/3 52/3/3
f 58/2/3 57/2/3 56/2/3
f 59/3/3 55/3/3 57/3/3
f 59/2/3 57/2/3 58/2/3
f 60/3/3 58/3/3 52/3/3
f 60/3/3 59/3/3 58/3/3
f 61/3/3 59/3/3 60/3/3
f 62/3/3 59/3/3 61/3/3
f 63/3/3 55/3/3 59/3/3
f 63/3/3 59/3/3 62/3/3
f 66/2/3 65/2/3 64/2/3
f 67/2/3 65/2/3 66/2/3
f 70/3/3 69/3/3 68/3/3
f 71/3/3 69/3/3 70/3/3
f 72/2/4 73/2/4 74/2/4
f 74/2/4 73/2/4 75/2/4
f 75/2/4 73/2/4 76/2/4
f 77/2/4 78/2/4 80/2/4
f 78/2/4 79/2/4 80/2/4
f 77/2/4 80/2/4 81/2/4
f 77/2/4 81/2/4 83/2/4
f 83/2/4 81/2/4 84/2/4
f 83/3/4 84/3/4 86/3/4
f 84/3/4 85/3/4 86/3/4
f 82/3/4 83/3/4 86/3/4
f 86/3/4 85/3/4 87/3/4
f 87/3/4 85/3/4 88/3/4
f 88/3/4 85/3/4 89/3/4
f 90/3/4 91/3/4 92/3/4
f 92/3/4 91/3/4 93/3/4
f 94/3/4 95/3/4 96/3/4
f 96/3/4 95/3/4 97/3/4
f 97/3/4 95/3/4 98/3/4
f 98/3/4 99/3/4 100/3/4
f 97/3/4 98/3/4 100/3/4
f 100/3/4 99/3/4 101/3/4
f 100/2/4 101/2/4 102/2/4
f 102/2/4 101/2/4 103/2/4
f 102/3/4 103/3/4 104/3/4
f 104/3/4 103/3/4 105/3/4
f 108/2/5 107/2/5 106/2/5
f 109/2/5 107/2/5 108/2/5
f 112/3/5 111/3/5 110/3/5
f 113/3/5 111/3/5 112/3/5
f 114/3/5 111/3/5 113/3/5
f 115/3/5 111/3/5 114/3/5
f 116/3/5 111/3/5 115/3/5
f 119/2/5 118/2/5 117/2/5
f 120/2/5 118/2/5 119/2/5
f 123/3/5 122/3/5 121/3/5
f 124/3/5 123/3/5 121/3/5
f 125/3/5 123/3/5 124/3/5
f 128/3/5 127/3/5 126/3/5
f 129/3/5 128/3/5 126/3/5
f 130/3/5 128/3/5 129/3/5
f 133/3/5 132/3/5 131/3/5
f 134/3/5 132/3/5 133/3/5
f 137/3/5 136/3/5 135/3/5
f 138/3/5 136/3/5 137/3/5
f 143/3/5 140/3/5 139/3/5
f 144/2/5 141/2/5 140/2/5
f 144/3/5 140/3/5 143/3/5
f 145/3/5 142/3/5 141/3/5
f 145/2/5 141/2/5 144/2/5
f 146/3/5 142/3/5 145/3/5
f 147/3/6 148/3/6 149/3/6
f 149/3/6 148/3/6 150/3/6
f 151/3/6 152/3/6 153/3/6
f 153/3/6 152/3/6 154/3/6
f 154/3/6 152/3/6 155/3/6
f 155/3/6 152/3/6 156/3/6
f 151/3/6 153/3/6 157/3/6
f 153/2/6 154/2/6 158/2/6
f 157/3/6 153/3/6 158/3/6
f 154/3/6 155/3/6 159/3/6
f 158/2/6 154/2/6 159/2/6
f 159/3/6 155/3/6 160/3/6
