# Blender v2.93.5 OBJ File: 'SmallTree2.blend'
# www.blender.org
mtllib SmallTree2.mtl
o Cube_Cube.001
v 0.348928 0.540746 -0.223059
v 0.483377 0.529049 -0.073187
v 0.279256 -0.593028 -0.276925
v 0.450343 -0.564362 -0.074571
v 0.479395 0.512962 0.401938
v 0.341827 0.516511 0.532188
v 0.406831 -0.405791 0.385059
v 0.319691 -0.410325 0.548119
v -0.246211 0.562887 -0.115979
v -0.110142 0.561409 -0.250838
v -0.321520 -0.329365 -0.238160
v -0.204555 -0.388380 -0.389671
v -0.118931 0.541270 0.504048
v -0.251947 0.550898 0.358675
v -0.176380 -0.331686 0.530276
v -0.377933 -0.285208 0.348647
v 0.388675 1.780303 0.218671
v 0.092990 1.794765 0.369071
v -0.332140 1.775010 0.370363
v -0.393132 2.405615 0.000028
v 0.170169 1.755755 -0.391055
v 0.424286 1.763656 -0.256711
v -0.331667 2.355474 -0.151490
v -0.110016 1.730185 -0.276824
v 0.468970 3.917638 0.018888
v 0.290386 5.377007 0.129895
v 0.080673 5.389067 0.152365
v -0.004385 5.336684 0.088762
v 0.240542 5.393602 -0.206378
v 0.458201 3.861565 -0.084745
v -0.028257 5.357174 -0.116539
v 0.029392 5.408721 -0.197426
v 0.541767 3.456352 0.042534
v 0.321443 3.207482 0.100183
v -0.074658 3.231967 0.104681
v -0.328285 2.545515 -0.029639
v 0.290042 3.168137 -0.313154
v 0.529351 3.408706 -0.127644
v -0.313172 2.517909 -0.196672
v -0.074307 3.185066 -0.379909
v 0.236281 6.306130 0.139927
v 0.318356 6.270588 0.081736
v 0.126650 6.321721 0.059691
v 0.184414 6.317330 0.133651
v 0.303302 6.317714 0.028433
v 0.238775 6.458516 -0.051243
v 0.184434 6.464823 -0.055310
v 0.126147 6.360171 0.013388
v -0.181851 3.212888 0.014330
v -0.423077 1.770684 0.243634
v -0.247550 1.729335 -0.131632
v -0.172726 3.184469 -0.304253
v -0.809765 2.794834 -0.098103
v -0.895645 2.672431 -0.084618
v -0.893705 2.617519 -0.170551
v -0.805914 2.787244 -0.182120
v -0.902418 3.219201 -0.065780
v -1.036106 3.102113 -0.074605
v -1.025272 3.074942 -0.130038
v -0.888969 3.221542 -0.120591
v -1.064419 3.577720 -0.003765
v -1.106157 3.555292 -0.013841
v -1.066571 3.541703 -0.101275
v -1.045144 3.562056 -0.067043
v 0.527526 3.281850 0.060044
v 0.386696 5.018759 0.058547
v 0.365567 4.893499 -0.115608
v 0.463327 3.151174 -0.202734
v 0.826133 3.843796 0.041608
v 0.740761 4.064572 0.035552
v 0.734752 4.010102 -0.057703
v 0.838421 3.719793 -0.113543
v 1.123541 4.241283 0.048438
v 1.042590 4.369365 0.004212
v 1.028894 4.394954 -0.055531
v 1.099215 4.254650 -0.044858
v 1.328380 4.829921 0.117257
v 1.223817 4.810586 0.062517
v 1.216361 4.748119 -0.005354
v 1.289536 4.745464 -0.016916
vt 0.468502 0.309533
vt 0.528352 0.313564
vt 0.557767 0.515481
vt 0.501837 0.517739
vt 0.501703 0.135249
vt 0.566508 0.132865
vt 0.304707 0.837348
vt 0.237893 0.838690
vt 0.251933 0.668939
vt 0.306826 0.673216
vt 0.566372 0.002116
vt 0.496336 0.011900
vt 0.177680 0.838500
vt 0.113285 0.832093
vt 0.122847 0.667657
vt 0.162936 0.666897
vt 0.434798 0.006816
vt 0.436122 0.161182
vt 0.369121 0.159607
vt 0.370482 0.029782
vt 0.140016 0.463633
vt 0.190957 0.468552
vt 0.707217 0.103765
vt 0.693447 0.128327
vt 0.617819 0.128327
vt 0.591080 0.102670
vt 0.591139 0.033974
vt 0.597855 0.010626
vt 0.666865 0.002116
vt 0.700366 0.021757
vt 0.464270 0.335009
vt 0.397466 0.337987
vt 0.237828 0.957705
vt 0.321028 0.963823
vt 0.201590 0.154214
vt 0.171937 0.150359
vt 0.201798 0.002116
vt 0.209387 0.003414
vt 0.458603 0.530968
vt 0.421384 0.549930
vt 0.516168 0.821631
vt 0.545922 0.820732
vt 0.535119 0.951363
vt 0.527818 0.952842
vt 0.664126 0.649171
vt 0.642305 0.638888
vt 0.650763 0.559016
vt 0.664126 0.561840
vt 0.425118 0.794739
vt 0.449602 0.776761
vt 0.431874 0.977822
vt 0.424198 0.971282
vt 0.278570 0.162766
vt 0.307150 0.160312
vt 0.331922 0.467781
vt 0.287012 0.463606
vt 0.284186 0.022771
vt 0.290689 0.017405
vt 0.545331 0.954127
vt 0.536345 0.974443
vt 0.528696 0.975207
vt 0.520335 0.959719
vt 0.520199 0.953915
vt 0.547224 0.947085
vt 0.591080 0.410609
vt 0.638073 0.364274
vt 0.637760 0.431906
vt 0.609533 0.449794
vt 0.464270 0.002116
vt 0.458046 0.162332
vt 0.483980 0.137441
vt 0.469095 0.019388
vt 0.351550 0.160015
vt 0.347982 0.029203
vt 0.325315 0.836227
vt 0.343750 0.971017
vt 0.219059 0.838509
vt 0.235211 0.667256
vt 0.328905 0.671761
vt 0.198305 0.667081
vt 0.195979 0.840409
vt 0.586848 0.133861
vt 0.571154 0.313652
vt 0.275601 0.459705
vt 0.102939 0.665903
vt 0.125872 0.462527
vt 0.586848 0.526893
vt 0.214827 0.471723
vt 0.561207 0.771151
vt 0.504818 0.814540
vt 0.487450 0.515500
vt 0.214827 0.225139
vt 0.319218 0.152514
vt 0.343750 0.466717
vt 0.301048 0.002116
vt 0.463901 0.846939
vt 0.443700 0.997440
vt 0.092812 0.965830
vt 0.158895 0.997884
vt 0.291462 0.559120
vt 0.286515 0.579473
vt 0.096225 0.577175
vt 0.100308 0.554692
vt 0.308567 0.586006
vt 0.315134 0.562988
vt 0.661697 0.242473
vt 0.649867 0.243481
vt 0.658317 0.182398
vt 0.665967 0.182791
vt 0.677047 0.364274
vt 0.696246 0.375050
vt 0.662303 0.443409
vt 0.642305 0.436408
vt 0.673986 0.276747
vt 0.650503 0.280501
vt 0.019245 0.535914
vt 0.033026 0.512774
vt 0.024614 0.450630
vt 0.004264 0.470241
vt 0.002116 0.404033
vt 0.005174 0.401154
vt 0.670204 0.559016
vt 0.681417 0.568042
vt 0.678247 0.627029
vt 0.670765 0.622450
vt 0.686100 0.499611
vt 0.661308 0.497205
vt 0.668358 0.687841
vt 0.680893 0.690759
vt 0.681417 0.694444
vt 0.672556 0.691429
vt 0.696246 0.553897
vt 0.689742 0.554784
vt 0.665165 0.134690
vt 0.673986 0.132560
vt 0.424044 0.574559
vt 0.428517 0.639467
vt 0.443105 0.631378
vt 0.448038 0.567558
vt 0.680187 0.156407
vt 0.693400 0.163928
vt 0.686376 0.210165
vt 0.678219 0.213750
vt 0.679195 0.132560
vt 0.693815 0.140335
vt 0.597699 0.132560
vt 0.645634 0.176299
vt 0.628387 0.217078
vt 0.591080 0.194108
vt 0.444760 0.612118
vt 0.423146 0.629821
vt 0.421096 0.686539
vt 0.434413 0.688237
vt 0.430146 0.757934
vt 0.411135 0.770131
vt 0.629825 0.285427
vt 0.609803 0.276165
vt 0.638073 0.501679
vt 0.618178 0.509877
vt 0.640535 0.340962
vt 0.645634 0.348614
vt 0.636155 0.360042
vt 0.632164 0.347095
vt 0.611762 0.584638
vt 0.601588 0.574303
vt 0.693815 0.274086
vt 0.684164 0.265368
vn 0.0080 0.1818 0.9833
vn -0.0295 0.1119 0.9933
vn -0.9753 -0.0817 -0.2052
vn -0.0452 0.0254 0.9987
vn -0.1151 -0.0891 -0.9893
vn 0.9969 -0.0528 0.0587
vn -0.0734 -0.0048 -0.9973
vn -0.2508 -0.9576 0.1415
vn 0.9970 0.0658 0.0415
vn -0.9908 0.1201 -0.0617
vn -0.0070 0.1393 -0.9902
vn 0.9977 -0.0624 -0.0262
vn 0.0621 0.0030 0.9981
vn -0.4499 -0.8550 0.2581
vn 0.9825 0.0590 -0.1766
vn -0.9970 0.0731 0.0270
vn -0.9827 0.1347 0.1268
vn 0.1348 0.7813 0.6094
vn 0.0433 -0.0191 0.9989
vn 0.1032 0.0633 -0.9926
vn -0.0572 0.0302 0.9979
vn 0.7557 -0.0186 -0.6546
vn -0.6897 0.0808 0.7196
vn 0.7932 -0.0410 0.6076
vn -0.7223 0.1618 -0.6724
vn -0.7714 -0.0566 0.6338
vn -0.7153 -0.0128 -0.6988
vn 0.5890 -0.0585 -0.8060
vn 0.5398 0.1838 0.8215
vn -0.7304 0.2351 0.6413
vn -0.6826 -0.0432 -0.7295
vn 0.3436 0.0938 0.9344
vn 0.4971 0.0126 -0.8676
vn 0.3532 0.0088 0.9355
vn -0.6309 0.0269 0.7754
vn 0.6289 0.0612 -0.7751
vn -0.7209 0.0985 -0.6860
vn -0.7079 0.1043 0.6986
vn -0.8625 0.1915 -0.4685
vn 0.6200 0.0229 0.7843
vn 0.8162 0.0896 -0.5708
vn 0.1652 0.0779 -0.9832
vn -0.9104 0.2322 0.3426
vn -0.3453 -0.1056 -0.9325
vn -0.9130 -0.1207 -0.3898
vn -0.9758 0.2064 -0.0725
vn 0.9756 0.1871 0.1145
vn -0.0522 0.1912 0.9802
vn 0.4719 0.8773 -0.0874
vn -0.0695 -0.1464 -0.9868
vn 0.1319 0.1324 -0.9824
vn -0.1262 0.0828 -0.9886
vn -0.9511 -0.2966 0.0863
vn 0.0579 -0.0337 0.9978
vn -0.3711 0.8737 -0.3145
vn -0.9469 -0.0844 -0.3101
vn 0.0101 -0.1467 0.9891
vn 0.9028 0.3766 0.2077
vn 0.9908 0.0974 0.0945
vn 0.8336 0.0964 -0.5439
vn 0.9802 -0.1682 -0.1042
vn 0.9828 0.0813 -0.1659
vn -0.7569 0.6530 -0.0258
vn -0.4039 0.8119 -0.4214
vn -0.0285 0.1251 -0.9917
vn 0.7178 -0.6159 0.3247
vn 0.9319 -0.3271 -0.1566
vn -0.0275 0.0933 -0.9953
vn 0.8357 -0.5156 0.1891
vn -0.0814 0.1041 0.9912
vn 0.0701 0.7991 -0.5971
vn -0.4441 0.0561 0.8942
vn -0.9082 0.4174 0.0299
vn 0.0593 0.0657 -0.9961
usemtl Material.001
s off
f 19/1/1 18/2/1 34/3/1 35/4/1
f 13/5/2 6/6/2 18/2/2 19/1/2
f 9/7/3 14/8/3 50/9/3 51/10/3
f 8/11/4 6/6/4 13/5/4 15/12/4
f 1/13/5 10/14/5 24/15/5 21/16/5
f 4/17/6 2/18/6 5/19/6 7/20/6
f 21/16/7 24/15/7 40/21/7 37/22/7
f 11/23/8 12/24/8 3/25/8 4/26/8 7/27/8 8/28/8 15/29/8 16/30/8
f 5/19/9 2/18/9 22/31/9 17/32/9
f 16/33/10 14/8/10 9/7/10 11/34/10
f 29/35/11 32/36/11 47/37/11 46/38/11
f 17/32/12 22/31/12 68/39/12 65/40/12
f 27/41/13 26/42/13 41/43/13 44/44/13
f 23/45/14 20/46/14 54/47/14 55/48/14
f 66/49/15 67/50/15 45/51/15 42/52/15
f 28/53/16 31/54/16 52/55/16 49/56/16
f 31/54/17 28/53/17 43/57/17 48/58/17
f 45/59/18 46/60/18 47/61/18 48/62/18 43/63/18 44/44/18 41/43/18 42/64/18
f 26/42/19 27/41/19 35/4/19 34/3/19
f 32/36/20 29/35/20 37/22/20 40/21/20
f 25/65/21 33/66/21 69/67/21 70/68/21
f 2/18/22 4/17/22 3/69/22 1/70/22
f 15/12/23 13/5/23 14/71/23 16/72/23
f 6/73/24 8/74/24 7/20/24 5/19/24
f 10/75/25 12/76/25 11/34/25 9/7/25
f 13/77/26 19/78/26 50/9/26 14/8/26
f 24/79/27 10/75/27 9/7/27 51/10/27
f 1/13/28 21/16/28 22/80/28 2/81/28
f 18/2/29 6/6/29 5/82/29 17/83/29
f 19/78/30 35/84/30 49/56/30 50/9/30
f 40/21/31 24/15/31 51/85/31 52/86/31
f 17/83/32 65/87/32 34/3/32 18/2/32
f 68/88/33 22/80/33 21/16/33 37/22/33
f 65/87/34 66/89/34 26/42/34 34/3/34
f 28/90/35 49/91/35 35/4/35 27/41/35
f 37/22/36 29/35/36 67/92/36 68/88/36
f 32/93/37 40/94/37 52/55/37 31/54/37
f 27/41/38 44/44/38 43/63/38 28/90/38
f 47/95/39 32/93/39 31/54/39 48/58/39
f 66/89/40 42/64/40 41/43/40 26/42/40
f 45/51/41 67/50/41 29/96/41 46/97/41
f 12/98/42 10/14/42 1/13/42 3/99/42
f 36/100/43 20/101/43 50/9/43 49/56/43
f 23/102/44 39/103/44 52/86/44 51/85/44
f 20/101/45 23/104/45 51/10/45 50/9/45
f 39/105/46 36/100/46 49/56/46 52/55/46
f 53/106/47 56/107/47 60/108/47 57/109/47
f 20/110/48 36/111/48 53/112/48 54/113/48
f 36/114/49 39/115/49 56/107/49 53/106/49
f 39/103/50 23/102/50 55/116/50 56/117/50
f 60/118/51 59/119/51 63/120/51 64/121/51
f 56/117/52 55/116/52 59/119/52 60/118/52
f 55/122/53 54/123/53 58/124/53 59/125/53
f 54/113/54 53/112/54 57/126/54 58/127/54
f 63/128/55 62/129/55 61/130/55 64/131/55
f 59/125/56 58/124/56 62/129/56 63/128/56
f 58/127/57 57/126/57 61/132/57 62/133/57
f 57/109/58 60/108/58 64/134/58 61/135/58
f 33/136/59 25/137/59 66/49/59 65/40/59
f 30/138/60 38/139/60 68/39/60 67/50/60
f 38/139/61 33/136/61 65/40/61 68/39/61
f 25/137/62 30/138/62 67/50/62 66/49/62
f 71/140/63 70/141/63 74/142/63 75/143/63
f 30/144/64 25/145/64 70/141/64 71/140/64
f 38/146/65 30/147/65 71/148/65 72/149/65
f 33/136/66 38/139/66 72/150/66 69/151/66
f 73/152/67 76/153/67 80/154/67 77/155/67
f 72/149/68 71/148/68 75/156/68 76/157/68
f 69/151/69 72/150/69 76/153/69 73/152/69
f 70/68/70 69/67/70 73/158/70 74/159/70
f 79/160/71 78/161/71 77/162/71 80/163/71
f 74/159/72 73/158/72 77/164/72 78/165/72
f 75/143/73 74/142/73 78/166/73 79/167/73
f 76/157/74 75/156/74 79/160/74 80/163/74
