# Blender v2.93.5 OBJ File: 'fwf.blend'
# www.blender.org
mtllib rocket.mtl
o rocket
v -0.591747 0.200000 0.100000
v -0.591747 0.100000 0.000000
v -0.362100 0.000000 0.000000
v -0.362100 -0.000000 0.100000
v -0.362100 0.200000 0.200000
v -0.398079 0.200000 0.100000
v -0.362100 0.100000 -0.100000
v -0.362100 0.200000 -0.100000
v -0.362100 0.300000 0.000000
v -0.010638 0.096530 0.210410
v 0.061251 -0.019407 -0.119407
v -0.010140 0.310157 -0.003385
v 0.061251 0.319407 -0.119407
v -0.362100 0.100000 0.200000
v -0.010638 0.203470 0.210410
v 0.068336 0.093041 0.220878
v 0.061251 -0.019407 0.219407
v 0.068336 0.206959 0.220878
v 0.304861 0.081101 0.256697
v 0.304861 0.218899 0.256697
v 0.423633 -0.037260 0.237260
v 0.423633 0.337260 0.237260
v -0.398079 0.100000 0.100000
v -0.591747 0.100000 0.100000
v -0.010140 -0.010157 0.103386
v -0.010140 0.310156 0.103386
v -0.037216 0.097586 -0.002414
v -0.037216 0.202414 -0.002414
v -0.010638 0.203470 -0.110410
v 0.068336 0.093041 -0.120878
v 0.068336 0.206959 -0.120878
v 0.304861 0.081101 -0.156697
v 0.304861 0.218899 -0.156697
v 0.423633 -0.037260 -0.137260
v 0.423633 0.337260 -0.137260
v 0.069051 -0.020361 0.106787
v 0.304861 -0.053764 0.117921
v -0.010140 -0.010157 -0.003386
v 0.069051 -0.020361 -0.006787
v 0.304861 -0.053764 -0.017921
v -0.037216 0.097586 0.102414
v -0.398079 0.100000 0.000000
v -0.010638 0.096530 -0.110410
v -0.037216 0.202414 0.102414
v -0.591747 0.200000 0.000000
v -0.398079 0.200000 0.000000
v 0.061251 0.319407 0.219407
v 0.069051 0.320361 0.106787
v 0.304861 0.353764 0.117921
v -0.362100 0.300000 0.100000
v 0.069051 0.320361 -0.006787
v 0.304861 0.353764 -0.017921
vt 0.970703 0.500000
vt 0.970703 0.500000
vt 0.970703 0.500000
vt 0.970703 0.500000
vt 0.939453 0.500000
vt 0.939453 0.500000
vt 0.939453 0.500000
vt 0.939453 0.500000
vt 0.939453 0.500000
vt 0.939453 0.500000
vt 0.939453 0.500000
vt 0.939453 0.500000
vt 0.939453 0.500000
vt 0.939453 0.500000
vt 0.939453 0.500000
vt 0.939453 0.500000
vt 0.939453 0.500000
vt 0.939453 0.500000
vt 0.939453 0.500000
vt 0.939453 0.500000
vt 0.939453 0.500000
vt 0.939453 0.500000
vt 0.939453 0.500000
vt 0.939453 0.500000
vt 0.939453 0.500000
vt 0.939453 0.500000
vt 0.939453 0.500000
vt 0.939453 0.500000
vt 0.939453 0.500000
vt 0.939453 0.500000
vt 0.939453 0.500000
vt 0.939453 0.500000
vt 0.939453 0.500000
vt 0.939453 0.500000
vt 0.939453 0.500000
vt 0.939453 0.500000
vt 0.939453 0.500000
vt 0.939453 0.500000
vt 0.939453 0.500000
vt 0.970703 0.500000
vt 0.970703 0.500000
vt 0.970703 0.500000
vt 0.939453 0.500000
vt 0.970703 0.500000
vt 0.970703 0.500000
vt 0.970703 0.500000
vt 0.970703 0.500000
vt 0.970703 0.500000
vt 0.939453 0.500000
vt 0.939453 0.500000
vt 0.939453 0.500000
vt 0.970703 0.500000
vt 0.970703 0.500000
vt 0.970703 0.500000
vt 0.939453 0.500000
vt 0.970703 0.500000
vt 0.939453 0.500000
vt 0.939453 0.500000
vt 0.970703 0.500000
vt 0.970703 0.500000
vt 0.970703 0.500000
vt 0.939453 0.500000
vt 0.939453 0.500000
vt 0.970703 0.500000
vt 0.939453 0.500000
vt 0.939453 0.500000
vt 0.970703 0.500000
vt 0.970703 0.500000
vt 0.970703 0.500000
vt 0.939453 0.500000
vt 0.939453 0.500000
vt 0.970703 0.500000
vn -1.0000 0.0000 0.0000
vn -0.9410 -0.3385 -0.0000
vn -0.9410 0.0000 0.3385
vn -0.9410 0.0000 -0.3385
vn -0.9410 0.3385 0.0000
vn -0.7771 -0.4475 0.4425
vn -0.9443 -0.2352 0.2301
vn -0.8406 -0.2067 -0.5007
vn -0.8394 -0.5048 -0.2016
vn -0.8394 0.5048 0.2016
vn -0.8406 0.2067 0.5007
vn -0.9443 0.2352 -0.2301
vn -0.7771 0.4475 -0.4425
vn 1.0000 0.0000 0.0000
vn -0.0296 -0.0000 0.9996
vn -0.1316 -0.0047 0.9913
vn -0.1281 0.0024 0.9918
vn -0.1314 -0.0000 0.9913
vn -0.2032 -0.0000 0.9791
vn -0.1499 -0.0035 0.9887
vn -0.1497 -0.0000 0.9887
vn -0.1499 0.0035 0.9887
vn -0.0588 -0.2189 0.9740
vn 0.1615 -0.0000 0.9869
vn -0.0588 0.2189 0.9740
vn 0.0000 -0.0000 1.0000
vn -0.0097 -0.0035 0.9999
vn -0.0066 0.0073 1.0000
vn -0.0067 0.0024 1.0000
vn -0.0094 -0.0066 0.9999
vn 0.0000 0.0000 -1.0000
vn -0.0097 -0.0035 -0.9999
vn -0.0066 0.0073 -1.0000
vn -0.0067 0.0024 -1.0000
vn -0.0094 -0.0066 -0.9999
vn -0.0296 0.0000 -0.9996
vn -0.1316 -0.0047 -0.9913
vn -0.1281 0.0024 -0.9918
vn -0.1314 0.0000 -0.9913
vn -0.2032 0.0000 -0.9791
vn -0.1499 -0.0035 -0.9887
vn -0.1497 0.0000 -0.9887
vn -0.1499 0.0035 -0.9887
vn -0.0588 -0.2189 -0.9740
vn 0.1615 0.0000 -0.9869
vn -0.0588 0.2189 -0.9740
vn -0.0466 -0.9976 -0.0508
vn -0.1342 -0.9614 0.2402
vn -0.1476 -0.9491 0.2781
vn -0.0288 -0.9996 -0.0000
vn -0.1344 -0.9205 0.3670
vn -0.0295 -0.9970 -0.0712
vn -0.1403 -0.9901 -0.0000
vn -0.1278 -0.9918 -0.0000
vn 0.1376 -0.9905 -0.0000
vn -0.1278 -0.9918 0.0005
vn -0.1402 -0.9901 0.0013
vn -0.0578 -0.9795 -0.1929
vn -0.0100 -0.9999 0.0036
vn -0.0066 -0.9999 -0.0081
vn 0.0000 -1.0000 -0.0000
vn -0.0067 -1.0000 -0.0024
vn -0.0097 -0.9999 0.0074
vn -0.0100 0.9999 0.0036
vn -0.0066 0.9999 -0.0081
vn 0.0000 1.0000 0.0000
vn -0.0067 1.0000 -0.0024
vn -0.0097 0.9999 0.0074
vn -0.0466 0.9976 -0.0508
vn -0.1342 0.9614 0.2402
vn -0.1476 0.9491 0.2781
vn -0.0288 0.9996 0.0000
vn -0.1344 0.9205 0.3670
vn -0.0295 0.9970 -0.0712
vn -0.1403 0.9901 0.0000
vn -0.1278 0.9918 0.0000
vn 0.1376 0.9905 0.0000
vn -0.1278 0.9918 0.0005
vn -0.1402 0.9901 0.0013
vn -0.0578 0.9795 -0.1929
usemtl palette.060
s off
f 1/1/1 2/2/1 24/3/1
f 45/4/1 2/2/1 1/1/1
f 23/5/2 3/6/2 4/7/2
f 42/8/2 3/6/2 23/5/2
f 5/9/3 23/5/3 14/10/3
f 6/11/3 23/5/3 5/9/3
f 46/12/4 7/13/4 42/8/4
f 8/14/4 7/13/4 46/12/4
f 50/15/5 46/12/5 6/11/5
f 9/16/5 46/12/5 50/15/5
f 10/17/6 25/18/6 17/19/6
f 41/20/7 25/18/7 10/17/7
f 27/21/8 11/22/8 38/23/8
f 43/24/9 11/22/9 27/21/9
f 47/25/10 44/26/10 15/27/10
f 26/28/11 44/26/11 47/25/11
f 12/29/12 29/30/12 28/31/12
f 13/32/13 29/30/13 12/29/13
f 21/33/14 34/34/14 22/35/14
f 22/35/14 34/34/14 35/36/14
f 10/17/15 5/9/15 14/10/15
f 15/27/15 5/9/15 10/17/15
f 16/37/16 10/17/16 17/19/16
f 16/37/17 47/25/17 15/27/17
f 16/37/18 15/27/18 10/17/18
f 18/38/19 47/25/19 16/37/19
f 19/39/20 16/37/20 17/19/20
f 19/40/21 18/41/21 16/42/21
f 20/43/22 47/25/22 18/38/22
f 20/44/21 18/41/21 19/40/21
f 21/33/23 19/39/23 17/19/23
f 21/33/24 20/43/24 19/39/24
f 22/35/25 47/25/25 20/43/25
f 22/35/24 20/43/24 21/33/24
f 23/45/26 1/1/26 24/3/26
f 6/46/26 1/1/26 23/45/26
f 25/18/27 23/5/27 4/7/27
f 41/20/28 23/5/28 25/18/28
f 44/26/29 50/15/29 6/11/29
f 26/28/30 50/15/30 44/26/30
f 2/2/31 45/4/31 42/47/31
f 42/47/31 45/4/31 46/48/31
f 3/6/32 42/8/32 38/23/32
f 38/23/33 42/8/33 27/21/33
f 46/12/34 9/16/34 28/31/34
f 28/31/35 9/16/35 12/29/35
f 7/13/36 8/14/36 43/24/36
f 43/24/36 8/14/36 29/30/36
f 11/22/37 43/24/37 30/49/37
f 29/30/38 13/32/38 30/49/38
f 43/24/39 29/30/39 30/49/39
f 30/49/40 13/32/40 31/50/40
f 11/22/41 30/49/41 32/51/41
f 30/52/42 31/53/42 32/54/42
f 31/50/43 13/32/43 33/55/43
f 32/54/42 31/53/42 33/56/42
f 11/22/44 32/51/44 34/34/44
f 32/51/45 33/55/45 34/34/45
f 33/55/46 13/32/46 35/36/46
f 34/34/45 33/55/45 35/36/45
f 25/18/47 21/33/47 17/19/47
f 36/57/48 21/33/48 25/18/48
f 37/58/49 21/33/49 36/57/49
f 3/6/50 25/18/50 4/7/50
f 3/6/51 36/57/51 25/18/51
f 38/23/52 36/57/52 3/6/52
f 39/59/53 37/60/53 36/61/53
f 39/62/54 36/57/54 38/23/54
f 40/63/55 21/33/55 37/58/55
f 40/64/53 37/60/53 39/59/53
f 11/22/56 39/62/56 38/23/56
f 11/22/57 40/63/57 39/62/57
f 34/34/55 21/33/55 40/63/55
f 34/34/58 40/63/58 11/22/58
f 23/5/59 10/17/59 14/10/59
f 41/20/60 10/17/60 23/5/60
f 2/2/61 23/45/61 24/3/61
f 42/47/61 23/45/61 2/2/61
f 7/13/62 27/21/62 42/8/62
f 43/24/63 27/21/63 7/13/63
f 5/9/64 15/27/64 6/11/64
f 6/11/65 15/27/65 44/26/65
f 1/1/66 6/46/66 45/4/66
f 45/4/66 6/46/66 46/48/66
f 46/12/67 28/31/67 8/14/67
f 8/14/68 28/31/68 29/30/68
f 47/25/69 22/35/69 26/28/69
f 26/28/70 22/35/70 48/65/70
f 48/65/71 22/35/71 49/66/71
f 50/15/72 26/28/72 9/16/72
f 26/28/73 48/65/73 9/16/73
f 9/16/74 48/65/74 12/29/74
f 48/67/75 49/68/75 51/69/75
f 12/29/76 48/65/76 51/70/76
f 49/66/77 22/35/77 52/71/77
f 51/69/75 49/68/75 52/72/75
f 12/29/78 51/70/78 13/32/78
f 51/70/79 52/71/79 13/32/79
f 52/71/77 22/35/77 35/36/77
f 13/32/80 52/71/80 35/36/80
