# Blender v2.93.5 OBJ File: 'Rock1.blend'
# www.blender.org
mtllib Rock1.mtl
o Cube_Cube.001
v -1.261670 -0.308050 0.683483
v -0.114350 3.189321 -1.649019
v -0.804068 0.242172 -1.009511
v -0.386459 4.205230 -0.302662
v 1.000000 -0.308050 1.000000
v 1.000000 -0.308050 -1.000000
v 1.675758 1.268405 -1.000000
v 2.079526 0.693695 -0.883306
v -0.114350 0.002048 -1.000000
v -0.751730 3.210796 -1.316951
v 1.000000 3.189321 -1.000000
v -0.634729 4.183754 -0.164283
v 0.164283 4.183754 0.634729
v -0.200988 3.189321 1.238823
v -1.000000 3.189321 0.200988
v -1.000000 1.335033 1.000000
v -0.114350 -0.176304 1.000000
v -0.255780 0.947219 1.000000
v -0.255780 0.947219 -1.649019
v -0.072581 4.691829 -0.634729
v -0.758331 1.895880 1.238823
v -0.072544 4.691863 -0.634729
v 0.853574 4.047899 -0.853574
v 0.358168 4.742703 -0.260269
v 0.515445 4.645443 -0.449012
v 0.719270 4.493483 -0.340966
v 0.440474 4.591135 -0.718130
v -1.369848 0.072325 0.683483
v -1.011606 0.821536 1.000000
v -1.177955 1.190338 1.000000
v -1.201470 1.790694 -1.316951
v -0.676212 0.877307 -1.649019
v -0.970276 0.452320 -1.145902
v 2.079526 0.521339 -0.883306
v 2.058906 0.091890 -0.698670
v 1.770351 0.061260 -1.000000
v 0.941381 3.986006 -0.086672
v 0.205839 4.183754 0.634729
v 1.259218 1.169460 1.000000
v 1.675758 1.268405 0.721331
v 2.058906 -0.174513 0.046662
v 1.684044 -0.308050 0.625496
v 1.727808 0.672624 0.700005
v 2.058906 0.691950 0.550118
v 0.570128 3.189321 1.238823
v 1.052077 3.210917 0.081071
v 1.567922 1.744573 0.595520
v 1.078661 1.742588 1.238823
v 0.358168 4.742703 -0.260269
v 0.715754 4.491508 -0.312458
v -1.418948 1.021398 0.794093
v -1.465716 0.363676 0.559454
v -1.363766 0.525302 -0.731373
v -1.459069 1.019979 -0.217467
vt 0.141608 0.921748
vt 0.106636 0.980640
vt 0.002045 0.820816
vt 0.032807 0.806507
vt 0.450219 0.378314
vt 0.544539 0.155097
vt 0.666193 0.194419
vt 0.665928 0.414487
vt 0.688169 0.363024
vt 0.855689 0.363732
vt 0.856135 0.432317
vt 0.688650 0.431608
vt 0.241602 0.473539
vt 0.256999 0.352118
vt 0.338583 0.365767
vt 0.375535 0.446580
vt 0.363813 0.487683
vt 0.465150 0.810854
vt 0.438911 0.693044
vt 0.646536 0.639312
vt 0.675085 0.756414
vt 0.150159 0.997955
vt 0.150159 0.997955
vt 0.106636 0.980645
vt 0.154663 0.913061
vt 0.246961 0.935434
vt 0.247284 0.936542
vt 0.688167 0.145835
vt 0.860605 0.145249
vt 0.860718 0.311042
vt 0.439808 0.478694
vt 0.541364 0.550586
vt 0.312599 0.249775
vt 0.114261 0.266186
vt 0.169328 0.109864
vt 0.252577 0.109930
vt 0.413210 0.613919
vt 0.436261 0.575758
vt 0.517087 0.554676
vt 0.589085 0.577811
vt 0.720645 0.495603
vt 0.688489 0.449950
vt 0.800926 0.524294
vt 0.093466 0.327969
vt 0.337389 0.310267
vt 0.356585 0.325921
vt 0.205644 0.002045
vt 0.210131 0.002049
vt 0.121282 0.487683
vt 0.312545 0.822345
vt 0.194513 0.799655
vt 0.286811 0.606513
vt 0.312545 0.672015
vt 0.100136 0.509703
vt 0.153116 0.559654
vt 0.034066 0.645781
vt 0.005417 0.563687
vt 0.058768 0.512003
vt 0.045495 0.487395
vt 0.041268 0.381444
vt 0.479778 0.884219
vt 0.675085 0.884422
vt 0.467409 0.906105
vt 0.401689 0.890545
vt 0.389367 0.846839
vt 0.709766 0.643615
vt 0.756288 0.640231
vt 0.757200 0.643126
vt 0.733490 0.659494
vt 0.709766 0.643615
vt 0.679176 0.694184
vt 0.734856 0.689767
vt 0.801315 0.694184
vt 0.616501 0.002047
vt 0.616506 0.002045
vt 0.663600 0.030989
vt 0.684077 0.101462
vt 0.262421 0.562218
vt 0.285914 0.586613
vt 0.405232 0.370224
vt 0.389368 0.257698
vt 0.485508 0.129347
vt 0.381517 0.344075
vt 0.385277 0.415023
vt 0.677925 0.504606
vt 0.666852 0.547702
vt 0.632402 0.540843
vt 0.684077 0.487053
vt 0.928917 0.302303
vt 0.903058 0.366597
vt 0.002045 0.472576
vt 0.004750 0.379235
vt 0.046182 0.316964
vt 0.113965 0.107094
vt 0.125190 0.023234
vt 0.928917 0.138736
vt 0.782588 0.556638
vt 0.698633 0.554676
vt 0.704403 0.051767
vt 0.759847 0.002045
vt 0.762916 0.002202
vt 0.844018 0.060602
vt 0.238975 0.491773
vt 0.673094 0.897250
vt 0.659046 0.911768
vt 0.520180 0.936424
vn -0.6427 0.5435 -0.5400
vn 0.3871 0.0497 -0.9207
vn 0.8257 0.5641 0.0057
vn -0.1811 -0.1321 0.9745
vn -0.1943 -0.9800 -0.0437
vn -0.4597 0.8170 0.3481
vn 0.9498 0.3110 -0.0350
vn 0.2008 -0.2839 -0.9376
vn 0.0000 0.0000 1.0000
vn 0.2021 -0.9706 -0.1305
vn 0.9998 -0.0154 0.0095
vn -0.0206 -0.2648 0.9641
vn 0.0000 0.5192 0.8547
vn -0.8008 0.2766 0.5312
vn -0.6478 0.5126 0.5636
vn -0.8786 0.4052 -0.2529
vn -0.8620 -0.1236 -0.4917
vn 0.4756 -0.0852 0.8755
vn -0.0230 -0.9803 -0.1962
vn -0.1135 -0.6354 -0.7638
vn 0.5772 0.8136 0.0704
vn 0.1641 0.9449 -0.2833
vn 0.6938 0.6295 -0.3499
vn 0.2819 0.4119 -0.8665
vn -0.9637 0.2639 0.0400
vn -0.3262 0.0884 -0.9411
vn -0.6072 -0.1453 0.7812
vn 0.7023 -0.3094 -0.6411
vn 0.1102 0.0076 -0.9939
vn 0.7020 0.1173 0.7025
vn 0.7232 -0.2218 0.6541
vn 0.4958 0.0122 0.8683
vn 0.7813 0.4136 0.4674
vn 0.8171 0.3660 0.4454
vn 0.6131 0.5924 0.5226
vn 0.9769 0.2016 -0.0709
vn -0.9993 -0.0236 -0.0285
vn -0.7637 -0.5796 -0.2844
usemtl None
s off
f 4/1/1 20/2/1 2/3/1 10/4/1
f 19/5/2 2/6/2 11/7/2 7/8/2
f 7/9/3 40/10/3 44/11/3 8/12/3
f 17/13/4 18/14/4 29/15/4 28/16/4 1/17/4
f 9/18/5 6/19/5 5/20/5 17/21/5
f 49/22/6 24/23/6 22/24/6 20/2/6 4/1/6 12/25/6 13/26/6 38/27/6
f 7/9/7 11/28/7 46/29/7 47/30/7 40/10/7
f 9/31/8 19/5/8 7/8/8 6/32/8
f 21/33/9 48/34/9 45/35/9 14/36/9
f 5/20/10 6/19/10 36/37/10 35/38/10 41/39/10 42/40/10
f 35/41/11 34/42/11 8/12/11 44/11/11 41/43/11
f 39/44/12 48/34/12 21/33/12 16/45/12 30/46/12 29/15/12 18/14/12
f 38/47/13 13/48/13 14/36/13 45/35/13
f 5/49/9 39/44/9 18/14/9 17/13/9
f 14/50/14 15/51/14 16/52/14 21/53/14
f 14/50/15 13/26/15 12/25/15 15/51/15
f 12/25/16 4/1/16 10/4/16 15/51/16
f 53/54/17 54/55/17 31/56/17 32/57/17 33/58/17
f 39/44/18 5/49/18 42/59/18 43/60/18
f 3/61/19 9/18/19 17/21/19 1/62/19
f 3/61/20 33/63/20 32/64/20 19/65/20 9/18/20
f 49/66/21 50/67/21 26/68/21 25/69/21 24/70/21
f 22/71/22 24/70/22 25/69/22 27/72/22
f 23/73/23 27/72/23 25/69/23 26/68/23
f 20/74/24 22/75/24 27/76/24 23/77/24 11/7/24 2/6/24
f 51/78/25 30/79/25 16/52/25 15/51/25 10/4/25 31/56/25 54/55/25
f 32/80/26 31/81/26 10/82/26 2/6/26 19/5/26
f 28/16/27 29/15/27 30/46/27 51/83/27 52/84/27
f 34/85/28 35/86/28 36/87/28
f 6/32/29 7/8/29 8/88/29 34/85/29 36/87/29
f 48/89/30 39/90/30 40/10/30 47/30/30
f 43/60/31 42/59/31 41/91/31 44/92/31
f 39/44/32 43/60/32 44/92/32 40/93/32
f 38/47/33 45/35/33 46/94/33 37/95/33
f 45/96/34 48/89/34 47/30/34 46/29/34
f 37/97/35 50/67/35 49/66/35 38/98/35
f 23/99/36 26/100/36 50/101/36 37/102/36 46/29/36 11/28/36
f 51/78/37 54/55/37 53/54/37 52/103/37
f 1/62/38 28/104/38 52/105/38 53/106/38 33/63/38 3/61/38
