# MagicaVoxel @ Ephtracy

# group
o 

# material
mtllib CirclePlasmaBot_LOD2-1.mtl
usemtl palette

# normals
vn -1 0 0
vn 1 0 0
vn 0 0 1
vn 0 0 -1
vn 0 -1 0
vn 0 1 0

# texcoords
vt 0.974609 0.5
vt 0.978516 0.5

# verts
v -0.5 2.3 -0.1
v -0.5 2.3 -0.5
v -0.5 2.6 0.2
v -0.5 2.6 0
v -0.5 2.6 -0.1
v -0.5 2.7 0.5
v -0.5 2.7 0.2
v -0.5 2.9 0.5
v -0.5 2.9 0
v -0.5 2.9 -0.1
v -0.5 2.9 -0.5
v -0.5 3 0.5
v -0.5 3 -0.5
v -0.5 3.3 0.5
v -0.5 3.3 -0.5
v -0.2 2.5 0.1
v -0.2 2.5 0
v -0.2 2.5 -0.1
v -0.2 2.6 0.1
v -0.2 2.6 0
v -0.2 2.6 -0.1
v 0.2 2.5 0.1
v 0.2 2.5 0
v 0.2 2.5 -0.1
v 0.2 2.6 0.1
v 0.2 2.6 0
v 0.2 2.6 -0.1
v 0.5 2.3 -0.1
v 0.5 2.3 -0.5
v 0.5 2.6 0.2
v 0.5 2.6 0
v 0.5 2.6 -0.1
v 0.5 2.7 0.5
v 0.5 2.7 0.2
v 0.5 2.9 0.5
v 0.5 2.9 0
v 0.5 2.9 -0.1
v 0.5 2.9 -0.5
v 0.5 3 0.5
v 0.5 3 -0.5
v 0.5 3.3 0.5
v 0.5 3.3 -0.5
v -0.5 2.7 0.5
v -0.5 2.9 0.5
v -0.5 3 0.5
v -0.5 3.3 0.5
v -0.4 3 0.5
v -0.4 3.2 0.5
v -0.3 2.9 0.5
v -0.3 3 0.5
v -0.3 3.2 0.5
v -0.3 3.3 0.5
v -0.2 3 0.5
v -0.2 3.1 0.5
v -0.2 3.2 0.5
v -0.2 3.3 0.5
v -0.1 2.8 0.5
v -0.1 3.1 0.5
v 0.1 2.8 0.5
v 0.1 3.1 0.5
v 0.2 3 0.5
v 0.2 3.1 0.5
v 0.2 3.2 0.5
v 0.2 3.3 0.5
v 0.3 2.9 0.5
v 0.3 3 0.5
v 0.3 3.2 0.5
v 0.3 3.3 0.5
v 0.4 3 0.5
v 0.4 3.2 0.5
v 0.5 2.7 0.5
v 0.5 2.9 0.5
v 0.5 3 0.5
v 0.5 3.3 0.5
v -0.5 2.6 0.2
v -0.5 2.7 0.2
v -0.1 2.6 0.2
v -0.1 2.7 0.2
v 0.1 2.6 0.2
v 0.1 2.7 0.2
v 0.5 2.6 0.2
v 0.5 2.7 0.2
v -0.2 2.5 0.1
v -0.2 2.6 0.1
v -0.1 2.5 0.1
v -0.1 2.6 0.1
v 0.1 2.5 0.1
v 0.1 2.6 0.1
v 0.2 2.5 0.1
v 0.2 2.6 0.1
v -0.5 2.3 -0.1
v -0.5 2.6 -0.1
v -0.2 2.5 -0.1
v -0.2 2.6 -0.1
v -0.1 2.3 -0.1
v -0.1 2.5 -0.1
v 0.1 2.3 -0.1
v 0.1 2.5 -0.1
v 0.2 2.5 -0.1
v 0.2 2.6 -0.1
v 0.5 2.3 -0.1
v 0.5 2.6 -0.1
v -0.5 2.3 -0.5
v -0.5 2.9 -0.5
v -0.5 3 -0.5
v -0.5 3.3 -0.5
v -0.2 2.3 -0.5
v -0.2 2.4 -0.5
v 0.2 2.3 -0.5
v 0.2 2.4 -0.5
v 0.5 2.3 -0.5
v 0.5 2.9 -0.5
v 0.5 3 -0.5
v 0.5 3.3 -0.5
v -0.5 2.3 -0.1
v -0.1 2.3 -0.1
v 0.1 2.3 -0.1
v 0.5 2.3 -0.1
v -0.2 2.3 -0.3
v -0.1 2.3 -0.3
v 0.1 2.3 -0.3
v 0.2 2.3 -0.3
v -0.5 2.3 -0.5
v -0.2 2.3 -0.5
v 0.2 2.3 -0.5
v 0.5 2.3 -0.5
v -0.2 2.5 0.1
v -0.1 2.5 0.1
v 0.1 2.5 0.1
v 0.2 2.5 0.1
v -0.2 2.5 0
v -0.1 2.5 0
v 0.1 2.5 0
v 0.2 2.5 0
v -0.2 2.5 -0.1
v -0.1 2.5 -0.1
v 0.1 2.5 -0.1
v 0.2 2.5 -0.1
v -0.5 2.6 0.2
v -0.1 2.6 0.2
v 0.1 2.6 0.2
v 0.5 2.6 0.2
v -0.2 2.6 0.1
v -0.1 2.6 0.1
v 0.1 2.6 0.1
v 0.2 2.6 0.1
v -0.5 2.6 0
v -0.2 2.6 0
v 0.2 2.6 0
v 0.5 2.6 0
v -0.5 2.6 -0.1
v -0.2 2.6 -0.1
v 0.2 2.6 -0.1
v 0.5 2.6 -0.1
v -0.5 2.7 0.5
v 0.5 2.7 0.5
v -0.5 2.7 0.2
v -0.1 2.7 0.2
v 0.1 2.7 0.2
v 0.5 2.7 0.2
v -0.5 3.3 0.5
v -0.3 3.3 0.5
v -0.2 3.3 0.5
v 0.2 3.3 0.5
v 0.3 3.3 0.5
v 0.5 3.3 0.5
v -0.3 3.3 0.4
v -0.2 3.3 0.4
v 0.2 3.3 0.4
v 0.3 3.3 0.4
v -0.3 3.3 0.3
v 0.3 3.3 0.3
v -0.3 3.3 0.2
v -0.1 3.3 0.2
v 0.1 3.3 0.2
v 0.3 3.3 0.2
v -0.1 3.3 -0.1
v 0.1 3.3 -0.1
v -0.5 3.3 -0.5
v 0.5 3.3 -0.5

# faces
f 5/2/1 2/2/1 1/2/1
f 7/2/1 4/2/1 3/2/1
f 8/2/1 7/2/1 6/2/1
f 9/1/1 5/1/1 4/1/1
f 9/2/1 7/2/1 8/2/1
f 9/2/1 4/2/1 7/2/1
f 10/2/1 2/2/1 5/2/1
f 10/1/1 5/1/1 9/1/1
f 11/2/1 2/2/1 10/2/1
f 12/1/1 9/1/1 8/1/1
f 12/1/1 10/1/1 9/1/1
f 12/1/1 11/1/1 10/1/1
f 13/1/1 11/1/1 12/1/1
f 14/2/1 13/2/1 12/2/1
f 15/2/1 13/2/1 14/2/1
f 19/2/1 17/2/1 16/2/1
f 20/1/1 18/1/1 17/1/1
f 20/2/1 17/2/1 19/2/1
f 21/1/1 18/1/1 20/1/1
f 22/2/2 23/2/2 25/2/2
f 23/1/2 24/1/2 26/1/2
f 25/2/2 23/2/2 26/2/2
f 26/1/2 24/1/2 27/1/2
f 28/2/2 29/2/2 32/2/2
f 30/2/2 31/2/2 34/2/2
f 33/2/2 34/2/2 35/2/2
f 31/1/2 32/1/2 36/1/2
f 35/2/2 34/2/2 36/2/2
f 34/2/2 31/2/2 36/2/2
f 32/2/2 29/2/2 37/2/2
f 36/1/2 32/1/2 37/1/2
f 37/2/2 29/2/2 38/2/2
f 35/1/2 36/1/2 39/1/2
f 36/1/2 37/1/2 39/1/2
f 37/1/2 38/1/2 39/1/2
f 39/1/2 38/1/2 40/1/2
f 39/2/2 40/2/2 41/2/2
f 41/2/2 40/2/2 42/2/2
f 47/1/3 45/1/3 44/1/3
f 47/2/3 46/2/3 45/2/3
f 48/2/3 46/2/3 47/2/3
f 49/2/3 44/2/3 43/2/3
f 49/1/3 47/1/3 44/1/3
f 49/1/3 48/1/3 47/1/3
f 50/1/3 48/1/3 49/1/3
f 51/2/3 46/2/3 48/2/3
f 51/1/3 48/1/3 50/1/3
f 52/2/3 46/2/3 51/2/3
f 53/2/3 50/2/3 49/2/3
f 53/1/3 51/1/3 50/1/3
f 53/1/3 52/1/3 51/1/3
f 54/1/3 52/1/3 53/1/3
f 55/1/3 52/1/3 54/1/3
f 56/1/3 52/1/3 55/1/3
f 57/2/3 49/2/3 43/2/3
f 57/2/3 53/2/3 49/2/3
f 57/2/3 54/2/3 53/2/3
f 58/1/3 55/1/3 54/1/3
f 58/2/3 54/2/3 57/2/3
f 59/2/3 57/2/3 43/2/3
f 59/1/3 58/1/3 57/1/3
f 60/1/3 55/1/3 58/1/3
f 60/1/3 58/1/3 59/1/3
f 61/2/3 60/2/3 59/2/3
f 62/1/3 55/1/3 60/1/3
f 62/2/3 60/2/3 61/2/3
f 63/2/3 56/2/3 55/2/3
f 63/1/3 55/1/3 62/1/3
f 64/2/3 56/2/3 63/2/3
f 65/2/3 61/2/3 59/2/3
f 66/1/3 62/1/3 61/1/3
f 66/2/3 61/2/3 65/2/3
f 66/1/3 63/1/3 62/1/3
f 66/1/3 64/1/3 63/1/3
f 67/1/3 64/1/3 66/1/3
f 68/1/3 64/1/3 67/1/3
f 69/1/3 66/1/3 65/1/3
f 69/1/3 67/1/3 66/1/3
f 70/2/3 68/2/3 67/2/3
f 70/1/3 67/1/3 69/1/3
f 71/2/3 65/2/3 59/2/3
f 71/2/3 59/2/3 43/2/3
f 72/1/3 69/1/3 65/1/3
f 72/2/3 65/2/3 71/2/3
f 73/2/3 70/2/3 69/2/3
f 73/1/3 69/1/3 72/1/3
f 74/2/3 68/2/3 70/2/3
f 74/2/3 70/2/3 73/2/3
f 77/2/3 76/2/3 75/2/3
f 78/2/3 76/2/3 77/2/3
f 79/1/3 78/1/3 77/1/3
f 80/1/3 78/1/3 79/1/3
f 81/2/3 80/2/3 79/2/3
f 82/2/3 80/2/3 81/2/3
f 85/2/3 84/2/3 83/2/3
f 86/2/3 84/2/3 85/2/3
f 87/1/3 86/1/3 85/1/3
f 88/1/3 86/1/3 87/1/3
f 89/2/3 88/2/3 87/2/3
f 90/2/3 88/2/3 89/2/3
f 93/2/3 92/2/3 91/2/3
f 94/2/3 92/2/3 93/2/3
f 95/2/3 93/2/3 91/2/3
f 96/2/3 93/2/3 95/2/3
f 97/1/3 96/1/3 95/1/3
f 98/1/3 96/1/3 97/1/3
f 99/2/3 98/2/3 97/2/3
f 101/2/3 99/2/3 97/2/3
f 101/2/3 100/2/3 99/2/3
f 102/2/3 100/2/3 101/2/3
f 103/2/4 104/2/4 107/2/4
f 107/2/4 104/2/4 108/2/4
f 107/1/4 108/1/4 109/1/4
f 108/2/4 104/2/4 110/2/4
f 109/1/4 108/1/4 110/1/4
f 109/2/4 110/2/4 111/2/4
f 104/1/4 105/1/4 112/1/4
f 111/2/4 110/2/4 112/2/4
f 110/2/4 104/2/4 112/2/4
f 105/2/4 106/2/4 113/2/4
f 112/1/4 105/1/4 113/1/4
f 113/2/4 106/2/4 114/2/4
f 119/2/5 116/2/5 115/2/5
f 120/1/5 117/1/5 116/1/5
f 120/2/5 116/2/5 119/2/5
f 121/2/5 118/2/5 117/2/5
f 121/1/5 117/1/5 120/1/5
f 122/2/5 118/2/5 121/2/5
f 123/2/5 119/2/5 115/2/5
f 124/1/5 120/1/5 119/1/5
f 124/2/5 119/2/5 123/2/5
f 124/1/5 121/1/5 120/1/5
f 124/1/5 122/1/5 121/1/5
f 125/2/5 118/2/5 122/2/5
f 125/1/5 122/1/5 124/1/5
f 126/2/5 118/2/5 125/2/5
f 131/2/5 128/2/5 127/2/5
f 132/1/5 129/1/5 128/1/5
f 132/2/5 128/2/5 131/2/5
f 133/2/5 130/2/5 129/2/5
f 133/1/5 129/1/5 132/1/5
f 134/2/5 130/2/5 133/2/5
f 135/1/5 132/1/5 131/1/5
f 135/1/5 133/1/5 132/1/5
f 135/1/5 134/1/5 133/1/5
f 136/1/5 134/1/5 135/1/5
f 137/1/5 134/1/5 136/1/5
f 138/1/5 134/1/5 137/1/5
f 143/2/5 140/2/5 139/2/5
f 144/1/5 141/1/5 140/1/5
f 144/2/5 140/2/5 143/2/5
f 145/2/5 142/2/5 141/2/5
f 145/1/5 141/1/5 144/1/5
f 146/2/5 142/2/5 145/2/5
f 147/2/5 143/2/5 139/2/5
f 148/2/5 143/2/5 147/2/5
f 149/2/5 142/2/5 146/2/5
f 150/2/5 142/2/5 149/2/5
f 151/1/5 148/1/5 147/1/5
f 152/1/5 148/1/5 151/1/5
f 153/1/5 150/1/5 149/1/5
f 154/1/5 150/1/5 153/1/5
f 157/2/5 156/2/5 155/2/5
f 158/2/5 156/2/5 157/2/5
f 159/2/5 156/2/5 158/2/5
f 160/2/5 156/2/5 159/2/5
f 161/2/6 162/2/6 167/2/6
f 162/1/6 163/1/6 167/1/6
f 163/2/6 164/2/6 168/2/6
f 167/1/6 163/1/6 168/1/6
f 164/1/6 165/1/6 169/1/6
f 168/2/6 164/2/6 169/2/6
f 165/2/6 166/2/6 170/2/6
f 169/1/6 165/1/6 170/1/6
f 168/2/6 169/2/6 171/2/6
f 167/2/6 168/2/6 171/2/6
f 169/2/6 170/2/6 171/2/6
f 161/2/6 167/2/6 171/2/6
f 170/2/6 166/2/6 172/2/6
f 171/2/6 170/2/6 172/2/6
f 161/2/6 171/2/6 173/2/6
f 171/1/6 172/1/6 173/1/6
f 173/1/6 172/1/6 174/1/6
f 174/1/6 172/1/6 175/1/6
f 172/2/6 166/2/6 176/2/6
f 175/1/6 172/1/6 176/1/6
f 174/1/6 175/1/6 177/1/6
f 173/2/6 174/2/6 177/2/6
f 175/2/6 176/2/6 178/2/6
f 177/1/6 175/1/6 178/1/6
f 161/2/6 173/2/6 179/2/6
f 173/2/6 177/2/6 179/2/6
f 177/2/6 178/2/6 179/2/6
f 176/2/6 166/2/6 180/2/6
f 179/2/6 178/2/6 180/2/6
f 178/2/6 176/2/6 180/2/6
