# MagicaVoxel @ Ephtracy

# group
o 

# material
mtllib HomingPlasmaBot_LOD0-1.mtl
usemtl palette

# normals
vn -1 0 0
vn 1 0 0
vn 0 0 1
vn 0 0 -1
vn 0 -1 0
vn 0 1 0

# texcoords
vt 0.970703 0.5
vt 0.974609 0.5
vt 0.978516 0.5

# verts
v -0.6 2.4 -0.2
v -0.6 2.4 -0.3
v -0.6 2.4 -0.4
v -0.6 2.4 -0.7
v -0.6 2.5 -0.1
v -0.6 2.5 -0.2
v -0.6 2.5 -0.3
v -0.6 2.5 -0.4
v -0.6 2.5 -0.6
v -0.6 2.6 0.1
v -0.6 2.6 -0.1
v -0.6 2.7 -0.4
v -0.6 2.7 -0.6
v -0.6 2.7 -0.7
v -0.6 2.8 -0.4
v -0.6 2.8 -0.6
v -0.6 2.8 -0.7
v -0.6 3 0.1
v -0.6 3 -0.3
v -0.6 3 -0.4
v -0.6 3 -0.6
v -0.6 3 -0.7
v -0.5 2.4 -0.1
v -0.5 2.4 -0.2
v -0.5 2.5 -0.1
v -0.5 2.5 -0.2
v -0.5 2.5 -0.3
v -0.5 2.5 -0.4
v -0.5 2.7 -0.4
v -0.5 2.7 -0.6
v -0.5 2.8 -0.4
v -0.5 2.8 -0.6
v -0.5 2.9 -0.3
v -0.5 2.9 -0.4
v -0.4 2.5 0
v -0.4 2.5 -0.1
v -0.4 2.6 0
v -0.4 2.6 -0.1
v -0.4 2.8 0.1
v -0.4 2.8 0
v -0.4 2.9 0.1
v -0.4 2.9 0
v -0.4 2.9 -0.1
v -0.4 2.9 -0.3
v -0.4 3 -0.1
v -0.4 3 -0.3
v -0.3 2.9 0
v -0.3 2.9 -0.1
v -0.3 3 0
v -0.3 3 -0.1
v -0.2 2.4 0
v -0.2 2.4 -0.1
v -0.2 2.5 0.1
v -0.2 2.5 0
v -0.2 2.5 -0.1
v -0.2 2.6 0.1
v -0.2 2.6 0
v -0.2 2.9 0.1
v -0.2 2.9 0
v -0.2 3 0.1
v -0.2 3 0
v -0.1 2.4 0.1
v -0.1 2.4 0
v -0.1 2.4 -0.5
v -0.1 2.4 -0.7
v -0.1 2.5 0.1
v -0.1 2.5 0
v -0.1 2.5 -0.5
v -0.1 2.5 -0.6
v -0.1 2.9 -0.3
v -0.1 2.9 -0.6
v -0.1 3 -0.3
v -0.1 3 -0.7
v 0.1 2.4 -0.2
v 0.1 2.4 -0.3
v 0.1 2.5 -0.2
v 0.1 2.5 -0.3
v 0.1 2.6 0.1
v 0.1 2.6 0
v 0.1 2.7 0.1
v 0.1 2.7 0
v 0.2 2.4 -0.4
v 0.2 2.4 -0.6
v 0.2 2.4 -0.7
v 0.2 2.5 -0.4
v 0.2 2.5 -0.6
v 0.2 2.5 -0.7
v 0.2 2.7 -0.6
v 0.2 2.7 -0.7
v 0.2 2.8 -0.6
v 0.2 2.8 -0.7
v 0.2 2.9 -0.4
v 0.2 2.9 -0.6
v 0.2 3 -0.4
v 0.2 3 -0.7
v 0.5 2.7 0.1
v 0.5 2.7 0
v 0.5 2.9 0
v 0.5 2.9 -0.3
v 0.5 3 0.1
v 0.5 3 -0.3
v -0.5 2.7 0.1
v -0.5 2.7 0
v -0.5 2.9 0
v -0.5 2.9 -0.3
v -0.5 3 0.1
v -0.5 3 -0.3
v -0.2 2.4 -0.4
v -0.2 2.4 -0.6
v -0.2 2.4 -0.7
v -0.2 2.5 -0.4
v -0.2 2.5 -0.6
v -0.2 2.5 -0.7
v -0.2 2.7 -0.6
v -0.2 2.7 -0.7
v -0.2 2.8 -0.6
v -0.2 2.8 -0.7
v -0.2 2.9 -0.4
v -0.2 2.9 -0.6
v -0.2 3 -0.4
v -0.2 3 -0.7
v -0.1 2.4 -0.2
v -0.1 2.4 -0.3
v -0.1 2.5 -0.2
v -0.1 2.5 -0.3
v -0.1 2.6 0.1
v -0.1 2.6 0
v -0.1 2.7 0.1
v -0.1 2.7 0
v 0.1 2.4 0.1
v 0.1 2.4 0
v 0.1 2.4 -0.5
v 0.1 2.4 -0.7
v 0.1 2.5 0.1
v 0.1 2.5 0
v 0.1 2.5 -0.5
v 0.1 2.5 -0.6
v 0.1 2.9 -0.3
v 0.1 2.9 -0.6
v 0.1 3 -0.3
v 0.1 3 -0.7
v 0.2 2.4 0
v 0.2 2.4 -0.1
v 0.2 2.5 0.1
v 0.2 2.5 0
v 0.2 2.5 -0.1
v 0.2 2.6 0.1
v 0.2 2.6 0
v 0.2 2.9 0.1
v 0.2 2.9 0
v 0.2 3 0.1
v 0.2 3 0
v 0.3 2.9 0
v 0.3 2.9 -0.1
v 0.3 3 0
v 0.3 3 -0.1
v 0.4 2.5 0
v 0.4 2.5 -0.1
v 0.4 2.6 0
v 0.4 2.6 -0.1
v 0.4 2.8 0.1
v 0.4 2.8 0
v 0.4 2.9 0.1
v 0.4 2.9 0
v 0.4 2.9 -0.1
v 0.4 2.9 -0.3
v 0.4 3 -0.1
v 0.4 3 -0.3
v 0.5 2.4 -0.1
v 0.5 2.4 -0.2
v 0.5 2.5 -0.1
v 0.5 2.5 -0.2
v 0.5 2.5 -0.3
v 0.5 2.5 -0.4
v 0.5 2.7 -0.4
v 0.5 2.7 -0.6
v 0.5 2.8 -0.4
v 0.5 2.8 -0.6
v 0.5 2.9 -0.3
v 0.5 2.9 -0.4
v 0.6 2.4 -0.2
v 0.6 2.4 -0.3
v 0.6 2.4 -0.4
v 0.6 2.4 -0.7
v 0.6 2.5 -0.1
v 0.6 2.5 -0.2
v 0.6 2.5 -0.3
v 0.6 2.5 -0.4
v 0.6 2.5 -0.6
v 0.6 2.6 0.1
v 0.6 2.6 -0.1
v 0.6 2.7 -0.4
v 0.6 2.7 -0.6
v 0.6 2.7 -0.7
v 0.6 2.8 -0.4
v 0.6 2.8 -0.6
v 0.6 2.8 -0.7
v 0.6 3 0.1
v 0.6 3 -0.3
v 0.6 3 -0.4
v 0.6 3 -0.6
v 0.6 3 -0.7
v -0.6 2.6 0.1
v -0.6 3 0.1
v -0.5 2.7 0.1
v -0.5 3 0.1
v -0.4 2.8 0.1
v -0.4 2.9 0.1
v -0.2 2.5 0.1
v -0.2 2.6 0.1
v -0.2 2.9 0.1
v -0.2 3 0.1
v -0.1 2.4 0.1
v -0.1 2.5 0.1
v -0.1 2.6 0.1
v -0.1 2.7 0.1
v -0.1 2.8 0.1
v -0.1 3 0.1
v 0.1 2.4 0.1
v 0.1 2.5 0.1
v 0.1 2.6 0.1
v 0.1 2.7 0.1
v 0.1 2.8 0.1
v 0.1 3 0.1
v 0.2 2.5 0.1
v 0.2 2.6 0.1
v 0.2 2.9 0.1
v 0.2 3 0.1
v 0.4 2.8 0.1
v 0.4 2.9 0.1
v 0.5 2.7 0.1
v 0.5 3 0.1
v 0.6 2.6 0.1
v 0.6 3 0.1
v -0.5 2.7 0
v -0.5 2.9 0
v -0.4 2.5 0
v -0.4 2.6 0
v -0.4 2.8 0
v -0.4 2.9 0
v -0.3 2.9 0
v -0.3 3 0
v -0.2 2.4 0
v -0.2 2.5 0
v -0.2 2.6 0
v -0.2 2.9 0
v -0.2 3 0
v -0.1 2.4 0
v -0.1 2.5 0
v -0.1 2.6 0
v -0.1 2.7 0
v -0.1 2.8 0
v 0.1 2.4 0
v 0.1 2.5 0
v 0.1 2.6 0
v 0.1 2.7 0
v 0.1 2.8 0
v 0.2 2.4 0
v 0.2 2.5 0
v 0.2 2.6 0
v 0.2 2.9 0
v 0.2 3 0
v 0.3 2.9 0
v 0.3 3 0
v 0.4 2.5 0
v 0.4 2.6 0
v 0.4 2.8 0
v 0.4 2.9 0
v 0.5 2.7 0
v 0.5 2.9 0
v -0.6 2.5 -0.1
v -0.6 2.6 -0.1
v -0.5 2.4 -0.1
v -0.5 2.5 -0.1
v -0.4 2.5 -0.1
v -0.4 2.6 -0.1
v -0.4 2.9 -0.1
v -0.4 3 -0.1
v -0.3 2.4 -0.1
v -0.3 2.5 -0.1
v -0.3 2.9 -0.1
v -0.3 3 -0.1
v -0.2 2.4 -0.1
v -0.2 2.5 -0.1
v 0.2 2.4 -0.1
v 0.2 2.5 -0.1
v 0.3 2.4 -0.1
v 0.3 2.5 -0.1
v 0.3 2.9 -0.1
v 0.3 3 -0.1
v 0.4 2.5 -0.1
v 0.4 2.6 -0.1
v 0.4 2.9 -0.1
v 0.4 3 -0.1
v 0.5 2.4 -0.1
v 0.5 2.5 -0.1
v 0.6 2.5 -0.1
v 0.6 2.6 -0.1
v -0.6 2.4 -0.2
v -0.6 2.5 -0.2
v -0.5 2.4 -0.2
v -0.5 2.5 -0.2
v 0.5 2.4 -0.2
v 0.5 2.5 -0.2
v 0.6 2.4 -0.2
v 0.6 2.5 -0.2
v -0.6 2.4 -0.4
v -0.6 2.5 -0.4
v -0.6 2.7 -0.4
v -0.6 2.8 -0.4
v -0.6 3 -0.4
v -0.5 2.4 -0.4
v -0.5 2.5 -0.4
v -0.5 2.7 -0.4
v -0.5 2.8 -0.4
v -0.5 2.9 -0.4
v -0.2 2.4 -0.4
v -0.2 2.5 -0.4
v -0.2 2.9 -0.4
v -0.2 3 -0.4
v 0.2 2.4 -0.4
v 0.2 2.5 -0.4
v 0.2 2.9 -0.4
v 0.2 3 -0.4
v 0.5 2.4 -0.4
v 0.5 2.5 -0.4
v 0.5 2.7 -0.4
v 0.5 2.8 -0.4
v 0.5 2.9 -0.4
v 0.6 2.4 -0.4
v 0.6 2.5 -0.4
v 0.6 2.7 -0.4
v 0.6 2.8 -0.4
v 0.6 3 -0.4
v -0.1 2.4 -0.5
v -0.1 2.5 -0.5
v 0.1 2.4 -0.5
v 0.1 2.5 -0.5
v -0.1 2.4 -0.2
v -0.1 2.5 -0.2
v 0.1 2.4 -0.2
v 0.1 2.5 -0.2
v -0.6 2.4 -0.3
v -0.6 2.5 -0.3
v -0.6 3 -0.3
v -0.5 2.4 -0.3
v -0.5 2.5 -0.3
v -0.5 2.9 -0.3
v -0.5 3 -0.3
v -0.4 2.9 -0.3
v -0.4 3 -0.3
v -0.1 2.4 -0.3
v -0.1 2.5 -0.3
v -0.1 2.9 -0.3
v -0.1 3 -0.3
v 0.1 2.4 -0.3
v 0.1 2.5 -0.3
v 0.1 2.9 -0.3
v 0.1 3 -0.3
v 0.4 2.9 -0.3
v 0.4 3 -0.3
v 0.5 2.4 -0.3
v 0.5 2.5 -0.3
v 0.5 2.9 -0.3
v 0.5 3 -0.3
v 0.6 2.4 -0.3
v 0.6 2.5 -0.3
v 0.6 3 -0.3
v -0.5 2.7 -0.6
v -0.5 2.8 -0.6
v -0.2 2.5 -0.6
v -0.2 2.7 -0.6
v -0.2 2.8 -0.6
v -0.2 2.9 -0.6
v -0.1 2.5 -0.6
v -0.1 2.9 -0.6
v 0.1 2.5 -0.6
v 0.1 2.9 -0.6
v 0.2 2.5 -0.6
v 0.2 2.7 -0.6
v 0.2 2.8 -0.6
v 0.2 2.9 -0.6
v 0.5 2.7 -0.6
v 0.5 2.8 -0.6
v -0.6 2.4 -0.7
v -0.6 2.7 -0.7
v -0.6 2.8 -0.7
v -0.6 3 -0.7
v -0.5 2.5 -0.7
v -0.5 2.7 -0.7
v -0.5 2.8 -0.7
v -0.5 3 -0.7
v -0.2 2.4 -0.7
v -0.2 2.5 -0.7
v -0.2 2.7 -0.7
v -0.2 2.8 -0.7
v -0.2 3 -0.7
v -0.1 2.4 -0.7
v -0.1 3 -0.7
v 0.1 2.4 -0.7
v 0.1 3 -0.7
v 0.2 2.4 -0.7
v 0.2 2.5 -0.7
v 0.2 2.7 -0.7
v 0.2 2.8 -0.7
v 0.2 3 -0.7
v 0.5 2.5 -0.7
v 0.5 2.7 -0.7
v 0.5 2.8 -0.7
v 0.5 3 -0.7
v 0.6 2.4 -0.7
v 0.6 2.7 -0.7
v 0.6 2.8 -0.7
v 0.6 3 -0.7
v -0.1 2.4 0.1
v 0.1 2.4 0.1
v -0.2 2.4 0
v -0.1 2.4 0
v 0.1 2.4 0
v 0.2 2.4 0
v -0.5 2.4 -0.1
v -0.3 2.4 -0.1
v -0.2 2.4 -0.1
v 0.2 2.4 -0.1
v 0.3 2.4 -0.1
v 0.5 2.4 -0.1
v -0.6 2.4 -0.2
v -0.5 2.4 -0.2
v -0.3 2.4 -0.2
v -0.1 2.4 -0.2
v 0.1 2.4 -0.2
v 0.3 2.4 -0.2
v 0.5 2.4 -0.2
v 0.6 2.4 -0.2
v -0.6 2.4 -0.3
v -0.5 2.4 -0.3
v -0.1 2.4 -0.3
v 0.1 2.4 -0.3
v 0.5 2.4 -0.3
v 0.6 2.4 -0.3
v -0.6 2.4 -0.4
v -0.5 2.4 -0.4
v -0.2 2.4 -0.4
v 0.2 2.4 -0.4
v 0.5 2.4 -0.4
v 0.6 2.4 -0.4
v -0.1 2.4 -0.5
v 0.1 2.4 -0.5
v -0.5 2.4 -0.6
v -0.2 2.4 -0.6
v 0.2 2.4 -0.6
v 0.5 2.4 -0.6
v -0.6 2.4 -0.7
v -0.2 2.4 -0.7
v -0.1 2.4 -0.7
v 0.1 2.4 -0.7
v 0.2 2.4 -0.7
v 0.6 2.4 -0.7
v -0.2 2.5 0.1
v -0.1 2.5 0.1
v 0.1 2.5 0.1
v 0.2 2.5 0.1
v -0.4 2.5 0
v -0.2 2.5 0
v -0.1 2.5 0
v 0.1 2.5 0
v 0.2 2.5 0
v 0.4 2.5 0
v -0.6 2.5 -0.1
v -0.5 2.5 -0.1
v -0.4 2.5 -0.1
v -0.3 2.5 -0.1
v -0.2 2.5 -0.1
v 0.2 2.5 -0.1
v 0.3 2.5 -0.1
v 0.4 2.5 -0.1
v 0.5 2.5 -0.1
v 0.6 2.5 -0.1
v -0.6 2.5 -0.2
v -0.5 2.5 -0.2
v -0.1 2.5 -0.2
v 0.1 2.5 -0.2
v 0.5 2.5 -0.2
v 0.6 2.5 -0.2
v -0.5 2.5 -0.3
v -0.1 2.5 -0.3
v 0.1 2.5 -0.3
v 0.5 2.5 -0.3
v -0.5 2.5 -0.4
v -0.2 2.5 -0.4
v 0.2 2.5 -0.4
v 0.5 2.5 -0.4
v -0.1 2.5 -0.5
v 0.1 2.5 -0.5
v -0.2 2.5 -0.6
v -0.1 2.5 -0.6
v 0.1 2.5 -0.6
v 0.2 2.5 -0.6
v -0.6 2.6 0.1
v -0.2 2.6 0.1
v 0.2 2.6 0.1
v 0.6 2.6 0.1
v -0.4 2.6 0
v -0.2 2.6 0
v 0.2 2.6 0
v 0.4 2.6 0
v -0.6 2.6 -0.1
v -0.4 2.6 -0.1
v 0.4 2.6 -0.1
v 0.6 2.6 -0.1
v -0.4 2.8 0.1
v -0.1 2.8 0.1
v 0.1 2.8 0.1
v 0.4 2.8 0.1
v -0.4 2.8 0
v -0.1 2.8 0
v 0.1 2.8 0
v 0.4 2.8 0
v -0.6 2.8 -0.4
v -0.5 2.8 -0.4
v 0.5 2.8 -0.4
v 0.6 2.8 -0.4
v -0.6 2.8 -0.6
v -0.5 2.8 -0.6
v -0.2 2.8 -0.6
v 0.2 2.8 -0.6
v 0.5 2.8 -0.6
v 0.6 2.8 -0.6
v -0.6 2.8 -0.7
v -0.5 2.8 -0.7
v -0.2 2.8 -0.7
v 0.2 2.8 -0.7
v 0.5 2.8 -0.7
v 0.6 2.8 -0.7
v -0.1 2.6 0.1
v 0.1 2.6 0.1
v -0.1 2.6 0
v 0.1 2.6 0
v -0.5 2.7 0.1
v -0.1 2.7 0.1
v 0.1 2.7 0.1
v 0.5 2.7 0.1
v -0.5 2.7 0
v -0.1 2.7 0
v 0.1 2.7 0
v 0.5 2.7 0
v -0.6 2.7 -0.4
v -0.5 2.7 -0.4
v 0.5 2.7 -0.4
v 0.6 2.7 -0.4
v -0.6 2.7 -0.6
v -0.5 2.7 -0.6
v -0.2 2.7 -0.6
v 0.2 2.7 -0.6
v 0.5 2.7 -0.6
v 0.6 2.7 -0.6
v -0.6 2.7 -0.7
v -0.5 2.7 -0.7
v -0.2 2.7 -0.7
v 0.2 2.7 -0.7
v 0.5 2.7 -0.7
v 0.6 2.7 -0.7
v -0.4 2.9 0.1
v -0.2 2.9 0.1
v 0.2 2.9 0.1
v 0.4 2.9 0.1
v -0.5 2.9 0
v -0.4 2.9 0
v -0.3 2.9 0
v -0.2 2.9 0
v 0.2 2.9 0
v 0.3 2.9 0
v 0.4 2.9 0
v 0.5 2.9 0
v -0.4 2.9 -0.1
v -0.3 2.9 -0.1
v 0.3 2.9 -0.1
v 0.4 2.9 -0.1
v -0.5 2.9 -0.3
v -0.4 2.9 -0.3
v -0.1 2.9 -0.3
v 0.1 2.9 -0.3
v 0.4 2.9 -0.3
v 0.5 2.9 -0.3
v -0.5 2.9 -0.4
v -0.2 2.9 -0.4
v 0.2 2.9 -0.4
v 0.5 2.9 -0.4
v -0.2 2.9 -0.6
v -0.1 2.9 -0.6
v 0.1 2.9 -0.6
v 0.2 2.9 -0.6
v -0.6 3 0.1
v -0.5 3 0.1
v -0.2 3 0.1
v -0.1 3 0.1
v 0.1 3 0.1
v 0.2 3 0.1
v 0.5 3 0.1
v 0.6 3 0.1
v -0.3 3 0
v -0.2 3 0
v 0.2 3 0
v 0.3 3 0
v -0.4 3 -0.1
v -0.3 3 -0.1
v 0.3 3 -0.1
v 0.4 3 -0.1
v -0.6 3 -0.3
v -0.5 3 -0.3
v -0.4 3 -0.3
v -0.1 3 -0.3
v 0.1 3 -0.3
v 0.4 3 -0.3
v 0.5 3 -0.3
v 0.6 3 -0.3
v -0.6 3 -0.4
v -0.2 3 -0.4
v 0.2 3 -0.4
v 0.6 3 -0.4
v -0.6 3 -0.6
v -0.5 3 -0.6
v 0.5 3 -0.6
v 0.6 3 -0.6
v -0.6 3 -0.7
v -0.5 3 -0.7
v -0.2 3 -0.7
v -0.1 3 -0.7
v 0.1 3 -0.7
v 0.2 3 -0.7
v 0.5 3 -0.7
v 0.6 3 -0.7

# faces
f 6/1/1 2/1/1 1/1/1
f 7/1/1 2/1/1 6/1/1
f 8/1/1 4/1/1 3/1/1
f 9/1/1 4/1/1 8/1/1
f 11/3/1 7/3/1 6/3/1
f 11/3/1 6/3/1 5/3/1
f 12/3/1 9/3/1 8/3/1
f 13/1/1 4/1/1 9/1/1
f 13/3/1 9/3/1 12/3/1
f 14/1/1 4/1/1 13/1/1
f 18/3/1 11/3/1 10/3/1
f 19/3/1 7/3/1 11/3/1
f 19/3/1 11/3/1 18/3/1
f 20/3/1 16/3/1 15/3/1
f 21/1/1 17/1/1 16/1/1
f 21/3/1 16/3/1 20/3/1
f 22/1/1 17/1/1 21/1/1
f 25/1/1 24/1/1 23/1/1
f 26/1/1 24/1/1 25/1/1
f 29/2/1 28/2/1 27/2/1
f 31/2/1 29/2/1 27/2/1
f 31/2/1 30/2/1 29/2/1
f 32/2/1 30/2/1 31/2/1
f 33/2/1 31/2/1 27/2/1
f 34/2/1 31/2/1 33/2/1
f 37/1/1 36/1/1 35/1/1
f 38/1/1 36/1/1 37/1/1
f 41/3/1 40/3/1 39/3/1
f 42/3/1 40/3/1 41/3/1
f 45/3/1 44/3/1 43/3/1
f 46/3/1 44/3/1 45/3/1
f 49/3/1 48/3/1 47/3/1
f 50/3/1 48/3/1 49/3/1
f 54/3/1 52/3/1 51/3/1
f 55/3/1 52/3/1 54/3/1
f 56/1/1 54/1/1 53/1/1
f 57/1/1 54/1/1 56/1/1
f 60/3/1 59/3/1 58/3/1
f 61/3/1 59/3/1 60/3/1
f 66/1/1 63/1/1 62/1/1
f 67/1/1 63/1/1 66/1/1
f 68/1/1 65/1/1 64/1/1
f 69/1/1 65/1/1 68/1/1
f 71/1/1 65/1/1 69/1/1
f 72/1/1 71/1/1 70/1/1
f 73/1/1 65/1/1 71/1/1
f 73/1/1 71/1/1 72/1/1
f 76/3/1 75/3/1 74/3/1
f 77/3/1 75/3/1 76/3/1
f 80/3/1 79/3/1 78/3/1
f 81/3/1 79/3/1 80/3/1
f 85/3/1 83/3/1 82/3/1
f 86/1/1 84/1/1 83/1/1
f 86/3/1 83/3/1 85/3/1
f 87/1/1 84/1/1 86/1/1
f 88/3/1 87/3/1 86/3/1
f 89/3/1 87/3/1 88/3/1
f 93/3/1 91/3/1 90/3/1
f 94/3/1 93/3/1 92/3/1
f 95/3/1 91/3/1 93/3/1
f 95/3/1 93/3/1 94/3/1
f 98/3/1 97/3/1 96/3/1
f 100/3/1 98/3/1 96/3/1
f 100/3/1 99/3/1 98/3/1
f 101/3/1 99/3/1 100/3/1
f 102/3/2 103/3/2 104/3/2
f 102/3/2 104/3/2 106/3/2
f 104/3/2 105/3/2 106/3/2
f 106/3/2 105/3/2 107/3/2
f 108/3/2 109/3/2 111/3/2
f 109/1/2 110/1/2 112/1/2
f 111/3/2 109/3/2 112/3/2
f 112/1/2 110/1/2 113/1/2
f 112/3/2 113/3/2 114/3/2
f 114/3/2 113/3/2 115/3/2
f 116/3/2 117/3/2 119/3/2
f 118/3/2 119/3/2 120/3/2
f 119/3/2 117/3/2 121/3/2
f 120/3/2 119/3/2 121/3/2
f 122/3/2 123/3/2 124/3/2
f 124/3/2 123/3/2 125/3/2
f 126/3/2 127/3/2 128/3/2
f 128/3/2 127/3/2 129/3/2
f 130/1/2 131/1/2 134/1/2
f 134/1/2 131/1/2 135/1/2
f 132/1/2 133/1/2 136/1/2
f 136/1/2 133/1/2 137/1/2
f 137/1/2 133/1/2 139/1/2
f 138/1/2 139/1/2 140/1/2
f 139/1/2 133/1/2 141/1/2
f 140/1/2 139/1/2 141/1/2
f 142/3/2 143/3/2 145/3/2
f 145/3/2 143/3/2 146/3/2
f 144/1/2 145/1/2 147/1/2
f 147/1/2 145/1/2 148/1/2
f 149/3/2 150/3/2 151/3/2
f 151/3/2 150/3/2 152/3/2
f 153/3/2 154/3/2 155/3/2
f 155/3/2 154/3/2 156/3/2
f 157/1/2 158/1/2 159/1/2
f 159/1/2 158/1/2 160/1/2
f 161/3/2 162/3/2 163/3/2
f 163/3/2 162/3/2 164/3/2
f 165/3/2 166/3/2 167/3/2
f 167/3/2 166/3/2 168/3/2
f 169/1/2 170/1/2 171/1/2
f 171/1/2 170/1/2 172/1/2
f 173/2/2 174/2/2 175/2/2
f 173/2/2 175/2/2 177/2/2
f 175/2/2 176/2/2 177/2/2
f 177/2/2 176/2/2 178/2/2
f 173/2/2 177/2/2 179/2/2
f 179/2/2 177/2/2 180/2/2
f 181/1/2 182/1/2 186/1/2
f 186/1/2 182/1/2 187/1/2
f 183/1/2 184/1/2 188/1/2
f 188/1/2 184/1/2 189/1/2
f 186/3/2 187/3/2 191/3/2
f 185/3/2 186/3/2 191/3/2
f 188/3/2 189/3/2 192/3/2
f 189/1/2 184/1/2 193/1/2
f 192/3/2 189/3/2 193/3/2
f 193/1/2 184/1/2 194/1/2
f 190/3/2 191/3/2 198/3/2
f 191/3/2 187/3/2 199/3/2
f 198/3/2 191/3/2 199/3/2
f 195/3/2 196/3/2 200/3/2
f 196/1/2 197/1/2 201/1/2
f 200/3/2 196/3/2 201/3/2
f 201/1/2 197/1/2 202/1/2
f 205/3/3 204/3/3 203/3/3
f 206/3/3 204/3/3 205/3/3
f 210/3/3 205/3/3 203/3/3
f 211/3/3 208/3/3 207/3/3
f 214/1/3 210/1/3 209/1/3
f 215/3/3 205/3/3 210/3/3
f 215/1/3 210/1/3 214/1/3
f 216/3/3 205/3/3 215/3/3
f 217/3/3 212/3/3 211/3/3
f 217/3/3 211/3/3 207/3/3
f 218/3/3 212/3/3 217/3/3
f 219/1/3 214/1/3 213/1/3
f 219/1/3 215/1/3 214/1/3
f 220/1/3 215/1/3 219/1/3
f 221/1/3 215/1/3 220/1/3
f 223/1/3 218/1/3 217/1/3
f 224/1/3 218/1/3 223/1/3
f 225/1/3 221/1/3 220/1/3
f 226/3/3 222/3/3 221/3/3
f 226/1/3 221/1/3 225/1/3
f 227/3/3 224/3/3 223/3/3
f 228/3/3 224/3/3 227/3/3
f 229/3/3 227/3/3 223/3/3
f 230/3/3 227/3/3 229/3/3
f 231/3/3 222/3/3 226/3/3
f 233/3/3 231/3/3 226/3/3
f 233/3/3 232/3/3 231/3/3
f 234/3/3 232/3/3 233/3/3
f 239/2/3 236/2/3 235/2/3
f 240/2/3 236/2/3 239/2/3
f 244/1/3 238/1/3 237/1/3
f 245/1/3 238/1/3 244/1/3
f 246/3/3 242/3/3 241/3/3
f 247/3/3 242/3/3 246/3/3
f 248/3/3 244/3/3 243/3/3
f 249/3/3 244/3/3 248/3/3
f 251/2/3 239/2/3 235/2/3
f 252/2/3 239/2/3 251/2/3
f 255/2/3 251/2/3 250/2/3
f 255/2/3 252/2/3 251/2/3
f 256/2/3 252/2/3 255/2/3
f 257/2/3 252/2/3 256/2/3
f 258/3/3 254/3/3 253/3/3
f 259/3/3 254/3/3 258/3/3
f 263/3/3 262/3/3 261/3/3
f 264/3/3 262/3/3 263/3/3
f 265/1/3 260/1/3 259/1/3
f 266/1/3 260/1/3 265/1/3
f 267/2/3 257/2/3 256/2/3
f 269/2/3 268/2/3 267/2/3
f 269/2/3 267/2/3 256/2/3
f 270/2/3 268/2/3 269/2/3
f 274/3/3 272/3/3 271/3/3
f 275/3/3 272/3/3 274/3/3
f 275/1/3 274/1/3 273/1/3
f 276/3/3 272/3/3 275/3/3
f 279/1/3 275/1/3 273/1/3
f 280/1/3 275/1/3 279/1/3
f 281/3/3 278/3/3 277/3/3
f 282/3/3 278/3/3 281/3/3
f 283/3/3 280/3/3 279/3/3
f 284/3/3 280/3/3 283/3/3
f 287/3/3 286/3/3 285/3/3
f 288/3/3 286/3/3 287/3/3
f 291/1/3 288/1/3 287/1/3
f 293/3/3 290/3/3 289/3/3
f 294/3/3 290/3/3 293/3/3
f 295/1/3 291/1/3 287/1/3
f 296/3/3 292/3/3 291/3/3
f 296/1/3 291/1/3 295/1/3
f 297/3/3 292/3/3 296/3/3
f 298/3/3 292/3/3 297/3/3
f 301/1/3 300/1/3 299/1/3
f 302/1/3 300/1/3 301/1/3
f 305/1/3 304/1/3 303/1/3
f 306/1/3 304/1/3 305/1/3
f 312/1/3 308/1/3 307/1/3
f 313/3/3 309/3/3 308/3/3
f 313/1/3 308/1/3 312/1/3
f 314/3/3 309/3/3 313/3/3
f 315/3/3 311/3/3 310/3/3
f 316/3/3 311/3/3 315/3/3
f 317/3/3 313/3/3 312/3/3
f 318/3/3 313/3/3 317/3/3
f 319/3/3 311/3/3 316/3/3
f 320/3/3 311/3/3 319/3/3
f 325/3/3 322/3/3 321/3/3
f 326/3/3 322/3/3 325/3/3
f 329/3/3 324/3/3 323/3/3
f 330/1/3 326/1/3 325/1/3
f 331/3/3 327/3/3 326/3/3
f 331/1/3 326/1/3 330/1/3
f 332/3/3 327/3/3 331/3/3
f 333/3/3 329/3/3 328/3/3
f 334/3/3 324/3/3 329/3/3
f 334/3/3 329/3/3 333/3/3
f 337/1/3 336/1/3 335/1/3
f 338/1/3 336/1/3 337/1/3
f 339/1/4 340/1/4 341/1/4
f 341/1/4 340/1/4 342/1/4
f 343/1/4 344/1/4 346/1/4
f 344/3/4 345/3/4 347/3/4
f 346/1/4 344/1/4 347/1/4
f 347/3/4 345/3/4 348/3/4
f 348/3/4 345/3/4 349/3/4
f 346/3/4 347/3/4 352/3/4
f 352/3/4 347/3/4 353/3/4
f 350/3/4 351/3/4 354/3/4
f 354/3/4 351/3/4 355/3/4
f 358/3/4 359/3/4 360/3/4
f 360/3/4 359/3/4 361/3/4
f 356/3/4 357/3/4 362/3/4
f 362/3/4 357/3/4 363/3/4
f 362/1/4 363/1/4 366/1/4
f 364/3/4 365/3/4 367/3/4
f 366/1/4 363/1/4 367/1/4
f 363/3/4 364/3/4 367/3/4
f 367/3/4 365/3/4 368/3/4
f 369/2/4 370/2/4 372/2/4
f 372/2/4 370/2/4 373/2/4
f 371/2/4 372/2/4 375/2/4
f 373/2/4 374/2/4 375/2/4
f 372/2/4 373/2/4 375/2/4
f 375/2/4 374/2/4 376/2/4
f 377/2/4 378/2/4 379/2/4
f 379/2/4 378/2/4 380/2/4
f 380/2/4 378/2/4 381/2/4
f 381/2/4 378/2/4 382/2/4
f 380/2/4 381/2/4 383/2/4
f 383/2/4 381/2/4 384/2/4
f 385/1/4 386/1/4 389/1/4
f 389/1/4 386/1/4 390/1/4
f 387/1/4 388/1/4 391/1/4
f 391/1/4 388/1/4 392/1/4
f 385/1/4 389/1/4 393/1/4
f 389/3/4 390/3/4 394/3/4
f 393/1/4 389/1/4 394/1/4
f 394/3/4 390/3/4 395/3/4
f 391/3/4 392/3/4 396/3/4
f 396/3/4 392/3/4 397/3/4
f 398/1/4 399/1/4 400/1/4
f 400/1/4 399/1/4 401/1/4
f 402/1/4 403/1/4 407/1/4
f 403/3/4 404/3/4 407/3/4
f 407/3/4 404/3/4 408/3/4
f 405/3/4 406/3/4 409/3/4
f 409/3/4 406/3/4 410/3/4
f 407/1/4 408/1/4 411/1/4
f 402/1/4 407/1/4 411/1/4
f 411/1/4 408/1/4 412/1/4
f 409/1/4 410/1/4 413/1/4
f 413/1/4 410/1/4 414/1/4
f 418/1/5 416/1/5 415/1/5
f 419/1/5 416/1/5 418/1/5
f 423/3/5 418/3/5 417/3/5
f 424/3/5 420/3/5 419/3/5
f 428/1/5 422/1/5 421/1/5
f 429/3/5 423/3/5 422/3/5
f 429/1/5 422/1/5 428/1/5
f 430/1/5 419/1/5 418/1/5
f 430/3/5 423/3/5 429/3/5
f 430/3/5 418/3/5 423/3/5
f 431/3/5 424/3/5 419/3/5
f 431/1/5 419/1/5 430/1/5
f 431/3/5 425/3/5 424/3/5
f 432/1/5 426/1/5 425/1/5
f 432/3/5 425/3/5 431/3/5
f 433/1/5 426/1/5 432/1/5
f 435/1/5 428/1/5 427/1/5
f 436/3/5 429/3/5 428/3/5
f 436/1/5 428/1/5 435/1/5
f 436/3/5 430/3/5 429/3/5
f 437/3/5 430/3/5 436/3/5
f 438/3/5 433/3/5 432/3/5
f 438/3/5 432/3/5 431/3/5
f 439/1/5 434/1/5 433/1/5
f 439/3/5 433/3/5 438/3/5
f 440/1/5 434/1/5 439/1/5
f 449/1/5 442/1/5 441/1/5
f 449/3/5 443/3/5 442/3/5
f 450/3/5 443/3/5 449/3/5
f 451/3/5 445/3/5 444/3/5
f 452/1/5 446/1/5 445/1/5
f 452/3/5 445/3/5 451/3/5
f 453/1/5 450/1/5 449/1/5
f 453/1/5 449/1/5 441/1/5
f 454/1/5 450/1/5 453/1/5
f 455/1/5 448/1/5 447/1/5
f 456/1/5 448/1/5 455/1/5
f 457/1/5 452/1/5 451/1/5
f 458/1/5 446/1/5 452/1/5
f 458/1/5 452/1/5 457/1/5
f 464/1/5 460/1/5 459/1/5
f 465/1/5 460/1/5 464/1/5
f 466/1/5 462/1/5 461/1/5
f 467/1/5 462/1/5 466/1/5
f 471/1/5 464/1/5 463/1/5
f 472/1/5 464/1/5 471/1/5
f 473/1/5 464/1/5 472/1/5
f 474/1/5 468/1/5 467/1/5
f 475/1/5 468/1/5 474/1/5
f 476/1/5 468/1/5 475/1/5
f 479/3/5 470/3/5 469/3/5
f 480/3/5 470/3/5 479/3/5
f 483/3/5 478/3/5 477/3/5
f 484/3/5 478/3/5 483/3/5
f 486/2/5 482/2/5 481/2/5
f 487/2/5 482/2/5 486/2/5
f 489/2/5 486/2/5 485/2/5
f 489/2/5 488/2/5 487/2/5
f 489/2/5 487/2/5 486/2/5
f 490/2/5 488/2/5 489/2/5
f 491/2/5 488/2/5 490/2/5
f 492/2/5 488/2/5 491/2/5
f 493/2/5 491/2/5 490/2/5
f 494/2/5 491/2/5 493/2/5
f 495/2/5 493/2/5 490/2/5
f 496/2/5 493/2/5 495/2/5
f 497/2/5 491/2/5 494/2/5
f 498/2/5 491/2/5 497/2/5
f 503/3/5 500/3/5 499/3/5
f 504/3/5 500/3/5 503/3/5
f 505/3/5 502/3/5 501/3/5
f 506/3/5 502/3/5 505/3/5
f 507/3/5 503/3/5 499/3/5
f 508/3/5 503/3/5 507/3/5
f 509/3/5 502/3/5 506/3/5
f 510/3/5 502/3/5 509/3/5
f 515/3/5 512/3/5 511/3/5
f 516/1/5 513/1/5 512/1/5
f 516/3/5 512/3/5 515/3/5
f 517/3/5 514/3/5 513/3/5
f 517/1/5 513/1/5 516/1/5
f 518/3/5 514/3/5 517/3/5
f 523/3/5 520/3/5 519/3/5
f 524/3/5 520/3/5 523/3/5
f 527/3/5 522/3/5 521/3/5
f 528/3/5 522/3/5 527/3/5
f 529/1/5 524/1/5 523/1/5
f 530/3/5 525/3/5 524/3/5
f 530/1/5 524/1/5 529/1/5
f 531/3/5 525/3/5 530/3/5
f 532/3/5 527/3/5 526/3/5
f 533/1/5 528/1/5 527/1/5
f 533/3/5 527/3/5 532/3/5
f 534/1/5 528/1/5 533/1/5
f 535/1/6 536/1/6 537/1/6
f 537/1/6 536/1/6 538/1/6
f 539/3/6 540/3/6 543/3/6
f 543/3/6 540/3/6 544/3/6
f 541/3/6 542/3/6 545/3/6
f 545/3/6 542/3/6 546/3/6
f 547/3/6 548/3/6 551/3/6
f 551/3/6 548/3/6 552/3/6
f 549/3/6 550/3/6 555/3/6
f 555/3/6 550/3/6 556/3/6
f 551/1/6 552/1/6 557/1/6
f 552/3/6 553/3/6 558/3/6
f 557/1/6 552/1/6 558/1/6
f 558/3/6 553/3/6 559/3/6
f 554/3/6 555/3/6 560/3/6
f 555/1/6 556/1/6 561/1/6
f 560/3/6 555/3/6 561/3/6
f 561/1/6 556/1/6 562/1/6
f 563/3/6 564/3/6 568/3/6
f 568/3/6 564/3/6 569/3/6
f 569/3/6 564/3/6 570/3/6
f 565/3/6 566/3/6 571/3/6
f 571/3/6 566/3/6 572/3/6
f 572/3/6 566/3/6 573/3/6
f 567/2/6 568/2/6 575/2/6
f 568/3/6 569/3/6 575/3/6
f 575/3/6 569/3/6 576/3/6
f 572/3/6 573/3/6 577/3/6
f 573/2/6 574/2/6 578/2/6
f 577/3/6 573/3/6 578/3/6
f 567/2/6 575/2/6 579/2/6
f 579/2/6 575/2/6 580/2/6
f 578/2/6 574/2/6 583/2/6
f 583/2/6 574/2/6 584/2/6
f 580/2/6 581/2/6 585/2/6
f 579/2/6 580/2/6 585/2/6
f 585/2/6 581/2/6 586/2/6
f 583/2/6 584/2/6 587/2/6
f 582/2/6 583/2/6 587/2/6
f 587/2/6 584/2/6 588/2/6
f 586/2/6 581/2/6 589/2/6
f 589/2/6 581/2/6 590/2/6
f 582/2/6 587/2/6 591/2/6
f 591/2/6 587/2/6 592/2/6
f 595/3/6 596/3/6 602/3/6
f 597/3/6 598/3/6 603/3/6
f 601/3/6 602/3/6 606/3/6
f 603/3/6 604/3/6 607/3/6
f 593/3/6 594/3/6 609/3/6
f 609/3/6 594/3/6 610/3/6
f 605/3/6 606/3/6 611/3/6
f 596/1/6 597/1/6 612/1/6
f 611/3/6 606/3/6 612/3/6
f 602/3/6 596/3/6 612/3/6
f 606/3/6 602/3/6 612/3/6
f 607/3/6 608/3/6 613/3/6
f 612/1/6 597/1/6 613/1/6
f 597/3/6 603/3/6 613/3/6
f 603/3/6 607/3/6 613/3/6
f 613/3/6 608/3/6 614/3/6
f 599/3/6 600/3/6 615/3/6
f 615/3/6 600/3/6 616/3/6
f 617/3/6 618/3/6 621/3/6
f 621/3/6 618/3/6 622/3/6
f 619/3/6 620/3/6 623/3/6
f 623/3/6 620/3/6 624/3/6
f 621/1/6 622/1/6 625/1/6
f 622/3/6 618/3/6 626/3/6
f 625/1/6 622/1/6 626/1/6
f 626/3/6 618/3/6 627/3/6
f 612/1/6 613/1/6 628/1/6
f 628/1/6 613/1/6 629/1/6
f 619/3/6 623/3/6 630/3/6
f 623/1/6 624/1/6 631/1/6
f 630/3/6 623/3/6 631/3/6
f 631/1/6 624/1/6 632/1/6
