# MagicaVoxel @ Ephtracy

# group
o 

# material
mtllib MediumMedicalKit_LOD0.mtl
usemtl palette

# normals
vn 1 0 0
vn -1 0 0
vn 0 0 -1
vn 0 0 1
vn 0 -1 0
vn 0 1 0

# texcoords
vt 0.974609 0.5
vt 0.978516 0.5
vt 0.982422 0.5

# verts
v 0.4 -0.4 -0.4
v 0.4 -0.4 -0.3
v 0.4 -0.4 -0.2
v 0.4 -0.4 0.4
v 0.4 -0.3 -0.4
v 0.4 -0.3 -0.3
v 0.4 -0.3 -0.2
v 0.4 -0.3 0.4
v 0.4 -0.2 -0.4
v 0.4 -0.2 -0.3
v 0.4 -0.2 -0.2
v 0.4 -0.2 0.3
v 0.4 -0.2 0.4
v 0.4 -0.1 -0.2
v 0.4 -0.1 0.3
v 0.4 0 -0.4
v 0.4 0 -0.3
v 0.4 0 -0.2
v 0.3 -0.1 -0.2
v 0.3 -0.1 0.1
v 0.3 0 -0.2
v 0.3 0 0.1
v 0.2 -0.1 0.1
v 0.2 -0.1 0.3
v 0.2 0 0.1
v 0.2 0 0.3
v -0.1 -0.4 -0.4
v -0.1 -0.4 -0.3
v -0.1 -0.3 -0.3
v -0.1 -0.2 -0.3
v -0.1 -0.1 -0.4
v -0.1 -0.1 -0.3
v -0.1 -0.1 0.2
v -0.1 -0.1 0.3
v -0.1 0 -0.4
v -0.1 0 -0.3
v -0.1 0 0.2
v -0.1 0 0.3
v 0.1 -0.4 -0.4
v 0.1 -0.4 -0.3
v 0.1 -0.3 -0.3
v 0.1 -0.2 -0.3
v 0.1 -0.1 -0.4
v 0.1 -0.1 -0.3
v 0.1 -0.1 0.2
v 0.1 -0.1 0.3
v 0.1 0 -0.4
v 0.1 0 -0.3
v 0.1 0 0.2
v 0.1 0 0.3
v -0.2 -0.1 0.1
v -0.2 -0.1 0.3
v -0.2 0 0.1
v -0.2 0 0.3
v -0.3 -0.1 -0.2
v -0.3 -0.1 0.1
v -0.3 0 -0.2
v -0.3 0 0.1
v -0.4 -0.4 -0.4
v -0.4 -0.4 -0.3
v -0.4 -0.4 -0.2
v -0.4 -0.4 0.4
v -0.4 -0.3 -0.4
v -0.4 -0.3 -0.3
v -0.4 -0.3 -0.2
v -0.4 -0.3 0.4
v -0.4 -0.2 -0.4
v -0.4 -0.2 -0.3
v -0.4 -0.2 -0.2
v -0.4 -0.2 0.3
v -0.4 -0.2 0.4
v -0.4 -0.1 -0.2
v -0.4 -0.1 0.3
v -0.4 0 -0.4
v -0.4 0 -0.3
v -0.4 0 -0.2
v 0.4 -0.4 -0.4
v 0.4 -0.3 -0.4
v 0.4 -0.2 -0.4
v 0.4 0 -0.4
v 0.2 -0.4 -0.4
v 0.2 -0.3 -0.4
v 0.2 -0.2 -0.4
v 0.2 -0.1 -0.4
v 0.1 -0.4 -0.4
v 0.1 -0.1 -0.4
v 0.1 0 -0.4
v -0.1 -0.4 -0.4
v -0.1 -0.1 -0.4
v -0.1 0 -0.4
v -0.2 -0.4 -0.4
v -0.2 -0.3 -0.4
v -0.2 -0.2 -0.4
v -0.2 -0.1 -0.4
v -0.4 -0.4 -0.4
v -0.4 -0.3 -0.4
v -0.4 -0.2 -0.4
v -0.4 0 -0.4
v 0.1 -0.4 -0.3
v 0.1 -0.3 -0.3
v 0.1 -0.2 -0.3
v 0.1 -0.1 -0.3
v 0.1 0 -0.3
v -0.1 -0.4 -0.3
v -0.1 -0.3 -0.3
v -0.1 -0.2 -0.3
v -0.1 -0.1 -0.3
v -0.1 0 -0.3
v 0.4 -0.1 -0.2
v 0.4 0 -0.2
v 0.3 -0.1 -0.2
v 0.3 0 -0.2
v -0.3 -0.1 -0.2
v -0.3 0 -0.2
v -0.4 -0.1 -0.2
v -0.4 0 -0.2
v 0.3 -0.1 0.1
v 0.3 0 0.1
v 0.2 -0.1 0.1
v 0.2 0 0.1
v -0.2 -0.1 0.1
v -0.2 0 0.1
v -0.3 -0.1 0.1
v -0.3 0 0.1
v 0.1 -0.1 0.2
v 0.1 0 0.2
v -0.1 -0.1 0.2
v -0.1 0 0.2
v 0.4 -0.2 0.3
v 0.4 -0.1 0.3
v 0.2 -0.1 0.3
v 0.2 0 0.3
v 0.1 -0.2 0.3
v 0.1 -0.1 0.3
v 0.1 0 0.3
v -0.1 -0.2 0.3
v -0.1 -0.1 0.3
v -0.1 0 0.3
v -0.2 -0.1 0.3
v -0.2 0 0.3
v -0.4 -0.2 0.3
v -0.4 -0.1 0.3
v 0.4 -0.4 0.4
v 0.4 -0.3 0.4
v 0.4 -0.2 0.4
v 0.2 -0.4 0.4
v 0.2 -0.3 0.4
v 0.1 -0.4 0.4
v 0.1 -0.3 0.4
v 0.1 -0.2 0.4
v -0.1 -0.4 0.4
v -0.1 -0.3 0.4
v -0.1 -0.2 0.4
v -0.2 -0.4 0.4
v -0.2 -0.3 0.4
v -0.4 -0.4 0.4
v -0.4 -0.3 0.4
v -0.4 -0.2 0.4
v 0.4 -0.4 -0.4
v 0.2 -0.4 -0.4
v 0.1 -0.4 -0.4
v -0.1 -0.4 -0.4
v -0.2 -0.4 -0.4
v -0.4 -0.4 -0.4
v 0.4 -0.4 -0.3
v 0.2 -0.4 -0.3
v 0.1 -0.4 -0.3
v -0.1 -0.4 -0.3
v -0.2 -0.4 -0.3
v -0.4 -0.4 -0.3
v 0.4 -0.4 -0.2
v -0.4 -0.4 -0.2
v 0.2 -0.4 0.2
v -0.2 -0.4 0.2
v 0.1 -0.4 0.3
v -0.1 -0.4 0.3
v 0.4 -0.4 0.4
v 0.2 -0.4 0.4
v 0.1 -0.4 0.4
v -0.1 -0.4 0.4
v -0.2 -0.4 0.4
v -0.4 -0.4 0.4
v 0.4 -0.2 0.3
v 0.1 -0.2 0.3
v -0.1 -0.2 0.3
v -0.4 -0.2 0.3
v 0.4 -0.2 0.4
v 0.1 -0.2 0.4
v -0.1 -0.2 0.4
v -0.4 -0.2 0.4
v 0.4 -0.1 -0.2
v 0.3 -0.1 -0.2
v -0.3 -0.1 -0.2
v -0.4 -0.1 -0.2
v 0.3 -0.1 0.1
v 0.2 -0.1 0.1
v -0.2 -0.1 0.1
v -0.3 -0.1 0.1
v 0.1 -0.1 0.2
v -0.1 -0.1 0.2
v 0.4 -0.1 0.3
v 0.2 -0.1 0.3
v 0.1 -0.1 0.3
v -0.1 -0.1 0.3
v -0.2 -0.1 0.3
v -0.4 -0.1 0.3
v 0.4 0 -0.4
v 0.1 0 -0.4
v -0.1 0 -0.4
v -0.4 0 -0.4
v 0.4 0 -0.3
v 0.1 0 -0.3
v -0.1 0 -0.3
v -0.4 0 -0.3
v 0.4 0 -0.2
v 0.3 0 -0.2
v -0.3 0 -0.2
v -0.4 0 -0.2
v 0.3 0 0.1
v 0.2 0 0.1
v -0.2 0 0.1
v -0.3 0 0.1
v 0.1 0 0.2
v -0.1 0 0.2
v 0.2 0 0.3
v 0.1 0 0.3
v -0.1 0 0.3
v -0.2 0 0.3

# faces
f 5/1/1 2/1/1 1/1/1
f 6/3/1 3/3/1 2/3/1
f 6/1/1 2/1/1 5/1/1
f 7/1/1 4/1/1 3/1/1
f 7/3/1 3/3/1 6/3/1
f 8/1/1 4/1/1 7/1/1
f 9/3/1 6/3/1 5/3/1
f 9/3/1 7/3/1 6/3/1
f 9/3/1 8/3/1 7/3/1
f 10/3/1 8/3/1 9/3/1
f 11/3/1 8/3/1 10/3/1
f 12/3/1 8/3/1 11/3/1
f 13/3/1 8/3/1 12/3/1
f 14/3/1 11/3/1 10/3/1
f 14/1/1 12/1/1 11/1/1
f 15/1/1 12/1/1 14/1/1
f 16/1/1 10/1/1 9/1/1
f 17/3/1 14/3/1 10/3/1
f 17/1/1 10/1/1 16/1/1
f 18/3/1 14/3/1 17/3/1
f 21/1/1 20/1/1 19/1/1
f 22/1/1 20/1/1 21/1/1
f 25/1/1 24/1/1 23/1/1
f 26/1/1 24/1/1 25/1/1
f 29/3/1 28/3/1 27/3/1
f 30/3/1 29/3/1 27/3/1
f 31/3/1 30/3/1 27/3/1
f 32/3/1 30/3/1 31/3/1
f 35/1/1 32/1/1 31/1/1
f 36/1/1 32/1/1 35/1/1
f 37/1/1 34/1/1 33/1/1
f 38/1/1 34/1/1 37/1/1
f 39/3/2 40/3/2 41/3/2
f 39/3/2 41/3/2 42/3/2
f 39/3/2 42/3/2 43/3/2
f 43/3/2 42/3/2 44/3/2
f 43/1/2 44/1/2 47/1/2
f 47/1/2 44/1/2 48/1/2
f 45/1/2 46/1/2 49/1/2
f 49/1/2 46/1/2 50/1/2
f 51/1/2 52/1/2 53/1/2
f 53/1/2 52/1/2 54/1/2
f 55/1/2 56/1/2 57/1/2
f 57/1/2 56/1/2 58/1/2
f 59/1/2 60/1/2 63/1/2
f 60/3/2 61/3/2 64/3/2
f 63/1/2 60/1/2 64/1/2
f 61/1/2 62/1/2 65/1/2
f 64/3/2 61/3/2 65/3/2
f 65/1/2 62/1/2 66/1/2
f 63/3/2 64/3/2 67/3/2
f 64/3/2 65/3/2 67/3/2
f 65/3/2 66/3/2 67/3/2
f 67/3/2 66/3/2 68/3/2
f 68/3/2 66/3/2 69/3/2
f 69/3/2 66/3/2 70/3/2
f 70/3/2 66/3/2 71/3/2
f 68/3/2 69/3/2 72/3/2
f 69/1/2 70/1/2 72/1/2
f 72/1/2 70/1/2 73/1/2
f 67/1/2 68/1/2 74/1/2
f 68/3/2 72/3/2 75/3/2
f 74/1/2 68/1/2 75/1/2
f 75/3/2 72/3/2 76/3/2
f 81/1/3 78/1/3 77/1/3
f 82/3/3 79/3/3 78/3/3
f 82/1/3 78/1/3 81/1/3
f 83/1/3 80/1/3 79/1/3
f 83/3/3 79/3/3 82/3/3
f 84/1/3 80/1/3 83/1/3
f 85/3/3 82/3/3 81/3/3
f 85/3/3 83/3/3 82/3/3
f 85/3/3 84/3/3 83/3/3
f 86/1/3 80/1/3 84/1/3
f 86/3/3 84/3/3 85/3/3
f 87/1/3 80/1/3 86/1/3
f 91/3/3 89/3/3 88/3/3
f 92/3/3 89/3/3 91/3/3
f 93/3/3 89/3/3 92/3/3
f 94/1/3 90/1/3 89/1/3
f 94/3/3 89/3/3 93/3/3
f 95/1/3 92/1/3 91/1/3
f 96/3/3 93/3/3 92/3/3
f 96/1/3 92/1/3 95/1/3
f 97/1/3 94/1/3 93/1/3
f 97/3/3 93/3/3 96/3/3
f 98/1/3 90/1/3 94/1/3
f 98/1/3 94/1/3 97/1/3
f 104/3/3 100/3/3 99/3/3
f 105/1/3 101/1/3 100/1/3
f 105/3/3 100/3/3 104/3/3
f 106/3/3 103/3/3 102/3/3
f 106/1/3 101/1/3 105/1/3
f 106/3/3 102/3/3 101/3/3
f 107/3/3 103/3/3 106/3/3
f 108/3/3 103/3/3 107/3/3
f 109/3/4 110/3/4 111/3/4
f 111/3/4 110/3/4 112/3/4
f 113/3/4 114/3/4 115/3/4
f 115/3/4 114/3/4 116/3/4
f 117/1/4 118/1/4 119/1/4
f 119/1/4 118/1/4 120/1/4
f 121/1/4 122/1/4 123/1/4
f 123/1/4 122/1/4 124/1/4
f 125/1/4 126/1/4 127/1/4
f 127/1/4 126/1/4 128/1/4
f 129/1/4 130/1/4 131/1/4
f 129/1/4 131/1/4 133/1/4
f 131/1/4 132/1/4 133/1/4
f 133/1/4 132/1/4 134/1/4
f 134/1/4 132/1/4 135/1/4
f 133/1/4 134/1/4 136/1/4
f 136/1/4 134/1/4 137/1/4
f 136/1/4 137/1/4 139/1/4
f 137/1/4 138/1/4 139/1/4
f 139/1/4 138/1/4 140/1/4
f 136/1/4 139/1/4 141/1/4
f 141/1/4 139/1/4 142/1/4
f 143/1/4 144/1/4 146/1/4
f 144/3/4 145/3/4 147/3/4
f 146/1/4 144/1/4 147/1/4
f 146/3/4 147/3/4 148/3/4
f 147/3/4 145/3/4 149/3/4
f 148/3/4 147/3/4 149/3/4
f 149/3/4 145/3/4 150/3/4
f 148/1/4 149/1/4 151/1/4
f 149/2/4 150/2/4 152/2/4
f 151/1/4 149/1/4 152/1/4
f 152/2/4 150/2/4 153/2/4
f 151/3/4 152/3/4 154/3/4
f 152/3/4 153/3/4 154/3/4
f 154/3/4 153/3/4 155/3/4
f 154/1/4 155/1/4 156/1/4
f 155/3/4 153/3/4 157/3/4
f 156/1/4 155/1/4 157/1/4
f 157/3/4 153/3/4 158/3/4
f 165/1/5 160/1/5 159/1/5
f 166/3/5 161/3/5 160/3/5
f 166/1/5 160/1/5 165/1/5
f 167/3/5 161/3/5 166/3/5
f 168/3/5 163/3/5 162/3/5
f 169/1/5 164/1/5 163/1/5
f 169/3/5 163/3/5 168/3/5
f 170/1/5 164/1/5 169/1/5
f 171/3/5 168/3/5 167/3/5
f 171/3/5 167/3/5 166/3/5
f 171/3/5 170/3/5 169/3/5
f 171/3/5 169/3/5 168/3/5
f 171/3/5 166/3/5 165/3/5
f 172/3/5 170/3/5 171/3/5
f 173/1/5 172/1/5 171/1/5
f 174/1/5 172/1/5 173/1/5
f 175/3/5 174/3/5 173/3/5
f 176/3/5 174/3/5 175/3/5
f 177/1/5 173/1/5 171/1/5
f 178/3/5 175/3/5 173/3/5
f 178/1/5 173/1/5 177/1/5
f 179/1/5 176/1/5 175/1/5
f 179/3/5 175/3/5 178/3/5
f 180/3/5 174/3/5 176/3/5
f 180/1/5 176/1/5 179/1/5
f 181/1/5 172/1/5 174/1/5
f 181/3/5 174/3/5 180/3/5
f 182/1/5 172/1/5 181/1/5
f 183/3/6 184/3/6 187/3/6
f 184/2/6 185/2/6 188/2/6
f 187/3/6 184/3/6 188/3/6
f 185/3/6 186/3/6 189/3/6
f 188/2/6 185/2/6 189/2/6
f 189/3/6 186/3/6 190/3/6
f 191/1/6 192/1/6 195/1/6
f 193/1/6 194/1/6 198/1/6
f 195/1/6 196/1/6 201/1/6
f 191/1/6 195/1/6 201/1/6
f 201/1/6 196/1/6 202/1/6
f 199/1/6 200/1/6 203/1/6
f 203/1/6 200/1/6 204/1/6
f 197/1/6 198/1/6 205/1/6
f 198/1/6 194/1/6 206/1/6
f 205/1/6 198/1/6 206/1/6
f 207/1/6 208/1/6 211/1/6
f 211/1/6 208/1/6 212/1/6
f 209/1/6 210/1/6 213/1/6
f 213/1/6 210/1/6 214/1/6
f 211/3/6 212/3/6 215/3/6
f 212/3/6 213/3/6 215/3/6
f 213/3/6 214/3/6 215/3/6
f 215/3/6 214/3/6 216/3/6
f 216/3/6 214/3/6 217/3/6
f 217/3/6 214/3/6 218/3/6
f 216/1/6 217/1/6 219/1/6
f 219/1/6 217/1/6 220/1/6
f 220/1/6 217/1/6 221/1/6
f 221/1/6 217/1/6 222/1/6
f 220/1/6 221/1/6 223/1/6
f 223/1/6 221/1/6 224/1/6
f 220/1/6 223/1/6 225/1/6
f 225/1/6 223/1/6 226/1/6
f 224/1/6 221/1/6 227/1/6
f 227/1/6 221/1/6 228/1/6
