# MagicaVoxel @ Ephtracy

# group
o 

# material
mtllib MediumMedicalKit_LOD1.mtl
usemtl palette

# normals
vn 1 0 0
vn -1 0 0
vn 0 0 -1
vn 0 0 1
vn 0 -1 0
vn 0 1 0

# texcoords
vt 0.974609 0.5
vt 0.978516 0.5
vt 0.982422 0.5

# verts
v 0.4 -0.4 -0.4
v 0.4 -0.4 -0.3
v 0.4 -0.4 -0.2
v 0.4 -0.4 0.4
v 0.4 -0.3 -0.4
v 0.4 -0.3 -0.3
v 0.4 -0.3 -0.2
v 0.4 -0.3 0.4
v 0.4 -0.2 -0.2
v 0.4 -0.2 0.4
v 0.4 0 -0.4
v 0.4 0 -0.2
v 0.4 0 0.4
v -0.4 -0.4 -0.4
v -0.4 -0.4 -0.3
v -0.4 -0.4 -0.2
v -0.4 -0.4 0.4
v -0.4 -0.3 -0.4
v -0.4 -0.3 -0.3
v -0.4 -0.3 -0.2
v -0.4 -0.3 0.4
v -0.4 -0.2 -0.2
v -0.4 -0.2 0.4
v -0.4 0 -0.4
v -0.4 0 -0.2
v -0.4 0 0.4
v 0.4 -0.4 -0.4
v 0.4 -0.3 -0.4
v 0.4 0 -0.4
v 0.2 -0.4 -0.4
v 0.2 -0.3 -0.4
v -0.2 -0.4 -0.4
v -0.2 -0.3 -0.4
v -0.4 -0.4 -0.4
v -0.4 -0.3 -0.4
v -0.4 0 -0.4
v 0.4 -0.4 0.4
v 0.4 -0.3 0.4
v 0.4 -0.2 0.4
v 0.4 0 0.4
v 0.2 -0.4 0.4
v 0.2 -0.3 0.4
v 0.1 -0.4 0.4
v 0.1 -0.3 0.4
v 0.1 -0.2 0.4
v -0.1 -0.4 0.4
v -0.1 -0.3 0.4
v -0.1 -0.2 0.4
v -0.2 -0.4 0.4
v -0.2 -0.3 0.4
v -0.4 -0.4 0.4
v -0.4 -0.3 0.4
v -0.4 -0.2 0.4
v -0.4 0 0.4
v 0.4 -0.4 -0.4
v 0.2 -0.4 -0.4
v -0.2 -0.4 -0.4
v -0.4 -0.4 -0.4
v 0.4 -0.4 -0.3
v 0.2 -0.4 -0.3
v -0.2 -0.4 -0.3
v -0.4 -0.4 -0.3
v 0.4 -0.4 -0.2
v -0.4 -0.4 -0.2
v 0.2 -0.4 0.2
v -0.2 -0.4 0.2
v 0.1 -0.4 0.3
v -0.1 -0.4 0.3
v 0.4 -0.4 0.4
v 0.2 -0.4 0.4
v 0.1 -0.4 0.4
v -0.1 -0.4 0.4
v -0.2 -0.4 0.4
v -0.4 -0.4 0.4
v 0.4 0 -0.4
v -0.4 0 -0.4
v 0.4 0 -0.2
v -0.4 0 -0.2
v 0.4 0 0.4
v -0.4 0 0.4

# faces
f 5/1/1 2/1/1 1/1/1
f 6/3/1 3/3/1 2/3/1
f 6/1/1 2/1/1 5/1/1
f 7/1/1 4/1/1 3/1/1
f 7/3/1 3/3/1 6/3/1
f 8/1/1 4/1/1 7/1/1
f 9/3/1 6/3/1 5/3/1
f 9/3/1 7/3/1 6/3/1
f 9/3/1 8/3/1 7/3/1
f 10/3/1 8/3/1 9/3/1
f 11/3/1 9/3/1 5/3/1
f 12/1/1 10/1/1 9/1/1
f 12/3/1 9/3/1 11/3/1
f 13/1/1 10/1/1 12/1/1
f 14/1/2 15/1/2 18/1/2
f 15/3/2 16/3/2 19/3/2
f 18/1/2 15/1/2 19/1/2
f 16/1/2 17/1/2 20/1/2
f 19/3/2 16/3/2 20/3/2
f 20/1/2 17/1/2 21/1/2
f 18/3/2 19/3/2 22/3/2
f 19/3/2 20/3/2 22/3/2
f 20/3/2 21/3/2 22/3/2
f 22/3/2 21/3/2 23/3/2
f 18/3/2 22/3/2 24/3/2
f 22/1/2 23/1/2 25/1/2
f 24/3/2 22/3/2 25/3/2
f 25/1/2 23/1/2 26/1/2
f 30/1/3 28/1/3 27/1/3
f 31/3/3 29/3/3 28/3/3
f 31/1/3 28/1/3 30/1/3
f 32/3/3 31/3/3 30/3/3
f 33/3/3 29/3/3 31/3/3
f 33/3/3 31/3/3 32/3/3
f 34/1/3 33/1/3 32/1/3
f 35/3/3 29/3/3 33/3/3
f 35/1/3 33/1/3 34/1/3
f 36/3/3 29/3/3 35/3/3
f 37/1/4 38/1/4 41/1/4
f 38/3/4 39/3/4 42/3/4
f 41/1/4 38/1/4 42/1/4
f 41/3/4 42/3/4 43/3/4
f 42/3/4 39/3/4 44/3/4
f 43/3/4 42/3/4 44/3/4
f 39/1/4 40/1/4 45/1/4
f 44/3/4 39/3/4 45/3/4
f 43/1/4 44/1/4 46/1/4
f 44/2/4 45/2/4 47/2/4
f 46/1/4 44/1/4 47/1/4
f 45/1/4 40/1/4 48/1/4
f 47/2/4 45/2/4 48/2/4
f 46/3/4 47/3/4 49/3/4
f 47/3/4 48/3/4 49/3/4
f 49/3/4 48/3/4 50/3/4
f 49/1/4 50/1/4 51/1/4
f 50/3/4 48/3/4 52/3/4
f 51/1/4 50/1/4 52/1/4
f 48/1/4 40/1/4 53/1/4
f 52/3/4 48/3/4 53/3/4
f 53/1/4 40/1/4 54/1/4
f 59/1/5 56/1/5 55/1/5
f 60/3/5 57/3/5 56/3/5
f 60/1/5 56/1/5 59/1/5
f 61/1/5 58/1/5 57/1/5
f 61/3/5 57/3/5 60/3/5
f 62/1/5 58/1/5 61/1/5
f 63/3/5 60/3/5 59/3/5
f 63/3/5 61/3/5 60/3/5
f 63/3/5 62/3/5 61/3/5
f 64/3/5 62/3/5 63/3/5
f 65/1/5 64/1/5 63/1/5
f 66/1/5 64/1/5 65/1/5
f 67/3/5 66/3/5 65/3/5
f 68/3/5 66/3/5 67/3/5
f 69/1/5 65/1/5 63/1/5
f 70/3/5 67/3/5 65/3/5
f 70/1/5 65/1/5 69/1/5
f 71/1/5 68/1/5 67/1/5
f 71/3/5 67/3/5 70/3/5
f 72/3/5 66/3/5 68/3/5
f 72/1/5 68/1/5 71/1/5
f 73/1/5 64/1/5 66/1/5
f 73/3/5 66/3/5 72/3/5
f 74/1/5 64/1/5 73/1/5
f 75/3/6 76/3/6 77/3/6
f 77/3/6 76/3/6 78/3/6
f 77/1/6 78/1/6 79/1/6
f 79/1/6 78/1/6 80/1/6
