# MagicaVoxel @ Ephtracy

# group
o 

# material
mtllib Bot_Runner_LOD0-0.mtl
usemtl palette

# normals
vn -1 0 0
vn 1 0 0
vn 0 0 1
vn 0 0 -1
vn 0 -1 0
vn 0 1 0

# texcoords
vt 0.970703 0.5
vt 0.974609 0.5
vt 0.978516 0.5

# verts
v 0.8 1.1 0.2
v 0.8 1.1 0
v 0.8 1.1 -0.1
v 0.8 1.2 0.4
v 0.8 1.2 0.3
v 0.8 1.2 0.2
v 0.8 1.2 0
v 0.8 1.2 -0.1
v 0.8 1.2 -0.2
v 0.8 1.3 0.4
v 0.8 1.3 0.3
v 0.8 1.3 0.2
v 0.8 1.3 0
v 0.8 1.3 -0.1
v 0.8 1.3 -0.2
v 0.8 1.4 0.4
v 0.8 1.4 0.3
v 0.8 1.4 0.2
v 0.8 1.4 0
v 0.8 1.4 -0.1
v 0.8 1.4 -0.2
v 0.8 1.6 0.3
v 0.8 1.6 0.2
v 0.8 1.6 0
v 0.8 1.6 -0.1
v 0.8 2 0.3
v 0.8 2 0.2
v 0.8 2 0
v 0.8 2 -0.1
v 0.8 2.2 0.4
v 0.8 2.2 0.3
v 0.8 2.2 0.2
v 0.8 2.2 0
v 0.8 2.2 -0.1
v 0.8 2.2 -0.2
v 0.8 2.3 0.3
v 0.8 2.3 0.2
v 0.8 2.3 0
v 0.8 2.3 -0.1
v 0.8 2.4 0.4
v 0.8 2.4 0.3
v 0.8 2.4 -0.1
v 0.8 2.4 -0.2
v 0.9 1.1 0.3
v 0.9 1.1 0.2
v 0.9 1.1 -0.1
v 0.9 1.1 -0.2
v 0.9 1.2 0.3
v 0.9 1.2 0.2
v 0.9 1.2 -0.1
v 0.9 1.2 -0.2
v 0.9 1.3 0.2
v 0.9 1.3 0
v 0.9 1.4 0.4
v 0.9 1.4 0.3
v 0.9 1.4 0.2
v 0.9 1.4 0
v 0.9 1.4 -0.1
v 0.9 1.4 -0.2
v 0.9 1.5 0.2
v 0.9 1.5 0
v 0.9 1.6 0.4
v 0.9 1.6 0.3
v 0.9 1.6 0.2
v 0.9 1.6 0
v 0.9 1.6 -0.1
v 0.9 1.6 -0.2
v 0.9 1.7 0.2
v 0.9 1.7 0
v 0.9 1.8 0.3
v 0.9 1.8 0.2
v 0.9 1.8 0
v 0.9 1.8 -0.1
v 0.9 2 0.4
v 0.9 2 0.3
v 0.9 2 0.2
v 0.9 2 0
v 0.9 2 -0.1
v 0.9 2 -0.2
v 0.9 2.2 0.4
v 0.9 2.2 0.3
v 0.9 2.2 0.2
v 0.9 2.2 0
v 0.9 2.2 -0.1
v 0.9 2.2 -0.2
v 0.9 2.3 0.3
v 0.9 2.3 0.2
v 0.9 2.3 0
v 0.9 2.3 -0.1
v 0.9 2.4 0.3
v 0.9 2.4 0.2
v 0.9 2.4 0
v 0.9 2.4 -0.1
v 1 1.1 0.4
v 1 1.1 0.3
v 1 1.2 0.4
v 1 1.2 0.3
v 1 1.8 0.3
v 1 1.8 0.2
v 1 1.8 0
v 1 1.8 -0.1
v 1 2 0.3
v 1 2 0.2
v 1 2 0
v 1 2 -0.1
v 1 2.3 0.2
v 1 2.3 0
v 1 2.4 0.2
v 1 2.4 0
v 1.2 1.3 0.4
v 1.2 1.3 0.3
v 1.2 1.3 -0.1
v 1.2 1.3 -0.2
v 1.2 1.4 0.4
v 1.2 1.4 0.3
v 1.2 1.4 -0.1
v 1.2 1.4 -0.2
v 1.2 1.5 0.3
v 1.2 1.5 -0.1
v 1.2 1.6 0.4
v 1.2 1.6 0.3
v 1.2 1.6 -0.1
v 1.2 1.6 -0.2
v 1 1.3 0.4
v 1 1.3 0.3
v 1 1.3 -0.1
v 1 1.3 -0.2
v 1 1.4 0.4
v 1 1.4 0.3
v 1 1.4 -0.1
v 1 1.4 -0.2
v 1 1.5 0.3
v 1 1.5 -0.1
v 1 1.6 0.4
v 1 1.6 0.3
v 1 1.6 -0.1
v 1 1.6 -0.2
v 1.2 1.1 -0.1
v 1.2 1.1 -0.2
v 1.2 1.2 -0.1
v 1.2 1.2 -0.2
v 1.2 1.8 0.3
v 1.2 1.8 0.2
v 1.2 1.8 0
v 1.2 1.8 -0.1
v 1.2 2 0.3
v 1.2 2 0.2
v 1.2 2 0
v 1.2 2 -0.1
v 1.3 1.1 0.4
v 1.3 1.1 0.3
v 1.3 1.1 0
v 1.3 1.1 -0.1
v 1.3 1.2 0.4
v 1.3 1.2 0.3
v 1.3 1.2 0
v 1.3 1.2 -0.1
v 1.3 1.3 0.2
v 1.3 1.3 0
v 1.3 1.4 0.4
v 1.3 1.4 0.3
v 1.3 1.4 0.2
v 1.3 1.4 0
v 1.3 1.4 -0.1
v 1.3 1.4 -0.2
v 1.3 1.5 0.2
v 1.3 1.5 0
v 1.3 1.6 0.4
v 1.3 1.6 0.3
v 1.3 1.6 0.2
v 1.3 1.6 0
v 1.3 1.6 -0.1
v 1.3 1.6 -0.2
v 1.3 1.7 0.2
v 1.3 1.7 0
v 1.3 1.8 0.3
v 1.3 1.8 0.2
v 1.3 1.8 0
v 1.3 1.8 -0.1
v 1.3 2 0.4
v 1.3 2 0.3
v 1.3 2 0.2
v 1.3 2 0
v 1.3 2 -0.1
v 1.3 2 -0.2
v 1.3 2.2 0.4
v 1.3 2.2 0.3
v 1.3 2.2 -0.1
v 1.3 2.2 -0.2
v 1.4 1.1 0.3
v 1.4 1.1 0.2
v 1.4 1.1 0
v 1.4 1.2 0.4
v 1.4 1.2 0.3
v 1.4 1.2 0.2
v 1.4 1.2 0
v 1.4 1.2 -0.1
v 1.4 1.2 -0.2
v 1.4 1.3 0.4
v 1.4 1.3 0.3
v 1.4 1.3 0.2
v 1.4 1.3 0
v 1.4 1.3 -0.1
v 1.4 1.3 -0.2
v 1.4 1.4 0.4
v 1.4 1.4 0.3
v 1.4 1.4 0.2
v 1.4 1.4 0
v 1.4 1.4 -0.1
v 1.4 1.4 -0.2
v 1.4 1.6 0.3
v 1.4 1.6 0.2
v 1.4 1.6 0
v 1.4 1.6 -0.1
v 1.4 2 0.3
v 1.4 2 0.2
v 1.4 2 0
v 1.4 2 -0.1
v 1.4 2.2 0.4
v 1.4 2.2 0.3
v 1.4 2.2 -0.1
v 1.4 2.2 -0.2
v 1.4 2.4 0.4
v 1.4 2.4 0.3
v 1.4 2.4 0.2
v 1.4 2.4 0
v 1.4 2.4 -0.1
v 1.4 2.4 -0.2
v 0.8 1.2 0.4
v 0.8 1.3 0.4
v 0.8 1.4 0.4
v 0.8 2.2 0.4
v 0.8 2.4 0.4
v 0.9 1.2 0.4
v 0.9 1.3 0.4
v 0.9 1.4 0.4
v 0.9 1.6 0.4
v 0.9 2 0.4
v 0.9 2.2 0.4
v 0.9 2.4 0.4
v 1 1.1 0.4
v 1 1.2 0.4
v 1 1.3 0.4
v 1 1.4 0.4
v 1 1.6 0.4
v 1 2 0.4
v 1 2.4 0.4
v 1.2 1.1 0.4
v 1.2 1.2 0.4
v 1.2 1.3 0.4
v 1.2 1.4 0.4
v 1.2 1.6 0.4
v 1.2 2 0.4
v 1.2 2.4 0.4
v 1.3 1.1 0.4
v 1.3 1.2 0.4
v 1.3 1.3 0.4
v 1.3 1.4 0.4
v 1.3 1.6 0.4
v 1.3 2 0.4
v 1.3 2.2 0.4
v 1.3 2.4 0.4
v 1.4 1.2 0.4
v 1.4 1.3 0.4
v 1.4 1.4 0.4
v 1.4 2.2 0.4
v 1.4 2.4 0.4
v 0.8 1.4 0.3
v 0.8 1.6 0.3
v 0.8 2 0.3
v 0.8 2.2 0.3
v 0.9 1.1 0.3
v 0.9 1.2 0.3
v 0.9 1.4 0.3
v 0.9 1.6 0.3
v 0.9 1.8 0.3
v 0.9 2 0.3
v 0.9 2.2 0.3
v 1 1.1 0.3
v 1 1.2 0.3
v 1 1.3 0.3
v 1 1.4 0.3
v 1 1.5 0.3
v 1 1.6 0.3
v 1 1.7 0.3
v 1 1.8 0.3
v 1 2 0.3
v 1.2 1.3 0.3
v 1.2 1.4 0.3
v 1.2 1.5 0.3
v 1.2 1.6 0.3
v 1.2 1.7 0.3
v 1.2 1.8 0.3
v 1.2 2 0.3
v 1.3 1.1 0.3
v 1.3 1.2 0.3
v 1.3 1.4 0.3
v 1.3 1.6 0.3
v 1.3 1.8 0.3
v 1.3 2 0.3
v 1.3 2.2 0.3
v 1.4 1.1 0.3
v 1.4 1.2 0.3
v 1.4 1.4 0.3
v 1.4 1.6 0.3
v 1.4 2 0.3
v 1.4 2.2 0.3
v 0.8 1.1 0.2
v 0.8 1.2 0.2
v 0.9 1.1 0.2
v 0.9 1.2 0.2
v 0.9 1.8 0.2
v 0.9 2 0.2
v 1 1.8 0.2
v 1 2 0.2
v 1.2 1.8 0.2
v 1.2 2 0.2
v 1.3 1.8 0.2
v 1.3 2 0.2
v 0.8 1.3 0
v 0.8 1.4 0
v 0.8 1.6 0
v 0.8 2.2 0
v 0.8 2.3 0
v 0.9 1.3 0
v 0.9 1.4 0
v 0.9 1.5 0
v 0.9 1.6 0
v 0.9 2.2 0
v 0.9 2.3 0
v 0.9 2.4 0
v 1 2.3 0
v 1 2.4 0
v 1.3 1.3 0
v 1.3 1.4 0
v 1.3 1.5 0
v 1.3 1.6 0
v 1.4 1.3 0
v 1.4 1.4 0
v 1.4 1.6 0
v 0.8 2.3 -0.1
v 0.8 2.4 -0.1
v 0.9 2.3 -0.1
v 0.9 2.4 -0.1
v 0.8 2.3 0.3
v 0.8 2.4 0.3
v 0.9 2.3 0.3
v 0.9 2.4 0.3
v 0.8 1.3 0.2
v 0.8 1.4 0.2
v 0.8 1.6 0.2
v 0.8 2.2 0.2
v 0.8 2.3 0.2
v 0.9 1.3 0.2
v 0.9 1.4 0.2
v 0.9 1.5 0.2
v 0.9 1.6 0.2
v 0.9 2.2 0.2
v 0.9 2.3 0.2
v 0.9 2.4 0.2
v 1 2.3 0.2
v 1 2.4 0.2
v 1.3 1.3 0.2
v 1.3 1.4 0.2
v 1.3 1.5 0.2
v 1.3 1.6 0.2
v 1.4 1.3 0.2
v 1.4 1.4 0.2
v 1.4 1.6 0.2
v 0.9 1.8 0
v 0.9 2 0
v 1 1.8 0
v 1 2 0
v 1.2 1.8 0
v 1.2 2 0
v 1.3 1.1 0
v 1.3 1.2 0
v 1.3 1.8 0
v 1.3 2 0
v 1.4 1.1 0
v 1.4 1.2 0
v 0.8 1.1 -0.1
v 0.8 1.2 -0.1
v 0.8 1.4 -0.1
v 0.8 1.6 -0.1
v 0.8 2 -0.1
v 0.8 2.2 -0.1
v 0.9 1.1 -0.1
v 0.9 1.2 -0.1
v 0.9 1.4 -0.1
v 0.9 1.6 -0.1
v 0.9 1.8 -0.1
v 0.9 2 -0.1
v 0.9 2.2 -0.1
v 1 1.3 -0.1
v 1 1.4 -0.1
v 1 1.5 -0.1
v 1 1.6 -0.1
v 1 1.7 -0.1
v 1 1.8 -0.1
v 1 2 -0.1
v 1.2 1.1 -0.1
v 1.2 1.2 -0.1
v 1.2 1.3 -0.1
v 1.2 1.4 -0.1
v 1.2 1.5 -0.1
v 1.2 1.6 -0.1
v 1.2 1.7 -0.1
v 1.2 1.8 -0.1
v 1.2 2 -0.1
v 1.3 1.1 -0.1
v 1.3 1.2 -0.1
v 1.3 1.4 -0.1
v 1.3 1.6 -0.1
v 1.3 1.8 -0.1
v 1.3 2 -0.1
v 1.3 2.2 -0.1
v 1.4 1.4 -0.1
v 1.4 1.6 -0.1
v 1.4 2 -0.1
v 1.4 2.2 -0.1
v 0.8 1.2 -0.2
v 0.8 1.3 -0.2
v 0.8 1.4 -0.2
v 0.8 2.2 -0.2
v 0.8 2.4 -0.2
v 0.9 1.1 -0.2
v 0.9 1.2 -0.2
v 0.9 1.3 -0.2
v 0.9 1.4 -0.2
v 0.9 1.6 -0.2
v 0.9 2 -0.2
v 0.9 2.2 -0.2
v 0.9 2.4 -0.2
v 1 1.1 -0.2
v 1 1.2 -0.2
v 1 1.3 -0.2
v 1 1.4 -0.2
v 1 1.6 -0.2
v 1 2 -0.2
v 1 2.4 -0.2
v 1.2 1.1 -0.2
v 1.2 1.2 -0.2
v 1.2 1.3 -0.2
v 1.2 1.4 -0.2
v 1.2 1.6 -0.2
v 1.2 2 -0.2
v 1.2 2.4 -0.2
v 1.3 1.2 -0.2
v 1.3 1.3 -0.2
v 1.3 1.4 -0.2
v 1.3 1.6 -0.2
v 1.3 2 -0.2
v 1.3 2.2 -0.2
v 1.3 2.4 -0.2
v 1.4 1.2 -0.2
v 1.4 1.3 -0.2
v 1.4 1.4 -0.2
v 1.4 2.2 -0.2
v 1.4 2.4 -0.2
v 1 1.1 0.4
v 1.2 1.1 0.4
v 1.3 1.1 0.4
v 0.9 1.1 0.3
v 1 1.1 0.3
v 1.2 1.1 0.3
v 1.3 1.1 0.3
v 1.4 1.1 0.3
v 0.8 1.1 0.2
v 0.9 1.1 0.2
v 1 1.1 0.2
v 1.1 1.1 0.2
v 1.2 1.1 0.2
v 1.3 1.1 0.2
v 1.4 1.1 0.2
v 1 1.1 0.1
v 1.1 1.1 0.1
v 1.2 1.1 0.1
v 0.8 1.1 0
v 0.9 1.1 0
v 1 1.1 0
v 1.1 1.1 0
v 1.2 1.1 0
v 1.3 1.1 0
v 1.4 1.1 0
v 0.8 1.1 -0.1
v 0.9 1.1 -0.1
v 1 1.1 -0.1
v 1.2 1.1 -0.1
v 1.3 1.1 -0.1
v 0.9 1.1 -0.2
v 1 1.1 -0.2
v 1.2 1.1 -0.2
v 0.8 1.2 0.4
v 0.9 1.2 0.4
v 1 1.2 0.4
v 1.3 1.2 0.4
v 1.4 1.2 0.4
v 0.8 1.2 0.3
v 0.9 1.2 0.3
v 1 1.2 0.3
v 1.3 1.2 0.3
v 1.4 1.2 0.3
v 0.8 1.2 0.2
v 0.9 1.2 0.2
v 1.3 1.2 0
v 1.4 1.2 0
v 0.8 1.2 -0.1
v 0.9 1.2 -0.1
v 1.2 1.2 -0.1
v 1.3 1.2 -0.1
v 1.4 1.2 -0.1
v 0.8 1.2 -0.2
v 0.9 1.2 -0.2
v 1.2 1.2 -0.2
v 1.3 1.2 -0.2
v 1.4 1.2 -0.2
v 0.9 2 0.4
v 1 2 0.4
v 1.2 2 0.4
v 1.3 2 0.4
v 0.8 2 0.3
v 0.9 2 0.3
v 1 2 0.3
v 1.2 2 0.3
v 1.3 2 0.3
v 1.4 2 0.3
v 0.8 2 0.2
v 0.9 2 0.2
v 1 2 0.2
v 1.2 2 0.2
v 1.3 2 0.2
v 1.4 2 0.2
v 0.8 2 0
v 0.9 2 0
v 1 2 0
v 1.2 2 0
v 1.3 2 0
v 1.4 2 0
v 0.8 2 -0.1
v 0.9 2 -0.1
v 1 2 -0.1
v 1.2 2 -0.1
v 1.3 2 -0.1
v 1.4 2 -0.1
v 0.9 2 -0.2
v 1 2 -0.2
v 1.2 2 -0.2
v 1.3 2 -0.2
v 0.8 2.2 0.4
v 0.9 2.2 0.4
v 1.3 2.2 0.4
v 1.4 2.2 0.4
v 0.8 2.2 0.3
v 0.9 2.2 0.3
v 1.3 2.2 0.3
v 1.4 2.2 0.3
v 0.8 2.2 -0.1
v 0.9 2.2 -0.1
v 1.3 2.2 -0.1
v 1.4 2.2 -0.1
v 0.8 2.2 -0.2
v 0.9 2.2 -0.2
v 1.3 2.2 -0.2
v 1.4 2.2 -0.2
v 1 1.3 0.4
v 1.2 1.3 0.4
v 1 1.3 0.3
v 1.2 1.3 0.3
v 0.8 1.3 0.2
v 0.9 1.3 0.2
v 1.3 1.3 0.2
v 1.4 1.3 0.2
v 0.8 1.3 0
v 0.9 1.3 0
v 1.3 1.3 0
v 1.4 1.3 0
v 1 1.3 -0.1
v 1.2 1.3 -0.1
v 1 1.3 -0.2
v 1.2 1.3 -0.2
v 0.8 1.4 0.4
v 0.9 1.4 0.4
v 1.3 1.4 0.4
v 1.4 1.4 0.4
v 0.8 1.4 0.3
v 0.9 1.4 0.3
v 1.3 1.4 0.3
v 1.4 1.4 0.3
v 0.8 1.4 -0.1
v 0.9 1.4 -0.1
v 1.3 1.4 -0.1
v 1.4 1.4 -0.1
v 0.8 1.4 -0.2
v 0.9 1.4 -0.2
v 1.3 1.4 -0.2
v 1.4 1.4 -0.2
v 0.9 1.6 0.4
v 1 1.6 0.4
v 1.2 1.6 0.4
v 1.3 1.6 0.4
v 0.8 1.6 0.3
v 0.9 1.6 0.3
v 1 1.6 0.3
v 1.2 1.6 0.3
v 1.3 1.6 0.3
v 1.4 1.6 0.3
v 0.8 1.6 0.2
v 0.9 1.6 0.2
v 1.3 1.6 0.2
v 1.4 1.6 0.2
v 0.8 1.6 0
v 0.9 1.6 0
v 1.3 1.6 0
v 1.4 1.6 0
v 0.8 1.6 -0.1
v 0.9 1.6 -0.1
v 1 1.6 -0.1
v 1.2 1.6 -0.1
v 1.3 1.6 -0.1
v 1.4 1.6 -0.1
v 0.9 1.6 -0.2
v 1 1.6 -0.2
v 1.2 1.6 -0.2
v 1.3 1.6 -0.2
v 0.9 1.8 0.3
v 1 1.8 0.3
v 1.2 1.8 0.3
v 1.3 1.8 0.3
v 0.9 1.8 0.2
v 1 1.8 0.2
v 1.2 1.8 0.2
v 1.3 1.8 0.2
v 0.9 1.8 0
v 1 1.8 0
v 1.2 1.8 0
v 1.3 1.8 0
v 0.9 1.8 -0.1
v 1 1.8 -0.1
v 1.2 1.8 -0.1
v 1.3 1.8 -0.1
v 0.8 2.2 0.2
v 0.9 2.2 0.2
v 0.8 2.2 0
v 0.9 2.2 0
v 0.8 2.3 0.3
v 0.9 2.3 0.3
v 0.8 2.3 0.2
v 0.9 2.3 0.2
v 1 2.3 0.2
v 0.8 2.3 0
v 0.9 2.3 0
v 1 2.3 0
v 0.8 2.3 -0.1
v 0.9 2.3 -0.1
v 0.8 2.4 0.4
v 0.9 2.4 0.4
v 1 2.4 0.4
v 1.2 2.4 0.4
v 1.3 2.4 0.4
v 1.4 2.4 0.4
v 0.8 2.4 0.3
v 0.9 2.4 0.3
v 1 2.4 0.3
v 1.2 2.4 0.3
v 1.3 2.4 0.3
v 1.4 2.4 0.3
v 0.9 2.4 0.2
v 1 2.4 0.2
v 1.2 2.4 0.2
v 1.4 2.4 0.2
v 0.9 2.4 0
v 1 2.4 0
v 1.2 2.4 0
v 1.4 2.4 0
v 0.8 2.4 -0.1
v 0.9 2.4 -0.1
v 1 2.4 -0.1
v 1.2 2.4 -0.1
v 1.3 2.4 -0.1
v 1.4 2.4 -0.1
v 0.8 2.4 -0.2
v 0.9 2.4 -0.2
v 1 2.4 -0.2
v 1.2 2.4 -0.2
v 1.3 2.4 -0.2
v 1.4 2.4 -0.2

# faces
f 6/1/1 2/1/1 1/1/1
f 7/3/1 3/3/1 2/3/1
f 7/1/1 2/1/1 6/1/1
f 8/3/1 3/3/1 7/3/1
f 10/3/1 5/3/1 4/3/1
f 11/1/1 6/1/1 5/1/1
f 11/3/1 5/3/1 10/3/1
f 12/3/1 7/3/1 6/3/1
f 12/1/1 6/1/1 11/1/1
f 13/1/1 8/1/1 7/1/1
f 13/3/1 7/3/1 12/3/1
f 14/3/1 9/3/1 8/3/1
f 14/1/1 8/1/1 13/1/1
f 15/3/1 9/3/1 14/3/1
f 16/2/1 11/2/1 10/2/1
f 17/1/1 12/1/1 11/1/1
f 17/2/1 11/2/1 16/2/1
f 18/1/1 12/1/1 17/1/1
f 19/1/1 14/1/1 13/1/1
f 20/2/1 15/2/1 14/2/1
f 20/1/1 14/1/1 19/1/1
f 21/2/1 15/2/1 20/2/1
f 22/3/1 18/3/1 17/3/1
f 23/3/1 18/3/1 22/3/1
f 24/3/1 20/3/1 19/3/1
f 25/3/1 20/3/1 24/3/1
f 31/1/1 27/1/1 26/1/1
f 32/2/1 28/2/1 27/2/1
f 32/1/1 27/1/1 31/1/1
f 33/1/1 29/1/1 28/1/1
f 33/2/1 28/2/1 32/2/1
f 34/1/1 29/1/1 33/1/1
f 36/2/1 32/2/1 31/2/1
f 36/2/1 31/2/1 30/2/1
f 37/2/1 32/2/1 36/2/1
f 38/2/1 34/2/1 33/2/1
f 38/2/1 35/2/1 34/2/1
f 39/2/1 35/2/1 38/2/1
f 40/2/1 36/2/1 30/2/1
f 41/2/1 36/2/1 40/2/1
f 42/2/1 35/2/1 39/2/1
f 43/2/1 35/2/1 42/2/1
f 48/1/1 45/1/1 44/1/1
f 49/1/1 45/1/1 48/1/1
f 50/3/1 47/3/1 46/3/1
f 51/3/1 47/3/1 50/3/1
f 56/3/1 53/3/1 52/3/1
f 57/3/1 53/3/1 56/3/1
f 60/3/1 57/3/1 56/3/1
f 61/3/1 57/3/1 60/3/1
f 62/3/1 55/3/1 54/3/1
f 63/3/1 55/3/1 62/3/1
f 64/1/1 61/1/1 60/1/1
f 65/1/1 61/1/1 64/1/1
f 66/3/1 59/3/1 58/3/1
f 67/3/1 59/3/1 66/3/1
f 68/3/1 65/3/1 64/3/1
f 68/2/1 64/2/1 63/2/1
f 69/2/1 66/2/1 65/2/1
f 69/3/1 65/3/1 68/3/1
f 70/2/1 68/2/1 63/2/1
f 71/1/1 69/1/1 68/1/1
f 71/2/1 68/2/1 70/2/1
f 72/2/1 66/2/1 69/2/1
f 72/1/1 69/1/1 71/1/1
f 73/2/1 66/2/1 72/2/1
f 76/3/1 72/3/1 71/3/1
f 77/3/1 72/3/1 76/3/1
f 80/1/1 75/1/1 74/1/1
f 81/1/1 75/1/1 80/1/1
f 84/1/1 79/1/1 78/1/1
f 85/1/1 79/1/1 84/1/1
f 87/2/1 83/2/1 82/2/1
f 88/2/1 83/2/1 87/2/1
f 90/1/1 87/1/1 86/1/1
f 91/1/1 87/1/1 90/1/1
f 92/1/1 89/1/1 88/1/1
f 93/1/1 89/1/1 92/1/1
f 96/1/1 95/1/1 94/1/1
f 97/1/1 95/1/1 96/1/1
f 102/3/1 99/3/1 98/3/1
f 103/3/1 99/3/1 102/3/1
f 104/3/1 101/3/1 100/3/1
f 105/3/1 101/3/1 104/3/1
f 108/1/1 107/1/1 106/1/1
f 109/1/1 107/1/1 108/1/1
f 114/1/1 111/1/1 110/1/1
f 115/1/1 111/1/1 114/1/1
f 116/1/1 113/1/1 112/1/1
f 117/1/1 113/1/1 116/1/1
f 118/3/1 115/3/1 114/3/1
f 119/3/1 117/3/1 116/3/1
f 120/3/1 118/3/1 114/3/1
f 121/3/1 118/3/1 120/3/1
f 122/3/1 117/3/1 119/3/1
f 123/3/1 117/3/1 122/3/1
f 124/1/2 125/1/2 128/1/2
f 128/1/2 125/1/2 129/1/2
f 126/1/2 127/1/2 130/1/2
f 130/1/2 127/1/2 131/1/2
f 128/3/2 129/3/2 132/3/2
f 130/3/2 131/3/2 133/3/2
f 128/3/2 132/3/2 134/3/2
f 134/3/2 132/3/2 135/3/2
f 133/3/2 131/3/2 136/3/2
f 136/3/2 131/3/2 137/3/2
f 138/1/2 139/1/2 140/1/2
f 140/1/2 139/1/2 141/1/2
f 142/3/2 143/3/2 146/3/2
f 146/3/2 143/3/2 147/3/2
f 144/3/2 145/3/2 148/3/2
f 148/3/2 145/3/2 149/3/2
f 150/3/2 151/3/2 154/3/2
f 154/3/2 151/3/2 155/3/2
f 152/1/2 153/1/2 156/1/2
f 156/1/2 153/1/2 157/1/2
f 158/3/2 159/3/2 162/3/2
f 162/3/2 159/3/2 163/3/2
f 162/3/2 163/3/2 166/3/2
f 166/3/2 163/3/2 167/3/2
f 160/3/2 161/3/2 168/3/2
f 168/3/2 161/3/2 169/3/2
f 166/1/2 167/1/2 170/1/2
f 170/1/2 167/1/2 171/1/2
f 164/3/2 165/3/2 172/3/2
f 172/3/2 165/3/2 173/3/2
f 170/3/2 171/3/2 174/3/2
f 169/2/2 170/2/2 174/2/2
f 171/2/2 172/2/2 175/2/2
f 174/3/2 171/3/2 175/3/2
f 169/2/2 174/2/2 176/2/2
f 174/1/2 175/1/2 177/1/2
f 176/2/2 174/2/2 177/2/2
f 175/2/2 172/2/2 178/2/2
f 177/1/2 175/1/2 178/1/2
f 178/2/2 172/2/2 179/2/2
f 177/3/2 178/3/2 182/3/2
f 182/3/2 178/3/2 183/3/2
f 180/1/2 181/1/2 186/1/2
f 186/1/2 181/1/2 187/1/2
f 184/1/2 185/1/2 188/1/2
f 188/1/2 185/1/2 189/1/2
f 190/3/2 191/3/2 194/3/2
f 191/1/2 192/1/2 195/1/2
f 194/3/2 191/3/2 195/3/2
f 195/1/2 192/1/2 196/1/2
f 193/3/2 194/3/2 199/3/2
f 194/1/2 195/1/2 200/1/2
f 199/3/2 194/3/2 200/3/2
f 195/3/2 196/3/2 201/3/2
f 200/1/2 195/1/2 201/1/2
f 196/1/2 197/1/2 202/1/2
f 201/3/2 196/3/2 202/3/2
f 197/3/2 198/3/2 203/3/2
f 202/1/2 197/1/2 203/1/2
f 203/3/2 198/3/2 204/3/2
f 199/2/2 200/2/2 205/2/2
f 200/1/2 201/1/2 206/1/2
f 205/2/2 200/2/2 206/2/2
f 206/1/2 201/1/2 207/1/2
f 202/1/2 203/1/2 208/1/2
f 203/2/2 204/2/2 209/2/2
f 208/1/2 203/1/2 209/1/2
f 209/2/2 204/2/2 210/2/2
f 206/3/2 207/3/2 211/3/2
f 211/3/2 207/3/2 212/3/2
f 208/3/2 209/3/2 213/3/2
f 213/3/2 209/3/2 214/3/2
f 215/1/2 216/1/2 220/1/2
f 217/1/2 218/1/2 221/1/2
f 219/2/2 220/2/2 223/2/2
f 220/1/2 216/1/2 224/1/2
f 223/2/2 220/2/2 224/2/2
f 216/3/2 217/3/2 225/3/2
f 224/1/2 216/1/2 225/1/2
f 217/1/2 221/1/2 226/1/2
f 225/3/2 217/3/2 226/3/2
f 221/2/2 222/2/2 227/2/2
f 226/1/2 221/1/2 227/1/2
f 227/2/2 222/2/2 228/2/2
f 234/3/3 230/3/3 229/3/3
f 235/2/3 231/2/3 230/2/3
f 235/3/3 230/3/3 234/3/3
f 236/2/3 231/2/3 235/2/3
f 239/2/3 233/2/3 232/2/3
f 240/2/3 233/2/3 239/2/3
f 242/1/3 235/1/3 234/1/3
f 242/1/3 236/1/3 235/1/3
f 243/1/3 236/1/3 242/1/3
f 244/3/3 237/3/3 236/3/3
f 244/1/3 236/1/3 243/1/3
f 245/3/3 237/3/3 244/3/3
f 246/1/3 240/1/3 239/1/3
f 246/1/3 239/1/3 238/1/3
f 247/1/3 240/1/3 246/1/3
f 248/1/3 242/1/3 241/1/3
f 249/3/3 243/3/3 242/3/3
f 249/1/3 242/1/3 248/1/3
f 250/3/3 243/3/3 249/3/3
f 253/3/3 247/3/3 246/3/3
f 254/3/3 247/3/3 253/3/3
f 255/3/3 249/3/3 248/3/3
f 256/1/3 250/1/3 249/1/3
f 256/3/3 249/3/3 255/3/3
f 256/1/3 251/1/3 250/1/3
f 257/1/3 251/1/3 256/1/3
f 258/3/3 252/3/3 251/3/3
f 258/1/3 251/1/3 257/1/3
f 259/3/3 252/3/3 258/3/3
f 260/1/3 254/1/3 253/1/3
f 261/1/3 254/1/3 260/1/3
f 262/1/3 254/1/3 261/1/3
f 263/3/3 257/3/3 256/3/3
f 264/2/3 258/2/3 257/2/3
f 264/3/3 257/3/3 263/3/3
f 265/2/3 258/2/3 264/2/3
f 266/2/3 262/2/3 261/2/3
f 267/2/3 262/2/3 266/2/3
f 274/3/3 269/3/3 268/3/3
f 275/3/3 269/3/3 274/3/3
f 277/1/3 271/1/3 270/1/3
f 278/1/3 271/1/3 277/1/3
f 279/1/3 273/1/3 272/1/3
f 280/1/3 273/1/3 279/1/3
f 284/2/3 276/2/3 275/2/3
f 285/2/3 276/2/3 284/2/3
f 286/2/3 276/2/3 285/2/3
f 288/3/3 283/3/3 282/3/3
f 288/3/3 282/3/3 281/3/3
f 289/3/3 283/3/3 288/3/3
f 290/1/3 284/1/3 283/1/3
f 290/3/3 283/3/3 289/3/3
f 291/3/3 285/3/3 284/3/3
f 291/1/3 284/1/3 290/1/3
f 292/1/3 286/1/3 285/1/3
f 292/3/3 285/3/3 291/3/3
f 293/3/3 287/3/3 286/3/3
f 293/1/3 286/1/3 292/1/3
f 294/3/3 287/3/3 293/3/3
f 298/2/3 292/2/3 291/2/3
f 298/2/3 293/2/3 292/2/3
f 299/2/3 293/2/3 298/2/3
f 302/3/3 296/3/3 295/3/3
f 303/3/3 296/3/3 302/3/3
f 304/3/3 298/3/3 297/3/3
f 305/3/3 298/3/3 304/3/3
f 306/1/3 301/1/3 300/1/3
f 307/1/3 301/1/3 306/1/3
f 310/1/3 309/1/3 308/1/3
f 311/1/3 309/1/3 310/1/3
f 314/3/3 313/3/3 312/3/3
f 315/3/3 313/3/3 314/3/3
f 318/3/3 317/3/3 316/3/3
f 319/3/3 317/3/3 318/3/3
f 325/1/3 321/1/3 320/1/3
f 326/3/3 322/3/3 321/3/3
f 326/1/3 321/1/3 325/1/3
f 327/3/3 322/3/3 326/3/3
f 328/3/3 322/3/3 327/3/3
f 329/2/3 324/2/3 323/2/3
f 330/2/3 324/2/3 329/2/3
f 332/1/3 331/1/3 330/1/3
f 333/1/3 331/1/3 332/1/3
f 338/1/3 335/1/3 334/1/3
f 339/3/3 337/3/3 336/3/3
f 339/1/3 335/1/3 338/1/3
f 339/3/3 336/3/3 335/3/3
f 340/3/3 337/3/3 339/3/3
f 343/2/3 342/2/3 341/2/3
f 344/2/3 342/2/3 343/2/3
f 345/2/4 346/2/4 347/2/4
f 347/2/4 346/2/4 348/2/4
f 349/1/4 350/1/4 354/1/4
f 350/3/4 351/3/4 355/3/4
f 354/1/4 350/1/4 355/1/4
f 355/3/4 351/3/4 356/3/4
f 356/3/4 351/3/4 357/3/4
f 352/2/4 353/2/4 358/2/4
f 358/2/4 353/2/4 359/2/4
f 359/1/4 360/1/4 361/1/4
f 361/1/4 360/1/4 362/1/4
f 363/1/4 364/1/4 367/1/4
f 365/3/4 366/3/4 368/3/4
f 367/1/4 364/1/4 368/1/4
f 364/3/4 365/3/4 368/3/4
f 368/3/4 366/3/4 369/3/4
f 370/3/4 371/3/4 372/3/4
f 372/3/4 371/3/4 373/3/4
f 374/3/4 375/3/4 378/3/4
f 378/3/4 375/3/4 379/3/4
f 376/1/4 377/1/4 380/1/4
f 380/1/4 377/1/4 381/1/4
f 382/3/4 383/3/4 388/3/4
f 388/3/4 383/3/4 389/3/4
f 384/3/4 385/3/4 390/3/4
f 390/3/4 385/3/4 391/3/4
f 386/1/4 387/1/4 393/1/4
f 393/1/4 387/1/4 394/1/4
f 391/2/4 392/2/4 398/2/4
f 398/2/4 392/2/4 399/2/4
f 399/2/4 392/2/4 400/2/4
f 396/3/4 397/3/4 404/3/4
f 395/3/4 396/3/4 404/3/4
f 404/3/4 397/3/4 405/3/4
f 397/1/4 398/1/4 406/1/4
f 405/3/4 397/3/4 406/3/4
f 398/3/4 399/3/4 407/3/4
f 406/1/4 398/1/4 407/1/4
f 399/1/4 400/1/4 408/1/4
f 407/3/4 399/3/4 408/3/4
f 400/3/4 401/3/4 409/3/4
f 408/1/4 400/1/4 409/1/4
f 409/3/4 401/3/4 410/3/4
f 402/1/4 403/1/4 411/1/4
f 411/1/4 403/1/4 412/1/4
f 407/2/4 408/2/4 414/2/4
f 408/2/4 409/2/4 414/2/4
f 414/2/4 409/2/4 415/2/4
f 413/3/4 414/3/4 418/3/4
f 418/3/4 414/3/4 419/3/4
f 416/1/4 417/1/4 420/1/4
f 420/1/4 417/1/4 421/1/4
f 422/3/4 423/3/4 428/3/4
f 423/2/4 424/2/4 429/2/4
f 428/3/4 423/3/4 429/3/4
f 429/2/4 424/2/4 430/2/4
f 425/2/4 426/2/4 433/2/4
f 433/2/4 426/2/4 434/2/4
f 427/3/4 428/3/4 435/3/4
f 428/1/4 429/1/4 436/1/4
f 435/3/4 428/3/4 436/3/4
f 429/1/4 430/1/4 436/1/4
f 436/1/4 430/1/4 437/1/4
f 430/3/4 431/3/4 438/3/4
f 437/1/4 430/1/4 438/1/4
f 438/3/4 431/3/4 439/3/4
f 433/1/4 434/1/4 440/1/4
f 432/1/4 433/1/4 440/1/4
f 440/1/4 434/1/4 441/1/4
f 435/1/4 436/1/4 442/1/4
f 436/3/4 437/3/4 443/3/4
f 442/1/4 436/1/4 443/1/4
f 443/3/4 437/3/4 444/3/4
f 440/3/4 441/3/4 447/3/4
f 447/3/4 441/3/4 448/3/4
f 443/1/4 444/1/4 449/1/4
f 444/1/4 445/1/4 449/1/4
f 449/1/4 445/1/4 450/1/4
f 445/3/4 446/3/4 451/3/4
f 450/1/4 445/1/4 451/1/4
f 451/3/4 446/3/4 452/3/4
f 447/1/4 448/1/4 453/1/4
f 453/1/4 448/1/4 454/1/4
f 454/1/4 448/1/4 455/1/4
f 449/3/4 450/3/4 456/3/4
f 450/2/4 451/2/4 457/2/4
f 456/3/4 450/3/4 457/3/4
f 457/2/4 451/2/4 458/2/4
f 454/2/4 455/2/4 459/2/4
f 459/2/4 455/2/4 460/2/4
f 465/1/5 462/1/5 461/1/5
f 466/3/5 463/3/5 462/3/5
f 466/1/5 462/1/5 465/1/5
f 467/3/5 463/3/5 466/3/5
f 470/1/5 465/1/5 464/1/5
f 471/3/5 466/3/5 465/3/5
f 471/1/5 465/1/5 470/1/5
f 472/3/5 466/3/5 471/3/5
f 473/1/5 467/1/5 466/1/5
f 473/3/5 466/3/5 472/3/5
f 474/3/5 468/3/5 467/3/5
f 474/1/5 467/1/5 473/1/5
f 475/3/5 468/3/5 474/3/5
f 476/3/5 472/3/5 471/3/5
f 476/3/5 471/3/5 470/3/5
f 477/1/5 473/1/5 472/1/5
f 477/3/5 472/3/5 476/3/5
f 478/3/5 474/3/5 473/3/5
f 478/1/5 473/1/5 477/1/5
f 479/1/5 470/1/5 469/1/5
f 480/3/5 476/3/5 470/3/5
f 480/1/5 470/1/5 479/1/5
f 481/1/5 477/1/5 476/1/5
f 481/3/5 476/3/5 480/3/5
f 482/3/5 478/3/5 477/3/5
f 482/1/5 477/1/5 481/1/5
f 483/3/5 474/3/5 478/3/5
f 483/3/5 478/3/5 482/3/5
f 484/1/5 475/1/5 474/1/5
f 484/3/5 474/3/5 483/3/5
f 485/1/5 475/1/5 484/1/5
f 486/3/5 480/3/5 479/3/5
f 487/1/5 481/1/5 480/1/5
f 487/3/5 480/3/5 486/3/5
f 488/3/5 482/3/5 481/3/5
f 488/1/5 481/1/5 487/1/5
f 488/3/5 483/3/5 482/3/5
f 489/1/5 484/1/5 483/1/5
f 489/3/5 483/3/5 488/3/5
f 490/1/5 484/1/5 489/1/5
f 491/3/5 488/3/5 487/3/5
f 492/1/5 489/1/5 488/1/5
f 492/3/5 488/3/5 491/3/5
f 493/1/5 489/1/5 492/1/5
f 499/3/5 495/3/5 494/3/5
f 500/1/5 496/1/5 495/1/5
f 500/3/5 495/3/5 499/3/5
f 501/1/5 496/1/5 500/1/5
f 502/3/5 498/3/5 497/3/5
f 503/3/5 498/3/5 502/3/5
f 504/1/5 500/1/5 499/1/5
f 505/1/5 500/1/5 504/1/5
f 511/1/5 507/1/5 506/1/5
f 512/1/5 507/1/5 511/1/5
f 513/3/5 509/3/5 508/3/5
f 514/3/5 509/3/5 513/3/5
f 515/1/5 511/1/5 510/1/5
f 516/3/5 512/3/5 511/3/5
f 516/1/5 511/1/5 515/1/5
f 517/3/5 512/3/5 516/3/5
f 523/1/5 519/1/5 518/1/5
f 524/3/5 520/3/5 519/3/5
f 524/1/5 519/1/5 523/1/5
f 525/1/5 521/1/5 520/1/5
f 525/3/5 520/3/5 524/3/5
f 526/1/5 521/1/5 525/1/5
f 528/1/5 524/1/5 523/1/5
f 528/1/5 523/1/5 522/1/5
f 529/1/5 524/1/5 528/1/5
f 530/1/5 524/1/5 529/1/5
f 531/1/5 527/1/5 526/1/5
f 531/1/5 526/1/5 525/1/5
f 532/1/5 527/1/5 531/1/5
f 533/1/5 527/1/5 532/1/5
f 534/2/5 529/2/5 528/2/5
f 535/2/5 529/2/5 534/2/5
f 538/3/5 533/3/5 532/3/5
f 539/3/5 533/3/5 538/3/5
f 540/1/5 536/1/5 535/1/5
f 540/1/5 535/1/5 534/1/5
f 541/1/5 536/1/5 540/1/5
f 542/1/5 536/1/5 541/1/5
f 543/1/5 539/1/5 538/1/5
f 543/1/5 538/1/5 537/1/5
f 544/1/5 539/1/5 543/1/5
f 545/1/5 539/1/5 544/1/5
f 546/1/5 542/1/5 541/1/5
f 547/3/5 543/3/5 542/3/5
f 547/1/5 542/1/5 546/1/5
f 548/1/5 544/1/5 543/1/5
f 548/3/5 543/3/5 547/3/5
f 549/1/5 544/1/5 548/1/5
f 554/2/5 551/2/5 550/2/5
f 555/2/5 551/2/5 554/2/5
f 556/2/5 553/2/5 552/2/5
f 557/2/5 553/2/5 556/2/5
f 562/2/5 559/2/5 558/2/5
f 563/2/5 559/2/5 562/2/5
f 564/2/5 561/2/5 560/2/5
f 565/2/5 561/2/5 564/2/5
f 566/3/6 567/3/6 568/3/6
f 568/3/6 567/3/6 569/3/6
f 570/3/6 571/3/6 574/3/6
f 574/3/6 571/3/6 575/3/6
f 572/3/6 573/3/6 576/3/6
f 576/3/6 573/3/6 577/3/6
f 578/3/6 579/3/6 580/3/6
f 580/3/6 579/3/6 581/3/6
f 582/2/6 583/2/6 586/2/6
f 586/2/6 583/2/6 587/2/6
f 584/2/6 585/2/6 588/2/6
f 588/2/6 585/2/6 589/2/6
f 590/2/6 591/2/6 594/2/6
f 594/2/6 591/2/6 595/2/6
f 592/2/6 593/2/6 596/2/6
f 596/2/6 593/2/6 597/2/6
f 598/3/6 599/3/6 603/3/6
f 603/3/6 599/3/6 604/3/6
f 600/3/6 601/3/6 605/3/6
f 605/3/6 601/3/6 606/3/6
f 602/3/6 603/3/6 608/3/6
f 608/3/6 603/3/6 609/3/6
f 606/3/6 607/3/6 610/3/6
f 610/3/6 607/3/6 611/3/6
f 612/3/6 613/3/6 616/3/6
f 616/3/6 613/3/6 617/3/6
f 614/3/6 615/3/6 620/3/6
f 620/3/6 615/3/6 621/3/6
f 617/3/6 618/3/6 622/3/6
f 622/3/6 618/3/6 623/3/6
f 619/3/6 620/3/6 624/3/6
f 624/3/6 620/3/6 625/3/6
f 626/2/6 627/2/6 630/2/6
f 630/2/6 627/2/6 631/2/6
f 628/2/6 629/2/6 632/2/6
f 632/2/6 629/2/6 633/2/6
f 634/2/6 635/2/6 638/2/6
f 638/2/6 635/2/6 639/2/6
f 636/2/6 637/2/6 640/2/6
f 640/2/6 637/2/6 641/2/6
f 642/2/6 643/2/6 644/2/6
f 644/2/6 643/2/6 645/2/6
f 646/2/6 647/2/6 648/2/6
f 648/2/6 647/2/6 649/2/6
f 649/2/6 650/2/6 652/2/6
f 652/2/6 650/2/6 653/2/6
f 651/2/6 652/2/6 654/2/6
f 654/2/6 652/2/6 655/2/6
f 656/2/6 657/2/6 662/2/6
f 657/1/6 658/1/6 663/1/6
f 662/2/6 657/2/6 663/2/6
f 658/3/6 659/3/6 664/3/6
f 663/1/6 658/1/6 664/1/6
f 659/1/6 660/1/6 665/1/6
f 664/3/6 659/3/6 665/3/6
f 660/2/6 661/2/6 666/2/6
f 665/1/6 660/1/6 666/1/6
f 666/2/6 661/2/6 667/2/6
f 664/1/6 665/1/6 668/1/6
f 666/1/6 667/1/6 668/1/6
f 665/1/6 666/1/6 668/1/6
f 663/1/6 664/1/6 668/1/6
f 668/1/6 667/1/6 669/1/6
f 669/1/6 667/1/6 670/1/6
f 670/1/6 667/1/6 671/1/6
f 669/1/6 670/1/6 673/1/6
f 670/3/6 671/3/6 674/3/6
f 673/1/6 670/1/6 674/1/6
f 674/3/6 671/3/6 675/3/6
f 672/1/6 673/1/6 677/1/6
f 673/1/6 674/1/6 677/1/6
f 674/1/6 675/1/6 677/1/6
f 677/1/6 675/1/6 678/1/6
f 678/1/6 675/1/6 679/1/6
f 679/1/6 675/1/6 680/1/6
f 680/1/6 675/1/6 681/1/6
f 676/2/6 677/2/6 682/2/6
f 677/1/6 678/1/6 683/1/6
f 682/2/6 677/2/6 683/2/6
f 678/3/6 679/3/6 684/3/6
f 683/1/6 678/1/6 684/1/6
f 679/1/6 680/1/6 685/1/6
f 684/3/6 679/3/6 685/3/6
f 680/2/6 681/2/6 686/2/6
f 685/1/6 680/1/6 686/1/6
f 686/2/6 681/2/6 687/2/6
