# MagicaVoxel @ Ephtracy

# group
o 

# material
mtllib Bot_Runner_LOD0-2.mtl
usemtl palette

# normals
vn -1 0 0
vn 1 0 0
vn 0 0 1
vn 0 0 -1
vn 0 -1 0
vn 0 1 0

# texcoords
vt 0.970703 0.5
vt 0.974609 0.5
vt 0.978516 0.5

# verts
v 0 1.6 -0.8
v 0 1.6 -0.9
v 0 1.7 -0.9
v 0 1.7 -1
v 0 2 -0.7
v 0 2 -0.8
v 0 2 -1
v 0 2 -1.1
v 0 2.2 -0.6
v 0 2.2 -0.7
v 0 2.2 -1.1
v 0 2.2 -1.2
v 0 2.4 -0.6
v 0 2.4 -0.7
v 0 2.4 -0.8
v 0 2.4 -0.9
v 0 2.4 -1
v 0 2.4 -1.2
v 0.1 1.3 -0.6
v 0.1 1.3 -0.7
v 0.1 1.5 -0.7
v 0.1 1.5 -0.8
v 0.1 1.6 -0.8
v 0.1 1.8 -0.7
v 0.1 1.8 -0.8
v 0.1 1.9 -0.6
v 0.1 1.9 -0.7
v 0.1 2 -0.7
v 0.1 2 -0.8
v 0.1 2.2 -0.6
v 0.1 2.2 -0.7
v 0.1 2.4 -0.6
v 0.1 2.4 -0.7
v 0.1 2.4 -0.8
v 0.1 2.4 -0.9
v 0.1 2.4 -1
v 0.1 2.4 -1.2
v 0.1 2.6 -0.6
v 0.1 2.6 -0.7
v 0.1 2.6 -0.8
v 0.1 2.6 -0.9
v 0.1 2.6 -1
v 0.1 2.6 -1.2
v 0.2 1.4 -0.7
v 0.2 1.4 -0.8
v 0.2 1.5 -0.7
v 0.2 1.5 -0.8
v 0.2 1.6 -0.8
v 0.2 1.6 -0.9
v 0.2 1.7 -0.8
v 0.2 1.7 -0.9
v 0.2 1.9 -1
v 0.2 1.9 -1.1
v 0.2 2.3 -1
v 0.2 2.3 -1.1
v 0.4 1.5 -0.7
v 0.4 1.5 -0.8
v 0.4 1.6 -0.7
v 0.4 1.6 -0.8
v 0.4 1.6 -0.9
v 0.4 1.7 -0.8
v 0.4 1.7 -0.9
v 0.4 2.2 -1
v 0.4 2.2 -1.1
v 0.4 2.3 -1
v 0.4 2.3 -1.1
v 0.1 1.6 -0.8
v 0.1 1.6 -0.9
v 0.1 1.7 -0.8
v 0.1 1.7 -0.9
v 0.1 1.7 -1
v 0.1 1.8 -0.9
v 0.1 1.8 -1
v 0.1 2 -1
v 0.1 2 -1.1
v 0.1 2.2 -1.1
v 0.1 2.2 -1.2
v 0.1 2.3 -1
v 0.1 2.3 -1.1
v 0.1 2.4 -1.1
v 0.1 2.4 -1.2
v 0.2 1.3 -0.6
v 0.2 1.3 -0.7
v 0.2 1.4 -0.7
v 0.2 1.5 -0.6
v 0.2 1.5 -0.7
v 0.2 1.8 -0.9
v 0.2 1.8 -1
v 0.2 1.9 -0.9
v 0.2 1.9 -1
v 0.3 1.4 -0.7
v 0.3 1.4 -0.8
v 0.3 1.5 -0.6
v 0.3 1.5 -0.7
v 0.3 1.6 -0.6
v 0.3 1.6 -0.7
v 0.3 1.6 -0.8
v 0.3 1.6 -0.9
v 0.3 1.7 -0.8
v 0.3 1.7 -0.9
v 0.3 1.9 -0.9
v 0.3 1.9 -1
v 0.3 1.9 -1.1
v 0.3 2 -0.9
v 0.3 2 -1
v 0.3 2.3 -1
v 0.3 2.3 -1.1
v 0.3 2.5 -0.9
v 0.3 2.5 -1
v 0.3 2.5 -1.2
v 0.3 2.6 -0.9
v 0.3 2.6 -1.2
v 0.4 1.6 -0.6
v 0.4 1.6 -0.7
v 0.4 1.7 -0.6
v 0.4 1.7 -0.7
v 0.4 2 -0.9
v 0.4 2 -1
v 0.4 2.1 -0.9
v 0.4 2.1 -1
v 0.4 2.3 -0.9
v 0.4 2.3 -1
v 0.4 2.3 -1.1
v 0.4 2.4 -1.1
v 0.4 2.4 -1.2
v 0.4 2.5 -0.6
v 0.4 2.5 -0.7
v 0.4 2.5 -0.9
v 0.4 2.5 -1
v 0.4 2.5 -1.2
v 0.4 2.6 -0.6
v 0.4 2.6 -0.7
v 0.5 1.5 -0.7
v 0.5 1.5 -0.8
v 0.5 1.6 -0.7
v 0.5 1.6 -0.8
v 0.5 1.6 -0.9
v 0.5 1.7 -0.6
v 0.5 1.7 -0.7
v 0.5 2.1 -0.6
v 0.5 2.1 -0.7
v 0.5 2.1 -0.8
v 0.5 2.1 -0.9
v 0.5 2.1 -1
v 0.5 2.2 -1
v 0.5 2.2 -1.1
v 0.5 2.3 -0.6
v 0.5 2.3 -0.7
v 0.5 2.3 -0.8
v 0.5 2.3 -0.9
v 0.5 2.3 -1
v 0.5 2.3 -1.1
v 0.5 2.5 -0.6
v 0.5 2.5 -0.7
v 0.5 2.5 -0.8
v 0.5 2.5 -0.9
v 0.5 2.6 -0.7
v 0.5 2.6 -0.8
v 0.5 2.6 -0.9
v 0.6 2.1 -0.6
v 0.6 2.1 -0.7
v 0.6 2.1 -0.8
v 0.6 2.3 -0.6
v 0.6 2.3 -0.7
v 0.6 2.3 -0.8
v 0.6 2.3 -0.9
v 0.6 2.5 -0.7
v 0.6 2.5 -0.8
v 0.6 2.5 -0.9
v 0 2.2 -0.6
v 0 2.4 -0.6
v 0.1 1.3 -0.6
v 0.1 1.9 -0.6
v 0.1 2.2 -0.6
v 0.1 2.4 -0.6
v 0.1 2.6 -0.6
v 0.2 1.3 -0.6
v 0.2 1.5 -0.6
v 0.2 1.8 -0.6
v 0.2 1.9 -0.6
v 0.2 2.2 -0.6
v 0.2 2.4 -0.6
v 0.2 2.5 -0.6
v 0.2 2.6 -0.6
v 0.3 1.5 -0.6
v 0.3 1.6 -0.6
v 0.3 1.8 -0.6
v 0.3 2 -0.6
v 0.3 2.1 -0.6
v 0.3 2.2 -0.6
v 0.3 2.4 -0.6
v 0.3 2.5 -0.6
v 0.3 2.6 -0.6
v 0.4 1.6 -0.6
v 0.4 1.7 -0.6
v 0.4 2 -0.6
v 0.4 2.1 -0.6
v 0.4 2.2 -0.6
v 0.4 2.4 -0.6
v 0.4 2.5 -0.6
v 0.4 2.6 -0.6
v 0.5 1.7 -0.6
v 0.5 2.1 -0.6
v 0.5 2.2 -0.6
v 0.5 2.3 -0.6
v 0.5 2.5 -0.6
v 0.6 2.1 -0.6
v 0.6 2.3 -0.6
v 0 2 -0.7
v 0 2.2 -0.7
v 0.1 2 -0.7
v 0.1 2.2 -0.7
v 0.2 1.4 -0.7
v 0.2 1.5 -0.7
v 0.3 1.4 -0.7
v 0.3 1.5 -0.7
v 0.4 1.5 -0.7
v 0.4 1.6 -0.7
v 0.4 1.7 -0.7
v 0.4 2.5 -0.7
v 0.4 2.6 -0.7
v 0.5 1.5 -0.7
v 0.5 1.6 -0.7
v 0.5 1.7 -0.7
v 0.5 2.3 -0.7
v 0.5 2.5 -0.7
v 0.5 2.6 -0.7
v 0.6 2.3 -0.7
v 0.6 2.5 -0.7
v 0 1.6 -0.8
v 0 2 -0.8
v 0.1 1.6 -0.8
v 0.1 1.8 -0.8
v 0.1 2 -0.8
v 0.1 1.3 -0.7
v 0.1 1.5 -0.7
v 0.2 1.3 -0.7
v 0.2 1.4 -0.7
v 0.2 1.5 -0.7
v 0.1 1.5 -0.8
v 0.1 1.6 -0.8
v 0.1 1.7 -0.8
v 0.2 1.4 -0.8
v 0.2 1.5 -0.8
v 0.2 1.6 -0.8
v 0.2 1.7 -0.8
v 0.3 1.4 -0.8
v 0.3 1.6 -0.8
v 0.3 1.7 -0.8
v 0.4 1.5 -0.8
v 0.4 1.6 -0.8
v 0.4 1.7 -0.8
v 0.5 1.5 -0.8
v 0.5 1.6 -0.8
v 0.5 2.1 -0.8
v 0.5 2.3 -0.8
v 0.6 2.1 -0.8
v 0.6 2.3 -0.8
v 0 1.6 -0.9
v 0 1.7 -0.9
v 0.1 1.6 -0.9
v 0.1 1.7 -0.9
v 0.1 1.8 -0.9
v 0.2 1.6 -0.9
v 0.2 1.7 -0.9
v 0.2 1.8 -0.9
v 0.2 1.9 -0.9
v 0.3 1.6 -0.9
v 0.3 1.7 -0.9
v 0.3 1.9 -0.9
v 0.3 2 -0.9
v 0.3 2.5 -0.9
v 0.3 2.6 -0.9
v 0.4 1.6 -0.9
v 0.4 1.7 -0.9
v 0.4 2 -0.9
v 0.4 2.1 -0.9
v 0.4 2.3 -0.9
v 0.4 2.5 -0.9
v 0.5 1.6 -0.9
v 0.5 2.1 -0.9
v 0.5 2.3 -0.9
v 0.5 2.5 -0.9
v 0.5 2.6 -0.9
v 0.6 2.3 -0.9
v 0.6 2.5 -0.9
v 0 1.7 -1
v 0 2 -1
v 0.1 1.7 -1
v 0.1 1.8 -1
v 0.1 2 -1
v 0.1 2.3 -1
v 0.2 1.8 -1
v 0.2 1.9 -1
v 0.2 2.3 -1
v 0.3 2 -1
v 0.3 2.3 -1
v 0.4 2 -1
v 0.4 2.1 -1
v 0.4 2.2 -1
v 0.4 2.3 -1
v 0.5 2.1 -1
v 0.5 2.2 -1
v 0 2 -1.1
v 0 2.2 -1.1
v 0.1 2 -1.1
v 0.1 2.2 -1.1
v 0.1 2.3 -1.1
v 0.1 2.4 -1.1
v 0.2 1.9 -1.1
v 0.2 2.3 -1.1
v 0.2 2.4 -1.1
v 0.3 1.9 -1.1
v 0.3 2.3 -1.1
v 0.3 2.4 -1.1
v 0.4 2.2 -1.1
v 0.4 2.3 -1.1
v 0.4 2.4 -1.1
v 0.5 2.2 -1.1
v 0.5 2.3 -1.1
v 0 2.2 -1.2
v 0 2.4 -1.2
v 0.1 2.2 -1.2
v 0.1 2.4 -1.2
v 0.1 2.6 -1.2
v 0.2 2.4 -1.2
v 0.2 2.6 -1.2
v 0.3 2.4 -1.2
v 0.3 2.5 -1.2
v 0.3 2.6 -1.2
v 0.4 2.4 -1.2
v 0.4 2.5 -1.2
v 0.1 1.3 -0.6
v 0.2 1.3 -0.6
v 0.1 1.3 -0.7
v 0.2 1.3 -0.7
v 0.2 1.4 -0.7
v 0.3 1.4 -0.7
v 0.2 1.4 -0.8
v 0.3 1.4 -0.8
v 0.2 1.5 -0.6
v 0.3 1.5 -0.6
v 0.1 1.5 -0.7
v 0.2 1.5 -0.7
v 0.3 1.5 -0.7
v 0.4 1.5 -0.7
v 0.5 1.5 -0.7
v 0.1 1.5 -0.8
v 0.2 1.5 -0.8
v 0.4 1.5 -0.8
v 0.5 1.5 -0.8
v 0.3 1.6 -0.6
v 0.4 1.6 -0.6
v 0.3 1.6 -0.7
v 0.4 1.6 -0.7
v 0 1.6 -0.8
v 0.1 1.6 -0.8
v 0.2 1.6 -0.8
v 0.3 1.6 -0.8
v 0.4 1.6 -0.8
v 0.5 1.6 -0.8
v 0 1.6 -0.9
v 0.1 1.6 -0.9
v 0.2 1.6 -0.9
v 0.3 1.6 -0.9
v 0.4 1.6 -0.9
v 0.5 1.6 -0.9
v 0.4 1.7 -0.6
v 0.5 1.7 -0.6
v 0.4 1.7 -0.7
v 0.5 1.7 -0.7
v 0.1 1.7 -0.8
v 0.2 1.7 -0.8
v 0.3 1.7 -0.8
v 0.4 1.7 -0.8
v 0 1.7 -0.9
v 0.1 1.7 -0.9
v 0.2 1.7 -0.9
v 0.3 1.7 -0.9
v 0.4 1.7 -0.9
v 0 1.7 -1
v 0.1 1.7 -1
v 0.1 1.8 -0.9
v 0.2 1.8 -0.9
v 0.1 1.8 -1
v 0.2 1.8 -1
v 0.2 1.9 -0.9
v 0.3 1.9 -0.9
v 0.2 1.9 -1
v 0.3 1.9 -1
v 0.2 1.9 -1.1
v 0.3 1.9 -1.1
v 0 2 -0.7
v 0.1 2 -0.7
v 0 2 -0.8
v 0.1 2 -0.8
v 0.3 2 -0.9
v 0.4 2 -0.9
v 0 2 -1
v 0.1 2 -1
v 0.3 2 -1
v 0.4 2 -1
v 0 2 -1.1
v 0.1 2 -1.1
v 0.5 2.1 -0.6
v 0.6 2.1 -0.6
v 0.5 2.1 -0.7
v 0.6 2.1 -0.7
v 0.5 2.1 -0.8
v 0.6 2.1 -0.8
v 0.4 2.1 -0.9
v 0.5 2.1 -0.9
v 0.4 2.1 -1
v 0.5 2.1 -1
v 0 2.2 -0.6
v 0.1 2.2 -0.6
v 0 2.2 -0.7
v 0.1 2.2 -0.7
v 0.4 2.2 -1
v 0.5 2.2 -1
v 0 2.2 -1.1
v 0.1 2.2 -1.1
v 0.4 2.2 -1.1
v 0.5 2.2 -1.1
v 0 2.2 -1.2
v 0.1 2.2 -1.2
v 0.5 2.3 -0.8
v 0.6 2.3 -0.8
v 0.5 2.3 -0.9
v 0.6 2.3 -0.9
v 0.1 2.3 -1
v 0.2 2.3 -1
v 0.3 2.3 -1
v 0.4 2.3 -1
v 0.1 2.3 -1.1
v 0.2 2.3 -1.1
v 0.3 2.3 -1.1
v 0.4 2.3 -1.1
v 0.1 2.4 -1.1
v 0.2 2.4 -1.1
v 0.3 2.4 -1.1
v 0.4 2.4 -1.1
v 0.1 2.4 -1.2
v 0.2 2.4 -1.2
v 0.3 2.4 -1.2
v 0.4 2.4 -1.2
v 0.5 2.3 -0.6
v 0.6 2.3 -0.6
v 0.5 2.3 -0.7
v 0.6 2.3 -0.7
v 0.4 2.3 -0.9
v 0.5 2.3 -0.9
v 0.4 2.3 -1
v 0.5 2.3 -1
v 0.4 2.3 -1.1
v 0.5 2.3 -1.1
v 0 2.4 -0.6
v 0.1 2.4 -0.6
v 0 2.4 -0.7
v 0.1 2.4 -0.7
v 0 2.4 -0.8
v 0.1 2.4 -0.8
v 0 2.4 -0.9
v 0.1 2.4 -0.9
v 0 2.4 -1
v 0.1 2.4 -1
v 0 2.4 -1.2
v 0.1 2.4 -1.2
v 0.4 2.5 -0.6
v 0.5 2.5 -0.6
v 0.4 2.5 -0.7
v 0.5 2.5 -0.7
v 0.6 2.5 -0.7
v 0.5 2.5 -0.8
v 0.6 2.5 -0.8
v 0.3 2.5 -0.9
v 0.4 2.5 -0.9
v 0.5 2.5 -0.9
v 0.6 2.5 -0.9
v 0.3 2.5 -1
v 0.4 2.5 -1
v 0.3 2.5 -1.2
v 0.4 2.5 -1.2
v 0.1 2.6 -0.6
v 0.2 2.6 -0.6
v 0.3 2.6 -0.6
v 0.4 2.6 -0.6
v 0.1 2.6 -0.7
v 0.2 2.6 -0.7
v 0.3 2.6 -0.7
v 0.4 2.6 -0.7
v 0.5 2.6 -0.7
v 0.1 2.6 -0.8
v 0.2 2.6 -0.8
v 0.3 2.6 -0.8
v 0.5 2.6 -0.8
v 0.1 2.6 -0.9
v 0.2 2.6 -0.9
v 0.3 2.6 -0.9
v 0.5 2.6 -0.9
v 0.1 2.6 -1
v 0.2 2.6 -1
v 0.1 2.6 -1.2
v 0.2 2.6 -1.2
v 0.3 2.6 -1.2

# faces
f 3/3/1 2/3/1 1/3/1
f 6/3/1 3/3/1 1/3/1
f 7/1/1 4/1/1 3/1/1
f 10/1/1 6/1/1 5/1/1
f 11/3/1 8/3/1 7/3/1
f 13/3/1 10/3/1 9/3/1
f 14/1/1 6/1/1 10/1/1
f 14/3/1 10/3/1 13/3/1
f 15/3/1 3/3/1 6/3/1
f 15/1/1 6/1/1 14/1/1
f 16/1/1 7/1/1 3/1/1
f 16/3/1 3/3/1 15/3/1
f 17/3/1 12/3/1 11/3/1
f 17/1/1 7/1/1 16/1/1
f 17/3/1 11/3/1 7/3/1
f 18/3/1 12/3/1 17/3/1
f 21/3/1 20/3/1 19/3/1
f 23/2/1 22/2/1 21/2/1
f 24/3/1 21/3/1 19/3/1
f 24/2/1 23/2/1 21/2/1
f 25/2/1 23/2/1 24/2/1
f 26/3/1 24/3/1 19/3/1
f 27/1/1 25/1/1 24/1/1
f 27/3/1 24/3/1 26/3/1
f 28/1/1 27/1/1 26/1/1
f 28/1/1 25/1/1 27/1/1
f 29/1/1 25/1/1 28/1/1
f 30/1/1 28/1/1 26/1/1
f 31/1/1 28/1/1 30/1/1
f 38/3/1 33/3/1 32/3/1
f 39/1/1 34/1/1 33/1/1
f 39/3/1 33/3/1 38/3/1
f 40/3/1 35/3/1 34/3/1
f 40/1/1 34/1/1 39/1/1
f 41/1/1 36/1/1 35/1/1
f 41/3/1 35/3/1 40/3/1
f 42/3/1 37/3/1 36/3/1
f 42/1/1 36/1/1 41/1/1
f 43/3/1 37/3/1 42/3/1
f 46/2/1 45/2/1 44/2/1
f 47/2/1 45/2/1 46/2/1
f 50/2/1 49/2/1 48/2/1
f 51/2/1 49/2/1 50/2/1
f 54/3/1 53/3/1 52/3/1
f 55/3/1 53/3/1 54/3/1
f 58/3/1 57/3/1 56/3/1
f 59/3/1 57/3/1 58/3/1
f 61/3/1 60/3/1 59/3/1
f 62/3/1 60/3/1 61/3/1
f 65/3/1 64/3/1 63/3/1
f 66/3/1 64/3/1 65/3/1
f 67/3/2 68/3/2 69/3/2
f 69/3/2 68/3/2 70/3/2
f 70/1/2 71/1/2 72/1/2
f 72/1/2 71/1/2 73/1/2
f 74/3/2 75/3/2 76/3/2
f 74/3/2 76/3/2 78/3/2
f 76/3/2 77/3/2 78/3/2
f 78/3/2 77/3/2 79/3/2
f 79/3/2 77/3/2 80/3/2
f 80/3/2 77/3/2 81/3/2
f 82/3/2 83/3/2 84/3/2
f 82/3/2 84/3/2 85/3/2
f 85/3/2 84/3/2 86/3/2
f 87/2/2 88/2/2 89/2/2
f 89/2/2 88/2/2 90/2/2
f 91/2/2 92/2/2 94/2/2
f 93/3/2 94/3/2 95/3/2
f 94/2/2 92/2/2 96/2/2
f 95/3/2 94/3/2 96/3/2
f 96/2/2 92/2/2 97/2/2
f 97/2/2 98/2/2 99/2/2
f 99/2/2 98/2/2 100/2/2
f 101/2/2 102/2/2 104/2/2
f 102/3/2 103/3/2 105/3/2
f 104/2/2 102/2/2 105/2/2
f 105/3/2 103/3/2 106/3/2
f 106/3/2 103/3/2 107/3/2
f 108/2/2 109/2/2 111/2/2
f 109/2/2 110/2/2 111/2/2
f 111/2/2 110/2/2 112/2/2
f 113/3/2 114/3/2 115/3/2
f 115/3/2 114/3/2 116/3/2
f 117/2/2 118/2/2 119/2/2
f 119/2/2 118/2/2 120/2/2
f 122/3/2 123/3/2 124/3/2
f 121/1/2 122/1/2 128/1/2
f 122/3/2 124/3/2 129/3/2
f 128/1/2 122/1/2 129/1/2
f 124/3/2 125/3/2 129/3/2
f 129/3/2 125/3/2 130/3/2
f 126/3/2 127/3/2 131/3/2
f 131/3/2 127/3/2 132/3/2
f 133/3/2 134/3/2 135/3/2
f 135/3/2 134/3/2 136/3/2
f 135/1/2 136/1/2 139/1/2
f 138/3/2 139/3/2 140/3/2
f 139/1/2 136/1/2 141/1/2
f 140/3/2 139/3/2 141/3/2
f 136/3/2 137/3/2 142/3/2
f 141/1/2 136/1/2 142/1/2
f 142/3/2 137/3/2 143/3/2
f 143/1/2 144/1/2 145/1/2
f 142/3/2 143/3/2 149/3/2
f 143/1/2 145/1/2 150/1/2
f 149/3/2 143/3/2 150/3/2
f 145/3/2 146/3/2 151/3/2
f 150/1/2 145/1/2 151/1/2
f 151/3/2 146/3/2 152/3/2
f 147/3/2 148/3/2 153/3/2
f 153/3/2 148/3/2 154/3/2
f 154/1/2 155/1/2 157/1/2
f 155/3/2 156/3/2 158/3/2
f 157/1/2 155/1/2 158/1/2
f 158/3/2 156/3/2 159/3/2
f 160/3/2 161/3/2 163/3/2
f 161/1/2 162/1/2 164/1/2
f 163/3/2 161/3/2 164/3/2
f 164/1/2 162/1/2 165/1/2
f 164/1/2 165/1/2 167/1/2
f 165/3/2 166/3/2 168/3/2
f 167/1/2 165/1/2 168/1/2
f 168/3/2 166/3/2 169/3/2
f 174/3/3 171/3/3 170/3/3
f 175/3/3 171/3/3 174/3/3
f 177/3/3 173/3/3 172/3/3
f 178/3/3 173/3/3 177/3/3
f 179/3/3 173/3/3 178/3/3
f 180/1/3 174/1/3 173/1/3
f 180/3/3 173/3/3 179/3/3
f 180/1/3 175/1/3 174/1/3
f 181/1/3 175/1/3 180/1/3
f 182/3/3 176/3/3 175/3/3
f 182/1/3 175/1/3 181/1/3
f 183/3/3 176/3/3 182/3/3
f 184/3/3 176/3/3 183/3/3
f 185/3/3 179/3/3 178/3/3
f 186/3/3 179/3/3 185/3/3
f 187/2/3 181/2/3 180/2/3
f 187/3/3 179/3/3 186/3/3
f 187/2/3 180/2/3 179/2/3
f 188/2/3 181/2/3 187/2/3
f 189/2/3 181/2/3 188/2/3
f 190/1/3 182/1/3 181/1/3
f 190/2/3 181/2/3 189/2/3
f 190/1/3 183/1/3 182/1/3
f 191/1/3 183/1/3 190/1/3
f 192/2/3 184/2/3 183/2/3
f 192/1/3 183/1/3 191/1/3
f 193/2/3 184/2/3 192/2/3
f 194/3/3 188/3/3 187/3/3
f 194/3/3 187/3/3 186/3/3
f 195/3/3 188/3/3 194/3/3
f 196/1/3 189/1/3 188/1/3
f 196/3/3 188/3/3 195/3/3
f 197/2/3 191/2/3 190/2/3
f 197/1/3 189/1/3 196/1/3
f 197/2/3 190/2/3 189/2/3
f 198/2/3 191/2/3 197/2/3
f 199/1/3 192/1/3 191/1/3
f 199/2/3 191/2/3 198/2/3
f 200/3/3 193/3/3 192/3/3
f 200/1/3 192/1/3 199/1/3
f 201/3/3 193/3/3 200/3/3
f 202/3/3 196/3/3 195/3/3
f 202/3/3 197/3/3 196/3/3
f 203/1/3 198/1/3 197/1/3
f 203/3/3 197/3/3 202/3/3
f 204/3/3 200/3/3 199/3/3
f 204/1/3 198/1/3 203/1/3
f 204/3/3 199/3/3 198/3/3
f 205/3/3 200/3/3 204/3/3
f 206/3/3 200/3/3 205/3/3
f 207/3/3 204/3/3 203/3/3
f 207/3/3 205/3/3 204/3/3
f 208/3/3 205/3/3 207/3/3
f 211/1/3 210/1/3 209/1/3
f 212/1/3 210/1/3 211/1/3
f 215/2/3 214/2/3 213/2/3
f 216/2/3 214/2/3 215/2/3
f 222/3/3 218/3/3 217/3/3
f 223/1/3 219/1/3 218/1/3
f 223/3/3 218/3/3 222/3/3
f 224/1/3 219/1/3 223/1/3
f 226/1/3 221/1/3 220/1/3
f 227/1/3 221/1/3 226/1/3
f 228/1/3 226/1/3 225/1/3
f 229/1/3 226/1/3 228/1/3
f 232/3/3 231/3/3 230/3/3
f 233/3/3 231/3/3 232/3/3
f 234/3/3 231/3/3 233/3/3
f 235/3/4 236/3/4 237/3/4
f 237/3/4 236/3/4 238/3/4
f 238/3/4 236/3/4 239/3/4
f 240/2/4 241/2/4 244/2/4
f 241/2/4 242/2/4 244/2/4
f 244/2/4 242/2/4 245/2/4
f 245/2/4 242/2/4 246/2/4
f 243/2/4 244/2/4 247/2/4
f 244/2/4 245/2/4 247/2/4
f 247/2/4 245/2/4 248/2/4
f 248/2/4 249/2/4 251/2/4
f 251/2/4 249/2/4 252/2/4
f 250/3/4 251/3/4 253/3/4
f 253/3/4 251/3/4 254/3/4
f 255/1/4 256/1/4 257/1/4
f 257/1/4 256/1/4 258/1/4
f 259/3/4 260/3/4 261/3/4
f 261/3/4 260/3/4 262/3/4
f 262/2/4 263/2/4 265/2/4
f 265/2/4 263/2/4 266/2/4
f 264/2/4 265/2/4 268/2/4
f 266/2/4 267/2/4 268/2/4
f 265/2/4 266/2/4 268/2/4
f 268/2/4 267/2/4 269/2/4
f 269/2/4 267/2/4 270/2/4
f 269/2/4 270/2/4 275/2/4
f 270/2/4 271/2/4 275/2/4
f 275/2/4 271/2/4 276/2/4
f 272/3/4 273/3/4 279/3/4
f 276/3/4 277/3/4 280/3/4
f 274/3/4 275/3/4 280/3/4
f 275/3/4 276/3/4 280/3/4
f 280/3/4 277/3/4 281/3/4
f 278/3/4 279/3/4 282/3/4
f 279/3/4 273/3/4 283/3/4
f 282/3/4 279/3/4 283/3/4
f 283/3/4 273/3/4 284/3/4
f 282/3/4 283/3/4 285/3/4
f 285/3/4 283/3/4 286/3/4
f 287/1/4 288/1/4 289/1/4
f 289/1/4 288/1/4 290/1/4
f 290/1/4 288/1/4 291/1/4
f 291/2/4 292/2/4 293/2/4
f 290/2/4 291/2/4 293/2/4
f 293/2/4 292/2/4 294/2/4
f 294/2/4 292/2/4 295/2/4
f 296/2/4 297/2/4 298/2/4
f 298/2/4 297/2/4 299/2/4
f 299/2/4 297/2/4 300/2/4
f 300/2/4 297/2/4 301/2/4
f 299/1/4 300/1/4 302/1/4
f 302/1/4 300/1/4 303/1/4
f 304/3/4 305/3/4 306/3/4
f 306/3/4 305/3/4 307/3/4
f 308/3/4 309/3/4 311/3/4
f 311/3/4 309/3/4 312/3/4
f 310/3/4 311/3/4 313/3/4
f 311/2/4 312/2/4 314/2/4
f 313/3/4 311/3/4 314/3/4
f 314/2/4 312/2/4 315/2/4
f 314/3/4 315/3/4 317/3/4
f 317/3/4 315/3/4 318/3/4
f 316/3/4 317/3/4 319/3/4
f 319/3/4 317/3/4 320/3/4
f 321/3/4 322/3/4 323/3/4
f 323/3/4 322/3/4 324/3/4
f 324/3/4 325/3/4 326/3/4
f 326/3/4 325/3/4 327/3/4
f 326/2/4 327/2/4 328/2/4
f 328/2/4 327/2/4 329/2/4
f 329/2/4 327/2/4 330/2/4
f 328/3/4 329/3/4 331/3/4
f 331/3/4 329/3/4 332/3/4
f 335/3/5 334/3/5 333/3/5
f 336/3/5 334/3/5 335/3/5
f 339/2/5 338/2/5 337/2/5
f 340/2/5 338/2/5 339/2/5
f 344/3/5 342/3/5 341/3/5
f 345/3/5 342/3/5 344/3/5
f 348/2/5 344/2/5 343/2/5
f 349/2/5 344/2/5 348/2/5
f 350/3/5 347/3/5 346/3/5
f 351/3/5 347/3/5 350/3/5
f 354/3/5 353/3/5 352/3/5
f 355/3/5 353/3/5 354/3/5
f 359/2/5 355/2/5 354/2/5
f 360/2/5 355/2/5 359/2/5
f 362/3/5 357/3/5 356/3/5
f 363/3/5 357/3/5 362/3/5
f 364/2/5 359/2/5 358/2/5
f 365/2/5 359/2/5 364/2/5
f 366/3/5 361/3/5 360/3/5
f 367/3/5 361/3/5 366/3/5
f 370/3/5 369/3/5 368/3/5
f 371/3/5 369/3/5 370/3/5
f 377/2/5 373/2/5 372/2/5
f 378/2/5 373/2/5 377/2/5
f 379/2/5 375/2/5 374/2/5
f 380/2/5 375/2/5 379/2/5
f 381/1/5 377/1/5 376/1/5
f 382/1/5 377/1/5 381/1/5
f 385/2/5 384/2/5 383/2/5
f 386/2/5 384/2/5 385/2/5
f 389/2/5 388/2/5 387/2/5
f 390/2/5 388/2/5 389/2/5
f 391/3/5 390/3/5 389/3/5
f 392/3/5 390/3/5 391/3/5
f 395/1/5 394/1/5 393/1/5
f 396/1/5 394/1/5 395/1/5
f 401/2/5 398/2/5 397/2/5
f 402/2/5 398/2/5 401/2/5
f 403/3/5 400/3/5 399/3/5
f 404/3/5 400/3/5 403/3/5
f 407/3/5 406/3/5 405/3/5
f 408/3/5 406/3/5 407/3/5
f 409/1/5 408/1/5 407/1/5
f 410/1/5 408/1/5 409/1/5
f 413/1/5 412/1/5 411/1/5
f 414/1/5 412/1/5 413/1/5
f 417/3/5 416/3/5 415/3/5
f 418/3/5 416/3/5 417/3/5
f 423/3/5 420/3/5 419/3/5
f 424/3/5 420/3/5 423/3/5
f 425/3/5 422/3/5 421/3/5
f 426/3/5 422/3/5 425/3/5
f 429/3/5 428/3/5 427/3/5
f 430/3/5 428/3/5 429/3/5
f 435/3/5 432/3/5 431/3/5
f 436/3/5 432/3/5 435/3/5
f 437/3/5 434/3/5 433/3/5
f 438/3/5 434/3/5 437/3/5
f 443/3/5 440/3/5 439/3/5
f 444/2/5 441/2/5 440/2/5
f 444/3/5 440/3/5 443/3/5
f 445/3/5 442/3/5 441/3/5
f 445/2/5 441/2/5 444/2/5
f 446/3/5 442/3/5 445/3/5
f 447/3/6 448/3/6 449/3/6
f 449/3/6 448/3/6 450/3/6
f 451/1/6 452/1/6 453/1/6
f 453/1/6 452/1/6 454/1/6
f 453/3/6 454/3/6 455/3/6
f 455/3/6 454/3/6 456/3/6
f 457/3/6 458/3/6 459/3/6
f 459/3/6 458/3/6 460/3/6
f 459/1/6 460/1/6 461/1/6
f 461/1/6 460/1/6 462/1/6
f 461/3/6 462/3/6 463/3/6
f 463/3/6 462/3/6 464/3/6
f 463/1/6 464/1/6 465/1/6
f 465/1/6 464/1/6 466/1/6
f 465/3/6 466/3/6 467/3/6
f 467/3/6 466/3/6 468/3/6
f 469/3/6 470/3/6 471/3/6
f 471/3/6 470/3/6 472/3/6
f 472/1/6 473/1/6 474/1/6
f 474/1/6 473/1/6 475/1/6
f 474/3/6 475/3/6 478/3/6
f 478/3/6 475/3/6 479/3/6
f 476/1/6 477/1/6 480/1/6
f 480/1/6 477/1/6 481/1/6
f 480/3/6 481/3/6 482/3/6
f 482/3/6 481/3/6 483/3/6
f 484/3/6 485/3/6 488/3/6
f 485/2/6 486/2/6 489/2/6
f 488/3/6 485/3/6 489/3/6
f 486/3/6 487/3/6 490/3/6
f 489/2/6 486/2/6 490/2/6
f 490/3/6 487/3/6 491/3/6
f 488/1/6 489/1/6 493/1/6
f 489/2/6 490/2/6 494/2/6
f 493/1/6 489/1/6 494/1/6
f 491/1/6 492/1/6 495/1/6
f 494/2/6 490/2/6 495/2/6
f 490/1/6 491/1/6 495/1/6
f 495/1/6 492/1/6 496/1/6
f 493/3/6 494/3/6 497/3/6
f 494/2/6 495/2/6 498/2/6
f 497/3/6 494/3/6 498/3/6
f 495/3/6 496/3/6 499/3/6
f 498/2/6 495/2/6 499/2/6
f 499/3/6 496/3/6 500/3/6
f 497/1/6 498/1/6 501/1/6
f 498/2/6 499/2/6 502/2/6
f 501/1/6 498/1/6 502/1/6
f 501/3/6 502/3/6 503/3/6
f 502/2/6 499/2/6 504/2/6
f 503/3/6 502/3/6 504/3/6
f 504/2/6 499/2/6 505/2/6
