# Blender v2.93.5 OBJ File: ''
# www.blender.org
mtllib MediumRock2.mtl
o Cube
v 0.581319 0.896774 -0.356514
v 1.118479 -0.304697 -1.164719
v 0.776439 0.747382 0.942510
v 0.965137 -0.321884 1.063284
v -1.205585 0.796389 0.012359
v -0.802053 -0.044933 -0.870438
v -0.835962 1.019642 0.731451
v -0.744992 -0.043255 1.017544
v -1.187372 -0.164063 0.093640
v 0.814758 1.051372 0.331403
v -0.881449 1.190872 0.278153
v 1.226907 -0.425479 0.090100
v 0.237122 -0.371600 -1.515853
v 0.061034 1.017117 0.939460
v -0.087197 -0.208392 0.931295
v -0.404000 1.039235 -0.315162
v -0.358542 -0.614051 -0.072509
v -0.111383 1.196880 0.384785
v 0.876473 0.353595 -0.858684
v -1.014062 0.652289 1.019542
v 0.865397 0.299578 1.183049
v -1.053605 0.500133 -0.787809
v 1.279417 0.243506 0.299422
v -1.519262 0.319760 0.586213
v -0.157857 0.436962 -0.861696
v -0.064130 0.669955 0.966732
vt 0.562024 0.439671
vt 0.699550 0.448695
vt 0.685240 0.501145
vt 0.523303 0.502546
vt 0.932343 0.226674
vt 0.998130 0.222026
vt 0.959782 0.379361
vt 0.881346 0.387836
vt 0.700458 0.523225
vt 0.854289 0.506286
vt 0.836435 0.553878
vt 0.904556 0.685921
vt 0.316856 0.228590
vt 0.081959 0.392216
vt 0.001870 0.230259
vt 0.156566 0.124405
vt 0.569942 0.654684
vt 0.404866 0.670080
vt 0.437828 0.557643
vt 0.511397 0.506286
vt 0.619302 0.185241
vt 0.633927 0.329235
vt 0.466044 0.277527
vt 0.440263 0.143805
vt 0.548087 0.868369
vt 0.427853 0.793344
vt 0.401126 0.492303
vt 0.240783 0.548229
vt 0.998130 0.402698
vt 0.811071 0.465918
vt 0.772772 0.384639
vt 0.404866 0.387848
vt 0.850677 0.779618
vt 0.904556 0.972484
vt 0.682497 0.798972
vt 0.707765 0.659728
vt 0.772772 0.231970
vt 0.401126 0.108108
vt 0.232000 0.035320
vt 0.909618 0.046288
vt 0.987391 0.086608
vt 0.404906 0.455497
vt 0.812036 0.001870
vt 0.782971 0.189815
vt 0.744720 0.163346
vt 0.586481 0.001870
vt 0.256154 0.002077
vt 0.380078 0.001870
vt 0.678757 0.907724
vt 0.678757 0.681798
vt 0.422099 0.031629
vt 0.621677 0.515707
vt 0.776512 0.308955
vn -0.0663 0.9378 0.3409
vn -0.0791 0.4304 0.8992
vn -0.8939 0.4281 -0.1330
vn -0.0003 -0.9684 0.2494
vn 0.8438 0.4262 0.3261
vn 0.0635 0.6901 -0.7210
vn 0.7836 0.5528 -0.2835
vn 0.1251 -0.9860 -0.1102
vn -0.7092 0.6246 0.3269
vn -0.1971 0.9000 -0.3887
vn 0.1308 0.9555 -0.2646
vn -0.4784 -0.8186 -0.3179
vn -0.2211 0.7798 -0.5857
vn -0.3055 -0.8838 0.3545
vn -0.0021 0.3193 0.9476
vn 0.2399 0.9061 0.3484
vn -0.1982 -0.1109 0.9739
vn -0.2595 0.3631 -0.8949
vn -0.5882 -0.5488 0.5940
vn 0.9606 0.2085 -0.1836
vn 0.1521 0.5867 -0.7954
vn 0.9368 -0.0538 0.3456
vn -0.8835 -0.2998 -0.3600
vn 0.0852 -0.0104 0.9963
usemtl Material
s off
f 18/1/1 11/2/1 7/3/1 14/4/1
f 26/5/2 14/6/2 7/7/2 20/8/2
f 24/9/3 11/10/3 5/11/3 22/12/3
f 17/13/4 12/14/4 4/15/4 15/16/4
f 23/17/5 10/18/5 3/19/5 21/20/5
f 25/21/6 16/22/6 1/23/6 19/24/6
f 19/25/7 1/26/7 10/18/7 23/17/7
f 13/27/8 2/28/8 12/14/8 17/13/8
f 20/8/9 7/7/9 11/29/9 24/30/9
f 16/22/10 5/31/10 11/2/10 18/1/10
f 1/23/11 16/22/11 18/1/11 10/32/11
f 6/33/12 13/34/12 17/35/12 9/36/12
f 22/37/13 5/31/13 16/22/13 25/21/13
f 9/38/14 17/13/14 15/16/14 8/39/14
f 21/40/15 3/41/15 14/6/15 26/5/15
f 10/32/16 18/1/16 14/4/16 3/42/16
f 4/43/17 21/40/17 26/5/17 15/44/17
f 6/45/18 22/37/18 25/21/18 13/46/18
f 8/39/19 20/47/19 24/48/19 9/38/19
f 2/49/20 19/25/20 23/17/20 12/50/20
f 13/46/21 25/21/21 19/24/21 2/51/21
f 12/50/22 23/17/22 21/20/22 4/52/22
f 9/36/23 24/9/23 22/12/23 6/33/23
f 15/44/24 26/5/24 20/8/24 8/53/24
